<?xml version="1.0" encoding="utf-8"?>
<!-- Generator: Adobe Illustrator 21.0.0, SVG Export Plug-In . SVG Version: 6.00 Build 0)  -->
<svg version="1.1" id="Calque_1" xmlns="http://www.w3.org/2000/svg" xmlns:xlink="http://www.w3.org/1999/xlink" x="0px" y="0px"
	 viewBox="0 0 100 100" style="enable-background:new 0 0 100 100;" xml:space="preserve">
<style type="text/css">
	.st0{fill:#61A2A1;}
	.st1{fill:none;}
	.st2{opacity:0.5;}
	.st3{fill:#578E8B;}
	.st4{fill:#F1F2F2;}
</style>
<g>
	<circle class="st0" cx="50" cy="50" r="50"/>
</g>
<g>
	<circle class="st0" cx="50" cy="50" r="50"/>
</g>
<g>
	<g>
		<path class="st1" d="M34.7,56.9l21.7-28.5l41.1,37.2c1.6-4.9,2.5-10.1,2.5-15.5c0-27.6-22.4-50-50-50S0,22.4,0,50s22.4,50,50,50
			c7.6,0,14.8-1.8,21.3-4.8L34.7,56.9z"/>
	</g>
	<g class="st2">
		<path class="st3" d="M47.7,72.8l26.7,20.9c10.5-5.8,21-16.8,24.2-32.5L53.4,27.9L47.7,72.8z"/>
	</g>
</g>
<g>
	<path class="st4" d="M53.4,72.4h-5.7V34.4l-11.5,4.2v-5.2l16.3-6.1h0.9V72.4z"/>
</g>
</svg>
