<?xml version="1.0" encoding="utf-8"?>
<!-- Generator: Adobe Illustrator 21.0.0, SVG Export Plug-In . SVG Version: 6.00 Build 0)  -->
<svg version="1.1" id="Calque_1" xmlns="http://www.w3.org/2000/svg" xmlns:xlink="http://www.w3.org/1999/xlink" x="0px" y="0px"
	 viewBox="0 0 100 100" style="enable-background:new 0 0 100 100;" xml:space="preserve">
<style type="text/css">
	.st0{fill:#61A2A1;}
	.st1{fill:none;}
	.st2{opacity:0.5;}
	.st3{fill:#578E8B;}
	.st4{fill:#F1F2F2;}
</style>
<g>
	<g>
		<circle class="st0" cx="50" cy="50" r="50"/>
	</g>
	<g>
		<circle class="st0" cx="50" cy="50" r="50"/>
	</g>
	<g>
		<g>
			<path class="st1" d="M34.7,56.9l21.7-28.5l41.1,37.2c1.6-4.9,2.5-10.1,2.5-15.5c0-27.6-22.4-50-50-50S0,22.4,0,50s22.4,50,50,50
				c7.6,0,14.8-1.8,21.3-4.8L34.7,56.9z"/>
		</g>
		<g class="st2">
			<path class="st3" d="M51.3,69.9l23.5,23.6c7.7-4.7,17.7-11.9,23.7-31.1l-47.2-37L51.3,69.9z"/>
		</g>
	</g>
	<g>
		<path class="st4" d="M46.3,44.9h4.1c2.6,0,4.6-0.7,6.1-2.1c1.5-1.3,2.2-3.1,2.2-5.4c0-5.1-2.5-7.6-7.6-7.6c-2.4,0-4.3,0.7-5.7,2
			c-1.4,1.4-2.1,3.2-2.1,5.4h-5.5c0-3.4,1.3-6.3,3.8-8.6c2.5-2.3,5.7-3.4,9.6-3.4c4.1,0,7.3,1.1,9.6,3.2c2.3,2.2,3.5,5.2,3.5,9
			c0,1.9-0.6,3.7-1.8,5.5c-1.2,1.8-2.9,3.1-5,4c2.4,0.8,4.2,2,5.5,3.8c1.3,1.7,2,3.9,2,6.4c0,3.9-1.3,7-3.8,9.3
			c-2.5,2.3-5.9,3.4-9.9,3.4c-4.1,0-7.4-1.1-9.9-3.3c-2.6-2.2-3.8-5.1-3.8-8.7h5.5c0,2.3,0.7,4.1,2.2,5.5s3.5,2.1,6,2.1
			c2.7,0,4.7-0.7,6.1-2.1c1.4-1.4,2.1-3.4,2.1-6c0-2.5-0.8-4.5-2.3-5.8c-1.5-1.4-3.8-2-6.7-2.1h-4.1V44.9z"/>
	</g>
</g>
</svg>
