<?xml version="1.0" encoding="utf-8"?>
<!-- Generator: Adobe Illustrator 21.0.0, SVG Export Plug-In . SVG Version: 6.00 Build 0)  -->
<svg version="1.1" id="Calque_1" xmlns="http://www.w3.org/2000/svg" xmlns:xlink="http://www.w3.org/1999/xlink" x="0px" y="0px"
	 viewBox="0 0 100 100" style="enable-background:new 0 0 100 100;" xml:space="preserve">
<style type="text/css">
	.st0{fill:#61A2A1;}
	.st1{fill:none;}
	.st2{opacity:0.5;}
	.st3{fill:#578E8B;}
	.st4{fill:#F1F2F2;}
</style>
<g>
	<g>
		<circle class="st0" cx="50.1" cy="50" r="50"/>
	</g>
	<g>
		<circle class="st0" cx="50.1" cy="50" r="50"/>
	</g>
	<g>
		<g>
			<path class="st1" d="M34.8,56.9l21.7-28.5l41.1,37.2c1.6-4.9,2.5-10.1,2.5-15.5c0-27.6-22.4-50-50-50s-50,22.4-50,50
				s22.4,50,50,50c7.6,0,14.8-1.8,21.3-4.8L34.8,56.9z"/>
		</g>
		<g class="st2">
			<path class="st3" d="M44.4,32.5l0.7,39.2l26.2,23.5c12.4-5.8,22-16.5,26.3-29.7L62.4,27.3L44.4,32.5z"/>
		</g>
	</g>
	<g>
		<path class="st4" d="M37.4,49.4l2.3-22.1h22.7v5.2h-18l-1.3,12.1c2.2-1.3,4.6-1.9,7.4-1.9c4,0,7.3,1.3,9.6,4
			c2.4,2.7,3.6,6.3,3.6,10.8c0,4.6-1.2,8.2-3.7,10.8c-2.5,2.6-5.9,3.9-10.4,3.9c-3.9,0-7.1-1.1-9.6-3.3c-2.5-2.2-3.9-5.2-4.2-9h5.3
			c0.3,2.5,1.3,4.5,2.7,5.7c1.5,1.3,3.4,1.9,5.8,1.9c2.6,0,4.7-0.9,6.2-2.7c1.5-1.8,2.2-4.3,2.2-7.4c0-3-0.8-5.4-2.4-7.1
			c-1.6-1.8-3.8-2.7-6.4-2.7c-2.5,0-4.4,0.5-5.8,1.6l-1.5,1.2L37.4,49.4z"/>
	</g>
</g>
</svg>
