<?xml version="1.0" encoding="utf-8"?>
<!-- Generator: Adobe Illustrator 21.0.0, SVG Export Plug-In . SVG Version: 6.00 Build 0)  -->
<svg version="1.1" id="Calque_1" xmlns="http://www.w3.org/2000/svg" xmlns:xlink="http://www.w3.org/1999/xlink" x="0px" y="0px"
	 viewBox="0 0 100 100" style="enable-background:new 0 0 100 100;" xml:space="preserve">
<style type="text/css">
	.st0{fill:#61A2A1;}
	.st1{fill:#3F89BC;}
	.st2{fill:none;}
	.st3{opacity:0.5;}
	.st4{fill:#F6F6F6;}
</style>
<g>
	<g>
		<circle class="st0" cx="50" cy="50" r="50"/>
	</g>
	<g>
		<circle class="st1" cx="50" cy="50" r="50"/>
	</g>
	<g>
		<g>
			<path class="st2" d="M34.7,56.9l21.7-28.5l41.1,37.2c1.6-4.9,2.5-10.1,2.5-15.5c0-27.6-22.4-50-50-50S0,22.4,0,50s22.4,50,50,50
				c7.6,0,14.8-1.8,21.3-4.8L34.7,56.9z"/>
		</g>
		<g class="st3">
			<path class="st1" d="M26.3,51L30,68.4L66.9,97c15.2-5.7,27.3-18.4,31.2-33.3L43.5,25l-0.6,12.1l-4.1,4.4L26.3,51z"/>
		</g>
	</g>
	<g>
		<path class="st4" d="M38.8,28.9c-0.3-0.7-0.4-1.4-0.4-2.2c0-0.8,0.1-1.5,0.4-2.1c0.3-0.7,0.7-1.3,1.2-1.8c0.5-0.5,1.1-0.9,1.8-1.2
			c0.7-0.3,1.4-0.4,2.2-0.4c0.8,0,1.5,0.1,2.1,0.4c0.7,0.3,1.3,0.7,1.8,1.2c0.5,0.5,0.9,1.1,1.2,1.8c0.3,0.7,0.4,1.4,0.4,2.1
			c0,1.6-0.5,2.9-1.6,4c-1.1,1.1-2.4,1.6-3.9,1.6c-0.8,0-1.5-0.1-2.2-0.4c-0.7-0.3-1.3-0.7-1.8-1.2C39.5,30.1,39.1,29.5,38.8,28.9
			L38.8,28.9z M60.5,59.4c-0.7-0.2-1.3-0.1-1.8,0.3c-0.5,0.4-0.9,0.9-1,1.5c-0.1,0.6-0.3,1.2-0.5,1.7c-0.5,1.4-1.2,2.7-2.2,3.8
			c-0.9,1.2-2,2.1-3.2,3c-1.2,0.8-2.5,1.5-4,1.9c-1.5,0.5-3,0.7-4.5,0.7c-2,0-3.9-0.4-5.7-1.1c-1.8-0.8-3.4-1.8-4.7-3
			c-1.3-1.3-2.4-2.8-3.2-4.5c-0.8-1.7-1.2-3.6-1.2-5.6c0-1.5,0.2-2.9,0.7-4.3c0.5-1.4,1.1-2.6,1.9-3.8c0.8-1.2,1.8-2.2,3-3.1
			s2.4-1.6,3.9-2.2c0.6-0.2,1.1-0.6,1.4-1.2c0.3-0.6,0.3-1.2,0.1-1.8c-0.2-0.6-0.7-1-1.3-1.3c-0.6-0.3-1.2-0.3-1.9-0.1
			c-1.9,0.7-3.6,1.7-5.1,2.9c-1.6,1.2-2.9,2.6-4,4.1c-1.1,1.6-2,3.2-2.6,5.1c-0.6,1.8-0.9,3.7-0.9,5.7c0,2.6,0.5,5.1,1.6,7.4
			c1,2.3,2.4,4.3,4.2,6c1.8,1.7,3.8,3.1,6.2,4.1c2.4,1,4.9,1.5,7.6,1.5c2.1,0,4.1-0.3,6-0.9c1.9-0.6,3.7-1.4,5.3-2.5
			c1.6-1.1,3.1-2.4,4.3-4c1.2-1.6,2.2-3.3,2.9-5.1c0.3-0.7,0.5-1.4,0.7-2.3c0.2-0.7,0.1-1.3-0.3-1.8C61.7,59.9,61.2,59.6,60.5,59.4
			L60.5,59.4z M75.6,68.6l-9.1-15.9c-0.3-0.7-0.8-1.2-1.4-1.6c-0.6-0.4-1.4-0.6-2.1-0.6H52.7l-1.2-5.8h7.9c0.5,0,0.9,0,1.4-0.2
			c0.4-0.2,0.8-0.5,1-1c0.3-0.6,0.4-1.2,0.2-1.8c-0.2-0.6-0.6-1.1-1.2-1.4c-0.3-0.2-0.7-0.3-1.1-0.3h-9.3L50,37.2c0-0.1,0-0.1,0-0.1
			c0,0,0-0.1,0-0.1l-0.1-0.2c-0.3-0.9-0.8-1.7-1.6-2.3c-0.8-0.6-1.7-0.9-2.7-0.9c-1.3,0-2.3,0.4-3.2,1.3c-0.9,0.9-1.3,1.9-1.3,3.1
			c0,0.2,0,0.4,0.1,0.5H41l3.3,15.8c0.2,0.9,0.6,1.7,1.3,2.2c0.7,0.6,1.6,0.9,2.5,0.9c0.3,0,0.5,0,0.7-0.1h13.5l7.9,13.7
			c0.2,0.5,0.6,0.9,1.1,1.3c0.5,0.3,1,0.5,1.7,0.5c0.8,0,1.5-0.3,2.1-0.8c0.6-0.6,0.9-1.2,0.9-2C75.9,69.4,75.8,69,75.6,68.6
			L75.6,68.6z M75.6,68.6"/>
	</g>
</g>
</svg>
