<?xml version="1.0" encoding="utf-8"?>
<!-- Generator: Adobe Illustrator 21.0.0, SVG Export Plug-In . SVG Version: 6.00 Build 0)  -->
<svg version="1.1" id="active" xmlns="http://www.w3.org/2000/svg" xmlns:xlink="http://www.w3.org/1999/xlink" x="0px" y="0px"
	 viewBox="0 0 40 40" style="enable-background:new 0 0 40 40;" xml:space="preserve">
<style type="text/css">
	.st0{fill:#61A2A1;}
	.st1{fill:#3F89BC;}
	.st2{fill:none;}
	.st3{opacity:0.5;}
	.st4{fill:#285F77;}
	.st5{fill:#F6F6F6;}
</style>
<g>
	<g>
		<circle class="st0" cx="20" cy="20" r="20"/>
	</g>
	<g>
		<circle class="st1" cx="20" cy="20" r="20"/>
	</g>
	<g>
		<g>
			<path class="st2" d="M13.9,22.7l8.7-11.4L39,26.2c0.6-2,1-4,1-6.2C40,9,31,0,20,0S0,9,0,20s9,20,20,20c3,0,5.9-0.7,8.5-1.9
				L13.9,22.7z"/>
		</g>
		<g class="st3">
			<path class="st4" d="M10.5,20.4l1.5,7l14.7,11.4c6.1-2.3,10.9-7.4,12.5-13.3L17.4,10l-0.3,4.8l-1.6,1.8L10.5,20.4z"/>
		</g>
	</g>
	<g>
		<path class="st5" d="M15.5,11.5c-0.1-0.3-0.2-0.6-0.2-0.9c0-0.3,0.1-0.6,0.2-0.9c0.1-0.3,0.3-0.5,0.5-0.7c0.2-0.2,0.4-0.4,0.7-0.5
			c0.3-0.1,0.6-0.2,0.9-0.2c0.3,0,0.6,0.1,0.9,0.2c0.3,0.1,0.5,0.3,0.7,0.5c0.2,0.2,0.4,0.4,0.5,0.7c0.1,0.3,0.2,0.6,0.2,0.9
			c0,0.6-0.2,1.1-0.6,1.6c-0.4,0.4-1,0.7-1.6,0.7c-0.3,0-0.6-0.1-0.9-0.2c-0.3-0.1-0.5-0.3-0.7-0.5C15.8,12.1,15.7,11.8,15.5,11.5
			L15.5,11.5z M24.2,23.8c-0.3-0.1-0.5,0-0.7,0.1c-0.2,0.1-0.4,0.3-0.4,0.6c0,0.2-0.1,0.5-0.2,0.7c-0.2,0.6-0.5,1.1-0.9,1.5
			c-0.4,0.5-0.8,0.9-1.3,1.2c-0.5,0.3-1,0.6-1.6,0.8c-0.6,0.2-1.2,0.3-1.8,0.3c-0.8,0-1.6-0.2-2.3-0.5c-0.7-0.3-1.3-0.7-1.9-1.2
			c-0.5-0.5-1-1.1-1.3-1.8c-0.3-0.7-0.5-1.4-0.5-2.2c0-0.6,0.1-1.2,0.3-1.7c0.2-0.5,0.4-1.1,0.8-1.5c0.3-0.5,0.7-0.9,1.2-1.2
			c0.5-0.4,1-0.6,1.6-0.9c0.3-0.1,0.4-0.2,0.5-0.5c0.1-0.2,0.1-0.5,0-0.7c-0.1-0.2-0.3-0.4-0.5-0.5c-0.2-0.1-0.5-0.1-0.8,0
			c-0.7,0.3-1.4,0.7-2.1,1.1c-0.6,0.5-1.2,1-1.6,1.6c-0.4,0.6-0.8,1.3-1,2c-0.2,0.7-0.4,1.5-0.4,2.3c0,1.1,0.2,2,0.6,2.9
			c0.4,0.9,1,1.7,1.7,2.4c0.7,0.7,1.5,1.2,2.5,1.6c0.9,0.4,2,0.6,3,0.6c0.8,0,1.6-0.1,2.4-0.4c0.8-0.2,1.5-0.6,2.1-1
			c0.7-0.4,1.2-1,1.7-1.6c0.5-0.6,0.9-1.3,1.1-2.1c0.1-0.3,0.2-0.6,0.3-0.9c0.1-0.3,0-0.5-0.1-0.7C24.7,24,24.5,23.8,24.2,23.8
			L24.2,23.8z M30.2,27.4l-3.7-6.3c-0.1-0.3-0.3-0.5-0.6-0.6c-0.3-0.2-0.5-0.2-0.9-0.2h-4.1l-0.5-2.3h3.2c0.2,0,0.4,0,0.5-0.1
			c0.2-0.1,0.3-0.2,0.4-0.4c0.1-0.2,0.2-0.5,0.1-0.7c-0.1-0.3-0.2-0.4-0.5-0.6C24.2,16,24.1,16,23.9,16h-3.7L20,14.9
			c0,0,0-0.1,0-0.1c0,0,0,0,0-0.1l0-0.1c-0.1-0.4-0.3-0.7-0.6-0.9c-0.3-0.2-0.7-0.4-1.1-0.4c-0.5,0-0.9,0.2-1.3,0.5
			c-0.4,0.3-0.5,0.8-0.5,1.2c0,0.1,0,0.1,0,0.2h0l1.3,6.3c0.1,0.4,0.2,0.7,0.5,0.9c0.3,0.2,0.6,0.3,1,0.3c0.1,0,0.2,0,0.3,0h5.4
			l3.2,5.5c0.1,0.2,0.2,0.4,0.4,0.5c0.2,0.1,0.4,0.2,0.7,0.2c0.3,0,0.6-0.1,0.8-0.3c0.2-0.2,0.3-0.5,0.3-0.8
			C30.4,27.7,30.3,27.6,30.2,27.4L30.2,27.4z M30.2,27.4"/>
	</g>
</g>
</svg>
