<?xml version="1.0" encoding="utf-8"?>
<!-- Generator: Adobe Illustrator 21.0.0, SVG Export Plug-In . SVG Version: 6.00 Build 0)  -->
<svg version="1.1" id="active" xmlns="http://www.w3.org/2000/svg" xmlns:xlink="http://www.w3.org/1999/xlink" x="0px" y="0px"
	 viewBox="0 0 40 40" style="enable-background:new 0 0 40 40;" xml:space="preserve">
<style type="text/css">
	.st0{fill:#61A2A1;}
	.st1{fill:#2B6382;}
	.st2{fill:none;}
	.st3{opacity:0.68;}
	.st4{fill:#1E4759;}
	.st5{fill:#F6F6F6;}
</style>
<g>
	<circle class="st0" cx="20" cy="20.2" r="20"/>
</g>
<g>
	<circle class="st1" cx="20" cy="20.2" r="20"/>
</g>
<g>
	<g>
		<path class="st2" d="M13.9,22.9l8.7-11.4L39,26.4c0.6-2,1-4,1-6.2c0-11-9-20-20-20s-20,9-20,20s9,20,20,20c3,0,5.9-0.7,8.5-1.9
			L13.9,22.9z"/>
	</g>
	<g class="st3">
		<path class="st4" d="M10.6,20.6l1.5,7L26.8,39c6.1-2.3,10.9-7.4,12.5-13.3L17.5,10.2L17.2,15l-1.6,1.8L10.6,20.6z"/>
	</g>
</g>
<g>
	<path class="st5" d="M15.6,11.8c-0.1-0.3-0.2-0.6-0.2-0.9c0-0.3,0.1-0.6,0.2-0.9c0.1-0.3,0.3-0.5,0.5-0.7c0.2-0.2,0.4-0.4,0.7-0.5
		c0.3-0.1,0.6-0.2,0.9-0.2s0.6,0.1,0.9,0.2c0.3,0.1,0.5,0.3,0.7,0.5s0.4,0.4,0.5,0.7s0.2,0.6,0.2,0.9c0,0.6-0.2,1.1-0.6,1.6
		c-0.4,0.4-1,0.7-1.6,0.7c-0.3,0-0.6-0.1-0.9-0.2c-0.3-0.1-0.5-0.3-0.7-0.5C15.9,12.3,15.7,12,15.6,11.8L15.6,11.8z M24.3,24
		c-0.3-0.1-0.5,0-0.7,0.1s-0.4,0.3-0.4,0.6c0,0.2-0.1,0.5-0.2,0.7c-0.2,0.6-0.5,1.1-0.9,1.5c-0.4,0.5-0.8,0.9-1.3,1.2
		c-0.5,0.3-1,0.6-1.6,0.8c-0.6,0.2-1.2,0.3-1.8,0.3c-0.8,0-1.6-0.2-2.3-0.5s-1.3-0.7-1.9-1.2c-0.5-0.5-1-1.1-1.3-1.8
		c-0.3-0.7-0.5-1.4-0.5-2.2c0-0.6,0.1-1.2,0.3-1.7s0.4-1.1,0.8-1.5c0.3-0.5,0.7-0.9,1.2-1.2c0.5-0.4,1-0.6,1.6-0.9
		c0.3-0.1,0.4-0.2,0.5-0.5c0.1-0.2,0.1-0.5,0-0.7s-0.3-0.4-0.5-0.5s-0.5-0.1-0.8,0c-0.7,0.3-1.4,0.7-2.1,1.1c-0.6,0.5-1.2,1-1.6,1.6
		c-0.4,0.6-0.8,1.3-1,2s-0.4,1.5-0.4,2.3c0,1.1,0.2,2,0.6,2.9c0.4,0.9,1,1.7,1.7,2.4c0.7,0.7,1.5,1.2,2.5,1.6c0.9,0.4,2,0.6,3,0.6
		c0.8,0,1.6-0.1,2.4-0.4c0.8-0.2,1.5-0.6,2.1-1c0.7-0.4,1.2-1,1.7-1.6s0.9-1.3,1.1-2.1c0.1-0.3,0.2-0.6,0.3-0.9
		c0.1-0.3,0-0.5-0.1-0.7C24.7,24.2,24.5,24,24.3,24L24.3,24z M30.3,27.6l-3.7-6.3c-0.1-0.3-0.3-0.5-0.6-0.6
		c-0.3-0.2-0.5-0.2-0.9-0.2H21l-0.5-2.3h3.2c0.2,0,0.4,0,0.5-0.1c0.2-0.1,0.3-0.2,0.4-0.4c0.1-0.2,0.2-0.5,0.1-0.7
		c-0.1-0.3-0.2-0.4-0.5-0.6c-0.1-0.1-0.3-0.1-0.4-0.1h-3.7L20,15.1V15c0,0,0,0,0-0.1v-0.1c-0.1-0.4-0.3-0.7-0.6-0.9
		c-0.3-0.2-0.7-0.4-1.1-0.4c-0.5,0-0.9,0.2-1.3,0.5s-0.5,0.8-0.5,1.2c0,0.1,0,0.1,0,0.2l0,0l1.3,6.3c0.1,0.4,0.2,0.7,0.5,0.9
		c0.3,0.2,0.6,0.3,1,0.3c0.1,0,0.2,0,0.3,0H25l3.2,5.5c0.1,0.2,0.2,0.4,0.4,0.5c0.2,0.1,0.4,0.2,0.7,0.2c0.3,0,0.6-0.1,0.8-0.3
		c0.2-0.2,0.3-0.5,0.3-0.8C30.4,28,30.4,27.8,30.3,27.6L30.3,27.6z"/>
</g>
</svg>
