<?xml version="1.0" encoding="utf-8"?>
<!-- Generator: Adobe Illustrator 21.0.0, SVG Export Plug-In . SVG Version: 6.00 Build 0)  -->
<svg version="1.1" id="active" xmlns="http://www.w3.org/2000/svg" xmlns:xlink="http://www.w3.org/1999/xlink" x="0px" y="0px"
	 viewBox="0 0 40 40" style="enable-background:new 0 0 40 40;" xml:space="preserve">
<style type="text/css">
	.st0{fill:#61A2A1;}
	.st1{fill:#D74641;}
	.st2{opacity:0.5;}
	.st3{fill:#A53434;}
	.st4{fill:#EBF0F2;}
</style>
<g>
	<g>
		<circle class="st0" cx="20" cy="20" r="20"/>
	</g>
	<g>
		<circle class="st1" cx="20" cy="20" r="20"/>
	</g>
	<g>
		<g>
			<path class="st1" d="M13.9,22.7l8.7-11.4L39,26.2c0.6-2,1-4,1-6.2C40,9,31,0,20,0S0,9,0,20s9,20,20,20c3,0,5.9-0.7,8.5-1.9
				L13.9,22.7z"/>
		</g>
		<g class="st2">
			<path class="st3" d="M18.2,31l8.7,7.8c4.9-2.3,10.4-7.3,12.1-12.5l-16.5-17L18.2,31z"/>
		</g>
	</g>
	<g>
		<path class="st4" d="M22.2,12.3c-0.5,0-0.9,0-1.3,0c-0.3,0-0.3,0-0.3,0.3c0,0.6-0.3,1-0.8,1.2c-0.2,0.1-0.5,0.2-0.7,0.3
			c-0.3,0.1-0.6,0.3-0.9,0.4c-0.5,0.3-0.7,0.6-0.7,1.2c0,0.5,0,1.1,0,1.6c0,4.2,0,8.4,0,12.6c0,0.5,0.3,0.8,0.8,0.8
			c2.1,0,4.2,0,6.2,0c0.6,0,0.9-0.3,0.9-0.9c0-4.7,0-9.5,0-14.2c0-0.5-0.2-0.9-0.6-1.1c-0.3-0.2-0.6-0.3-0.8-0.4
			c-0.4-0.2-0.8-0.4-1.2-0.6c-0.3-0.2-0.5-0.4-0.5-0.8C22.2,12.7,22.2,12.6,22.2,12.3z M18.8,10.3L18.8,10.3c-0.5,0-1,0-1.5,0
			c-0.5,0-1,0.2-1.2,0.7c-0.2,0.3-0.4,0.7-0.5,1c-0.9,3.2-1.8,6.4-2.7,9.5c0,0.1,0,0.2,0.1,0.3c0.7,0.4,1.5,0.6,2.4,0.4
			c0.1,0,0.2-0.1,0.2-0.2c0.1-0.5,0.1-1.1,0.2-1.6c0.2-1.6,0.4-3.2,0.6-4.7c0.2-1.2,0.3-2.5,0.5-3.7c0.1-0.6,0.3-0.8,0.9-0.9
			c0.3,0,0.5-0.1,0.8-0.1c0.6,0,1.2,0,1.8,0c0.3,0,0.5-0.2,0.4-0.5c-0.1-0.2-0.2-0.3-0.4-0.3C19.8,10.3,19.3,10.3,18.8,10.3z
			 M19.9,9.8c0.3,0,0.6,0,0.8,0c0.4,0,0.6,0.2,0.7,0.5c0.2,0.6-0.1,1-0.7,1.1c0,0.1,0,0.2,0,0.2c0.8,0,1.5,0,2.3,0
			c0.7,0,1.3,0.2,2,0.4c0.4,0.2,0.7,0.4,0.9,0.8c0,0.1,0.1,0.2,0.2,0.2c0.1,0.1,0.3,0.1,0.4,0.1c0.1-0.1,0.2-0.3,0.2-0.4
			c0-0.2-0.1-0.4-0.2-0.5c-0.7-0.9-1.6-1.5-2.6-1.9c-0.1,0-0.3-0.1-0.3-0.2c-0.1-0.2,0.2-0.3,0.3-0.3c0,0,0.1,0,0.1,0
			c0.9-0.5,1.8-0.9,2.7-1.4c0.1-0.1,0.2-0.1,0.3-0.2C26.7,8.1,26.6,8,26.5,8c-0.5-0.1-0.9,0-1.4,0.2c-0.3,0.1-0.6,0.3-0.9,0.5
			c-0.5,0.3-1.1,0.5-1.8,0.5c-0.8,0-1.6,0-2.4,0c-0.1,0-0.2,0-0.3,0C19.9,9.4,19.9,9.6,19.9,9.8z"/>
		<path class="st4" d="M22.2,12.3c0,0.2,0.1,0.4,0.1,0.6c0,0.4,0.2,0.6,0.5,0.8c0.4,0.2,0.8,0.4,1.2,0.6c0.3,0.1,0.6,0.2,0.8,0.4
			c0.4,0.3,0.6,0.6,0.6,1.1c0,4.7,0,9.5,0,14.2c0,0.6-0.3,0.9-0.9,0.9c-2.1,0-4.2,0-6.2,0c-0.5,0-0.8-0.3-0.8-0.8
			c0-4.2,0-8.4,0-12.6c0-0.5,0-1.1,0-1.6c0-0.6,0.2-1,0.7-1.2c0.3-0.2,0.6-0.3,0.9-0.4c0.2-0.1,0.5-0.2,0.7-0.3
			c0.5-0.3,0.8-0.7,0.8-1.2c0-0.3,0-0.3,0.3-0.3C21.3,12.3,21.7,12.3,22.2,12.3z M23,23.4c-0.1,0.7-0.5,1.2-1.2,1.5
			c0.6,0.1,1.4-0.3,1.7-0.8c0.4-0.6,0.4-1.3,0.3-2c-0.1,0.2-0.1,0.4-0.2,0.6c0,0,0,0-0.1,0c0-0.1,0-0.2,0-0.3c0-0.4,0-0.9-0.2-1.3
			c-0.1-0.3-0.2-0.6-0.3-0.9c-0.1,0.1-0.2,0.3-0.3,0.4c-0.1-0.2-0.2-0.5-0.3-0.7c-0.2-0.4-0.5-0.7-0.8-1.1c-0.1-0.1-0.3-0.2-0.5-0.3
			c0.1,0.4,0.1,0.7,0.2,1.1c0,0.3-0.1,0.6-0.3,0.9c-0.1-0.6-0.3-0.9-0.7-0.8c0.2,0.6-0.1,0.9-0.5,1.3c-0.2,0.2-0.5,0.5-0.6,0.7
			c-0.3,0.6-0.4,1.3-0.1,2c-0.1-0.1-0.2-0.1-0.4-0.2c0.2,0.8,1.2,1.5,2.3,1.4c-0.4-0.3-0.7-0.8-0.9-1.3c-0.1-0.2-0.1-0.4-0.1-0.7
			c0-0.4,0.3-0.7,0.6-1c0.4-0.3,0.9-0.6,1-1.2c0.4,0.5,0.5,1,0.3,1.6c0.3-0.2,0.5-0.3,0.7-0.5c0.1,0.6,0.1,1.1-0.2,1.6
			C22.7,23.5,22.8,23.5,23,23.4z"/>
		<path class="st4" d="M18.8,10.3c0.5,0,1.1,0,1.6,0c0.2,0,0.4,0.1,0.4,0.3c0.1,0.3-0.1,0.5-0.4,0.5c-0.6,0-1.2,0-1.8,0
			c-0.3,0-0.5,0-0.8,0.1c-0.6,0.1-0.8,0.3-0.9,0.9c-0.2,1.2-0.4,2.5-0.5,3.7c-0.2,1.6-0.4,3.2-0.6,4.7c-0.1,0.5-0.1,1.1-0.2,1.6
			c0,0.1,0,0.2-0.2,0.2c-0.8,0.1-1.6,0-2.4-0.4c-0.1-0.1-0.2-0.2-0.1-0.3c0.9-3.2,1.8-6.4,2.7-9.5c0.1-0.4,0.3-0.7,0.5-1
			c0.3-0.5,0.7-0.7,1.2-0.7C17.8,10.3,18.3,10.3,18.8,10.3L18.8,10.3z"/>
		<path class="st4" d="M19.9,9.8c0-0.2,0-0.4,0-0.7c0.1,0,0.2,0,0.3,0c0.8,0,1.6,0,2.4,0c0.6,0,1.2-0.2,1.8-0.5
			c0.3-0.2,0.6-0.3,0.9-0.5C25.6,8,26.1,7.9,26.5,8c0.1,0,0.2,0.1,0.3,0.1c-0.1,0.1-0.2,0.2-0.3,0.2c-0.9,0.5-1.8,0.9-2.7,1.4
			c0,0-0.1,0-0.1,0c-0.1,0.1-0.3,0.1-0.3,0.3c0,0.1,0.2,0.2,0.3,0.2c1.1,0.4,1.9,1.1,2.6,1.9c0.1,0.1,0.2,0.3,0.2,0.5
			c0,0.1-0.1,0.3-0.2,0.4c-0.1,0.1-0.3,0-0.4-0.1c-0.1,0-0.2-0.1-0.2-0.2c-0.2-0.4-0.5-0.6-0.9-0.8c-0.6-0.3-1.3-0.4-2-0.4
			c-0.8,0-1.5,0-2.3,0c0-0.1,0-0.2,0-0.2c0.6-0.1,0.9-0.5,0.7-1.1C21.3,10,21,9.8,20.7,9.8C20.4,9.8,20.2,9.8,19.9,9.8z"/>
		<path class="st1" d="M23,23.4c-0.2,0-0.3,0.1-0.5,0.1c0.4-0.5,0.3-1,0.2-1.6c-0.2,0.2-0.4,0.3-0.7,0.5c0.2-0.6,0.1-1.1-0.3-1.6
			c-0.2,0.6-0.6,0.9-1,1.2c-0.3,0.3-0.6,0.6-0.6,1c0,0.2,0,0.5,0.1,0.7c0.2,0.5,0.4,0.9,0.9,1.3c-1,0-2.1-0.6-2.3-1.4
			c0.1,0.1,0.2,0.1,0.4,0.2c-0.3-0.7-0.3-1.3,0.1-2c0.1-0.3,0.4-0.5,0.6-0.7c0.4-0.3,0.7-0.7,0.5-1.3c0.4,0,0.6,0.2,0.7,0.8
			c0.3-0.3,0.4-0.6,0.3-0.9c0-0.3-0.1-0.7-0.2-1.1c0.2,0.1,0.4,0.1,0.5,0.3c0.3,0.3,0.5,0.7,0.8,1.1c0.1,0.2,0.2,0.5,0.3,0.7
			c0.1-0.1,0.2-0.3,0.3-0.4c0.1,0.3,0.2,0.6,0.3,0.9c0.2,0.4,0.2,0.8,0.2,1.3c0,0.1,0,0.2,0,0.3c0,0,0,0,0.1,0
			c0.1-0.2,0.1-0.4,0.2-0.6c0.2,0.7,0.2,1.4-0.3,2c-0.3,0.5-1.2,0.9-1.7,0.8C22.5,24.6,22.9,24.1,23,23.4z"/>
	</g>
</g>
</svg>
