<?xml version="1.0" encoding="utf-8"?>
<!-- Generator: Adobe Illustrator 21.0.0, SVG Export Plug-In . SVG Version: 6.00 Build 0)  -->
<svg version="1.1" id="Calque_1" xmlns="http://www.w3.org/2000/svg" xmlns:xlink="http://www.w3.org/1999/xlink" x="0px" y="0px"
	 viewBox="0 0 100 100" style="enable-background:new 0 0 100 100;" xml:space="preserve">
<style type="text/css">
	.st0{fill:#61A2A1;}
	.st1{fill:#D74641;}
	.st2{opacity:0.5;}
	.st3{fill:#EBF0F2;}
</style>
<g>
	<g>
		<circle class="st0" cx="50" cy="50.1" r="50"/>
	</g>
	<g>
		<circle class="st1" cx="50" cy="50.1" r="50"/>
	</g>
	<g>
		<g>
			<path class="st1" d="M34.8,57l21.7-28.5l41.1,37.2c1.6-4.9,2.5-10.1,2.5-15.5c0-27.6-22.4-50-50-50S0,22.5,0,50.1s22.4,50,50,50
				c7.6,0,14.8-1.8,21.3-4.8L34.8,57z"/>
		</g>
		<g class="st2">
			<path class="st1" d="M45.6,77.5L67.2,97c12.4-5.8,26-18.2,30.3-31.4L56.4,23.1L45.6,77.5z"/>
		</g>
	</g>
	<g>
		<path class="st3" d="M55.4,31c-1.1,0-2.2,0-3.3,0c-0.8,0-0.8,0-0.8,0.8c0,1.5-0.6,2.5-1.9,3.1c-0.6,0.3-1.2,0.6-1.7,0.8
			c-0.8,0.4-1.5,0.7-2.3,1.1c-1.2,0.6-1.9,1.6-1.8,3c0.1,1.4,0,2.7,0,4.1c0,10.5,0,21.1,0,31.6c0,1.4,0.7,2.1,2,2.1
			c5.2,0,10.4,0,15.6,0c1.4,0,2.2-0.9,2.2-2.2c0-11.8,0-23.7,0-35.5c0-1.3-0.5-2.2-1.6-2.9c-0.7-0.4-1.4-0.7-2.1-1
			c-1-0.5-2-0.9-2.9-1.5c-0.8-0.4-1.2-1.1-1.2-2.1C55.6,31.9,55.5,31.5,55.4,31z M46.9,25.9L46.9,25.9c-1.2,0-2.5,0-3.7,0
			c-1.4,0-2.4,0.5-3.1,1.6c-0.5,0.8-0.9,1.7-1.1,2.5C36.8,38.1,34.6,46,32.4,54c-0.1,0.4,0,0.6,0.3,0.8c1.8,1.1,3.8,1.5,5.9,1.1
			c0.3-0.1,0.4-0.2,0.4-0.5c0.2-1.3,0.3-2.7,0.5-4c0.5-3.9,1-7.9,1.6-11.8c0.4-3.1,0.8-6.2,1.3-9.3c0.2-1.4,0.8-2,2.2-2.2
			c0.7-0.1,1.3-0.1,2-0.1c1.5,0,2.9,0,4.4,0c0.8,0,1.2-0.5,1-1.2c-0.2-0.5-0.6-0.7-1-0.7C49.6,25.9,48.3,25.9,46.9,25.9z M49.7,24.7
			c0.7,0,1.4,0,2.1,0c0.9,0,1.5,0.5,1.8,1.3c0.4,1.5-0.2,2.5-1.7,2.8c0,0.2,0,0.4,0,0.6c2,0,3.8,0,5.7,0c1.7,0,3.4,0.4,4.9,1.1
			c0.9,0.4,1.7,1,2.2,1.9c0.1,0.2,0.3,0.5,0.5,0.6c0.3,0.1,0.8,0.3,1.1,0.2c0.2-0.1,0.4-0.7,0.4-1c-0.1-0.4-0.3-0.9-0.6-1.2
			c-1.7-2.2-3.9-3.8-6.5-4.8c-0.3-0.1-0.7-0.3-0.8-0.5c-0.1-0.5,0.4-0.6,0.7-0.9c0.1,0,0.1-0.1,0.2-0.1c2.2-1.2,4.5-2.3,6.7-3.5
			c0.2-0.1,0.5-0.3,0.8-0.6c-0.4-0.2-0.6-0.3-0.9-0.4c-1.2-0.3-2.3,0.1-3.4,0.6c-0.8,0.4-1.5,0.8-2.2,1.2c-1.4,0.8-2.8,1.2-4.4,1.1
			c-2,0-4.1,0-6.1,0c-0.2,0-0.4,0-0.6,0C49.7,23.6,49.7,24.1,49.7,24.7z"/>
		<path class="st3" d="M55.4,31c0.1,0.5,0.1,1,0.2,1.4c0,0.9,0.5,1.6,1.2,2.1c0.9,0.5,1.9,1,2.9,1.5c0.7,0.3,1.4,0.6,2.1,1
			c1.1,0.6,1.6,1.6,1.6,2.9c0,11.8,0,23.7,0,35.5c0,1.4-0.8,2.2-2.2,2.2c-5.2,0-10.4,0-15.6,0c-1.3,0-2-0.7-2-2.1
			c0-10.5,0-21.1,0-31.6c0-1.4,0-2.7,0-4.1c-0.1-1.4,0.6-2.4,1.8-3c0.7-0.4,1.5-0.7,2.3-1.1c0.6-0.3,1.2-0.6,1.7-0.8
			c1.3-0.6,2-1.6,1.9-3.1c0-0.8,0-0.8,0.8-0.8C53.2,31,54.3,31,55.4,31z M57.5,58.7c-0.4,1.8-1.2,3.1-2.9,3.8
			c1.4,0.2,3.5-0.8,4.3-2.1c1-1.6,1.1-3.3,0.6-5.1c-0.2,0.6-0.4,1.1-0.5,1.6c-0.1,0-0.1,0-0.2,0c0-0.3,0.1-0.5,0.1-0.8
			c0.1-1.1,0-2.2-0.4-3.2c-0.3-0.7-0.5-1.4-0.7-2.2c-0.3,0.3-0.5,0.6-0.8,0.9c-0.3-0.6-0.5-1.2-0.8-1.7c-0.6-0.9-1.2-1.8-2-2.7
			c-0.3-0.3-0.8-0.4-1.3-0.7c0.2,1,0.3,1.8,0.4,2.6c0.1,0.8-0.2,1.6-0.9,2.3c-0.2-1.6-0.8-2.2-1.7-2.1c0.4,1.4-0.2,2.4-1.2,3.2
			c-0.6,0.5-1.1,1.1-1.5,1.8c-0.8,1.6-1,3.2-0.2,4.9c-0.3-0.2-0.6-0.3-0.9-0.5c0.4,2,3.1,3.7,5.7,3.6c-1.1-0.9-1.8-1.9-2.2-3.1
			c-0.2-0.5-0.3-1.1-0.2-1.6c0.1-1.1,0.7-1.9,1.6-2.5c1.1-0.8,2.2-1.6,2.6-2.9c0.9,1.1,1.2,2.4,0.7,3.9c0.7-0.5,1.2-0.8,1.8-1.2
			c0.3,1.4,0.4,2.7-0.5,4C56.8,58.8,57.1,58.7,57.5,58.7z"/>
		<path class="st3" d="M46.9,25.9c1.3,0,2.7,0,4,0c0.5,0,0.9,0.2,1,0.7c0.2,0.7-0.2,1.2-1,1.2c-1.5,0-2.9,0-4.4,0
			c-0.7,0-1.3,0-2,0.1c-1.4,0.2-2,0.8-2.2,2.2c-0.5,3.1-0.9,6.2-1.3,9.3c-0.5,3.9-1,7.9-1.6,11.8c-0.2,1.3-0.4,2.7-0.5,4
			c0,0.3-0.1,0.4-0.4,0.5c-2.1,0.4-4.1,0-5.9-1.1c-0.3-0.2-0.4-0.4-0.3-0.8c2.2-7.9,4.4-15.9,6.7-23.8c0.2-0.9,0.7-1.8,1.1-2.5
			c0.7-1.1,1.7-1.7,3.1-1.6C44.5,25.9,45.7,25.9,46.9,25.9L46.9,25.9z"/>
		<path class="st3" d="M49.7,24.7c0-0.6,0-1.1,0-1.6c0.2,0,0.4,0,0.6,0c2,0,4.1,0,6.1,0c1.6,0,3-0.4,4.4-1.1
			c0.7-0.4,1.4-0.9,2.2-1.2c1.1-0.5,2.2-0.9,3.4-0.6c0.2,0.1,0.5,0.2,0.9,0.4c-0.4,0.3-0.6,0.5-0.8,0.6c-2.2,1.2-4.5,2.4-6.7,3.5
			c-0.1,0-0.1,0.1-0.2,0.1c-0.3,0.2-0.9,0.4-0.7,0.9c0.1,0.2,0.5,0.4,0.8,0.5c2.6,1,4.8,2.6,6.5,4.8c0.3,0.4,0.5,0.8,0.6,1.2
			c0,0.3-0.2,0.8-0.4,1c-0.3,0.1-0.7,0-1.1-0.2c-0.2-0.1-0.4-0.3-0.5-0.6c-0.5-0.9-1.3-1.5-2.2-1.9c-1.6-0.7-3.2-1.1-4.9-1.1
			c-1.9,0-3.8,0-5.7,0c0-0.2,0-0.4,0-0.6c1.6-0.3,2.2-1.3,1.7-2.8c-0.3-0.9-0.9-1.3-1.8-1.3C51.1,24.7,50.4,24.7,49.7,24.7z"/>
		<path class="st1" d="M57.5,58.7c-0.4,0.1-0.8,0.1-1.2,0.2c0.9-1.3,0.8-2.6,0.5-4c-0.6,0.4-1.1,0.8-1.8,1.2
			c0.5-1.5,0.2-2.8-0.7-3.9c-0.5,1.4-1.6,2.2-2.6,2.9c-0.8,0.6-1.5,1.4-1.6,2.5c0,0.5,0.1,1.1,0.2,1.6c0.4,1.2,1.1,2.3,2.2,3.1
			c-2.6,0.1-5.2-1.6-5.7-3.6c0.3,0.2,0.6,0.3,0.9,0.5c-0.8-1.7-0.6-3.3,0.2-4.9c0.4-0.7,0.9-1.3,1.5-1.8c1.1-0.9,1.7-1.8,1.2-3.2
			c0.9-0.1,1.4,0.5,1.7,2.1c0.7-0.7,0.9-1.5,0.9-2.3c-0.1-0.8-0.2-1.6-0.4-2.6c0.5,0.2,1,0.4,1.3,0.7c0.7,0.8,1.4,1.7,2,2.7
			c0.3,0.5,0.6,1.2,0.8,1.7c0.3-0.3,0.6-0.6,0.8-0.9c0.3,0.8,0.4,1.6,0.7,2.2c0.5,1,0.5,2.1,0.4,3.2c0,0.3,0,0.5-0.1,0.8
			c0.1,0,0.1,0,0.2,0c0.2-0.5,0.3-1,0.5-1.6c0.5,1.8,0.4,3.5-0.6,5.1c-0.9,1.3-2.9,2.3-4.3,2.1C56.3,61.7,57.2,60.4,57.5,58.7z"/>
	</g>
</g>
</svg>
