<?xml version="1.0" encoding="utf-8"?>
<!-- Generator: Adobe Illustrator 21.0.0, SVG Export Plug-In . SVG Version: 6.00 Build 0)  -->
<svg version="1.1" id="Calque_1" xmlns="http://www.w3.org/2000/svg" xmlns:xlink="http://www.w3.org/1999/xlink" x="0px" y="0px"
	 viewBox="0 0 100 100" style="enable-background:new 0 0 100 100;" xml:space="preserve">
<style type="text/css">
	.st0{fill:#61A2A1;}
	.st1{fill:none;}
	.st2{opacity:0.5;}
	.st3{fill:#578E8B;}
	.st4{fill:#F1F2F2;}
</style>
<g>
	<g>
		<circle class="st0" cx="50" cy="50" r="50"/>
	</g>
	<g>
		<circle class="st0" cx="50" cy="50" r="50"/>
	</g>
	<g>
		<g>
			<path class="st1" d="M34.7,56.9l21.7-28.5l41.1,37.2c1.6-4.9,2.5-10.1,2.5-15.5c0-27.6-22.4-50-50-50S0,22.4,0,50s22.4,50,50,50
				c7.6,0,14.8-1.8,21.3-4.8L34.7,56.9z"/>
		</g>
		<g class="st2">
			<path class="st3" d="M35.7,29.8l1.1,39.9L74,93.9c9.4-5.1,21-15.9,24.7-32.5L35.7,29.8z"/>
		</g>
	</g>
	<g>
		<path class="st4" d="M33.6,51.9c-4.4-1.3-7.6-2.8-9.6-4.7c-2-1.8-3-4.1-3-6.8c0-3.1,1.2-5.6,3.7-7.6c2.4-2,5.6-3,9.6-3
			c2.7,0,5.1,0.5,7.2,1.6c2.1,1,3.7,2.5,4.9,4.3c1.1,1.8,1.7,3.8,1.7,6h-5.2c0-2.4-0.7-4.2-2.2-5.6c-1.5-1.4-3.6-2-6.3-2
			c-2.5,0-4.5,0.6-5.9,1.7s-2.1,2.7-2.1,4.6c0,1.6,0.7,2.9,2,4c1.3,1.1,3.6,2.1,6.9,3c3.2,0.9,5.8,1.9,7.6,3
			c1.8,1.1,3.2,2.4,4.1,3.8c0.9,1.5,1.3,3.2,1.3,5.2c0,3.2-1.2,5.7-3.7,7.6c-2.5,1.9-5.7,2.8-9.9,2.8c-2.7,0-5.2-0.5-7.5-1.5
			c-2.3-1-4.1-2.4-5.4-4.2c-1.3-1.8-1.9-3.8-1.9-6.1h5.2c0,2.4,0.9,4.2,2.6,5.6c1.7,1.4,4.1,2,7,2c2.7,0,4.8-0.6,6.2-1.7
			c1.4-1.1,2.2-2.6,2.2-4.5c0-1.9-0.7-3.4-2-4.4S37.1,52.9,33.6,51.9z"/>
		<path class="st4" d="M66,51.9c-4.4-1.3-7.6-2.8-9.6-4.7c-2-1.8-3-4.1-3-6.8c0-3.1,1.2-5.6,3.7-7.6c2.4-2,5.6-3,9.6-3
			c2.7,0,5.1,0.5,7.2,1.6c2.1,1,3.7,2.5,4.9,4.3c1.1,1.8,1.7,3.8,1.7,6h-5.2c0-2.4-0.7-4.2-2.2-5.6c-1.5-1.4-3.6-2-6.3-2
			c-2.5,0-4.5,0.6-5.9,1.7c-1.4,1.1-2.1,2.7-2.1,4.6c0,1.6,0.7,2.9,2,4c1.3,1.1,3.6,2.1,6.9,3c3.2,0.9,5.8,1.9,7.6,3
			c1.8,1.1,3.2,2.4,4.1,3.8c0.9,1.5,1.3,3.2,1.3,5.2c0,3.2-1.2,5.7-3.7,7.6c-2.5,1.9-5.7,2.8-9.9,2.8c-2.7,0-5.2-0.5-7.5-1.5
			c-2.3-1-4.1-2.4-5.4-4.2c-1.3-1.8-1.9-3.8-1.9-6.1h5.2c0,2.4,0.9,4.2,2.6,5.6c1.7,1.4,4.1,2,7,2c2.7,0,4.8-0.6,6.2-1.7
			c1.4-1.1,2.2-2.6,2.2-4.5c0-1.9-0.7-3.4-2-4.4S69.6,52.9,66,51.9z"/>
	</g>
</g>
</svg>
