<?xml version="1.0" encoding="utf-8"?>
<!-- Generator: Adobe Illustrator 21.0.0, SVG Export Plug-In . SVG Version: 6.00 Build 0)  -->
<svg version="1.1" xmlns="http://www.w3.org/2000/svg" xmlns:xlink="http://www.w3.org/1999/xlink" x="0px" y="0px"
	 viewBox="0 0 423 403.5" style="enable-background:new 0 0 423 403.5;" xml:space="preserve">
<style type="text/css">
	.st0{display:none;}
	.st1{display:inline;}
	.st2{fill:#FFFFFF;stroke:#383938;stroke-width:0.5;stroke-miterlimit:10;}
	.st3{fill:#ECF0F2;stroke:#383938;stroke-width:0.5;stroke-miterlimit:10;}
	.st4{fill:#C0D9E0;stroke:#383938;stroke-width:0.5;stroke-miterlimit:10;}
	.st5{fill:none;stroke:#414042;stroke-width:0.5;stroke-miterlimit:10;}
	.st6{fill:none;stroke:#414042;stroke-width:0.5;stroke-miterlimit:10;stroke-dasharray:2;}
	.st7{fill:#BED8DF;stroke:#414042;stroke-width:0.5;stroke-miterlimit:10;}
	.st8{fill:#FFFFFF;stroke:#414042;stroke-width:0.5;stroke-miterlimit:10;}
	.st9{fill:#383838;}
	.st10{font-family:'Roboto-BoldCondensed';}
	.st11{font-size:3px;}
	.st12{fill:#1D1C1A;}
	.st13{fill:#FFFFFF;}
	.st14{fill:#58595B;}
	.st15{fill:#1A8856;}
	.st16{fill:#009245;}
	.st17{fill:#61A2A1;}
	.st18{fill:#3F89BC;}
	.st19{fill:none;}
	.st20{opacity:0.5;}
	.st21{fill:#F6F6F6;}
</style>
<g id="locaux_1_" class="st0">
	<g id="locaux" class="st1">
		<polygon class="st2" points="76.7,96 164.5,236.4 216.9,203.7 285.7,313.9 280.2,317.4 305.8,358.3 343.3,334.9 247.4,181.4
			240.4,185.7 154.1,47.6 117.5,70.5 107.5,54.5 90.9,64.9 100.9,80.9 		"/>

			<rect x="176.7" y="157" transform="matrix(0.848 -0.5299 0.5299 0.848 -60.5829 133.2442)" class="st3" width="50.7" height="30.5"/>

			<rect x="187.5" y="141.1" transform="matrix(0.848 -0.5299 0.5299 0.848 -47.6472 128.799)" class="st3" width="26.6" height="12.7"/>

			<rect x="167.3" y="154.6" transform="matrix(0.848 -0.5299 0.5299 0.848 -58.034 119.4861)" class="st3" width="24.1" height="12.7"/>
		<polygon class="st3" points="165.7,162 162.3,156.6 182.8,143.8 161.1,109 173.7,101.1 164.2,86 174.2,79.7 208.8,135.1 		"/>

			<rect x="149.6" y="112.3" transform="matrix(0.848 -0.5299 0.5299 0.848 -45.8233 105.8519)" class="st3" width="24.1" height="41"/>
		<polygon class="st3" points="164.2,86 159.7,78.7 126.6,99.4 140.6,121.8 173.7,101.1 		"/>
		<polygon class="st3" points="126.6,99.4 117.7,85.1 124.2,81.1 117.5,70.5 144.1,53.8 159.7,78.7 		"/>

			<rect x="148.4" y="49.2" transform="matrix(0.848 -0.5299 0.5299 0.848 -7.8166 90.6922)" class="st3" width="11.7" height="19.5"/>

			<rect x="158.4" y="65.9" transform="matrix(0.848 -0.5299 0.5299 0.848 -14.8499 98.4742)" class="st3" width="11.7" height="18.4"/>

			<rect x="84.6" y="85.5" transform="matrix(0.848 -0.5299 0.5299 0.848 -40.3304 68.2452)" class="st3" width="28.5" height="37.9"/>

			<rect x="104.2" y="117.8" transform="matrix(0.848 -0.5299 0.5299 0.848 -53.9898 83.4095)" class="st3" width="28.5" height="36.1"/>

			<rect x="123.4" y="148.4" transform="matrix(0.848 -0.5299 0.5299 0.848 -67.3146 98.2276)" class="st3" width="28.5" height="36.2"/>

			<rect x="137.8" y="180.5" transform="matrix(0.848 -0.5299 0.5299 0.848 -77.344 109.3601)" class="st3" width="28.5" height="18.1"/>
		<rect x="168" y="208.9" transform="matrix(0.848 -0.5299 0.5299 0.848 -86.7789 124.365)" class="st3" width="11" height="9.2"/>
		<polygon class="st4" points="185.9,223 180.6,214.6 171.3,220.4 166.4,212.5 154.3,220.1 164.5,236.4 		"/>

			<rect x="110.2" y="53.7" transform="matrix(0.848 -0.5299 0.5299 0.848 -19.5637 70.5619)" class="st3" width="6.1" height="31.4"/>
	</g>
	<g id="murs" class="st1">
		<polyline class="st5" points="102.3,57.7 115.8,79.2 110.7,82.4 		"/>
		<path class="st5" d="M174.5,198.6"/>
		<path class="st5" d="M166.2,191.5"/>
		<line class="st5" x1="170.2" y1="210.2" x2="178.5" y2="205"/>
		<line class="st5" x1="188.6" y1="198.6" x2="191.1" y2="202.6"/>
		<line class="st5" x1="198.8" y1="215" x2="195.4" y2="209.4"/>
		<line class="st5" x1="216.9" y1="203.7" x2="227.3" y2="197.1"/>
		<line class="st5" x1="223.9" y1="191.6" x2="217.1" y2="180.8"/>

			<rect x="218.3" y="175.6" transform="matrix(0.848 -0.5299 0.5299 0.848 -60.9888 147.5814)" class="st5" width="17.1" height="9.1"/>

			<rect x="250.6" y="200.3" transform="matrix(0.848 -0.5299 0.5299 0.848 -75.5351 170.3744)" class="st5" width="17.5" height="33.2"/>
		<polygon class="st5" points="301.5,276.1 289,283.9 293.3,290.8 299.6,292.3 308.2,286.9 		"/>
		<line class="st6" x1="217.1" y1="180.8" x2="236.5" y2="179.5"/>
		<line class="st6" x1="222" y1="188.6" x2="231.7" y2="171.7"/>
	</g>
	<g class="st1">
		<polygon class="st7" points="144.7,204.8 154.3,220.1 178.5,205 168.9,189.7 		"/>

			<rect x="169.2" y="197.9" transform="matrix(0.848 -0.5299 0.5299 0.848 -81.2048 122.3965)" class="st7" width="7.3" height="9.8"/>

			<rect x="165.4" y="190.8" transform="matrix(0.848 -0.5299 0.5299 0.848 -76.7453 118.3391)" class="st8" width="5.1" height="4.4"/>
		<rect x="165.5" y="201" transform="matrix(0.848 -0.5299 0.5299 0.848 -83.606 120.2008)" class="st8" width="4.5" height="9.7"/>
	</g>
</g>
<g id="numéros" class="st0">
	<g class="st1">
		<text transform="matrix(1 0 0 1 96.7673 107.1724)" class="st9 st10 st11">5411</text>
	</g>
	<g class="st1">
		<text transform="matrix(1 0 0 1 115.7591 136.8412)" class="st9 st10 st11">5410</text>
	</g>
	<g class="st1">
		<text transform="matrix(1 0 0 1 135.1201 166.6745)" class="st9 st10 st11">5407</text>
	</g>
	<g class="st1">
		<text transform="matrix(1 0 0 1 150.1343 189.5862)" class="st9 st10 st11">5406</text>
	</g>
	<g class="st1">
		<text transform="matrix(1 0 0 1 176.801 161.9486)" class="st9 st10 st11">5419</text>
	</g>
	<g class="st1">
		<text transform="matrix(1 0 0 1 197.6343 149.1644)" class="st9 st10 st11">5417</text>
	</g>
	<g class="st1">
		<text transform="matrix(1 0 0 1 197.6346 174.35)" class="st9 st10 st11">5421</text>
	</g>
	<g class="st1">
		<text transform="matrix(1 0 0 1 159.0447 132.7652)" class="st9 st10 st11">5414</text>
	</g>
	<g class="st1">
		<text transform="matrix(1 0 0 1 182.7713 123.4319)" class="st9 st10 st11">5415</text>
	</g>
	<g class="st1">
		<text transform="matrix(1 0 0 1 147.2713 100.2552)" class="st9 st10 st11">5413</text>
	</g>
	<g class="st1">
		<text transform="matrix(1 0 0 1 133.6046 77.9219)" class="st9 st10 st11">5412</text>
	</g>
	<g class="st1">
		<text transform="matrix(1 0 0 1 161.0444 75.7103)" class="st9 st10 st11">5418</text>
	</g>
	<g class="st1">
		<text transform="matrix(1 0 0 1 152.0074 60.5436)" class="st9 st10 st11">5416 </text>
	</g>
</g>
<g id="icônes" class="st0">
	<g class="st1">
		<g>
			<g>
				<path class="st12" d="M180.8,219.6h-7.6c-1,0-1.9-0.8-1.9-1.9v-7.6c0-1,0.8-1.9,1.9-1.9h7.6c1,0,1.9,0.8,1.9,1.9v7.6
					C182.7,218.8,181.9,219.6,180.8,219.6z"/>
				<g>
					<path class="st13" d="M175.6,218.6h-2.1c-0.5,0-0.9-0.4-0.9-0.9v-7.4c0-0.5,0.4-0.9,0.9-0.9h2.1c0.5,0,0.9,0.4,0.9,0.9v7.3
						C176.5,218.1,176.1,218.6,175.6,218.6z"/>
					<path class="st13" d="M180.6,218.6h-2.1c-0.5,0-0.9-0.4-0.9-0.9v-7.4c0-0.5,0.4-0.9,0.9-0.9h2.1c0.5,0,0.9,0.4,0.9,0.9v7.3
						C181.5,218.1,181.1,218.6,180.6,218.6z"/>
				</g>
			</g>
			<path class="st12" d="M176,213.3l-1.4-1.4c-0.1-0.1-0.2-0.1-0.2,0l-1.4,1.4c-0.1,0.1,0,0.3,0.1,0.3h0.8v2.2
				c0,0.2,0.2,0.4,0.4,0.4h0.5c0.2,0,0.4-0.2,0.4-0.4v-2.2h0.8C176,213.6,176.1,213.4,176,213.3z"/>
			<path class="st12" d="M178,214.6l1.4,1.4c0.1,0.1,0.2,0.1,0.2,0l1.4-1.4c0.1-0.1,0-0.3-0.1-0.3h-0.8v-2.2c0-0.2-0.2-0.4-0.4-0.4
				h-0.5c-0.2,0-0.4,0.2-0.4,0.4v2.2H178C177.9,214.4,177.9,214.5,178,214.6z"/>
		</g>
		<g>
			<path class="st12" d="M160.7,213.5h-7.6c-1,0-1.9-0.8-1.9-1.9V204c0-1,0.8-1.9,1.9-1.9h7.6c1,0,1.9,0.8,1.9,1.9v7.6
				C162.6,212.7,161.7,213.5,160.7,213.5z"/>
			<g>
				<circle class="st13" cx="156.9" cy="203.9" r="0.8"/>
				<path class="st13" d="M159,207.7l-0.7-2.2c-0.1-0.4-0.5-0.7-1.1-0.7h-0.7c-0.6,0-1,0.3-1.1,0.7l-0.7,2.2
					c-0.1,0.5,0.4,0.6,0.6,0.2l0.7-2h0.1c0,0-0.9,3.6-1,3.7c0,0.1,0,0.1,0.1,0.1h0.8v2.4c0,0.5,0.7,0.5,0.7,0v-2.4h0.3v2.4
					c0,0.5,0.7,0.5,0.7,0v-2.4h0.8c0.1,0,0.1,0,0.1-0.1s-1-3.7-1-3.7h0.1l0.7,2C158.6,208.4,159.1,208.2,159,207.7z"/>
			</g>
		</g>
		<g>
			<path class="st12" d="M171.7,230.9h-7.6c-1,0-1.9-0.8-1.9-1.9v-7.6c0-1,0.8-1.9,1.9-1.9h7.6c1,0,1.9,0.8,1.9,1.9v7.6
				C173.6,230,172.7,230.9,171.7,230.9z"/>
			<g>
				<circle class="st13" cx="167.9" cy="221.2" r="0.8"/>
				<path class="st13" d="M168.8,222.2H168h-0.8c-0.8,0-1,0.2-1,1v2.4c0,0.5,0.6,0.5,0.6,0l0.1-2.2h0.2v6.1c0,0.6,0.9,0.6,0.9,0
					l0.1-3.5h0.2l0.1,3.5c0,0.6,0.9,0.6,0.9,0v-6.1h0.2l0.1,2.2c0,0.5,0.6,0.5,0.6,0v-2.4C169.8,222.4,169.5,222.2,168.8,222.2z"/>
			</g>
		</g>
		<g>
			<path class="st12" d="M178.5,207.2h-7.6c-1,0-1.9-0.8-1.9-1.9v-7.6c0-1,0.8-1.9,1.9-1.9h7.6c1,0,1.9,0.8,1.9,1.9v7.6
				C180.3,206.4,179.5,207.2,178.5,207.2z"/>
			<g>
				<polygon class="st13" points="175.1,197.7 175.1,205.4 174.4,205.4 174.4,197.7 				"/>
				<path class="st13" d="M174.7,201.6"/>
				<path class="st13" d="M172.1,198.9c0.4,0,0.6-0.3,0.6-0.6c0-0.4-0.3-0.6-0.6-0.6c-0.4,0-0.6,0.3-0.6,0.6
					C171.4,198.6,171.7,198.9,172.1,198.9L172.1,198.9z"/>
				<path class="st13" d="M172,203v2.2c0,0.4-0.6,0.4-0.6,0V203h-0.8l0.9-3h-0.1l-0.5,1.7c-0.1,0.4-0.6,0.2-0.5-0.2l0.6-1.8
					c0.1-0.2,0.3-0.6,0.8-0.6h0.4l0,0h0.5c0.5,0,0.7,0.4,0.8,0.6l0.6,1.8c0.1,0.4-0.4,0.6-0.5,0.2l-0.5-1.7H173l0.9,3h-0.8v2.2
					c0,0.4-0.6,0.4-0.6,0V203H172L172,203z"/>
				<path class="st13" d="M176.6,199.1c-0.4,0-0.8,0.4-0.8,0.8v2c0,0.4,0.6,0.4,0.6,0v-1.8h0.1v5c0,0.5,0.7,0.5,0.7,0v-2.9h0.1v2.9
					c0,0.5,0.7,0.5,0.7,0v-5h0.1v1.8c0,0.4,0.5,0.4,0.5,0v-2c0-0.4-0.3-0.8-0.8-0.8H176.6L176.6,199.1z"/>
				<path class="st13" d="M177.3,198.9c0.4,0,0.6-0.3,0.6-0.6c0-0.4-0.3-0.6-0.6-0.6c-0.4,0-0.6,0.3-0.6,0.6
					C176.6,198.6,176.9,198.9,177.3,198.9L177.3,198.9z"/>
			</g>
		</g>
	</g>
	<g class="st1">
		<path class="st12" d="M212.5,202.8h-7.6c-1,0-1.9-0.8-1.9-1.9v-7.6c0-1,0.8-1.9,1.9-1.9h7.6c1,0,1.9,0.8,1.9,1.9v7.6
			C214.4,202,213.6,202.8,212.5,202.8z"/>
		<polygon class="st13" points="208.7,193.4 208.7,195.9 206.6,195.9 206.6,198.4 204.6,198.4 204.6,200.8 208.7,200.8 208.7,198.4
			210.8,198.4 210.8,195.9 212.9,195.9 212.9,193.4 		"/>
	</g>
	<g class="st1">
		<path class="st12" d="M108.3,75.7h-7.6c-1,0-1.9-0.8-1.9-1.9v-7.6c0-1,0.8-1.9,1.9-1.9h7.6c1,0,1.9,0.8,1.9,1.9v7.6
			C110.2,74.9,109.3,75.7,108.3,75.7z"/>
		<polygon class="st13" points="104.5,66.3 104.5,68.8 102.4,68.8 102.4,71.3 100.3,71.3 100.3,73.7 104.5,73.7 104.5,71.3
			106.6,71.3 106.6,68.8 108.7,68.8 108.7,66.3 		"/>
	</g>
</g>
<g id="URGENCE" class="st0">
	<g class="st1">
		<g>
			<path class="st13" d="M190.2,136.6h-8.6c-0.5,0-1-0.4-1-1V127c0-0.5,0.4-1,1-1h8.6c0.5,0,1,0.4,1,1v8.6
				C191.2,136.2,190.7,136.6,190.2,136.6z"/>
			<path class="st14" d="M190.2,136.8h-8.6c-0.7,0-1.2-0.5-1.2-1.2V127c0-0.7,0.5-1.2,1.2-1.2h8.6c0.7,0,1.2,0.5,1.2,1.2v8.6
				C191.4,136.3,190.9,136.8,190.2,136.8z M181.6,126.3c-0.4,0-0.7,0.3-0.7,0.7v8.6c0,0.4,0.3,0.7,0.7,0.7h8.6
				c0.4,0,0.7-0.3,0.7-0.7V127c0-0.4-0.3-0.7-0.7-0.7H181.6z"/>
		</g>
		<polygon class="st14" points="189.5,130.3 187,130.3 187,127.7 184.9,127.7 184.9,130.3 182.3,130.3 182.3,132.4 184.9,132.4
			184.9,134.9 187,134.9 187,132.4 189.5,132.4 		"/>
	</g>
	<g class="st1">
		<g>
			<path class="st13" d="M246.3,197.6h-8.6c-0.5,0-1-0.4-1-1v-8.6c0-0.5,0.4-1,1-1h8.6c0.5,0,1,0.4,1,1v8.6
				C247.3,197.2,246.8,197.6,246.3,197.6z"/>
			<path class="st14" d="M246.3,197.9h-8.6c-0.7,0-1.2-0.5-1.2-1.2v-8.6c0-0.7,0.5-1.2,1.2-1.2h8.6c0.7,0,1.2,0.5,1.2,1.2v8.6
				C247.5,197.3,247,197.9,246.3,197.9z M237.7,187.4c-0.4,0-0.7,0.3-0.7,0.7v8.6c0,0.4,0.3,0.7,0.7,0.7h8.6c0.4,0,0.7-0.3,0.7-0.7
				v-8.6c0-0.4-0.3-0.7-0.7-0.7H237.7z"/>
		</g>
		<polygon class="st14" points="245.7,191.3 243.1,191.3 243.1,188.7 241,188.7 241,191.3 238.4,191.3 238.4,193.4 241,193.4
			241,196 243.1,196 243.1,193.4 245.7,193.4 		"/>
	</g>
	<g class="st1">
		<g>
			<path class="st15" d="M190.9,225.2h-10c-0.4,0-0.7-0.3-0.7-0.7v-10c0-0.4,0.3-0.7,0.7-0.7h10c0.4,0,0.7,0.3,0.7,0.7v10
				C191.6,224.9,191.3,225.2,190.9,225.2z"/>
			<path class="st16" d="M190.9,225.2h-10c-0.4,0-0.7-0.3-0.7-0.8v-9.9c0-0.4,0.3-0.8,0.7-0.8h10c0.4,0,0.7,0.3,0.7,0.8v9.9
				C191.6,224.9,191.3,225.2,190.9,225.2z M180.9,213.9c-0.4,0-0.6,0.3-0.6,0.7v9.9c0,0.4,0.3,0.7,0.6,0.7h10c0.4,0,0.6-0.3,0.6-0.7
				v-9.9c0-0.4-0.3-0.7-0.6-0.7H180.9z"/>
		</g>
		<g>
			<path class="st15" d="M191.1,225.5h-10.5c-0.4,0-0.7-0.3-0.7-0.7v-10.5c0-0.4,0.3-0.7,0.7-0.7h10.5c0.4,0,0.7,0.3,0.7,0.7v10.5
				C191.9,225.1,191.5,225.5,191.1,225.5z"/>
			<path class="st16" d="M191.2,225.5h-10.5c-0.4,0-0.7-0.4-0.7-0.8v-10.4c0-0.4,0.3-0.8,0.7-0.8h10.5c0.4,0,0.7,0.4,0.7,0.8v10.4
				C191.9,225.1,191.6,225.5,191.2,225.5z M180.6,213.6c-0.4,0-0.7,0.3-0.7,0.7v10.4c0,0.4,0.3,0.7,0.7,0.7h10.5
				c0.4,0,0.7-0.3,0.7-0.7v-10.4c0-0.4-0.3-0.7-0.7-0.7H180.6z"/>
		</g>
		<g>
			<path class="st13" d="M188.5,218.2c0-0.4,0-0.8,0-1.1c-0.4,0-0.7,0-1,0c0,0,0-0.1,0-0.1c0-0.3,0-0.6,0-1c0-0.1,0-0.1,0.1-0.1
				c0.3,0,0.6,0,1,0c0,0,0-0.1,0-0.1c0-0.3,0-0.6,0-0.9c0-0.1,0-0.1,0.1-0.1c0.4,0,0.7,0,1.1,0c0,0.4,0,0.7,0,1.1c0,0,0.1,0,0.1,0
				c0.3,0,0.6,0,0.8,0c0.1,0,0.1,0,0.1,0.1c0,0.3,0,0.7,0,1c-0.3,0-0.7,0-1,0c0,0.1,0,0.2,0,0.3c0,0.2,0,0.5,0,0.7
				c0,0.1,0,0.1-0.1,0.1C189.2,218.2,188.9,218.2,188.5,218.2z"/>
		</g>
		<g>
			<path class="st13" d="M184.6,218.3c0.2-0.1,0.3-0.3,0.4-0.4c0.3-0.2,0.6-0.3,0.9-0.3c0.3,0,0.6,0,0.9,0.1c0.6,0.2,1,0.7,1.2,1.3
				c0.2,0.9,0,1.8-0.4,2.6c-0.3,0.5-0.7,1-1.2,1.4c-0.5,0.5-1.1,0.9-1.7,1.4c-0.2,0.1-0.2,0.1-0.3,0c-0.5-0.4-1-0.8-1.4-1.2
				c-0.5-0.5-1-1-1.4-1.6c-0.3-0.5-0.4-1-0.5-1.5c0-0.4,0-0.7,0.1-1.1c0.3-0.7,0.8-1.2,1.5-1.4c0.5-0.1,1,0,1.4,0.3
				C184.3,218,184.4,218.1,184.6,218.3C184.6,218.2,184.6,218.3,184.6,218.3z M183.9,222.9C183.9,222.9,183.9,222.9,183.9,222.9
				c0.6-0.7,1.2-1.5,1.8-2.3c-0.4,0-0.8,0-1.1,0c0.2-0.6,0.5-1.2,0.7-1.8c0,0,0,0,0,0c-0.6,0.8-1.2,1.5-1.8,2.3c0.4,0,0.8,0,1.2,0
				C184.4,221.7,184.1,222.3,183.9,222.9z"/>
		</g>
		<g>
			<path class="st15" d="M183.8,223.2c0.3-0.7,0.6-1.3,0.8-2c-0.4,0-0.9,0-1.3,0c0.7-0.9,1.3-1.7,2-2.6c0,0,0,0,0,0
				c-0.3,0.7-0.5,1.3-0.8,2c0.4,0,0.9,0,1.3,0C185.1,221.5,184.5,222.3,183.8,223.2C183.8,223.2,183.8,223.2,183.8,223.2z"/>
		</g>
	</g>
</g>
<g id="ACCESSIBILITÉ">
	<g>
		<g>
			<circle class="st17" cx="167.1" cy="211.2" r="6"/>
		</g>
		<g>
			<circle class="st18" cx="167.1" cy="211.2" r="6"/>
		</g>
		<g>
			<g>
				<path class="st19" d="M165.3,212l2.6-3.4l4.9,4.5c0.2-0.6,0.3-1.2,0.3-1.9c0-3.3-2.7-6-6-6c-3.3,0-6,2.7-6,6s2.7,6,6,6
					c0.9,0,1.8-0.2,2.6-0.6L165.3,212z"/>
			</g>
			<g class="st20">
				<path class="st18" d="M164.3,211.3l0.4,2.1l4.4,3.4c1.8-0.7,3.3-2.2,3.7-4l-6.6-4.6l-0.1,1.5l-0.5,0.5L164.3,211.3z"/>
			</g>
		</g>
		<g>
			<path class="st21" d="M165.8,208.7c0-0.1,0-0.2,0-0.3c0-0.1,0-0.2,0-0.3c0-0.1,0.1-0.2,0.1-0.2c0.1-0.1,0.1-0.1,0.2-0.1
				c0.1,0,0.2,0,0.3,0c0.1,0,0.2,0,0.3,0c0.1,0,0.2,0.1,0.2,0.1c0.1,0.1,0.1,0.1,0.1,0.2c0,0.1,0,0.2,0,0.3c0,0.2-0.1,0.3-0.2,0.5
				c-0.1,0.1-0.3,0.2-0.5,0.2c-0.1,0-0.2,0-0.3,0s-0.2-0.1-0.2-0.1C165.9,208.8,165.8,208.7,165.8,208.7L165.8,208.7z M168.4,212.3
				c-0.1,0-0.2,0-0.2,0s-0.1,0.1-0.1,0.2c0,0.1,0,0.1-0.1,0.2c-0.1,0.2-0.1,0.3-0.3,0.5c-0.1,0.1-0.2,0.3-0.4,0.4
				c-0.1,0.1-0.3,0.2-0.5,0.2c-0.2,0.1-0.4,0.1-0.5,0.1c-0.2,0-0.5,0-0.7-0.1c-0.2-0.1-0.4-0.2-0.6-0.4c-0.2-0.2-0.3-0.3-0.4-0.5
				c-0.1-0.2-0.1-0.4-0.1-0.7c0-0.2,0-0.3,0.1-0.5c0.1-0.2,0.1-0.3,0.2-0.5s0.2-0.3,0.4-0.4s0.3-0.2,0.5-0.3c0.1,0,0.1-0.1,0.2-0.1
				s0-0.1,0-0.2c0-0.1-0.1-0.1-0.2-0.2c-0.1,0-0.1,0-0.2,0c-0.2,0.1-0.4,0.2-0.6,0.3c-0.2,0.1-0.3,0.3-0.5,0.5
				c-0.1,0.2-0.2,0.4-0.3,0.6c-0.1,0.2-0.1,0.4-0.1,0.7c0,0.3,0.1,0.6,0.2,0.9c0.1,0.3,0.3,0.5,0.5,0.7s0.5,0.4,0.7,0.5
				c0.3,0.1,0.6,0.2,0.9,0.2c0.3,0,0.5,0,0.7-0.1c0.2-0.1,0.4-0.2,0.6-0.3c0.2-0.1,0.4-0.3,0.5-0.5s0.3-0.4,0.3-0.6
				c0-0.1,0.1-0.2,0.1-0.3c0-0.1,0-0.2,0-0.2C168.5,212.4,168.5,212.3,168.4,212.3L168.4,212.3z M170.2,213.4l-1.1-1.9
				c0-0.1-0.1-0.1-0.2-0.2c-0.1,0-0.2-0.1-0.3-0.1h-1.2l-0.1-0.7h0.9c0.1,0,0.1,0,0.2,0c0,0,0.1-0.1,0.1-0.1c0-0.1,0-0.1,0-0.2
				c0-0.1-0.1-0.1-0.1-0.2c0,0-0.1,0-0.1,0h-1.1l0-0.3c0,0,0,0,0,0v0l0,0c0-0.1-0.1-0.2-0.2-0.3c-0.1-0.1-0.2-0.1-0.3-0.1
				c-0.2,0-0.3,0-0.4,0.2s-0.2,0.2-0.2,0.4c0,0,0,0,0,0.1h0l0.4,1.9c0,0.1,0.1,0.2,0.2,0.3c0.1,0.1,0.2,0.1,0.3,0.1c0,0,0.1,0,0.1,0
				h1.6l0.9,1.6c0,0.1,0.1,0.1,0.1,0.2c0.1,0,0.1,0.1,0.2,0.1c0.1,0,0.2,0,0.3-0.1c0.1-0.1,0.1-0.1,0.1-0.2
				C170.2,213.5,170.2,213.5,170.2,213.4L170.2,213.4z"/>
		</g>
	</g>
</g>
</svg>
