<?xml version="1.0" encoding="utf-8"?>
<!-- Generator: Adobe Illustrator 21.0.0, SVG Export Plug-In . SVG Version: 6.00 Build 0)  -->
<svg version="1.1" id="Calque_1" xmlns="http://www.w3.org/2000/svg" xmlns:xlink="http://www.w3.org/1999/xlink" x="0px" y="0px"
	 viewBox="0 0 603 520.5" style="enable-background:new 0 0 603 520.5;" xml:space="preserve">
<style type="text/css">
	.st0{fill:#FFFFFF;stroke:#383938;stroke-width:0.5;stroke-miterlimit:10;}
	.st1{fill:#ECF0F2;stroke:#383938;stroke-width:0.5;stroke-miterlimit:10;}
	.st2{fill:#C0D9E0;stroke:#383938;stroke-width:0.5;stroke-miterlimit:10;}
	.st3{fill:none;stroke:#383938;stroke-width:0.5;stroke-miterlimit:10;}
	.st4{fill:none;stroke:#383938;stroke-width:0.5;stroke-miterlimit:10;stroke-dasharray:2;}
	.st5{fill:#BED8DF;stroke:#414042;stroke-width:0.5;stroke-miterlimit:10;}
	.st6{fill:#FFFFFF;stroke:#414042;stroke-width:0.5;stroke-miterlimit:10;}
	.st7{fill:#BED8DF;stroke:#383838;stroke-width:0.5;stroke-miterlimit:10;}
	.st8{fill:#EBEFF1;stroke:#383838;stroke-width:0.5;stroke-miterlimit:10;}
</style>
<g id="locaux">
	<path class="st0" d="M476.9,301.2l-13.6-21.7l-30.6,19.1l-65.3,40.8L269,181.9l-37.9,23.7L142,63l-38.1,23.8L93.5,70.1L76.3,80.9
		L86.4,97l-24.1,15.1l76.1,122l13.3,21.2l21.3-13.3l69.9,111.9l-21.2,13.2c0,0,32.5,52.9,40.6,64.9c33.2,49.3,90.9,47.9,122.8,28.4
		c6-3.7,143.7-89.8,143.7-89.8l-38.6-61.7l-6.1,3.8L476.9,301.2z"/>
	<polygon class="st1" points="480.4,314.9 466,324 479.4,345.4 491.4,337.9 503.5,330.4 490.1,308.9 	"/>
	<polygon class="st1" points="479.4,345.4 488.2,359.6 481.7,363.6 498,389.8 528.7,370.6 503.5,330.4 	"/>
	
		<rect x="464.4" y="368.6" transform="matrix(0.848 -0.5299 0.5299 0.848 -130.812 311.7462)" class="st1" width="27.5" height="30.8"/>
	<polygon class="st1" points="458.4,378.2 441.8,388.5 429.4,385.7 416.3,393.9 437.4,427.6 474.7,404.3 	"/>
	
		<rect x="444.1" y="332.4" transform="matrix(0.848 -0.5299 0.5299 0.848 -115.089 295.0748)" class="st1" width="25.7" height="31.6"/>
	<polygon class="st1" points="452.9,381.6 430.6,346 398.8,365.9 416.3,393.9 429.4,385.7 441.8,388.5 	"/>
	
		<rect x="410" y="404.7" transform="matrix(0.848 -0.5299 0.5299 0.848 -158.737 286.6018)" class="st1" width="20.8" height="30.8"/>
	<path class="st1" d="M403.4,412.6l-34.8,21.7l12.1,28.5c0,0,4.4-2.4,6.8-4l32.2-20.1L403.4,412.6z"/>
	<path class="st1" d="M368.6,434.3l-8.8,5.5l-18,4.5l-11.7-2.3l-3.9,30.4c0,0,28.1,4.4,54.6-9.5L368.6,434.3z"/>
	<path class="st1" d="M320.8,439.6l-14.4-3.5l-14-12.2l-4.4-7l-22.5,19.8c0,0,16.5,24,45.6,32.3L320.8,439.6z"/>
	<path class="st1" d="M288,416.9l-17.4-27.8l-25.6,16l13.7,22c0,0,3.4,5.5,6.7,9.7L288,416.9z"/>
	
		<rect x="231.2" y="355.8" transform="matrix(0.848 -0.5299 0.5299 0.848 -162.9665 187.8999)" class="st1" width="29.9" height="44.7"/>
	
		<rect x="441.8" y="310.9" transform="matrix(0.848 -0.5299 0.5299 0.848 -98.17 286.0659)" class="st1" width="15.9" height="6.7"/>
	
		<rect x="414.8" y="304.3" transform="matrix(0.848 -0.5299 0.5299 0.848 -103.1082 274.6281)" class="st1" width="25.1" height="25.6"/>
	
		<rect x="405.6" y="314.1" transform="matrix(0.848 -0.5299 0.5299 0.848 -110.7046 267.7882)" class="st1" width="12" height="25.6"/>
	
		<rect x="387.3" y="322.8" transform="matrix(0.848 -0.5299 0.5299 0.848 -115.9327 260.8242)" class="st2" width="19" height="19.5"/>
	
		<rect x="371.1" y="332.9" transform="matrix(0.848 -0.5299 0.5299 0.848 -123.7336 253.7995)" class="st2" width="19.1" height="19.5"/>
	<polygon class="st1" points="390.1,373.3 362.1,390.8 359.3,399.6 372.1,420.1 406.8,398.4 390.9,372.8 	"/>
	<polygon class="st1" points="382,378.3 356.9,372.5 353.1,388.8 362.1,390.8 	"/>
	<polygon class="st1" points="372.1,420.1 358.2,428.8 342.1,432.2 335.6,421.7 336.2,418 361.1,402.4 	"/>
	<polygon class="st1" points="357.9,404.5 361.1,402.4 359.3,399.6 362.1,390.8 353.1,388.8 343.6,386.6 340.3,400.9 	"/>
	<polygon class="st1" points="340.3,400.9 336.3,418 357.9,404.5 	"/>
	<polygon class="st1" points="342.1,432.2 333.2,430.5 335.6,421.7 	"/>
	<polygon class="st1" points="322,427 327.9,404.5 307.3,400 300.1,408 296.6,410.2 300.4,416.2 310.1,424.6 	"/>
	<polygon class="st1" points="307.3,400 304.4,399.4 300.8,393.7 290.4,400.2 296.6,410.2 300.1,408 	"/>
	<polygon class="st1" points="327.9,404.5 332.5,384.3 324.3,382.2 323.5,384.9 311.2,382.7 310,389.5 308.7,395.3 300.8,393.7
		304.4,399.4 	"/>
	<polygon class="st1" points="324.3,382.2 328.1,366.3 315.2,363.3 311.2,382.7 323.5,384.9 	"/>
	
		<rect x="281.3" y="368.6" transform="matrix(0.848 -0.5299 0.5299 0.848 -159.7753 210.6588)" class="st1" width="12.3" height="30.7"/>
	<polygon class="st1" points="300.8,393.7 303.8,376.1 288,373.2 	"/>
	<polygon class="st1" points="301.5,375.7 303,369 297.2,359.7 284.5,367.6 288,373.2 	"/>
	<polygon class="st1" points="310.8,385.4 302.5,383.9 300.8,393.7 308.7,395.3 	"/>
	
		<rect x="252.2" y="346.2" transform="matrix(0.848 -0.5299 0.5299 0.848 -150.3452 191.3116)" class="st1" width="12.4" height="23.2"/>
	
		<rect x="262.7" y="339.6" transform="matrix(0.848 -0.5299 0.5299 0.848 -145.2577 195.8915)" class="st1" width="12.4" height="23.2"/>
	
		<rect x="273.2" y="332.8" transform="matrix(0.848 -0.5299 0.5299 0.848 -139.9915 200.6333)" class="st1" width="13.3" height="23.2"/>
	
		<rect x="323.4" y="315.4" transform="matrix(0.848 -0.5299 0.5299 0.848 -124.8788 231.9392)" class="st1" width="37.1" height="36.6"/>
	<polygon class="st1" points="336,359.1 310.4,353.1 307.5,348.5 323.2,338.6 	"/>
	
		<rect x="302.8" y="332" transform="matrix(0.848 -0.5299 0.5299 0.848 -131.823 216.7627)" class="st1" width="18.6" height="12.5"/>
	<polygon class="st1" points="300.9,337.9 297.4,332.3 313.1,322.5 296.7,296.2 328.2,276.6 348,308.4 	"/>
	
		<rect x="291.2" y="310.6" transform="matrix(0.848 -0.5299 0.5299 0.848 -123.7393 207.7837)" class="st1" width="18.6" height="18.2"/>
	
		<rect x="279.6" y="288.5" transform="matrix(0.848 -0.5299 0.5299 0.848 -115.7016 198.8555)" class="st1" width="18.6" height="25.4"/>
	
		<rect x="268" y="273.5" transform="matrix(0.848 -0.5299 0.5299 0.848 -107.6479 189.9104)" class="st1" width="18.6" height="18.2"/>
	
		<rect x="254.9" y="252.5" transform="matrix(0.848 -0.5299 0.5299 0.848 -98.4883 179.7366)" class="st1" width="18.6" height="18.2"/>
	
		<rect x="246.7" y="242.3" transform="matrix(0.848 -0.5299 0.5299 0.848 -92.8169 173.4374)" class="st1" width="18.6" height="12.5"/>
	<polygon class="st1" points="264.6,279.9 261.1,274.3 308.3,244.8 328.2,276.6 296.7,296.2 280.3,270 	"/>
	<polygon class="st1" points="244.8,248.2 241.3,242.6 288.5,213.1 308.3,244.8 276.9,264.4 260.6,238.4 	"/>
	<polygon class="st1" points="241.3,242.6 238.2,237.7 254,227.8 237.6,201.6 269,181.9 288.5,213.1 	"/>
	
		<rect x="233.6" y="221.6" transform="matrix(0.848 -0.5299 0.5299 0.848 -83.7035 163.3142)" class="st1" width="18.6" height="12.1"/>
	<polygon class="st1" points="231.8,227.4 228.2,221.6 231.3,219.7 224.9,209.5 237.6,201.6 247.6,217.6 	"/>
	
		<rect x="229.5" y="307.4" transform="matrix(0.848 -0.5299 0.5299 0.848 -135.4209 181.6373)" class="st1" width="39" height="39"/>
	
		<rect x="209.4" y="276.2" transform="matrix(0.848 -0.5299 0.5299 0.848 -121.3994 166.0637)" class="st1" width="39" height="37"/>
	
		<rect x="189.6" y="244.5" transform="matrix(0.848 -0.5299 0.5299 0.848 -107.6752 150.8194)" class="st1" width="39" height="37.4"/>
	<rect x="211.7" y="202.1" transform="matrix(0.848 -0.5299 0.5299 0.848 -75.9429 148.46)" class="st1" width="18.5" height="9"/>
	
		<rect x="206.5" y="193.2" transform="matrix(0.848 -0.5299 0.5299 0.848 -72.3569 144.4771)" class="st0" width="18.5" height="10.4"/>
	
		<rect x="181.5" y="149" transform="matrix(0.848 -0.5299 0.5299 0.848 -62.8723 130.0815)" class="st1" width="27.8" height="51.4"/>
	
		<rect x="162.9" y="170.4" transform="matrix(0.848 -0.5299 0.5299 0.848 -75.1297 122.0418)" class="st1" width="24.7" height="43.3"/>
	
		<rect x="135.4" y="126.1" transform="matrix(0.848 -0.5299 0.5299 0.848 -54.942 102.5738)" class="st1" width="31.9" height="42"/>
	
		<rect x="161.2" y="104.5" transform="matrix(0.848 -0.5299 0.5299 0.848 -42.6532 110.5788)" class="st1" width="20.6" height="50.2"/>
	<rect x="124" y="68.1" transform="matrix(0.848 -0.5299 0.5299 0.848 -27.2332 88.3729)" class="st1" width="33" height="47.1"/>
	<polygon class="st1" points="139,120.4 122.4,130.7 100.1,95.1 106.6,91.1 103.9,86.8 114,80.5 	"/>
	
		<rect x="478.4" y="374.9" transform="matrix(0.848 -0.5299 0.5299 0.848 -127.6925 314.5323)" class="st1" width="12.4" height="10.1"/>
	
		<rect x="70.1" y="101.6" transform="matrix(0.848 -0.5299 0.5299 0.848 -51.0605 62.9984)" class="st1" width="28.4" height="37.8"/>
	<rect x="90" y="133.7" transform="matrix(0.848 -0.5299 0.5299 0.848 -64.9015 78.3716)" class="st1" width="28.4" height="37.2"/>
	<polygon class="st1" points="126.1,160.6 138.3,180.1 128.1,186.4 135.8,198.7 121.8,207.4 102,175.7 	"/>
	
		<rect x="124.6" y="198.5" transform="matrix(0.848 -0.5299 0.5299 0.848 -88.9979 105.1167)" class="st1" width="28.4" height="18.5"/>
	<rect x="131" y="182.1" transform="matrix(0.848 -0.5299 0.5299 0.848 -79.5483 101.3851)" class="st1" width="12" height="14.5"/>
</g>
<g id="murs">
	<line class="st3" x1="454.7" y1="307.2" x2="464.5" y2="301.1"/>
	<line class="st3" x1="413.3" y1="340.9" x2="402" y2="348"/>
	<polyline class="st3" points="377.8,356 381,361.1 391.7,354.4 	"/>
	<polyline class="st3" points="381,361.1 371.9,366.8 353.5,362.5 352,360.1 	"/>
	<polyline class="st3" points="215.4,215.4 186.8,233.3 183.8,228.6 	"/>
	<line class="st3" x1="100.1" y1="95.1" x2="96" y2="97.7"/>
	<line class="st4" x1="220.8" y1="189.1" x2="210.7" y2="207.7"/>
	<line class="st4" x1="226.3" y1="197.9" x2="205.1" y2="198.9"/>
	<line class="st3" x1="155.8" y1="208" x2="160.4" y2="215.4"/>
</g>
<g>
	<polygon class="st5" points="131.6,223.1 141.1,238.4 165.3,223.3 155.8,208.1 	"/>

		<rect x="154.7" y="217.4" transform="matrix(0.5299 0.848 -0.848 0.5299 262.5341 -31.3988)" class="st5" width="9.8" height="7.3"/>
	<rect x="152.6" y="208.7" transform="matrix(0.5299 0.848 -0.848 0.5299 251.9223 -31.94)" class="st6" width="4.4" height="5.1"/>
	<rect x="149.7" y="222" transform="matrix(0.5299 0.848 -0.848 0.5299 262.8098 -25.67)" class="st6" width="9.7" height="4.5"/>
</g>
<polygon class="st7" points="172.9,242 167.4,233.2 158.2,239 153.1,230.9 141.2,238.4 151.7,255.2 "/>
<line class="st8" x1="162.3" y1="225.2" x2="167.5" y2="233.3"/>
</svg>
