<?xml version="1.0" encoding="utf-8"?>
<!-- Generator: Adobe Illustrator 21.0.0, SVG Export Plug-In . SVG Version: 6.00 Build 0)  -->
<svg version="1.1" id="Layer_1" xmlns="http://www.w3.org/2000/svg" xmlns:xlink="http://www.w3.org/1999/xlink" x="0px" y="0px"
	 viewBox="0 0 922.5 993" style="enable-background:new 0 0 922.5 993;" xml:space="preserve">
<style type="text/css">
	.st0{fill:#FFFFFF;stroke:#383838;stroke-width:0.5;stroke-miterlimit:10;}
	.st1{fill:#61A1A1;stroke:#383838;stroke-width:0.5;stroke-miterlimit:10;}
	.st2{fill:#EBF0F2;stroke:#383838;stroke-width:0.5;stroke-miterlimit:10;}
	.st3{fill:none;stroke:#383838;stroke-width:0.5;stroke-miterlimit:10;}
	.st4{fill:#BFD9E0;stroke:#383838;stroke-width:0.5;stroke-miterlimit:10;}
	.st5{fill:#ED865B;stroke:#383838;stroke-width:0.5;stroke-miterlimit:10;}
	.st6{fill:#A3CCCB;stroke:#383838;stroke-width:0.5;stroke-miterlimit:10;}
	.st7{fill:#ED9B7E;stroke:#383838;stroke-width:0.5;stroke-miterlimit:10;}
	.st8{fill:none;stroke:#383838;stroke-width:0.5;stroke-miterlimit:10;stroke-dasharray:2;}
	.st9{display:none;}
	.st10{display:inline;fill:none;stroke:#383838;stroke-width:0.5;stroke-miterlimit:10;}
</style>
<g id="locaux">
	<path class="st0" d="M802.4,921.6l9.7,15.5l-43.6,27.2L680.9,824l17.5-10.9l-9-14.3l6-3.8l-34.7-75.9l12.1-5l-8.1-12.9l-26.2-41.9
		c0,0-150.3,94-156.4,97.7c-32,19.6-89.6,21-122.8-28.4c-8.1-12-41.1-65.8-41.1-65.8l21.2-13.2L309,600.9l-21.3,13.2l-38.1-61
		l-91.9-147.3l-19.1-30.6l-30-47.9L60.9,251l38.3-23.9l7.6,12.1l127.6-79.7l55.8-34.9L425,40.5L583.4,294l48.1-30.1l140.3,224.5
		L812,553l-3,1.9l-18.9,11.8l-12.6,7.9L717,612.3l-66.4,41.5l33.6,53.8l62.4-28.2l103.3,219.3L802.4,921.6z"/>
	<polygon class="st1" points="310,174.4 341.9,154.5 399.9,247.3 378.8,261.1 368.3,267.7 338.6,220.2 322.5,230.2 309.2,208.9
		325.3,198.9 	"/>
	<polyline class="st2" points="717,692.8 723.7,707.5 692.7,721.1 698.5,730.5 716.5,721.4 722.1,732.6 725.6,730.8 812.1,916.9
		"/>
	<polygon class="st2" points="835.9,868.8 797.9,886.4 812.1,916.9 849.9,898.6 	"/>
	<polygon class="st2" points="835.9,868.8 821.7,838.8 784,856.5 797.9,886.4 	"/>
	<polygon class="st2" points="821.7,838.8 807.7,809 770.2,826.8 784,856.5 	"/>
	<polygon class="st2" points="807.7,809 793.8,779.6 756.3,796.8 770.2,826.8 	"/>
	<polygon class="st2" points="793.8,779.6 779.8,749.8 742.4,766.9 756.3,796.8 	"/>
	<polygon class="st2" points="779.8,749.8 765.7,719.9 728.8,737.6 742.4,766.9 	"/>
	<polygon class="st2" points="725.6,730.8 728.8,737.6 765.7,719.9 746.6,679.4 717,692.8 733.2,727.2 	"/>
	<polygon class="st2" points="727.9,716 707.8,725.9 703.4,716.5 723.7,707.5 	"/>
	<polygon class="st2" points="703.4,716.5 692.7,721.1 698.5,730.5 707.8,725.9 	"/>
	<polygon class="st2" points="797.8,946 779.7,917.2 787,912.6 782.7,905.8 746.2,928.6 768.5,964.3 	"/>
	<line class="st3" x1="787" y1="912.6" x2="794.1" y2="908.2"/>
	<line class="st3" x1="802.4" y1="921.6" x2="799.2" y2="916.3"/>
	<polygon class="st2" points="782.7,905.8 779.1,899.9 771.2,904.8 753.1,875.8 724.4,893.7 746.2,928.6 	"/>
	<polygon class="st4" points="779.1,899.9 786.1,895.5 770.4,870.3 755.5,879.6 771.2,904.8 	"/>
	
		<rect x="748" y="853.7" transform="matrix(0.848 -0.5299 0.5299 0.848 -343.4637 532.5248)" class="st4" width="17.6" height="22.9"/>
	
		<rect x="738" y="841.1" transform="matrix(0.848 -0.5299 0.5299 0.848 -336.3789 524.7217)" class="st2" width="17.6" height="15.5"/>
	<polygon class="st2" points="743,842.1 739.3,836.2 702.8,859 724.4,893.7 753.1,875.8 735.2,847 	"/>
	<polygon class="st2" points="739.3,836.2 735.5,830.2 727.7,835.1 709.5,806.1 680.9,824 702.8,859 	"/>
	<polygon class="st2" points="735.5,830.2 742.6,825.8 735.6,814.6 720.7,823.9 727.7,835.1 	"/>
	
		<rect x="713.8" y="799.8" transform="matrix(0.848 -0.5299 0.5299 0.848 -319.5839 506.0342)" class="st2" width="17.6" height="21"/>
	<polygon class="st2" points="693.5,790.8 714.7,781.1 705.5,766.4 686.3,775.1 	"/>
	<polygon class="st2" points="705.5,766.4 696.8,752.4 679.5,760.1 686.3,775.1 	"/>
	<polygon class="st2" points="696.8,752.4 687.9,738.3 672.6,745 679.5,760.1 	"/>
	<polygon class="st2" points="687.9,738.3 679.3,724.5 665.9,730.5 672.6,745 	"/>
	<polygon class="st2" points="679.3,724.5 672.8,714.1 660.7,719.1 665.9,730.5 	"/>
	<line class="st3" x1="714.7" y1="781.1" x2="717.7" y2="785.9"/>
	<line class="st3" x1="724.4" y1="796.7" x2="721.8" y2="792.6"/>
	
		<rect x="645.5" y="626.6" transform="matrix(0.848 -0.5299 0.5299 0.848 -239.5088 442.3307)" class="st2" width="12" height="24.4"/>
	
		<rect x="655.7" y="620.1" transform="matrix(0.848 -0.5299 0.5299 0.848 -234.4642 446.9326)" class="st2" width="12.8" height="24.4"/>
	
		<rect x="666.5" y="613.3" transform="matrix(0.848 -0.5299 0.5299 0.848 -229.2261 451.6046)" class="st2" width="12.6" height="24.4"/>
	
		<rect x="675.5" y="600.8" transform="matrix(0.848 -0.5299 0.5299 0.848 -222.9047 454.9585)" class="st2" width="12.6" height="30.7"/>
	
		<rect x="658.5" y="572" transform="matrix(0.848 -0.5299 0.5299 0.848 -211.0424 441.7584)" class="st2" width="12.6" height="33.7"/>
	
		<rect x="646.2" y="563" transform="matrix(0.848 -0.5299 0.5299 0.848 -202.5055 432.3046)" class="st2" width="12.6" height="12.5"/>
	
		<rect x="663.3" y="551.1" transform="matrix(0.848 -0.5299 0.5299 0.848 -194.7973 441.6335)" class="st2" width="18.8" height="18.8"/>
	
		<rect x="679.2" y="541.1" transform="matrix(0.848 -0.5299 0.5299 0.848 -187.1041 448.5459)" class="st2" width="18.8" height="18.8"/>
	
		<rect x="695.6" y="532.7" transform="matrix(0.848 -0.5299 0.5299 0.848 -180.5942 454.3682)" class="st2" width="12.7" height="18.8"/>
	
		<rect x="727.6" y="520.7" transform="matrix(0.848 -0.5299 0.5299 0.848 -182.2539 476.6701)" class="st2" width="24.8" height="70.8"/>
	
		<rect x="624.9" y="574.5" transform="matrix(0.848 -0.5299 0.5299 0.848 -212.1508 424.7165)" class="st2" width="19.1" height="15.5"/>
	
		<rect x="633.3" y="587.7" transform="matrix(0.848 -0.5299 0.5299 0.848 -217.8535 431.1201)" class="st2" width="19.1" height="15.5"/>
	
		<rect x="641.4" y="600.8" transform="matrix(0.848 -0.5299 0.5299 0.848 -223.5601 437.4462)" class="st2" width="19.1" height="15.5"/>
	
		<rect x="629.7" y="601.9" transform="matrix(0.848 -0.5299 0.5299 0.848 -228.5005 430.1131)" class="st2" width="12" height="23.2"/>
	
		<rect x="617.4" y="582.2" transform="matrix(0.848 -0.5299 0.5299 0.848 -219.9223 420.6035)" class="st2" width="12" height="23.2"/>
	<polygon class="st2" points="695.4,625.8 721.8,609.3 691,560.1 669.7,573.4 659.7,557.4 654.7,560.6 	"/>
	<polygon class="st2" points="721.8,609.3 748.4,592.7 707.6,527.5 702.4,530.8 712.4,546.7 691,560.1 	"/>
	
		<rect x="707.4" y="520.5" transform="matrix(0.848 -0.5299 0.5299 0.848 -168.0681 460.9892)" class="st2" width="24.8" height="6.1"/>
	<polygon class="st2" points="728.7,514.3 725.3,508.8 735.7,502.3 739.2,507.8 771.3,487.7 812.1,552.9 769.5,579.6 	"/>
	<polygon class="st2" points="725.3,508.8 735.7,502.3 739.2,507.8 771.3,487.7 751.5,455.9 727.5,470.9 735.6,483.9 716.9,495.5
		"/>
	
		<rect x="711.2" y="475.5" transform="matrix(0.848 -0.5299 0.5299 0.848 -146.3046 456.1088)" class="st2" width="22" height="15.3"/>
	<polygon class="st2" points="751.5,455.9 708.8,482.5 705.6,477.4 716.2,470.8 699.4,443.8 731.4,423.8 	"/>
	
		<rect x="696.3" y="444.7" transform="matrix(0.848 -0.5299 0.5299 0.848 -137.3232 442.266)" class="st2" width="12.5" height="31.8"/>
	
		<rect x="679.6" y="418.5" transform="matrix(0.848 -0.5299 0.5299 0.848 -125.7716 429.3938)" class="st2" width="12.5" height="31"/>
	
		<rect x="686.6" y="399.3" transform="matrix(0.848 -0.5299 0.5299 0.848 -114.2609 437.3852)" class="st2" width="37.8" height="37.3"/>
	
		<rect x="668" y="409.2" transform="matrix(0.848 -0.5299 0.5299 0.848 -117.7638 420.4421)" class="st2" width="12.5" height="12.7"/>
	<polygon class="st2" points="676.2,406.8 681.5,403.5 665.7,378.2 649.8,388.1 665.6,413.4 	"/>
	
		<rect x="635.8" y="339.2" transform="matrix(0.848 -0.5299 0.5299 0.848 -89.5356 404.7031)" class="st2" width="50.3" height="38.5"/>
	
		<rect x="617.3" y="313.3" transform="matrix(0.848 -0.5299 0.5299 0.848 -76.6581 390.4513)" class="st2" width="50.3" height="31.2"/>
	
		<rect x="597.1" y="273.9" transform="matrix(0.848 -0.5299 0.5299 0.848 -62.5983 374.8039)" class="st2" width="50.3" height="45.3"/>
	
		<rect x="642" y="467.4" transform="matrix(0.848 -0.5299 0.5299 0.848 -156.3353 427.4234)" class="st2" width="50.3" height="37.8"/>
	
		<rect x="617.2" y="418.5" transform="matrix(0.848 -0.5299 0.5299 0.848 -138.9982 408.2215)" class="st2" width="50.3" height="56"/>
	
		<rect x="608.8" y="401.9" transform="matrix(0.848 -0.5299 0.5299 0.848 -122.6398 395.1379)" class="st2" width="37.8" height="19"/>
	
		<rect x="600.2" y="415.2" transform="matrix(0.848 -0.5299 0.5299 0.848 -132.902 385.8812)" class="st2" width="12.5" height="19"/>
	
		<rect x="588.7" y="394.3" transform="matrix(0.848 -0.5299 0.5299 0.848 -124.9594 377.0216)" class="st2" width="12.5" height="24.2"/>
	
		<rect x="661.6" y="510.5" transform="matrix(0.848 -0.5299 0.5299 0.848 -175.6997 433.3809)" class="st0" width="12.5" height="25.2"/>
	<line class="st3" x1="676.4" y1="524.9" x2="691.2" y2="515.7"/>
	<line class="st3" x1="597.2" y1="398.3" x2="612.1" y2="389"/>
	
		<rect x="633.9" y="532" transform="matrix(0.848 -0.5299 0.5299 0.848 -187.4625 422.6783)" class="st2" width="18.7" height="12.4"/>
	<polygon class="st0" points="576.1,529.3 602.3,571.2 638.8,548.4 612.7,506.5 	"/>
	
		<rect x="621" y="498.8" transform="matrix(0.848 -0.5299 0.5299 0.848 -178.3577 412.6096)" class="st2" width="18.6" height="37"/>
	
		<rect x="600.4" y="485.7" transform="matrix(0.848 -0.5299 0.5299 0.848 -169.2809 399.9931)" class="st2" width="24.9" height="19"/>
	
		<rect x="602.5" y="466" transform="matrix(0.848 -0.5299 0.5299 0.848 -159.5598 394.5911)" class="st2" width="11.6" height="19"/>
	
		<rect x="582.7" y="427.9" transform="matrix(0.848 -0.5299 0.5299 0.848 -145.7252 379.2732)" class="st2" width="11.6" height="31.7"/>
	
		<rect x="536.9" y="416.5" transform="matrix(0.848 -0.5299 0.5299 0.848 -142.2074 361.5732)" class="st2" width="45" height="24.5"/>
	
		<rect x="572.4" y="434.2" transform="matrix(0.848 -0.5299 0.5299 0.848 -150.5855 374.9063)" class="st2" width="12.1" height="31.7"/>
	
		<rect x="562.1" y="440.6" transform="matrix(0.848 -0.5299 0.5299 0.848 -155.5503 370.4167)" class="st2" width="12.1" height="31.7"/>
	
		<rect x="551.5" y="447.1" transform="matrix(0.848 -0.5299 0.5299 0.848 -160.5925 365.8705)" class="st2" width="12.4" height="31.7"/>
	
		<rect x="540" y="453.9" transform="matrix(0.848 -0.5299 0.5299 0.848 -165.8464 361.1101)" class="st2" width="13.4" height="31.7"/>
	
		<rect x="524.9" y="432.8" transform="matrix(0.848 -0.5299 0.5299 0.848 -154.8451 350.1644)" class="st2" width="16.6" height="24.5"/>
	
		<rect x="589.4" y="489.3" transform="matrix(0.848 -0.5299 0.5299 0.848 -175.6071 391.8139)" class="st2" width="11.9" height="25.6"/>
	
		<rect x="579.4" y="495.7" transform="matrix(0.848 -0.5299 0.5299 0.848 -180.5147 387.4497)" class="st2" width="11.9" height="25.6"/>
	
		<rect x="568.3" y="502.3" transform="matrix(0.848 -0.5299 0.5299 0.848 -185.6346 382.8462)" class="st2" width="12.9" height="25.6"/>
	<polygon class="st2" points="601.8,454.1 608.2,464.3 598.4,470.5 608.5,486.6 597.2,493.6 593.8,488.1 562.5,507.6 549.5,486.8
		"/>
	
		<rect x="583.8" y="641.2" transform="matrix(0.848 -0.5299 0.5299 0.848 -258.0362 419.6781)" class="st2" width="38" height="37.2"/>
	
		<rect x="564.2" y="610.4" transform="matrix(0.848 -0.5299 0.5299 0.848 -244.4577 404.5807)" class="st2" width="38" height="36.3"/>
	
		<rect x="553.1" y="660.9" transform="matrix(0.848 -0.5299 0.5299 0.848 -273.2737 405.9552)" class="st2" width="36.3" height="37.2"/>
	
		<rect x="544.6" y="679.6" transform="matrix(0.848 -0.5299 0.5299 0.848 -284.6284 397.8822)" class="st2" width="13.8" height="31.3"/>
	
		<rect x="532.8" y="686.9" transform="matrix(0.848 -0.5299 0.5299 0.848 -290.2713 392.7786)" class="st2" width="13.8" height="31.3"/>
	
		<rect x="519" y="694.8" transform="matrix(0.848 -0.5299 0.5299 0.848 -296.4005 387.2558)" class="st2" width="16" height="31.3"/>
	
		<rect x="508.3" y="702.5" transform="matrix(0.848 -0.5299 0.5299 0.848 -302.3474 381.9128)" class="st2" width="13" height="31.3"/>
	
		<rect x="496" y="709.7" transform="matrix(0.848 -0.5299 0.5299 0.848 -307.914 376.869)" class="st2" width="14.3" height="31.3"/>
	
		<rect x="483.2" y="717.5" transform="matrix(0.848 -0.5299 0.5299 0.848 -313.9371 371.4657)" class="st2" width="15" height="31.3"/>
	
		<rect x="533.5" y="630.1" transform="matrix(0.848 -0.5299 0.5299 0.848 -259.6953 390.8578)" class="st2" width="36.3" height="36.3"/>
	<polygon class="st2" points="492.8,750.4 477.7,759.6 464.9,730.9 476.2,723.8 	"/>
	<path class="st2" d="M477.7,759.6c0,0-10.3,4.8-15.1,6.1l-8-29.9l10.3-4.9L477.7,759.6z"/>
	<path class="st2" d="M454.5,735.8l-12.5,2.1l-1.6,31.7c0,0,11.1-0.2,22.1-3.9L454.5,735.8z"/>
	<path class="st2" d="M442.1,737.8l-15.4-1.4l-4,32.4c0,0,14.7,1.4,17.8,0.7L442.1,737.8z"/>
	<path class="st2" d="M417.5,735.3l-12.5-3.6l-13.7,26.8c0,0,10.7,5.4,15.8,6.8L417.5,735.3z"/>
	<path class="st2" d="M405,731.7l-9.5-8l-19.9,23.7c0,0,9.3,7.9,15.7,11.2L405,731.7z"/>
	<path class="st2" d="M395.5,723.7l-6.6-7.1l-24.7,18.6c0,0,7,8.6,11.4,12.1L395.5,723.7z"/>
	<path class="st2" d="M388.9,716.6l-5.8-9.3L356.3,724c0,0,6.6,9.8,7.9,11.2L388.9,716.6z"/>
	<polygon class="st2" points="383.1,707.3 375.8,695.6 348.9,712.3 356.3,724 	"/>
	<polygon class="st2" points="375.8,695.6 369.2,685.1 359.9,690.9 356.3,685.1 338.8,696.1 348.9,712.3 	"/>
	
		<rect x="354.7" y="672.6" transform="matrix(0.848 -0.5299 0.5299 0.848 -306.1056 294.3434)" class="st2" width="11" height="16.7"/>
	<polygon class="st2" points="360.4,671 355.5,663.2 328.7,680 338.8,696.1 356.3,685.1 351.1,676.8 	"/>
	
		<rect x="321.2" y="653" transform="matrix(0.848 -0.5299 0.5299 0.848 -300.1472 279.2643)" class="st2" width="31.4" height="20"/>
	
		<rect x="483.4" y="657.9" transform="matrix(0.848 -0.5299 0.5299 0.848 -279.9319 370.7326)" class="st2" width="46.2" height="31.2"/>
	
		<rect x="471.9" y="677.6" transform="matrix(0.848 -0.5299 0.5299 0.848 -293.4732 359.6969)" class="st2" width="17.2" height="28"/>
	<polygon class="st2" points="478.7,672.5 453.7,667.7 449.2,684.8 460,687.9 480.4,675.2 	"/>
	<polygon class="st2" points="460,687.9 457.7,694.3 470.3,714.5 480.7,708 465.8,684.3 	"/>
	<polygon class="st2" points="470.3,714.5 457.1,722.8 454,717.8 457.2,705.2 462.5,701.9 	"/>
	<polygon class="st2" points="457.1,722.8 452.4,725.7 437,727.8 431.1,726.4 433.9,712.7 454,717.8 	"/>
	<polygon class="st2" points="433.9,712.7 436.5,700 457.2,705.2 454,717.8 	"/>
	<polygon class="st2" points="436.5,700 441,682.3 449.2,684.8 460,687.9 457.7,694.3 462.5,701.9 457.2,705.2 	"/>
	<polygon class="st2" points="419.3,723.8 409.5,722.5 399.2,712.3 407.6,707.1 422.4,710.4 	"/>
	<polygon class="st2" points="422.4,710.4 426.1,693.4 417.3,691.8 415.2,702.4 407.6,707.1 	"/>
	<polygon class="st2" points="426.1,693.4 429.1,680.3 408.6,675.1 404.8,689.2 417.3,691.8 	"/>
	<polygon class="st2" points="421.1,678.3 425,661.1 412.2,658.3 408.6,675.1 	"/>
	<polygon class="st2" points="407.3,680 398.9,678.2 396.6,687.4 404.8,689.2 	"/>
	<polygon class="st2" points="396.6,687.4 404.8,689.2 417.3,691.8 415.2,702.4 399.2,712.3 387.3,693.2 	"/>
	<polygon class="st2" points="398.9,678.2 400.2,672.2 396.6,666.4 377.9,678.1 387.3,693.2 396.6,687.4 	"/>
	
		<rect x="385.1" y="654.7" transform="matrix(0.848 -0.5299 0.5299 0.848 -291.7657 306.8445)" class="st2" width="8.2" height="15"/>
	
		<rect x="370.9" y="654.2" transform="matrix(0.848 -0.5299 0.5299 0.848 -295.0401 301.3221)" class="st2" width="13.9" height="21.8"/>
	<polygon class="st2" points="381.7,658 378.1,652.3 366.3,659.6 360.5,650.4 379.2,638.7 388.6,653.7 	"/>
	
		<rect x="484.9" y="618.5" transform="matrix(0.848 -0.5299 0.5299 0.848 -257.6376 357.3194)" class="st4" width="18.7" height="18.8"/>
	
		<rect x="468.2" y="628.6" transform="matrix(0.848 -0.5299 0.5299 0.848 -265.4579 350.2434)" class="st4" width="19.5" height="18.8"/>
	
		<rect x="451.9" y="590.6" transform="matrix(0.848 -0.5299 0.5299 0.848 -251.2728 342.1935)" class="st2" width="38.2" height="37.3"/>
	<path class="st5" d="M445,603.5L415.3,556l-7.8,4.9l-11.2-18c0,0,13.3-20.6,41.4-11.1l2.9-7.3l36.7,58.8L445,603.5z"/>
	<polygon class="st5" points="437.8,531.8 434.1,542.2 437.9,548.3 440.7,546.6 455.4,570.1 448,574.7 460.2,594.1 477.4,583.3
		440.7,524.5 	"/>
	<polygon class="st5" points="437.9,548.3 435.8,555.1 448,574.7 455.4,570.1 440.7,546.6 	"/>
	<path class="st6" d="M394.4,558.1l-4.2,2.6l-3.3-1c0,0-2.6,9.8-0.4,18.1l3.2-0.6l2.5,6.9l-2.6,1.6l37.8,60.6l5.8-3.6l5.5,8.8
		l26.1-16.3L415.3,556l-7.8,4.9l-8.2,5.1L394.4,558.1z"/>
	
		<rect x="399.5" y="560.5" transform="matrix(0.848 -0.5299 0.5299 0.848 -236.4313 302.3058)" class="st5" width="18.9" height="5.9"/>
	
		<rect x="334.4" y="632.4" transform="matrix(0.848 -0.5299 0.5299 0.848 -287.0475 278.2136)" class="st2" width="14.3" height="14.5"/>
	
		<rect x="346.6" y="625.4" transform="matrix(0.848 -0.5299 0.5299 0.848 -281.6354 283.1422)" class="st2" width="12.6" height="14.5"/>
	
		<rect x="357.3" y="618.7" transform="matrix(0.848 -0.5299 0.5299 0.848 -276.4591 287.7852)" class="st2" width="12.6" height="14.5"/>
	
		<rect x="318.8" y="592.2" transform="matrix(0.848 -0.5299 0.5299 0.848 -272.3242 272.2151)" class="st2" width="39.4" height="37.6"/>
	
		<rect x="305.5" y="583.5" transform="matrix(0.848 -0.5299 0.5299 0.848 -263.0872 261.9142)" class="st2" width="39.4" height="12.4"/>
	
		<rect x="260.3" y="539.3" transform="matrix(0.848 -0.5299 0.5299 0.848 -258.9248 230.7205)" class="st3" width="25.1" height="55.1"/>
	<polygon class="st2" points="268.9,536.8 263.7,528.4 255.1,533.7 250.2,525.9 237.5,533.8 247.7,550.1 	"/>
	
		<rect x="251.9" y="522.5" transform="matrix(0.848 -0.5299 0.5299 0.848 -240.2821 216.2418)" class="st2" width="10.1" height="9.2"/>
	
		<rect x="244.1" y="504.8" transform="matrix(0.848 -0.5299 0.5299 0.848 -234.2786 211.2867)" class="st2" width="14.4" height="18.7"/>
	
		<rect x="231.4" y="512.6" transform="matrix(0.848 -0.5299 0.5299 0.848 -240.2775 205.894)" class="st2" width="15" height="18.7"/>
	
		<rect x="220.2" y="492.8" transform="matrix(0.848 -0.5299 0.5299 0.848 -230.4106 200.8113)" class="st2" width="29.4" height="18.7"/>
	
		<rect x="210.3" y="476.9" transform="matrix(0.848 -0.5299 0.5299 0.848 -223.4799 193.1441)" class="st2" width="29.4" height="18.7"/>
	
		<rect x="200.4" y="461" transform="matrix(0.848 -0.5299 0.5299 0.848 -216.5492 185.4773)" class="st2" width="29.4" height="18.7"/>
	
		<rect x="185.6" y="428" transform="matrix(0.848 -0.5299 0.5299 0.848 -206.2517 174.0083)" class="st2" width="29.4" height="37.3"/>
	
		<rect x="165.3" y="394.5" transform="matrix(0.848 -0.5299 0.5299 0.848 -192.1022 158.2879)" class="st2" width="29.4" height="39.2"/>
	
		<rect x="141.4" y="366.8" transform="matrix(0.848 -0.5299 0.5299 0.848 -176.0004 138.8899)" class="st2" width="25.6" height="19.1"/>
	<polygon class="st2" points="427.4,646.3 431.2,652.3 429.5,653.3 406.4,647.9 404,644.1 419.9,634.2 	"/>
	
		<rect x="399.1" y="627" transform="matrix(0.848 -0.5299 0.5299 0.848 -273.6835 312.7111)" class="st6" width="18.7" height="13.2"/>
	
		<rect x="392.4" y="616.9" transform="matrix(0.848 -0.5299 0.5299 0.848 -269.0385 307.5358)" class="st6" width="18.7" height="12"/>
	
		<rect x="385.8" y="606.1" transform="matrix(0.848 -0.5299 0.5299 0.848 -264.4653 302.477)" class="st6" width="18.7" height="12.6"/>
	
		<rect x="379.6" y="597" transform="matrix(0.848 -0.5299 0.5299 0.848 -261.0518 296.2215)" class="st1" width="12.7" height="12.6"/>
	
		<rect x="372.9" y="586.1" transform="matrix(0.848 -0.5299 0.5299 0.848 -256.3896 291.008)" class="st0" width="12.7" height="12.9"/>
	
		<rect x="363" y="564.4" transform="matrix(0.848 -0.5299 0.5299 0.848 -249.4802 283.36)" class="st6" width="12.7" height="24.6"/>
	<path class="st1" d="M440.7,524.5l-36.3-58.1l-74.7,46.7l25.5,40.8l5.4-3.4l4.8-3l7.7,12.3l-4.8,3l26.6,42.5l5-3.1l-10.3-16.4
		l2.6-1.6l-2.5-6.9l-3.2,0.6c0,0-1.7-5.6,0.4-18.1l3.3,1l4.2-2.6l4.9,7.9l8.2-5.1l-11.2-18c0,0,13.4-20.7,41.4-11.1L440.7,524.5z"/>
	<line class="st3" x1="278.7" y1="552.4" x2="298" y2="540.3"/>
	<polygon class="st2" points="513,605.1 529.6,594.7 539.5,610.5 528.3,617.4 519.5,615.5 	"/>
	<polyline class="st2" points="571,568.8 569,577.8 563.7,581.1 560.3,575.6 529.6,594.7 	"/>
	<polygon class="st2" points="545,585.1 571,568.8 573.2,560.2 556.1,532.7 524.5,552.5 	"/>
	
		<rect x="499.9" y="559.5" transform="matrix(0.848 -0.5299 0.5299 0.848 -227.8627 362.817)" class="st2" width="37.7" height="38.5"/>
	<polygon class="st2" points="556.1,532.7 558,524.5 544.9,503.5 536,501.5 504.9,521 524.5,552.5 	"/>
	<polygon class="st2" points="524.5,552.5 492.6,572.4 483.2,570.3 470.6,550.2 472.8,541 504.9,521 	"/>
	<polygon class="st2" points="536,501.5 519.6,475.2 511.3,473.3 485.2,489.5 504.9,521 	"/>
	<polygon class="st2" points="472.8,541 456.7,515.3 458.8,506.4 485.4,489.8 504.9,521 	"/>
	<polygon class="st2" points="471.9,410.3 474,401.3 457.7,375.3 425.8,395.3 445.5,426.8 	"/>
	<polygon class="st2" points="445.5,426.8 419.3,443.1 409.8,440.9 393.7,415.3 425.8,395.3 	"/>
	<polygon class="st1" points="457.7,375.3 459.8,366.4 446.6,345.3 437.7,343.1 405.6,363.2 425.7,395.3 	"/>
	<polygon class="st2" points="425.7,395.3 393.7,415.3 385.1,413.3 371.4,391.3 373.3,383.3 405.6,363.2 	"/>
	
		<rect x="419.4" y="334.1" transform="matrix(0.848 -0.5299 0.5299 0.848 -115.8984 278.2682)" class="st2" width="15.8" height="14.3"/>
	
		<rect x="407" y="342.2" transform="matrix(0.848 -0.5299 0.5299 0.848 -122.1608 272.6475)" class="st2" width="14.7" height="14.3"/>
	
		<rect x="387.6" y="352" transform="matrix(0.848 -0.5299 0.5299 0.848 -129.7334 265.8598)" class="st2" width="22.2" height="14.3"/>
	
		<rect x="393.2" y="317.9" transform="matrix(0.848 -0.5299 0.5299 0.848 -110.1975 265.8242)" class="st2" width="30.4" height="14.3"/>
	
		<rect x="375" y="331.8" transform="matrix(0.848 -0.5299 0.5299 0.848 -120.9489 256.0946)" class="st2" width="22.2" height="14.3"/>
	
		<rect x="356" y="343.6" transform="matrix(0.848 -0.5299 0.5299 0.848 -130.0776 247.876)" class="st2" width="22.4" height="14.3"/>
	
		<rect x="368.1" y="363.9" transform="matrix(0.848 -0.5299 0.5299 0.848 -138.9613 257.5072)" class="st2" width="22.9" height="14.3"/>
	<polygon class="st2" points="385.4,331 417.6,310.9 419.7,301.7 406.7,281 397,278.7 365.2,298.6 	"/>
	<polygon class="st2" points="385.6,330.9 354.1,350.5 345.1,348.3 332.1,327.6 334.2,317.9 365.3,298.5 	"/>
	<path class="st2" d="M349.9,308.2l-2.7-4.3L331.1,314l2.7,4.3C333.7,318.2,350.6,307.7,349.9,308.2z"/>
	
		<rect x="375.1" y="267.1" transform="matrix(0.848 -0.5299 0.5299 0.848 -87.8874 245.6275)" class="st2" width="18.5" height="17.9"/>
	
		<rect x="498.4" y="378" transform="matrix(0.848 -0.5299 0.5299 0.848 -133.3285 334.6391)" class="st2" width="36.8" height="43.6"/>
	
		<rect x="536" y="358.8" transform="matrix(0.848 -0.5299 0.5299 0.848 -115.2908 353.1327)" class="st2" width="44.3" height="37.6"/>
	
		<rect x="573.3" y="334.8" transform="matrix(0.848 -0.5299 0.5299 0.848 -99.9462 364.6944)" class="st2" width="25.2" height="43.6"/>
	
		<rect x="604.2" y="354.1" transform="matrix(0.848 -0.5299 0.5299 0.848 -98.0476 378.2261)" class="st2" width="12.6" height="12"/>
	
		<rect x="587.7" y="327.1" transform="matrix(0.848 -0.5299 0.5299 0.848 -86.5823 365.5108)" class="st2" width="12.6" height="13.3"/>
	
		<rect x="573.9" y="298.5" transform="matrix(0.848 -0.5299 0.5299 0.848 -76.9229 354.7841)" class="st2" width="12.6" height="26.1"/>
	
		<rect x="551.5" y="308.5" transform="matrix(0.848 -0.5299 0.5299 0.848 -84.6867 347.7752)" class="st2" width="25.2" height="26.1"/>
	
		<rect x="541.8" y="318.4" transform="matrix(0.848 -0.5299 0.5299 0.848 -92.3512 340.839)" class="st2" width="12.6" height="26.1"/>
	
		<rect x="531.2" y="325.1" transform="matrix(0.848 -0.5299 0.5299 0.848 -97.5276 336.1961)" class="st2" width="12.6" height="26.1"/>
	
		<rect x="508.6" y="335.2" transform="matrix(0.848 -0.5299 0.5299 0.848 -105.3344 329.1801)" class="st2" width="25.5" height="26.1"/>
	
		<rect x="478.3" y="351.2" transform="matrix(0.848 -0.5299 0.5299 0.848 -119.2727 319.0368)" class="st2" width="36.8" height="32.6"/>
	
		<rect x="454.8" y="302.1" transform="matrix(0.848 -0.5299 0.5299 0.848 -102.6512 301.4749)" class="st5" width="39.1" height="55.2"/>
	
		<rect x="479.2" y="250.7" transform="matrix(0.848 -0.5299 0.5299 0.848 -72.5042 321.9107)" class="st7" width="91.7" height="73.3"/>
	
		<rect x="363.9" y="58.1" transform="matrix(0.848 -0.5299 0.5299 0.848 -25.3345 253.4964)" class="st0" width="130.9" height="225.7"/>
	<rect x="596" y="338" transform="matrix(0.848 -0.5299 0.5299 0.848 -92.4497 371.9525)" class="st2" width="12.6" height="18.3"/>
	
		<rect x="364" y="252.8" transform="matrix(0.848 -0.5299 0.5299 0.848 -81.0183 235.5527)" class="st2" width="12.5" height="12.5"/>
	<rect x="320.5" y="253.4" transform="matrix(0.848 -0.5299 0.5299 0.848 -89.67 222.0436)" class="st2" width="43.7" height="28"/>
	
		<rect x="305.6" y="229.6" transform="matrix(0.848 -0.5299 0.5299 0.848 -79.3468 210.5274)" class="st2" width="43.7" height="28"/>
	
		<rect x="294.4" y="218.5" transform="matrix(0.848 -0.5299 0.5299 0.848 -77.244 192.7731)" class="st2" width="6.2" height="25.2"/>
	
		<rect x="298.7" y="211.9" transform="matrix(0.848 -0.5299 0.5299 0.848 -72.1569 197.3239)" class="st2" width="18.6" height="25.2"/>
	
		<rect x="270" y="158.6" transform="matrix(0.848 -0.5299 0.5299 0.848 -54.5771 183.0343)" class="st1" width="43.7" height="56.2"/>
	
		<rect x="299.9" y="139.2" transform="matrix(0.848 -0.5299 0.5299 0.848 -32.5724 192.1)" class="st1" width="37.6" height="27.3"/>
	<polygon class="st1" points="327.4,131.3 274.4,164.4 271,158.9 291.4,146.1 281.5,130.2 314,109.9 	"/>
	<line class="st3" x1="271" y1="158.9" x2="260.6" y2="165.3"/>
	
		<rect x="236.3" y="153.4" transform="matrix(0.848 -0.5299 0.5299 0.848 -46.2098 154.1021)" class="st2" width="18.6" height="8.5"/>
	<polygon class="st2" points="127.4,226.4 166.6,289.1 146.1,302 138.8,290.3 132,288.8 112.2,257.1 113.8,250.6 106.8,239.4 	"/>
	
		<rect x="258.7" y="226.2" transform="matrix(0.848 -0.5299 0.5299 0.848 -97.4256 187.3565)" class="st0" width="38.6" height="74.7"/>
	
		<rect x="202" y="253.5" transform="matrix(0.848 -0.5299 0.5299 0.848 -118.5449 168.3298)" class="st0" width="64.5" height="74.7"/>
	<polygon class="st2" points="146.1,302 187.2,276.3 226.7,339.6 185.6,365.3 171.8,343.2 166.3,346.7 154.1,327.1 159.6,323.6 	"/>
	<rect x="143" y="292.9" transform="matrix(0.848 -0.5299 0.5299 0.848 -141.1896 124.3615)" class="st2" width="6.5" height="31"/>
	<polygon class="st5" points="106.8,239.4 89.6,249.9 110.9,283.9 114.6,289.8 104.2,296.3 101.9,292.7 91,299.6 60.8,251.2
		99.2,227.2 	"/>
	
		<rect x="121.5" y="316.4" transform="matrix(0.848 -0.5299 0.5299 0.848 -162.1202 123.489)" class="st5" width="25.6" height="56.1"/>
	
		<rect x="98.9" y="293.6" transform="matrix(0.848 -0.5299 0.5299 0.848 -148.3126 102.9136)" class="st2" width="12.8" height="33"/>
	<line class="st3" x1="114.6" y1="289.8" x2="125.9" y2="307.8"/>
	<polygon class="st2" points="237.5,356.9 257.5,388.9 213.6,416.3 209.1,409.1 220.2,402.1 204.7,377.3 	"/>
	
		<rect x="200.4" y="378.6" transform="matrix(0.848 -0.5299 0.5299 0.848 -176.9088 169.4036)" class="st2" width="13.1" height="29.2"/>
	<polygon class="st2" points="213.6,416.3 217.4,422.2 228.5,415.3 244.5,441 277.3,420.5 257.5,388.9 	"/>
	
		<rect x="203.2" y="388.5" transform="matrix(0.848 -0.5299 0.5299 0.848 -178.9141 171.576)" class="st2" width="13.1" height="18.5"/>
	<polygon class="st2" points="277.3,420.5 244.5,441 260.5,466.6 249.4,473.5 253.3,479.8 297.2,452.3 	"/>
	<polygon class="st2" points="253.3,479.8 297.2,452.3 317.1,484.1 284.3,504.6 268.3,479.1 257.2,486 	"/>
	
		<rect x="221.7" y="417.2" transform="matrix(0.848 -0.5299 0.5299 0.848 -191.7633 185.8742)" class="st2" width="13.1" height="20.2"/>
	
		<rect x="229.8" y="435.1" transform="matrix(0.848 -0.5299 0.5299 0.848 -197.322 192.1084)" class="st2" width="13.1" height="10.1"/>
	
		<rect x="235.1" y="443.7" transform="matrix(0.848 -0.5299 0.5299 0.848 -201.0942 196.2351)" class="st2" width="13.1" height="10.1"/>
	
		<rect x="240.3" y="452.4" transform="matrix(0.848 -0.5299 0.5299 0.848 -204.6469 200.2455)" class="st2" width="13.1" height="9.2"/>
	
		<rect x="258.8" y="481.8" transform="matrix(0.848 -0.5299 0.5299 0.848 -217.5033 214.5249)" class="st2" width="13.1" height="9.5"/>
	
		<rect x="264" y="489.8" transform="matrix(0.848 -0.5299 0.5299 0.848 -221.1692 218.5687)" class="st2" width="13.1" height="10.3"/>
	
		<rect x="269.5" y="498.5" transform="matrix(0.848 -0.5299 0.5299 0.848 -224.939 222.7892)" class="st2" width="13.1" height="10.3"/>
	
		<rect x="245.5" y="460" transform="matrix(0.848 -0.5299 0.5299 0.848 -208.3084 204.3083)" class="st2" width="13.1" height="10.8"/>
	
		<rect x="306.2" y="487.2" transform="matrix(0.848 -0.5299 0.5299 0.848 -215.4392 242.3023)" class="st2" width="17.2" height="19.2"/>
	<polygon class="st2" points="327.2,500.4 355.6,482.6 343.1,462.6 337.5,457.7 333.7,451.6 307.1,468.2 	"/>
	<polygon class="st2" points="307.1,468.2 335.5,450.5 323,430.4 317.4,425.5 313.6,419.4 287,436.1 	"/>
	<polygon class="st2" points="267.6,404.9 296,387.2 283.5,367.2 277.9,362.2 274.6,357 248,373.6 	"/>
	<polygon class="st2" points="267.5,404.9 295.9,387.1 308.5,407.2 310.4,414.3 313.6,419.4 287,436.1 	"/>
	
		<rect x="240.4" y="347" transform="matrix(0.848 -0.5299 0.5299 0.848 -150.2111 189.9299)" class="st2" width="31.4" height="19.8"/>
	<polygon class="st2" points="358,392.3 325.9,412.3 313.3,392.2 311.3,385 307.5,379 337.9,360 	"/>
	<polygon class="st2" points="318.4,328.8 286.2,348.9 298.7,368.9 304.3,373.8 307.5,379 337.9,360 	"/>
	<polygon class="st2" points="397.7,455.7 365.5,475.8 353,455.8 351,448.6 347.2,442.5 377.6,423.5 	"/>
	<polygon class="st2" points="358,392.3 325.9,412.3 338.4,432.5 344,437.4 347.2,442.5 377.6,423.5 	"/>
	
		<rect x="295.7" y="316.2" transform="matrix(0.848 -0.5299 0.5299 0.848 -126.2066 211.2433)" class="st4" width="19" height="19"/>

		<rect x="279.7" y="326.3" transform="matrix(0.848 -0.5299 0.5299 0.848 -134.0044 204.2693)" class="st4" width="19" height="19"/>
	<polygon class="st2" points="692.5,361.5 711.6,392.1 679.6,412.2 676.2,406.8 681.5,403.5 665.7,378.2 	"/>
	
		<rect x="296.3" y="604.5" transform="matrix(0.848 -0.5299 0.5299 0.848 -283.916 258.5107)" class="st6" width="25.1" height="39.6"/>
	<line class="st8" x1="235.4" y1="159" x2="166.1" y2="289.5"/>
	<line class="st8" x1="274.6" y1="221.7" x2="126.8" y2="226.9"/>
	<line class="st8" x1="314.2" y1="285" x2="241.9" y2="242.1"/>
	<line class="st8" x1="455.2" y1="442.4" x2="414" y2="446.1"/>
	<line class="st8" x1="495.5" y1="437.6" x2="475.3" y2="439.4"/>
	<line class="st8" x1="455.2" y1="442.4" x2="476.9" y2="406.8"/>
	<line class="st8" x1="432.9" y1="476.7" x2="443.4" y2="459.1"/>
	<line class="st8" x1="281.4" y1="305.4" x2="187.2" y2="276.3"/>
	
		<rect x="137.4" y="187.1" transform="matrix(0.848 -0.5299 0.5299 0.848 -88.1723 140.5694)" class="st3" width="127.3" height="73.9"/>
	<line class="st8" x1="425" y1="40.5" x2="433.6" y2="301.2"/>
	<line class="st8" x1="314" y1="109.9" x2="544.6" y2="231.9"/>
	<line class="st8" x1="274.6" y1="221.7" x2="281.4" y2="305.4"/>
	<line class="st8" x1="241.8" y1="242.1" x2="226.7" y2="339.6"/>
	<line class="st8" x1="268.9" y1="536.8" x2="276.9" y2="596.8"/>
	<line class="st8" x1="298.1" y1="583.5" x2="247.7" y2="550.1"/>
	<line class="st8" x1="388.1" y1="594.6" x2="370.5" y2="590.4"/>
	<polygon class="st2" points="397,278.7 387.4,263.5 381.5,267.3 391,282.5 	"/>
	<line class="st8" x1="638.8" y1="548.4" x2="576.1" y2="529.3"/>
	<line class="st8" x1="602.3" y1="571.2" x2="612.7" y2="506.5"/>
	<line class="st8" x1="679.8" y1="530.4" x2="655.8" y2="515.6"/>
	<line class="st8" x1="669.2" y1="537" x2="666.4" y2="509"/>

		<rect x="640.3" y="479.5" transform="matrix(0.848 -0.5299 0.5299 0.848 -161.2994 416.2221)" class="st2" width="9.7" height="19.7"/>
	<line class="st8" x1="381.3" y1="583.7" x2="377.3" y2="601.4"/>
</g>
<g id="murs" class="st9">
	<line class="st10" x1="480.4" y1="448.3" x2="449.3" y2="467.8"/>
	<line class="st10" x1="481.8" y1="450.5" x2="450.7" y2="469.9"/>
	<line class="st10" x1="483.1" y1="452.7" x2="452" y2="472.1"/>
	<line class="st10" x1="484.5" y1="454.8" x2="453.4" y2="474.3"/>
	<line class="st10" x1="485.8" y1="457" x2="454.7" y2="476.4"/>
	<line class="st10" x1="487.2" y1="459.2" x2="456.1" y2="478.6"/>
	<line class="st10" x1="488.5" y1="461.3" x2="457.4" y2="480.8"/>
	<line class="st10" x1="489.9" y1="463.5" x2="458.8" y2="482.9"/>
	<line class="st10" x1="470.8" y1="433" x2="439.7" y2="452.4"/>
	<line class="st10" x1="472.2" y1="435.1" x2="441.1" y2="454.6"/>
	<line class="st10" x1="473.5" y1="437.3" x2="442.4" y2="456.7"/>
	<line class="st10" x1="474.9" y1="439.5" x2="443.8" y2="458.9"/>
	<line class="st10" x1="476.2" y1="441.6" x2="445.1" y2="461.1"/>
	<line class="st10" x1="477.6" y1="443.8" x2="446.5" y2="463.2"/>
	<line class="st10" x1="478.9" y1="446" x2="447.8" y2="465.4"/>
	<line class="st10" x1="470" y1="431.6" x2="491" y2="465.3"/>
	<line class="st10" x1="459.9" y1="484.7" x2="438.9" y2="451"/>
	<polyline class="st10" points="480,447.7 496.1,437.6 477,407.1 413.9,446.5 433,477 448.9,467.1 	"/>
	<line class="st10" x1="347.2" y1="303.9" x2="345.6" y2="301.3"/>
	<polyline class="st10" points="342.1,295.6 340.4,293 371.8,273.3 381.3,288.5 	"/>
	<line class="st10" x1="135.2" y1="297" x2="128.9" y2="300.9"/>
	<polyline class="st10" points="106.5,248 98.8,252.8 104.2,261.5 98.7,265 	"/>
	<polyline class="st10" points="312.6,509.5 283.3,527.8 280.5,523.4 	"/>
	<line class="st10" x1="273.2" y1="511.6" x2="275.9" y2="515.9"/>
	<polyline class="st10" points="318.4,328.8 304.9,307.3 293.8,314.2 	"/>
	<polyline class="st10" points="283.5,320.7 272.8,327.4 286.2,348.9 	"/>
	<polyline class="st10" points="331.3,515.7 311.1,528.3 334.6,565.9 344.7,559.6 	"/>
	<polyline class="st10" points="489.1,649.6 478.1,656.5 464.8,635.2 497.2,615 510.5,636.2 499.2,643.3 	"/>
	<polyline class="st10" points="448.9,655.8 450,657.6 468.9,662.2 478.1,656.5 	"/>
	<polyline class="st10" points="539.5,610.5 570.1,591.3 568.1,588 	"/>
	<polyline class="st10" points="170.1,377.6 173.3,375.7 176.3,380.5 	"/>
	<polyline class="st10" points="698.5,489 711.8,510.3 701.1,517 	"/>
	<polyline class="st10" points="687.8,495.7 697.4,511.1 704,506.9 	"/>
	<polyline class="st10" points="638.7,393.3 625.6,372.4 614.9,379.1 	"/>
	<polyline class="st10" points="625.2,380.8 618.6,385 628,400 	"/>
	<polyline class="st10" points="402.5,571 408.7,581 414,577.6 	"/>
	<line class="st10" x1="420.2" y1="573.7" x2="424.7" y2="571"/>
</g>
<g>
	<line class="st3" x1="480.6" y1="448.2" x2="449.5" y2="467.6"/>
	<line class="st3" x1="481.9" y1="450.3" x2="450.8" y2="469.8"/>
	<line class="st3" x1="483.3" y1="452.5" x2="452.2" y2="471.9"/>
	<line class="st3" x1="484.6" y1="454.7" x2="453.6" y2="474.1"/>
	<line class="st3" x1="486" y1="456.8" x2="454.9" y2="476.3"/>
	<line class="st3" x1="487.3" y1="459" x2="456.3" y2="478.4"/>
	<line class="st3" x1="488.7" y1="461.2" x2="457.6" y2="480.6"/>
	<line class="st3" x1="490" y1="463.3" x2="459" y2="482.8"/>
	<line class="st3" x1="471" y1="432.8" x2="439.9" y2="452.2"/>
	<line class="st3" x1="472.3" y1="435" x2="441.2" y2="454.4"/>
	<line class="st3" x1="473.7" y1="437.2" x2="442.6" y2="456.6"/>
	<line class="st3" x1="475" y1="439.3" x2="444" y2="458.7"/>
	<line class="st3" x1="476.4" y1="441.5" x2="445.3" y2="460.9"/>
	<line class="st3" x1="477.7" y1="443.6" x2="446.7" y2="463.1"/>
	<line class="st3" x1="479.1" y1="445.8" x2="448" y2="465.2"/>
	<line class="st3" x1="470.1" y1="431.5" x2="491.2" y2="465.1"/>
	<line class="st3" x1="460.1" y1="484.5" x2="439" y2="450.9"/>
	<polyline class="st3" points="480.2,447.5 496.3,437.4 477.2,406.9 414.1,446.4 433.1,476.9 449.1,466.9 	"/>
</g>
</svg>
