<?xml version="1.0" encoding="utf-8"?>
<!-- Generator: Adobe Illustrator 20.1.0, SVG Export Plug-In . SVG Version: 6.00 Build 0)  -->
<svg version="1.1" id="icones" xmlns="http://www.w3.org/2000/svg" xmlns:xlink="http://www.w3.org/1999/xlink" x="0px" y="0px"
	 viewBox="0 0 777 823.5" style="enable-background:new 0 0 777 823.5;" xml:space="preserve">
<style type="text/css">
	.st0{fill:#1D1D1B;}
	.st1{fill:#FFFFFF;}
	.st2{opacity:0.5;}
	.st3{fill:#3E6E6D;}
	.st4{fill:#C85E31;}
	.st5{fill:#F1F1F2;}
	.st6{fill:#1D1C1A;}
</style>
<g>
	<path class="st0" d="M88.9,205h-7.6c-1,0-1.9-0.8-1.9-1.9v-7.6c0-1,0.8-1.9,1.9-1.9h7.6c1,0,1.9,0.8,1.9,1.9v7.6
		C90.8,204.2,89.9,205,88.9,205z"/>
	<polygon class="st1" points="85.1,195.7 85.1,198.1 83,198.1 83,200.6 80.9,200.6 80.9,203.1 85.1,203.1 85.1,200.6 87.2,200.6
		87.2,198.1 89.3,198.1 89.3,195.7 	"/>
</g>
<g>
	<path class="st0" d="M580.6,336.8H573c-1,0-1.9-0.8-1.9-1.9v-7.6c0-1,0.8-1.9,1.9-1.9h7.6c1,0,1.9,0.8,1.9,1.9v7.6
		C582.5,336,581.6,336.8,580.6,336.8z"/>
	<polygon class="st1" points="576.8,327.5 576.8,329.9 574.7,329.9 574.7,332.4 572.6,332.4 572.6,334.9 576.8,334.9 576.8,332.4
		578.9,332.4 578.9,329.9 581,329.9 581,327.5 	"/>
</g>
<g>
	<path class="st0" d="M65.2,217.5h-7.6c-1,0-1.9-0.8-1.9-1.9V208c0-1,0.8-1.9,1.9-1.9h7.6c1,0,1.9,0.8,1.9,1.9v7.6
		C67.1,216.7,66.3,217.5,65.2,217.5z"/>
	<polygon class="st1" points="61.4,208.2 61.4,210.6 59.3,210.6 59.3,213.1 57.3,213.1 57.3,215.6 61.4,215.6 61.4,213.1
		63.5,213.1 63.5,210.6 65.6,210.6 65.6,208.2 	"/>
</g>
<g>
	<path class="st0" d="M194.5,335.5h-7.6c-1,0-1.9-0.8-1.9-1.9V326c0-1,0.8-1.9,1.9-1.9h7.6c1,0,1.9,0.8,1.9,1.9v7.6
		C196.4,334.7,195.6,335.5,194.5,335.5z"/>
	<polygon class="st1" points="190.7,326.1 190.7,328.6 188.6,328.6 188.6,331.1 186.6,331.1 186.6,333.5 190.7,333.5 190.7,331.1
		192.8,331.1 192.8,328.6 194.9,328.6 194.9,326.1 	"/>
</g>
<g>
	<path class="st0" d="M362.1,475.3h-7.6c-1,0-1.9-0.8-1.9-1.9v-7.6c0-1,0.8-1.9,1.9-1.9h7.6c1,0,1.9,0.8,1.9,1.9v7.6
		C363.9,474.4,363.1,475.3,362.1,475.3z"/>
	<polygon class="st1" points="358.3,465.9 358.3,468.4 356.2,468.4 356.2,470.8 354.1,470.8 354.1,473.3 358.3,473.3 358.3,470.8
		360.4,470.8 360.4,468.4 362.4,468.4 362.4,465.9 	"/>
</g>
<g>
	<path class="st0" d="M318.1,571.6h-7.6c-1,0-1.9-0.8-1.9-1.9v-7.6c0-1,0.8-1.9,1.9-1.9h7.6c1,0,1.9,0.8,1.9,1.9v7.6
		C320,570.8,319.1,571.6,318.1,571.6z"/>
	<polygon class="st1" points="314.3,562.2 314.3,564.7 312.2,564.7 312.2,567.2 310.1,567.2 310.1,569.6 314.3,569.6 314.3,567.2
		316.4,567.2 316.4,564.7 318.5,564.7 318.5,562.2 	"/>
</g>
<g>
	<path class="st0" d="M450.2,418.4h-7.6c-1,0-1.9-0.8-1.9-1.9V409c0-1,0.8-1.9,1.9-1.9h7.6c1,0,1.9,0.8,1.9,1.9v7.6
		C452,417.6,451.2,418.4,450.2,418.4z"/>
	<polygon class="st1" points="446.4,409.1 446.4,411.5 444.3,411.5 444.3,414 442.2,414 442.2,416.4 446.4,416.4 446.4,414
		448.4,414 448.4,411.5 450.5,411.5 450.5,409.1 	"/>
</g>
<g>
	<path class="st0" d="M308.3,383.9h-7.6c-1,0-1.9-0.8-1.9-1.9v-7.6c0-1,0.8-1.9,1.9-1.9h7.6c1,0,1.9,0.8,1.9,1.9v7.6
		C310.2,383.1,309.4,383.9,308.3,383.9z"/>
	<polygon class="st1" points="304.5,374.6 304.5,377 302.5,377 302.5,379.5 300.4,379.5 300.4,382 304.5,382 304.5,379.5
		306.6,379.5 306.6,377 308.7,377 308.7,374.6 	"/>
</g>
<g>
	<path class="st0" d="M511.8,224.9h-7.6c-1,0-1.9-0.8-1.9-1.9v-7.6c0-1,0.8-1.9,1.9-1.9h7.6c1,0,1.9,0.8,1.9,1.9v7.6
		C513.7,224.1,512.9,224.9,511.8,224.9z"/>
	<polygon class="st1" points="508,215.6 508,218 505.9,218 505.9,220.5 503.8,220.5 503.8,223 508,223 508,220.5 510.1,220.5
		510.1,218 512.2,218 512.2,215.6 	"/>
</g>
<g>
	<path class="st0" d="M602.8,533.1h-7.6c-1,0-1.9-0.8-1.9-1.9v-7.6c0-1,0.8-1.9,1.9-1.9h7.6c1,0,1.9,0.8,1.9,1.9v7.6
		C604.7,532.2,603.8,533.1,602.8,533.1z"/>
	<polygon class="st1" points="599,523.7 599,526.2 596.9,526.2 596.9,528.6 594.8,528.6 594.8,531.1 599,531.1 599,528.6
		601.1,528.6 601.1,526.2 603.2,526.2 603.2,523.7 	"/>
</g>
<g>
	<path class="st0" d="M607,619.2h-7.6c-1,0-1.9-0.8-1.9-1.9v-7.6c0-1,0.8-1.9,1.9-1.9h7.6c1,0,1.9,0.8,1.9,1.9v7.6
		C608.8,618.3,608,619.2,607,619.2z"/>
	<polygon class="st1" points="603.2,609.8 603.2,612.3 601.1,612.3 601.1,614.7 599,614.7 599,617.2 603.2,617.2 603.2,614.7
		605.3,614.7 605.3,612.3 607.4,612.3 607.4,609.8 	"/>
</g>
<g>
	<path class="st0" d="M693,746.8h-7.6c-1,0-1.9-0.8-1.9-1.9v-7.6c0-1,0.8-1.9,1.9-1.9h7.6c1,0,1.9,0.8,1.9,1.9v7.6
		C694.8,745.9,694,746.8,693,746.8z"/>
	<polygon class="st1" points="689.2,737.4 689.2,739.9 687.1,739.9 687.1,742.3 685,742.3 685,744.8 689.2,744.8 689.2,742.3
		691.2,742.3 691.2,739.9 693.3,739.9 693.3,737.4 	"/>
</g>
<g>
	<g>
		<path class="st0" d="M620.3,553.2h-7.6c-1,0-1.9-0.8-1.9-1.9v-7.6c0-1,0.8-1.9,1.9-1.9h7.6c1,0,1.9,0.8,1.9,1.9v7.6
			C622.1,552.4,621.3,553.2,620.3,553.2z"/>
		<g>
			<path class="st1" d="M615,552.1h-2.1c-0.5,0-0.9-0.4-0.9-0.9v-7.3c0-0.5,0.4-0.9,0.9-0.9h2.1c0.5,0,0.9,0.4,0.9,0.9v7.3
				C615.9,551.7,615.5,552.1,615,552.1z"/>
			<path class="st1" d="M620,552.1h-2.1c-0.5,0-0.9-0.4-0.9-0.9v-7.3c0-0.5,0.4-0.9,0.9-0.9h2.1c0.5,0,0.9,0.4,0.9,0.9v7.3
				C620.9,551.7,620.5,552.1,620,552.1z"/>
		</g>
	</g>
	<path class="st0" d="M615.4,546.9l-1.4-1.4c-0.1-0.1-0.2-0.1-0.2,0l-1.4,1.4c-0.1,0.1,0,0.3,0.1,0.3h0.8v2.2c0,0.2,0.2,0.4,0.4,0.4
		h0.5c0.2,0,0.4-0.2,0.4-0.4v-2.2h0.8C615.5,547.1,615.5,547,615.4,546.9z"/>
	<path class="st0" d="M617.4,548.2l1.4,1.4c0.1,0.1,0.2,0.1,0.2,0l1.4-1.4c0.1-0.1,0-0.3-0.1-0.3h-0.8v-2.2c0-0.2-0.2-0.4-0.4-0.4
		h-0.5c-0.2,0-0.4,0.2-0.4,0.4v2.2h-0.8C617.4,547.9,617.3,548.1,617.4,548.2z"/>
</g>
<g>
	<g>
		<path class="st0" d="M303.7,505.2h-7.6c-1,0-1.9-0.8-1.9-1.9v-7.6c0-1,0.8-1.9,1.9-1.9h7.6c1,0,1.9,0.8,1.9,1.9v7.6
			C305.6,504.4,304.8,505.2,303.7,505.2z"/>
		<g>
			<path class="st1" d="M298.5,504.2h-2.1c-0.5,0-0.9-0.4-0.9-0.9V496c0-0.5,0.4-0.9,0.9-0.9h2.1c0.5,0,0.9,0.4,0.9,0.9v7.3
				C299.4,503.7,299,504.2,298.5,504.2z"/>
			<path class="st1" d="M303.5,504.2h-2.1c-0.5,0-0.9-0.4-0.9-0.9V496c0-0.5,0.4-0.9,0.9-0.9h2.1c0.5,0,0.9,0.4,0.9,0.9v7.3
				C304.4,503.7,304,504.2,303.5,504.2z"/>
		</g>
	</g>
	<path class="st0" d="M298.9,498.9l-1.4-1.4c-0.1-0.1-0.2-0.1-0.2,0l-1.4,1.4c-0.1,0.1,0,0.3,0.1,0.3h0.8v2.2c0,0.2,0.2,0.4,0.4,0.4
		h0.5c0.2,0,0.4-0.2,0.4-0.4v-2.2h0.8C299,499.2,299,499,298.9,498.9z"/>
	<path class="st0" d="M300.9,500.2l1.4,1.4c0.1,0.1,0.2,0.1,0.2,0l1.4-1.4c0.1-0.1,0-0.3-0.1-0.3H303v-2.2c0-0.2-0.2-0.4-0.4-0.4
		h-0.5c-0.2,0-0.4,0.2-0.4,0.4v2.2H301C300.9,500,300.8,500.1,300.9,500.2z"/>
</g>
<g>
	<g>
		<path class="st0" d="M289.4,424.6h-7.6c-1,0-1.9-0.8-1.9-1.9v-7.6c0-1,0.8-1.9,1.9-1.9h7.6c1,0,1.9,0.8,1.9,1.9v7.6
			C291.3,423.8,290.4,424.6,289.4,424.6z"/>
		<g>
			<path class="st1" d="M284.1,423.5H282c-0.5,0-0.9-0.4-0.9-0.9v-7.3c0-0.5,0.4-0.9,0.9-0.9h2.1c0.5,0,0.9,0.4,0.9,0.9v7.3
				C285.1,423.1,284.7,423.5,284.1,423.5z"/>
			<path class="st1" d="M289.1,423.5H287c-0.5,0-0.9-0.4-0.9-0.9v-7.3c0-0.5,0.4-0.9,0.9-0.9h2.1c0.5,0,0.9,0.4,0.9,0.9v7.3
				C290.1,423.1,289.7,423.5,289.1,423.5z"/>
		</g>
	</g>
	<path class="st0" d="M284.6,418.3l-1.4-1.4c-0.1-0.1-0.2-0.1-0.2,0l-1.4,1.4c-0.1,0.1,0,0.3,0.1,0.3h0.8v2.2c0,0.2,0.2,0.4,0.4,0.4
		h0.5c0.2,0,0.4-0.2,0.4-0.4v-2.2h0.8C284.6,418.5,284.7,418.4,284.6,418.3z"/>
	<path class="st0" d="M286.6,419.6l1.4,1.4c0.1,0.1,0.2,0.1,0.2,0l1.4-1.4c0.1-0.1,0-0.3-0.1-0.3h-0.8v-2.2c0-0.2-0.2-0.4-0.4-0.4
		h-0.5c-0.2,0-0.4,0.2-0.4,0.4v2.2h-0.8C286.5,419.3,286.5,419.5,286.6,419.6z"/>
</g>
<g>
	<circle class="st0" cx="297.7" cy="363.2" r="4.5"/>
	<path class="st1" d="M299.1,361.2l-2.9-0.7c-0.1,0-0.2,0-0.3,0.2l-0.7,2.9c0,0.2,0.2,0.4,0.3,0.2l1.1-0.7l1.7,2.7
		c0.2,0.2,0.5,0.3,0.7,0.2l0.6-0.4c0.2-0.2,0.3-0.5,0.2-0.7l-1.7-2.7l1.1-0.7C299.4,361.5,299.3,361.3,299.1,361.2z"/>
</g>
<g>
	<circle class="st0" cx="384.3" cy="382.6" r="4.5"/>
	<path class="st1" d="M382.9,384.7l2.9,0.7c0.1,0,0.2,0,0.3-0.2l0.7-2.9c0-0.2-0.2-0.4-0.3-0.2l-1.1,0.7l-1.7-2.7
		c-0.2-0.2-0.5-0.3-0.7-0.2l-0.6,0.4c-0.2,0.2-0.3,0.5-0.2,0.7l1.7,2.7l-1.1,0.7C382.6,384.4,382.7,384.6,382.9,384.7z"/>
</g>
<g>
	<path class="st0" d="M378.8,463.4h-7.6c-1,0-1.9-0.8-1.9-1.9v-7.6c0-1,0.8-1.9,1.9-1.9h7.6c1,0,1.9,0.8,1.9,1.9v7.6
		C380.7,462.5,379.8,463.4,378.8,463.4z"/>
	<g>
		<circle class="st1" cx="375" cy="453.8" r="0.8"/>
		<path class="st1" d="M377.1,457.6l-0.7-2.2c-0.1-0.4-0.5-0.7-1.1-0.7h-0.7c-0.6,0-1,0.3-1.1,0.7l-0.7,2.2
			c-0.1,0.5,0.4,0.6,0.6,0.2l0.7-2h0.1c0,0-0.9,3.6-1,3.7c0,0.1,0,0.1,0.1,0.1h0.8v2.4c0,0.5,0.7,0.5,0.7,0v-2.4h0.3v2.4
			c0,0.5,0.7,0.5,0.7,0v-2.4h0.8c0.1,0,0.1,0,0.1-0.1s-1-3.7-1-3.7h0.1l0.7,2C376.7,458.3,377.2,458.1,377.1,457.6z"/>
	</g>
</g>
<g>
	<path class="st0" d="M669.3,710h-7.6c-1,0-1.9-0.8-1.9-1.9v-7.6c0-1,0.8-1.9,1.9-1.9h7.6c1,0,1.9,0.8,1.9,1.9v7.6
		C671.1,709.2,670.3,710,669.3,710z"/>
	<g>
		<circle class="st1" cx="665.5" cy="700.5" r="0.8"/>
		<path class="st1" d="M667.6,704.3l-0.7-2.2c-0.1-0.4-0.5-0.7-1.1-0.7h-0.7c-0.6,0-1,0.3-1.1,0.7l-0.7,2.2
			c-0.1,0.5,0.4,0.6,0.6,0.2l0.7-2h0.1c0,0-0.9,3.6-1,3.7c0,0.1,0,0.1,0.1,0.1h0.8v2.4c0,0.5,0.7,0.5,0.7,0v-2.4h0.3v2.4
			c0,0.5,0.7,0.5,0.7,0v-2.4h0.8c0.1,0,0.1,0,0.1-0.1s-1-3.7-1-3.7h0.1l0.7,2C667.2,704.9,667.7,704.8,667.6,704.3z"/>
	</g>
</g>
<g>
	<path class="st0" d="M378,419.4h-7.6c-1,0-1.9-0.8-1.9-1.9V410c0-1,0.8-1.9,1.9-1.9h7.6c1,0,1.9,0.8,1.9,1.9v7.6
		C379.9,418.6,379,419.4,378,419.4z"/>
	<g>
		<circle class="st1" cx="374.2" cy="409.8" r="0.8"/>
		<path class="st1" d="M376.3,413.7l-0.7-2.2c-0.1-0.4-0.5-0.7-1.1-0.7h-0.7c-0.6,0-1,0.3-1.1,0.7l-0.7,2.2
			c-0.1,0.5,0.4,0.6,0.6,0.2l0.7-2h0.1c0,0-0.9,3.6-1,3.7c0,0.1,0,0.1,0.1,0.1h0.8v2.4c0,0.5,0.7,0.5,0.7,0v-2.4h0.3v2.4
			c0,0.5,0.7,0.5,0.7,0v-2.4h0.8c0.1,0,0.1,0,0.1-0.1s-1-3.7-1-3.7h0.1l0.7,2C375.9,414.3,376.5,414.1,376.3,413.7z"/>
	</g>
</g>
<g>
	<path class="st0" d="M394.2,453.4h-7.6c-1,0-1.9-0.8-1.9-1.9v-7.6c0-1,0.8-1.9,1.9-1.9h7.6c1,0,1.9,0.8,1.9,1.9v7.6
		C396.1,452.6,395.3,453.4,394.2,453.4z"/>
	<g>
		<circle class="st1" cx="390.4" cy="443.8" r="0.8"/>
		<path class="st1" d="M391.3,444.7h-0.8h-0.8c-0.8,0-1,0.2-1,1v2.4c0,0.5,0.6,0.5,0.6,0l0.1-2.2h0.2v6.1c0,0.6,0.9,0.6,0.9,0
			l0.1-3.5h0.2l0.1,3.5c0,0.6,0.9,0.6,0.9,0v-6h0.2l0.1,2.2c0,0.5,0.6,0.5,0.6,0v-2.4C392.3,444.9,392,444.7,391.3,444.7z"/>
	</g>
</g>
<g>
	<path class="st0" d="M656.2,689.4h-7.6c-1,0-1.9-0.8-1.9-1.9v-7.6c0-1,0.8-1.9,1.9-1.9h7.6c1,0,1.9,0.8,1.9,1.9v7.6
		C658.1,688.5,657.3,689.4,656.2,689.4z"/>
	<g>
		<circle class="st1" cx="652.4" cy="679.7" r="0.8"/>
		<path class="st1" d="M653.3,680.7h-0.8h-0.8c-0.8,0-1,0.2-1,1v2.4c0,0.5,0.6,0.5,0.6,0l0.1-2.2h0.2v6.1c0,0.6,0.9,0.6,0.9,0
			l0.1-3.5h0.2l0.1,3.5c0,0.6,0.9,0.6,0.9,0v-6.1h0.2l0.1,2.2c0,0.5,0.6,0.5,0.6,0v-2.4C654.3,680.9,654,680.7,653.3,680.7z"/>
	</g>
</g>
<g>
	<path class="st0" d="M356,433h-7.6c-1,0-1.9-0.8-1.9-1.9v-7.6c0-1,0.8-1.9,1.9-1.9h7.6c1,0,1.9,0.8,1.9,1.9v7.6
		C357.8,432.2,357,433,356,433z"/>
	<g>
		<circle class="st1" cx="352.2" cy="423.4" r="0.8"/>
		<path class="st1" d="M353,424.3h-0.8h-0.8c-0.8,0-1,0.2-1,1v2.4c0,0.5,0.6,0.5,0.6,0l0.1-2.2h0.2v6.1c0,0.6,0.9,0.6,0.9,0l0.1-3.5
			h0.2l0.1,3.5c0,0.6,0.9,0.6,0.9,0v-6.1h0.2l0.1,2.2c0,0.5,0.6,0.5,0.6,0v-2.4C354,424.5,353.8,424.3,353,424.3z"/>
	</g>
</g>
<g>
	<path class="st0" d="M259.9,120.7h-7.6c-1,0-1.9-0.8-1.9-1.9v-7.6c0-1,0.8-1.9,1.9-1.9h7.6c1,0,1.9,0.8,1.9,1.9v7.6
		C261.8,119.8,260.9,120.7,259.9,120.7z"/>
	<polygon class="st1" points="256.1,111.3 256.1,113.8 254,113.8 254,116.3 251.9,116.3 251.9,118.7 256.1,118.7 256.1,116.3
		258.2,116.3 258.2,113.8 260.3,113.8 260.3,111.3 	"/>
</g>
<g class="st2">
	<path class="st3" d="M329.3,267.4c-5.8,0.1-10.8,2.1-15,5.9c-4.3-3.8-9.3-5.8-15-5.9c0,6.2,0,12.2,0,18.4c5.7,0.1,10.7,2.1,15,5.9
		c4.3-3.9,9.3-5.8,15-6C329.3,279.6,329.3,273.6,329.3,267.4z M314.3,257.3c-2.8,0-5.1,2.2-5.1,5c0,2.7,2.2,5,4.9,5
		c2.8,0.1,5.1-2.2,5.1-4.9C319.4,259.7,317.1,257.4,314.3,257.3z"/>
	<path class="st3" d="M329.3,267.4c0,6.2,0,12.2,0,18.4c-5.7,0.2-10.7,2.1-15,6c-4.3-3.8-9.3-5.8-15-5.9c0-6.1,0-12.1,0-18.4
		c5.7,0,10.6,2.1,15,5.9C318.5,269.5,323.5,267.4,329.3,267.4z"/>
	<path class="st3" d="M314.3,257.3c2.8,0,5,2.3,5,5.1c0,2.8-2.4,5-5.1,4.9s-4.9-2.3-4.9-5C309.3,259.5,311.6,257.3,314.3,257.3z"/>
</g>
<g class="st2">
	<path class="st4" d="M179.1,313.7c0.1-0.1,0.2-0.2,0.2-0.2c2.5,0,4.9,0,7.4,0c1.6,0,2.6-0.8,2.6-2.4c0-4.5,0-9,0-13.5
		c0-1.4-0.9-2.3-2.3-2.3c-6.8,0-13.5,0-20.3,0c-1.4,0-2.3,0.9-2.3,2.3c0,4.5,0,9,0,13.5c0,1.5,0.9,2.3,2.4,2.4c0.7,0,1.4,0,2.1,0
		c1.9,0,3.7,0,5.6,0c0,0.9,0,1.5,0,2.2c-0.8,0-1.4,0.1-2.1,0.1c0,0.8,0,1.5,0,2.1c3,0,5.9,0,8.9,0c0-0.8,0-1.4,0-2.3
		c-0.8,0-1.4,0-2.2,0C179.1,315,179.1,314.3,179.1,313.7z"/>
	<path class="st4" d="M179.1,313.7c0,0.6,0,1.2,0,2c0.7,0,1.4,0,2.2,0c0,0.8,0,1.5,0,2.3c-2.9,0-5.9,0-8.9,0c0-0.7,0-1.3,0-2.1
		c0.6,0,1.3-0.1,2.1-0.1c0-0.7,0-1.3,0-2.2c-1.8,0-3.7,0-5.6,0c-0.7,0-1.4,0-2.1,0c-1.5-0.1-2.4-0.9-2.4-2.4c0-4.5,0-9,0-13.5
		c0-1.4,0.9-2.3,2.3-2.3c6.8,0,13.5,0,20.3,0c1.4,0,2.3,0.9,2.3,2.3c0,4.5,0,9,0,13.5c0,1.5-0.9,2.3-2.6,2.4c-2.5,0-4.9,0-7.4,0
		C179.3,313.5,179.2,313.6,179.1,313.7z M186.9,297.7c-6.9,0-13.6,0-20.3,0c0,4.5,0,9,0,13.5c6.8,0,13.5,0,20.3,0
		C186.9,306.6,186.9,302.2,186.9,297.7z"/>
	<path class="st5" d="M186.9,297.7c0,4.5,0,8.9,0,13.5c-6.7,0-13.5,0-20.3,0c0-4.5,0-8.9,0-13.5
		C173.4,297.7,180.1,297.7,186.9,297.7z"/>
</g>
<g>
	<g>
		<g>
			<path class="st6" d="M170.9,348.6h-7.6c-1,0-1.9-0.8-1.9-1.9v-7.6c0-1,0.8-1.9,1.9-1.9h7.6c1,0,1.9,0.8,1.9,1.9v7.6
				C172.7,347.7,171.9,348.6,170.9,348.6z"/>
			<g>
				<path class="st1" d="M165.6,347.5h-2.1c-0.5,0-0.9-0.4-0.9-0.9v-7.3c0-0.5,0.4-0.9,0.9-0.9h2.1c0.5,0,0.9,0.4,0.9,0.9v7.3
					C166.5,347.1,166.1,347.5,165.6,347.5z"/>
				<path class="st1" d="M170.6,347.5h-2.1c-0.5,0-0.9-0.4-0.9-0.9v-7.3c0-0.5,0.4-0.9,0.9-0.9h2.1c0.5,0,0.9,0.4,0.9,0.9v7.3
					C171.5,347.1,171.1,347.5,170.6,347.5z"/>
			</g>
		</g>
		<path class="st6" d="M166,342.2l-1.4-1.4c-0.1-0.1-0.2-0.1-0.2,0l-1.4,1.4c-0.1,0.1,0,0.3,0.1,0.3h0.8v2.2c0,0.2,0.2,0.4,0.4,0.4
			h0.5c0.2,0,0.4-0.2,0.4-0.4v-2.2h0.8C166.1,342.5,166.1,342.3,166,342.2z"/>
		<path class="st6" d="M168,343.6l1.4,1.4c0.1,0.1,0.2,0.1,0.2,0l1.4-1.4c0.1-0.1,0-0.3-0.1-0.3h-0.8v-2.2c0-0.2-0.2-0.4-0.4-0.4
			h-0.5c-0.2,0-0.4,0.2-0.4,0.4v2.2H168C168,343.3,167.9,343.5,168,343.6z"/>
	</g>
	<g>
		<path class="st6" d="M146.7,344.4h-7.6c-1,0-1.9-0.8-1.9-1.9V335c0-1,0.8-1.9,1.9-1.9h7.6c1,0,1.9,0.8,1.9,1.9v7.6
			C148.6,343.6,147.8,344.4,146.7,344.4z"/>
		<g>
			<circle class="st1" cx="142.9" cy="334.9" r="0.8"/>
			<path class="st1" d="M145,338.7l-0.7-2.2c-0.1-0.4-0.5-0.7-1.1-0.7h-0.7c-0.6,0-1,0.3-1.1,0.7l-0.7,2.2c-0.1,0.5,0.4,0.6,0.6,0.2
				l0.7-2h0.1c0,0-0.9,3.6-1,3.7c0,0.1,0,0.1,0.1,0.1h0.8v2.4c0,0.5,0.7,0.5,0.7,0v-2.4h0.3v2.4c0,0.5,0.7,0.5,0.7,0v-2.4h0.8
				c0.1,0,0.1,0,0.1-0.1s-1-3.7-1-3.7h0.1l0.7,2C144.6,339.3,145.2,339.2,145,338.7z"/>
		</g>
	</g>
	<g>
		<path class="st6" d="M157.7,361.8h-7.6c-1,0-1.9-0.8-1.9-1.9v-7.6c0-1,0.8-1.9,1.9-1.9h7.6c1,0,1.9,0.8,1.9,1.9v7.6
			C159.6,361,158.8,361.8,157.7,361.8z"/>
		<g>
			<circle class="st1" cx="153.9" cy="352.2" r="0.8"/>
			<path class="st1" d="M154.8,353.1H154h-0.8c-0.8,0-1,0.2-1,1v2.4c0,0.5,0.6,0.5,0.6,0l0.1-2.2h0.2v6.1c0,0.6,0.9,0.6,0.9,0
				l0.1-3.5h0.2l0.1,3.5c0,0.6,0.9,0.6,0.9,0v-6.1h0.2l0.1,2.2c0,0.5,0.6,0.5,0.6,0v-2.4C155.8,353.3,155.6,353.1,154.8,353.1z"/>
		</g>
	</g>
	<g>
		<path class="st6" d="M167.5,333.2h-7.6c-1,0-1.9-0.8-1.9-1.9v-7.6c0-1,0.8-1.9,1.9-1.9h7.6c1,0,1.9,0.8,1.9,1.9v7.6
			C169.4,332.3,168.5,333.2,167.5,333.2z"/>
		<g>
			<polygon class="st1" points="164.1,323.6 164.1,331.4 163.4,331.4 163.4,323.6 			"/>
			<path class="st1" d="M163.7,327.5"/>
			<path class="st1" d="M161.1,324.8c0.4,0,0.6-0.3,0.6-0.6c0-0.4-0.3-0.6-0.6-0.6c-0.4,0-0.6,0.3-0.6,0.6
				C160.5,324.6,160.7,324.8,161.1,324.8L161.1,324.8z"/>
			<path class="st1" d="M161,328.9v2.2c0,0.4-0.6,0.4-0.6,0v-2.2h-0.8l0.9-3h-0.1l-0.5,1.7c-0.1,0.4-0.6,0.2-0.5-0.2l0.6-1.8
				c0.1-0.2,0.3-0.6,0.8-0.6h0.4l0,0h0.5c0.5,0,0.7,0.4,0.8,0.6l0.6,1.8c0.1,0.4-0.4,0.6-0.5,0.2l-0.5-1.7H162l0.9,3h-0.8v2.2
				c0,0.4-0.6,0.4-0.6,0v-2.2H161L161,328.9z"/>
			<path class="st1" d="M165.6,325c-0.4,0-0.8,0.4-0.8,0.8v2c0,0.4,0.6,0.4,0.6,0V326h0.1v5c0,0.5,0.7,0.5,0.7,0v-2.9h0.1v2.9
				c0,0.5,0.7,0.5,0.7,0v-5h0.1v1.8c0,0.4,0.5,0.4,0.5,0v-2c0-0.4-0.3-0.8-0.8-0.8H165.6L165.6,325z"/>
			<path class="st1" d="M166.3,324.8c0.4,0,0.6-0.3,0.6-0.6c0-0.4-0.3-0.6-0.6-0.6c-0.4,0-0.6,0.3-0.6,0.6
				C165.7,324.6,166,324.8,166.3,324.8L166.3,324.8z"/>
		</g>
	</g>
</g>
</svg>
