<?xml version="1.0" encoding="utf-8"?>
<!-- Generator: Adobe Illustrator 21.0.0, SVG Export Plug-In . SVG Version: 6.00 Build 0)  -->
<svg version="1.1" xmlns="http://www.w3.org/2000/svg" xmlns:xlink="http://www.w3.org/1999/xlink" x="0px" y="0px"
	 viewBox="0 0 603 520.5" style="enable-background:new 0 0 603 520.5;" xml:space="preserve">
<style type="text/css">
	.st0{display:none;}
	.st1{display:inline;}
	.st2{fill:#FFFFFF;stroke:#383838;stroke-width:0.5;stroke-miterlimit:10;}
	.st3{fill:#EBEFF1;stroke:#383838;stroke-width:0.5;stroke-miterlimit:10;}
	.st4{fill:#BED8DF;stroke:#383838;stroke-width:0.5;stroke-miterlimit:10;}
	.st5{fill:none;stroke:#383838;stroke-width:0.5;stroke-miterlimit:10;}
	.st6{fill:#C5E3E1;stroke:#383838;stroke-width:0.5;stroke-miterlimit:10;}
	.st7{fill:none;stroke:#383838;stroke-width:0.5;stroke-miterlimit:10;stroke-dasharray:2;}
	.st8{fill:#BED8DF;stroke:#414042;stroke-width:0.5;stroke-miterlimit:10;}
	.st9{fill:#FFFFFF;stroke:#414042;stroke-width:0.5;stroke-miterlimit:10;}
	.st10{display:inline;fill:#BED8DF;stroke:#383838;stroke-width:0.5;stroke-miterlimit:10;}
	.st11{fill:#383838;}
	.st12{font-family:'Roboto-BoldCondensed';}
	.st13{font-size:3px;}
	.st14{fill:#1D1C1A;}
	.st15{fill:#FFFFFF;}
	.st16{fill:#58595B;}
	.st17{fill:#D74641;}
	.st18{fill:#EBF0F2;}
	.st19{fill:#61A2A1;}
	.st20{fill:#3F89BC;}
	.st21{fill:none;}
	.st22{opacity:0.5;}
	.st23{fill:#F6F6F6;}
</style>
<g id="locaux" class="st0">
	<g id="Calque_5" class="st1">
		<path class="st2" d="M476.9,301.2l-13.6-21.7l-30.6,19.1l-65.3,40.8L269,181.9l-37.9,23.7L142,62.9l-38.1,23.8L93.5,70.1
			L76.3,80.8l10.1,16.1L62.2,112l76.1,122l13.3,21.2l21.3-13.3l69.9,111.9L221.6,367c0,0,32.5,52.9,40.6,64.9
			c33.2,49.3,90.9,47.9,122.8,28.4c6-3.7,143.7-89.8,143.7-89.8l-38.6-61.7l-6.1,3.8L476.9,301.2z"/>
		<polygon class="st3" points="480.4,314.9 466,323.9 479.4,345.4 491.4,337.8 503.5,330.3 490.1,308.8 		"/>
		<polygon class="st3" points="479.4,345.4 488.2,359.5 481.7,363.6 498,389.7 528.7,370.6 503.5,330.3 		"/>

			<rect x="464.5" y="368.5" transform="matrix(0.848 -0.5299 0.5299 0.848 -130.7839 311.7521)" class="st3" width="27.5" height="30.8"/>
		<polygon class="st3" points="458.4,378.1 441.8,388.5 429.4,385.6 416.3,393.8 437.4,427.6 474.7,404.3 		"/>

			<rect x="441.1" y="335.4" transform="matrix(0.5299 0.848 -0.848 0.5299 510.0958 -223.85)" class="st3" width="31.6" height="25.7"/>
		<polygon class="st3" points="452.9,381.6 430.6,346 398.8,365.9 416.3,393.8 429.4,385.6 441.8,388.5 		"/>

			<rect x="410" y="404.6" transform="matrix(0.848 -0.5299 0.5299 0.848 -158.7102 286.6071)" class="st3" width="20.8" height="30.8"/>
		<path class="st3" d="M403.4,412.5l-34.8,21.7l12.1,28.5c0,0,4.4-2.4,6.8-4l32.2-20.1L403.4,412.5z"/>
		<path class="st3" d="M368.6,434.2l-8.8,5.5l-18,4.5l-11.7-2.3l-3.9,30.4c0,0,28.1,4.4,54.6-9.5L368.6,434.2z"/>
		<path class="st3" d="M320.8,439.6l-14.4-3.5l-14-12.2l-4.4-7l-22.5,19.8c0,0,16.5,24,45.6,32.3L320.8,439.6z"/>
		<path class="st3" d="M288,416.9l-17.4-27.8l-25.6,16l13.7,22c0,0,3.4,5.5,6.7,9.7L288,416.9z"/>

			<rect x="231.2" y="355.7" transform="matrix(0.848 -0.5299 0.5299 0.848 -162.9492 187.8858)" class="st3" width="29.9" height="44.7"/>

			<rect x="446.4" y="306.2" transform="matrix(0.5299 0.848 -0.848 0.5299 477.849 -233.69)" class="st3" width="6.7" height="15.9"/>

			<rect x="414.5" y="304.5" transform="matrix(0.5299 0.848 -0.848 0.5299 469.7263 -213.3598)" class="st3" width="25.6" height="25.1"/>

			<rect x="398.8" y="320.9" transform="matrix(0.5299 0.848 -0.848 0.5299 470.6672 -195.4061)" class="st3" width="25.6" height="12"/>

			<rect x="387.1" y="323" transform="matrix(0.5299 0.848 -0.848 0.5299 468.5086 -180.2433)" class="st4" width="19.5" height="19"/>

			<rect x="370.9" y="333" transform="matrix(0.5299 0.848 -0.848 0.5299 469.4749 -161.8054)" class="st4" width="19.5" height="19.1"/>
		<polygon class="st3" points="390.1,373.3 362.1,390.7 359.3,399.5 372.2,420 406.9,398.4 390.9,372.8 		"/>
		<polygon class="st3" points="382,378.3 356.9,372.5 353.1,388.8 362.1,390.7 		"/>
		<polygon class="st3" points="372.2,420 358.2,428.8 342.2,432.1 335.6,421.6 336.2,417.9 361.1,402.4 		"/>
		<polygon class="st3" points="357.9,404.4 361.1,402.4 359.3,399.5 362.1,390.7 353.1,388.8 343.6,386.6 340.3,400.8 		"/>
		<polygon class="st3" points="340.3,400.8 336.4,417.9 357.9,404.4 		"/>
		<polygon class="st3" points="342.2,432.1 333.2,430.4 335.6,421.6 		"/>
		<polygon class="st3" points="322,426.9 327.9,404.4 307.3,399.9 300.1,407.9 296.6,410.1 300.4,416.2 310.1,424.6 		"/>
		<polygon class="st3" points="307.3,399.9 304.4,399.3 300.8,393.7 290.4,400.2 296.6,410.1 300.1,407.9 		"/>
		<polygon class="st3" points="327.9,404.4 332.5,384.2 324.3,382.1 323.5,384.9 311.2,382.6 310,389.5 308.7,395.2 300.8,393.7
			304.4,399.3 		"/>
		<polygon class="st3" points="324.3,382.1 328.1,366.2 315.2,363.2 311.2,382.6 323.5,384.9 		"/>

			<rect x="281.3" y="368.5" transform="matrix(0.848 -0.5299 0.5299 0.848 -159.7499 210.6616)" class="st3" width="12.3" height="30.8"/>
		<polygon class="st3" points="300.8,393.7 303.8,376.1 288,373.2 		"/>
		<polygon class="st3" points="301.5,375.7 303,368.9 297.2,359.7 284.5,367.6 288,373.2 		"/>
		<polygon class="st3" points="310.8,385.4 302.5,383.8 300.8,393.7 308.7,395.2 		"/>

			<rect x="252.2" y="346.1" transform="matrix(0.848 -0.5299 0.5299 0.848 -150.3126 191.2894)" class="st3" width="12.4" height="23.2"/>

			<rect x="262.7" y="339.6" transform="matrix(0.848 -0.5299 0.5299 0.848 -145.2257 195.8696)" class="st3" width="12.4" height="23.2"/>

			<rect x="273.2" y="332.7" transform="matrix(0.848 -0.5299 0.5299 0.848 -139.9598 200.6111)" class="st3" width="13.3" height="23.2"/>

			<rect x="323.5" y="315.4" transform="matrix(0.848 -0.5299 0.5299 0.848 -124.8517 231.9425)" class="st3" width="37.1" height="36.6"/>
		<polygon class="st3" points="336,359 310.4,353.1 307.5,348.4 323.2,338.6 		"/>

			<rect x="302.8" y="332" transform="matrix(0.848 -0.5299 0.5299 0.848 -131.8076 216.7502)" class="st3" width="18.6" height="12.5"/>
		<polygon class="st3" points="300.9,337.8 297.4,332.2 313.1,322.4 296.7,296.2 328.2,276.6 348,308.4 		"/>

			<rect x="291.2" y="310.5" transform="matrix(0.848 -0.5299 0.5299 0.848 -123.7231 207.7714)" class="st3" width="18.6" height="18.2"/>

			<rect x="279.6" y="288.4" transform="matrix(0.848 -0.5299 0.5299 0.848 -115.6847 198.8439)" class="st3" width="18.6" height="25.4"/>

			<rect x="268" y="273.5" transform="matrix(0.848 -0.5299 0.5299 0.848 -107.6309 189.8993)" class="st3" width="18.6" height="18.3"/>

			<rect x="254.9" y="252.4" transform="matrix(0.848 -0.5299 0.5299 0.848 -98.4705 179.7256)" class="st3" width="18.6" height="18.3"/>

			<rect x="246.7" y="242.3" transform="matrix(0.848 -0.5299 0.5299 0.848 -92.7991 173.4268)" class="st3" width="18.6" height="12.5"/>
		<polygon class="st3" points="264.6,279.8 261.1,274.2 308.3,244.7 328.2,276.6 296.7,296.2 280.3,270 		"/>
		<polygon class="st3" points="244.8,248.1 241.3,242.6 288.5,213.1 308.3,244.7 276.9,264.4 260.6,238.3 		"/>
		<polygon class="st3" points="241.3,242.6 238.2,237.6 254,227.8 237.6,201.5 269,181.9 288.5,213.1 		"/>

			<rect x="233.6" y="221.5" transform="matrix(0.848 -0.5299 0.5299 0.848 -83.6848 163.3044)" class="st3" width="18.6" height="12.1"/>
		<polygon class="st3" points="231.8,227.4 228.2,221.6 231.3,219.6 224.9,209.4 237.6,201.5 247.6,217.5 		"/>

			<rect x="229.5" y="307.4" transform="matrix(0.848 -0.5299 0.5299 0.848 -135.4034 181.6248)" class="st3" width="39" height="39"/>

			<rect x="209.3" y="276.2" transform="matrix(0.848 -0.5299 0.5299 0.848 -121.3811 166.0514)" class="st3" width="39" height="37"/>

			<rect x="189.6" y="244.4" transform="matrix(0.848 -0.5299 0.5299 0.848 -107.6558 150.808)" class="st3" width="39" height="37.4"/>

			<rect x="211.7" y="202.1" transform="matrix(0.848 -0.5299 0.5299 0.848 -75.9236 148.4503)" class="st3" width="18.5" height="9"/>

			<rect x="206.5" y="193.2" transform="matrix(0.848 -0.5299 0.5299 0.848 -72.3373 144.4674)" class="st2" width="18.5" height="10.4"/>

			<rect x="181.5" y="148.9" transform="matrix(0.848 -0.5299 0.5299 0.848 -62.8448 130.0801)" class="st3" width="27.8" height="51.4"/>

			<rect x="162.9" y="170.3" transform="matrix(0.848 -0.5299 0.5299 0.848 -75.1029 122.041)" class="st3" width="24.8" height="43.3"/>

			<rect x="135.4" y="126" transform="matrix(0.848 -0.5299 0.5299 0.848 -54.9145 102.5717)" class="st3" width="31.9" height="42"/>

			<rect x="161.2" y="104.5" transform="matrix(0.848 -0.5299 0.5299 0.848 -42.6256 110.5767)" class="st3" width="20.6" height="50.3"/>
		<rect x="124" y="68.1" transform="matrix(0.848 -0.5299 0.5299 0.848 -27.2052 88.37)" class="st3" width="33" height="47.1"/>
		<polygon class="st3" points="139,120.3 122.4,130.7 100.1,95.1 106.6,91 103.9,86.7 114,80.4 		"/>

			<rect x="479.5" y="373.7" transform="matrix(0.5299 0.848 -0.848 0.5299 549.9706 -232.3723)" class="st3" width="10.1" height="12.4"/>

			<rect x="65.4" y="106.3" transform="matrix(0.5299 0.848 -0.848 0.5299 141.8159 -14.8661)" class="st3" width="37.8" height="28.4"/>

			<rect x="85.6" y="138.1" transform="matrix(0.5299 0.848 -0.848 0.5299 178.1492 -16.7703)" class="st3" width="37.3" height="28.4"/>
		<polygon class="st3" points="126.1,160.6 138.3,180 128.1,186.4 135.8,198.7 121.8,207.4 102,175.6 		"/>

			<rect x="124.6" y="198.4" transform="matrix(0.848 -0.5299 0.5299 0.848 -88.9626 105.1108)" class="st3" width="28.4" height="18.5"/>

			<rect x="134.3" y="214.2" transform="matrix(0.8481 -0.5298 0.5298 0.8481 -95.7387 112.6121)" class="st4" width="28.5" height="18.2"/>

			<rect x="131" y="182.1" transform="matrix(0.848 -0.5299 0.5299 0.848 -79.5137 101.3787)" class="st3" width="12" height="14.5"/>
		<line class="st5" x1="454.7" y1="307.1" x2="464.5" y2="301"/>
		<line class="st5" x1="413.3" y1="340.9" x2="402" y2="347.9"/>
		<polyline class="st5" points="377.8,355.9 381,361.1 391.7,354.4 		"/>
		<polyline class="st5" points="381,361.1 371.9,366.7 353.5,362.4 352,360 		"/>
		<polyline class="st5" points="215.4,215.3 186.8,233.3 183.8,228.5 		"/>
		<line class="st5" x1="100.1" y1="95.1" x2="96" y2="97.7"/>
		<path class="st6" d="M174,225.1"/>
		<path class="st6" d="M166.2,230"/>
		<line class="st7" x1="220.8" y1="189.1" x2="210.7" y2="207.7"/>
		<line class="st7" x1="226.3" y1="197.9" x2="205.1" y2="198.8"/>
		<path class="st5" d="M160.4,215.3"/>
		<path class="st5" d="M155.8,208"/>
		<polygon class="st3" points="162.4,225.4 167.5,233.3 157.8,239.1 152.9,231.2 		"/>
	</g>
	<g class="st1">
		<polygon class="st8" points="131.6,223.1 141.1,238.4 165.3,223.3 155.8,208.1 		"/>

			<rect x="156" y="216.2" transform="matrix(0.848 -0.5299 0.5299 0.848 -92.8936 118.1999)" class="st8" width="7.3" height="9.8"/>

			<rect x="152.3" y="209.1" transform="matrix(0.848 -0.5299 0.5299 0.848 -88.4341 114.1426)" class="st9" width="5.1" height="4.4"/>

			<rect x="152.3" y="219.4" transform="matrix(0.848 -0.5299 0.5299 0.848 -95.3357 115.9674)" class="st9" width="4.5" height="9.7"/>
	</g>
	<polygon class="st10" points="172.9,241.9 167.4,233.1 158.1,239 153,231.1 141.2,238.5 151.6,255.2 	"/>
</g>
<g id="numéros_1_" class="st0">
	<g class="st1">
		<text transform="matrix(1 0 0 1 82.2692 121.4776)" class="st11 st12 st13">4410</text>
	</g>
	<g class="st1">
		<text transform="matrix(1 0 0 1 101.1026 154.3109)" class="st11 st12 st13">4409</text>
	</g>
	<g class="st1">
		<text transform="matrix(1 0 0 1 149.0339 149.6442)" class="st11 st12 st13">4419</text>
	</g>
	<g class="st1">
		<text transform="matrix(1 0 0 1 116.822 108.4776)" class="st11 st12 st13">4412</text>
	</g>
	<g class="st1">
		<text transform="matrix(1 0 0 1 139.822 93.4776)" class="st11 st12 st13">4413</text>
	</g>
	<g class="st1">
		<text transform="matrix(1 0 0 1 169.9819 133.4776)" class="st11 st12 st13">4415</text>
	</g>
	<g class="st1">
		<text transform="matrix(1 0 0 1 192.8152 175.6423)" class="st11 st12 st13">4417</text>
	</g>
	<g class="st1">
		<text transform="matrix(1 0 0 1 265.3152 206.6134)" class="st11 st12 st13">4057</text>
	</g>
	<g class="st1">
		<text transform="matrix(1 0 0 1 232.9819 215.3386)" class="st11 st12 st13">4059</text>
	</g>
	<g class="st1">
		<text transform="matrix(1 0 0 1 239.8153 229.6894)" class="st11 st12 st13">4058</text>
	</g>
	<g class="st1">
		<text transform="matrix(1 0 0 1 282.6486 236.921)" class="st11 st12 st13">4056</text>
	</g>
	<g class="st1">
		<text transform="matrix(1 0 0 1 252.8152 249.613)" class="st11 st12 st13">4055</text>
	</g>
	<g class="st1">
		<text transform="matrix(1 0 0 1 261.1233 261.5664)" class="st11 st12 st13">4054</text>
	</g>
	<g class="st1">
		<text transform="matrix(1 0 0 1 304.1233 269.9728)" class="st11 st12 st13">4052</text>
	</g>
	<g class="st1">
		<text transform="matrix(1 0 0 1 319.3795 302.3062)" class="st11 st12 st13">4046</text>
	</g>
	<g class="st1">
		<text transform="matrix(1 0 0 1 285.5397 303.1395)" class="st11 st12 st13">4053</text>
	</g>
	<g class="st1">
		<text transform="matrix(1 0 0 1 295.442 321.2303)" class="st11 st12 st13">4047</text>
	</g>
	<g class="st1">
		<text transform="matrix(1 0 0 1 246.1429 327.5035)" class="st11 st12 st13">4003</text>
	</g>
	<g class="st1">
		<text transform="matrix(1 0 0 1 307.491 340.8817)" class="st11 st12 st13">4045</text>
	</g>
	<g class="st1">
		<text transform="matrix(1 0 0 1 338.491 333.676)" class="st11 st12 st13">4044</text>
	</g>
	<g class="st1">
		<text transform="matrix(1 0 0 1 276.4403 346.3503)" class="st11 st12 st13">4012</text>
	</g>
	<g class="st1">
		<text transform="matrix(1 0 0 1 265.5764 353.8026)" class="st11 st12 st13">4013</text>
	</g>
	<g class="st1">
		<text transform="matrix(1 0 0 1 255.9097 360.0439)" class="st11 st12 st13">4014</text>
	</g>
	<g class="st1">
		<text transform="matrix(1 0 0 1 244.243 381.6169)" class="st11 st12 st13">4015</text>
	</g>
	<g class="st1">
		<text transform="matrix(1 0 0 1 263.9097 412.5009)" class="st11 st12 st13">4017</text>
	</g>
	<g class="st1">
		<text transform="matrix(1 0 0 1 292.5375 446.0008)" class="st11 st12 st13">4018</text>
	</g>
	<g class="st1">
		<text transform="matrix(1 0 0 1 355.1759 457.1675)" class="st11 st12 st13">4021</text>
	</g>
	<g class="st1">
		<text transform="matrix(1 0 0 1 389.5092 439.5009)" class="st11 st12 st13">4022</text>
	</g>
	<g class="st1">
		<text transform="matrix(1 0 0 1 419.7351 419.1675)" class="st11 st12 st13">4023</text>
	</g>
	<g class="st1">
		<text transform="matrix(1 0 0 1 443.9018 402.3737)" class="st11 st12 st13">4031</text>
	</g>
	<g class="st1">
		<text transform="matrix(1 0 0 1 469.0685 389.5287)" class="st11 st12 st13">4032</text>
	</g>
	<g class="st1">
		<text transform="matrix(1 0 0 1 480.4018 381.6172)" class="st11 st12 st13">4040</text>
	</g>
	<g class="st1">
		<text transform="matrix(1 0 0 1 499.9018 363.2383)" class="st11 st12 st13">4033</text>
	</g>
	<g class="st1">
		<text transform="matrix(1 0 0 1 481.4018 332.4844)" class="st11 st12 st13">4034</text>
	</g>
	<g class="st1">
		<text transform="matrix(1 0 0 1 454.9018 351.9844)" class="st11 st12 st13">4035</text>
	</g>
	<g class="st1">
		<text transform="matrix(1 0 0 1 408.4673 327.9936)" class="st11 st12 st13">4039</text>
	</g>
	<g class="st1">
		<text transform="matrix(1 0 0 1 423.4641 319.1778)" class="st11 st12 st13">4038</text>
	</g>
	<g class="st1">
		<text transform="matrix(1 0 0 1 446.9641 315.3445)" class="st11 st12 st13">4037</text>
	</g>
	<g class="st1">
		<text transform="matrix(1 0 0 1 422.7351 373.1645)" class="st11 st12 st13">4041</text>
	</g>
	<g class="st1">
		<text transform="matrix(1 0 0 1 378.7351 399.9306)" class="st11 st12 st13">4025</text>
	</g>
	<g class="st1">
		<text transform="matrix(1 0 0 1 346.4018 397.4306)" class="st11 st12 st13">4029</text>
	</g>
	<g class="st1">
		<text transform="matrix(1 0 0 1 341.3476 409.3904)" class="st11 st12 st13">4028</text>
	</g>
	<g class="st1">
		<text transform="matrix(1 0 0 1 309.1809 414.8904)" class="st11 st12 st13">4006</text>
	</g>
	<g class="st1">
		<text transform="matrix(1 0 0 1 295.442 402.8694)" class="st11 st12 st13">4008</text>
	</g>
	<g class="st1">
		<text transform="matrix(1 0 0 1 282.6486 384.8721)" class="st11 st12 st13">4009</text>
	</g>
	<g class="st1">
		<text transform="matrix(1 0 0 1 291.616 370.8828)" class="st11 st12 st13">4011</text>
	</g>
	<g class="st1">
		<text transform="matrix(1 0 0 1 316.5992 375.0494)" class="st11 st12 st13">4004</text>
	</g>
	<g class="st1">
		<text transform="matrix(1 0 0 1 315.5992 393.6585)" class="st11 st12 st13">4005</text>
	</g>
	<g class="st1">
		<text transform="matrix(1 0 0 1 349.8476 420.9306)" class="st11 st12 st13">4026</text>
	</g>
	<g class="st1">
		<text transform="matrix(1 0 0 1 272.9566 283.9728)" class="st11 st12 st13">4051</text>
	</g>
	<g class="st1">
		<text transform="matrix(1 0 0 1 226.3364 296.1919)" class="st11 st12 st13">4002</text>
	</g>
	<g class="st1">
		<text transform="matrix(1 0 0 1 207.2899 264.3901)" class="st11 st12 st13">4001</text>
	</g>
	<g class="st1">
		<text transform="matrix(1 0 0 1 171.5007 192.298)" class="st11 st12 st13">4418</text>
	</g>
	<g class="st1">
		<text transform="matrix(1 0 0 1 118.5007 181.8752)" class="st11 st12 st13">4408</text>
	</g>
	<g class="st1">
		<text transform="matrix(1 0 0 1 134.0007 191.2086)" class="st11 st12 st13">4407</text>
	</g>
	<g class="st1">
		<text transform="matrix(1 0 0 1 136.0181 208.5419)" class="st11 st12 st13">4406</text>
	</g>
</g>
<g id="icônes_1_" class="st0">
	<g class="st1">
		<path class="st14" d="M458.5,301.9h-7.6c-1,0-1.9-0.8-1.9-1.9v-7.6c0-1,0.8-1.9,1.9-1.9h7.6c1,0,1.9,0.8,1.9,1.9v7.6
			C460.4,301,459.5,301.9,458.5,301.9z"/>
		<polygon class="st15" points="454.7,292.5 454.7,295 452.6,295 452.6,297.4 450.5,297.4 450.5,299.9 454.7,299.9 454.7,297.4
			456.8,297.4 456.8,295 458.9,295 458.9,292.5 		"/>
	</g>
	<g class="st1">
		<path class="st14" d="M368.8,359.5h-7.6c-1,0-1.9-0.8-1.9-1.9V350c0-1,0.8-1.9,1.9-1.9h7.6c1,0,1.9,0.8,1.9,1.9v7.6
			C370.7,358.6,369.8,359.5,368.8,359.5z"/>
		<polygon class="st15" points="365,350.1 365,352.6 362.9,352.6 362.9,355 360.8,355 360.8,357.5 365,357.5 365,355 367.1,355
			367.1,352.6 369.2,352.6 369.2,350.1 		"/>
	</g>
	<g class="st1">
		<path class="st14" d="M324.5,461.9h-7.6c-1,0-1.9-0.8-1.9-1.9v-7.6c0-1,0.8-1.9,1.9-1.9h7.6c1,0,1.9,0.8,1.9,1.9v7.6
			C326.4,461.1,325.6,461.9,324.5,461.9z"/>
		<polygon class="st15" points="320.7,452.6 320.7,455 318.6,455 318.6,457.5 316.6,457.5 316.6,459.9 320.7,459.9 320.7,457.5
			322.8,457.5 322.8,455 324.9,455 324.9,452.6 		"/>
	</g>
	<g class="st1">
		<path class="st14" d="M201,221h-7.6c-1,0-1.9-0.8-1.9-1.9v-7.6c0-1,0.8-1.9,1.9-1.9h7.6c1,0,1.9,0.8,1.9,1.9v7.6
			C202.9,220.2,202.1,221,201,221z"/>
		<polygon class="st15" points="197.2,211.6 197.2,214.1 195.1,214.1 195.1,216.6 193.1,216.6 193.1,219 197.2,219 197.2,216.6
			199.3,216.6 199.3,214.1 201.4,214.1 201.4,211.6 		"/>
	</g>
	<g class="st1">
		<path class="st14" d="M95.2,91.6h-7.6c-1,0-1.9-0.8-1.9-1.9v-7.6c0-1,0.8-1.9,1.9-1.9h7.6c1,0,1.9,0.8,1.9,1.9v7.6
			C97,90.8,96.2,91.6,95.2,91.6z"/>
		<polygon class="st15" points="91.4,82.3 91.4,84.7 89.3,84.7 89.3,87.2 87.2,87.2 87.2,89.7 91.4,89.7 91.4,87.2 93.5,87.2
			93.5,84.7 95.5,84.7 95.5,82.3 		"/>
	</g>
	<g class="st1">
		<g>
			<path class="st14" d="M309.9,390.6h-7.6c-1,0-1.9-0.8-1.9-1.9v-7.6c0-1,0.8-1.9,1.9-1.9h7.6c1,0,1.9,0.8,1.9,1.9v7.6
				C311.8,389.8,311,390.6,309.9,390.6z"/>
			<g>
				<path class="st15" d="M304.7,389.5h-2.1c-0.5,0-0.9-0.4-0.9-0.9v-7.3c0-0.5,0.4-0.9,0.9-0.9h2.1c0.5,0,0.9,0.4,0.9,0.9v7.3
					C305.6,389.1,305.2,389.5,304.7,389.5z"/>
				<path class="st15" d="M309.7,389.5h-2.1c-0.5,0-0.9-0.4-0.9-0.9v-7.3c0-0.5,0.4-0.9,0.9-0.9h2.1c0.5,0,0.9,0.4,0.9,0.9v7.3
					C310.6,389.1,310.2,389.5,309.7,389.5z"/>
			</g>
		</g>
		<path class="st14" d="M305.1,384.3l-1.4-1.4c-0.1-0.1-0.2-0.1-0.2,0l-1.4,1.4c-0.1,0.1,0,0.3,0.1,0.3h0.8v2.2
			c0,0.2,0.2,0.4,0.4,0.4h0.5c0.2,0,0.4-0.2,0.4-0.4v-2.2h0.8C305.1,384.5,305.2,384.4,305.1,384.3z"/>
		<path class="st14" d="M307.1,385.6l1.4,1.4c0.1,0.1,0.2,0.1,0.2,0l1.4-1.4c0.1-0.1,0-0.3-0.1-0.3h-0.8v-2.2c0-0.2-0.2-0.4-0.4-0.4
			h-0.5c-0.2,0-0.4,0.2-0.4,0.4v2.2h-0.8C307,385.3,307,385.5,307.1,385.6z"/>
	</g>
	<g class="st1">
		<path class="st14" d="M384.5,348.2h-7.6c-1,0-1.9-0.8-1.9-1.9v-7.6c0-1,0.8-1.9,1.9-1.9h7.6c1,0,1.9,0.8,1.9,1.9v7.6
			C386.4,347.4,385.5,348.2,384.5,348.2z"/>
		<g>
			<circle class="st15" cx="380.7" cy="338.7" r="0.8"/>
			<path class="st15" d="M382.8,342.5l-0.7-2.2c-0.1-0.4-0.5-0.7-1.1-0.7h-0.7c-0.6,0-1,0.3-1.1,0.7l-0.7,2.2
				c-0.1,0.5,0.4,0.6,0.6,0.2l0.7-2h0.1c0,0-0.9,3.6-1,3.7c0,0.1,0,0.1,0.1,0.1c0,0,0.8,0,0.8,0l0,2.4c0,0.5,0.7,0.5,0.7,0v-2.4h0.3
				l0,2.4c0,0.5,0.7,0.5,0.7,0l0-2.4c0,0,0.8,0,0.8,0c0.1,0,0.1,0,0.1-0.1c0-0.1-1-3.7-1-3.7h0.1l0.7,2
				C382.4,343.1,382.9,343,382.8,342.5z"/>
		</g>
	</g>
	<g class="st1">
		<path class="st14" d="M400.6,337.9H393c-1,0-1.9-0.8-1.9-1.9v-7.6c0-1,0.8-1.9,1.9-1.9h7.6c1,0,1.9,0.8,1.9,1.9v7.6
			C402.5,337.1,401.7,337.9,400.6,337.9z"/>
		<g>
			<circle class="st15" cx="396.8" cy="328.3" r="0.8"/>
			<path class="st15" d="M397.7,329.2l-0.8,0l-0.8,0c-0.8,0-1,0.2-1,1v2.4c0,0.5,0.6,0.5,0.6,0l0.1-2.2h0.2v6.1c0,0.6,0.9,0.6,0.9,0
				l0.1-3.5h0.2l0.1,3.5c0,0.6,0.9,0.6,0.9,0v-6.1h0.2l0.1,2.2c0,0.5,0.6,0.5,0.6,0v-2.4C398.7,329.4,398.4,329.2,397.7,329.2z"/>
		</g>
	</g>
	<g class="st1">
		<g>
			<path class="st14" d="M171.5,236.5h-7.6c-1,0-1.9-0.8-1.9-1.9V227c0-1,0.8-1.9,1.9-1.9h7.6c1,0,1.9,0.8,1.9,1.9v7.6
				C173.4,235.6,172.6,236.5,171.5,236.5z"/>
			<g>
				<path class="st15" d="M166.3,235.4h-2.1c-0.5,0-0.9-0.4-0.9-0.9v-7.3c0-0.5,0.4-0.9,0.9-0.9h2.1c0.5,0,0.9,0.4,0.9,0.9v7.3
					C167.2,235,166.8,235.4,166.3,235.4z"/>
				<path class="st15" d="M171.2,235.4h-2.1c-0.5,0-0.9-0.4-0.9-0.9v-7.3c0-0.5,0.4-0.9,0.9-0.9h2.1c0.5,0,0.9,0.4,0.9,0.9v7.3
					C172.2,235,171.8,235.4,171.2,235.4z"/>
			</g>
		</g>
		<path class="st14" d="M166.7,230.1l-1.4-1.4c-0.1-0.1-0.2-0.1-0.2,0l-1.4,1.4c-0.1,0.1,0,0.3,0.1,0.3h0.8v2.2
			c0,0.2,0.2,0.4,0.4,0.4h0.5c0.2,0,0.4-0.2,0.4-0.4v-2.2h0.8C166.7,230.4,166.8,230.2,166.7,230.1z"/>
		<path class="st14" d="M168.7,231.4l1.4,1.4c0.1,0.1,0.2,0.1,0.2,0l1.4-1.4c0.1-0.1,0-0.3-0.1-0.3h-0.8V229c0-0.2-0.2-0.4-0.4-0.4
			H170c-0.2,0-0.4,0.2-0.4,0.4v2.2h-0.8C168.6,231.2,168.6,231.3,168.7,231.4z"/>
	</g>
	<g class="st1">
		<path class="st14" d="M147.4,232.3h-7.6c-1,0-1.9-0.8-1.9-1.9v-7.6c0-1,0.8-1.9,1.9-1.9h7.6c1,0,1.9,0.8,1.9,1.9v7.6
			C149.3,231.5,148.4,232.3,147.4,232.3z"/>
		<g>
			<circle class="st15" cx="143.6" cy="222.7" r="0.8"/>
			<path class="st15" d="M145.7,226.6l-0.7-2.2c-0.1-0.4-0.5-0.7-1.1-0.7h-0.7c-0.6,0-1,0.3-1.1,0.7l-0.7,2.2
				c-0.1,0.5,0.4,0.6,0.6,0.2l0.7-2h0.1c0,0-0.9,3.6-1,3.7c0,0.1,0,0.1,0.1,0.1c0,0,0.8,0,0.8,0l0,2.4c0,0.5,0.7,0.5,0.7,0v-2.4h0.3
				l0,2.4c0,0.5,0.7,0.5,0.7,0l0-2.4c0,0,0.8,0,0.8,0c0.1,0,0.1,0,0.1-0.1c0-0.1-1-3.7-1-3.7h0.1l0.7,2
				C145.3,227.2,145.8,227,145.7,226.6z"/>
		</g>
	</g>
	<g class="st1">
		<path class="st14" d="M158.4,249.7h-7.6c-1,0-1.9-0.8-1.9-1.9v-7.6c0-1,0.8-1.9,1.9-1.9h7.6c1,0,1.9,0.8,1.9,1.9v7.6
			C160.3,248.8,159.4,249.7,158.4,249.7z"/>
		<g>
			<circle class="st15" cx="154.6" cy="240.1" r="0.8"/>
			<path class="st15" d="M155.5,241l-0.8,0l-0.8,0c-0.8,0-1,0.2-1,1v2.4c0,0.5,0.6,0.5,0.6,0l0.1-2.2h0.2v6.1c0,0.6,0.9,0.6,0.9,0
				l0.1-3.5h0.2l0.1,3.5c0,0.6,0.9,0.6,0.9,0v-6.1h0.2l0.1,2.2c0,0.5,0.6,0.5,0.6,0V242C156.5,241.2,156.2,241,155.5,241z"/>
		</g>
	</g>
	<g class="st1">
		<path class="st14" d="M168.2,221h-7.6c-1,0-1.9-0.8-1.9-1.9v-7.6c0-1,0.8-1.9,1.9-1.9h7.6c1,0,1.9,0.8,1.9,1.9v7.6
			C170,220.2,169.2,221,168.2,221z"/>
		<g>
			<polygon class="st15" points="164.8,211.5 164.8,219.2 164,219.2 164,211.5 164.8,211.5 			"/>
			<path class="st15" d="M164.4,215.4"/>
			<path class="st15" d="M161.7,212.7c0.4,0,0.6-0.3,0.6-0.6c0-0.4-0.3-0.6-0.6-0.6c-0.4,0-0.6,0.3-0.6,0.6
				C161.1,212.4,161.4,212.7,161.7,212.7L161.7,212.7z"/>
			<path class="st15" d="M161.7,216.8v2.2c0,0.4-0.6,0.4-0.6,0v-2.2h-0.8l0.9-3H161l-0.5,1.7c-0.1,0.4-0.6,0.2-0.5-0.2l0.6-1.8
				c0.1-0.2,0.3-0.6,0.8-0.6h0.4l0,0h0.5c0.5,0,0.7,0.4,0.8,0.6l0.6,1.8c0.1,0.4-0.4,0.6-0.5,0.2l-0.5-1.7h-0.1l0.9,3h-0.8v2.2
				c0,0.4-0.6,0.4-0.6,0v-2.2H161.7L161.7,216.8z"/>
			<path class="st15" d="M166.3,212.9c-0.4,0-0.8,0.4-0.8,0.8v2c0,0.4,0.6,0.4,0.6,0v-1.8h0.1v5c0,0.5,0.7,0.5,0.7,0V216h0.1v2.9
				c0,0.5,0.7,0.5,0.7,0v-5h0.1v1.8c0,0.4,0.5,0.4,0.5,0v-2c0-0.4-0.3-0.8-0.8-0.8L166.3,212.9L166.3,212.9z"/>
			<path class="st15" d="M167,212.7c0.4,0,0.6-0.3,0.6-0.6c0-0.4-0.3-0.6-0.6-0.6c-0.4,0-0.6,0.3-0.6,0.6
				C166.3,212.4,166.6,212.7,167,212.7L167,212.7z"/>
		</g>
	</g>
</g>
<g id="URGENCE" class="st0">
	<g class="st1">
		<g>
			<path class="st15" d="M132.8,133.2h-9.4c-0.6,0-1-0.5-1-1v-9.4c0-0.6,0.5-1,1-1h9.4c0.6,0,1,0.5,1,1v9.4
				C133.8,132.7,133.3,133.2,132.8,133.2z"/>
			<path class="st16" d="M132.8,133.5h-9.4c-0.7,0-1.3-0.6-1.3-1.3v-9.4c0-0.7,0.6-1.3,1.3-1.3h9.4c0.7,0,1.3,0.6,1.3,1.3v9.4
				C134.1,132.9,133.5,133.5,132.8,133.5z M123.4,122c-0.4,0-0.8,0.4-0.8,0.8v9.4c0,0.4,0.4,0.8,0.8,0.8h9.4c0.4,0,0.8-0.4,0.8-0.8
				v-9.4c0-0.4-0.4-0.8-0.8-0.8H123.4z"/>
		</g>
		<polygon class="st16" points="132.1,126.3 129.3,126.3 129.3,123.5 126.9,123.5 126.9,126.3 124.1,126.3 124.1,128.6 126.9,128.6
			126.9,131.4 129.3,131.4 129.3,128.6 132.1,128.6 		"/>
	</g>
	<g class="st1">
		<path class="st17" d="M318.9,431.1h-9.8c-0.6,0-1.1-0.5-1.1-1.1v-9.8c0-0.6,0.5-1.1,1.1-1.1h9.8c0.6,0,1.1,0.5,1.1,1.1v9.8
			C320,430.6,319.5,431.1,318.9,431.1z"/>
		<g>
			<path class="st18" d="M314.5,422.2c-0.2,0-0.4,0-0.6,0c-0.1,0-0.1,0-0.1,0.1c0,0.2-0.1,0.4-0.3,0.5c-0.1,0-0.2,0.1-0.3,0.1
				c-0.1,0.1-0.3,0.1-0.4,0.2c-0.2,0.1-0.3,0.3-0.3,0.5c0,0.2,0,0.5,0,0.7c0,1.8,0,3.5,0,5.3c0,0.2,0.1,0.4,0.3,0.4
				c0.9,0,1.7,0,2.6,0c0.2,0,0.4-0.1,0.4-0.4c0-2,0-4,0-5.9c0-0.2-0.1-0.4-0.3-0.5c-0.1-0.1-0.2-0.1-0.4-0.2
				c-0.2-0.1-0.3-0.2-0.5-0.2c-0.1-0.1-0.2-0.2-0.2-0.3C314.5,422.3,314.5,422.3,314.5,422.2z M313,421.3L313,421.3
				c-0.2,0-0.4,0-0.6,0c-0.2,0-0.4,0.1-0.5,0.3c-0.1,0.1-0.1,0.3-0.2,0.4c-0.4,1.3-0.7,2.7-1.1,4c0,0.1,0,0.1,0.1,0.1
				c0.3,0.2,0.6,0.2,1,0.2c0.1,0,0.1,0,0.1-0.1c0-0.2,0.1-0.4,0.1-0.7c0.1-0.7,0.2-1.3,0.3-2c0.1-0.5,0.1-1,0.2-1.6
				c0-0.2,0.1-0.3,0.4-0.4c0.1,0,0.2,0,0.3,0c0.2,0,0.5,0,0.7,0c0.1,0,0.2-0.1,0.2-0.2c0-0.1-0.1-0.1-0.2-0.1
				C313.5,421.3,313.3,421.3,313,421.3z M313.5,421.1c0.1,0,0.2,0,0.4,0c0.1,0,0.3,0.1,0.3,0.2c0.1,0.3,0,0.4-0.3,0.5
				c0,0,0,0.1,0,0.1c0.3,0,0.6,0,1,0c0.3,0,0.6,0.1,0.8,0.2c0.2,0.1,0.3,0.2,0.4,0.3c0,0,0,0.1,0.1,0.1c0.1,0,0.1,0.1,0.2,0
				c0,0,0.1-0.1,0.1-0.2c0-0.1,0-0.2-0.1-0.2c-0.3-0.4-0.7-0.6-1.1-0.8c0,0-0.1,0-0.1-0.1c0-0.1,0.1-0.1,0.1-0.1c0,0,0,0,0,0
				c0.4-0.2,0.7-0.4,1.1-0.6c0,0,0.1-0.1,0.1-0.1c-0.1,0-0.1-0.1-0.1-0.1c-0.2,0-0.4,0-0.6,0.1c-0.1,0.1-0.2,0.1-0.4,0.2
				c-0.2,0.1-0.5,0.2-0.7,0.2c-0.3,0-0.7,0-1,0c0,0-0.1,0-0.1,0C313.5,421,313.5,421,313.5,421.1z"/>
			<path class="st18" d="M314.5,422.2c0,0.1,0,0.2,0,0.2c0,0.2,0.1,0.3,0.2,0.3c0.2,0.1,0.3,0.2,0.5,0.2c0.1,0.1,0.2,0.1,0.4,0.2
				c0.2,0.1,0.3,0.3,0.3,0.5c0,2,0,4,0,5.9c0,0.2-0.1,0.4-0.4,0.4c-0.9,0-1.7,0-2.6,0c-0.2,0-0.3-0.1-0.3-0.4c0-1.8,0-3.5,0-5.3
				c0-0.2,0-0.5,0-0.7c0-0.2,0.1-0.4,0.3-0.5c0.1-0.1,0.3-0.1,0.4-0.2c0.1,0,0.2-0.1,0.3-0.1c0.2-0.1,0.3-0.3,0.3-0.5
				c0-0.1,0-0.1,0.1-0.1C314.1,422.2,314.3,422.2,314.5,422.2z M314.8,426.8c-0.1,0.3-0.2,0.5-0.5,0.6c0.2,0,0.6-0.1,0.7-0.3
				c0.2-0.3,0.2-0.5,0.1-0.9c0,0.1-0.1,0.2-0.1,0.3c0,0,0,0,0,0c0,0,0-0.1,0-0.1c0-0.2,0-0.4-0.1-0.5c-0.1-0.1-0.1-0.2-0.1-0.4
				c0,0-0.1,0.1-0.1,0.2c0-0.1-0.1-0.2-0.1-0.3c-0.1-0.2-0.2-0.3-0.3-0.4c0-0.1-0.1-0.1-0.2-0.1c0,0.2,0.1,0.3,0.1,0.4
				c0,0.1,0,0.3-0.1,0.4c0-0.3-0.1-0.4-0.3-0.4c0.1,0.2,0,0.4-0.2,0.5c-0.1,0.1-0.2,0.2-0.3,0.3c-0.1,0.3-0.2,0.5,0,0.8
				c0,0-0.1-0.1-0.1-0.1c0.1,0.3,0.5,0.6,0.9,0.6c-0.2-0.1-0.3-0.3-0.4-0.5c0-0.1,0-0.2,0-0.3c0-0.2,0.1-0.3,0.3-0.4
				c0.2-0.1,0.4-0.3,0.4-0.5c0.2,0.2,0.2,0.4,0.1,0.7c0.1-0.1,0.2-0.1,0.3-0.2c0,0.2,0.1,0.5-0.1,0.7
				C314.7,426.8,314.7,426.8,314.8,426.8z"/>
			<path class="st18" d="M313,421.3c0.2,0,0.4,0,0.7,0c0.1,0,0.1,0,0.2,0.1c0,0.1,0,0.2-0.2,0.2c-0.2,0-0.5,0-0.7,0
				c-0.1,0-0.2,0-0.3,0c-0.2,0-0.3,0.1-0.4,0.4c-0.1,0.5-0.1,1-0.2,1.6c-0.1,0.7-0.2,1.3-0.3,2c0,0.2-0.1,0.4-0.1,0.7
				c0,0,0,0.1-0.1,0.1c-0.4,0.1-0.7,0-1-0.2c-0.1,0-0.1-0.1-0.1-0.1c0.4-1.3,0.7-2.7,1.1-4c0-0.1,0.1-0.3,0.2-0.4
				c0.1-0.2,0.3-0.3,0.5-0.3C312.6,421.3,312.8,421.3,313,421.3L313,421.3z"/>
			<path class="st18" d="M313.5,421.1c0-0.1,0-0.2,0-0.3c0,0,0.1,0,0.1,0c0.3,0,0.7,0,1,0c0.3,0,0.5-0.1,0.7-0.2
				c0.1-0.1,0.2-0.1,0.4-0.2c0.2-0.1,0.4-0.1,0.6-0.1c0,0,0.1,0,0.1,0.1c-0.1,0-0.1,0.1-0.1,0.1c-0.4,0.2-0.7,0.4-1.1,0.6
				c0,0,0,0,0,0c-0.1,0-0.1,0.1-0.1,0.1c0,0,0.1,0.1,0.1,0.1c0.4,0.2,0.8,0.4,1.1,0.8c0,0.1,0.1,0.1,0.1,0.2c0,0.1,0,0.1-0.1,0.2
				c0,0-0.1,0-0.2,0c0,0-0.1-0.1-0.1-0.1c-0.1-0.2-0.2-0.2-0.4-0.3c-0.3-0.1-0.5-0.2-0.8-0.2c-0.3,0-0.6,0-1,0c0,0,0-0.1,0-0.1
				c0.3-0.1,0.4-0.2,0.3-0.5c0-0.1-0.1-0.2-0.3-0.2C313.7,421.1,313.6,421.1,313.5,421.1z"/>
			<path class="st17" d="M314.8,426.8c-0.1,0-0.1,0-0.2,0c0.1-0.2,0.1-0.4,0.1-0.7c-0.1,0.1-0.2,0.1-0.3,0.2c0.1-0.3,0-0.5-0.1-0.7
				c-0.1,0.2-0.3,0.4-0.4,0.5c-0.1,0.1-0.3,0.2-0.3,0.4c0,0.1,0,0.2,0,0.3c0.1,0.2,0.2,0.4,0.4,0.5c-0.4,0-0.9-0.3-0.9-0.6
				c0,0,0.1,0.1,0.1,0.1c-0.1-0.3-0.1-0.6,0-0.8c0.1-0.1,0.2-0.2,0.3-0.3c0.2-0.1,0.3-0.3,0.2-0.5c0.2,0,0.2,0.1,0.3,0.4
				c0.1-0.1,0.2-0.2,0.1-0.4c0-0.1,0-0.3-0.1-0.4c0.1,0,0.2,0.1,0.2,0.1c0.1,0.1,0.2,0.3,0.3,0.4c0.1,0.1,0.1,0.2,0.1,0.3
				c0-0.1,0.1-0.1,0.1-0.2c0,0.1,0.1,0.3,0.1,0.4c0.1,0.2,0.1,0.4,0.1,0.5c0,0,0,0.1,0,0.1c0,0,0,0,0,0c0-0.1,0.1-0.2,0.1-0.3
				c0.1,0.3,0.1,0.6-0.1,0.9c-0.1,0.2-0.5,0.4-0.7,0.3C314.6,427.3,314.7,427.1,314.8,426.8z"/>
		</g>
	</g>
</g>
<g id="ACCESSIBILITÉ">
	<g>
		<g>
			<circle class="st19" cx="396.8" cy="348.8" r="6"/>
		</g>
		<g>
			<circle class="st20" cx="396.8" cy="348.8" r="6"/>
		</g>
		<g>
			<g>
				<path class="st21" d="M395,349.6l2.6-3.4l4.9,4.5c0.2-0.6,0.3-1.2,0.3-1.9c0-3.3-2.7-6-6-6s-6,2.7-6,6s2.7,6,6,6
					c0.9,0,1.8-0.2,2.6-0.6L395,349.6z"/>
			</g>
			<g class="st22">
				<path class="st20" d="M394,348.9l0.4,2.1l4.4,3.4c1.8-0.7,3.3-2.2,3.7-4l-6.6-4.6l-0.1,1.5l-0.5,0.5L394,348.9z"/>
			</g>
		</g>
		<g>
			<path class="st23" d="M395.5,346.3c0-0.1,0-0.2,0-0.3c0-0.1,0-0.2,0-0.3c0-0.1,0.1-0.2,0.1-0.2c0.1-0.1,0.1-0.1,0.2-0.1
				c0.1,0,0.2,0,0.3,0s0.2,0,0.3,0c0.1,0,0.2,0.1,0.2,0.1c0.1,0.1,0.1,0.1,0.1,0.2c0,0.1,0,0.2,0,0.3c0,0.2-0.1,0.3-0.2,0.5
				c-0.1,0.1-0.3,0.2-0.5,0.2c-0.1,0-0.2,0-0.3,0c-0.1,0-0.2-0.1-0.2-0.1C395.6,346.4,395.5,346.3,395.5,346.3L395.5,346.3z
				 M398.1,349.9c-0.1,0-0.2,0-0.2,0s-0.1,0.1-0.1,0.2s0,0.1-0.1,0.2c-0.1,0.2-0.1,0.3-0.3,0.5c-0.1,0.1-0.2,0.3-0.4,0.4
				c-0.1,0.1-0.3,0.2-0.5,0.2c-0.2,0.1-0.4,0.1-0.5,0.1c-0.2,0-0.5,0-0.7-0.1c-0.2-0.1-0.4-0.2-0.6-0.4c-0.2-0.2-0.3-0.3-0.4-0.5
				c-0.1-0.2-0.1-0.4-0.1-0.7c0-0.2,0-0.3,0.1-0.5s0.1-0.3,0.2-0.5c0.1-0.1,0.2-0.3,0.4-0.4c0.1-0.1,0.3-0.2,0.5-0.3
				c0.1,0,0.1-0.1,0.2-0.1c0-0.1,0-0.1,0-0.2c0-0.1-0.1-0.1-0.2-0.2c-0.1,0-0.1,0-0.2,0c-0.2,0.1-0.4,0.2-0.6,0.3
				c-0.2,0.1-0.3,0.3-0.5,0.5c-0.1,0.2-0.2,0.4-0.3,0.6c-0.1,0.2-0.1,0.4-0.1,0.7c0,0.3,0.1,0.6,0.2,0.9c0.1,0.3,0.3,0.5,0.5,0.7
				c0.2,0.2,0.5,0.4,0.7,0.5s0.6,0.2,0.9,0.2c0.3,0,0.5,0,0.7-0.1c0.2-0.1,0.4-0.2,0.6-0.3s0.4-0.3,0.5-0.5c0.1-0.2,0.3-0.4,0.3-0.6
				c0-0.1,0.1-0.2,0.1-0.3c0-0.1,0-0.2,0-0.2C398.2,350,398.2,350,398.1,349.9L398.1,349.9z M399.9,351l-1.1-1.9
				c0-0.1-0.1-0.1-0.2-0.2c-0.1,0-0.2-0.1-0.3-0.1h-1.2l-0.1-0.7h0.9c0.1,0,0.1,0,0.2,0c0,0,0.1-0.1,0.1-0.1c0-0.1,0-0.1,0-0.2
				s-0.1-0.1-0.1-0.2c0,0-0.1,0-0.1,0h-1.1l0-0.3c0,0,0,0,0,0v0l0,0c0-0.1-0.1-0.2-0.2-0.3c-0.1-0.1-0.2-0.1-0.3-0.1
				c-0.2,0-0.3,0-0.4,0.2s-0.2,0.2-0.2,0.4c0,0,0,0,0,0.1h0l0.4,1.9c0,0.1,0.1,0.2,0.2,0.3c0.1,0.1,0.2,0.1,0.3,0.1c0,0,0.1,0,0.1,0
				h1.6l0.9,1.6c0,0.1,0.1,0.1,0.1,0.2c0.1,0,0.1,0.1,0.2,0.1c0.1,0,0.2,0,0.3-0.1c0.1-0.1,0.1-0.1,0.1-0.2
				C399.9,351.1,399.9,351.1,399.9,351L399.9,351z"/>
		</g>
	</g>
	<g>
		<g>
			<circle class="st19" cx="167.8" cy="221.5" r="6"/>
		</g>
		<g>
			<circle class="st20" cx="167.8" cy="221.5" r="6"/>
		</g>
		<g>
			<g>
				<path class="st21" d="M166,222.3l2.6-3.4l4.9,4.5c0.2-0.6,0.3-1.2,0.3-1.9c0-3.3-2.7-6-6-6c-3.3,0-6,2.7-6,6s2.7,6,6,6
					c0.9,0,1.8-0.2,2.6-0.6L166,222.3z"/>
			</g>
			<g class="st22">
				<path class="st20" d="M165,221.6l0.4,2.1l4.4,3.4c1.8-0.7,3.3-2.2,3.7-4l-6.6-4.6L167,220l-0.5,0.5L165,221.6z"/>
			</g>
		</g>
		<g>
			<path class="st23" d="M166.5,219c0-0.1,0-0.2,0-0.3c0-0.1,0-0.2,0-0.3c0-0.1,0.1-0.2,0.1-0.2c0.1-0.1,0.1-0.1,0.2-0.1
				c0.1,0,0.2,0,0.3,0c0.1,0,0.2,0,0.3,0c0.1,0,0.2,0.1,0.2,0.1c0.1,0.1,0.1,0.1,0.1,0.2c0,0.1,0,0.2,0,0.3c0,0.2-0.1,0.3-0.2,0.5
				c-0.1,0.1-0.3,0.2-0.5,0.2c-0.1,0-0.2,0-0.3,0s-0.2-0.1-0.2-0.1C166.5,219.1,166.5,219,166.5,219L166.5,219z M169.1,222.6
				c-0.1,0-0.2,0-0.2,0s-0.1,0.1-0.1,0.2c0,0.1,0,0.1-0.1,0.2c-0.1,0.2-0.1,0.3-0.3,0.5c-0.1,0.1-0.2,0.3-0.4,0.4
				c-0.1,0.1-0.3,0.2-0.5,0.2c-0.2,0.1-0.4,0.1-0.5,0.1c-0.2,0-0.5,0-0.7-0.1c-0.2-0.1-0.4-0.2-0.6-0.4c-0.2-0.2-0.3-0.3-0.4-0.5
				c-0.1-0.2-0.1-0.4-0.1-0.7c0-0.2,0-0.3,0.1-0.5c0.1-0.2,0.1-0.3,0.2-0.5c0.1-0.1,0.2-0.3,0.4-0.4c0.1-0.1,0.3-0.2,0.5-0.3
				c0.1,0,0.1-0.1,0.2-0.1c0-0.1,0-0.1,0-0.2c0-0.1-0.1-0.1-0.2-0.2c-0.1,0-0.1,0-0.2,0c-0.2,0.1-0.4,0.2-0.6,0.3
				c-0.2,0.1-0.3,0.3-0.5,0.5c-0.1,0.2-0.2,0.4-0.3,0.6c-0.1,0.2-0.1,0.4-0.1,0.7c0,0.3,0.1,0.6,0.2,0.9c0.1,0.3,0.3,0.5,0.5,0.7
				c0.2,0.2,0.5,0.4,0.7,0.5c0.3,0.1,0.6,0.2,0.9,0.2c0.3,0,0.5,0,0.7-0.1c0.2-0.1,0.4-0.2,0.6-0.3c0.2-0.1,0.4-0.3,0.5-0.5
				s0.3-0.4,0.3-0.6c0-0.1,0.1-0.2,0.1-0.3c0-0.1,0-0.2,0-0.2C169.2,222.7,169.1,222.7,169.1,222.6L169.1,222.6z M170.9,223.7
				l-1.1-1.9c0-0.1-0.1-0.1-0.2-0.2c-0.1,0-0.2-0.1-0.3-0.1h-1.2l-0.1-0.7h0.9c0.1,0,0.1,0,0.2,0c0,0,0.1-0.1,0.1-0.1
				c0-0.1,0-0.1,0-0.2c0-0.1-0.1-0.1-0.1-0.2c0,0-0.1,0-0.1,0h-1.1l0-0.3c0,0,0,0,0,0v0l0,0c0-0.1-0.1-0.2-0.2-0.3
				c-0.1-0.1-0.2-0.1-0.3-0.1c-0.2,0-0.3,0-0.4,0.2c-0.1,0.1-0.2,0.2-0.2,0.4c0,0,0,0,0,0.1h0l0.4,1.9c0,0.1,0.1,0.2,0.2,0.3
				c0.1,0.1,0.2,0.1,0.3,0.1c0,0,0.1,0,0.1,0h1.6l0.9,1.6c0,0.1,0.1,0.1,0.1,0.2c0.1,0,0.1,0.1,0.2,0.1c0.1,0,0.2,0,0.3-0.1
				c0.1-0.1,0.1-0.1,0.1-0.2C170.9,223.8,170.9,223.8,170.9,223.7L170.9,223.7z"/>
		</g>
	</g>
	<g>
		<g>
			<circle class="st19" cx="324.9" cy="443" r="6"/>
		</g>
		<g>
			<circle class="st20" cx="324.9" cy="443" r="6"/>
		</g>
		<g>
			<g>
				<path class="st21" d="M323.1,443.8l2.6-3.4l4.9,4.5c0.2-0.6,0.3-1.2,0.3-1.9c0-3.3-2.7-6-6-6c-3.3,0-6,2.7-6,6s2.7,6,6,6
					c0.9,0,1.8-0.2,2.6-0.6L323.1,443.8z"/>
			</g>
			<g class="st22">
				<path class="st20" d="M322.1,443.1l0.4,2.1l4.4,3.4c1.8-0.7,3.3-2.2,3.7-4l-6.6-4.6l-0.1,1.5l-0.5,0.5L322.1,443.1z"/>
			</g>
		</g>
		<g>
			<path class="st23" d="M323.6,440.4c0-0.1,0-0.2,0-0.3c0-0.1,0-0.2,0-0.3c0-0.1,0.1-0.2,0.1-0.2s0.1-0.1,0.2-0.1
				c0.1,0,0.2,0,0.3,0c0.1,0,0.2,0,0.3,0c0.1,0,0.2,0.1,0.2,0.1s0.1,0.1,0.1,0.2c0,0.1,0,0.2,0,0.3c0,0.2-0.1,0.3-0.2,0.5
				c-0.1,0.1-0.3,0.2-0.5,0.2c-0.1,0-0.2,0-0.3,0c-0.1,0-0.2-0.1-0.2-0.1C323.6,440.6,323.6,440.5,323.6,440.4L323.6,440.4z
				 M326.2,444.1c-0.1,0-0.2,0-0.2,0s-0.1,0.1-0.1,0.2s0,0.1-0.1,0.2c-0.1,0.2-0.1,0.3-0.3,0.5c-0.1,0.1-0.2,0.3-0.4,0.4
				c-0.1,0.1-0.3,0.2-0.5,0.2c-0.2,0.1-0.4,0.1-0.5,0.1c-0.2,0-0.5,0-0.7-0.1c-0.2-0.1-0.4-0.2-0.6-0.4c-0.2-0.2-0.3-0.3-0.4-0.5
				c-0.1-0.2-0.1-0.4-0.1-0.7c0-0.2,0-0.3,0.1-0.5s0.1-0.3,0.2-0.5c0.1-0.1,0.2-0.3,0.4-0.4s0.3-0.2,0.5-0.3c0.1,0,0.1-0.1,0.2-0.1
				c0-0.1,0-0.1,0-0.2c0-0.1-0.1-0.1-0.2-0.2c-0.1,0-0.1,0-0.2,0c-0.2,0.1-0.4,0.2-0.6,0.3c-0.2,0.1-0.3,0.3-0.5,0.5
				c-0.1,0.2-0.2,0.4-0.3,0.6c-0.1,0.2-0.1,0.4-0.1,0.7c0,0.3,0.1,0.6,0.2,0.9c0.1,0.3,0.3,0.5,0.5,0.7c0.2,0.2,0.5,0.4,0.7,0.5
				c0.3,0.1,0.6,0.2,0.9,0.2c0.3,0,0.5,0,0.7-0.1c0.2-0.1,0.4-0.2,0.6-0.3c0.2-0.1,0.4-0.3,0.5-0.5c0.1-0.2,0.3-0.4,0.3-0.6
				c0-0.1,0.1-0.2,0.1-0.3c0-0.1,0-0.2,0-0.2C326.3,444.2,326.3,444.1,326.2,444.1L326.2,444.1z M328,445.2l-1.1-1.9
				c0-0.1-0.1-0.1-0.2-0.2s-0.2-0.1-0.3-0.1h-1.2l-0.1-0.7h0.9c0.1,0,0.1,0,0.2,0c0,0,0.1-0.1,0.1-0.1c0-0.1,0-0.1,0-0.2
				c0-0.1-0.1-0.1-0.1-0.2c0,0-0.1,0-0.1,0H325l0-0.3c0,0,0,0,0,0v0l0,0c0-0.1-0.1-0.2-0.2-0.3c-0.1-0.1-0.2-0.1-0.3-0.1
				c-0.2,0-0.3,0-0.4,0.2s-0.2,0.2-0.2,0.4c0,0,0,0,0,0.1h0l0.4,1.9c0,0.1,0.1,0.2,0.2,0.3c0.1,0.1,0.2,0.1,0.3,0.1c0,0,0.1,0,0.1,0
				h1.6l0.9,1.6c0,0.1,0.1,0.1,0.1,0.2c0.1,0,0.1,0.1,0.2,0.1c0.1,0,0.2,0,0.3-0.1c0.1-0.1,0.1-0.1,0.1-0.2
				C328,445.3,328,445.3,328,445.2L328,445.2z"/>
		</g>
	</g>
</g>
</svg>
