<?xml version="1.0" encoding="utf-8"?>
<!-- Generator: Adobe Illustrator 20.1.0, SVG Export Plug-In . SVG Version: 6.00 Build 0)  -->
<svg version="1.1" id="icones" xmlns="http://www.w3.org/2000/svg" xmlns:xlink="http://www.w3.org/1999/xlink" x="0px" y="0px"
	 viewBox="0 0 1136 1268" style="enable-background:new 0 0 1136 1268;" xml:space="preserve">
<style type="text/css">
	.st0{fill:#1D1D1B;}
	.st1{fill:#FFFFFF;}
	.st2{fill:#D74641;}
	.st3{fill:#BFD9E0;}
	.st4{fill:#F6F6F6;}
	.st5{opacity:0.5;}
	.st6{fill:#3E6E6D;}
	.st7{fill:#9D9D9C;}
	.st8{fill:#ED865B;}
	.st9{opacity:0.5;fill:#3E6E6D;enable-background:new    ;}
	.st10{opacity:0.8;enable-background:new    ;}
	.st11{clip-path:url(#SVGID_2_);fill:#C85E31;}
</style>
<g>
	<path class="st0" d="M834.7,1003.2h-7.6c-1,0-1.9-0.8-1.9-1.9v-7.6c0-1,0.8-1.9,1.9-1.9h7.6c1,0,1.9,0.8,1.9,1.9v7.6
		C836.6,1002.4,835.7,1003.2,834.7,1003.2z"/>
	<g>
		<circle class="st1" cx="830.9" cy="993.6" r="0.8"/>
		<path class="st1" d="M833,997.5l-0.7-2.2c-0.1-0.4-0.5-0.7-1.1-0.7h-0.7c-0.6,0-1,0.3-1.1,0.7l-0.7,2.2c-0.1,0.5,0.4,0.6,0.6,0.2
			l0.7-2h0.1c0,0-0.9,3.6-1,3.7c0,0.1,0,0.1,0.1,0.1h0.8v2.4c0,0.5,0.7,0.5,0.7,0v-2.4h0.3v2.4c0,0.5,0.7,0.5,0.7,0v-2.4h0.8
			c0.1,0,0.1,0,0.1-0.1s-1-3.7-1-3.7h0.1l0.7,2C832.6,998.1,833.1,997.9,833,997.5z"/>
	</g>
</g>
<g>
	<path class="st0" d="M843.6,1017.7H836c-1,0-1.9-0.8-1.9-1.9v-7.6c0-1,0.8-1.9,1.9-1.9h7.6c1,0,1.9,0.8,1.9,1.9v7.6
		C845.5,1016.9,844.7,1017.7,843.6,1017.7z"/>
	<g>
		<circle class="st1" cx="839.9" cy="1008.1" r="0.8"/>
		<path class="st1" d="M840.7,1009h-0.8h-0.8c-0.8,0-1,0.2-1,1v2.4c0,0.5,0.6,0.5,0.6,0l0.1-2.2h0.2v6.1c0,0.6,0.9,0.6,0.9,0
			l0.1-3.5h0.2l0.1,3.5c0,0.6,0.9,0.6,0.9,0v-6.1h0.2l0.1,2.2c0,0.5,0.6,0.5,0.6,0v-2.4C841.7,1009.2,841.5,1009,840.7,1009z"/>
	</g>
</g>
<g>
	<path class="st0" d="M876.6,1070.3H869c-1,0-1.9-0.8-1.9-1.9v-7.6c0-1,0.8-1.9,1.9-1.9h7.6c1,0,1.9,0.8,1.9,1.9v7.6
		C878.4,1069.4,877.6,1070.3,876.6,1070.3z"/>
	<polygon class="st1" points="872.8,1060.9 872.8,1063.4 870.7,1063.4 870.7,1065.8 868.6,1065.8 868.6,1068.3 872.8,1068.3
		872.8,1065.8 874.9,1065.8 874.9,1063.4 877,1063.4 877,1060.9 	"/>
</g>
<g>
	<path class="st0" d="M783.9,849.1h-7.6c-1,0-1.9-0.8-1.9-1.9v-7.6c0-1,0.8-1.9,1.9-1.9h7.6c1,0,1.9,0.8,1.9,1.9v7.6
		C785.8,848.3,785,849.1,783.9,849.1z"/>
	<polygon class="st1" points="780.1,839.8 780.1,842.2 778,842.2 778,844.7 775.9,844.7 775.9,847.2 780.1,847.2 780.1,844.7
		782.2,844.7 782.2,842.2 784.3,842.2 784.3,839.8 	"/>
</g>
<g>
	<path class="st0" d="M786.7,937h-7.6c-1,0-1.9-0.8-1.9-1.9v-7.6c0-1,0.8-1.9,1.9-1.9h7.6c1,0,1.9,0.8,1.9,1.9v7.6
		C788.6,936.2,787.8,937,786.7,937z"/>
	<polygon class="st1" points="783,927.6 783,930.1 780.9,930.1 780.9,932.6 778.8,932.6 778.8,935 783,935 783,932.6 785,932.6
		785,930.1 787.1,930.1 787.1,927.6 	"/>
</g>
<g>
	<path class="st0" d="M760.4,655.6h-7.6c-1,0-1.9-0.8-1.9-1.9v-7.6c0-1,0.8-1.9,1.9-1.9h7.6c1,0,1.9,0.8,1.9,1.9v7.6
		C762.2,654.7,761.4,655.6,760.4,655.6z"/>
	<polygon class="st1" points="756.6,646.2 756.6,648.7 754.5,648.7 754.5,651.1 752.4,651.1 752.4,653.6 756.6,653.6 756.6,651.1
		758.7,651.1 758.7,648.7 760.7,648.7 760.7,646.2 	"/>
</g>
<g>
	<path class="st0" d="M692.2,546.7h-7.6c-1,0-1.9-0.8-1.9-1.9v-7.6c0-1,0.8-1.9,1.9-1.9h7.6c1,0,1.9,0.8,1.9,1.9v7.6
		C694.1,545.9,693.2,546.7,692.2,546.7z"/>
	<polygon class="st1" points="688.4,537.4 688.4,539.8 686.3,539.8 686.3,542.3 684.2,542.3 684.2,544.7 688.4,544.7 688.4,542.3
		690.5,542.3 690.5,539.8 692.6,539.8 692.6,537.4 	"/>
</g>
<g>
	<path class="st0" d="M724.1,527.4h-7.6c-1,0-1.9-0.8-1.9-1.9v-7.6c0-1,0.8-1.9,1.9-1.9h7.6c1,0,1.9,0.8,1.9,1.9v7.6
		C725.9,526.6,725.1,527.4,724.1,527.4z"/>
	<polygon class="st1" points="720.3,518 720.3,520.5 718.2,520.5 718.2,523 716.1,523 716.1,525.4 720.3,525.4 720.3,523 722.3,523
		722.3,520.5 724.4,520.5 724.4,518 	"/>
</g>
<g>
	<path class="st0" d="M357.3,298h-7.6c-1,0-1.9-0.8-1.9-1.9v-7.6c0-1,0.8-1.9,1.9-1.9h7.6c1,0,1.9,0.8,1.9,1.9v7.6
		C359.2,297.1,358.4,298,357.3,298z"/>
	<polygon class="st1" points="353.6,288.6 353.6,291.1 351.5,291.1 351.5,293.5 349.4,293.5 349.4,296 353.6,296 353.6,293.5
		355.6,293.5 355.6,291.1 357.7,291.1 357.7,288.6 	"/>
</g>
<g>
	<path class="st0" d="M193.6,405.2H186c-1,0-1.9-0.8-1.9-1.9v-7.6c0-1,0.8-1.9,1.9-1.9h7.6c1,0,1.9,0.8,1.9,1.9v7.6
		C195.5,404.3,194.6,405.2,193.6,405.2z"/>
	<polygon class="st1" points="189.8,395.8 189.8,398.3 187.7,398.3 187.7,400.7 185.6,400.7 185.6,403.2 189.8,403.2 189.8,400.7
		191.9,400.7 191.9,398.3 194,398.3 194,395.8 	"/>
</g>
<g>
	<path class="st0" d="M201.7,449.1h-7.6c-1,0-1.9-0.8-1.9-1.9v-7.6c0-1,0.8-1.9,1.9-1.9h7.6c1,0,1.9,0.8,1.9,1.9v7.6
		C203.5,448.3,202.7,449.1,201.7,449.1z"/>
	<polygon class="st1" points="197.9,439.8 197.9,442.2 195.8,442.2 195.8,444.7 193.7,444.7 193.7,447.1 197.9,447.1 197.9,444.7
		200,444.7 200,442.2 202,442.2 202,439.8 	"/>
</g>
<g>
	<path class="st0" d="M250.1,537.9h-7.6c-1,0-1.9-0.8-1.9-1.9v-7.6c0-1,0.8-1.9,1.9-1.9h7.6c1,0,1.9,0.8,1.9,1.9v7.6
		C252,537.1,251.1,537.9,250.1,537.9z"/>
	<polygon class="st1" points="246.3,528.6 246.3,531 244.2,531 244.2,533.5 242.1,533.5 242.1,535.9 246.3,535.9 246.3,533.5
		248.4,533.5 248.4,531 250.5,531 250.5,528.6 	"/>
</g>
<g>
	<path class="st0" d="M545.3,793.1h-7.6c-1,0-1.9-0.8-1.9-1.9v-7.6c0-1,0.8-1.9,1.9-1.9h7.6c1,0,1.9,0.8,1.9,1.9v7.6
		C547.2,792.3,546.4,793.1,545.3,793.1z"/>
	<polygon class="st1" points="541.5,783.7 541.5,786.2 539.4,786.2 539.4,788.7 537.4,788.7 537.4,791.1 541.5,791.1 541.5,788.7
		543.6,788.7 543.6,786.2 545.7,786.2 545.7,783.7 	"/>
</g>
<g>
	<path class="st0" d="M380.9,653.6h-7.6c-1,0-1.9-0.8-1.9-1.9v-7.6c0-1,0.8-1.9,1.9-1.9h7.6c1,0,1.9,0.8,1.9,1.9v7.6
		C382.8,652.8,381.9,653.6,380.9,653.6z"/>
	<polygon class="st1" points="377.1,644.3 377.1,646.7 375,646.7 375,649.2 372.9,649.2 372.9,651.7 377.1,651.7 377.1,649.2
		379.2,649.2 379.2,646.7 381.3,646.7 381.3,644.3 	"/>
</g>
<g>
	<path class="st0" d="M625.6,740.7H618c-1,0-1.9-0.8-1.9-1.9v-7.6c0-1,0.8-1.9,1.9-1.9h7.6c1,0,1.9,0.8,1.9,1.9v7.6
		C627.5,739.8,626.6,740.7,625.6,740.7z"/>
	<polygon class="st1" points="621.8,731.3 621.8,733.8 619.7,733.8 619.7,736.2 617.6,736.2 617.6,738.7 621.8,738.7 621.8,736.2
		623.9,736.2 623.9,733.8 626,733.8 626,731.3 	"/>
</g>
<g>
	<g>
		<path class="st0" d="M486.6,823.4H479c-1,0-1.9-0.8-1.9-1.9v-7.6c0-1,0.8-1.9,1.9-1.9h7.6c1,0,1.9,0.8,1.9,1.9v7.6
			C488.4,822.5,487.6,823.4,486.6,823.4z"/>
		<g>
			<path class="st1" d="M481.3,822.3h-2.1c-0.5,0-0.9-0.4-0.9-0.9V814c0-0.5,0.4-0.9,0.9-0.9h2.1c0.5,0,0.9,0.4,0.9,0.9v7.3
				C482.2,821.9,481.8,822.3,481.3,822.3z"/>
			<path class="st1" d="M486.3,822.3h-2.1c-0.5,0-0.9-0.4-0.9-0.9V814c0-0.5,0.4-0.9,0.9-0.9h2.1c0.5,0,0.9,0.4,0.9,0.9v7.3
				C487.2,821.9,486.8,822.3,486.3,822.3z"/>
		</g>
	</g>
	<path class="st0" d="M481.8,817l-1.4-1.4c-0.1-0.1-0.2-0.1-0.2,0l-1.4,1.4c-0.1,0.1,0,0.3,0.1,0.3h0.8v2.2c0,0.2,0.2,0.4,0.4,0.4
		h0.5c0.2,0,0.4-0.2,0.4-0.4v-2.2h0.8C481.8,817.3,481.9,817.1,481.8,817z"/>
	<path class="st0" d="M483.7,818.4l1.4,1.4c0.1,0.1,0.2,0.1,0.2,0l1.4-1.4c0.1-0.1,0-0.3-0.1-0.3h-0.8v-2.2c0-0.2-0.2-0.4-0.4-0.4
		H485c-0.2,0-0.4,0.2-0.4,0.4v2.2h-0.8C483.7,818.1,483.6,818.3,483.7,818.4z"/>
</g>
<g>
	<g>
		<path class="st0" d="M797.1,867.9h-7.6c-1,0-1.9-0.8-1.9-1.9v-7.6c0-1,0.8-1.9,1.9-1.9h7.6c1,0,1.9,0.8,1.9,1.9v7.6
			C798.9,867.1,798.1,867.9,797.1,867.9z"/>
		<g>
			<path class="st1" d="M791.8,866.8h-2.1c-0.5,0-0.9-0.4-0.9-0.9v-7.3c0-0.5,0.4-0.9,0.9-0.9h2.1c0.5,0,0.9,0.4,0.9,0.9v7.3
				C792.7,866.4,792.3,866.8,791.8,866.8z"/>
			<path class="st1" d="M796.8,866.8h-2.1c-0.5,0-0.9-0.4-0.9-0.9v-7.3c0-0.5,0.4-0.9,0.9-0.9h2.1c0.5,0,0.9,0.4,0.9,0.9v7.3
				C797.7,866.4,797.3,866.8,796.8,866.8z"/>
		</g>
	</g>
	<path class="st0" d="M792.3,861.6l-1.4-1.4c-0.1-0.1-0.2-0.1-0.2,0l-1.4,1.4c-0.1,0.1,0,0.3,0.1,0.3h0.8v2.2c0,0.2,0.2,0.4,0.4,0.4
		h0.5c0.2,0,0.4-0.2,0.4-0.4v-2.2h0.8C792.3,861.8,792.4,861.7,792.3,861.6z"/>
	<path class="st0" d="M794.2,862.9l1.4,1.4c0.1,0.1,0.2,0.1,0.2,0l1.4-1.4c0.1-0.1,0-0.3-0.1-0.3h-0.8v-2.2c0-0.2-0.2-0.4-0.4-0.4
		h-0.5c-0.2,0-0.4,0.2-0.4,0.4v2.2h-0.8C794.2,862.6,794.1,862.8,794.2,862.9z"/>
</g>
<g>
	<g>
		<path class="st0" d="M691.2,510.6h-7.6c-1,0-1.9-0.8-1.9-1.9v-7.6c0-1,0.8-1.9,1.9-1.9h7.6c1,0,1.9,0.8,1.9,1.9v7.6
			C693.1,509.7,692.2,510.6,691.2,510.6z"/>
		<g>
			<path class="st1" d="M685.9,509.5h-2.1c-0.5,0-0.9-0.4-0.9-0.9v-7.3c0-0.5,0.4-0.9,0.9-0.9h2.1c0.5,0,0.9,0.4,0.9,0.9v7.3
				C686.9,509.1,686.4,509.5,685.9,509.5z"/>
			<path class="st1" d="M690.9,509.5h-2.1c-0.5,0-0.9-0.4-0.9-0.9v-7.3c0-0.5,0.4-0.9,0.9-0.9h2.1c0.5,0,0.9,0.4,0.9,0.9v7.3
				C691.9,509.1,691.4,509.5,690.9,509.5z"/>
		</g>
	</g>
	<path class="st0" d="M686.4,504.2l-1.4-1.4c-0.1-0.1-0.2-0.1-0.2,0l-1.4,1.4c-0.1,0.1,0,0.3,0.1,0.3h0.8v2.2c0,0.2,0.2,0.4,0.4,0.4
		h0.5c0.2,0,0.4-0.2,0.4-0.4v-2.2h0.8C686.4,504.5,686.5,504.3,686.4,504.2z"/>
	<path class="st0" d="M688.3,505.6l1.4,1.4c0.1,0.1,0.2,0.1,0.2,0l1.4-1.4c0.1-0.1,0-0.3-0.1-0.3h-0.8v-2.2c0-0.2-0.2-0.4-0.4-0.4
		h-0.5c-0.2,0-0.4,0.2-0.4,0.4v2.2h-0.8C688.3,505.3,688.2,505.5,688.3,505.6z"/>
</g>
<g>
	<path class="st0" d="M462,373.6h-7.6c-1,0-1.9-0.8-1.9-1.9v-7.6c0-1,0.8-1.9,1.9-1.9h7.6c1,0,1.9,0.8,1.9,1.9v7.6
		C463.9,372.8,463,373.6,462,373.6z"/>
	<g>
		<circle class="st1" cx="458.2" cy="364" r="0.8"/>
		<path class="st1" d="M459.1,365h-0.8h-0.8c-0.8,0-1,0.2-1,1v2.4c0,0.5,0.6,0.5,0.6,0l0.1-2.2h0.2v6.1c0,0.6,0.9,0.6,0.9,0l0.1-3.5
			h0.2l0.1,3.5c0,0.6,0.9,0.6,0.9,0v-6.1h0.2l0.1,2.2c0,0.5,0.6,0.5,0.6,0V366C460.1,365.1,459.8,365,459.1,365z"/>
	</g>
</g>
<g>
	<g>
		<path class="st0" d="M348.2,668.4h-7.6c-1,0-1.9-0.8-1.9-1.9v-7.6c0-1,0.8-1.9,1.9-1.9h7.6c1,0,1.9,0.8,1.9,1.9v7.6
			C350.1,667.6,349.2,668.4,348.2,668.4z"/>
		<g>
			<path class="st1" d="M342.9,667.3h-2.1c-0.5,0-0.9-0.4-0.9-0.9v-7.3c0-0.5,0.4-0.9,0.9-0.9h2.1c0.5,0,0.9,0.4,0.9,0.9v7.3
				C343.9,666.9,343.4,667.3,342.9,667.3z"/>
			<path class="st1" d="M347.9,667.3h-2.1c-0.5,0-0.9-0.4-0.9-0.9v-7.3c0-0.5,0.4-0.9,0.9-0.9h2.1c0.5,0,0.9,0.4,0.9,0.9v7.3
				C348.9,666.9,348.4,667.3,347.9,667.3z"/>
		</g>
	</g>
	<path class="st0" d="M343.4,662.1l-1.4-1.4c-0.1-0.1-0.2-0.1-0.2,0l-1.4,1.4c-0.1,0.1,0,0.3,0.1,0.3h0.8v2.2c0,0.2,0.2,0.4,0.4,0.4
		h0.5c0.2,0,0.4-0.2,0.4-0.4v-2.2h0.8C343.4,662.3,343.5,662.2,343.4,662.1z"/>
	<path class="st0" d="M345.3,663.4l1.4,1.4c0.1,0.1,0.2,0.1,0.2,0l1.4-1.4c0.1-0.1,0-0.3-0.1-0.3h-0.8v-2.2c0-0.2-0.2-0.4-0.4-0.4
		h-0.5c-0.2,0-0.4,0.2-0.4,0.4v2.2h-0.8C345.3,663.1,345.2,663.3,345.3,663.4z"/>
</g>
<g>
	<path class="st0" d="M451.5,436.7h-7.6c-1,0-1.9-0.8-1.9-1.9v-7.6c0-1,0.8-1.9,1.9-1.9h7.6c1,0,1.9,0.8,1.9,1.9v7.6
		C453.4,435.8,452.5,436.7,451.5,436.7z"/>
	<polygon class="st1" points="447.7,427.3 447.7,429.8 445.6,429.8 445.6,432.2 443.5,432.2 443.5,434.7 447.7,434.7 447.7,432.2
		449.8,432.2 449.8,429.8 451.9,429.8 451.9,427.3 	"/>
</g>
<g>
	<path class="st0" d="M390.4,473.1h-7.6c-1,0-1.9-0.8-1.9-1.9v-7.6c0-1,0.8-1.9,1.9-1.9h7.6c1,0,1.9,0.8,1.9,1.9v7.6
		C392.3,472.3,391.5,473.1,390.4,473.1z"/>
	<g>
		<circle class="st1" cx="386.6" cy="463.5" r="0.8"/>
		<path class="st1" d="M387.5,464.4h-0.8h-0.8c-0.8,0-1,0.2-1,1v2.4c0,0.5,0.6,0.5,0.6,0l0.1-2.2h0.2v6.1c0,0.6,0.9,0.6,0.9,0
			l0.1-3.5h0.2l0.1,3.5c0,0.6,0.9,0.6,0.9,0v-6.1h0.2l0.1,2.2c0,0.5,0.6,0.5,0.6,0v-2.4C388.5,464.6,388.2,464.4,387.5,464.4z"/>
	</g>
</g>
<g>
	<path class="st0" d="M374.3,482.9h-7.6c-1,0-1.9-0.8-1.9-1.9v-7.6c0-1,0.8-1.9,1.9-1.9h7.6c1,0,1.9,0.8,1.9,1.9v7.6
		C376.2,482.1,375.4,482.9,374.3,482.9z"/>
	<g>
		<circle class="st1" cx="370.5" cy="473.3" r="0.8"/>
		<path class="st1" d="M372.7,477.2L372,475c-0.1-0.4-0.5-0.7-1.1-0.7h-0.7c-0.6,0-1,0.3-1.1,0.7l-0.7,2.2c-0.1,0.5,0.4,0.6,0.6,0.2
			l0.7-2h0.1c0,0-0.9,3.6-1,3.7c0,0.1,0,0.1,0.1,0.1h0.8v2.4c0,0.5,0.7,0.5,0.7,0v-2.4h0.3v2.4c0,0.5,0.7,0.5,0.7,0v-2.4h0.8
			c0.1,0,0.1,0,0.1-0.1s-1-3.7-1-3.7h0.1l0.7,2C372.3,477.8,372.8,477.6,372.7,477.2z"/>
	</g>
</g>
<g>
	<path class="st0" d="M419.8,677.4h-7.6c-1,0-1.9-0.8-1.9-1.9v-7.6c0-1,0.8-1.9,1.9-1.9h7.6c1,0,1.9,0.8,1.9,1.9v7.6
		C421.7,676.6,420.9,677.4,419.8,677.4z"/>
	<polygon class="st1" points="416,668 416,670.5 414,670.5 414,673 411.9,673 411.9,675.4 416,675.4 416,673 418.1,673 418.1,670.5
		420.2,670.5 420.2,668 	"/>
</g>
<g>
	<path class="st0" d="M542.6,596.4H535c-1,0-1.9-0.8-1.9-1.9v-7.6c0-1,0.8-1.9,1.9-1.9h7.6c1,0,1.9,0.8,1.9,1.9v7.6
		C544.5,595.6,543.7,596.4,542.6,596.4z"/>
	<polygon class="st1" points="538.8,587 538.8,589.5 536.7,589.5 536.7,592 534.7,592 534.7,594.4 538.8,594.4 538.8,592 540.9,592
		540.9,589.5 543,589.5 543,587 	"/>
</g>
<g>
	<path class="st0" d="M564,611.3h-7.6c-1,0-1.9-0.8-1.9-1.9v-7.6c0-1,0.8-1.9,1.9-1.9h7.6c1,0,1.9,0.8,1.9,1.9v7.6
		C565.9,610.5,565,611.3,564,611.3z"/>
	<g>
		<circle class="st1" cx="560.2" cy="601.8" r="0.8"/>
		<path class="st1" d="M562.3,605.6l-0.7-2.2c-0.1-0.4-0.5-0.7-1.1-0.7h-0.7c-0.6,0-1,0.3-1.1,0.7l-0.7,2.2
			c-0.1,0.5,0.4,0.6,0.6,0.2l0.7-2h0.1c0,0-0.9,3.6-1,3.7c0,0.1,0,0.1,0.1,0.1h0.8v2.4c0,0.5,0.7,0.5,0.7,0v-2.4h0.3v2.4
			c0,0.5,0.7,0.5,0.7,0v-2.4h0.8c0.1,0,0.1,0,0.1-0.1s-1-3.7-1-3.7h0.1l0.7,2C561.9,606.2,562.4,606.1,562.3,605.6z"/>
	</g>
</g>
<g>
	<path class="st0" d="M548.4,620.9h-7.6c-1,0-1.9-0.8-1.9-1.9v-7.6c0-1,0.8-1.9,1.9-1.9h7.6c1,0,1.9,0.8,1.9,1.9v7.6
		C550.3,620.1,549.5,620.9,548.4,620.9z"/>
	<g>
		<circle class="st1" cx="544.6" cy="611.3" r="0.8"/>
		<path class="st1" d="M545.5,612.2h-0.8h-0.8c-0.8,0-1,0.2-1,1v2.4c0,0.5,0.6,0.5,0.6,0l0.1-2.2h0.2v6.1c0,0.6,0.9,0.6,0.9,0
			l0.1-3.5h0.2l0.1,3.5c0,0.6,0.9,0.6,0.9,0v-6.1h0.2l0.1,2.2c0,0.5,0.6,0.5,0.6,0v-2.4C546.5,612.4,546.2,612.2,545.5,612.2z"/>
	</g>
</g>
<g>
	<path class="st0" d="M575.8,771.6h-7.6c-1,0-1.9-0.8-1.9-1.9v-7.6c0-1,0.8-1.9,1.9-1.9h7.6c1,0,1.9,0.8,1.9,1.9v7.6
		C577.7,770.8,576.9,771.6,575.8,771.6z"/>
	<g>
		<circle class="st1" cx="572" cy="762" r="0.8"/>
		<path class="st1" d="M572.9,762.9h-0.8h-0.8c-0.8,0-1,0.2-1,1v2.4c0,0.5,0.6,0.5,0.6,0l0.1-2.2h0.2v6.1c0,0.6,0.9,0.6,0.9,0
			l0.1-3.5h0.2l0.1,3.5c0,0.6,0.9,0.6,0.9,0v-6.1h0.2l0.1,2.2c0,0.5,0.6,0.5,0.6,0v-2.4C573.9,763.1,573.7,762.9,572.9,762.9z"/>
	</g>
</g>
<g>
	<path class="st0" d="M559.8,781.5h-7.6c-1,0-1.9-0.8-1.9-1.9V772c0-1,0.8-1.9,1.9-1.9h7.6c1,0,1.9,0.8,1.9,1.9v7.6
		C561.6,780.7,560.8,781.5,559.8,781.5z"/>
	<g>
		<circle class="st1" cx="556" cy="771.9" r="0.8"/>
		<path class="st1" d="M558.1,775.8l-0.7-2.2c-0.1-0.4-0.5-0.7-1.1-0.7h-0.7c-0.6,0-1,0.3-1.1,0.7l-0.7,2.2
			c-0.1,0.5,0.4,0.6,0.6,0.2l0.7-2h0.1c0,0-0.9,3.6-1,3.7c0,0.1,0,0.1,0.1,0.1h0.8v2.4c0,0.5,0.7,0.5,0.7,0v-2.4h0.3v2.4
			c0,0.5,0.7,0.5,0.7,0v-2.4h0.8c0.1,0,0.1,0,0.1-0.1s-1-3.7-1-3.7h0.1l0.7,2C557.7,776.4,558.2,776.2,558.1,775.8z"/>
	</g>
</g>
<g>
	<path class="st0" d="M777,645.6h-7.6c-1,0-1.9-0.8-1.9-1.9v-7.6c0-1,0.8-1.9,1.9-1.9h7.6c1,0,1.9,0.8,1.9,1.9v7.6
		C778.9,644.8,778.1,645.6,777,645.6z"/>
	<g>
		<circle class="st1" cx="773.2" cy="636" r="0.8"/>
		<path class="st1" d="M774.1,636.9h-0.8h-0.8c-0.8,0-1,0.2-1,1v2.4c0,0.5,0.6,0.5,0.6,0l0.1-2.2h0.2v6.1c0,0.6,0.9,0.6,0.9,0
			l0.1-3.5h0.2l0.1,3.5c0,0.6,0.9,0.6,0.9,0v-6.1h0.2l0.1,2.2c0,0.5,0.6,0.5,0.6,0v-2.4C775.1,637.1,774.8,636.9,774.1,636.9z"/>
	</g>
</g>
<g>
	<path class="st0" d="M708.8,535.9h-7.6c-1,0-1.9-0.8-1.9-1.9v-7.6c0-1,0.8-1.9,1.9-1.9h7.6c1,0,1.9,0.8,1.9,1.9v7.6
		C710.6,535.1,709.8,535.9,708.8,535.9z"/>
	<g>
		<circle class="st1" cx="705" cy="526.3" r="0.8"/>
		<path class="st1" d="M705.8,527.2H705h-0.8c-0.8,0-1,0.2-1,1v2.4c0,0.5,0.6,0.5,0.6,0l0.1-2.2h0.2v6.1c0,0.6,0.9,0.6,0.9,0
			l0.1-3.5h0.2l0.1,3.5c0,0.6,0.9,0.6,0.9,0v-6.1h0.2l0.1,2.2c0,0.5,0.6,0.5,0.6,0v-2.4C706.8,527.4,706.6,527.2,705.8,527.2z"/>
	</g>
</g>
<g>
	<circle class="st0" cx="407.9" cy="276" r="4.5"/>
	<path class="st1" d="M410,277.4l0.7-2.9c0-0.1,0-0.2-0.2-0.3l-2.9-0.7c-0.2,0-0.4,0.2-0.2,0.3l0.7,1.1l-2.7,1.7
		c-0.2,0.2-0.3,0.5-0.2,0.7l0.4,0.6c0.2,0.2,0.5,0.3,0.7,0.2l2.7-1.7l0.7,1.1C409.7,277.6,409.9,277.6,410,277.4z"/>
</g>
<g>
	<circle class="st0" cx="209" cy="374.5" r="4.5"/>
	<path class="st1" d="M211.1,375.9l0.7-2.9c0-0.1,0-0.2-0.2-0.3l-2.9-0.7c-0.2,0-0.4,0.2-0.2,0.3l0.7,1.1l-2.7,1.7
		c-0.2,0.2-0.3,0.5-0.2,0.7l0.4,0.6c0.2,0.2,0.5,0.3,0.7,0.2l2.7-1.7l0.7,1.1C210.8,376.2,211,376.1,211.1,375.9z"/>
</g>
<g>
	<circle class="st0" cx="250.5" cy="478.1" r="4.5"/>
	<path class="st1" d="M252.5,479.5l0.7-2.9c0-0.1,0-0.2-0.2-0.3l-2.9-0.7c-0.2,0-0.4,0.2-0.2,0.3l0.7,1.1l-2.7,1.7
		c-0.2,0.2-0.3,0.5-0.2,0.7l0.4,0.6c0.2,0.2,0.5,0.3,0.7,0.2l2.7-1.7l0.7,1.1C252.2,479.8,252.5,479.7,252.5,479.5z"/>
</g>
<g>
	<circle class="st0" cx="275.1" cy="447.3" r="4.5"/>
	<path class="st1" d="M277.2,448.7l0.7-2.9c0-0.1,0-0.2-0.2-0.3l-2.9-0.7c-0.2,0-0.4,0.2-0.2,0.3l0.7,1.1l-2.7,1.7
		c-0.2,0.2-0.3,0.5-0.2,0.7l0.4,0.6c0.2,0.2,0.5,0.3,0.7,0.2l2.7-1.7l0.7,1.1C276.9,448.9,277.1,448.9,277.2,448.7z"/>
</g>
<g>
	<circle class="st0" cx="480.2" cy="391.2" r="4.5"/>
	<path class="st1" d="M482.2,392.6l0.7-2.9c0-0.1,0-0.2-0.2-0.3l-2.9-0.7c-0.2,0-0.4,0.2-0.2,0.3l0.7,1.1l-2.7,1.7
		c-0.2,0.2-0.3,0.5-0.2,0.7l0.4,0.6c0.2,0.2,0.5,0.3,0.7,0.2l2.7-1.7l0.7,1.1C481.9,392.9,482.2,392.8,482.2,392.6z"/>
</g>
<g>
	<circle class="st0" cx="581" cy="553.1" r="4.5"/>
	<path class="st1" d="M583,554.5l0.7-2.9c0-0.1,0-0.2-0.2-0.3l-2.9-0.7c-0.2,0-0.4,0.2-0.2,0.3l0.7,1.1l-2.7,1.7
		c-0.2,0.2-0.3,0.5-0.2,0.7l0.4,0.6c0.2,0.2,0.5,0.3,0.7,0.2l2.7-1.7l0.7,1.1C582.7,554.8,583,554.7,583,554.5z"/>
</g>
<g>
	<circle class="st0" cx="799.6" cy="883.1" r="4.5"/>
	<path class="st1" d="M801.4,884.7l1-2.8c0-0.1,0-0.3-0.1-0.3l-2.8-1c-0.2-0.1-0.4,0.1-0.3,0.3l0.5,1.1l-2.9,1.3
		c-0.3,0.1-0.4,0.4-0.3,0.7l0.3,0.6c0.1,0.3,0.4,0.4,0.7,0.3l2.9-1.3l0.5,1.1C801.1,884.9,801.3,884.9,801.4,884.7z"/>
</g>
<g>
	<circle class="st0" cx="692.6" cy="784.1" r="4.5"/>
	<path class="st1" d="M690.6,782.7l-0.7,2.9c0,0.1,0,0.2,0.2,0.3l2.9,0.7c0.2,0,0.4-0.2,0.2-0.3l-0.7-1.1l2.7-1.7
		c0.2-0.2,0.3-0.5,0.2-0.7l-0.4-0.6c-0.2-0.2-0.5-0.3-0.7-0.2l-2.7,1.7l-0.7-1.1C690.9,782.5,690.6,782.5,690.6,782.7z"/>
</g>
<g>
	<circle class="st0" cx="448.8" cy="781.2" r="4.5"/>
	<path class="st1" d="M446.8,779.8l-0.7,2.9c0,0.1,0,0.2,0.2,0.3l2.9,0.7c0.2,0,0.4-0.2,0.2-0.3l-0.7-1.1l2.7-1.7
		c0.2-0.2,0.3-0.5,0.2-0.7l-0.4-0.6c-0.2-0.2-0.5-0.3-0.7-0.2l-2.7,1.7l-0.7-1.1C447.1,779.6,446.9,779.6,446.8,779.8z"/>
</g>
<g>
	<circle class="st0" cx="546.3" cy="553.5" r="4.5"/>
	<path class="st1" d="M547.8,551.5l-2.9-0.7c-0.1,0-0.2,0-0.3,0.2l-0.7,2.9c0,0.2,0.2,0.4,0.3,0.2l1.1-0.7l1.7,2.7
		c0.2,0.2,0.5,0.3,0.7,0.2l0.6-0.4c0.2-0.2,0.3-0.5,0.2-0.7l-1.7-2.7l1.1-0.7C548,551.8,548,551.5,547.8,551.5z"/>
</g>
<g>
	<circle class="st0" cx="611.3" cy="775.8" r="4.5"/>
	<path class="st1" d="M609.9,777.9l2.9,0.7c0.1,0,0.2,0,0.3-0.2l0.7-2.9c0-0.2-0.2-0.4-0.3-0.2l-1.1,0.7l-1.7-2.7
		c-0.2-0.2-0.5-0.3-0.7-0.2l-0.6,0.4c-0.2,0.2-0.3,0.5-0.2,0.7l1.7,2.7l-1.1,0.7C609.7,777.6,609.7,777.8,609.9,777.9z"/>
</g>
<g>
	<circle class="st0" cx="444.2" cy="333.3" r="4.5"/>
	<path class="st1" d="M446.3,334.8l0.7-2.9c0-0.1,0-0.2-0.2-0.3l-2.9-0.7c-0.2,0-0.4,0.2-0.2,0.3l0.7,1.1l-2.7,1.7
		c-0.2,0.2-0.3,0.5-0.2,0.7l0.4,0.6c0.2,0.2,0.5,0.3,0.7,0.2l2.7-1.7l0.7,1.1C446,335,446.2,335,446.3,334.8z"/>
</g>
<g>
	<circle class="st2" cx="325.7" cy="721.8" r="6.7"/>
	<g>
		<path class="st1" d="M325.3,720.3L325.3,720.3l-1.1,0.5l-0.2-1l1.5-0.7h1.1v5.8h-1.3V720.3L325.3,720.3z"/>
	</g>
</g>
<g>
	<circle class="st2" cx="702.2" cy="841.3" r="6.7"/>
	<g>
		<path class="st1" d="M700.1,844.1v-0.8l0.7-0.7c1.3-1.1,1.9-1.8,1.9-2.5c0-0.5-0.3-0.8-1-0.8c-0.5,0-0.9,0.2-1.2,0.5l-0.4-1
			c0.4-0.3,1.1-0.6,1.9-0.6c1.3,0,2,0.8,2,1.8s-0.7,1.7-1.5,2.5L702,843l0,0h2.2v1.1H700.1L700.1,844.1z"/>
	</g>
</g>
<g>
	<circle class="st2" cx="764" cy="807.8" r="6.7"/>
	<g>
		<path class="st1" d="M762.3,809.3c0.2,0.1,0.8,0.4,1.3,0.4c0.7,0,1.1-0.3,1.1-0.8c0-0.6-0.6-0.8-1.2-0.8H763v-1h0.5
			c0.5,0,1-0.2,1-0.7c0-0.3-0.3-0.6-0.9-0.6c-0.5,0-1,0.2-1.2,0.3l-0.3-1c0.3-0.2,1-0.4,1.8-0.4c1.2,0,1.9,0.7,1.9,1.4
			c0,0.6-0.3,1.1-1.1,1.3l0,0c0.7,0.1,1.3,0.7,1.3,1.4c0,1-0.9,1.8-2.4,1.8c-0.7,0-1.4-0.2-1.7-0.4L762.3,809.3z"/>
	</g>
</g>
<g>
	<circle class="st2" cx="210.2" cy="499.2" r="6.7"/>
	<g>
		<path class="st1" d="M210.6,502v-1.4H208v-0.9l2.2-3.5h1.7v3.4h0.7v1h-0.7v1.4H210.6L210.6,502z M210.6,499.6v-1.3
			c0-0.3,0-0.7,0-1.1l0,0c-0.2,0.4-0.3,0.7-0.5,1.1l-0.8,1.3l0,0H210.6L210.6,499.6z"/>
	</g>
</g>
<g>
	<circle class="st2" cx="310.3" cy="265.4" r="6.7"/>
	<g>
		<path class="st1" d="M312.2,263.6H310l-0.1,0.9c0.1,0,0.2,0,0.4,0c0.6,0,1.1,0.1,1.5,0.4s0.7,0.8,0.7,1.5c0,1.1-0.9,2-2.5,2
			c-0.7,0-1.3-0.2-1.6-0.3l0.2-1c0.3,0.1,0.8,0.3,1.3,0.3c0.6,0,1.2-0.3,1.2-0.9s-0.5-1-1.6-1c-0.3,0-0.5,0-0.8,0.1l0.4-3h3.2
			L312.2,263.6L312.2,263.6z"/>
	</g>
</g>
<g>
	<rect x="339.9" y="706" class="st1" width="9.3" height="9.7"/>
	<path d="M349.2,708.3v-2.5c0-0.4-0.3-0.7-0.7-0.7h-9c-0.4,0-0.7,0.3-0.7,0.7v10.3c0,0.3,0.2,0.5,0.4,0.6l3.7,2.9
		c0.2,0.1,0.5,0,0.5-0.3v-2.8h5.1c0.4,0,0.7-0.3,0.7-0.7v-4h-1.5v2.9c0,0.2-0.2,0.4-0.4,0.4h-4v-6c0-0.3-0.1-0.5-0.4-0.8l-1.4-1.7
		h5.8c0.2,0,0.4,0.2,0.4,0.4v1.4L349.2,708.3L349.2,708.3L349.2,708.3z"/>
	<g>
		<path class="st0" d="M346.7,712.5c-0.2,0-0.3-0.1-0.5-0.2l-1.8-1.8c-0.1-0.1-0.2-0.3-0.2-0.5s0.1-0.3,0.2-0.5l1.8-1.8
			c0.1-0.1,0.3-0.2,0.5-0.2c0.4,0,0.6,0.3,0.6,0.6v0.6h2.2c0.5,0,0.9,0.4,0.9,0.9v0.6c0,0.5-0.4,0.9-0.9,0.9h-2.2v0.6
			C347.3,712.3,347,712.5,346.7,712.5z"/>
		<path class="st1" d="M346.7,708.2c0.1,0,0.2,0.1,0.2,0.2v1h2.7c0.2,0,0.4,0.2,0.4,0.4v0.6c0,0.2-0.2,0.4-0.4,0.4h-2.7v1
			c0,0.1-0.1,0.2-0.2,0.2c0,0-0.1,0-0.1-0.1l-1.8-1.8c-0.1-0.1-0.1-0.2,0-0.3l1.8-1.8C346.6,708.2,346.6,708.2,346.7,708.2
			 M346.7,707.3c-0.3,0-0.6,0.1-0.8,0.3l-1.8,1.8c-0.2,0.2-0.3,0.5-0.3,0.8s0.1,0.6,0.3,0.8l1.8,1.8c0.2,0.2,0.5,0.3,0.8,0.3
			c0.6,0,1.1-0.5,1.1-1.1v-0.1h1.8c0.7,0,1.3-0.6,1.3-1.3V710c0-0.7-0.6-1.3-1.3-1.3h-1.8v-0.1C347.8,707.7,347.3,707.3,346.7,707.3
			L346.7,707.3z"/>
	</g>
</g>
<g>
	<rect x="363.5" y="691.5" class="st1" width="9.3" height="9.7"/>
	<path d="M372.8,693.8v-2.5c0-0.4-0.3-0.7-0.7-0.7h-9c-0.4,0-0.7,0.3-0.7,0.7v10.3c0,0.3,0.2,0.5,0.4,0.6l3.7,2.9
		c0.2,0.1,0.5,0,0.5-0.3V702h5.1c0.4,0,0.7-0.3,0.7-0.7v-4h-1.5v2.9c0,0.2-0.2,0.4-0.4,0.4h-4v-6c0-0.3-0.1-0.5-0.4-0.8l-1.4-1.7
		h5.8c0.2,0,0.4,0.2,0.4,0.4v1.4L372.8,693.8L372.8,693.8L372.8,693.8z"/>
	<g>
		<path class="st0" d="M370.2,698c-0.2,0-0.3-0.1-0.5-0.2L368,696c-0.1-0.1-0.2-0.3-0.2-0.5s0.1-0.3,0.2-0.5l1.8-1.8
			c0.1-0.1,0.3-0.2,0.5-0.2c0.4,0,0.6,0.3,0.6,0.6v0.6h2.2c0.5,0,0.9,0.4,0.9,0.9v0.6c0,0.5-0.4,0.9-0.9,0.9h-2.2v0.6
			C370.9,697.7,370.6,698,370.2,698z"/>
		<path class="st1" d="M370.2,693.6c0.1,0,0.2,0.1,0.2,0.2v1h2.7c0.2,0,0.4,0.2,0.4,0.4v0.6c0,0.2-0.2,0.4-0.4,0.4h-2.7v1
			c0,0.1-0.1,0.2-0.2,0.2c0,0-0.1,0-0.1-0.1l-1.8-1.8c-0.1-0.1-0.1-0.2,0-0.3l1.8-1.8C370.2,693.6,370.2,693.6,370.2,693.6
			 M370.2,692.7c-0.3,0-0.6,0.1-0.8,0.3l-1.8,1.8c-0.2,0.2-0.3,0.5-0.3,0.8s0.1,0.6,0.3,0.8l1.8,1.8c0.2,0.2,0.5,0.3,0.8,0.3
			c0.6,0,1.1-0.5,1.1-1.1v-0.1h1.8c0.7,0,1.3-0.6,1.3-1.3v-0.6c0-0.7-0.6-1.3-1.3-1.3h-1.8V694C371.3,693.2,370.8,692.7,370.2,692.7
			L370.2,692.7z"/>
	</g>
</g>
<g>
	<rect x="227" y="482" class="st1" width="9.3" height="9.7"/>
	<path d="M236.3,484.2v-2.5c0-0.4-0.3-0.7-0.7-0.7h-9c-0.4,0-0.7,0.3-0.7,0.7V492c0,0.3,0.2,0.5,0.4,0.6l3.7,2.9
		c0.2,0.1,0.5,0,0.5-0.3v-2.8h5.1c0.4,0,0.7-0.3,0.7-0.7v-4h-1.5v2.9c0,0.2-0.2,0.4-0.4,0.4h-4v-6c0-0.3-0.1-0.5-0.4-0.8l-1.4-1.7
		h5.8c0.2,0,0.4,0.2,0.4,0.4v1.4L236.3,484.2L236.3,484.2L236.3,484.2z"/>
	<g>
		<path class="st0" d="M233.7,488.5c-0.2,0-0.3-0.1-0.5-0.2l-1.8-1.8c-0.3-0.3-0.3-0.7,0-0.9l1.8-1.8c0.1-0.1,0.3-0.2,0.5-0.2
			c0.4,0,0.6,0.3,0.6,0.6v0.6h2.2c0.5,0,0.9,0.4,0.9,0.9v0.6c0,0.5-0.4,0.9-0.9,0.9h-2.2v0.6C234.4,488.2,234.1,488.5,233.7,488.5z"
			/>
		<path class="st1" d="M233.7,484.1c0.1,0,0.2,0.1,0.2,0.2v1h2.7c0.2,0,0.4,0.2,0.4,0.4v0.6c0,0.2-0.2,0.4-0.4,0.4h-2.7v1
			c0,0.1-0.1,0.2-0.2,0.2c0,0-0.1,0-0.1-0.1l-1.8-1.8c-0.1-0.1-0.1-0.2,0-0.3l1.8-1.8C233.7,484.1,233.7,484.1,233.7,484.1
			 M233.7,483.2c-0.3,0-0.6,0.1-0.8,0.3l-1.8,1.8c-0.4,0.4-0.4,1.1,0,1.5l1.8,1.8c0.2,0.2,0.5,0.3,0.8,0.3c0.6,0,1.1-0.5,1.1-1.1
			v-0.1h1.8c0.7,0,1.3-0.6,1.3-1.3v-0.6c0-0.7-0.6-1.3-1.3-1.3h-1.8v-0.1C234.8,483.7,234.4,483.2,233.7,483.2L233.7,483.2z"/>
	</g>
</g>
<g>
	<rect x="315.7" y="279.2" class="st1" width="9.3" height="9.7"/>
	<path d="M325,281.4v-2.5c0-0.4-0.3-0.7-0.7-0.7h-9c-0.4,0-0.7,0.3-0.7,0.7v10.3c0,0.3,0.2,0.5,0.4,0.6l3.7,2.9
		c0.2,0.1,0.5,0,0.5-0.3v-2.8h5.1c0.4,0,0.7-0.3,0.7-0.7v-4h-1.5v2.9c0,0.2-0.2,0.4-0.4,0.4h-4v-6c0-0.3-0.1-0.5-0.4-0.8l-1.4-1.7
		h5.8c0.2,0,0.4,0.2,0.4,0.4v1.4L325,281.4L325,281.4L325,281.4z"/>
	<g>
		<path class="st0" d="M322.5,285.7c-0.2,0-0.3-0.1-0.5-0.2l-1.8-1.8c-0.1-0.1-0.2-0.3-0.2-0.5s0.1-0.3,0.2-0.5l1.8-1.8
			c0.1-0.1,0.3-0.2,0.5-0.2c0.4,0,0.6,0.3,0.6,0.6v0.6h2.2c0.5,0,0.9,0.4,0.9,0.9v0.6c0,0.5-0.4,0.9-0.9,0.9h-2.2v0.6
			C323.2,285.4,322.9,285.7,322.5,285.7z"/>
		<path class="st1" d="M322.5,281.3c0.1,0,0.2,0.1,0.2,0.2v1h2.7c0.2,0,0.4,0.2,0.4,0.4v0.6c0,0.2-0.2,0.4-0.4,0.4h-2.7v1
			c0,0.1-0.1,0.2-0.2,0.2c0,0-0.1,0-0.1-0.1l-1.8-1.8c-0.1-0.1-0.1-0.2,0-0.3l1.8-1.8C322.4,281.3,322.5,281.3,322.5,281.3
			 M322.5,280.4c-0.3,0-0.6,0.1-0.8,0.3l-1.8,1.8c-0.4,0.4-0.4,1.1,0,1.5l1.8,1.8c0.2,0.2,0.5,0.3,0.8,0.3c0.6,0,1.1-0.5,1.1-1.1
			v-0.1h1.8c0.7,0,1.3-0.6,1.3-1.3V283c0-0.7-0.6-1.3-1.3-1.3h-1.8v-0.1C323.6,280.8,323.1,280.4,322.5,280.4L322.5,280.4z"/>
	</g>
</g>
<g>
	<rect x="717.7" y="825.5" class="st1" width="9.3" height="9.7"/>
	<path d="M727,827.7v-2.5c0-0.4-0.3-0.7-0.7-0.7h-9c-0.4,0-0.7,0.3-0.7,0.7v10.3c0,0.3,0.2,0.5,0.4,0.6l3.7,2.9
		c0.2,0.1,0.5,0,0.5-0.3v-2.8h5.1c0.4,0,0.7-0.3,0.7-0.7v-4h-1.5v2.9c0,0.2-0.2,0.4-0.4,0.4h-4v-6c0-0.3-0.1-0.5-0.4-0.8l-1.4-1.7
		h5.8c0.2,0,0.4,0.2,0.4,0.4v1.4L727,827.7L727,827.7L727,827.7z"/>
	<g>
		<path class="st0" d="M724.5,831.9c-0.2,0-0.3-0.1-0.5-0.2l-1.8-1.8c-0.2-0.3-0.2-0.7,0-0.9l1.8-1.8c0.1-0.1,0.3-0.2,0.5-0.2
			c0.4,0,0.6,0.3,0.6,0.6v0.6h2.2c0.5,0,0.9,0.4,0.9,0.9v0.6c0,0.5-0.4,0.9-0.9,0.9h-2.2v0.6C725.1,831.7,724.9,831.9,724.5,831.9z"
			/>
		<path class="st1" d="M724.5,827.6c0.1,0,0.2,0.1,0.2,0.2v1h2.7c0.2,0,0.4,0.2,0.4,0.4v0.6c0,0.2-0.2,0.4-0.4,0.4h-2.7v1
			c0,0.1-0.1,0.2-0.2,0.2c0,0-0.1,0-0.1-0.1l-1.8-1.8c-0.1-0.1-0.1-0.2,0-0.3l1.8-1.8C724.4,827.6,724.5,827.6,724.5,827.6
			 M724.5,826.7c-0.3,0-0.6,0.1-0.8,0.3l-1.8,1.8c-0.4,0.4-0.4,1.1,0,1.5l1.8,1.8c0.2,0.2,0.5,0.3,0.8,0.3c0.6,0,1.1-0.5,1.1-1.1
			v-0.1h1.8c0.7,0,1.3-0.6,1.3-1.3v-0.6c0-0.7-0.6-1.3-1.3-1.3h-1.8v-0.1C725.6,827.1,725.1,826.7,724.5,826.7L724.5,826.7z"/>
	</g>
</g>
<g>
	<rect x="740.4" y="812.9" class="st1" width="9.3" height="9.7"/>
	<path d="M749.7,815.1v-2.5c0-0.4-0.3-0.7-0.7-0.7h-9c-0.4,0-0.7,0.3-0.7,0.7v10.3c0,0.3,0.2,0.5,0.4,0.6l3.7,2.9
		c0.2,0.1,0.5,0,0.5-0.3v-2.8h5.1c0.4,0,0.7-0.3,0.7-0.7v-4h-1.5v2.9c0,0.2-0.2,0.4-0.4,0.4h-4v-6c0-0.3-0.1-0.5-0.4-0.8l-1.4-1.7
		h5.8c0.2,0,0.4,0.2,0.4,0.4v1.4L749.7,815.1L749.7,815.1L749.7,815.1z"/>
	<g>
		<path class="st0" d="M747.1,819.4c-0.2,0-0.3-0.1-0.5-0.2l-1.8-1.8c-0.1-0.1-0.2-0.3-0.2-0.5s0.1-0.3,0.2-0.5l1.8-1.8
			c0.1-0.1,0.3-0.2,0.5-0.2c0.4,0,0.6,0.3,0.6,0.6v0.6h2.2c0.5,0,0.9,0.4,0.9,0.9v0.6c0,0.5-0.4,0.9-0.9,0.9h-2.2v0.6
			C747.8,819.1,747.5,819.4,747.1,819.4z"/>
		<path class="st1" d="M747.1,815c0.1,0,0.2,0.1,0.2,0.2v1h2.7c0.2,0,0.4,0.2,0.4,0.4v0.6c0,0.2-0.2,0.4-0.4,0.4h-2.7v1
			c0,0.1-0.1,0.2-0.2,0.2c0,0-0.1,0-0.1-0.1l-1.8-1.8c-0.1-0.1-0.1-0.2,0-0.3l1.8-1.8C747,815,747.1,815,747.1,815 M747.1,814.1
			c-0.3,0-0.6,0.1-0.8,0.3l-1.8,1.8c-0.2,0.2-0.3,0.5-0.3,0.8s0.1,0.6,0.3,0.8l1.8,1.8c0.2,0.2,0.5,0.3,0.8,0.3
			c0.6,0,1.1-0.5,1.1-1.1v-0.1h1.8c0.7,0,1.3-0.6,1.3-1.3v-0.6c0-0.7-0.6-1.3-1.3-1.3h-1.8v-0.1
			C748.2,814.6,747.7,814.1,747.1,814.1L747.1,814.1z"/>
	</g>
</g>
<g>
	<path class="st3" d="M248.1,243.9c0,21.6,0,42.8,0,64.1c4.7,0,9.3,0,14.1,0c0-7.1,0-14.1,0-21.3c4.1,0,7.8,0.1,11.6,0
		c11.1-0.4,20.3-9.7,20.5-20.8c0.3-11.4-8.3-21.4-19.6-21.9C266,243.5,257.2,243.9,248.1,243.9z"/>
	<path class="st3" d="M248.1,243.9c9,0,17.9-0.4,26.7,0.1c11.2,0.6,19.8,10.5,19.6,21.9c-0.3,11.1-9.4,20.4-20.5,20.8
		c-3.8,0.1-7.5,0-11.6,0c0,7.2,0,14.2,0,21.3c-4.9,0-9.4,0-14.1,0C248.1,286.7,248.1,265.4,248.1,243.9z M262.3,272.4
		c4.1,0,7.8,0.1,11.6,0c3.6-0.1,6.4-2.9,6.8-6.3c0.4-3.7-1.8-7.3-5.4-7.7c-4.3-0.4-8.6-0.1-12.9-0.1
		C262.3,263,262.3,267.6,262.3,272.4z"/>
	<path class="st4" d="M262.3,272.4c0-4.8,0-9.3,0-14.1c4.3,0,8.7-0.3,12.9,0.1c3.6,0.4,5.8,4,5.4,7.7c-0.3,3.4-3.1,6.2-6.8,6.3
		C270.2,272.5,266.4,272.4,262.3,272.4z"/>
</g>
<g>
	<path class="st3" d="M863.5,775.8c0,21.6,0,42.8,0,64.1c4.7,0,9.3,0,14.1,0c0-7.1,0-14.1,0-21.3c4.1,0,7.8,0.1,11.6,0
		c11.1-0.4,20.3-9.7,20.5-20.8c0.3-11.4-8.3-21.4-19.6-21.9C881.4,775.5,872.5,775.8,863.5,775.8z"/>
	<path class="st3" d="M863.5,775.8c9,0,17.9-0.4,26.7,0.1c11.2,0.6,19.8,10.5,19.6,21.9c-0.3,11.1-9.4,20.4-20.5,20.8
		c-3.8,0.1-7.5,0-11.6,0c0,7.2,0,14.2,0,21.3c-4.9,0-9.4,0-14.1,0C863.5,818.7,863.5,797.4,863.5,775.8z M877.7,804.4
		c4.1,0,7.8,0.1,11.6,0c3.6-0.1,6.4-2.9,6.8-6.3c0.4-3.7-1.8-7.3-5.4-7.7c-4.3-0.4-8.6-0.1-12.9-0.1
		C877.7,795,877.7,799.5,877.7,804.4z"/>
	<path class="st4" d="M877.7,804.4c0-4.8,0-9.3,0-14.1c4.3,0,8.7-0.3,12.9,0.1c3.6,0.4,5.8,4,5.4,7.7c-0.3,3.4-3.1,6.2-6.8,6.3
		C885.5,804.5,881.8,804.4,877.7,804.4z"/>
</g>
<g class="st5">
	<path class="st6" d="M509.9,524.7c3.3,3.3,6.5,6.5,9.6,9.6c0.6-0.6,1.2-1.2,2-2.1c-3.2-3.2-6.3-6.3-9.5-9.5
		c0.9-1.2,1.8-1.9,3.6-1.7c4.2,0.5,8.3-3.9,8-8.1c-0.1-2-1.5-3.5-3.4-3.9c-4.6-0.9-9.7,4.3-8.5,8.8c0.2,0.7,0,1.1-0.5,1.6
		c-4,4-8,8-12,12c-0.3,0.3-0.6,0.6-0.7,0.8c0.7,0.7,1.2,1.3,1.8,2C503.4,531.2,506.6,528.1,509.9,524.7z M498.5,509.8
		c-1.9,1.9-2.2,5-0.4,7.1c2,2.2,4.3,4.2,6.3,6.1c1.2-1.2,2.5-2.4,3.7-3.6C504.9,516.2,501.7,513,498.5,509.8z"/>
	<path class="st6" d="M509.9,524.7c-3.3,3.3-6.5,6.5-9.6,9.7c-0.6-0.7-1.2-1.3-1.8-2c0.2-0.2,0.4-0.5,0.7-0.8c4-4,8-8,12-12
		c0.5-0.5,0.6-0.9,0.5-1.6c-1.1-4.5,4-9.7,8.5-8.8c1.9,0.4,3.3,1.9,3.4,3.9c0.3,4.2-3.8,8.6-8,8.1c-1.8-0.2-2.7,0.4-3.6,1.7
		c3.2,3.1,6.3,6.3,9.5,9.5c-0.8,0.8-1.4,1.4-2,2.1C516.3,531.2,513.2,528,509.9,524.7z"/>
	<path class="st6" d="M498.5,509.8c3.2,3.2,6.4,6.4,9.6,9.6c-1.2,1.2-2.5,2.5-3.7,3.6c-2-1.9-4.3-3.9-6.3-6.1
		C496.2,514.8,496.6,511.7,498.5,509.8z"/>
</g>
<g class="st5">
	<path class="st6" d="M591.3,541c0.3,0,0.5,0,0.8,0c0.5-0.1,0.8,0.1,1,0.6c0.5,1.1,1,2.3,1.6,3.4c0.7,1.2,0.7,2.1-0.1,3.3
		c-0.9,1.3-0.1,2.5,1.4,2.5c2.7,0,5.3,0,8,0c0.2,0,0.4,0,0.7,0c0-0.5,0-1,0-1.6c-3,0-5.9,0-8.9,0c0.2-0.3,0.3-0.5,0.4-0.7
		c0.2-0.6,0.6-0.8,1.3-0.8c1.5,0.1,3,0,4.4,0c0.8,0,1.3-0.3,1.7-1c0.8-1.5,1.6-2.9,2.4-4.4c0.5-0.9,0.2-1.4-0.8-1.4
		c-3.2,0-6.5,0-9.7,0c-0.8,0-1.3-0.2-1.6-1c-0.1-0.2-0.3-0.5-0.4-0.5c-0.7-0.1-1.5,0-2.2,0C591.3,540.1,591.3,540.5,591.3,541z
		 M597.3,553.1c0-0.8-0.7-1.5-1.5-1.5s-1.5,0.7-1.5,1.5s0.7,1.5,1.5,1.5S597.3,553.9,597.3,553.1z M604.8,553.1
		c0-0.8-0.7-1.5-1.5-1.5s-1.5,0.7-1.5,1.5s0.7,1.5,1.5,1.5S604.8,553.9,604.8,553.1z"/>
	<path class="st6" d="M591.3,541c0-0.5,0-1,0-1.5c0.7,0,1.5,0,2.2,0c0.2,0,0.4,0.3,0.4,0.5c0.2,0.8,0.7,1,1.6,1c3.2-0.1,6.5,0,9.7,0
		c1,0,1.3,0.5,0.8,1.4c-0.8,1.5-1.6,2.9-2.4,4.4c-0.4,0.7-0.9,1-1.7,1c-1.5,0-3,0-4.4,0c-0.6,0-1.1,0.1-1.3,0.8
		c-0.1,0.2-0.2,0.4-0.4,0.7c3,0,6,0,8.9,0c0,0.6,0,1,0,1.6c-0.2,0-0.5,0-0.7,0c-2.7,0-5.3,0-8,0c-1.6,0-2.3-1.2-1.4-2.5
		c0.8-1.1,0.8-2.1,0.1-3.3c-0.7-1.1-1.1-2.2-1.6-3.4c-0.2-0.5-0.5-0.7-1-0.6C591.8,541.1,591.6,541,591.3,541z"/>
	<path class="st6" d="M597.3,553.1c0,0.8-0.7,1.5-1.5,1.5s-1.5-0.7-1.5-1.5s0.7-1.5,1.5-1.5S597.3,552.3,597.3,553.1z"/>
	<path class="st6" d="M604.8,553.1c0,0.8-0.7,1.5-1.5,1.5s-1.5-0.7-1.5-1.5s0.7-1.5,1.5-1.5C604.2,551.6,604.8,552.3,604.8,553.1z"
		/>
</g>
<g class="st5">
	<path class="st6" d="M531,722.5c0,2.9,0,5.8,0,8.6c0,1.7,1.5,3.1,3.2,3.1s3.3,0,5,0c2,0,3.4-1.4,3.4-3.4c0-0.8,0-1.6,0-2.4
		c0.6,0,1.1,0,1.6,0c1.1,0,1.7-0.7,1.8-1.7c0-0.7,0-1.4,0-2.1c0-1.4-0.6-2-2-2c-4.1,0-8.2,0-12.2,0
		C531.5,722.5,531.3,722.5,531,722.5z M544.3,735.9c-4.5,0-8.9,0-13.3,0c0,0.6,0,1.1,0,1.6c4.4,0,8.9,0,13.3,0
		C544.3,737,544.3,736.5,544.3,735.9z"/>
	<path class="st6" d="M531,722.5c0.3,0,0.5,0,0.7,0c4.1,0,8.2,0,12.2,0c1.4,0,2,0.6,2,2c0,0.7,0,1.4,0,2.1c0,1.1-0.7,1.7-1.8,1.7
		c-0.5,0-1,0-1.6,0c0,0.8,0,1.6,0,2.4c0,2-1.4,3.4-3.4,3.4c-1.7,0-3.3,0-5,0s-3.2-1.4-3.2-3.1C531,728.3,531,725.4,531,722.5z
		 M542.8,724.2c0,0.8,0,1.6,0,2.4c0.5,0,1.1,0,1.6,0c0-0.8,0-1.6,0-2.4C543.8,724.2,543.3,724.2,542.8,724.2z"/>
	<path class="st6" d="M544.3,735.9c0,0.5,0,1,0,1.6c-4.4,0-8.9,0-13.3,0c0-0.5,0-1,0-1.6C535.5,735.9,539.9,735.9,544.3,735.9z"/>
	<path class="st6" d="M542.8,724.2c0.5,0,1,0,1.6,0c0,0.8,0,1.6,0,2.4c-0.5,0-1,0-1.6,0C542.8,725.8,542.8,725,542.8,724.2z"/>
</g>
<g>
	<path class="st7" d="M379.1,734.8c0.1,1.5,0,3.3-0.9,5c-1,1.8-2.3,3.2-4.3,4c-0.5,0.2-1,0.2-1.6,0c-2.9-1.2-4.6-3.4-5.1-6.5
		c-0.2-1.6-0.1-3.3-0.1-5c0-0.1,0.2-0.3,0.3-0.4c1.8-0.8,3.6-1.6,5.5-2.4c0.2-0.1,0.4,0,0.6,0c1.8,0.8,3.5,1.6,5.3,2.3
		c0.3,0.1,0.4,0.3,0.4,0.7C379.1,733.2,379.1,733.8,379.1,734.8z M373.1,736.7c0,1.9,0,3.9,0,5.9c2.2-0.4,4.4-3.2,4.6-5.8
		C376.2,736.7,374.6,736.7,373.1,736.7c0-1.9,0-3.8,0-5.9c-1.5,0.7-3,1.3-4.4,2c-0.1,0-0.2,0.2-0.2,0.3c0,1.2,0,2.4,0,3.6
		C370,736.7,371.6,736.7,373.1,736.7z"/>
</g>
<g class="st5">
	<path class="st1" d="M451.8,814.4c-3.1,0.1-5.5,1.5-7.1,4.1c-0.2,0.3-0.5,0.6-0.8,0.8c-1.3,0.7-2,1.8-2,3.2c0,1.5,0.7,2.6,2,3.3
		c0.3,0.2,0.7,0.5,0.9,0.8c3.2,5.5,11,5.4,14.2,0c0.2-0.3,0.5-0.6,0.8-0.8c1.3-0.7,2-1.8,2-3.3s-0.7-2.5-2-3.2
		c-0.3-0.2-0.7-0.5-0.9-0.8C457.3,815.9,454.9,814.5,451.8,814.4z"/>
	<path class="st8" d="M451.8,814.4c3.1,0.1,5.5,1.5,7.1,4.1c0.2,0.3,0.5,0.6,0.9,0.8c1.3,0.7,2,1.8,2,3.2c0,1.5-0.7,2.6-2,3.3
		c-0.3,0.2-0.7,0.5-0.8,0.8c-3.2,5.5-11,5.5-14.2,0c-0.2-0.3-0.5-0.6-0.9-0.8c-1.3-0.7-2-1.8-2-3.3s0.8-2.5,2-3.2
		c0.3-0.2,0.6-0.5,0.8-0.8C446.3,815.9,448.7,814.5,451.8,814.4z M451.8,816.2c-2.6,0-4.9,1.5-5.9,4c-0.1,0.4-0.3,0.5-0.7,0.6
		c-0.9,0.1-1.5,0.9-1.6,1.8c0,0.9,0.6,1.7,1.6,1.8c0.4,0,0.5,0.2,0.7,0.5c1,2.5,3.3,4,5.9,4s4.9-1.5,5.9-4c0.1-0.3,0.3-0.5,0.7-0.5
		c1-0.1,1.6-0.9,1.6-1.8c0-0.9-0.7-1.7-1.6-1.8c-0.4,0-0.6-0.2-0.7-0.6C456.7,817.8,454.4,816.2,451.8,816.2z"/>
	<path class="st1" d="M451.8,816.2c2.6,0,4.9,1.5,5.9,4c0.1,0.4,0.3,0.5,0.7,0.6c0.9,0.1,1.6,0.9,1.6,1.8c0,0.9-0.6,1.7-1.6,1.8
		c-0.4,0-0.5,0.2-0.7,0.5c-1,2.5-3.3,4.1-5.9,4c-2.6,0-4.8-1.6-5.9-4c-0.1-0.3-0.3-0.5-0.7-0.5c-1-0.1-1.6-0.9-1.6-1.8
		c0-0.9,0.6-1.7,1.6-1.8c0.4,0,0.6-0.2,0.7-0.6C446.9,817.8,449.2,816.2,451.8,816.2z M455.8,824.4c-2.7,0-5.3,0-8,0
		c0.5,1.5,2.1,2.7,3.9,2.7C453.5,827.2,455.2,826.1,455.8,824.4z M450.6,821.2c0-0.6-0.5-1.1-1.1-1.1c-0.7,0-1.1,0.5-1.1,1.1
		s0.5,1.1,1.2,1.1C450.2,822.3,450.7,821.8,450.6,821.2z M455.2,821.3c0-0.6-0.4-1.1-1-1.2c-0.7,0-1.2,0.4-1.2,1.1
		c0,0.6,0.5,1.2,1.1,1.2C454.7,822.3,455.2,821.9,455.2,821.3z"/>
	<path class="st8" d="M455.8,824.4c-0.6,1.6-2.3,2.7-4.1,2.7c-1.7,0-3.4-1.2-3.9-2.7C450.5,824.4,453.1,824.4,455.8,824.4z"/>
	<path class="st8" d="M450.6,821.2c0,0.6-0.4,1.1-1.1,1.1c-0.6,0-1.2-0.5-1.2-1.1c0-0.7,0.5-1.2,1.1-1.1
		C450.1,820.1,450.6,820.6,450.6,821.2z"/>
	<path class="st8" d="M455.2,821.3c0,0.6-0.5,1.1-1.1,1.1s-1.1-0.5-1.1-1.2c0-0.6,0.5-1.1,1.2-1.1
		C454.8,820.1,455.2,820.6,455.2,821.3z"/>
</g>
<g class="st5">
	<path class="st1" d="M486.9,874.6c-3.1,0.1-5.5,1.5-7.1,4.1c-0.2,0.3-0.5,0.6-0.8,0.8c-1.3,0.7-2,1.8-2,3.2c0,1.5,0.7,2.6,2,3.3
		c0.3,0.2,0.7,0.5,0.9,0.8c3.2,5.5,11,5.4,14.2,0c0.2-0.3,0.5-0.6,0.8-0.8c1.3-0.7,2-1.8,2-3.3s-0.7-2.5-2-3.2
		c-0.3-0.2-0.7-0.5-0.9-0.8C492.3,876.1,490,874.7,486.9,874.6z"/>
	<path class="st8" d="M486.9,874.6c3.1,0.1,5.5,1.5,7.1,4.1c0.2,0.3,0.5,0.6,0.9,0.8c1.3,0.7,2,1.8,2,3.2c0,1.5-0.7,2.6-2,3.3
		c-0.3,0.2-0.7,0.5-0.8,0.8c-3.2,5.5-11,5.5-14.2,0c-0.2-0.3-0.5-0.6-0.9-0.8c-1.3-0.7-2-1.8-2-3.3s0.8-2.5,2-3.2
		c0.3-0.2,0.6-0.5,0.8-0.8C481.4,876.1,483.8,874.7,486.9,874.6z M486.9,876.4c-2.6,0-4.9,1.5-5.9,4c-0.1,0.4-0.3,0.5-0.7,0.6
		c-0.9,0.1-1.5,0.9-1.6,1.8c0,0.9,0.6,1.7,1.6,1.8c0.4,0,0.5,0.2,0.7,0.5c1,2.5,3.3,4,5.9,4s4.9-1.5,5.9-4c0.1-0.3,0.3-0.5,0.7-0.5
		c1-0.1,1.6-0.9,1.6-1.8c0-0.9-0.7-1.7-1.6-1.8c-0.4,0-0.6-0.2-0.7-0.6C491.7,878,489.5,876.4,486.9,876.4z"/>
	<path class="st1" d="M486.9,876.4c2.6,0,4.9,1.5,5.9,4c0.1,0.4,0.3,0.5,0.7,0.6c0.9,0.1,1.6,0.9,1.6,1.8c0,0.9-0.6,1.7-1.6,1.8
		c-0.4,0-0.5,0.2-0.7,0.5c-1,2.5-3.3,4.1-5.9,4c-2.6,0-4.8-1.6-5.9-4c-0.1-0.3-0.3-0.5-0.7-0.5c-1-0.1-1.6-0.9-1.6-1.8
		c0-0.9,0.6-1.7,1.6-1.8c0.4,0,0.6-0.2,0.7-0.6C482,878,484.3,876.4,486.9,876.4z M490.9,884.6c-2.7,0-5.3,0-8,0
		c0.5,1.5,2.1,2.7,3.9,2.7C488.6,887.4,490.3,886.3,490.9,884.6z M485.7,881.4c0-0.6-0.5-1.1-1.1-1.1c-0.7,0-1.1,0.5-1.1,1.1
		s0.5,1.1,1.2,1.1C485.3,882.5,485.7,882,485.7,881.4z M490.3,881.5c0-0.6-0.4-1.1-1-1.2c-0.7,0-1.2,0.4-1.2,1.1
		c0,0.6,0.5,1.2,1.1,1.2C489.8,882.5,490.2,882.1,490.3,881.5z"/>
	<path class="st8" d="M490.9,884.6c-0.6,1.6-2.3,2.7-4.1,2.7c-1.7,0-3.4-1.2-3.9-2.7C485.5,884.6,488.2,884.6,490.9,884.6z"/>
	<path class="st8" d="M485.7,881.4c0,0.6-0.4,1.1-1.1,1.1c-0.6,0-1.2-0.5-1.2-1.1c0-0.7,0.5-1.2,1.1-1.1
		C485.2,880.3,485.7,880.8,485.7,881.4z"/>
	<path class="st8" d="M490.3,881.5c0,0.6-0.5,1.1-1.1,1.1s-1.1-0.5-1.1-1.2c0-0.6,0.5-1.1,1.2-1.1
		C489.8,880.3,490.3,880.8,490.3,881.5z"/>
</g>
<g>
	<path class="st9" d="M525.3,361c-4.9-4.9-9.6-9.6-14.4-14.3c-1.8,1.9-3.7,3.9-5.6,5.9c-1-0.9-1.7-1.7-2.7-2.7
		c0.9-0.7,1.8-1.3,2.8-2.1c-1.1-0.9-1.9-1.5-2.9-2.3c1.5-1.3,2.7-2.4,4-3.5c-0.9-1-1.6-1.7-2.3-2.4c0.8-0.8,1.5-1.5,2.3-2.3
		c0.7,0.6,1.4,1.4,2.3,2.2c1.1-1.2,2.1-2.4,3.3-3.8c0.9,1,1.5,1.9,2.5,3c0.9-1.3,1.5-2.2,2.1-3.1c1.1,1.1,1.9,1.8,2.8,2.7
		c-2,1.9-4,3.8-5.8,5.6c4.8,4.8,9.5,9.5,14.2,14.2c1.7-1.8,3.6-3.8,5.5-5.8c1,1.1,1.7,1.8,2.5,2.6c-0.7,0.7-1.4,1.4-2.3,2.4
		c0.9,0.6,1.7,1.3,2.9,2.1c-1.7,1.4-2.9,2.4-4.6,3.8c1.2,0.9,2.1,1.5,2.9,2.1c-0.9,0.9-1.7,1.6-2.5,2.5c-0.7-0.6-1.4-1.4-2.4-2.3
		c-1.1,1.2-2.2,2.4-3.5,3.9c-0.7-1-1.4-1.8-2.2-2.9c-0.9,1.1-1.5,2-2.2,2.8c-1-1-1.7-1.8-2.6-2.7C521.4,364.7,523.4,362.8,525.3,361
		z"/>
</g>
<g>
	<path class="st9" d="M313.3,355.3c-2.5-2.4-4.8-4.8-7.2-7.2c-0.9,0.9-1.8,1.9-2.8,2.9c-0.5-0.5-0.9-0.8-1.4-1.3
		c0.5-0.3,0.9-0.7,1.4-1c-0.5-0.4-0.9-0.8-1.5-1.2c0.8-0.7,1.4-1.2,2-1.7c-0.5-0.5-0.8-0.9-1.1-1.2c0.4-0.4,0.7-0.8,1.1-1.2
		c0.3,0.3,0.7,0.7,1.2,1.1c0.5-0.6,1.1-1.2,1.6-1.9c0.4,0.5,0.8,0.9,1.2,1.5c0.4-0.6,0.7-1.1,1.1-1.5c0.6,0.5,0.9,0.9,1.4,1.3
		c-1,1-2,1.9-2.9,2.8c2.4,2.4,4.7,4.7,7.1,7.1c0.8-0.9,1.8-1.9,2.7-2.9c0.5,0.5,0.9,0.9,1.3,1.3c-0.3,0.3-0.7,0.7-1.1,1.2
		c0.4,0.3,0.9,0.6,1.4,1.1c-0.8,0.7-1.5,1.2-2.3,1.9c0.6,0.4,1.1,0.8,1.5,1c-0.5,0.5-0.8,0.8-1.2,1.2c-0.3-0.3-0.7-0.7-1.2-1.1
		c-0.6,0.6-1.1,1.2-1.8,1.9c-0.4-0.5-0.7-0.9-1.1-1.4c-0.4,0.6-0.8,1-1.1,1.4c-0.5-0.5-0.9-0.9-1.3-1.3
		C311.4,357.1,312.4,356.2,313.3,355.3z"/>
</g>
<g class="st10">
	<g>
		<defs>
			<rect id="SVGID_1_" x="337.3" y="389.9" width="14.8" height="15"/>
		</defs>
		<clipPath id="SVGID_2_">
			<use xlink:href="#SVGID_1_"  style="overflow:visible;"/>
		</clipPath>
		<path class="st11" d="M341,397.6c-0.5,0.2-0.9,0.4-1.1,0.5c-0.1,0-0.1,0.1-0.2,0.1s-0.2,0-0.2-0.1c-0.1-0.1-0.1-0.3,0-0.5
			c0.3-0.3,1-0.5,1.3-0.6c0.2-0.1,0.3,0,0.4,0.2C341.2,397.3,341.2,397.5,341,397.6L341,397.6z M345.1,399.7c0.2,0.8,0,1.6-0.4,2.2
			c-0.4,0.5-1,0.9-1.6,1.1c-0.2,0-0.4,0.1-0.6,0.1c-0.5,0-0.9-0.1-1.3-0.4c-0.6-0.4-1-1-1.2-1.9l0,0c0-0.1,0-0.3,0.2-0.4
			s0.5-0.2,0.7-0.3c0.1,0,0.2,0,0.3,0c1,0.7,2,0.5,2.7-0.6c0.1-0.1,0.1-0.1,0.2-0.1c0.3,0,0.6,0,0.8,0
			C344.9,399.4,345,399.5,345.1,399.7L345.1,399.7L345.1,399.7z M344.5,400c-0.1,0-0.2,0-0.3,0c-0.5,0.7-1.2,1.1-1.9,1.1
			c-0.4,0-0.9-0.1-1.4-0.4c-0.1,0-0.2,0.1-0.3,0.1c0.3,1.3,1.4,1.7,2.3,1.5C343.8,402.2,344.6,401.4,344.5,400L344.5,400z
			 M342.9,397.2c0.5-0.1,1,0,1.2,0h0.1c0.1,0,0.2-0.1,0.3-0.2c0-0.2,0-0.3-0.2-0.4c-0.4-0.1-1-0.1-1.5,0c-0.2,0-0.3,0.2-0.3,0.4
			C342.6,397.1,342.8,397.2,342.9,397.2L342.9,397.2z M346.5,393.1L346.5,393.1c0.2,0,0.3-0.1,0.3-0.3c0-0.2-0.1-0.3-0.3-0.3
			c-0.5-0.1-1-0.2-1.2-0.3c-0.1-0.1-0.3,0-0.4,0.1c-0.1,0.2,0,0.4,0.1,0.4C345.4,392.9,346.1,393,346.5,393.1L346.5,393.1z
			 M348.5,393.1C348.6,393.1,348.6,393.1,348.5,393.1c0.5,0,1.1-0.1,1.4-0.3c0.1-0.1,0.2-0.3,0.1-0.4c-0.1-0.2-0.3-0.2-0.4-0.1
			c-0.2,0.1-0.7,0.2-1.2,0.3c-0.2,0-0.3,0.2-0.3,0.3C348.3,393,348.4,393.1,348.5,393.1L348.5,393.1z M346.9,399.3
			c0.4,2.2-1.1,4.6-3.5,5.5h-0.1c-0.1,0-0.1,0-0.2,0c-2.5,0-4.6-1.5-5-3.7l-0.8-4.4c-0.1-0.4,0.3-0.8,1.3-1.3
			c0.8-0.3,1.8-0.7,2.9-0.9c1.1-0.2,2.2-0.4,3-0.3c1,0,1.5,0.2,1.6,0.7L346.9,399.3z M346.3,399.5l-0.8-4.4
			c-0.1-0.1-0.4-0.2-1.2-0.2c-0.8,0-1.7,0.1-2.7,0.3c-1,0.2-1.9,0.5-2.6,0.8c-0.8,0.3-1,0.6-1.1,0.7l0.8,4.4
			c0.3,1.9,2.3,3.3,4.6,3.2C345.4,403.4,346.7,401.4,346.3,399.5L346.3,399.5z M350.6,390.2c-0.8-0.2-1.9-0.3-3-0.3s-2.2,0.1-3,0.3
			c-1,0.2-1.5,0.5-1.5,1v2c0,0.2,0.1,0.3,0.3,0.3c0.2,0,0.3-0.1,0.3-0.3v-1.9c0.1-0.1,0.4-0.3,1.2-0.4c0.7-0.2,1.7-0.2,2.7-0.2
			s2,0.1,2.7,0.2c0.8,0.2,1.1,0.4,1.2,0.4v4.5c0,1.8-1.4,3.4-3.4,4c-0.2,0-0.3,0.2-0.2,0.4c0,0.1,0.2,0.2,0.3,0.2h0.1
			c1.1-0.3,2-0.9,2.7-1.7c0.7-0.8,1.1-1.8,1.1-2.9v-4.5C352,390.8,351.6,390.5,350.6,390.2L350.6,390.2z M348.9,397.7L348.9,397.7
			c0.3,0,0.6-0.1,0.8-0.1c0.1,0,0.2-0.2,0.2-0.3l0,0c0-0.8-0.3-1.6-0.8-2.1s-1.3-0.8-2-0.7c-0.2,0-0.3,0.2-0.3,0.3
			c0,0.2,0.2,0.3,0.3,0.3c0.6-0.1,1.2,0.2,1.6,0.6c0.3,0.3,0.5,0.8,0.6,1.4c-0.1,0-0.2,0-0.3,0.1c-0.5-0.5-1-0.7-1.5-0.8
			c-0.2,0-0.3,0.1-0.3,0.3c0,0.2,0.1,0.3,0.3,0.3c0.4,0,0.8,0.3,1.2,0.7C348.8,397.6,348.8,397.7,348.9,397.7L348.9,397.7z"/>
	</g>
</g>
</svg>
