<?xml version="1.0" encoding="utf-8"?>
<!-- Generator: Adobe Illustrator 20.1.0, SVG Export Plug-In . SVG Version: 6.00 Build 0)  -->
<svg version="1.1" id="icones" xmlns="http://www.w3.org/2000/svg" xmlns:xlink="http://www.w3.org/1999/xlink" x="0px" y="0px"
	 viewBox="0 0 880.5 858" style="enable-background:new 0 0 880.5 858;" xml:space="preserve">
<style type="text/css">
	.st0{fill:#1D1D1B;}
	.st1{fill:#FFFFFF;}
	.st2{fill:#BED8DF;}
	.st3{opacity:0.5;}
	.st4{fill:#3E6E6D;}
</style>
<g>
	<g>
		<path class="st0" d="M254.7,545.6h-7.6c-1,0-1.9-0.8-1.9-1.9v-7.6c0-1,0.8-1.9,1.9-1.9h7.6c1,0,1.9,0.8,1.9,1.9v7.6
			C256.6,544.8,255.8,545.6,254.7,545.6z"/>
		<g>
			<path class="st1" d="M249.5,544.5h-2.1c-0.5,0-0.9-0.4-0.9-0.9v-7.3c0-0.5,0.4-0.9,0.9-0.9h2.1c0.5,0,0.9,0.4,0.9,0.9v7.3
				C250.4,544.1,250,544.5,249.5,544.5z"/>
			<path class="st1" d="M254.5,544.5h-2.1c-0.5,0-0.9-0.4-0.9-0.9v-7.3c0-0.5,0.4-0.9,0.9-0.9h2.1c0.5,0,0.9,0.4,0.9,0.9v7.3
				C255.4,544.1,255,544.5,254.5,544.5z"/>
		</g>
	</g>
	<path class="st0" d="M249.9,539.3l-1.4-1.4c-0.1-0.1-0.2-0.1-0.2,0l-1.4,1.4c-0.1,0.1,0,0.3,0.1,0.3h0.8v2.2c0,0.2,0.2,0.4,0.4,0.4
		h0.5c0.2,0,0.4-0.2,0.4-0.4v-2.2h0.8C249.9,539.5,250,539.4,249.9,539.3z"/>
	<path class="st0" d="M251.9,540.6l1.4,1.4c0.1,0.1,0.2,0.1,0.2,0l1.4-1.4c0.1-0.1,0-0.3-0.1-0.3H254v-2.2c0-0.2-0.2-0.4-0.4-0.4
		h-0.5c-0.2,0-0.4,0.2-0.4,0.4v2.2H252C251.8,540.3,251.8,540.5,251.9,540.6z"/>
</g>
<g>
	<g>
		<path class="st0" d="M588.3,386.6h-7.6c-1,0-1.9-0.8-1.9-1.9v-7.6c0-1,0.8-1.9,1.9-1.9h7.6c1,0,1.9,0.8,1.9,1.9v7.6
			C590.1,385.8,589.3,386.6,588.3,386.6z"/>
		<g>
			<path class="st1" d="M583,385.6h-2.1c-0.5,0-0.9-0.4-0.9-0.9v-7.3c0-0.5,0.4-0.9,0.9-0.9h2.1c0.5,0,0.9,0.4,0.9,0.9v7.3
				C583.9,385.1,583.5,385.6,583,385.6z"/>
			<path class="st1" d="M588,385.6h-2.1c-0.5,0-0.9-0.4-0.9-0.9v-7.3c0-0.5,0.4-0.9,0.9-0.9h2.1c0.5,0,0.9,0.4,0.9,0.9v7.3
				C588.9,385.1,588.5,385.6,588,385.6z"/>
		</g>
	</g>
	<path class="st0" d="M583.5,380.3l-1.4-1.4c-0.1-0.1-0.2-0.1-0.2,0l-1.4,1.4c-0.1,0.1,0,0.3,0.1,0.3h0.8v2.2c0,0.2,0.2,0.4,0.4,0.4
		h0.5c0.2,0,0.4-0.2,0.4-0.4v-2.2h0.8C583.5,380.6,583.6,380.4,583.5,380.3z"/>
	<path class="st0" d="M585.4,381.6l1.4,1.4c0.1,0.1,0.2,0.1,0.2,0l1.4-1.4c0.1-0.1,0-0.3-0.1-0.3h-0.8v-2.2c0-0.2-0.2-0.4-0.4-0.4
		h-0.5c-0.2,0-0.4,0.2-0.4,0.4v2.2h-0.8C585.4,381.4,585.3,381.5,585.4,381.6z"/>
</g>
<g>
	<path class="st0" d="M285.4,530.8h-7.6c-1,0-1.9-0.8-1.9-1.9v-7.6c0-1,0.8-1.9,1.9-1.9h7.6c1,0,1.9,0.8,1.9,1.9v7.6
		C287.2,530,286.4,530.8,285.4,530.8z"/>
	<polygon class="st1" points="281.6,521.5 281.6,523.9 279.5,523.9 279.5,526.4 277.4,526.4 277.4,528.9 281.6,528.9 281.6,526.4
		283.6,526.4 283.6,523.9 285.7,523.9 285.7,521.5 	"/>
</g>
<g>
	<path class="st0" d="M300.9,310h-7.6c-1,0-1.9-0.8-1.9-1.9v-7.6c0-1,0.8-1.9,1.9-1.9h7.6c1,0,1.9,0.8,1.9,1.9v7.6
		C302.8,309.1,302,310,300.9,310z"/>
	<polygon class="st1" points="297.1,300.6 297.1,303.1 295,303.1 295,305.5 293,305.5 293,308 297.1,308 297.1,305.5 299.2,305.5
		299.2,303.1 301.3,303.1 301.3,300.6 	"/>
</g>
<g>
	<path class="st0" d="M128.9,322.7h-7.6c-1,0-1.9-0.8-1.9-1.9v-7.6c0-1,0.8-1.9,1.9-1.9h7.6c1,0,1.9,0.8,1.9,1.9v7.6
		C130.7,321.9,129.9,322.7,128.9,322.7z"/>
	<polygon class="st1" points="125.1,313.3 125.1,315.8 123,315.8 123,318.3 120.9,318.3 120.9,320.7 125.1,320.7 125.1,318.3
		127.2,318.3 127.2,315.8 129.2,315.8 129.2,313.3 	"/>
</g>
<g>
	<path class="st0" d="M163.7,415.6h-7.6c-1,0-1.9-0.8-1.9-1.9v-7.6c0-1,0.8-1.9,1.9-1.9h7.6c1,0,1.9,0.8,1.9,1.9v7.6
		C165.6,414.7,164.7,415.6,163.7,415.6z"/>
	<polygon class="st1" points="159.9,406.2 159.9,408.6 157.8,408.6 157.8,411.1 155.7,411.1 155.7,413.6 159.9,413.6 159.9,411.1
		162,411.1 162,408.6 164.1,408.6 164.1,406.2 	"/>
</g>
<g>
	<path class="st0" d="M536.6,604.2H529c-1,0-1.9-0.8-1.9-1.9v-7.6c0-1,0.8-1.9,1.9-1.9h7.6c1,0,1.9,0.8,1.9,1.9v7.6
		C538.5,603.4,537.6,604.2,536.6,604.2z"/>
	<polygon class="st1" points="532.8,594.9 532.8,597.3 530.7,597.3 530.7,599.8 528.6,599.8 528.6,602.3 532.8,602.3 532.8,599.8
		534.9,599.8 534.9,597.3 537,597.3 537,594.9 	"/>
</g>
<g>
	<path class="st0" d="M626.2,405.9h-7.6c-1,0-1.9-0.8-1.9-1.9v-7.6c0-1,0.8-1.9,1.9-1.9h7.6c1,0,1.9,0.8,1.9,1.9v7.6
		C628.1,405.1,627.2,405.9,626.2,405.9z"/>
	<polygon class="st1" points="622.4,396.5 622.4,399 620.3,399 620.3,401.5 618.2,401.5 618.2,403.9 622.4,403.9 622.4,401.5
		624.5,401.5 624.5,399 626.6,399 626.6,396.5 	"/>
</g>
<g>
	<path class="st0" d="M447.1,662.4h-7.6c-1,0-1.9-0.8-1.9-1.9V653c0-1,0.8-1.9,1.9-1.9h7.6c1,0,1.9,0.8,1.9,1.9v7.6
		C449,661.6,448.1,662.4,447.1,662.4z"/>
	<polygon class="st1" points="443.3,653.1 443.3,655.5 441.2,655.5 441.2,658 439.1,658 439.1,660.5 443.3,660.5 443.3,658
		445.4,658 445.4,655.5 447.5,655.5 447.5,653.1 	"/>
</g>
<g>
	<circle class="st0" cx="137" cy="336.8" r="4.5"/>
	<path class="st1" d="M135.6,338.8l2.9,0.7c0.1,0,0.2,0,0.3-0.2l0.7-2.9c0-0.2-0.2-0.4-0.3-0.3l-1.1,0.6l-1.7-2.8
		c-0.2-0.3-0.5-0.3-0.7-0.2l-0.6,0.4c-0.3,0.2-0.3,0.5-0.2,0.7l1.7,2.8l-1.1,0.6C135.3,338.5,135.4,338.8,135.6,338.8z"/>
</g>
<g>
	<circle class="st0" cx="135.2" cy="304" r="4.5"/>
	<path class="st1" d="M136.6,301.9l-2.9-0.6c-0.1,0-0.2,0.1-0.3,0.2l-0.6,2.9c0,0.2,0.2,0.4,0.3,0.2l1-0.7l1.7,2.7
		c0.2,0.2,0.5,0.3,0.7,0.2l0.6-0.4c0.2-0.2,0.3-0.5,0.2-0.7l-1.7-2.7l1-0.7C136.8,302.2,136.8,302,136.6,301.9z"/>
</g>
<g>
	<path class="st0" d="M212.8,441.9h-7.6c-1,0-1.9-0.8-1.9-1.9v-7.6c0-1,0.8-1.9,1.9-1.9h7.6c1,0,1.9,0.8,1.9,1.9v7.6
		C214.7,441.1,213.8,441.9,212.8,441.9z"/>
	<g>
		<path class="st1" d="M208.5,433.7c0.4,0,0.7-0.3,0.7-0.7c0-0.4-0.3-0.7-0.7-0.7s-0.7,0.3-0.7,0.7
			C207.8,433.4,208.1,433.7,208.5,433.7"/>
		<path class="st1" d="M211.9,438.9c0.1,0.2,0.4,0.3,0.6,0.1c0.2-0.1,0.2-0.4,0.1-0.6l-1.2-2.1c-0.1-0.1-0.2-0.2-0.3-0.2h-1.8v-0.6
			h1.3c0.2,0,0.3-0.1,0.3-0.3c0-0.2-0.1-0.3-0.3-0.3h-1.3v-0.5c0-0.4-0.3-0.7-0.7-0.6c-0.4,0-0.7,0.3-0.6,0.7l0.1,2.1
			c0,0.4,0.3,0.6,0.7,0.6h2.3L211.9,438.9z"/>
		<path class="st1" d="M209,439.7c-1.1,0-2.1-0.9-2.1-2.1c0-0.6,0.3-1.2,0.7-1.6v-0.6c-0.7,0.5-1.2,1.3-1.2,2.2
			c0,1.5,1.2,2.6,2.6,2.6c1.1,0,2-0.6,2.4-1.6L211,438C210.8,439,210,439.7,209,439.7"/>
	</g>
</g>
<g>
	<path class="st0" d="M227.3,445.9h-7.6c-1,0-1.9-0.8-1.9-1.9v-7.6c0-1,0.8-1.9,1.9-1.9h7.6c1,0,1.9,0.8,1.9,1.9v7.6
		C229.2,445.1,228.3,445.9,227.3,445.9z"/>
	<g>
		<circle class="st1" cx="226.6" cy="436.4" r="0.8"/>
		<path class="st1" d="M225.8,437.3h0.8h0.8c0.8,0,1,0.2,1,1v2.4c0,0.5-0.6,0.5-0.6,0l-0.1-2.2h-0.2v6c0,0.6-0.9,0.6-0.9,0l-0.1-3.5
			h-0.2l-0.1,3.5c0,0.6-0.9,0.6-0.9,0v-6h-0.2l-0.1,2.2c0,0.5-0.6,0.5-0.6,0v-2.4C224.8,437.5,225,437.3,225.8,437.3z"/>
		<circle class="st1" cx="220.7" cy="436.4" r="0.8"/>
		<path class="st1" d="M218.6,440.2l0.7-2.2c0.1-0.4,0.5-0.7,1.1-0.7h0.7c0.6,0,1,0.3,1.1,0.7l0.7,2.2c0.1,0.5-0.4,0.6-0.6,0.2
			l-0.7-2h-0.1c0,0,0.9,3.6,1,3.7c0,0.1,0,0.1-0.1,0.1h-0.8v2.4c0,0.5-0.7,0.5-0.7,0v-2.4h-0.3v2.4c0,0.5-0.7,0.5-0.7,0v-2.4h-0.8
			c-0.1,0-0.1,0-0.1-0.1s1-3.7,1-3.7h-0.1l-0.7,2C219,440.8,218.4,440.7,218.6,440.2z"/>
		<path class="st1" d="M223.4,444.6c0,0.2,0.2,0.4,0.4,0.4s0.4-0.2,0.4-0.4V436c0-0.2-0.2-0.4-0.4-0.4s-0.4,0.2-0.4,0.4V444.6z"/>
	</g>
</g>
<g>
	<path class="st2" d="M420.4,401.3c7.8,0,15.5-0.3,23.1,0.1c9.7,0.5,17.1,9.1,16.9,19c-0.2,9.6-8.1,17.7-17.8,18
		c-3.2,0.1-6.5,0-10.1,0c0,3.2,0,6.3,0,9.4c0,3,0,6,0,9.1c-4.2,0-8.1,0-12.2,0C420.4,438.3,420.4,419.9,420.4,401.3z M432.7,425.9
		c3.1,0,5.9,0,8.8,0c0.4,0,0.9,0,1.3,0c3.1-0.2,5.6-2.5,5.9-5.5c0.3-3.2-1.6-6.3-4.7-6.7c-3.7-0.4-7.4-0.1-11.2-0.1
		C432.7,417.8,432.7,421.8,432.7,425.9z"/>
	<path class="st1" d="M432.7,425.9c0-4.2,0-8.1,0-12.2c3.7,0,7.5-0.3,11.2,0.1c3.1,0.3,5,3.5,4.7,6.7c-0.3,3-2.7,5.2-5.9,5.5
		c-0.4,0-0.9,0-1.3,0C438.6,425.9,435.8,425.9,432.7,425.9z"/>
</g>
<g class="st3">
	<path class="st4" d="M172.3,278.6c-0.9,0.7-2,0.8-3.2,0c-1.5-0.9-3.2-1.1-4.8-0.2c-1.5,0.9-2.9,0.9-4.3-0.3c1.3-1.2,2.7-2.5,4-3.8
		c-1.7-2.2-3.6-3.5-6.3-3.4c0-1.1,0-2,0-3.1c2.1-0.1,4.1,0.1,5.6,1.5C166.4,272.3,169.3,275.5,172.3,278.6z"/>
	<path class="st4" d="M179,282.4c0,0.8,0,1.5,0,2.5c-0.9-0.3-1.8-0.5-2.5-0.9c-1.1-0.6-2.1-0.7-3.2,0c-1.7,1-3.5,1-5.2,0
		c-1-0.6-2-0.6-3,0c-1.8,1.1-3.6,1.1-5.4,0c-1-0.6-1.9-0.5-2.9,0c-0.8,0.4-1.7,0.7-2.7,1.1c0-1.1,0-1.8,0-2.6
		c0.6-0.3,1.1-0.5,1.6-0.7c1.7-0.9,3.4-1,5,0c1.2,0.7,2.2,0.7,3.4,0c1.7-1,3.4-1,5.1,0c1.1,0.7,2.1,0.7,3.2,0c1.7-1,3.4-1,5.2,0
		C177.9,281.9,178.4,282.1,179,282.4z"/>
	<path class="st4" d="M179,288c0,0.7,0,1.5,0,2.5c-0.9-0.3-1.8-0.5-2.6-0.9c-1.1-0.6-2.1-0.6-3.1,0c-1.7,1-3.5,1.1-5.2,0
		c-1.1-0.7-2.1-0.6-3.1,0c-1.7,1-3.5,1-5.2,0c-1.1-0.6-2-0.6-3.1,0c-0.7,0.4-1.6,0.6-2.5,1c0-1,0-1.8,0-2.6c0.5-0.2,1-0.4,1.6-0.7
		c1.7-0.9,3.4-1,5.1,0c1.1,0.7,2.2,0.7,3.3,0c1.7-1,3.5-1,5.1,0c1.1,0.7,2.1,0.6,3.1,0c1.7-1,3.5-1,5.2,0
		C178,287.6,178.5,287.8,179,288z"/>
	<path class="st4" d="M175.3,270.9c0,1.7-1.3,3.1-3.1,3.2c-1.7,0-3.2-1.3-3.2-3c-0.1-1.8,1.4-3.2,3.1-3.2
		C173.8,267.8,175.2,269.2,175.3,270.9z"/>
</g>
</svg>
