<?xml version="1.0" encoding="utf-8"?>
<!-- Generator: Adobe Illustrator 21.0.0, SVG Export Plug-In . SVG Version: 6.00 Build 0)  -->
<svg version="1.1" id="icones" xmlns="http://www.w3.org/2000/svg" xmlns:xlink="http://www.w3.org/1999/xlink" x="0px" y="0px"
	 viewBox="0 0 423 403.5" style="enable-background:new 0 0 423 403.5;" xml:space="preserve">
<style type="text/css">
	.st0{fill:#1D1D1B;}
	.st1{fill:#FFFFFF;}
	.st2{fill:#1D1C1A;}
</style>
<g>
	<path class="st0" d="M212.5,202.8H205c-1,0-1.9-0.8-1.9-1.9v-7.6c0-1,0.8-1.9,1.9-1.9h7.6c1,0,1.9,0.8,1.9,1.9v7.6
		C214.4,202,213.6,202.8,212.5,202.8z"/>
	<polygon class="st1" points="208.8,193.4 208.8,195.9 206.7,195.9 206.7,198.4 204.6,198.4 204.6,200.8 208.8,200.8 208.8,198.4
		210.8,198.4 210.8,195.9 212.9,195.9 212.9,193.4 	"/>
</g>
<g>
	<path class="st0" d="M108.3,75.7h-7.6c-1,0-1.9-0.8-1.9-1.9v-7.6c0-1,0.8-1.9,1.9-1.9h7.6c1,0,1.9,0.8,1.9,1.9v7.6
		C110.2,74.9,109.3,75.7,108.3,75.7z"/>
	<polygon class="st1" points="104.5,66.4 104.5,68.8 102.4,68.8 102.4,71.3 100.3,71.3 100.3,73.7 104.5,73.7 104.5,71.3
		106.6,71.3 106.6,68.8 108.7,68.8 108.7,66.4 	"/>
</g>
<g>
	<g>
		<g>
			<path class="st2" d="M185.8,216.3h-7.6c-1,0-1.9-0.8-1.9-1.9v-7.6c0-1,0.8-1.9,1.9-1.9h7.6c1,0,1.9,0.8,1.9,1.9v7.6
				C187.7,215.5,186.9,216.3,185.8,216.3z"/>
			<g>
				<path class="st1" d="M180.6,215.3h-2.1c-0.5,0-0.9-0.4-0.9-0.9V207c0-0.5,0.4-0.9,0.9-0.9h2.1c0.5,0,0.9,0.4,0.9,0.9v7.3
					C181.5,214.8,181.1,215.3,180.6,215.3z"/>
				<path class="st1" d="M185.6,215.3h-2.1c-0.5,0-0.9-0.4-0.9-0.9V207c0-0.5,0.4-0.9,0.9-0.9h2.1c0.5,0,0.9,0.4,0.9,0.9v7.3
					C186.5,214.8,186.1,215.3,185.6,215.3z"/>
			</g>
		</g>
		<path class="st2" d="M181,210l-1.4-1.4c-0.1-0.1-0.2-0.1-0.2,0l-1.4,1.4c-0.1,0.1,0,0.3,0.1,0.3h0.8v2.2c0,0.2,0.2,0.4,0.4,0.4
			h0.5c0.2,0,0.4-0.2,0.4-0.4v-2.2h0.8C181,210.3,181.1,210.1,181,210z"/>
		<path class="st2" d="M183,211.3l1.4,1.4c0.1,0.1,0.2,0.1,0.2,0l1.4-1.4c0.1-0.1,0-0.3-0.1-0.3h-0.8v-2.2c0-0.2-0.2-0.4-0.4-0.4
			h-0.5c-0.2,0-0.4,0.2-0.4,0.4v2.2h-0.8C182.9,211.1,182.9,211.2,183,211.3z"/>
	</g>
	<g>
		<path class="st2" d="M161.7,212.2h-7.6c-1,0-1.9-0.8-1.9-1.9v-7.6c0-1,0.8-1.9,1.9-1.9h7.6c1,0,1.9,0.8,1.9,1.9v7.6
			C163.6,211.4,162.7,212.2,161.7,212.2z"/>
		<g>
			<circle class="st1" cx="157.9" cy="202.6" r="0.8"/>
			<path class="st1" d="M160,206.4l-0.7-2.2c-0.1-0.4-0.5-0.7-1.1-0.7h-0.7c-0.6,0-1,0.3-1.1,0.7l-0.7,2.2c-0.1,0.5,0.4,0.6,0.6,0.2
				l0.7-2h0.1c0,0-0.9,3.6-1,3.7c0,0.1,0,0.1,0.1,0.1c0,0,0.8,0,0.8,0l0,2.4c0,0.5,0.7,0.5,0.7,0v-2.4h0.3l0,2.4
				c0,0.5,0.7,0.5,0.7,0l0-2.4c0,0,0.8,0,0.8,0c0.1,0,0.1,0,0.1-0.1c0-0.1-1-3.7-1-3.7h0.1l0.7,2C159.6,207.1,160.1,206.9,160,206.4
				z"/>
		</g>
	</g>
	<g>
		<path class="st2" d="M172.7,229.6h-7.6c-1,0-1.9-0.8-1.9-1.9v-7.6c0-1,0.8-1.9,1.9-1.9h7.6c1,0,1.9,0.8,1.9,1.9v7.6
			C174.6,228.7,173.7,229.6,172.7,229.6z"/>
		<g>
			<circle class="st1" cx="168.9" cy="219.9" r="0.8"/>
			<path class="st1" d="M169.8,220.9l-0.8,0l-0.8,0c-0.8,0-1,0.2-1,1v2.4c0,0.5,0.6,0.5,0.6,0l0.1-2.2h0.2v6.1c0,0.6,0.9,0.6,0.9,0
				l0.1-3.5h0.2l0.1,3.5c0,0.6,0.9,0.6,0.9,0v-6.1h0.2l0.1,2.2c0,0.5,0.6,0.5,0.6,0v-2.4C170.8,221.1,170.5,220.9,169.8,220.9z"/>
		</g>
	</g>
	<g>
		<path class="st2" d="M182.5,200.9h-7.6c-1,0-1.9-0.8-1.9-1.9v-7.6c0-1,0.8-1.9,1.9-1.9h7.6c1,0,1.9,0.8,1.9,1.9v7.6
			C184.3,200.1,183.5,200.9,182.5,200.9z"/>
		<g>
			<polygon class="st1" points="179.1,191.4 179.1,199.1 178.4,199.1 178.4,191.4 179.1,191.4 			"/>
			<path class="st1" d="M178.7,195.3"/>
			<path class="st1" d="M176.1,192.6c0.4,0,0.6-0.3,0.6-0.6c0-0.4-0.3-0.6-0.6-0.6c-0.4,0-0.6,0.3-0.6,0.6
				C175.4,192.3,175.7,192.6,176.1,192.6L176.1,192.6z"/>
			<path class="st1" d="M176,196.7v2.2c0,0.4-0.6,0.4-0.6,0v-2.2h-0.8l0.9-3h-0.1l-0.5,1.7c-0.1,0.4-0.6,0.2-0.5-0.2l0.6-1.8
				c0.1-0.2,0.3-0.6,0.8-0.6h0.4l0,0h0.5c0.5,0,0.7,0.4,0.8,0.6l0.6,1.8c0.1,0.4-0.4,0.6-0.5,0.2l-0.5-1.7h-0.1l0.9,3h-0.8v2.2
				c0,0.4-0.6,0.4-0.6,0v-2.2H176L176,196.7z"/>
			<path class="st1" d="M180.6,192.8c-0.4,0-0.8,0.4-0.8,0.8v2c0,0.4,0.6,0.4,0.6,0v-1.8h0.1v5c0,0.5,0.7,0.5,0.7,0v-2.9h0.1v2.9
				c0,0.5,0.7,0.5,0.7,0v-5h0.1v1.8c0,0.4,0.5,0.4,0.5,0v-2c0-0.4-0.3-0.8-0.8-0.8L180.6,192.8L180.6,192.8z"/>
			<path class="st1" d="M181.3,192.6c0.4,0,0.6-0.3,0.6-0.6c0-0.4-0.3-0.6-0.6-0.6c-0.4,0-0.6,0.3-0.6,0.6
				C180.6,192.3,180.9,192.6,181.3,192.6L181.3,192.6z"/>
		</g>
	</g>
</g>
</svg>
