<?xml version="1.0" encoding="utf-8"?>
<!-- Generator: Adobe Illustrator 20.1.0, SVG Export Plug-In . SVG Version: 6.00 Build 0)  -->
<svg version="1.1" id="textes" xmlns="http://www.w3.org/2000/svg" xmlns:xlink="http://www.w3.org/1999/xlink" x="0px" y="0px"
	 viewBox="0 0 1136 1268" style="enable-background:new 0 0 1136 1268;" xml:space="preserve">
<style type="text/css">
	.st0{fill:#FFFFFF;}
	.st1{fill:#231F20;}
	.st2{fill:#F1F2F2;}
</style>
<g>
	<path d="M551.4,310.4h-85.2c-1.4,0-2.5-1.1-2.5-2.5v-11.3c0-1.4,1.1-2.5,2.5-2.5h85.2c1.4,0,2.5,1.1,2.5,2.5v11.3
		C553.9,309.3,552.8,310.4,551.4,310.4z"/>
	<g>
		<path class="st0" d="M478.5,305.6c-0.4,0.1-1,0.3-1.9,0.3s-1.7-0.2-2.3-0.8c-0.5-0.5-0.8-1.3-0.8-2.3c0-1.8,1.2-3.1,3.3-3.1
			c0.7,0,1.2,0.2,1.5,0.3l-0.2,0.6c-0.3-0.1-0.7-0.3-1.3-0.3c-1.5,0-2.4,0.9-2.4,2.4s0.9,2.4,2.3,2.4c0.5,0,0.9-0.1,1-0.2v-1.8h-1.2
			v-0.6h2V305.6L478.5,305.6z"/>
		<path class="st0" d="M480,301.5l1,2.6c0.1,0.3,0.2,0.6,0.3,0.9l0,0c0.1-0.3,0.2-0.6,0.3-0.9l0.9-2.6h0.8l-1.2,3.1
			c-0.6,1.5-1,2.3-1.5,2.7c-0.4,0.3-0.8,0.5-1,0.5l-0.2-0.7c0.2-0.1,0.5-0.2,0.7-0.4c0.2-0.2,0.5-0.5,0.7-0.9c0-0.1,0.1-0.1,0.1-0.2
			s0-0.1-0.1-0.2l-1.6-4L480,301.5L480,301.5z"/>
		<path class="st0" d="M484,302.7c0-0.5,0-0.8,0-1.2h0.7v0.7l0,0c0.2-0.4,0.6-0.8,1.4-0.8c0.6,0,1,0.4,1.2,0.9l0,0
			c0.1-0.2,0.3-0.4,0.5-0.6c0.3-0.2,0.5-0.3,1-0.3c0.6,0,1.4,0.4,1.4,1.9v2.6h-0.8v-2.5c0-0.8-0.3-1.3-0.9-1.3
			c-0.5,0-0.8,0.3-0.9,0.7c0,0.1-0.1,0.3-0.1,0.4v2.7h-0.8v-2.6c0-0.7-0.3-1.2-0.9-1.2c-0.5,0-0.9,0.4-1,0.8c0,0.1-0.1,0.3-0.1,0.4
			v2.6h-0.8L484,302.7L484,302.7z"/>
		<path class="st0" d="M491.5,302.7c0-0.5,0-0.8,0-1.2h0.7v0.7l0,0c0.2-0.4,0.7-0.8,1.4-0.8c0.6,0,1.5,0.4,1.5,1.9v2.6h-0.8v-2.5
			c0-0.7-0.3-1.3-1-1.3c-0.5,0-0.9,0.4-1.1,0.8c0,0.1-0.1,0.2-0.1,0.4v2.6h-0.8v-3.2H491.5z"/>
		<path class="st0" d="M498.8,305.8l-0.1-0.5l0,0c-0.2,0.3-0.7,0.6-1.3,0.6c-0.9,0-1.3-0.6-1.3-1.2c0-1.1,0.9-1.6,2.6-1.6V303
			c0-0.4-0.1-1-1-1c-0.4,0-0.8,0.1-1.1,0.3l-0.2-0.5c0.4-0.2,0.9-0.4,1.4-0.4c1.3,0,1.7,0.9,1.7,1.8v1.6c0,0.4,0,0.7,0.1,1H498.8
			L498.8,305.8z M498.7,303.6c-0.9,0-1.8,0.1-1.8,1c0,0.5,0.3,0.8,0.7,0.8c0.6,0,0.9-0.4,1.1-0.7c0-0.1,0-0.2,0-0.3L498.7,303.6
			L498.7,303.6z"/>
		<path class="st0" d="M500.7,305c0.2,0.2,0.6,0.3,1,0.3c0.6,0,0.8-0.3,0.8-0.6c0-0.4-0.2-0.6-0.8-0.8c-0.8-0.3-1.1-0.7-1.1-1.2
			c0-0.7,0.6-1.3,1.5-1.3c0.4,0,0.8,0.1,1.1,0.3l-0.2,0.6c-0.2-0.1-0.5-0.3-0.9-0.3c-0.5,0-0.7,0.3-0.7,0.6c0,0.4,0.3,0.5,0.8,0.7
			c0.8,0.3,1.1,0.7,1.1,1.3c0,0.8-0.6,1.3-1.6,1.3c-0.5,0-0.9-0.1-1.2-0.3L500.7,305z"/>
		<path class="st0" d="M504.8,303.8c0,1.1,0.7,1.5,1.5,1.5c0.6,0,0.9-0.1,1.2-0.2l0.1,0.6c-0.3,0.1-0.8,0.3-1.4,0.3
			c-1.3,0-2.1-0.9-2.1-2.2s0.8-2.3,2-2.3c1.4,0,1.8,1.2,1.8,2c0,0.2,0,0.3,0,0.4L504.8,303.8L504.8,303.8z M507.1,303.2
			c0-0.5-0.2-1.3-1.1-1.3c-0.8,0-1.1,0.7-1.2,1.3H507.1z"/>
		<path class="st0" d="M508.7,305c0.2,0.2,0.6,0.3,1,0.3c0.6,0,0.8-0.3,0.8-0.6c0-0.4-0.2-0.6-0.8-0.8c-0.8-0.3-1.1-0.7-1.1-1.2
			c0-0.7,0.6-1.3,1.5-1.3c0.4,0,0.8,0.1,1.1,0.3l-0.2,0.6c-0.2-0.1-0.5-0.3-0.9-0.3c-0.5,0-0.7,0.3-0.7,0.6c0,0.4,0.3,0.5,0.8,0.7
			c0.8,0.3,1.1,0.7,1.1,1.3c0,0.8-0.6,1.3-1.6,1.3c-0.5,0-0.9-0.1-1.2-0.3L508.7,305z"/>
		<path class="st0" d="M515.3,303.9l-0.6,1.9h-0.8l2.1-6.1h0.9l2.1,6.1h-0.8l-0.6-1.9H515.3z M517.3,303.3l-0.6-1.7
			c-0.1-0.4-0.2-0.8-0.3-1.1l0,0c-0.1,0.4-0.2,0.7-0.3,1.1l-0.6,1.8L517.3,303.3L517.3,303.3z"/>
		<path class="st0" d="M519.3,306.9c0.2-0.5,0.4-1.5,0.5-2.1l0.9-0.1c-0.2,0.8-0.6,1.8-0.9,2.2H519.3z"/>
		<path class="st0" d="M523.6,299.9c0.3-0.1,0.9-0.1,1.4-0.1c0.8,0,1.3,0.1,1.7,0.4c0.3,0.2,0.5,0.6,0.5,1.1c0,0.6-0.4,1.1-1,1.3
			l0,0c0.6,0.1,1.3,0.6,1.3,1.5c0,0.5-0.2,0.9-0.5,1.2c-0.4,0.4-1.1,0.6-2.1,0.6c-0.5,0-1,0-1.2-0.1L523.6,299.9L523.6,299.9z
			 M524.4,302.3h0.7c0.8,0,1.3-0.4,1.3-1c0-0.7-0.5-1-1.3-1c-0.4,0-0.6,0-0.7,0.1V302.3L524.4,302.3z M524.4,305.2
			c0.2,0,0.4,0,0.7,0c0.8,0,1.6-0.3,1.6-1.2c0-0.8-0.7-1.2-1.6-1.2h-0.6v2.4H524.4z"/>
		<path class="st0" d="M530.8,303.8c0,1.1,0.7,1.5,1.5,1.5c0.6,0,0.9-0.1,1.2-0.2l0.1,0.6c-0.3,0.1-0.8,0.3-1.4,0.3
			c-1.3,0-2.1-0.9-2.1-2.2s0.8-2.3,2-2.3c1.4,0,1.8,1.2,1.8,2c0,0.2,0,0.3,0,0.4L530.8,303.8L530.8,303.8z M533.1,303.2
			c0-0.5-0.2-1.3-1.1-1.3c-0.8,0-1.2,0.7-1.2,1.3H533.1z"/>
		<path class="st0" d="M535.8,300.2v1.2h1.1v0.6h-1.1v2.3c0,0.5,0.2,0.8,0.6,0.8c0.2,0,0.4,0,0.5-0.1v0.6c-0.2,0.1-0.4,0.1-0.7,0.1
			c-0.4,0-0.7-0.1-0.9-0.3c-0.2-0.2-0.3-0.6-0.3-1.1v-2.4h-0.7v-0.6h0.7v-1L535.8,300.2z"/>
		<path class="st0" d="M544,305.6c-0.3,0.1-0.9,0.3-1.6,0.3c-1.7,0-3-1.1-3-3.1c0-1.9,1.3-3.2,3.2-3.2c0.8,0,1.2,0.2,1.4,0.3
			l-0.2,0.6c-0.3-0.1-0.7-0.3-1.2-0.3c-1.4,0-2.4,0.9-2.4,2.5c0,1.5,0.9,2.4,2.3,2.4c0.5,0,1-0.1,1.3-0.3L544,305.6z"/>
	</g>
</g>
<g>
	<path d="M919.9,866.1H807.2c-1.4,0-2.5-1.1-2.5-2.5v-11.3c0-1.4,1.1-2.5,2.5-2.5h112.7c1.4,0,2.5,1.1,2.5,2.5v11.3
		C922.4,864.9,921.3,866.1,919.9,866.1z"/>
	<g>
		<path class="st0" d="M811.4,854.6c0.5-0.1,1-0.1,1.7-0.1c1.1,0,1.9,0.3,2.5,0.8c0.5,0.5,0.9,1.2,0.9,2.2s-0.3,1.8-0.9,2.4
			c-0.6,0.6-1.5,0.9-2.7,0.9c-0.6,0-1,0-1.4-0.1L811.4,854.6L811.4,854.6z M812.2,859.9c0.2,0,0.5,0,0.8,0c1.7,0,2.6-0.9,2.6-2.6
			c0-1.4-0.8-2.3-2.5-2.3c-0.4,0-0.7,0-0.9,0.1L812.2,859.9L812.2,859.9z"/>
		<path class="st0" d="M817.3,859.6c0.4,0.2,0.9,0.4,1.4,0.4c0.8,0,1.3-0.4,1.3-1s-0.3-0.9-1.1-1.2c-1-0.4-1.6-0.9-1.6-1.7
			c0-0.9,0.8-1.6,2-1.6c0.6,0,1.1,0.1,1.3,0.3l-0.2,0.6c-0.2-0.1-0.6-0.3-1.2-0.3c-0.8,0-1.1,0.5-1.1,0.9c0,0.6,0.4,0.8,1.2,1.2
			c1,0.4,1.5,0.9,1.5,1.8c0,0.9-0.7,1.7-2.1,1.7c-0.6,0-1.2-0.2-1.5-0.4L817.3,859.6z"/>
		<path class="st0" d="M825,857.7h-2.4v2.2h2.6v0.7h-3.4v-6.1h3.3v0.7h-2.5v1.9h2.4L825,857.7L825,857.7z"/>
		<path class="st0" d="M826.3,854.5h3.3v0.7H827v2h2.3v0.6H827v2.7h-0.8L826.3,854.5L826.3,854.5z"/>
		<path class="st0" d="M834.9,860.4c-0.3,0.1-0.9,0.3-1.6,0.3c-1.7,0-3-1.1-3-3.1c0-1.9,1.3-3.2,3.2-3.2c0.8,0,1.2,0.2,1.4,0.3
			l-0.2,0.6c-0.3-0.1-0.7-0.3-1.2-0.3c-1.4,0-2.4,0.9-2.4,2.5c0,1.5,0.9,2.4,2.3,2.4c0.5,0,1-0.1,1.3-0.3L834.9,860.4z"/>
		<path class="st0" d="M839.4,854.3c-0.7,0.9-1.1,2-1.1,3.7c0,1.6,0.5,2.8,1.1,3.6h-0.6c-0.6-0.7-1.2-1.9-1.2-3.6
			c0-1.8,0.6-2.9,1.2-3.7H839.4z"/>
		<path class="st0" d="M840.3,854.5h3.3v0.7h-2.5v2h2.3v0.6h-2.3v2.7h-0.8V854.5L840.3,854.5z"/>
		<path class="st0" d="M848.3,858.4c0,1.6-1.1,2.3-2.2,2.3c-1.2,0-2.1-0.9-2.1-2.2c0-1.5,1-2.3,2.2-2.3
			C847.5,856.1,848.3,857,848.3,858.4z M844.9,858.4c0,1,0.5,1.7,1.3,1.7s1.3-0.7,1.3-1.7c0-0.7-0.4-1.7-1.3-1.7
			S844.9,857.6,844.9,858.4z"/>
		<path class="st0" d="M849.3,857.6c0-0.5,0-1,0-1.4h0.7v0.9l0,0c0.2-0.6,0.7-1,1.2-1c0.1,0,0.2,0,0.2,0v0.7c-0.1,0-0.2,0-0.3,0
			c-0.6,0-1,0.4-1.1,1c0,0.1,0,0.2,0,0.4v2.3h-0.8L849.3,857.6L849.3,857.6z"/>
		<path class="st0" d="M852.3,857.4c0-0.4,0-0.8,0-1.2h0.7v0.7l0,0c0.2-0.4,0.6-0.8,1.4-0.8c0.6,0,1,0.4,1.2,0.9l0,0
			c0.1-0.2,0.3-0.4,0.5-0.6c0.3-0.2,0.5-0.3,1-0.3c0.6,0,1.4,0.4,1.4,1.9v2.6h-0.8v-2.5c0-0.8-0.3-1.3-0.9-1.3
			c-0.4,0-0.8,0.3-0.9,0.7c0,0.1-0.1,0.3-0.1,0.4v2.7H855V858c0-0.7-0.3-1.2-0.9-1.2c-0.5,0-0.9,0.4-1,0.8c0,0.1-0.1,0.3-0.1,0.4
			v2.6h-0.8L852.3,857.4L852.3,857.4z"/>
		<path class="st0" d="M862.2,860.6l-0.1-0.5l0,0c-0.2,0.3-0.7,0.6-1.3,0.6c-0.9,0-1.3-0.6-1.3-1.2c0-1.1,0.9-1.6,2.6-1.6v-0.1
			c0-0.4-0.1-1-1-1c-0.4,0-0.8,0.1-1.1,0.3l-0.2-0.5c0.4-0.2,0.9-0.4,1.4-0.4c1.3,0,1.7,0.9,1.7,1.8v1.6c0,0.4,0,0.7,0.1,1
			L862.2,860.6L862.2,860.6z M862.1,858.3c-0.9,0-1.8,0.1-1.8,1c0,0.5,0.3,0.8,0.7,0.8c0.6,0,0.9-0.4,1.1-0.7c0-0.1,0-0.2,0-0.3
			V858.3L862.1,858.3z"/>
		<path class="st0" d="M865,855v1.3h1.1v0.6H865v2.3c0,0.5,0.2,0.8,0.6,0.8c0.2,0,0.4,0,0.5-0.1v0.6c-0.2,0.1-0.4,0.1-0.7,0.1
			c-0.4,0-0.7-0.1-0.9-0.3s-0.3-0.6-0.3-1.1v-2.4h-0.7v-0.6h0.7v-1L865,855z"/>
		<path class="st0" d="M867.9,855c0,0.3-0.2,0.5-0.5,0.5s-0.5-0.2-0.5-0.5s0.2-0.5,0.5-0.5C867.8,854.5,867.9,854.7,867.9,855z
			 M867.1,860.6v-4.3h0.8v4.3H867.1z"/>
		<path class="st0" d="M873.1,858.4c0,1.6-1.1,2.3-2.2,2.3c-1.2,0-2.1-0.9-2.1-2.2c0-1.5,1-2.3,2.2-2.3
			C872.3,856.1,873.1,857,873.1,858.4z M869.7,858.4c0,1,0.5,1.7,1.3,1.7s1.3-0.7,1.3-1.7c0-0.7-0.4-1.7-1.3-1.7
			S869.7,857.6,869.7,858.4z"/>
		<path class="st0" d="M874.1,857.4c0-0.4,0-0.8,0-1.2h0.7v0.7l0,0c0.2-0.4,0.7-0.8,1.4-0.8c0.6,0,1.5,0.4,1.5,1.9v2.6H877v-2.5
			c0-0.7-0.3-1.3-1-1.3c-0.5,0-0.9,0.4-1.1,0.8c0,0.1-0.1,0.2-0.1,0.4v2.6H874L874.1,857.4L874.1,857.4z"/>
		<path class="st0" d="M884.1,860.4c-0.2,0.1-0.7,0.3-1.2,0.3c-1.3,0-2.2-0.9-2.2-2.2s0.9-2.3,2.3-2.3c0.5,0,0.9,0.1,1.1,0.2
			l-0.2,0.6c-0.2-0.1-0.5-0.2-0.9-0.2c-1,0-1.5,0.7-1.5,1.6c0,1,0.6,1.6,1.5,1.6c0.4,0,0.7-0.1,1-0.2L884.1,860.4z"/>
		<path class="st0" d="M888.9,858.4c0,1.6-1.1,2.3-2.2,2.3c-1.2,0-2.1-0.9-2.1-2.2c0-1.5,1-2.3,2.2-2.3
			C888.1,856.1,888.9,857,888.9,858.4z M885.5,858.4c0,1,0.5,1.7,1.3,1.7s1.3-0.7,1.3-1.7c0-0.7-0.4-1.7-1.3-1.7
			S885.5,857.6,885.5,858.4z"/>
		<path class="st0" d="M889.9,857.4c0-0.4,0-0.8,0-1.2h0.7v0.7l0,0c0.2-0.4,0.7-0.8,1.4-0.8c0.6,0,1.5,0.4,1.5,1.9v2.6h-0.8v-2.5
			c0-0.7-0.3-1.3-1-1.3c-0.5,0-0.9,0.4-1.1,0.8c0,0.1-0.1,0.2-0.1,0.4v2.6h-0.8L889.9,857.4L889.9,857.4z"/>
		<path class="st0" d="M895.8,855v1.3h1.1v0.6h-1.1v2.3c0,0.5,0.2,0.8,0.6,0.8c0.2,0,0.4,0,0.5-0.1v0.6c-0.2,0.1-0.4,0.1-0.7,0.1
			c-0.4,0-0.7-0.1-0.9-0.3s-0.3-0.6-0.3-1.1v-2.4h-0.7v-0.6h0.7v-1L895.8,855z"/>
		<path class="st0" d="M898.7,855c0,0.3-0.2,0.5-0.5,0.5s-0.5-0.2-0.5-0.5s0.2-0.5,0.5-0.5S898.7,854.7,898.7,855z M897.8,860.6
			v-4.3h0.8v4.3H897.8z"/>
		<path class="st0" d="M899.9,857.4c0-0.4,0-0.8,0-1.2h0.7v0.7l0,0c0.2-0.4,0.7-0.8,1.4-0.8c0.6,0,1.5,0.4,1.5,1.9v2.6h-0.8v-2.5
			c0-0.7-0.3-1.3-1-1.3c-0.5,0-0.9,0.4-1.1,0.8c0,0.1-0.1,0.2-0.1,0.4v2.6h-0.8L899.9,857.4L899.9,857.4z"/>
		<path class="st0" d="M908.6,859.4c0,0.4,0,0.8,0,1.2h-0.7v-0.7l0,0c-0.2,0.4-0.7,0.8-1.4,0.8s-1.5-0.4-1.5-1.9v-2.5h0.8v2.4
			c0,0.8,0.3,1.4,1,1.4c0.5,0,0.9-0.4,1-0.7c0-0.1,0.1-0.3,0.1-0.4v-2.7h0.8L908.6,859.4L908.6,859.4z"/>
		<path class="st0" d="M910.3,858.5c0,1.1,0.7,1.5,1.5,1.5c0.6,0,0.9-0.1,1.2-0.2l0.1,0.6c-0.3,0.1-0.8,0.3-1.4,0.3
			c-1.3,0-2.1-0.9-2.1-2.2s0.8-2.3,2-2.3c1.4,0,1.8,1.3,1.8,2c0,0.2,0,0.3,0,0.4L910.3,858.5L910.3,858.5z M912.7,858
			c0-0.5-0.2-1.3-1.1-1.3c-0.8,0-1.2,0.7-1.2,1.3H912.7z"/>
		<path class="st0" d="M913.9,861.7c0.6-0.9,1.1-2.1,1.1-3.7c0-1.6-0.5-2.8-1.1-3.6h0.6c0.6,0.7,1.2,1.9,1.2,3.7s-0.6,2.9-1.2,3.7
			h-0.6V861.7z"/>
	</g>
</g>
<g>
	<path d="M893.5,945.5h-56.4c-1.4,0-2.5-1.1-2.5-2.5v-11.3c0-1.4,1.1-2.5,2.5-2.5h56.4c1.4,0,2.5,1.1,2.5,2.5V943
		C896,944.3,894.9,945.5,893.5,945.5z"/>
	<g>
		<path class="st0" d="M845.8,939.8c-0.3,0.1-0.9,0.3-1.6,0.3c-1.7,0-3-1.1-3-3.1c0-1.9,1.3-3.2,3.2-3.2c0.8,0,1.2,0.2,1.4,0.3
			l-0.2,0.6c-0.3-0.1-0.7-0.3-1.2-0.3c-1.4,0-2.4,0.9-2.4,2.5c0,1.5,0.9,2.4,2.3,2.4c0.5,0,1-0.1,1.3-0.3L845.8,939.8z"/>
		<path class="st0" d="M850.6,937.7c0,1.6-1.1,2.3-2.2,2.3c-1.2,0-2.1-0.9-2.1-2.2c0-1.5,1-2.3,2.2-2.3S850.6,936.4,850.6,937.7z
			 M847.1,937.8c0,1,0.5,1.7,1.3,1.7s1.3-0.7,1.3-1.7c0-0.7-0.4-1.7-1.3-1.7S847.1,937,847.1,937.8z"/>
		<path class="st0" d="M851.6,936.8c0-0.4,0-0.8,0-1.2h0.7v0.7l0,0c0.2-0.4,0.6-0.8,1.4-0.8c0.6,0,1,0.4,1.2,0.9l0,0
			c0.1-0.2,0.3-0.4,0.5-0.6c0.3-0.2,0.5-0.3,1-0.3c0.6,0,1.4,0.4,1.4,1.9v2.6H857v-2.5c0-0.8-0.3-1.3-0.9-1.3
			c-0.4,0-0.8,0.3-0.9,0.7c0,0.1-0.1,0.3-0.1,0.4v2.7h-0.8v-2.6c0-0.7-0.3-1.2-0.9-1.2c-0.5,0-0.9,0.4-1,0.8c0,0.1-0.1,0.3-0.1,0.4
			v2.6h-0.8L851.6,936.8L851.6,936.8z"/>
		<path class="st0" d="M859.1,937c0-0.6,0-1,0-1.4h0.7v0.7l0,0c0.3-0.5,0.8-0.8,1.5-0.8c1.1,0,1.8,0.9,1.8,2.2c0,1.6-1,2.3-2,2.3
			c-0.6,0-1.1-0.3-1.3-0.7l0,0v2.4H859L859.1,937L859.1,937z M859.8,938.2c0,0.1,0,0.2,0,0.3c0.1,0.5,0.6,0.9,1.2,0.9
			c0.8,0,1.3-0.7,1.3-1.7c0-0.9-0.5-1.6-1.3-1.6c-0.5,0-1,0.4-1.2,1c0,0.1-0.1,0.2-0.1,0.3L859.8,938.2L859.8,938.2z"/>
		<path class="st0" d="M865.1,934.4v1.3h1.1v0.6h-1.1v2.3c0,0.5,0.2,0.8,0.6,0.8c0.2,0,0.4,0,0.5-0.1v0.6c-0.2,0.1-0.4,0.1-0.7,0.1
			c-0.4,0-0.7-0.1-0.9-0.3s-0.3-0.6-0.3-1.1v-2.4h-0.7v-0.6h0.7v-1L865.1,934.4z"/>
		<path class="st0" d="M869.6,940l-0.1-0.5l0,0c-0.2,0.3-0.7,0.6-1.3,0.6c-0.9,0-1.3-0.6-1.3-1.2c0-1.1,0.9-1.6,2.6-1.6v-0.1
			c0-0.4-0.1-1-1-1c-0.4,0-0.8,0.1-1.1,0.3l-0.2-0.5c0.4-0.2,0.9-0.4,1.4-0.4c1.3,0,1.7,0.9,1.7,1.8v1.6c0,0.4,0,0.7,0.1,1
			L869.6,940L869.6,940z M869.5,937.7c-0.9,0-1.8,0.1-1.8,1c0,0.5,0.3,0.8,0.7,0.8c0.6,0,0.9-0.4,1.1-0.7c0-0.1,0-0.2,0-0.3V937.7
			L869.5,937.7z"/>
		<path class="st0" d="M871.5,940c0-0.3,0-0.7,0-1.1v-5.3h0.8v2.7l0,0c0.3-0.5,0.8-0.8,1.5-0.8c1.1,0,1.8,0.9,1.8,2.2
			c0,1.6-1,2.3-2,2.3c-0.6,0-1.1-0.2-1.5-0.8l0,0v0.7L871.5,940L871.5,940z M872.3,938.2c0,0.1,0,0.2,0,0.3c0.2,0.5,0.6,0.9,1.2,0.9
			c0.8,0,1.3-0.7,1.3-1.7c0-0.9-0.4-1.6-1.3-1.6c-0.5,0-1,0.4-1.2,1c0,0.1,0,0.2,0,0.3V938.2z"/>
		<path class="st0" d="M877.5,934.4c0,0.3-0.2,0.5-0.5,0.5s-0.5-0.2-0.5-0.5s0.2-0.5,0.5-0.5S877.5,934.1,877.5,934.4z M876.6,940
			v-4.3h0.8v4.3H876.6z"/>
		<path class="st0" d="M878.7,933.6h0.8v6.4h-0.8V933.6z"/>
		<path class="st0" d="M881.7,934.4c0,0.3-0.2,0.5-0.5,0.5s-0.5-0.2-0.5-0.5s0.2-0.5,0.5-0.5S881.7,934.1,881.7,934.4z M880.8,940
			v-4.3h0.8v4.3H880.8z"/>
		<path class="st0" d="M883.9,934.4v1.3h1.1v0.6h-1.1v2.3c0,0.5,0.2,0.8,0.6,0.8c0.2,0,0.4,0,0.5-0.1v0.6c-0.2,0.1-0.4,0.1-0.7,0.1
			c-0.4,0-0.7-0.1-0.9-0.3s-0.3-0.6-0.3-1.1v-2.4h-0.7v-0.6h0.7v-1L883.9,934.4z"/>
		<path class="st0" d="M886.3,937.9c0,1.1,0.7,1.5,1.5,1.5c0.6,0,0.9-0.1,1.2-0.2l0.1,0.6c-0.3,0.1-0.8,0.3-1.4,0.3
			c-1.3,0-2.1-0.9-2.1-2.2s0.8-2.3,2-2.3c1.4,0,1.8,1.3,1.8,2c0,0.2,0,0.3,0,0.4L886.3,937.9L886.3,937.9z M888.6,937.4
			c0-0.5-0.2-1.3-1.1-1.3c-0.8,0-1.2,0.7-1.2,1.3H888.6z M888.8,933.7l-1.1,1.3h-0.6l0.8-1.3H888.8z"/>
	</g>
</g>
<g>
	<path d="M812.7,985.8h-65.2c-1.4,0-2.5-1.1-2.5-2.5V972c0-1.4,1.1-2.5,2.5-2.5h65.2c1.4,0,2.5,1.1,2.5,2.5v11.3
		C815.2,984.6,814.1,985.8,812.7,985.8z"/>
	<g>
		<path class="st0" d="M753.8,978.3l-0.6,1.9h-0.8l2.1-6.1h0.9l2.1,6.1h-0.8l-0.6-1.9H753.8z M755.8,977.7l-0.6-1.7
			c-0.1-0.4-0.2-0.8-0.3-1.1l0,0c-0.1,0.4-0.2,0.7-0.3,1.1l-0.6,1.8L755.8,977.7L755.8,977.7z"/>
		<path class="st0" d="M762,973.9v5.3c0,0.4,0,0.8,0,1.1h-0.7v-0.8l0,0c-0.2,0.5-0.8,0.9-1.5,0.9c-1.1,0-1.9-0.9-1.9-2.2
			c0-1.4,0.9-2.3,2-2.3c0.7,0,1.1,0.3,1.3,0.7l0,0V974h0.8V973.9z M761.2,977.7c0-0.1,0-0.2,0-0.3c-0.1-0.5-0.5-0.9-1.1-0.9
			c-0.8,0-1.3,0.7-1.3,1.7c0,0.9,0.4,1.6,1.3,1.6c0.5,0,1-0.4,1.2-0.9c0-0.1,0-0.2,0-0.3L761.2,977.7L761.2,977.7z"/>
		<path class="st0" d="M763.3,977.1c0-0.4,0-0.8,0-1.2h0.7v0.7l0,0c0.2-0.4,0.6-0.8,1.4-0.8c0.6,0,1,0.4,1.2,0.9l0,0
			c0.1-0.2,0.3-0.4,0.5-0.6c0.3-0.2,0.5-0.3,1-0.3c0.6,0,1.4,0.4,1.4,1.9v2.6h-0.8v-2.5c0-0.8-0.3-1.3-0.9-1.3
			c-0.4,0-0.8,0.3-0.9,0.7c0,0.1-0.1,0.3-0.1,0.4v2.7H766v-2.6c0-0.7-0.3-1.2-0.9-1.2c-0.5,0-0.9,0.4-1,0.8c0,0.1-0.1,0.3-0.1,0.4
			v2.6h-0.8L763.3,977.1L763.3,977.1z"/>
		<path class="st0" d="M771.7,974.7c0,0.3-0.2,0.5-0.5,0.5s-0.5-0.2-0.5-0.5s0.2-0.5,0.5-0.5S771.7,974.4,771.7,974.7z M770.8,980.3
			V976h0.8v4.3H770.8z"/>
		<path class="st0" d="M772.9,977.1c0-0.4,0-0.8,0-1.2h0.7v0.7l0,0c0.2-0.4,0.7-0.8,1.4-0.8c0.6,0,1.5,0.4,1.5,1.9v2.6h-0.8v-2.5
			c0-0.7-0.3-1.3-1-1.3c-0.5,0-0.9,0.4-1.1,0.8c0,0.1-0.1,0.2-0.1,0.4v2.6h-0.8L772.9,977.1L772.9,977.1z"/>
		<path class="st0" d="M778.8,974.7c0,0.3-0.2,0.5-0.5,0.5s-0.5-0.2-0.5-0.5s0.2-0.5,0.5-0.5S778.8,974.4,778.8,974.7z M777.9,980.3
			V976h0.8v4.3H777.9z"/>
		<path class="st0" d="M779.9,979.4c0.2,0.2,0.6,0.3,1,0.3c0.6,0,0.8-0.3,0.8-0.6c0-0.4-0.2-0.6-0.8-0.8c-0.8-0.3-1.2-0.7-1.2-1.2
			c0-0.7,0.6-1.3,1.5-1.3c0.4,0,0.8,0.1,1.1,0.3l-0.2,0.6c-0.2-0.1-0.5-0.3-0.9-0.3c-0.5,0-0.7,0.3-0.7,0.6c0,0.4,0.3,0.5,0.8,0.7
			c0.8,0.3,1.1,0.7,1.1,1.3c0,0.8-0.6,1.3-1.6,1.3c-0.5,0-0.9-0.1-1.2-0.3L779.9,979.4z"/>
		<path class="st0" d="M784.5,974.7v1.3h1.1v0.6h-1.1v2.3c0,0.5,0.2,0.8,0.6,0.8c0.2,0,0.4,0,0.5-0.1v0.6c-0.2,0.1-0.4,0.1-0.7,0.1
			c-0.4,0-0.7-0.1-0.9-0.3s-0.3-0.6-0.3-1.1v-2.4H783v-0.6h0.7v-1L784.5,974.7z"/>
		<path class="st0" d="M786.5,977.3c0-0.5,0-1,0-1.4h0.7v0.9l0,0c0.2-0.6,0.7-1,1.2-1c0.1,0,0.2,0,0.2,0v0.7c-0.1,0-0.2,0-0.3,0
			c-0.6,0-1,0.4-1.1,1c0,0.1,0,0.2,0,0.4v2.3h-0.8L786.5,977.3L786.5,977.3z"/>
		<path class="st0" d="M791.8,980.3l-0.1-0.5l0,0c-0.2,0.3-0.7,0.6-1.3,0.6c-0.9,0-1.3-0.6-1.3-1.2c0-1.1,0.9-1.6,2.6-1.6v-0.1
			c0-0.4-0.1-1-1-1c-0.4,0-0.8,0.1-1.1,0.3l-0.2-0.5c0.4-0.2,0.9-0.4,1.4-0.4c1.3,0,1.7,0.9,1.7,1.8v1.6c0,0.4,0,0.7,0.1,1
			L791.8,980.3L791.8,980.3z M791.7,978c-0.9,0-1.8,0.1-1.8,1c0,0.5,0.3,0.8,0.7,0.8c0.6,0,0.9-0.4,1.1-0.7c0-0.1,0-0.2,0-0.3V978
			L791.7,978z"/>
		<path class="st0" d="M794.7,974.7v1.3h1.1v0.6h-1.1v2.3c0,0.5,0.2,0.8,0.6,0.8c0.2,0,0.4,0,0.5-0.1v0.6c-0.2,0.1-0.4,0.1-0.7,0.1
			c-0.4,0-0.7-0.1-0.9-0.3s-0.3-0.6-0.3-1.1v-2.4h-0.7v-0.6h0.7v-1L794.7,974.7z"/>
		<path class="st0" d="M797.6,974.7c0,0.3-0.2,0.5-0.5,0.5s-0.5-0.2-0.5-0.5s0.2-0.5,0.5-0.5C797.4,974.2,797.6,974.4,797.6,974.7z
			 M796.7,980.3V976h0.8v4.3H796.7z"/>
		<path class="st0" d="M802.7,978c0,1.6-1.1,2.3-2.2,2.3c-1.2,0-2.1-0.9-2.1-2.2c0-1.5,1-2.3,2.2-2.3
			C801.9,975.8,802.7,976.7,802.7,978z M799.3,978.1c0,1,0.5,1.7,1.3,1.7s1.3-0.7,1.3-1.7c0-0.7-0.4-1.7-1.3-1.7
			S799.3,977.3,799.3,978.1z"/>
		<path class="st0" d="M803.7,977.1c0-0.4,0-0.8,0-1.2h0.7v0.7l0,0c0.2-0.4,0.7-0.8,1.4-0.8c0.6,0,1.5,0.4,1.5,1.9v2.6h-0.8v-2.5
			c0-0.7-0.3-1.3-1-1.3c-0.5,0-0.9,0.4-1.1,0.8c0,0.1-0.1,0.2-0.1,0.4v2.6h-0.8L803.7,977.1L803.7,977.1z"/>
	</g>
</g>
<g>
	<path d="M527.4,861.5h-85.2c-1.4,0-2.5-1.1-2.5-2.5v-11.3c0-1.4,1.1-2.5,2.5-2.5h85.2c1.4,0,2.5,1.1,2.5,2.5V859
		C529.9,860.3,528.8,861.5,527.4,861.5z"/>
	<g>
		<path class="st0" d="M474,855.7c-0.4,0.1-1,0.3-1.9,0.3s-1.7-0.2-2.3-0.8c-0.5-0.5-0.8-1.3-0.8-2.3c0-1.8,1.2-3.1,3.3-3.1
			c0.7,0,1.2,0.2,1.5,0.3l-0.2,0.6c-0.3-0.1-0.7-0.3-1.3-0.3c-1.5,0-2.4,0.9-2.4,2.4s0.9,2.4,2.3,2.4c0.5,0,0.9-0.1,1-0.2v-1.8H472
			v-0.6h2V855.7L474,855.7z"/>
		<path class="st0" d="M477.6,855.9l-0.1-0.5l0,0c-0.2,0.3-0.7,0.6-1.3,0.6c-0.9,0-1.3-0.6-1.3-1.2c0-1.1,0.9-1.6,2.6-1.6v-0.1
			c0-0.4-0.1-1-1-1c-0.4,0-0.8,0.1-1.1,0.3l-0.2-0.5c0.4-0.2,0.9-0.4,1.4-0.4c1.3,0,1.7,0.9,1.7,1.8v1.6c0,0.4,0,0.7,0.1,1
			L477.6,855.9L477.6,855.9z M477.5,853.7c-0.9,0-1.8,0.1-1.8,1c0,0.5,0.3,0.8,0.7,0.8c0.6,0,0.9-0.4,1.1-0.7c0-0.1,0-0.2,0-0.3
			L477.5,853.7L477.5,853.7z"/>
		<path class="st0" d="M479.6,852.9c0-0.5,0-1,0-1.4h0.7v0.9l0,0c0.2-0.6,0.7-1,1.2-1c0.1,0,0.2,0,0.2,0v0.7c-0.1,0-0.2,0-0.3,0
			c-0.6,0-1,0.4-1.1,1c0,0.1,0,0.2,0,0.4v2.3h-0.8L479.6,852.9L479.6,852.9z"/>
		<path class="st0" d="M486.2,849.6v5.3c0,0.4,0,0.8,0,1.1h-0.7v-0.8l0,0c-0.2,0.5-0.8,0.9-1.5,0.9c-1.1,0-1.9-0.9-1.9-2.2
			c0-1.4,0.9-2.3,2-2.3c0.7,0,1.1,0.3,1.3,0.7l0,0v-2.6h0.8V849.6z M485.4,853.4c0-0.1,0-0.2,0-0.3c-0.1-0.5-0.5-0.9-1.1-0.9
			c-0.8,0-1.3,0.7-1.3,1.7c0,0.9,0.4,1.6,1.3,1.6c0.5,0,1-0.4,1.2-0.9c0-0.1,0-0.2,0-0.3v-0.9H485.4z"/>
		<path class="st0" d="M487.9,853.9c0,1.1,0.7,1.5,1.5,1.5c0.6,0,0.9-0.1,1.2-0.2l0.1,0.6c-0.3,0.1-0.8,0.3-1.4,0.3
			c-1.3,0-2.1-0.9-2.1-2.2s0.8-2.3,2-2.3c1.4,0,1.8,1.3,1.8,2c0,0.2,0,0.3,0,0.4L487.9,853.9L487.9,853.9z M490.3,853.3
			c0-0.5-0.2-1.3-1.1-1.3c-0.8,0-1.1,0.7-1.2,1.3H490.3z"/>
		<path class="st0" d="M492,852.9c0-0.5,0-1,0-1.4h0.7v0.9l0,0c0.2-0.6,0.7-1,1.2-1c0.1,0,0.2,0,0.2,0v0.7c-0.1,0-0.2,0-0.3,0
			c-0.6,0-1,0.4-1.1,1c0,0.1,0,0.2,0,0.4v2.3H492V852.9L492,852.9z"/>
		<path class="st0" d="M495.9,850.4c0,0.3-0.2,0.5-0.5,0.5s-0.5-0.2-0.5-0.5s0.2-0.5,0.5-0.5C495.7,849.9,495.9,850.1,495.9,850.4z
			 M495,855.9v-4.3h0.8v4.3H495z"/>
		<path class="st0" d="M497.5,853.9c0,1.1,0.7,1.5,1.5,1.5c0.6,0,0.9-0.1,1.2-0.2l0.1,0.6c-0.3,0.1-0.8,0.3-1.4,0.3
			c-1.3,0-2.1-0.9-2.1-2.2s0.8-2.3,2-2.3c1.4,0,1.8,1.3,1.8,2c0,0.2,0,0.3,0,0.4L497.5,853.9L497.5,853.9z M499.8,853.3
			c0-0.5-0.2-1.3-1.1-1.3c-0.8,0-1.1,0.7-1.2,1.3H499.8z"/>
	</g>
</g>
<g>
	<path d="M657.9,828h-85.2c-1.4,0-2.5-1.1-2.5-2.5v-11.3c0-1.4,1.1-2.5,2.5-2.5h85.2c1.4,0,2.5,1.1,2.5,2.5v11.3
		C660.5,826.9,659.3,828,657.9,828z"/>
	<g>
		<path class="st0" d="M607.2,822.3c-0.3,0.1-0.9,0.3-1.6,0.3c-1.7,0-3-1.1-3-3.1c0-1.9,1.3-3.2,3.2-3.2c0.8,0,1.2,0.2,1.4,0.3
			l-0.2,0.6c-0.3-0.1-0.7-0.3-1.2-0.3c-1.4,0-2.4,0.9-2.4,2.5c0,1.5,0.9,2.4,2.3,2.4c0.5,0,1-0.1,1.3-0.3L607.2,822.3z"/>
		<path class="st0" d="M610.5,822.5l-0.1-0.5l0,0c-0.2,0.3-0.7,0.6-1.3,0.6c-0.9,0-1.3-0.6-1.3-1.2c0-1.1,0.9-1.6,2.6-1.6v-0.1
			c0-0.4-0.1-1-1-1c-0.4,0-0.8,0.1-1.1,0.3l-0.2-0.5c0.4-0.2,0.9-0.4,1.4-0.4c1.3,0,1.7,0.9,1.7,1.8v1.6c0,0.4,0,0.7,0.1,1
			L610.5,822.5L610.5,822.5z M610.4,820.3c-0.9,0-1.8,0.1-1.8,1c0,0.5,0.3,0.8,0.7,0.8c0.6,0,0.9-0.4,1.1-0.7c0-0.1,0-0.2,0-0.3
			V820.3L610.4,820.3z"/>
		<path class="st0" d="M612.3,821.7c0.2,0.2,0.6,0.3,1,0.3c0.6,0,0.8-0.3,0.8-0.6c0-0.4-0.2-0.6-0.8-0.8c-0.8-0.3-1.2-0.7-1.2-1.2
			c0-0.7,0.6-1.3,1.5-1.3c0.4,0,0.8,0.1,1.1,0.3l-0.2,0.6c-0.2-0.1-0.5-0.3-0.9-0.3c-0.5,0-0.7,0.3-0.7,0.6c0,0.4,0.3,0.5,0.8,0.7
			c0.8,0.3,1.1,0.7,1.1,1.3c0,0.8-0.6,1.3-1.6,1.3c-0.5,0-0.9-0.1-1.2-0.3L612.3,821.7z"/>
		<path class="st0" d="M616.9,817c0,0.3-0.2,0.5-0.5,0.5s-0.5-0.2-0.5-0.5s0.2-0.5,0.5-0.5S616.9,816.7,616.9,817z M616,822.5v-4.3
			h0.8v4.3H616z"/>
		<path class="st0" d="M618.5,820.5c0,1.1,0.7,1.5,1.5,1.5c0.6,0,0.9-0.1,1.2-0.2l0.1,0.6c-0.3,0.1-0.8,0.3-1.4,0.3
			c-1.3,0-2.1-0.9-2.1-2.2s0.8-2.3,2-2.3c1.4,0,1.8,1.3,1.8,2c0,0.2,0,0.3,0,0.4L618.5,820.5L618.5,820.5z M620.8,819.9
			c0-0.5-0.2-1.3-1.1-1.3c-0.8,0-1.2,0.7-1.2,1.3H620.8z"/>
		<path class="st0" d="M622.6,819.5c0-0.5,0-1,0-1.4h0.7v0.9l0,0c0.2-0.6,0.7-1,1.2-1c0.1,0,0.2,0,0.2,0v0.7c-0.1,0-0.2,0-0.3,0
			c-0.6,0-1,0.4-1.1,1c0,0.1,0,0.2,0,0.4v2.3h-0.8L622.6,819.5L622.6,819.5z"/>
		<path class="st0" d="M625.4,821.7c0.2,0.2,0.6,0.3,1,0.3c0.6,0,0.8-0.3,0.8-0.6c0-0.4-0.2-0.6-0.8-0.8c-0.8-0.3-1.2-0.7-1.2-1.2
			c0-0.7,0.6-1.3,1.5-1.3c0.4,0,0.8,0.1,1.1,0.3l-0.2,0.6c-0.2-0.1-0.5-0.3-0.9-0.3c-0.5,0-0.7,0.3-0.7,0.6c0,0.4,0.3,0.5,0.8,0.7
			c0.8,0.3,1.1,0.7,1.1,1.3c0,0.8-0.6,1.3-1.6,1.3c-0.5,0-0.9-0.1-1.2-0.3L625.4,821.7z"/>
	</g>
</g>
<g>
	<path d="M705.7,641.1h-85.2c-1.4,0-2.5-1.1-2.5-2.5v-11.3c0-1.4,1.1-2.5,2.5-2.5h85.2c1.4,0,2.5,1.1,2.5,2.5v11.3
		C708.2,640,707.1,641.1,705.7,641.1z"/>
	<g>
		<path class="st0" d="M625.5,634.7c0.4,0.2,0.9,0.4,1.4,0.4c0.8,0,1.3-0.4,1.3-1s-0.3-0.9-1.1-1.2c-1-0.4-1.6-0.9-1.6-1.7
			c0-0.9,0.8-1.6,2-1.6c0.6,0,1.1,0.1,1.3,0.3l-0.2,0.6c-0.2-0.1-0.6-0.3-1.2-0.3c-0.8,0-1.1,0.5-1.1,0.9c0,0.6,0.4,0.8,1.2,1.2
			c1,0.4,1.5,0.9,1.5,1.8c0,0.9-0.7,1.7-2.1,1.7c-0.6,0-1.2-0.2-1.5-0.4L625.5,634.7z"/>
		<path class="st0" d="M630.9,630v1.3h1.1v0.6h-1.1v2.3c0,0.5,0.2,0.8,0.6,0.8c0.2,0,0.4,0,0.5-0.1v0.6c-0.2,0.1-0.4,0.1-0.7,0.1
			c-0.4,0-0.7-0.1-0.9-0.3s-0.3-0.6-0.3-1.1v-2.4h-0.7v-0.6h0.7v-1L630.9,630z"/>
		<path class="st0" d="M636.6,634.5c0,0.4,0,0.8,0,1.2h-0.7V635l0,0c-0.2,0.4-0.7,0.8-1.4,0.8s-1.5-0.4-1.5-1.9v-2.5h0.8v2.4
			c0,0.8,0.3,1.4,1,1.4c0.5,0,0.9-0.4,1-0.7c0-0.1,0.1-0.3,0.1-0.4v-2.7h0.8L636.6,634.5L636.6,634.5z"/>
		<path class="st0" d="M641.7,629.3v5.3c0,0.4,0,0.8,0,1.1H641v-0.8l0,0c-0.2,0.5-0.8,0.9-1.5,0.9c-1.1,0-1.9-0.9-1.9-2.2
			c0-1.4,0.9-2.3,2-2.3c0.7,0,1.1,0.3,1.3,0.7l0,0v-2.6h0.8V629.3z M640.9,633.1c0-0.1,0-0.2,0-0.3c-0.1-0.5-0.5-0.9-1.1-0.9
			c-0.8,0-1.3,0.7-1.3,1.7c0,0.9,0.4,1.6,1.3,1.6c0.5,0,1-0.4,1.2-0.9c0-0.1,0-0.2,0-0.3L640.9,633.1L640.9,633.1z"/>
		<path class="st0" d="M643.9,630.1c0,0.3-0.2,0.5-0.5,0.5s-0.5-0.2-0.5-0.5s0.2-0.5,0.5-0.5S643.9,629.8,643.9,630.1z M643,635.6
			v-4.3h0.8v4.3H643z"/>
		<path class="st0" d="M649,633.4c0,1.6-1.1,2.3-2.2,2.3c-1.2,0-2.1-0.9-2.1-2.2c0-1.5,1-2.3,2.2-2.3
			C648.2,631.2,649,632.1,649,633.4z M645.6,633.5c0,1,0.5,1.7,1.3,1.7s1.3-0.7,1.3-1.7c0-0.7-0.4-1.7-1.3-1.7
			S645.6,632.6,645.6,633.5z"/>
		<path class="st0" d="M649.9,634.8c0.2,0.2,0.6,0.3,1,0.3c0.6,0,0.8-0.3,0.8-0.6c0-0.4-0.2-0.6-0.8-0.8c-0.8-0.3-1.2-0.7-1.2-1.2
			c0-0.7,0.6-1.3,1.5-1.3c0.4,0,0.8,0.1,1.1,0.3l-0.2,0.6c-0.2-0.1-0.5-0.3-0.9-0.3c-0.5,0-0.7,0.3-0.7,0.6c0,0.4,0.3,0.5,0.8,0.7
			c0.8,0.3,1.1,0.7,1.1,1.3c0,0.8-0.6,1.3-1.6,1.3c-0.5,0-0.9-0.1-1.2-0.3L649.9,634.8z"/>
		<path class="st0" d="M657.9,635.6l-0.1-0.5l0,0c-0.2,0.3-0.7,0.6-1.3,0.6c-0.9,0-1.3-0.6-1.3-1.2c0-1.1,0.9-1.6,2.6-1.6v-0.1
			c0-0.4-0.1-1-1-1c-0.4,0-0.8,0.1-1.1,0.3l-0.2-0.5c0.4-0.2,0.9-0.4,1.4-0.4c1.3,0,1.7,0.9,1.7,1.8v1.6c0,0.4,0,0.7,0.1,1
			L657.9,635.6L657.9,635.6z M657.8,633.4c-0.9,0-1.8,0.1-1.8,1c0,0.5,0.3,0.8,0.7,0.8c0.6,0,0.9-0.4,1.1-0.7c0-0.1,0-0.2,0-0.3
			V633.4L657.8,633.4z"/>
		<path class="st0" d="M663.5,634.5c0,0.4,0,0.8,0,1.2h-0.7V635l0,0c-0.2,0.4-0.7,0.8-1.4,0.8s-1.5-0.4-1.5-1.9v-2.5h0.8v2.4
			c0,0.8,0.3,1.4,1,1.4c0.5,0,0.9-0.4,1-0.7c0-0.1,0.1-0.3,0.1-0.4v-2.7h0.8L663.5,634.5L663.5,634.5z"/>
		<path class="st0" d="M668.5,629.3v5.3c0,0.4,0,0.8,0,1.1h-0.7v-0.8l0,0c-0.2,0.5-0.8,0.9-1.5,0.9c-1.1,0-1.9-0.9-1.9-2.2
			c0-1.4,0.9-2.3,2-2.3c0.7,0,1.1,0.3,1.3,0.7l0,0v-2.6h0.8V629.3z M667.8,633.1c0-0.1,0-0.2,0-0.3c-0.1-0.5-0.5-0.9-1.1-0.9
			c-0.8,0-1.3,0.7-1.3,1.7c0,0.9,0.4,1.6,1.3,1.6c0.5,0,1-0.4,1.2-0.9c0-0.1,0-0.2,0-0.3L667.8,633.1L667.8,633.1z"/>
		<path class="st0" d="M670.7,630.1c0,0.3-0.2,0.5-0.5,0.5s-0.5-0.2-0.5-0.5s0.2-0.5,0.5-0.5S670.7,629.8,670.7,630.1z M669.9,635.6
			v-4.3h0.8v4.3H669.9z"/>
		<path class="st0" d="M675.9,633.4c0,1.6-1.1,2.3-2.2,2.3c-1.2,0-2.1-0.9-2.1-2.2c0-1.5,1-2.3,2.2-2.3
			C675.1,631.2,675.9,632.1,675.9,633.4z M672.4,633.5c0,1,0.5,1.7,1.3,1.7s1.3-0.7,1.3-1.7c0-0.7-0.4-1.7-1.3-1.7
			S672.4,632.6,672.4,633.5z"/>
		<path class="st0" d="M677.1,631.3l0.9,2.4c0.1,0.4,0.3,0.8,0.4,1.1l0,0c0.1-0.4,0.2-0.7,0.4-1.1l0.8-2.4h0.8l-1.7,4.3h-0.8
			l-1.7-4.3H677.1z"/>
		<path class="st0" d="M682,630.1c0,0.3-0.2,0.5-0.5,0.5s-0.5-0.2-0.5-0.5s0.2-0.5,0.5-0.5S682,629.8,682,630.1z M681.2,635.6v-4.3
			h0.8v4.3H681.2z"/>
		<path class="st0" d="M683.2,634.8c0.2,0.2,0.6,0.3,1,0.3c0.6,0,0.8-0.3,0.8-0.6c0-0.4-0.2-0.6-0.8-0.8c-0.8-0.3-1.2-0.7-1.2-1.2
			c0-0.7,0.6-1.3,1.5-1.3c0.4,0,0.8,0.1,1.1,0.3l-0.2,0.6c-0.2-0.1-0.5-0.3-0.9-0.3c-0.5,0-0.7,0.3-0.7,0.6c0,0.4,0.3,0.5,0.8,0.7
			c0.8,0.3,1.1,0.7,1.1,1.3c0,0.8-0.6,1.3-1.6,1.3c-0.5,0-0.9-0.1-1.2-0.3L683.2,634.8z"/>
		<path class="st0" d="M690.5,634.5c0,0.4,0,0.8,0,1.2h-0.7V635l0,0c-0.2,0.4-0.7,0.8-1.4,0.8s-1.5-0.4-1.5-1.9v-2.5h0.8v2.4
			c0,0.8,0.3,1.4,1,1.4c0.5,0,0.9-0.4,1-0.7c0-0.1,0.1-0.3,0.1-0.4v-2.7h0.8L690.5,634.5L690.5,634.5z"/>
		<path class="st0" d="M692.2,633.6c0,1.1,0.7,1.5,1.5,1.5c0.6,0,0.9-0.1,1.2-0.2l0.1,0.6c-0.3,0.1-0.8,0.3-1.4,0.3
			c-1.3,0-2.1-0.9-2.1-2.2s0.8-2.3,2-2.3c1.4,0,1.8,1.3,1.8,2c0,0.2,0,0.3,0,0.4L692.2,633.6L692.2,633.6z M694.5,633
			c0-0.5-0.2-1.3-1.1-1.3c-0.8,0-1.2,0.7-1.2,1.3H694.5z"/>
		<path class="st0" d="M696.3,629.3h0.8v6.4h-0.8V629.3z"/>
		<path class="st0" d="M698.3,634.8c0.2,0.2,0.6,0.3,1,0.3c0.6,0,0.8-0.3,0.8-0.6c0-0.4-0.2-0.6-0.8-0.8c-0.8-0.3-1.2-0.7-1.2-1.2
			c0-0.7,0.6-1.3,1.5-1.3c0.4,0,0.8,0.1,1.1,0.3l-0.2,0.6c-0.2-0.1-0.5-0.3-0.9-0.3c-0.5,0-0.7,0.3-0.7,0.6c0,0.4,0.3,0.5,0.8,0.7
			c0.8,0.3,1.1,0.7,1.1,1.3c0,0.8-0.6,1.3-1.6,1.3c-0.5,0-0.9-0.1-1.2-0.3L698.3,634.8z"/>
	</g>
</g>
<g>
	<path d="M578.5,720.5h-85.2c-1.4,0-2.5-1.1-2.5-2.5v-11.3c0-1.4,1.1-2.5,2.5-2.5h85.2c1.4,0,2.5,1.1,2.5,2.5V718
		C581,719.4,579.8,720.5,578.5,720.5z"/>
	<g>
		<path class="st0" d="M515.6,714.8c-0.3,0.1-0.9,0.3-1.6,0.3c-1.7,0-3-1.1-3-3.1c0-1.9,1.3-3.2,3.2-3.2c0.8,0,1.2,0.2,1.4,0.3
			l-0.2,0.6c-0.3-0.1-0.7-0.3-1.2-0.3c-1.4,0-2.4,0.9-2.4,2.5c0,1.5,0.9,2.4,2.3,2.4c0.5,0,1-0.1,1.3-0.3L515.6,714.8z"/>
		<path class="st0" d="M518.9,715l-0.1-0.5l0,0c-0.2,0.3-0.7,0.6-1.3,0.6c-0.9,0-1.3-0.6-1.3-1.2c0-1.1,0.9-1.6,2.6-1.6v-0.1
			c0-0.4-0.1-1-1-1c-0.4,0-0.8,0.1-1.1,0.3l-0.2-0.5c0.4-0.2,0.9-0.4,1.4-0.4c1.3,0,1.7,0.9,1.7,1.8v1.6c0,0.4,0,0.7,0.1,1
			L518.9,715L518.9,715z M518.8,712.8c-0.9,0-1.8,0.1-1.8,1c0,0.5,0.3,0.8,0.7,0.8c0.6,0,0.9-0.4,1.1-0.7c0-0.1,0-0.2,0-0.3V712.8z"
			/>
		<path class="st0" d="M520.9,715v-3.7h-0.6v-0.6h0.6v-0.2c0-0.6,0.1-1.2,0.5-1.5c0.3-0.3,0.7-0.4,1.1-0.4c0.3,0,0.5,0.1,0.7,0.1
			l-0.1,0.6c-0.1-0.1-0.3-0.1-0.5-0.1c-0.7,0-0.8,0.6-0.8,1.3v0.2h1.1v0.6h-1.1v3.7L520.9,715L520.9,715z"/>
		<path class="st0" d="M523.8,713c0,1.1,0.7,1.5,1.5,1.5c0.6,0,0.9-0.1,1.2-0.2l0.1,0.6c-0.3,0.1-0.8,0.3-1.4,0.3
			c-1.3,0-2.1-0.9-2.1-2.2s0.8-2.3,2-2.3c1.4,0,1.8,1.3,1.8,2c0,0.2,0,0.3,0,0.4L523.8,713L523.8,713z M526.1,712.4
			c0-0.5-0.2-1.3-1.1-1.3c-0.8,0-1.2,0.7-1.2,1.3H526.1z M526.3,708.8l-1.1,1.3h-0.6l0.8-1.3H526.3z"/>
		<path class="st0" d="M530.2,713c0,1.1,0.7,1.5,1.5,1.5c0.6,0,0.9-0.1,1.2-0.2l0.1,0.6c-0.3,0.1-0.8,0.3-1.4,0.3
			c-1.3,0-2.1-0.9-2.1-2.2s0.8-2.3,2-2.3c1.4,0,1.8,1.3,1.8,2c0,0.2,0,0.3,0,0.4L530.2,713L530.2,713z M532.5,712.4
			c0-0.5-0.2-1.3-1.1-1.3c-0.8,0-1.2,0.7-1.2,1.3H532.5z M532.7,708.8l-1.1,1.3H531l0.8-1.3H532.7z"/>
		<path class="st0" d="M535.2,709.4v1.3h1.1v0.6h-1.1v2.3c0,0.5,0.2,0.8,0.6,0.8c0.2,0,0.4,0,0.5-0.1v0.6c-0.2,0.1-0.4,0.1-0.7,0.1
			c-0.4,0-0.7-0.1-0.9-0.3s-0.3-0.6-0.3-1.1v-2.4h-0.7v-0.6h0.7v-1L535.2,709.4z"/>
		<path class="st0" d="M540.9,713.8c0,0.4,0,0.8,0,1.2h-0.7v-0.7l0,0c-0.2,0.4-0.7,0.8-1.4,0.8s-1.5-0.4-1.5-1.9v-2.5h0.8v2.4
			c0,0.8,0.3,1.4,1,1.4c0.5,0,0.9-0.4,1-0.7c0-0.1,0.1-0.3,0.1-0.4v-2.7h0.8L540.9,713.8L540.9,713.8z"/>
		<path class="st0" d="M546,708.6v5.3c0,0.4,0,0.8,0,1.1h-0.7v-0.8l0,0c-0.2,0.5-0.8,0.9-1.5,0.9c-1.1,0-1.9-0.9-1.9-2.2
			c0-1.4,0.9-2.3,2-2.3c0.7,0,1.1,0.3,1.3,0.7l0,0v-2.6h0.8V708.6z M545.2,712.4c0-0.1,0-0.2,0-0.3c-0.1-0.5-0.5-0.9-1.1-0.9
			c-0.8,0-1.3,0.7-1.3,1.7c0,0.9,0.4,1.6,1.3,1.6c0.5,0,1-0.4,1.2-0.9c0-0.1,0-0.2,0-0.3L545.2,712.4L545.2,712.4z"/>
		<path class="st0" d="M548.2,709.4c0,0.3-0.2,0.5-0.5,0.5s-0.5-0.2-0.5-0.5s0.2-0.5,0.5-0.5S548.2,709.2,548.2,709.4z M547.3,715
			v-4.3h0.8v4.3H547.3z"/>
		<path class="st0" d="M551.8,715l-0.1-0.5l0,0c-0.2,0.3-0.7,0.6-1.3,0.6c-0.9,0-1.3-0.6-1.3-1.2c0-1.1,0.9-1.6,2.6-1.6v-0.1
			c0-0.4-0.1-1-1-1c-0.4,0-0.8,0.1-1.1,0.3l-0.2-0.5c0.4-0.2,0.9-0.4,1.4-0.4c1.3,0,1.7,0.9,1.7,1.8v1.6c0,0.4,0,0.7,0.1,1
			L551.8,715L551.8,715z M551.7,712.8c-0.9,0-1.8,0.1-1.8,1c0,0.5,0.3,0.8,0.7,0.8c0.6,0,0.9-0.4,1.1-0.7c0-0.1,0-0.2,0-0.3V712.8
			L551.7,712.8z"/>
		<path class="st0" d="M553.7,711.8c0-0.4,0-0.8,0-1.2h0.7v0.7l0,0c0.2-0.4,0.7-0.8,1.4-0.8c0.6,0,1.5,0.4,1.5,1.9v2.6h-0.8v-2.5
			c0-0.7-0.3-1.3-1-1.3c-0.5,0-0.9,0.4-1.1,0.8c0,0.1-0.1,0.2-0.1,0.4v2.6h-0.8L553.7,711.8L553.7,711.8z"/>
		<path class="st0" d="M559.6,709.4v1.3h1.1v0.6h-1.1v2.3c0,0.5,0.2,0.8,0.6,0.8c0.2,0,0.4,0,0.5-0.1v0.6c-0.2,0.1-0.4,0.1-0.7,0.1
			c-0.4,0-0.7-0.1-0.9-0.3s-0.3-0.6-0.3-1.1v-2.4h-0.7v-0.6h0.7v-1L559.6,709.4z"/>
	</g>
</g>
<g>
	<path d="M510.4,500.7h-47.6c-1.4,0-2.5-1.1-2.5-2.5v-11.3c0-1.4,1.1-2.5,2.5-2.5h47.6c1.4,0,2.5,1.1,2.5,2.5v11.3
		C512.9,499.6,511.8,500.7,510.4,500.7z"/>
	<g>
		<path class="st0" d="M474.9,495c-0.3,0.1-0.9,0.3-1.6,0.3c-1.7,0-3-1.1-3-3.1c0-1.9,1.3-3.2,3.2-3.2c0.8,0,1.2,0.2,1.4,0.3
			l-0.2,0.6c-0.3-0.1-0.7-0.3-1.2-0.3c-1.4,0-2.4,0.9-2.4,2.5c0,1.5,0.9,2.4,2.3,2.4c0.5,0,1-0.1,1.3-0.3L474.9,495z"/>
		<path class="st0" d="M478.2,495.2l-0.1-0.5l0,0c-0.2,0.3-0.7,0.6-1.3,0.6c-0.9,0-1.3-0.6-1.3-1.2c0-1.1,0.9-1.6,2.6-1.6v-0.1
			c0-0.4-0.1-1-1-1c-0.4,0-0.8,0.1-1.1,0.3l-0.2-0.5c0.4-0.2,0.9-0.4,1.4-0.4c1.3,0,1.7,0.9,1.7,1.8v1.6c0,0.4,0,0.7,0.1,1
			L478.2,495.2L478.2,495.2z M478,492.9c-0.9,0-1.8,0.1-1.8,1c0,0.5,0.3,0.8,0.7,0.8c0.6,0,0.9-0.4,1.1-0.7c0-0.1,0-0.2,0-0.3
			L478,492.9L478,492.9z"/>
		<path class="st0" d="M480.2,495.2v-3.7h-0.6v-0.6h0.6v-0.2c0-0.6,0.1-1.2,0.5-1.5c0.3-0.3,0.7-0.4,1.1-0.4c0.3,0,0.5,0.1,0.7,0.1
			l-0.1,0.6c-0.1-0.1-0.3-0.1-0.5-0.1c-0.7,0-0.8,0.6-0.8,1.3v0.2h1.1v0.6h-1.1v3.7H480.2L480.2,495.2z"/>
		<path class="st0" d="M483,493.1c0,1.1,0.7,1.5,1.5,1.5c0.6,0,0.9-0.1,1.2-0.2l0.1,0.6c-0.3,0.1-0.8,0.3-1.4,0.3
			c-1.3,0-2.1-0.9-2.1-2.2s0.8-2.3,2-2.3c1.4,0,1.8,1.2,1.8,2c0,0.2,0,0.3,0,0.4L483,493.1L483,493.1z M485.3,492.6
			c0-0.5-0.2-1.3-1.1-1.3c-0.8,0-1.1,0.7-1.2,1.3H485.3z M485.5,488.9l-1.1,1.3h-0.6l0.8-1.3H485.5z"/>
		<path class="st0" d="M488,489.6v1.2h1.1v0.6H488v2.3c0,0.5,0.2,0.8,0.6,0.8c0.2,0,0.4,0,0.5-0.1v0.6c-0.2,0.1-0.4,0.1-0.7,0.1
			c-0.4,0-0.7-0.1-0.9-0.3c-0.2-0.2-0.3-0.6-0.3-1.1v-2.4h-0.7v-0.6h0.7v-1L488,489.6z"/>
		<path class="st0" d="M490.5,493.1c0,1.1,0.7,1.5,1.5,1.5c0.6,0,0.9-0.1,1.2-0.2l0.1,0.6c-0.3,0.1-0.8,0.3-1.4,0.3
			c-1.3,0-2.1-0.9-2.1-2.2s0.8-2.3,2-2.3c1.4,0,1.8,1.2,1.8,2c0,0.2,0,0.3,0,0.4L490.5,493.1L490.5,493.1z M492.8,492.6
			c0-0.5-0.2-1.3-1.1-1.3c-0.8,0-1.1,0.7-1.2,1.3H492.8z M493,488.9l-1.1,1.3h-0.6l0.8-1.3H493z"/>
		<path class="st0" d="M494.5,492.2c0-0.5,0-1,0-1.4h0.7v0.9l0,0c0.2-0.6,0.7-1,1.2-1c0.1,0,0.2,0,0.2,0v0.7c-0.1,0-0.2,0-0.3,0
			c-0.6,0-1,0.4-1.1,1c0,0.1,0,0.2,0,0.4v2.3h-0.8L494.5,492.2L494.5,492.2z"/>
		<path class="st0" d="M498.4,489.6c0,0.3-0.2,0.5-0.5,0.5s-0.5-0.2-0.5-0.5s0.2-0.5,0.5-0.5C498.2,489.1,498.4,489.3,498.4,489.6z
			 M497.5,495.2v-4.4h0.8v4.4H497.5z"/>
		<path class="st0" d="M502,495.2l-0.1-0.5l0,0c-0.2,0.3-0.7,0.6-1.3,0.6c-0.9,0-1.3-0.6-1.3-1.2c0-1.1,0.9-1.6,2.6-1.6v-0.1
			c0-0.4-0.1-1-1-1c-0.4,0-0.8,0.1-1.1,0.3l-0.2-0.5c0.4-0.2,0.9-0.4,1.4-0.4c1.3,0,1.7,0.9,1.7,1.8v1.6c0,0.4,0,0.7,0.1,1
			L502,495.2L502,495.2z M501.9,492.9c-0.9,0-1.8,0.1-1.8,1c0,0.5,0.3,0.8,0.7,0.8c0.6,0,0.9-0.4,1.1-0.7c0-0.1,0-0.2,0-0.3
			L501.9,492.9L501.9,492.9z"/>
	</g>
</g>
<g>
	<path d="M429.4,723.3h-57.7c-1.4,0-2.5-1.1-2.5-2.5v-6.3c0-1.4,1.1-2.5,2.5-2.5h57.7c1.4,0,2.5,1.1,2.5,2.5v6.3
		C432,722.1,430.8,723.3,429.4,723.3z"/>
	<g>
		<path class="st0" d="M378.1,718.1l-0.4,1.3h-0.6l1.4-4.2h0.7l1.4,4.2H380l-0.5-1.3H378.1z M379.5,717.7l-0.4-1.2
			c-0.1-0.3-0.2-0.5-0.2-0.8l0,0c-0.1,0.3-0.1,0.5-0.2,0.8l-0.4,1.2H379.5L379.5,717.7z"/>
		<path class="st0" d="M383.3,719.3c-0.1,0.1-0.5,0.2-0.9,0.2c-0.9,0-1.5-0.6-1.5-1.5s0.6-1.6,1.6-1.6c0.3,0,0.6,0.1,0.8,0.2
			l-0.1,0.4c-0.1-0.1-0.3-0.1-0.6-0.1c-0.7,0-1.1,0.5-1.1,1.1c0,0.7,0.5,1.1,1.1,1.1c0.3,0,0.5-0.1,0.7-0.2V719.3z"/>
		<path class="st0" d="M386.1,719.3c-0.1,0.1-0.5,0.2-0.9,0.2c-0.9,0-1.5-0.6-1.5-1.5s0.6-1.6,1.6-1.6c0.3,0,0.6,0.1,0.8,0.2
			L386,717c-0.1-0.1-0.3-0.1-0.6-0.1c-0.7,0-1.1,0.5-1.1,1.1c0,0.7,0.5,1.1,1.1,1.1c0.3,0,0.5-0.1,0.7-0.2V719.3z"/>
		<path class="st0" d="M389.3,718.6c0,0.3,0,0.6,0,0.8h-0.5v-0.5l0,0c-0.1,0.2-0.5,0.6-1,0.6s-1-0.3-1-1.3v-1.8h0.5v1.7
			c0,0.6,0.2,1,0.7,1c0.4,0,0.6-0.3,0.7-0.5c0-0.1,0-0.2,0-0.3v-1.9h0.5L389.3,718.6L389.3,718.6z"/>
		<path class="st0" d="M390.5,718c0,0.7,0.5,1.1,1,1.1c0.4,0,0.6-0.1,0.8-0.2l0.1,0.4c-0.2,0.1-0.5,0.2-1,0.2
			c-0.9,0-1.5-0.6-1.5-1.5s0.5-1.6,1.4-1.6c1,0,1.3,0.9,1.3,1.4c0,0.1,0,0.2,0,0.3L390.5,718L390.5,718z M392.1,717.6
			c0-0.4-0.1-0.9-0.8-0.9c-0.6,0-0.8,0.5-0.8,0.9H392.1z"/>
		<path class="st0" d="M393.9,715.5c0,0.2-0.1,0.3-0.4,0.3c-0.2,0-0.3-0.2-0.3-0.3c0-0.2,0.1-0.3,0.3-0.3
			C393.8,715.2,393.9,715.4,393.9,715.5z M393.3,719.4v-3h0.6v3H393.3z"/>
		<path class="st0" d="M394.8,715h0.6v4.4h-0.6V715z"/>
		<path class="st0" d="M397.9,718c0,0.7,0.5,1.1,1,1.1c0.4,0,0.6-0.1,0.8-0.2l0.1,0.4c-0.2,0.1-0.5,0.2-1,0.2
			c-0.9,0-1.5-0.6-1.5-1.5s0.5-1.6,1.4-1.6c1,0,1.3,0.9,1.3,1.4c0,0.1,0,0.2,0,0.3L397.9,718L397.9,718z M399.5,717.6
			c0-0.4-0.1-0.9-0.8-0.9c-0.6,0-0.8,0.5-0.8,0.9H399.5z"/>
		<path class="st0" d="M401.4,715.5v0.9h0.8v0.4h-0.8v1.6c0,0.4,0.1,0.6,0.4,0.6c0.1,0,0.3,0,0.3,0v0.4c-0.1,0-0.3,0.1-0.5,0.1
			c-0.3,0-0.5-0.1-0.6-0.2c-0.2-0.2-0.2-0.4-0.2-0.8v-1.7h-0.5v-0.4h0.5v-0.7L401.4,715.5z"/>
		<path class="st0" d="M404,718.9c0.2,0.1,0.5,0.2,0.7,0.2c0.4,0,0.6-0.2,0.6-0.5s-0.2-0.4-0.6-0.6c-0.5-0.2-0.8-0.5-0.8-0.9
			c0-0.5,0.4-0.9,1-0.9c0.3,0,0.6,0.1,0.7,0.2l-0.1,0.4c-0.1-0.1-0.3-0.2-0.6-0.2c-0.3,0-0.5,0.2-0.5,0.4c0,0.3,0.2,0.4,0.6,0.5
			c0.5,0.2,0.8,0.5,0.8,0.9c0,0.5-0.4,0.9-1.1,0.9c-0.3,0-0.6-0.1-0.9-0.2L404,718.9z"/>
		<path class="st0" d="M406.9,718c0,0.7,0.5,1.1,1,1.1c0.4,0,0.6-0.1,0.8-0.2l0.1,0.4c-0.2,0.1-0.5,0.2-1,0.2
			c-0.9,0-1.5-0.6-1.5-1.5s0.5-1.6,1.4-1.6c1,0,1.3,0.9,1.3,1.4c0,0.1,0,0.2,0,0.3L406.9,718L406.9,718z M408.5,717.6
			c0-0.4-0.1-0.9-0.8-0.9c-0.6,0-0.8,0.5-0.8,0.9H408.5z M408.6,715.1l-0.8,0.9h-0.4l0.5-0.9H408.6z"/>
		<path class="st0" d="M411.9,719.3c-0.1,0.1-0.5,0.2-0.9,0.2c-0.9,0-1.5-0.6-1.5-1.5s0.6-1.6,1.6-1.6c0.3,0,0.6,0.1,0.8,0.2
			l-0.1,0.4c-0.1-0.1-0.3-0.1-0.6-0.1c-0.7,0-1.1,0.5-1.1,1.1c0,0.7,0.5,1.1,1.1,1.1c0.3,0,0.5-0.1,0.7-0.2V719.3z"/>
		<path class="st0" d="M415.1,718.6c0,0.3,0,0.6,0,0.8h-0.5v-0.5l0,0c-0.1,0.2-0.5,0.6-1,0.6s-1-0.3-1-1.3v-1.8h0.5v1.7
			c0,0.6,0.2,1,0.7,1c0.4,0,0.6-0.3,0.7-0.5c0-0.1,0-0.2,0-0.3v-1.9h0.5L415.1,718.6L415.1,718.6z"/>
		<path class="st0" d="M416,717.3c0-0.4,0-0.7,0-0.9h0.5v0.6l0,0c0.1-0.4,0.5-0.7,0.8-0.7c0.1,0,0.1,0,0.2,0v0.5c-0.1,0-0.1,0-0.2,0
			c-0.4,0-0.7,0.3-0.7,0.7c0,0.1,0,0.2,0,0.3v1.6H416V717.3L416,717.3z"/>
		<path class="st0" d="M418.6,715.5c0,0.2-0.1,0.3-0.4,0.3c-0.2,0-0.3-0.2-0.3-0.3c0-0.2,0.1-0.3,0.3-0.3
			C418.5,715.2,418.6,715.4,418.6,715.5z M418,719.4v-3h0.6v3H418z"/>
		<path class="st0" d="M420.2,715.5v0.9h0.8v0.4h-0.8v1.6c0,0.4,0.1,0.6,0.4,0.6c0.1,0,0.3,0,0.3,0v0.4c-0.1,0-0.3,0.1-0.5,0.1
			c-0.3,0-0.5-0.1-0.6-0.2c-0.2-0.2-0.2-0.4-0.2-0.8v-1.7h-0.5v-0.4h0.5v-0.7L420.2,715.5z"/>
		<path class="st0" d="M421.8,718c0,0.7,0.5,1.1,1,1.1c0.4,0,0.6-0.1,0.8-0.2l0.1,0.4c-0.2,0.1-0.5,0.2-1,0.2
			c-0.9,0-1.5-0.6-1.5-1.5s0.5-1.6,1.4-1.6c1,0,1.3,0.9,1.3,1.4c0,0.1,0,0.2,0,0.3L421.8,718L421.8,718z M423.5,717.6
			c0-0.4-0.1-0.9-0.8-0.9c-0.6,0-0.8,0.5-0.8,0.9H423.5z M423.6,715.1l-0.8,0.9h-0.4l0.5-0.9H423.6z"/>
	</g>
</g>
<g>
	<path d="M416.4,371.7h-49.3c-1.4,0-2.5-1.1-2.5-2.5v-4.8c0-1.4,1.1-2.5,2.5-2.5h49.3c1.4,0,2.5,1.1,2.5,2.5v4.8
		C418.9,370.6,417.7,371.7,416.4,371.7z"/>
	<g>
		<path class="st0" d="M378.2,366.8c0-0.5-0.1-1.1-0.1-1.6l0,0c-0.1,0.4-0.3,0.9-0.5,1.4l-0.6,1.8h-0.4l-0.6-1.7
			c-0.2-0.5-0.3-1-0.4-1.4l0,0c0,0.5,0,1.1-0.1,1.6l-0.1,1.6H375l0.3-3.7h0.6l0.6,1.8c0.2,0.5,0.3,0.9,0.4,1.2l0,0
			c0.1-0.4,0.2-0.8,0.4-1.2l0.6-1.8h0.6l0.2,3.7h-0.5V366.8z"/>
		<path class="st0" d="M381,368.4v-0.3l0,0c-0.1,0.2-0.4,0.4-0.8,0.4c-0.5,0-0.8-0.4-0.8-0.8c0-0.6,0.6-1,1.6-1v-0.1
			c0-0.2-0.1-0.6-0.6-0.6c-0.2,0-0.5,0.1-0.7,0.2l-0.1-0.3c0.2-0.1,0.5-0.2,0.9-0.2c0.8,0,1,0.5,1,1.1v1c0,0.2,0,0.5,0,0.6
			L381,368.4L381,368.4z M380.9,367.1c-0.5,0-1.1,0.1-1.1,0.6c0,0.3,0.2,0.5,0.4,0.5c0.3,0,0.6-0.2,0.6-0.4c0,0,0-0.1,0-0.2
			L380.9,367.1L380.9,367.1z"/>
		<path class="st0" d="M384.4,365.8c0,0.2,0,0.4,0,0.7v1.5c0,0.6-0.1,1-0.4,1.2s-0.6,0.3-1,0.3c-0.3,0-0.7-0.1-0.9-0.2l0.1-0.4
			c0.2,0.1,0.4,0.2,0.8,0.2c0.5,0,0.8-0.3,0.8-0.9V368l0,0c-0.1,0.2-0.4,0.4-0.8,0.4c-0.6,0-1.1-0.6-1.1-1.3c0-0.9,0.6-1.4,1.2-1.4
			c0.5,0,0.7,0.2,0.8,0.5l0,0v-0.4L384.4,365.8L384.4,365.8z M383.9,366.8c0-0.1,0-0.2,0-0.2c-0.1-0.3-0.3-0.5-0.7-0.5
			c-0.5,0-0.8,0.4-0.8,1c0,0.5,0.3,0.9,0.8,0.9c0.3,0,0.6-0.2,0.7-0.5c0-0.1,0-0.2,0-0.3V366.8L383.9,366.8z"/>
		<path class="st0" d="M386.6,368.4v-0.3l0,0c-0.1,0.2-0.4,0.4-0.8,0.4c-0.5,0-0.8-0.4-0.8-0.8c0-0.6,0.6-1,1.6-1v-0.1
			c0-0.2-0.1-0.6-0.6-0.6c-0.2,0-0.5,0.1-0.7,0.2l-0.1-0.3c0.2-0.1,0.5-0.2,0.9-0.2c0.8,0,1,0.5,1,1.1v1c0,0.2,0,0.5,0,0.6
			L386.6,368.4L386.6,368.4z M386.5,367.1c-0.5,0-1.1,0.1-1.1,0.6c0,0.3,0.2,0.5,0.4,0.5c0.3,0,0.6-0.2,0.6-0.4c0,0,0-0.1,0-0.2
			L386.5,367.1L386.5,367.1z"/>
		<path class="st0" d="M387.7,367.9c0.1,0.1,0.4,0.2,0.6,0.2c0.3,0,0.5-0.2,0.5-0.4c0-0.2-0.1-0.4-0.5-0.5c-0.5-0.2-0.7-0.4-0.7-0.7
			c0-0.4,0.3-0.8,0.9-0.8c0.3,0,0.5,0.1,0.6,0.2l-0.1,0.3c-0.1-0.1-0.3-0.2-0.5-0.2c-0.3,0-0.4,0.2-0.4,0.4c0,0.2,0.2,0.3,0.5,0.4
			c0.5,0.2,0.7,0.4,0.7,0.8c0,0.5-0.4,0.8-1,0.8c-0.3,0-0.6-0.1-0.7-0.2L387.7,367.9z"/>
		<path class="st0" d="M390.4,365.1c0,0.2-0.1,0.3-0.3,0.3c-0.2,0-0.3-0.1-0.3-0.3c0-0.2,0.1-0.3,0.3-0.3
			C390.3,364.8,390.4,364.9,390.4,365.1z M389.9,368.4v-2.6h0.5v2.6H389.9z"/>
		<path class="st0" d="M391.2,366.5c0-0.3,0-0.5,0-0.7h0.4v0.4l0,0c0.1-0.2,0.4-0.5,0.9-0.5c0.4,0,0.9,0.2,0.9,1.1v1.6h-0.5v-1.5
			c0-0.4-0.2-0.8-0.6-0.8c-0.3,0-0.6,0.2-0.6,0.5c0,0.1,0,0.1,0,0.2v1.6h-0.5L391.2,366.5L391.2,366.5z"/>
		<path class="st0" d="M395.2,367.9c0.1,0.1,0.4,0.2,0.6,0.2c0.3,0,0.5-0.2,0.5-0.4c0-0.2-0.1-0.4-0.5-0.5c-0.5-0.2-0.7-0.4-0.7-0.7
			c0-0.4,0.3-0.8,0.9-0.8c0.3,0,0.5,0.1,0.6,0.2l-0.1,0.3c-0.1-0.1-0.3-0.2-0.5-0.2c-0.3,0-0.4,0.2-0.4,0.4c0,0.2,0.2,0.3,0.5,0.4
			c0.5,0.2,0.7,0.4,0.7,0.8c0,0.5-0.4,0.8-1,0.8c-0.3,0-0.6-0.1-0.7-0.2L395.2,367.9z"/>
		<path class="st0" d="M397.5,366.7c0-0.3,0-0.6,0-0.9h0.4v0.4l0,0c0.2-0.3,0.5-0.5,0.9-0.5c0.6,0,1.1,0.5,1.1,1.3
			c0,0.9-0.6,1.4-1.2,1.4c-0.3,0-0.6-0.2-0.8-0.4l0,0v1.4h-0.5L397.5,366.7L397.5,366.7z M397.9,367.4c0,0.1,0,0.1,0,0.2
			c0.1,0.3,0.4,0.6,0.7,0.6c0.5,0,0.8-0.4,0.8-1c0-0.5-0.3-1-0.8-1c-0.3,0-0.6,0.2-0.7,0.6c0,0.1,0,0.1,0,0.2V367.4L397.9,367.4z"/>
		<path class="st0" d="M402.9,367.1c0,1-0.7,1.4-1.3,1.4c-0.7,0-1.3-0.5-1.3-1.3c0-0.9,0.6-1.4,1.3-1.4
			C402.4,365.8,402.9,366.3,402.9,367.1z M400.8,367.1c0,0.6,0.3,1,0.8,1s0.8-0.4,0.8-1c0-0.4-0.2-1-0.8-1S400.8,366.6,400.8,367.1z
			"/>
		<path class="st0" d="M403.5,366.6c0-0.3,0-0.6,0-0.8h0.4v0.5l0,0c0.1-0.4,0.4-0.6,0.7-0.6c0.1,0,0.1,0,0.1,0v0.5c0,0-0.1,0-0.2,0
			c-0.3,0-0.6,0.3-0.6,0.6c0,0.1,0,0.1,0,0.2v1.4h-0.5L403.5,366.6L403.5,366.6z"/>
		<path class="st0" d="M406,365.1v0.8h0.7v0.4H406v1.4c0,0.3,0.1,0.5,0.4,0.5c0.1,0,0.2,0,0.3,0v0.4c-0.1,0-0.2,0.1-0.4,0.1
			c-0.2,0-0.4-0.1-0.5-0.2s-0.2-0.4-0.2-0.7v-1.4h-0.4V366h0.4v-0.6L406,365.1z"/>
		<path class="st0" d="M407.7,365.1c0,0.2-0.1,0.3-0.3,0.3c-0.2,0-0.3-0.1-0.3-0.3c0-0.2,0.1-0.3,0.3-0.3
			C407.6,364.8,407.7,364.9,407.7,365.1z M407.2,368.4v-2.6h0.5v2.6H407.2z"/>
		<path class="st0" d="M408.5,368.4v-2.3h-0.4v-0.4h0.4v-0.1c0-0.4,0.1-0.7,0.3-0.9c0.2-0.2,0.4-0.2,0.6-0.2s0.3,0,0.4,0.1l-0.1,0.4
			c-0.1,0-0.2-0.1-0.3-0.1c-0.4,0-0.5,0.4-0.5,0.8v0.1h0.6v0.4H409v2.3L408.5,368.4L408.5,368.4z"/>
	</g>
</g>
<g>
	<path d="M308,598.6h-66.3c-1.4,0-2.5-1.1-2.5-2.5v-4.8c0-1.4,1.1-2.5,2.5-2.5H308c1.4,0,2.5,1.1,2.5,2.5v4.8
		C310.5,597.4,309.4,598.6,308,598.6z"/>
	<g>
		<path class="st0" d="M245.6,591.4c0.2,0,0.5-0.1,0.9-0.1c0.5,0,0.8,0.1,1,0.3s0.3,0.4,0.3,0.8c0,0.3-0.1,0.6-0.3,0.8
			c-0.2,0.3-0.7,0.4-1.1,0.4c-0.1,0-0.3,0-0.4,0v1.5h-0.5L245.6,591.4L245.6,591.4z M246.1,593.2c0.1,0,0.2,0,0.4,0
			c0.6,0,0.9-0.3,0.9-0.8s-0.3-0.7-0.9-0.7c-0.2,0-0.4,0-0.4,0V593.2L246.1,593.2z"/>
		<path class="st0" d="M248.6,593.8c0,0.6,0.4,0.9,0.9,0.9c0.3,0,0.5-0.1,0.7-0.1l0.1,0.3c-0.2,0.1-0.5,0.2-0.9,0.2
			c-0.8,0-1.3-0.5-1.3-1.3s0.5-1.4,1.2-1.4c0.9,0,1.1,0.8,1.1,1.2c0,0.1,0,0.2,0,0.2L248.6,593.8L248.6,593.8z M250,593.4
			c0-0.3-0.1-0.8-0.7-0.8c-0.5,0-0.7,0.4-0.7,0.8H250z M250.1,591.3l-0.7,0.8h-0.3l0.5-0.8H250.1z"/>
		<path class="st0" d="M253.3,591.2v3.2c0,0.2,0,0.5,0,0.7h-0.4v-0.5l0,0c-0.1,0.3-0.5,0.5-0.9,0.5c-0.6,0-1.1-0.5-1.1-1.3
			c0-0.9,0.5-1.4,1.2-1.4c0.4,0,0.7,0.2,0.8,0.4l0,0v-1.6L253.3,591.2L253.3,591.2z M252.8,593.5c0-0.1,0-0.1,0-0.2
			c-0.1-0.3-0.3-0.6-0.7-0.6c-0.5,0-0.8,0.4-0.8,1c0,0.5,0.3,1,0.8,1c0.3,0,0.6-0.2,0.7-0.6c0-0.1,0-0.1,0-0.2V593.5z"/>
		<path class="st0" d="M255.5,595v-0.3l0,0c-0.1,0.2-0.4,0.4-0.8,0.4c-0.5,0-0.8-0.4-0.8-0.8c0-0.6,0.6-1,1.6-1v-0.1
			c0-0.2-0.1-0.6-0.6-0.6c-0.2,0-0.5,0.1-0.7,0.2l-0.1-0.3c0.2-0.1,0.5-0.2,0.9-0.2c0.8,0,1,0.5,1,1.1v1c0,0.2,0,0.5,0,0.6
			L255.5,595L255.5,595z M255.5,593.7c-0.5,0-1.1,0.1-1.1,0.6c0,0.3,0.2,0.5,0.4,0.5c0.3,0,0.6-0.2,0.6-0.4c0,0,0-0.1,0-0.2v-0.5
			H255.5z"/>
		<path class="st0" d="M259,592.4c0,0.2,0,0.4,0,0.7v1.5c0,0.6-0.1,1-0.4,1.2s-0.6,0.3-1,0.3c-0.3,0-0.7-0.1-0.9-0.2l0.1-0.4
			c0.2,0.1,0.4,0.2,0.8,0.2c0.5,0,0.8-0.3,0.8-0.9v-0.3l0,0c-0.1,0.2-0.4,0.4-0.8,0.4c-0.6,0-1.1-0.6-1.1-1.3c0-0.9,0.6-1.4,1.2-1.4
			c0.5,0,0.7,0.2,0.8,0.5l0,0v-0.4h0.5V592.4z M258.5,593.4c0-0.1,0-0.2,0-0.2c-0.1-0.3-0.3-0.5-0.7-0.5c-0.5,0-0.8,0.4-0.8,1
			c0,0.5,0.3,0.9,0.8,0.9c0.3,0,0.6-0.2,0.7-0.5c0-0.1,0-0.2,0-0.3V593.4L258.5,593.4z"/>
		<path class="st0" d="M262.1,593.7c0,1-0.7,1.4-1.3,1.4c-0.7,0-1.3-0.5-1.3-1.3c0-0.9,0.6-1.4,1.3-1.4
			C261.6,592.3,262.1,592.9,262.1,593.7z M260,593.7c0,0.6,0.3,1,0.8,1s0.8-0.4,0.8-1c0-0.4-0.2-1-0.8-1S260,593.2,260,593.7z"/>
		<path class="st0" d="M265,592.4c0,0.2,0,0.4,0,0.7v1.5c0,0.6-0.1,1-0.4,1.2s-0.6,0.3-1,0.3c-0.3,0-0.7-0.1-0.9-0.2l0.1-0.4
			c0.2,0.1,0.4,0.2,0.8,0.2c0.5,0,0.8-0.3,0.8-0.9v-0.3l0,0c-0.1,0.2-0.4,0.4-0.8,0.4c-0.6,0-1.1-0.6-1.1-1.3c0-0.9,0.6-1.4,1.2-1.4
			c0.5,0,0.7,0.2,0.8,0.5l0,0v-0.4h0.5V592.4z M264.5,593.4c0-0.1,0-0.2,0-0.2c-0.1-0.3-0.3-0.5-0.7-0.5c-0.5,0-0.8,0.4-0.8,1
			c0,0.5,0.3,0.9,0.8,0.9c0.3,0,0.6-0.2,0.7-0.5c0-0.1,0-0.2,0-0.3V593.4L264.5,593.4z"/>
		<path class="st0" d="M266.2,591.6c0,0.2-0.1,0.3-0.3,0.3c-0.2,0-0.3-0.1-0.3-0.3s0.1-0.3,0.3-0.3
			C266.1,591.4,266.2,591.5,266.2,591.6z M265.7,595v-2.6h0.5v2.6H265.7z"/>
		<path class="st0" d="M267.2,593.8c0,0.6,0.4,0.9,0.9,0.9c0.3,0,0.5-0.1,0.7-0.1l0.1,0.3c-0.2,0.1-0.5,0.2-0.9,0.2
			c-0.8,0-1.3-0.5-1.3-1.3s0.5-1.4,1.2-1.4c0.9,0,1.1,0.8,1.1,1.2c0,0.1,0,0.2,0,0.2L267.2,593.8L267.2,593.8z M268.6,593.4
			c0-0.3-0.1-0.8-0.7-0.8c-0.5,0-0.7,0.4-0.7,0.8H268.6z"/>
		<path class="st0" d="M271.1,593.8c0,0.6,0.4,0.9,0.9,0.9c0.3,0,0.5-0.1,0.7-0.1l0.1,0.3c-0.2,0.1-0.5,0.2-0.9,0.2
			c-0.8,0-1.3-0.5-1.3-1.3s0.5-1.4,1.2-1.4c0.9,0,1.1,0.8,1.1,1.2c0,0.1,0,0.2,0,0.2L271.1,593.8L271.1,593.8z M272.5,593.4
			c0-0.3-0.1-0.8-0.7-0.8c-0.5,0-0.7,0.4-0.7,0.8H272.5z"/>
		<path class="st0" d="M274.1,591.6v0.8h0.7v0.4h-0.7v1.4c0,0.3,0.1,0.5,0.4,0.5c0.1,0,0.2,0,0.3,0v0.4c-0.1,0-0.2,0.1-0.4,0.1
			c-0.2,0-0.4-0.1-0.5-0.2c-0.1-0.1-0.2-0.4-0.2-0.7v-1.4h-0.4v-0.4h0.4v-0.6L274.1,591.6z"/>
		<path class="st0" d="M277,591.6c0,0.2-0.1,0.3-0.3,0.3c-0.2,0-0.3-0.1-0.3-0.3s0.1-0.3,0.3-0.3C276.9,591.4,277,591.5,277,591.6z
			 M276.5,595v-2.6h0.5v2.6H276.5z"/>
		<path class="st0" d="M277.7,593.1c0-0.3,0-0.5,0-0.7h0.4v0.4l0,0c0.1-0.2,0.4-0.5,0.9-0.5c0.4,0,0.9,0.2,0.9,1.1v1.6h-0.5v-1.5
			c0-0.4-0.2-0.8-0.6-0.8c-0.3,0-0.6,0.2-0.6,0.5c0,0.1,0,0.1,0,0.2v1.6h-0.5L277.7,593.1L277.7,593.1z"/>
		<path class="st0" d="M281.3,591.6v0.8h0.7v0.4h-0.7v1.4c0,0.3,0.1,0.5,0.4,0.5c0.1,0,0.2,0,0.3,0v0.4c-0.1,0-0.2,0.1-0.4,0.1
			c-0.2,0-0.4-0.1-0.5-0.2c-0.1-0.1-0.2-0.4-0.2-0.7v-1.4h-0.4v-0.4h0.4v-0.6L281.3,591.6z"/>
		<path class="st0" d="M282.7,593.8c0,0.6,0.4,0.9,0.9,0.9c0.3,0,0.5-0.1,0.7-0.1l0.1,0.3c-0.2,0.1-0.5,0.2-0.9,0.2
			c-0.8,0-1.3-0.5-1.3-1.3s0.5-1.4,1.2-1.4c0.9,0,1.1,0.8,1.1,1.2c0,0.1,0,0.2,0,0.2L282.7,593.8L282.7,593.8z M284.1,593.4
			c0-0.3-0.1-0.8-0.7-0.8c-0.5,0-0.7,0.4-0.7,0.8H284.1z"/>
		<path class="st0" d="M285.2,593.2c0-0.3,0-0.6,0-0.8h0.4v0.5l0,0c0.1-0.4,0.4-0.6,0.7-0.6c0.1,0,0.1,0,0.1,0v0.5c0,0-0.1,0-0.2,0
			c-0.3,0-0.6,0.3-0.6,0.6c0,0.1,0,0.1,0,0.2v1.4h-0.5L285.2,593.2L285.2,593.2z"/>
		<path class="st0" d="M287,593.1c0-0.3,0-0.5,0-0.7h0.4v0.4l0,0c0.1-0.2,0.4-0.5,0.9-0.5c0.4,0,0.9,0.2,0.9,1.1v1.6h-0.5v-1.5
			c0-0.4-0.2-0.8-0.6-0.8c-0.3,0-0.6,0.2-0.6,0.5c0,0.1,0,0.1,0,0.2v1.6H287V593.1L287,593.1z"/>
		<path class="st0" d="M291.4,595v-0.3l0,0c-0.1,0.2-0.4,0.4-0.8,0.4c-0.5,0-0.8-0.4-0.8-0.8c0-0.6,0.6-1,1.6-1v-0.1
			c0-0.2-0.1-0.6-0.6-0.6c-0.2,0-0.5,0.1-0.7,0.2l-0.1-0.3c0.2-0.1,0.5-0.2,0.9-0.2c0.8,0,1,0.5,1,1.1v1c0,0.2,0,0.5,0,0.6
			L291.4,595L291.4,595z M291.4,593.7c-0.5,0-1.1,0.1-1.1,0.6c0,0.3,0.2,0.5,0.4,0.5c0.3,0,0.6-0.2,0.6-0.4c0,0,0-0.1,0-0.2
			L291.4,593.7L291.4,593.7z"/>
		<path class="st0" d="M293.1,591.6v0.8h0.7v0.4h-0.7v1.4c0,0.3,0.1,0.5,0.4,0.5c0.1,0,0.2,0,0.3,0v0.4c-0.1,0-0.2,0.1-0.4,0.1
			c-0.2,0-0.4-0.1-0.5-0.2c-0.1-0.1-0.2-0.4-0.2-0.7v-1.4h-0.4v-0.4h0.4v-0.6L293.1,591.6z"/>
		<path class="st0" d="M294.9,591.6c0,0.2-0.1,0.3-0.3,0.3c-0.2,0-0.3-0.1-0.3-0.3s0.1-0.3,0.3-0.3
			C294.8,591.4,294.9,591.5,294.9,591.6z M294.4,595v-2.6h0.5v2.6H294.4z"/>
		<path class="st0" d="M298,593.7c0,1-0.7,1.4-1.3,1.4c-0.7,0-1.3-0.5-1.3-1.3c0-0.9,0.6-1.4,1.3-1.4
			C297.5,592.3,298,592.9,298,593.7z M295.9,593.7c0,0.6,0.3,1,0.8,1s0.8-0.4,0.8-1c0-0.4-0.2-1-0.8-1S295.9,593.2,295.9,593.7z"/>
		<path class="st0" d="M298.6,593.1c0-0.3,0-0.5,0-0.7h0.4v0.4l0,0c0.1-0.2,0.4-0.5,0.9-0.5c0.4,0,0.9,0.2,0.9,1.1v1.6h-0.5v-1.5
			c0-0.4-0.2-0.8-0.6-0.8c-0.3,0-0.6,0.2-0.6,0.5c0,0.1,0,0.1,0,0.2v1.6h-0.5L298.6,593.1L298.6,593.1z"/>
		<path class="st0" d="M303.1,595v-0.3l0,0c-0.1,0.2-0.4,0.4-0.8,0.4c-0.5,0-0.8-0.4-0.8-0.8c0-0.6,0.6-1,1.6-1v-0.1
			c0-0.2-0.1-0.6-0.6-0.6c-0.2,0-0.5,0.1-0.7,0.2l-0.1-0.3c0.2-0.1,0.5-0.2,0.9-0.2c0.8,0,1,0.5,1,1.1v1c0,0.2,0,0.5,0,0.6
			L303.1,595L303.1,595z M303,593.7c-0.5,0-1.1,0.1-1.1,0.6c0,0.3,0.2,0.5,0.4,0.5c0.3,0,0.6-0.2,0.6-0.4c0,0,0-0.1,0-0.2L303,593.7
			L303,593.7z"/>
		<path class="st0" d="M304.2,591.2h0.5v3.8h-0.5V591.2z"/>
	</g>
</g>
<g>
	<path d="M395.4,617.2h-66.3c-1.4,0-2.5-1.1-2.5-2.5v-4.8c0-1.4,1.1-2.5,2.5-2.5h66.3c1.4,0,2.5,1.1,2.5,2.5v4.8
		C398,616,396.8,617.2,395.4,617.2z"/>
	<g>
		<path class="st0" d="M334,612.4l-0.4,1.1h-0.5l1.2-3.7h0.6l1.2,3.7h-0.5l-0.4-1.1H334z M335.2,612.1l-0.4-1.1
			c-0.1-0.2-0.1-0.5-0.2-0.7l0,0c-0.1,0.2-0.1,0.4-0.2,0.7l-0.4,1.1H335.2z"/>
		<path class="st0" d="M336.7,611.7c0-0.3,0-0.5,0-0.7h0.4v0.4l0,0c0.1-0.2,0.4-0.5,0.9-0.5c0.4,0,0.9,0.2,0.9,1.1v1.6h-0.5v-1.5
			c0-0.4-0.2-0.8-0.6-0.8c-0.3,0-0.6,0.2-0.6,0.5c0,0.1,0,0.1,0,0.2v1.6h-0.5L336.7,611.7L336.7,611.7z"/>
		<path class="st0" d="M340.2,610.2c0,0.2-0.1,0.3-0.3,0.3c-0.2,0-0.3-0.1-0.3-0.3s0.1-0.3,0.3-0.3S340.2,610.1,340.2,610.2z
			 M339.7,613.6V611h0.5v2.6H339.7z"/>
		<path class="st0" d="M340.9,611.7c0-0.3,0-0.5,0-0.7h0.4v0.4l0,0c0.1-0.2,0.4-0.5,0.8-0.5s0.6,0.2,0.7,0.5l0,0
			c0.1-0.1,0.2-0.3,0.3-0.3c0.2-0.1,0.3-0.2,0.6-0.2c0.3,0,0.9,0.2,0.9,1.1v1.5h-0.5V612c0-0.5-0.2-0.8-0.6-0.8
			c-0.3,0-0.5,0.2-0.6,0.4c0,0.1,0,0.2,0,0.2v1.6h-0.5V612c0-0.4-0.2-0.7-0.5-0.7s-0.5,0.2-0.6,0.5c0,0.1,0,0.2,0,0.2v1.6h-0.5
			L340.9,611.7L340.9,611.7z"/>
		<path class="st0" d="M346.9,613.6v-0.3l0,0c-0.1,0.2-0.4,0.4-0.8,0.4c-0.5,0-0.8-0.4-0.8-0.8c0-0.6,0.6-1,1.6-1v-0.1
			c0-0.2-0.1-0.6-0.6-0.6c-0.2,0-0.5,0.1-0.7,0.2l-0.1-0.3c0.2-0.1,0.5-0.2,0.9-0.2c0.8,0,1,0.5,1,1.1v1c0,0.2,0,0.5,0,0.6
			L346.9,613.6L346.9,613.6z M346.8,612.3c-0.5,0-1.1,0.1-1.1,0.6c0,0.3,0.2,0.5,0.4,0.5c0.3,0,0.6-0.2,0.6-0.4c0,0,0-0.1,0-0.2
			L346.8,612.3L346.8,612.3z"/>
		<path class="st0" d="M348.6,610.2v0.8h0.7v0.4h-0.7v1.4c0,0.3,0.1,0.5,0.4,0.5c0.1,0,0.2,0,0.3,0v0.4c-0.1,0-0.2,0.1-0.4,0.1
			c-0.2,0-0.4-0.1-0.5-0.2c-0.1-0.1-0.2-0.4-0.2-0.7v-1.4h-0.4V611h0.4v-0.6L348.6,610.2z"/>
		<path class="st0" d="M350.4,610.2c0,0.2-0.1,0.3-0.3,0.3c-0.2,0-0.3-0.1-0.3-0.3s0.1-0.3,0.3-0.3
			C350.2,609.9,350.4,610.1,350.4,610.2z M349.8,613.6V611h0.5v2.6H349.8z"/>
		<path class="st0" d="M353.5,612.3c0,1-0.7,1.4-1.3,1.4c-0.7,0-1.3-0.5-1.3-1.3c0-0.9,0.6-1.4,1.3-1.4
			C353,610.9,353.5,611.5,353.5,612.3z M351.4,612.3c0,0.6,0.3,1,0.8,1s0.8-0.4,0.8-1c0-0.4-0.2-1-0.8-1S351.4,611.8,351.4,612.3z"
			/>
		<path class="st0" d="M354.1,611.7c0-0.3,0-0.5,0-0.7h0.4v0.4l0,0c0.1-0.2,0.4-0.5,0.9-0.5c0.4,0,0.9,0.2,0.9,1.1v1.6h-0.5v-1.5
			c0-0.4-0.2-0.8-0.6-0.8c-0.3,0-0.6,0.2-0.6,0.5c0,0.1,0,0.1,0,0.2v1.6h-0.5L354.1,611.7L354.1,611.7z"/>
		<path class="st0" d="M358.5,612.4c0,0.6,0.4,0.9,0.9,0.9c0.3,0,0.5-0.1,0.7-0.1l0.1,0.3c-0.2,0.1-0.5,0.2-0.9,0.2
			c-0.8,0-1.3-0.5-1.3-1.3s0.5-1.4,1.2-1.4c0.9,0,1.1,0.8,1.1,1.2c0,0.1,0,0.2,0,0.2L358.5,612.4L358.5,612.4z M359.9,612
			c0-0.3-0.1-0.8-0.7-0.8c-0.5,0-0.7,0.4-0.7,0.8H359.9z"/>
		<path class="st0" d="M361.5,610.2v0.8h0.7v0.4h-0.7v1.4c0,0.3,0.1,0.5,0.4,0.5c0.1,0,0.2,0,0.3,0v0.4c-0.1,0-0.2,0.1-0.4,0.1
			c-0.2,0-0.4-0.1-0.5-0.2c-0.1-0.1-0.2-0.4-0.2-0.7v-1.4h-0.4V611h0.4v-0.6L361.5,610.2z"/>
		<path class="st0" d="M365.7,613.5c-0.1,0.1-0.4,0.2-0.8,0.2c-0.8,0-1.3-0.5-1.3-1.3s0.6-1.4,1.4-1.4c0.3,0,0.5,0.1,0.7,0.1
			l-0.1,0.4c-0.1-0.1-0.3-0.1-0.6-0.1c-0.6,0-0.9,0.4-0.9,1s0.4,1,0.9,1c0.3,0,0.4-0.1,0.6-0.1L365.7,613.5z"/>
		<path class="st0" d="M368.6,612.3c0,1-0.7,1.4-1.3,1.4c-0.7,0-1.3-0.5-1.3-1.3c0-0.9,0.6-1.4,1.3-1.4
			C368.1,610.9,368.6,611.5,368.6,612.3z M366.5,612.3c0,0.6,0.3,1,0.8,1s0.8-0.4,0.8-1c0-0.4-0.2-1-0.8-1S366.5,611.8,366.5,612.3z
			"/>
		<path class="st0" d="M369.2,611.7c0-0.3,0-0.5,0-0.7h0.4v0.4l0,0c0.1-0.2,0.4-0.5,0.9-0.5c0.4,0,0.9,0.2,0.9,1.1v1.6H371v-1.5
			c0-0.4-0.2-0.8-0.6-0.8c-0.3,0-0.6,0.2-0.6,0.5c0,0.1,0,0.1,0,0.2v1.6h-0.5L369.2,611.7L369.2,611.7z"/>
		<path class="st0" d="M372.2,613.1c0.1,0.1,0.4,0.2,0.6,0.2c0.3,0,0.5-0.2,0.5-0.4s-0.1-0.4-0.5-0.5c-0.5-0.2-0.7-0.4-0.7-0.7
			c0-0.4,0.3-0.8,0.9-0.8c0.3,0,0.5,0.1,0.6,0.2l-0.1,0.3c-0.1-0.1-0.3-0.2-0.5-0.2c-0.3,0-0.4,0.2-0.4,0.4s0.2,0.3,0.5,0.4
			c0.5,0.2,0.7,0.4,0.7,0.8c0,0.5-0.4,0.8-1,0.8c-0.3,0-0.6-0.1-0.7-0.2L372.2,613.1z"/>
		<path class="st0" d="M376.6,612.9c0,0.3,0,0.5,0,0.7h-0.4v-0.4l0,0c-0.1,0.2-0.4,0.5-0.9,0.5c-0.4,0-0.9-0.2-0.9-1.1V611h0.5v1.5
			c0,0.5,0.2,0.8,0.6,0.8c0.3,0,0.5-0.2,0.6-0.4c0-0.1,0-0.2,0-0.2V611h0.5L376.6,612.9L376.6,612.9z"/>
		<path class="st0" d="M377.4,609.8h0.5v3.8h-0.5V609.8z"/>
		<path class="st0" d="M379.2,610.2v0.8h0.7v0.4h-0.7v1.4c0,0.3,0.1,0.5,0.4,0.5c0.1,0,0.2,0,0.3,0v0.4c-0.1,0-0.2,0.1-0.4,0.1
			c-0.2,0-0.4-0.1-0.5-0.2c-0.1-0.1-0.2-0.4-0.2-0.7v-1.4h-0.4V611h0.4v-0.6L379.2,610.2z"/>
		<path class="st0" d="M381.9,613.6v-0.3l0,0c-0.1,0.2-0.4,0.4-0.8,0.4c-0.5,0-0.8-0.4-0.8-0.8c0-0.6,0.6-1,1.6-1v-0.1
			c0-0.2-0.1-0.6-0.6-0.6c-0.2,0-0.5,0.1-0.7,0.2l-0.1-0.3c0.2-0.1,0.5-0.2,0.9-0.2c0.8,0,1,0.5,1,1.1v1c0,0.2,0,0.5,0,0.6
			L381.9,613.6L381.9,613.6z M381.8,612.3c-0.5,0-1.1,0.1-1.1,0.6c0,0.3,0.2,0.5,0.4,0.5c0.3,0,0.6-0.2,0.6-0.4c0,0,0-0.1,0-0.2
			L381.8,612.3L381.8,612.3z"/>
		<path class="st0" d="M383.6,610.2v0.8h0.7v0.4h-0.7v1.4c0,0.3,0.1,0.5,0.4,0.5c0.1,0,0.2,0,0.3,0v0.4c-0.1,0-0.2,0.1-0.4,0.1
			c-0.2,0-0.4-0.1-0.5-0.2c-0.1-0.1-0.2-0.4-0.2-0.7v-1.4h-0.4V611h0.4v-0.6L383.6,610.2z"/>
		<path class="st0" d="M385.3,610.2c0,0.2-0.1,0.3-0.3,0.3c-0.2,0-0.3-0.1-0.3-0.3s0.1-0.3,0.3-0.3
			C385.2,609.9,385.3,610.1,385.3,610.2z M384.8,613.6V611h0.5v2.6H384.8z"/>
		<path class="st0" d="M388.4,612.3c0,1-0.7,1.4-1.3,1.4c-0.7,0-1.3-0.5-1.3-1.3c0-0.9,0.6-1.4,1.3-1.4
			C387.9,610.9,388.4,611.5,388.4,612.3z M386.4,612.3c0,0.6,0.3,1,0.8,1s0.8-0.4,0.8-1c0-0.4-0.2-1-0.8-1S386.4,611.8,386.4,612.3z
			"/>
		<path class="st0" d="M389,611.7c0-0.3,0-0.5,0-0.7h0.4v0.4l0,0c0.1-0.2,0.4-0.5,0.9-0.5c0.4,0,0.9,0.2,0.9,1.1v1.6h-0.5v-1.5
			c0-0.4-0.2-0.8-0.6-0.8c-0.3,0-0.6,0.2-0.6,0.5c0,0.1,0,0.1,0,0.2v1.6H389V611.7L389,611.7z"/>
	</g>
</g>
<g>
	<path d="M302.7,380.8h-55.2c-1.4,0-2.5-1.1-2.5-2.5V367c0-1.4,1.1-2.5,2.5-2.5h55.2c1.4,0,2.5,1.1,2.5,2.5v11.3
		C305.3,379.7,304.1,380.8,302.7,380.8z"/>
	<g>
		<path class="st0" d="M259,375.1c-0.4,0.1-1,0.3-1.9,0.3s-1.7-0.2-2.3-0.8c-0.5-0.5-0.8-1.3-0.8-2.3c0-1.8,1.2-3.1,3.3-3.1
			c0.7,0,1.2,0.2,1.5,0.3l-0.2,0.6c-0.3-0.1-0.7-0.3-1.3-0.3c-1.5,0-2.4,0.9-2.4,2.4s0.9,2.4,2.3,2.4c0.5,0,0.9-0.1,1-0.2v-1.8H257
			V372h2V375.1L259,375.1z"/>
		<path class="st0" d="M260.5,371l1,2.6c0.1,0.3,0.2,0.6,0.3,0.9l0,0c0.1-0.3,0.2-0.6,0.3-0.9l0.9-2.6h0.8l-1.2,3.1
			c-0.6,1.5-1,2.3-1.5,2.7c-0.4,0.3-0.8,0.5-1,0.5l-0.2-0.7c0.2-0.1,0.5-0.2,0.7-0.4c0.2-0.2,0.5-0.5,0.7-0.9c0-0.1,0.1-0.1,0.1-0.2
			s0-0.1-0.1-0.2l-1.6-4L260.5,371L260.5,371z"/>
		<path class="st0" d="M264.4,372.2c0-0.5,0-0.8,0-1.2h0.7v0.7l0,0c0.2-0.4,0.6-0.8,1.4-0.8c0.6,0,1,0.4,1.2,0.9l0,0
			c0.1-0.2,0.3-0.4,0.5-0.6c0.3-0.2,0.5-0.3,1-0.3c0.6,0,1.4,0.4,1.4,1.9v2.6h-0.8v-2.5c0-0.8-0.3-1.3-0.9-1.3
			c-0.5,0-0.8,0.3-0.9,0.7c0,0.1-0.1,0.3-0.1,0.4v2.7h-0.8v-2.6c0-0.7-0.3-1.2-0.9-1.2c-0.5,0-0.9,0.4-1,0.8c0,0.1-0.1,0.3-0.1,0.4
			v2.6h-0.8L264.4,372.2L264.4,372.2z"/>
		<path class="st0" d="M271.9,372.2c0-0.5,0-0.8,0-1.2h0.7v0.7l0,0c0.2-0.4,0.7-0.8,1.4-0.8c0.6,0,1.5,0.4,1.5,1.9v2.6h-0.8v-2.5
			c0-0.7-0.3-1.3-1-1.3c-0.5,0-0.9,0.4-1.1,0.8c0,0.1-0.1,0.2-0.1,0.4v2.6h-0.8v-3.2H271.9z"/>
		<path class="st0" d="M279.3,375.3l-0.1-0.5l0,0c-0.2,0.3-0.7,0.6-1.3,0.6c-0.9,0-1.3-0.6-1.3-1.2c0-1.1,0.9-1.6,2.6-1.6v-0.1
			c0-0.4-0.1-1-1-1c-0.4,0-0.8,0.1-1.1,0.3l-0.2-0.5c0.4-0.2,0.9-0.4,1.4-0.4c1.3,0,1.7,0.9,1.7,1.8v1.6c0,0.4,0,0.7,0.1,1
			L279.3,375.3L279.3,375.3z M279.2,373.1c-0.9,0-1.8,0.1-1.8,1c0,0.5,0.3,0.8,0.7,0.8c0.6,0,0.9-0.4,1.1-0.7c0-0.1,0-0.2,0-0.3
			L279.2,373.1L279.2,373.1z"/>
		<path class="st0" d="M281.1,374.5c0.2,0.2,0.6,0.3,1,0.3c0.6,0,0.8-0.3,0.8-0.6c0-0.4-0.2-0.6-0.8-0.8c-0.8-0.3-1.1-0.7-1.1-1.2
			c0-0.7,0.6-1.3,1.5-1.3c0.4,0,0.8,0.1,1.1,0.3l-0.2,0.6c-0.2-0.1-0.5-0.3-0.9-0.3c-0.5,0-0.7,0.3-0.7,0.6c0,0.4,0.3,0.5,0.8,0.7
			c0.8,0.3,1.1,0.7,1.1,1.3c0,0.8-0.6,1.3-1.6,1.3c-0.5,0-0.9-0.1-1.2-0.3L281.1,374.5z"/>
		<path class="st0" d="M285.2,373.3c0,1.1,0.7,1.5,1.5,1.5c0.6,0,0.9-0.1,1.2-0.2l0.1,0.6c-0.3,0.1-0.8,0.3-1.4,0.3
			c-1.3,0-2.1-0.9-2.1-2.2s0.8-2.3,2-2.3c1.4,0,1.8,1.2,1.8,2c0,0.2,0,0.3,0,0.4L285.2,373.3L285.2,373.3z M287.6,372.7
			c0-0.5-0.2-1.3-1.1-1.3c-0.8,0-1.1,0.7-1.2,1.3H287.6z"/>
		<path class="st0" d="M291.2,369.4c0.5-0.1,1-0.1,1.7-0.1c1.1,0,1.9,0.3,2.5,0.8c0.5,0.5,0.9,1.2,0.9,2.2s-0.3,1.8-0.9,2.4
			s-1.5,0.9-2.7,0.9c-0.6,0-1,0-1.4-0.1L291.2,369.4L291.2,369.4z M292,374.7c0.2,0,0.5,0,0.8,0c1.7,0,2.6-0.9,2.6-2.6
			c0-1.4-0.8-2.3-2.5-2.3c-0.4,0-0.7,0-0.9,0.1V374.7L292,374.7z"/>
	</g>
</g>
<g>
	<path d="M370.2,433.1H285c-1.4,0-2.5-1.1-2.5-2.5v-11.3c0-1.4,1.1-2.5,2.5-2.5h85.2c1.4,0,2.5,1.1,2.5,2.5v11.3
		C372.7,432,371.6,433.1,370.2,433.1z"/>
	<g>
		<path class="st0" d="M289.3,426.6c0.4,0.2,0.9,0.4,1.4,0.4c0.8,0,1.3-0.4,1.3-1s-0.3-0.9-1.1-1.2c-1-0.4-1.6-0.9-1.6-1.7
			c0-0.9,0.8-1.6,2-1.6c0.6,0,1.1,0.1,1.3,0.3l-0.2,0.6c-0.2-0.1-0.6-0.3-1.1-0.3c-0.8,0-1.1,0.5-1.1,0.9c0,0.6,0.4,0.8,1.2,1.2
			c1,0.4,1.5,0.9,1.5,1.8s-0.7,1.7-2.1,1.7c-0.6,0-1.2-0.2-1.5-0.4L289.3,426.6z"/>
		<path class="st0" d="M296.3,427.6l-0.1-0.5l0,0c-0.2,0.3-0.7,0.6-1.3,0.6c-0.9,0-1.3-0.6-1.3-1.2c0-1.1,0.9-1.6,2.6-1.6v-0.1
			c0-0.4-0.1-1-1-1c-0.4,0-0.8,0.1-1.1,0.3l-0.2-0.5c0.4-0.2,0.9-0.4,1.4-0.4c1.3,0,1.7,0.9,1.7,1.8v1.6c0,0.4,0,0.7,0.1,1
			L296.3,427.6L296.3,427.6z M296.2,425.3c-0.9,0-1.8,0.1-1.8,1c0,0.5,0.3,0.8,0.7,0.8c0.6,0,0.9-0.4,1.1-0.7c0-0.1,0-0.2,0-0.3
			L296.2,425.3L296.2,425.3z"/>
		<path class="st0" d="M298.2,421.2h0.8v6.4h-0.8V421.2z"/>
		<path class="st0" d="M300.3,421.2h0.8v6.4h-0.8V421.2z"/>
		<path class="st0" d="M302.9,425.5c0,1.1,0.7,1.5,1.5,1.5c0.6,0,0.9-0.1,1.2-0.2l0.1,0.6c-0.3,0.1-0.8,0.3-1.4,0.3
			c-1.3,0-2.1-0.9-2.1-2.2s0.8-2.3,2-2.3c1.4,0,1.8,1.2,1.8,2c0,0.2,0,0.3,0,0.4L302.9,425.5L302.9,425.5z M305.2,425
			c0-0.5-0.2-1.3-1.1-1.3c-0.8,0-1.1,0.7-1.2,1.3H305.2z"/>
		<path class="st0" d="M308.8,426.6c0.4,0.2,0.9,0.4,1.4,0.4c0.8,0,1.3-0.4,1.3-1s-0.3-0.9-1.1-1.2c-1-0.4-1.6-0.9-1.6-1.7
			c0-0.9,0.8-1.6,2-1.6c0.6,0,1.1,0.1,1.3,0.3l-0.2,0.6c-0.2-0.1-0.6-0.3-1.1-0.3c-0.8,0-1.1,0.5-1.1,0.9c0,0.6,0.4,0.8,1.2,1.2
			c1,0.4,1.5,0.9,1.5,1.8s-0.7,1.7-2.1,1.7c-0.6,0-1.2-0.2-1.5-0.4L308.8,426.6z"/>
		<path class="st0" d="M313.5,423.2l1,2.6c0.1,0.3,0.2,0.6,0.3,0.9l0,0c0.1-0.3,0.2-0.6,0.3-0.9l0.9-2.6h0.8l-1.2,3.1
			c-0.6,1.5-1,2.3-1.5,2.7c-0.4,0.3-0.8,0.5-1,0.5l-0.2-0.7c0.2-0.1,0.5-0.2,0.7-0.4c0.2-0.2,0.5-0.5,0.7-0.9c0-0.1,0.1-0.1,0.1-0.2
			s0-0.1-0.1-0.2l-1.6-4L313.5,423.2L313.5,423.2z"/>
		<path class="st0" d="M317.4,421.2h0.8v6.4h-0.8V421.2z"/>
		<path class="st0" d="M319.9,423.2l0.9,2.4c0.1,0.4,0.3,0.8,0.4,1.1l0,0c0.1-0.4,0.2-0.7,0.4-1.1l0.8-2.4h0.8l-1.7,4.4h-0.8
			l-1.7-4.4H319.9z"/>
		<path class="st0" d="M326.3,427.6l-0.1-0.5l0,0c-0.2,0.3-0.7,0.6-1.3,0.6c-0.9,0-1.3-0.6-1.3-1.2c0-1.1,0.9-1.6,2.6-1.6v-0.1
			c0-0.4-0.1-1-1-1c-0.4,0-0.8,0.1-1.1,0.3l-0.2-0.5c0.4-0.2,0.9-0.4,1.4-0.4c1.3,0,1.7,0.9,1.7,1.8v1.6c0,0.4,0,0.7,0.1,1
			L326.3,427.6L326.3,427.6z M326.1,425.3c-0.9,0-1.8,0.1-1.8,1c0,0.5,0.3,0.8,0.7,0.8c0.6,0,0.9-0.4,1.1-0.7c0-0.1,0-0.2,0-0.3
			L326.1,425.3L326.1,425.3z"/>
		<path class="st0" d="M329.1,422c0,0.3-0.2,0.5-0.5,0.5s-0.5-0.2-0.5-0.5s0.2-0.5,0.5-0.5S329.1,421.7,329.1,422z M328.2,427.6
			v-4.4h0.8v4.4H328.2z"/>
		<path class="st0" d="M330.3,424.4c0-0.5,0-0.8,0-1.2h0.7v0.7l0,0c0.2-0.4,0.7-0.8,1.4-0.8c0.6,0,1.5,0.4,1.5,1.9v2.6h-0.8v-2.5
			c0-0.7-0.3-1.3-1-1.3c-0.5,0-0.9,0.4-1.1,0.8c0,0.1-0.1,0.2-0.1,0.4v2.6h-0.8v-3.2H330.3z"/>
		<path class="st0" d="M337.1,424.8v0.6h-2.2v-0.6H337.1z"/>
		<path class="st0" d="M338.1,421.5h0.8v5.4h2.6v0.7h-3.4V421.5L338.1,421.5z"/>
		<path class="st0" d="M342.6,425.5c0,1.1,0.7,1.5,1.5,1.5c0.6,0,0.9-0.1,1.2-0.2l0.1,0.6c-0.3,0.1-0.8,0.3-1.4,0.3
			c-1.3,0-2.1-0.9-2.1-2.2s0.8-2.3,2-2.3c1.4,0,1.8,1.2,1.8,2c0,0.2,0,0.3,0,0.4L342.6,425.5L342.6,425.5z M344.9,425
			c0-0.5-0.2-1.3-1.1-1.3c-0.8,0-1.1,0.7-1.2,1.3H344.9z"/>
		<path class="st0" d="M346.7,421.2h0.8v6.4h-0.8V421.2z"/>
		<path class="st0" d="M349.7,422c0,0.3-0.2,0.5-0.5,0.5s-0.5-0.2-0.5-0.5s0.2-0.5,0.5-0.5S349.7,421.7,349.7,422z M348.8,427.6
			v-4.4h0.8v4.4H348.8z"/>
		<path class="st0" d="M351.3,425.5c0,1.1,0.7,1.5,1.5,1.5c0.6,0,0.9-0.1,1.2-0.2l0.1,0.6c-0.3,0.1-0.8,0.3-1.4,0.3
			c-1.3,0-2.1-0.9-2.1-2.2s0.8-2.3,2-2.3c1.4,0,1.8,1.2,1.8,2c0,0.2,0,0.3,0,0.4L351.3,425.5L351.3,425.5z M353.7,425
			c0-0.5-0.2-1.3-1.1-1.3c-0.8,0-1.1,0.7-1.2,1.3H353.7z M352.3,421.3l0.8,1.3h-0.6l-1.1-1.3H352.3z"/>
		<path class="st0" d="M355.7,423.2l0.9,2.4c0.1,0.4,0.3,0.8,0.4,1.1l0,0c0.1-0.4,0.2-0.7,0.4-1.1l0.8-2.4h0.8l-1.7,4.4h-0.8
			l-1.7-4.4H355.7z"/>
		<path class="st0" d="M359.7,424.6c0-0.5,0-1,0-1.4h0.7v0.9l0,0c0.2-0.6,0.7-1,1.2-1c0.1,0,0.2,0,0.2,0v0.7c-0.1,0-0.2,0-0.3,0
			c-0.6,0-1,0.4-1.1,1c0,0.1,0,0.2,0,0.4v2.3h-0.8L359.7,424.6L359.7,424.6z"/>
		<path class="st0" d="M363,425.5c0,1.1,0.7,1.5,1.5,1.5c0.6,0,0.9-0.1,1.2-0.2l0.1,0.6c-0.3,0.1-0.8,0.3-1.4,0.3
			c-1.3,0-2.1-0.9-2.1-2.2s0.8-2.3,2-2.3c1.4,0,1.8,1.2,1.8,2c0,0.2,0,0.3,0,0.4L363,425.5L363,425.5z M365.3,425
			c0-0.5-0.2-1.3-1.1-1.3c-0.8,0-1.1,0.7-1.2,1.3H365.3z"/>
	</g>
</g>
<g>
	<path d="M310.3,470.9h-85.2c-1.4,0-2.5-1.1-2.5-2.5v-11.3c0-1.4,1.1-2.5,2.5-2.5h85.2c1.4,0,2.5,1.1,2.5,2.5v11.3
		C312.8,469.7,311.7,470.9,310.3,470.9z"/>
	<g>
		<path class="st0" d="M237.6,459.3h3.3v0.7h-2.5v2h2.3v0.6h-2.3v2.7h-0.8V459.3z"/>
		<path class="st0" d="M245.6,463.1c0,1.6-1.1,2.3-2.2,2.3c-1.2,0-2.1-0.9-2.1-2.2c0-1.5,1-2.3,2.2-2.3S245.6,461.8,245.6,463.1z
			 M242.1,463.2c0,1,0.5,1.7,1.3,1.7s1.3-0.7,1.3-1.7c0-0.7-0.4-1.7-1.3-1.7S242.1,462.4,242.1,463.2z"/>
		<path class="st0" d="M246.8,461l1,2.6c0.1,0.3,0.2,0.6,0.3,0.9l0,0c0.1-0.3,0.2-0.6,0.3-0.9l0.9-2.6h0.8l-1.2,3.1
			c-0.6,1.5-1,2.3-1.5,2.7c-0.4,0.3-0.8,0.5-1,0.5l-0.2-0.7c0.2-0.1,0.5-0.2,0.7-0.4c0.2-0.2,0.5-0.5,0.7-0.9c0-0.1,0.1-0.1,0.1-0.2
			s0-0.1-0.1-0.2l-1.6-4L246.8,461L246.8,461z"/>
		<path class="st0" d="M251.1,463.3c0,1.1,0.7,1.5,1.5,1.5c0.6,0,0.9-0.1,1.2-0.2l0.1,0.6c-0.3,0.1-0.8,0.3-1.4,0.3
			c-1.3,0-2.1-0.9-2.1-2.2s0.8-2.3,2-2.3c1.4,0,1.8,1.2,1.8,2c0,0.2,0,0.3,0,0.4L251.1,463.3L251.1,463.3z M253.4,462.8
			c0-0.5-0.2-1.3-1.1-1.3c-0.8,0-1.1,0.7-1.2,1.3H253.4z"/>
		<path class="st0" d="M255.2,462.4c0-0.5,0-1,0-1.4h0.7v0.9l0,0c0.2-0.6,0.7-1,1.2-1c0.1,0,0.2,0,0.2,0v0.7c-0.1,0-0.2,0-0.3,0
			c-0.6,0-1,0.4-1.1,1c0,0.1,0,0.2,0,0.4v2.3h-0.8L255.2,462.4L255.2,462.4z"/>
		<path class="st0" d="M260,459.4c0.5-0.1,1-0.1,1.7-0.1c1.1,0,1.9,0.3,2.5,0.8c0.5,0.5,0.9,1.2,0.9,2.2s-0.3,1.8-0.9,2.4
			s-1.5,0.9-2.7,0.9c-0.6,0-1,0-1.4-0.1L260,459.4L260,459.4z M260.8,464.7c0.2,0,0.5,0,0.8,0c1.7,0,2.6-0.9,2.6-2.6
			c0-1.4-0.8-2.3-2.5-2.3c-0.4,0-0.7,0-0.9,0.1V464.7L260.8,464.7z"/>
		<path class="st0" d="M266.5,463.3c0,1.1,0.7,1.5,1.5,1.5c0.6,0,0.9-0.1,1.2-0.2l0.1,0.6c-0.3,0.1-0.8,0.3-1.4,0.3
			c-1.3,0-2.1-0.9-2.1-2.2s0.8-2.3,2-2.3c1.4,0,1.8,1.2,1.8,2c0,0.2,0,0.3,0,0.4L266.5,463.3L266.5,463.3z M268.8,462.8
			c0-0.5-0.2-1.3-1.1-1.3c-0.8,0-1.1,0.7-1.2,1.3H268.8z"/>
		<path class="st0" d="M270.4,464.5c0.2,0.2,0.6,0.3,1,0.3c0.6,0,0.8-0.3,0.8-0.6c0-0.4-0.2-0.6-0.8-0.8c-0.8-0.3-1.1-0.7-1.1-1.2
			c0-0.7,0.6-1.3,1.5-1.3c0.4,0,0.8,0.1,1.1,0.3l-0.2,0.6c-0.2-0.1-0.5-0.3-0.9-0.3c-0.5,0-0.7,0.3-0.7,0.6c0,0.4,0.3,0.5,0.8,0.7
			c0.8,0.3,1.1,0.7,1.1,1.3c0,0.8-0.6,1.3-1.6,1.3c-0.5,0-0.9-0.1-1.2-0.3L270.4,464.5z"/>
		<path class="st0" d="M273,466.6c0.4,0,0.7-0.1,0.9-0.3c0.2-0.3,0.3-0.6,0.3-1.6V461h0.8v3.9c0,0.8-0.1,1.4-0.5,1.8
			s-0.9,0.5-1.3,0.5L273,466.6z M275.1,459.8c0,0.3-0.2,0.5-0.5,0.5s-0.5-0.2-0.5-0.5s0.2-0.5,0.5-0.5S275.1,459.5,275.1,459.8z"/>
		<path class="st0" d="M278.7,465.4l-0.1-0.5l0,0c-0.2,0.3-0.7,0.6-1.3,0.6c-0.9,0-1.3-0.6-1.3-1.2c0-1.1,0.9-1.6,2.6-1.6v-0.1
			c0-0.4-0.1-1-1-1c-0.4,0-0.8,0.1-1.1,0.3l-0.2-0.5c0.4-0.2,0.9-0.4,1.4-0.4c1.3,0,1.7,0.9,1.7,1.8v1.6c0,0.4,0,0.7,0.1,1
			L278.7,465.4L278.7,465.4z M278.6,463.1c-0.9,0-1.8,0.1-1.8,1c0,0.5,0.3,0.8,0.7,0.8c0.6,0,0.9-0.4,1.1-0.7c0-0.1,0-0.2,0-0.3
			L278.6,463.1L278.6,463.1z"/>
		<path class="st0" d="M280.6,462.4c0-0.5,0-1,0-1.4h0.7v0.9l0,0c0.2-0.6,0.7-1,1.2-1c0.1,0,0.2,0,0.2,0v0.7c-0.1,0-0.2,0-0.3,0
			c-0.6,0-1,0.4-1.1,1c0,0.1,0,0.2,0,0.4v2.3h-0.8L280.6,462.4L280.6,462.4z"/>
		<path class="st0" d="M287.2,459v5.3c0,0.4,0,0.8,0,1.1h-0.7v-0.8l0,0c-0.2,0.5-0.8,0.9-1.5,0.9c-1.1,0-1.9-0.9-1.9-2.2
			c0-1.4,0.9-2.3,2-2.3c0.7,0,1.1,0.3,1.3,0.7l0,0V459H287.2L287.2,459z M286.4,462.8c0-0.1,0-0.2,0-0.3c-0.1-0.5-0.5-0.9-1.1-0.9
			c-0.8,0-1.3,0.7-1.3,1.7c0,0.9,0.4,1.6,1.3,1.6c0.5,0,1-0.4,1.2-0.9c0-0.1,0-0.2,0-0.3v-0.9H286.4z"/>
		<path class="st0" d="M289.4,459.8c0,0.3-0.2,0.5-0.5,0.5s-0.5-0.2-0.5-0.5s0.2-0.5,0.5-0.5C289.2,459.3,289.4,459.5,289.4,459.8z
			 M288.5,465.4V461h0.8v4.4H288.5z"/>
		<path class="st0" d="M290.6,462.2c0-0.5,0-0.8,0-1.2h0.7v0.7l0,0c0.2-0.4,0.7-0.8,1.4-0.8c0.6,0,1.5,0.4,1.5,1.9v2.6h-0.8v-2.5
			c0-0.7-0.3-1.3-1-1.3c-0.5,0-0.9,0.4-1.1,0.8c0,0.1-0.1,0.2-0.1,0.4v2.6h-0.8v-3.2H290.6z"/>
		<path class="st0" d="M295.5,464.5c0.2,0.2,0.6,0.3,1,0.3c0.6,0,0.8-0.3,0.8-0.6c0-0.4-0.2-0.6-0.8-0.8c-0.8-0.3-1.1-0.7-1.1-1.2
			c0-0.7,0.6-1.3,1.5-1.3c0.4,0,0.8,0.1,1.1,0.3l-0.2,0.6c-0.2-0.1-0.5-0.3-0.9-0.3c-0.5,0-0.7,0.3-0.7,0.6c0,0.4,0.3,0.5,0.8,0.7
			c0.8,0.3,1.1,0.7,1.1,1.3c0,0.8-0.6,1.3-1.6,1.3c-0.5,0-0.9-0.1-1.2-0.3L295.5,464.5z"/>
	</g>
</g>
<g>
	<path d="M610.6,537.6h-38.2c-1.4,0-2.5-1.1-2.5-2.5v-11.3c0-1.4,1.1-2.5,2.5-2.5h38.2c1.4,0,2.5,1.1,2.5,2.5v11.3
		C613.1,536.5,611.9,537.6,610.6,537.6z"/>
	<g>
		<path class="st0" d="M585.3,532.9c-0.3,0.1-0.9,0.3-1.6,0.3c-1.7,0-3-1.1-3-3.1c0-1.9,1.3-3.2,3.2-3.2c0.8,0,1.2,0.2,1.4,0.3
			l-0.2,0.6c-0.3-0.1-0.7-0.3-1.2-0.3c-1.4,0-2.4,0.9-2.4,2.5c0,1.5,0.9,2.4,2.3,2.4c0.5,0,1-0.1,1.3-0.3L585.3,532.9z"/>
		<path class="st0" d="M591.2,530c0,2.1-1.3,3.2-2.8,3.2c-1.6,0-2.7-1.2-2.7-3.1c0-1.9,1.2-3.2,2.8-3.2
			C590.2,526.9,591.2,528.2,591.2,530z M586.5,530.1c0,1.3,0.7,2.5,1.9,2.5s1.9-1.1,1.9-2.5c0-1.2-0.6-2.5-1.9-2.5
			C587.2,527.6,586.5,528.8,586.5,530.1z"/>
		<path class="st0" d="M597.4,530c0,2.1-1.3,3.2-2.8,3.2c-1.6,0-2.7-1.2-2.7-3.1c0-1.9,1.2-3.2,2.8-3.2
			C596.4,526.9,597.4,528.2,597.4,530z M592.7,530.1c0,1.3,0.7,2.5,1.9,2.5s1.9-1.1,1.9-2.5c0-1.2-0.6-2.5-1.9-2.5
			C593.4,527.6,592.7,528.8,592.7,530.1z"/>
		<path class="st0" d="M598.5,527.1c0.4-0.1,0.9-0.1,1.5-0.1c0.8,0,1.3,0.2,1.7,0.5c0.3,0.3,0.5,0.7,0.5,1.3c0,0.5-0.2,1-0.5,1.3
			c-0.4,0.4-1.1,0.7-1.9,0.7c-0.2,0-0.5,0-0.6-0.1v2.4h-0.8L598.5,527.1L598.5,527.1z M599.2,530c0.2,0,0.4,0.1,0.6,0.1
			c0.9,0,1.5-0.5,1.5-1.3s-0.6-1.2-1.4-1.2c-0.3,0-0.6,0-0.7,0.1L599.2,530L599.2,530z"/>
	</g>
</g>
<g>
	<path d="M414,328.7h-49.8c-1.4,0-2.5-1.1-2.5-2.5v-4.8c0-1.4,1.1-2.5,2.5-2.5H414c1.4,0,2.5,1.1,2.5,2.5v4.8
		C416.5,327.6,415.4,328.7,414,328.7z"/>
	<g>
		<path class="st0" d="M371.4,325.2l-1.2-3.7h0.5l0.6,1.8c0.2,0.5,0.3,0.9,0.4,1.4l0,0c0.1-0.4,0.3-0.9,0.4-1.4l0.6-1.8h0.5
			l-1.3,3.7H371.4L371.4,325.2z"/>
		<path class="st0" d="M373.7,324c0,0.6,0.4,0.9,0.9,0.9c0.3,0,0.5-0.1,0.7-0.1l0.1,0.3c-0.2,0.1-0.5,0.2-0.9,0.2
			c-0.8,0-1.3-0.5-1.3-1.3s0.5-1.4,1.2-1.4c0.9,0,1.1,0.8,1.1,1.2c0,0.1,0,0.2,0,0.2L373.7,324L373.7,324z M375.1,323.6
			c0-0.3-0.1-0.8-0.7-0.8c-0.5,0-0.7,0.4-0.7,0.8H375.1z"/>
		<path class="st0" d="M376.1,324.7c0.1,0.1,0.4,0.2,0.6,0.2c0.3,0,0.5-0.2,0.5-0.4c0-0.2-0.1-0.4-0.5-0.5c-0.5-0.2-0.7-0.4-0.7-0.7
			c0-0.4,0.3-0.8,0.9-0.8c0.3,0,0.5,0.1,0.6,0.2l-0.1,0.3c-0.1-0.1-0.3-0.2-0.5-0.2c-0.3,0-0.4,0.2-0.4,0.4c0,0.2,0.2,0.3,0.5,0.4
			c0.5,0.2,0.7,0.4,0.7,0.8c0,0.5-0.4,0.8-1,0.8c-0.3,0-0.6-0.1-0.7-0.2L376.1,324.7z"/>
		<path class="st0" d="M378.9,321.8v0.8h0.7v0.4h-0.7v1.4c0,0.3,0.1,0.5,0.4,0.5c0.1,0,0.2,0,0.3,0v0.4c-0.1,0-0.2,0.1-0.4,0.1
			c-0.2,0-0.4-0.1-0.5-0.2s-0.2-0.4-0.2-0.7v-1.4H378v-0.4h0.4v-0.6L378.9,321.8z"/>
		<path class="st0" d="M380.6,321.8c0,0.2-0.1,0.3-0.3,0.3c-0.2,0-0.3-0.1-0.3-0.3c0-0.2,0.1-0.3,0.3-0.3S380.6,321.7,380.6,321.8z
			 M380.1,325.2v-2.6h0.5v2.6H380.1z"/>
		<path class="st0" d="M382.8,325.2v-0.3l0,0c-0.1,0.2-0.4,0.4-0.8,0.4c-0.5,0-0.8-0.4-0.8-0.8c0-0.6,0.6-1,1.6-1v-0.1
			c0-0.2-0.1-0.6-0.6-0.6c-0.2,0-0.5,0.1-0.7,0.2l-0.1-0.3c0.2-0.1,0.5-0.2,0.9-0.2c0.8,0,1,0.5,1,1.1v1c0,0.2,0,0.5,0,0.6
			L382.8,325.2L382.8,325.2z M382.7,323.9c-0.5,0-1.1,0.1-1.1,0.6c0,0.3,0.2,0.5,0.4,0.5c0.3,0,0.6-0.2,0.6-0.4c0,0,0-0.1,0-0.2
			L382.7,323.9L382.7,323.9z"/>
		<path class="st0" d="M384.5,321.8c0,0.2-0.1,0.3-0.3,0.3c-0.2,0-0.3-0.1-0.3-0.3c0-0.2,0.1-0.3,0.3-0.3S384.5,321.7,384.5,321.8z
			 M384,325.2v-2.6h0.5v2.6H384z"/>
		<path class="st0" d="M385.2,323.4c0-0.3,0-0.6,0-0.8h0.4v0.5l0,0c0.1-0.4,0.4-0.6,0.7-0.6c0.1,0,0.1,0,0.1,0v0.5c0,0-0.1,0-0.2,0
			c-0.3,0-0.6,0.3-0.6,0.6c0,0.1,0,0.1,0,0.2v1.4h-0.5L385.2,323.4L385.2,323.4z"/>
		<path class="st0" d="M387.2,324c0,0.6,0.4,0.9,0.9,0.9c0.3,0,0.5-0.1,0.7-0.1l0.1,0.3c-0.2,0.1-0.5,0.2-0.9,0.2
			c-0.8,0-1.3-0.5-1.3-1.3s0.5-1.4,1.2-1.4c0.9,0,1.1,0.8,1.1,1.2c0,0.1,0,0.2,0,0.2L387.2,324L387.2,324z M388.6,323.6
			c0-0.3-0.1-0.8-0.7-0.8c-0.5,0-0.7,0.4-0.7,0.8H388.6z"/>
		<path class="st0" d="M390.8,321.5h2v0.4h-1.5v1.2h1.4v0.4h-1.4v1.7h-0.5V321.5z"/>
		<path class="st0" d="M393.5,324c0,0.6,0.4,0.9,0.9,0.9c0.3,0,0.5-0.1,0.7-0.1l0.1,0.3c-0.2,0.1-0.5,0.2-0.9,0.2
			c-0.8,0-1.3-0.5-1.3-1.3s0.5-1.4,1.2-1.4c0.9,0,1.1,0.8,1.1,1.2c0,0.1,0,0.2,0,0.2L393.5,324L393.5,324z M394.9,323.6
			c0-0.3-0.1-0.8-0.7-0.8c-0.5,0-0.7,0.4-0.7,0.8H394.9z"/>
		<path class="st0" d="M396,323.3c0-0.3,0-0.5,0-0.7h0.4v0.4l0,0c0.1-0.2,0.4-0.5,0.8-0.5s0.6,0.2,0.7,0.5l0,0
			c0.1-0.1,0.2-0.3,0.3-0.3c0.2-0.1,0.3-0.2,0.6-0.2c0.3,0,0.9,0.2,0.9,1.1v1.5h-0.5v-1.5c0-0.5-0.2-0.8-0.6-0.8
			c-0.3,0-0.5,0.2-0.6,0.4c0,0.1,0,0.2,0,0.2v1.6h-0.5v-1.6c0-0.4-0.2-0.7-0.5-0.7s-0.5,0.2-0.6,0.5c0,0.1,0,0.2,0,0.2v1.6H396
			V323.3L396,323.3z"/>
		<path class="st0" d="M400.5,323.3c0-0.3,0-0.5,0-0.7h0.4v0.4l0,0c0.1-0.2,0.4-0.5,0.8-0.5s0.6,0.2,0.7,0.5l0,0
			c0.1-0.1,0.2-0.3,0.3-0.3c0.2-0.1,0.3-0.2,0.6-0.2c0.3,0,0.9,0.2,0.9,1.1v1.5h-0.5v-1.5c0-0.5-0.2-0.8-0.6-0.8
			c-0.3,0-0.5,0.2-0.6,0.4c0,0.1,0,0.2,0,0.2v1.6H402v-1.6c0-0.4-0.2-0.7-0.5-0.7s-0.5,0.2-0.6,0.5c0,0.1,0,0.2,0,0.2v1.6h-0.5
			L400.5,323.3L400.5,323.3z"/>
		<path class="st0" d="M405.3,324c0,0.6,0.4,0.9,0.9,0.9c0.3,0,0.5-0.1,0.7-0.1l0.1,0.3c-0.2,0.1-0.5,0.2-0.9,0.2
			c-0.8,0-1.3-0.5-1.3-1.3s0.5-1.4,1.2-1.4c0.9,0,1.1,0.8,1.1,1.2c0,0.1,0,0.2,0,0.2L405.3,324L405.3,324z M406.7,323.6
			c0-0.3-0.1-0.8-0.7-0.8c-0.5,0-0.7,0.4-0.7,0.8H406.7z"/>
		<path class="st0" d="M407.7,324.7c0.1,0.1,0.4,0.2,0.6,0.2c0.3,0,0.5-0.2,0.5-0.4c0-0.2-0.1-0.4-0.5-0.5c-0.5-0.2-0.7-0.4-0.7-0.7
			c0-0.4,0.3-0.8,0.9-0.8c0.3,0,0.5,0.1,0.6,0.2L409,323c-0.1-0.1-0.3-0.2-0.5-0.2c-0.3,0-0.4,0.2-0.4,0.4c0,0.2,0.2,0.3,0.5,0.4
			c0.5,0.2,0.7,0.4,0.7,0.8c0,0.5-0.4,0.8-1,0.8c-0.3,0-0.6-0.1-0.7-0.2L407.7,324.7z"/>
	</g>
</g>
<g>
	<path d="M459.5,400.1h-49.8c-1.4,0-2.5-1.1-2.5-2.5v-4.8c0-1.4,1.1-2.5,2.5-2.5h49.8c1.4,0,2.5,1.1,2.5,2.5v4.8
		C462,398.9,460.9,400.1,459.5,400.1z"/>
	<g>
		<path class="st0" d="M416.2,396.5l-1.2-3.7h0.5l0.6,1.8c0.2,0.5,0.3,0.9,0.4,1.4l0,0c0.1-0.4,0.3-0.9,0.4-1.4l0.6-1.8h0.5
			l-1.3,3.7H416.2L416.2,396.5z"/>
		<path class="st0" d="M418.5,395.3c0,0.6,0.4,0.9,0.9,0.9c0.3,0,0.5-0.1,0.7-0.1l0.1,0.3c-0.2,0.1-0.5,0.2-0.9,0.2
			c-0.8,0-1.3-0.5-1.3-1.3s0.5-1.4,1.2-1.4c0.9,0,1.1,0.8,1.1,1.2c0,0.1,0,0.2,0,0.2L418.5,395.3L418.5,395.3z M419.9,394.9
			c0-0.3-0.1-0.8-0.7-0.8c-0.5,0-0.7,0.4-0.7,0.8H419.9z"/>
		<path class="st0" d="M420.9,396c0.1,0.1,0.4,0.2,0.6,0.2c0.3,0,0.5-0.2,0.5-0.4c0-0.2-0.1-0.4-0.5-0.5c-0.5-0.2-0.7-0.4-0.7-0.7
			c0-0.4,0.3-0.8,0.9-0.8c0.3,0,0.5,0.1,0.6,0.2l-0.1,0.3c-0.1-0.1-0.3-0.2-0.5-0.2c-0.3,0-0.4,0.2-0.4,0.4c0,0.2,0.2,0.3,0.5,0.4
			c0.5,0.2,0.7,0.4,0.7,0.8c0,0.5-0.4,0.8-1,0.8c-0.3,0-0.6-0.1-0.7-0.2L420.9,396z"/>
		<path class="st0" d="M423.6,393.1v0.8h0.7v0.4h-0.7v1.4c0,0.3,0.1,0.5,0.4,0.5c0.1,0,0.2,0,0.3,0v0.4c-0.1,0-0.2,0.1-0.4,0.1
			c-0.2,0-0.4-0.1-0.5-0.2s-0.2-0.4-0.2-0.7v-1.4h-0.4V394h0.4v-0.6L423.6,393.1z"/>
		<path class="st0" d="M425.4,393.2c0,0.2-0.1,0.3-0.3,0.3c-0.2,0-0.3-0.1-0.3-0.3c0-0.2,0.1-0.3,0.3-0.3
			C425.3,392.9,425.4,393,425.4,393.2z M424.9,396.5v-2.6h0.5v2.6H424.9z"/>
		<path class="st0" d="M427.6,396.5v-0.3l0,0c-0.1,0.2-0.4,0.4-0.8,0.4c-0.5,0-0.8-0.4-0.8-0.8c0-0.6,0.6-1,1.6-1v-0.1
			c0-0.2-0.1-0.6-0.6-0.6c-0.2,0-0.5,0.1-0.7,0.2l-0.1-0.3c0.2-0.1,0.5-0.2,0.9-0.2c0.8,0,1,0.5,1,1.1v1c0,0.2,0,0.5,0,0.6
			L427.6,396.5L427.6,396.5z M427.5,395.2c-0.5,0-1.1,0.1-1.1,0.6c0,0.3,0.2,0.5,0.4,0.5c0.3,0,0.6-0.2,0.6-0.4c0,0,0-0.1,0-0.2
			L427.5,395.2L427.5,395.2z"/>
		<path class="st0" d="M429.3,393.2c0,0.2-0.1,0.3-0.3,0.3c-0.2,0-0.3-0.1-0.3-0.3c0-0.2,0.1-0.3,0.3-0.3
			C429.2,392.9,429.3,393,429.3,393.2z M428.7,396.5v-2.6h0.5v2.6H428.7z"/>
		<path class="st0" d="M430,394.7c0-0.3,0-0.6,0-0.8h0.4v0.5l0,0c0.1-0.4,0.4-0.6,0.7-0.6c0.1,0,0.1,0,0.1,0v0.5c0,0-0.1,0-0.2,0
			c-0.3,0-0.6,0.3-0.6,0.6c0,0.1,0,0.1,0,0.2v1.4H430V394.7L430,394.7z"/>
		<path class="st0" d="M432,395.3c0,0.6,0.4,0.9,0.9,0.9c0.3,0,0.5-0.1,0.7-0.1l0.1,0.3c-0.2,0.1-0.5,0.2-0.9,0.2
			c-0.8,0-1.3-0.5-1.3-1.3s0.5-1.4,1.2-1.4c0.9,0,1.1,0.8,1.1,1.2c0,0.1,0,0.2,0,0.2L432,395.3L432,395.3z M433.4,394.9
			c0-0.3-0.1-0.8-0.7-0.8c-0.5,0-0.7,0.4-0.7,0.8H433.4z"/>
		<path class="st0" d="M436.1,392.9v1.5h1.8v-1.5h0.5v3.7h-0.5v-1.7h-1.8v1.7h-0.5v-3.7H436.1z"/>
		<path class="st0" d="M441.5,395.2c0,1-0.7,1.4-1.3,1.4c-0.7,0-1.3-0.5-1.3-1.3c0-0.9,0.6-1.4,1.3-1.4
			C441,393.8,441.5,394.4,441.5,395.2z M439.4,395.2c0,0.6,0.3,1,0.8,1s0.8-0.4,0.8-1c0-0.4-0.2-1-0.8-1S439.4,394.7,439.4,395.2z"
			/>
		<path class="st0" d="M442.1,394.6c0-0.3,0-0.5,0-0.7h0.4v0.4l0,0c0.1-0.2,0.4-0.5,0.8-0.5s0.6,0.2,0.7,0.5l0,0
			c0.1-0.1,0.2-0.3,0.3-0.3c0.2-0.1,0.3-0.2,0.6-0.2c0.3,0,0.9,0.2,0.9,1.1v1.5h-0.5V395c0-0.5-0.2-0.8-0.6-0.8
			c-0.3,0-0.5,0.2-0.6,0.4c0,0.1,0,0.2,0,0.2v1.6h-0.5v-1.6c0-0.4-0.2-0.7-0.5-0.7s-0.5,0.2-0.6,0.5c0,0.1,0,0.2,0,0.2v1.6H442
			L442.1,394.6L442.1,394.6z"/>
		<path class="st0" d="M446.6,394.6c0-0.3,0-0.5,0-0.7h0.4v0.4l0,0c0.1-0.2,0.4-0.5,0.8-0.5s0.6,0.2,0.7,0.5l0,0
			c0.1-0.1,0.2-0.3,0.3-0.3c0.2-0.1,0.3-0.2,0.6-0.2c0.3,0,0.9,0.2,0.9,1.1v1.5h-0.5V395c0-0.5-0.2-0.8-0.6-0.8
			c-0.3,0-0.5,0.2-0.6,0.4c0,0.1,0,0.2,0,0.2v1.6h-0.5v-1.6c0-0.4-0.2-0.7-0.5-0.7s-0.5,0.2-0.6,0.5c0,0.1,0,0.2,0,0.2v1.6h-0.5
			L446.6,394.6L446.6,394.6z"/>
		<path class="st0" d="M451.4,395.3c0,0.6,0.4,0.9,0.9,0.9c0.3,0,0.5-0.1,0.7-0.1l0.1,0.3c-0.2,0.1-0.5,0.2-0.9,0.2
			c-0.8,0-1.3-0.5-1.3-1.3s0.5-1.4,1.2-1.4c0.9,0,1.1,0.8,1.1,1.2c0,0.1,0,0.2,0,0.2L451.4,395.3L451.4,395.3z M452.8,394.9
			c0-0.3-0.1-0.8-0.7-0.8c-0.5,0-0.7,0.4-0.7,0.8H452.8z"/>
		<path class="st0" d="M453.8,396c0.1,0.1,0.4,0.2,0.6,0.2c0.3,0,0.5-0.2,0.5-0.4c0-0.2-0.1-0.4-0.5-0.5c-0.5-0.2-0.7-0.4-0.7-0.7
			c0-0.4,0.3-0.8,0.9-0.8c0.3,0,0.5,0.1,0.6,0.2l-0.1,0.3c-0.1-0.1-0.3-0.2-0.5-0.2c-0.3,0-0.4,0.2-0.4,0.4c0,0.2,0.2,0.3,0.5,0.4
			c0.5,0.2,0.7,0.4,0.7,0.8c0,0.5-0.4,0.8-1,0.8c-0.3,0-0.6-0.1-0.7-0.2L453.8,396z"/>
	</g>
</g>
<g>
	<title>Fichier 1</title>
	<g id="Calque_2_1_">
		<g id="ajout-_label_1_">
			<path class="st1" d="M431.1,641.7h37.4c1.2,0,2.1,1,2.1,2.1v10.8c0,1.2-1,2.1-2.1,2.1h-37.4c-1.2,0-2.1-1-2.1-2.1v-10.8
				C429,642.7,429.9,641.7,431.1,641.7z"/>
			<path class="st2" d="M436,651.1l-0.7,2.1h-0.9l2.3-6.7h1l2.3,6.7h-0.9l-0.7-2.1H436z M438.3,650.4l-0.7-1.9
				c-0.2-0.4-0.3-0.8-0.4-1.2l0,0c-0.1,0.4-0.2,0.8-0.3,1.2l-0.7,2L438.3,650.4L438.3,650.4z"/>
			<path class="st2" d="M446.1,652.9c-0.7,0.2-1.4,0.4-2.1,0.4c-0.9,0.1-1.8-0.3-2.5-0.9c-0.6-0.7-1-1.6-0.9-2.5
				c-0.1-1.9,1.4-3.4,3.3-3.5c0.1,0,0.2,0,0.4,0c0.6,0,1.1,0.1,1.7,0.3l-0.2,0.7c-0.5-0.2-1-0.3-1.5-0.3c-1.4-0.1-2.6,0.9-2.7,2.3
				c0,0.1,0,0.3,0,0.4c-0.1,1.4,0.8,2.6,2.2,2.7c0.1,0,0.3,0,0.4,0c0.4,0,0.8,0,1.2-0.2v-2H444v-0.7h2.2v3.3H446.1z"/>
			<path class="st2" d="M453.1,649.8c0,2.3-1.4,3.5-3.1,3.5s-3-1.4-3-3.4s1.3-3.5,3.1-3.5S453.1,647.8,453.1,649.8z M447.9,649.9
				c0,1.4,0.8,2.7,2.2,2.7c1.4,0,2.2-1.3,2.2-2.8c0-1.3-0.7-2.7-2.1-2.7C448.6,647.1,447.9,648.4,447.9,649.9z"/>
			<path class="st2" d="M454.3,646.6c0.6-0.1,1.1-0.1,1.7-0.1c0.7-0.1,1.4,0.1,2,0.6c0.4,0.3,0.5,0.8,0.5,1.3c0,0.8-0.5,1.5-1.3,1.7
				l0,0c0.6,0.2,0.9,0.8,1,1.4c0.1,0.6,0.3,1.3,0.5,1.8h-0.9c-0.2-0.5-0.4-1.1-0.5-1.6c-0.2-0.9-0.6-1.3-1.4-1.3h-0.8v2.9h-0.9
				L454.3,646.6L454.3,646.6z M455.1,649.7h0.9c0.9,0,1.5-0.5,1.5-1.3s-0.6-1.3-1.6-1.3c-0.3,0-0.6,0-0.9,0.1L455.1,649.7z"/>
			<path class="st2" d="M460.8,651.1l-0.7,2.1h-0.9l2.3-6.7h1l2.3,6.7h-0.9l-0.7-2.1H460.8z M463,650.4l-0.7-1.9
				c-0.2-0.4-0.3-0.8-0.4-1.2l0,0c-0.1,0.4-0.2,0.8-0.3,1.2l-0.7,2L463,650.4L463,650.4z"/>
		</g>
	</g>
</g>
</svg>
