<?xml version="1.0" encoding="utf-8"?>
<!-- Generator: Adobe Illustrator 20.1.0, SVG Export Plug-In . SVG Version: 6.00 Build 0)  -->
<svg version="1.1" id="Layer_1" xmlns="http://www.w3.org/2000/svg" xmlns:xlink="http://www.w3.org/1999/xlink" x="0px" y="0px"
	 viewBox="0 0 880.5 858" style="enable-background:new 0 0 880.5 858;" xml:space="preserve">
<style type="text/css">
	.st0{fill:#FFFFFF;stroke:#383938;stroke-width:0.5;stroke-miterlimit:10;}
	.st1{fill:#ECF0F2;stroke:#383938;stroke-width:0.5;stroke-miterlimit:10;}
	.st2{fill:#ED855A;stroke:#383938;stroke-width:0.5;stroke-miterlimit:10;}
	.st3{fill:#BFD9E0;stroke:#383938;stroke-width:0.5;stroke-miterlimit:10;}
	.st4{fill:#A3CCCB;stroke:#383938;stroke-width:0.5;stroke-miterlimit:10;}
	.st5{fill:#62A2A1;stroke:#383938;stroke-width:0.5;stroke-miterlimit:10;}
	.st6{fill:none;stroke:#383938;stroke-width:0.5;stroke-miterlimit:10;}
</style>
<g id="locaux">
	<path class="st0" d="M602.8,672.4C581,686,472.5,753.8,467.1,757.2c-32,19.6-94.7,16.6-122.8-28.4c-1.4-2.3-37.8-60.5-37.8-60.5
		l21.2-13.2l-66.9-107l-21.3,13.3l-19.1-30.6l-73.9-118.3l-11.3-18l14.3-8.9l-18.7-29.9l-12.3,7.7l-52.6-84.2l20.9-13.1l4.6,7.4
		l197-123.1l5-21.3l8.2,13.1l106.9-66.8l151,241.7l46.2-28.9L738.6,501l15.7-9.8l47.8,76.5l-48.3,30.2l-9-14.4l-59,36.8l9.2,14.7
		L612,687L602.8,672.4z"/>
	
		<rect x="605.6" y="664.8" transform="matrix(0.848 -0.5299 0.5299 0.848 -262.7685 429.96)" class="st1" width="25.5" height="16.7"/>
	<path class="st0" d="M664.1,654.4l14.8,23.7c0,0,27.4,42.3-16.7,72.7l-15.4,9.6l-30.1-24l26.1-16.7c0,0,13.9-8.9,5.6-22.5
		l-14.8-23.7L664.1,654.4z"/>
	
		<rect x="578.8" y="375" transform="matrix(0.848 -0.5299 0.5299 0.848 -113.0539 367.6157)" class="st1" width="11.3" height="11.9"/>
	<path class="st1" d="M603.1,672.8l-48.3-77.3l-99.4,62.1l2.8,4.5l-9.3,5.8l-25.3-5.8l-3.9-6.2l-8.3-1.9l-2.3,9.9l-13.8-3.2
		l-10.3,6.4L360,626.8l-36,22.5l3.6,5.8l-21.2,13.2c0,0,37.8,60.5,38,60.9c22.8,36.5,78.7,55.9,122.8,28.4L603.1,672.8z"/>
	<polygon class="st1" points="261.1,548.6 266.2,545.3 261.7,538.1 250.4,545.2 245.7,537.8 230.6,547.2 239.8,561.8 	"/>
	
		<rect x="247.5" y="535.3" transform="matrix(0.848 -0.5299 0.5299 0.848 -247.8617 214.9557)" class="st1" width="6.7" height="8.6"/>
	
		<rect x="243.3" y="522.7" transform="matrix(0.848 -0.5299 0.5299 0.848 -242.7026 211.6855)" class="st1" width="9" height="12.6"/>
	<polygon class="st1" points="248.3,521.3 245.4,516.8 221.1,532 230.6,547.2 247.3,536.8 240.6,526.1 	"/>
	
		<rect x="213.9" y="506.7" transform="matrix(0.848 -0.5299 0.5299 0.848 -238.899 199.394)" class="st2" width="28.7" height="19.2"/>
	
		<rect x="199.8" y="476.6" transform="matrix(0.848 -0.5299 0.5299 0.848 -229.0632 188.4686)" class="st1" width="28.7" height="34.2"/>
	
		<rect x="184.7" y="458.2" transform="matrix(0.848 -0.5299 0.5299 0.848 -218.5817 176.8268)" class="st1" width="28.7" height="22.7"/>
	
		<rect x="175.2" y="447.8" transform="matrix(0.848 -0.5299 0.5299 0.848 -211.9972 169.4724)" class="st1" width="28.7" height="13.2"/>
	
		<rect x="167.8" y="435.4" transform="matrix(0.848 -0.5299 0.5299 0.848 -206.8943 163.8049)" class="st1" width="28.7" height="14.5"/>
	<polygon class="st1" points="190.5,428.9 184.4,419.1 176.8,423.9 170.1,413.2 153.4,423.6 166.2,444.1 	"/>
	<rect x="138" y="386" transform="matrix(0.848 -0.5299 0.5299 0.848 -186.3255 140.3124)" class="st1" width="27" height="18.1"/>
	
		<rect x="294.3" y="502.7" transform="matrix(0.848 -0.5299 0.5299 0.848 -225.3311 238.0319)" class="st1" width="16.2" height="18.4"/>
	
		<rect x="253.7" y="490" transform="matrix(0.848 -0.5299 0.5299 0.848 -223.942 223.4445)" class="st1" width="47.8" height="24.3"/>
	
		<rect x="241.1" y="470.5" transform="matrix(0.848 -0.5299 0.5299 0.848 -215.1803 213.7145)" class="st1" width="47.8" height="23.2"/>
	<polygon class="st1" points="238.7,484.9 217.4,450.8 225.9,445.5 221.8,439 253.9,419 279.2,459.5 	"/>
	
		<rect x="214.6" y="441.1" transform="matrix(0.848 -0.5299 0.5299 0.848 -202.4063 183.9584)" class="st3" width="10" height="7.7"/>
	<rect x="211" y="436.2" transform="matrix(0.848 -0.5299 0.5299 0.848 -199.5989 181.6648)" class="st3" width="12" height="5.3"/>
	
		<rect x="215.6" y="410.3" transform="matrix(0.848 -0.5299 0.5299 0.848 -187.1503 187.5688)" class="st1" width="35.8" height="19.7"/>
	<polygon class="st1" points="243.5,402.3 229.1,379.3 207.7,392.6 217.5,408.3 219.9,406.8 224.5,414.1 	"/>
	<polygon class="st1" points="200,419.2 190.2,403.5 207.7,392.6 217.5,408.3 212.4,411.5 208.4,405 203.8,407.8 207.9,414.3 	"/>
	
		<rect x="205.5" y="405.8" transform="matrix(0.848 -0.5299 0.5299 0.848 -185.4337 172.548)" class="st1" width="5.3" height="7.7"/>
	<polygon class="st3" points="210.5,439.8 207.3,434.7 209,433.7 207.7,431.5 216.2,426.2 220.7,433.4 	"/>
	
		<rect x="205.4" y="423.5" transform="matrix(0.848 -0.5299 0.5299 0.848 -193.9941 176.264)" class="st1" width="10" height="5.8"/>
	<polygon class="st1" points="729.3,486 697.7,505.8 735.7,566.8 644.9,623.5 664.1,654.4 695.1,635.1 686.1,620.8 745.1,583.9
		754.1,598.3 802.4,568.1 754.3,491.2 738.6,501 	"/>
	<polygon class="st1" points="663.4,380.5 652.5,387.3 633.7,357.2 618,367 611.7,356.9 592.1,369.2 559.6,317.3 605.9,288.5 	"/>
	
		<rect x="600.7" y="377.3" transform="matrix(0.848 -0.5299 0.5299 0.848 -112.6652 378.6497)" class="st1" width="6.5" height="16.9"/>
	
		<rect x="183" y="378.7" transform="matrix(0.848 -0.5299 0.5299 0.848 -175.6135 163.596)" class="st1" width="28.8" height="18.7"/>
	<polygon class="st2" points="229.1,379.3 328,317.4 318.1,301.6 309.6,306.9 297.5,287.5 291.3,291.4 303.4,310.8 204.7,372.4
		214.6,388.3 	"/>
	<polygon class="st4" points="161.7,386 184.5,371.7 152.9,321.3 142.8,327.6 141.2,334.2 132.7,339.5 	"/>
	
		<rect x="111.6" y="338.7" transform="matrix(0.848 -0.5299 0.5299 0.848 -165.9957 118.6571)" class="st1" width="24.7" height="20.2"/>
	
		<rect x="111.6" y="338.7" transform="matrix(0.848 -0.5299 0.5299 0.848 -165.9782 118.668)" class="st1" width="24.7" height="20.2"/>
	
		<rect x="85.1" y="266.7" transform="matrix(0.848 -0.5299 0.5299 0.848 -147.5969 98.2245)" class="st1" width="24.7" height="79.6"/>
	
		<rect x="101.9" y="260.9" transform="matrix(0.848 -0.5299 0.5299 0.848 -133.1473 106.3018)" class="st4" width="33.8" height="48.9"/>
	
		<rect x="129.4" y="216.8" transform="matrix(0.848 -0.5299 0.5299 0.848 -104.5079 140.3802)" class="st5" width="126.2" height="71.2"/>
	
		<rect x="171.9" y="306.8" transform="matrix(0.848 -0.5299 0.5299 0.848 -150.4771 146.9034)" class="st1" width="18" height="58"/>
	
		<rect x="180.3" y="273.4" transform="matrix(0.848 -0.5299 0.5299 0.848 -124.6321 170.1713)" class="st2" width="108.2" height="58"/>
	<polygon class="st1" points="312.2,159.1 252.4,196.4 262,211.9 247.3,221 227.2,188.8 288.5,150.5 293.5,129.1 	"/>
	<path class="st0" d="M332.2,123.2l-15-24c0,0-26-43.2-72.6-16.8l-27.2,17l30.7,23.6l15.9-9.6c0,0,14.1-8.6,22.7,4.9l15,24
		L332.2,123.2z"/>
	
		<rect x="176.6" y="388.8" transform="matrix(0.848 -0.5299 0.5299 0.848 -181.7088 155.5026)" class="st1" width="7.3" height="11.7"/>
</g>
<g id="murs">
	<polyline class="st6" points="591.2,402.5 592.4,404.4 597.2,401.4 600.2,406.1 610.9,399.4 617.1,409.3 625.9,403.9 616.1,388.2
		605.6,394.7 596.7,380.4 602.2,376.9 595.9,366.8 576.5,378.9 587.1,395.9 	"/>
	<polyline class="st6" points="551.6,586.9 547,579.5 506.9,604.6 516.2,619.6 	"/>
	<polyline class="st6" points="300.4,524 273.6,540.7 272,538.3 	"/>
	<line class="st6" x1="167.7" y1="395.6" x2="178.3" y2="412.5"/>
	<polyline class="st6" points="455.4,657.6 446.1,642.6 427.1,654.4 	"/>
	<polyline class="st6" points="382,304.1 337.2,332.1 328,317.4 367.7,292.6 	"/>
	<line class="st6" x1="376.6" y1="307.5" x2="372" y2="300.1"/>
	<line class="st6" x1="366.5" y1="313.8" x2="361.9" y2="306.5"/>
	<polyline class="st6" points="135.3,322.3 136.8,315.9 130.9,306.5 117.4,315 129,333.7 131.3,332.3 132.2,328.1 130,324.6 	"/>
	<line class="st6" x1="132.2" y1="328.1" x2="136.7" y2="329.2"/>
	<line class="st6" x1="149.5" y1="323.4" x2="139.7" y2="307.7"/>
	<polyline class="st6" points="143.7,314.1 153,308.3 149.1,301.9 	"/>
	<line class="st6" x1="153" y1="308.3" x2="155.2" y2="311.6"/>
	<polyline class="st6" points="285.6,304.6 289,310.1 279.3,316.2 	"/>
	<line class="st6" x1="301.6" y1="142.2" x2="323" y2="176.3"/>
</g>
<line class="st6" x1="652.5" y1="387.3" x2="625.9" y2="403.9"/>
</svg>
