<?xml version="1.0" encoding="utf-8"?>
<!-- Generator: Adobe Illustrator 20.1.0, SVG Export Plug-In . SVG Version: 6.00 Build 0)  -->
<svg version="1.1" id="textes" xmlns="http://www.w3.org/2000/svg" xmlns:xlink="http://www.w3.org/1999/xlink" x="0px" y="0px"
	 viewBox="0 0 922.5 993" style="enable-background:new 0 0 922.5 993;" xml:space="preserve">
<style type="text/css">
	.st0{fill:#FFFFFF;}
</style>
<g>
	<path d="M393.2,211.5H287.7c-1.4,0-2.5-1.1-2.5-2.5v-11.3c0-1.4,1.1-2.5,2.5-2.5h105.5c1.4,0,2.5,1.1,2.5,2.5V209
		C395.7,210.4,394.6,211.5,393.2,211.5z"/>
	<g>
		<path class="st0" d="M293.9,205.8c-0.3,0.1-0.9,0.3-1.6,0.3c-1.7,0-3-1.1-3-3.1c0-1.9,1.3-3.2,3.2-3.2c0.8,0,1.2,0.2,1.4,0.3
			l-0.2,0.6c-0.3-0.1-0.7-0.3-1.2-0.3c-1.4,0-2.4,0.9-2.4,2.5c0,1.5,0.9,2.4,2.3,2.4c0.5,0,1-0.1,1.3-0.3L293.9,205.8z"/>
		<path class="st0" d="M298.7,203.8c0,1.6-1.1,2.3-2.2,2.3c-1.2,0-2.1-0.9-2.1-2.2c0-1.5,1-2.3,2.2-2.3
			C297.9,201.6,298.7,202.5,298.7,203.8z M295.3,203.9c0,1,0.5,1.7,1.3,1.7c0.8,0,1.3-0.7,1.3-1.7c0-0.7-0.4-1.7-1.3-1.7
			S295.3,203,295.3,203.9z"/>
		<path class="st0" d="M299.7,202.9c0-0.4,0-0.8,0-1.2h0.7l0,0.7h0c0.2-0.4,0.7-0.8,1.4-0.8c0.6,0,1.5,0.4,1.5,1.9v2.6h-0.8v-2.5
			c0-0.7-0.3-1.3-1-1.3c-0.5,0-0.9,0.4-1.1,0.8c0,0.1-0.1,0.2-0.1,0.4v2.6h-0.8V202.9z"/>
		<path class="st0" d="M308.5,199.6v5.3c0,0.4,0,0.8,0,1.1h-0.7l0-0.8h0c-0.2,0.5-0.8,0.9-1.5,0.9c-1.1,0-1.9-0.9-1.9-2.2
			c0-1.4,0.9-2.3,2-2.3c0.7,0,1.1,0.3,1.3,0.7h0v-2.6L308.5,199.6L308.5,199.6z M307.7,203.4c0-0.1,0-0.2,0-0.3
			c-0.1-0.5-0.5-0.9-1.1-0.9c-0.8,0-1.3,0.7-1.3,1.7c0,0.9,0.4,1.6,1.3,1.6c0.5,0,1-0.4,1.2-0.9c0-0.1,0-0.2,0-0.3L307.7,203.4
			L307.7,203.4z"/>
		<path class="st0" d="M310.7,200.5c0,0.3-0.2,0.5-0.5,0.5c-0.3,0-0.5-0.2-0.5-0.5c0-0.3,0.2-0.5,0.5-0.5
			C310.5,200,310.7,200.2,310.7,200.5z M309.8,206v-4.4h0.8v4.4H309.8z"/>
		<path class="st0" d="M312.8,200.4v1.2h1.1v0.6h-1.1v2.3c0,0.5,0.2,0.8,0.6,0.8c0.2,0,0.4,0,0.5-0.1l0,0.6
			c-0.2,0.1-0.4,0.1-0.7,0.1c-0.4,0-0.7-0.1-0.9-0.3c-0.2-0.2-0.3-0.6-0.3-1.1v-2.4h-0.7v-0.6h0.7v-1L312.8,200.4z"/>
		<path class="st0" d="M315.7,200.5c0,0.3-0.2,0.5-0.5,0.5c-0.3,0-0.5-0.2-0.5-0.5c0-0.3,0.2-0.5,0.5-0.5
			C315.6,200,315.7,200.2,315.7,200.5z M314.9,206v-4.4h0.8v4.4H314.9z"/>
		<path class="st0" d="M320.9,203.8c0,1.6-1.1,2.3-2.2,2.3c-1.2,0-2.1-0.9-2.1-2.2c0-1.5,1-2.3,2.2-2.3
			C320.1,201.6,320.9,202.5,320.9,203.8z M317.5,203.9c0,1,0.5,1.7,1.3,1.7c0.8,0,1.3-0.7,1.3-1.7c0-0.7-0.4-1.7-1.3-1.7
			S317.5,203,317.5,203.9z"/>
		<path class="st0" d="M321.9,202.9c0-0.4,0-0.8,0-1.2h0.7l0,0.7h0c0.2-0.4,0.7-0.8,1.4-0.8c0.6,0,1.5,0.4,1.5,1.9v2.6h-0.8v-2.5
			c0-0.7-0.3-1.3-1-1.3c-0.5,0-0.9,0.4-1.1,0.8c0,0.1-0.1,0.2-0.1,0.4v2.6h-0.8V202.9z"/>
		<path class="st0" d="M326.9,202.9c0-0.4,0-0.8,0-1.2h0.7l0,0.7h0c0.2-0.4,0.7-0.8,1.4-0.8c0.6,0,1.5,0.4,1.5,1.9v2.6h-0.8v-2.5
			c0-0.7-0.3-1.3-1-1.3c-0.5,0-0.9,0.4-1.1,0.8c0,0.1-0.1,0.2-0.1,0.4v2.6h-0.8V202.9z"/>
		<path class="st0" d="M332.3,204c0,1.1,0.7,1.5,1.5,1.5c0.6,0,0.9-0.1,1.2-0.2l0.1,0.6c-0.3,0.1-0.8,0.3-1.4,0.3
			c-1.3,0-2.1-0.9-2.1-2.2s0.8-2.3,2-2.3c1.4,0,1.8,1.2,1.8,2c0,0.2,0,0.3,0,0.4L332.3,204L332.3,204z M334.6,203.4
			c0-0.5-0.2-1.3-1.1-1.3c-0.8,0-1.1,0.7-1.2,1.3H334.6z"/>
		<path class="st0" d="M336.4,202.9c0-0.4,0-0.8,0-1.2h0.7l0,0.7h0c0.2-0.4,0.6-0.8,1.4-0.8c0.6,0,1,0.4,1.2,0.9h0
			c0.1-0.2,0.3-0.4,0.5-0.6c0.3-0.2,0.5-0.3,1-0.3c0.6,0,1.4,0.4,1.4,1.9v2.6h-0.8v-2.5c0-0.8-0.3-1.3-0.9-1.3
			c-0.5,0-0.8,0.3-0.9,0.7c0,0.1-0.1,0.3-0.1,0.4v2.7h-0.8v-2.6c0-0.7-0.3-1.2-0.9-1.2c-0.5,0-0.9,0.4-1,0.8c0,0.1-0.1,0.3-0.1,0.4
			v2.6h-0.8L336.4,202.9L336.4,202.9z"/>
		<path class="st0" d="M344.3,204c0,1.1,0.7,1.5,1.5,1.5c0.6,0,0.9-0.1,1.2-0.2l0.1,0.6c-0.3,0.1-0.8,0.3-1.4,0.3
			c-1.3,0-2.1-0.9-2.1-2.2s0.8-2.3,2-2.3c1.4,0,1.8,1.2,1.8,2c0,0.2,0,0.3,0,0.4L344.3,204L344.3,204z M346.6,203.4
			c0-0.5-0.2-1.3-1.1-1.3c-0.8,0-1.1,0.7-1.2,1.3H346.6z"/>
		<path class="st0" d="M348.4,202.9c0-0.4,0-0.8,0-1.2h0.7l0,0.7h0c0.2-0.4,0.7-0.8,1.4-0.8c0.6,0,1.5,0.4,1.5,1.9v2.6h-0.8v-2.5
			c0-0.7-0.3-1.3-1-1.3c-0.5,0-0.9,0.4-1.1,0.8c0,0.1-0.1,0.2-0.1,0.4v2.6h-0.8L348.4,202.9L348.4,202.9z"/>
		<path class="st0" d="M354.3,200.4v1.2h1.1v0.6h-1.1v2.3c0,0.5,0.2,0.8,0.6,0.8c0.2,0,0.4,0,0.5-0.1l0,0.6
			c-0.2,0.1-0.4,0.1-0.7,0.1c-0.4,0-0.7-0.1-0.9-0.3c-0.2-0.2-0.3-0.6-0.3-1.1v-2.4h-0.7v-0.6h0.7v-1L354.3,200.4z"/>
		<path class="st0" d="M358.2,203.1c0-0.6,0-1,0-1.4h0.7l0,0.7h0c0.3-0.5,0.8-0.8,1.5-0.8c1.1,0,1.8,0.9,1.8,2.2c0,1.6-1,2.3-2,2.3
			c-0.6,0-1.1-0.3-1.3-0.7h0v2.4h-0.8L358.2,203.1L358.2,203.1z M359,204.3c0,0.1,0,0.2,0,0.3c0.1,0.5,0.6,0.9,1.2,0.9
			c0.8,0,1.3-0.7,1.3-1.7c0-0.9-0.5-1.6-1.3-1.6c-0.5,0-1,0.4-1.2,1c0,0.1-0.1,0.2-0.1,0.3L359,204.3L359,204.3z"/>
		<path class="st0" d="M363.3,199.6h0.8v2.7h0c0.1-0.2,0.3-0.4,0.6-0.6c0.2-0.1,0.5-0.2,0.8-0.2c0.6,0,1.5,0.4,1.5,1.9v2.6h-0.8
			v-2.5c0-0.7-0.3-1.3-1-1.3c-0.5,0-0.9,0.4-1.1,0.8c0,0.1-0.1,0.2-0.1,0.4v2.6h-0.8L363.3,199.6L363.3,199.6z"/>
		<path class="st0" d="M368.5,201.7l1,2.6c0.1,0.3,0.2,0.6,0.3,0.9h0c0.1-0.3,0.2-0.6,0.3-0.9l0.9-2.6h0.8l-1.2,3.1
			c-0.6,1.5-1,2.3-1.5,2.7c-0.4,0.3-0.8,0.5-1,0.5l-0.2-0.7c0.2-0.1,0.5-0.2,0.7-0.4c0.2-0.2,0.5-0.5,0.7-0.9c0-0.1,0.1-0.1,0.1-0.2
			s0-0.1-0.1-0.2l-1.6-4L368.5,201.7L368.5,201.7z"/>
		<path class="st0" d="M372.3,205.2c0.2,0.2,0.6,0.3,1,0.3c0.6,0,0.8-0.3,0.8-0.6c0-0.4-0.2-0.6-0.8-0.8c-0.8-0.3-1.1-0.7-1.1-1.2
			c0-0.7,0.6-1.3,1.5-1.3c0.4,0,0.8,0.1,1.1,0.3l-0.2,0.6c-0.2-0.1-0.5-0.3-0.9-0.3c-0.5,0-0.7,0.3-0.7,0.6c0,0.4,0.3,0.5,0.8,0.7
			c0.8,0.3,1.1,0.7,1.1,1.3c0,0.8-0.6,1.3-1.6,1.3c-0.5,0-0.9-0.1-1.2-0.3L372.3,205.2z"/>
		<path class="st0" d="M376.8,200.5c0,0.3-0.2,0.5-0.5,0.5c-0.3,0-0.5-0.2-0.5-0.5c0-0.3,0.2-0.5,0.5-0.5
			C376.7,200,376.8,200.2,376.8,200.5z M376,206v-4.4h0.8v4.4H376z"/>
		<path class="st0" d="M381,205.4L381,205.4c-0.3,0.4-0.7,0.8-1.4,0.8c-1,0-1.8-0.9-1.8-2.2c0-1.6,1.1-2.3,2-2.3
			c0.7,0,1.1,0.3,1.3,0.8h0l0-0.7h0.7c0,0.4,0,0.7,0,1.2v4.9H381L381,205.4L381,205.4z M381,203.4c0-0.1,0-0.2,0-0.3
			c-0.1-0.5-0.5-0.9-1.1-0.9c-0.8,0-1.3,0.7-1.3,1.7c0,0.9,0.4,1.6,1.3,1.6c0.5,0,1-0.3,1.1-0.9c0-0.1,0.1-0.3,0.1-0.4L381,203.4
			L381,203.4z"/>
		<path class="st0" d="M386.8,204.8c0,0.4,0,0.8,0,1.2h-0.7l0-0.7h0c-0.2,0.4-0.7,0.8-1.4,0.8c-0.7,0-1.5-0.4-1.5-1.9v-2.5h0.8v2.4
			c0,0.8,0.3,1.4,1,1.4c0.5,0,0.9-0.4,1-0.7c0-0.1,0.1-0.3,0.1-0.4v-2.7h0.8V204.8z"/>
		<path class="st0" d="M388.5,204c0,1.1,0.7,1.5,1.5,1.5c0.6,0,0.9-0.1,1.2-0.2l0.1,0.6c-0.3,0.1-0.8,0.3-1.4,0.3
			c-1.3,0-2.1-0.9-2.1-2.2s0.8-2.3,2-2.3c1.4,0,1.8,1.2,1.8,2c0,0.2,0,0.3,0,0.4L388.5,204L388.5,204z M390.8,203.4
			c0-0.5-0.2-1.3-1.1-1.3c-0.8,0-1.1,0.7-1.2,1.3H390.8z"/>
	</g>
</g>
<g>
	<path d="M145.2,332.7H45.4c-1.4,0-2.5-1.1-2.5-2.5v-11.3c0-1.4,1.1-2.5,2.5-2.5h99.8c1.4,0,2.5,1.1,2.5,2.5v11.3
		C147.7,331.5,146.6,332.7,145.2,332.7z"/>
	<g>
		<path class="st0" d="M50,324.3h-2.4v2.2h2.6v0.7h-3.4v-6.1h3.3v0.7h-2.5v1.9H50V324.3z"/>
		<path class="st0" d="M51.2,326.3c0.2,0.2,0.6,0.3,1,0.3c0.6,0,0.8-0.3,0.8-0.6c0-0.4-0.2-0.6-0.8-0.8c-0.8-0.3-1.2-0.7-1.2-1.2
			c0-0.7,0.6-1.3,1.5-1.3c0.4,0,0.8,0.1,1.1,0.3l-0.2,0.6c-0.2-0.1-0.5-0.3-0.9-0.3c-0.5,0-0.7,0.3-0.7,0.6c0,0.4,0.3,0.5,0.8,0.7
			c0.8,0.3,1.1,0.7,1.1,1.3c0,0.8-0.6,1.3-1.6,1.3c-0.5,0-0.9-0.1-1.2-0.3L51.2,326.3z"/>
		<path class="st0" d="M54.8,324.2c0-0.6,0-1,0-1.4h0.7l0,0.7h0c0.3-0.5,0.8-0.8,1.5-0.8c1.1,0,1.8,0.9,1.8,2.2c0,1.6-1,2.3-2,2.3
			c-0.6,0-1.1-0.3-1.3-0.7h0v2.4h-0.8V324.2z M55.6,325.4c0,0.1,0,0.2,0,0.3c0.1,0.5,0.6,0.9,1.2,0.9c0.8,0,1.3-0.7,1.3-1.7
			c0-0.9-0.5-1.6-1.3-1.6c-0.5,0-1,0.4-1.2,1c0,0.1-0.1,0.2-0.1,0.3V325.4z"/>
		<path class="st0" d="M62.4,327.2l-0.1-0.5h0c-0.2,0.3-0.7,0.6-1.3,0.6c-0.9,0-1.3-0.6-1.3-1.2c0-1.1,0.9-1.6,2.6-1.6v-0.1
			c0-0.4-0.1-1-1-1c-0.4,0-0.8,0.1-1.1,0.3l-0.2-0.5c0.4-0.2,0.9-0.4,1.4-0.4c1.3,0,1.7,0.9,1.7,1.8v1.6c0,0.4,0,0.7,0.1,1
			L62.4,327.2L62.4,327.2z M62.3,324.9c-0.9,0-1.8,0.1-1.8,1c0,0.5,0.3,0.8,0.7,0.8c0.6,0,0.9-0.4,1.1-0.7c0-0.1,0-0.2,0-0.3
			C62.3,325.7,62.3,324.9,62.3,324.9z"/>
		<path class="st0" d="M67.4,327c-0.2,0.1-0.7,0.3-1.3,0.3c-1.3,0-2.2-0.9-2.2-2.2c0-1.3,0.9-2.3,2.3-2.3c0.5,0,0.9,0.1,1.1,0.2
			l-0.2,0.6c-0.2-0.1-0.5-0.2-0.9-0.2c-1,0-1.5,0.7-1.5,1.6c0,1,0.6,1.6,1.5,1.6c0.4,0,0.7-0.1,1-0.2L67.4,327z"/>
		<path class="st0" d="M68.7,325.1c0,1.1,0.7,1.5,1.5,1.5c0.6,0,0.9-0.1,1.2-0.2l0.1,0.6c-0.3,0.1-0.8,0.3-1.4,0.3
			c-1.3,0-2.1-0.9-2.1-2.2s0.8-2.3,2-2.3c1.4,0,1.8,1.2,1.8,2c0,0.2,0,0.3,0,0.4L68.7,325.1L68.7,325.1z M71,324.6
			c0-0.5-0.2-1.3-1.1-1.3c-0.8,0-1.2,0.7-1.2,1.3H71z"/>
		<path class="st0" d="M74.7,321.2c0.4-0.1,0.9-0.1,1.5-0.1c0.8,0,1.3,0.2,1.7,0.5c0.3,0.3,0.5,0.7,0.5,1.3c0,0.5-0.2,1-0.5,1.3
			c-0.4,0.4-1.1,0.7-1.9,0.7c-0.2,0-0.4,0-0.6-0.1v2.4h-0.8V321.2z M75.5,324.1c0.2,0,0.4,0.1,0.6,0.1c0.9,0,1.5-0.5,1.5-1.3
			c0-0.8-0.6-1.2-1.4-1.2c-0.3,0-0.6,0-0.7,0.1V324.1z"/>
		<path class="st0" d="M81.6,327.2l-0.1-0.5h0c-0.2,0.3-0.7,0.6-1.3,0.6c-0.9,0-1.3-0.6-1.3-1.2c0-1.1,0.9-1.6,2.6-1.6v-0.1
			c0-0.4-0.1-1-1-1c-0.4,0-0.8,0.1-1.1,0.3l-0.2-0.5c0.4-0.2,0.9-0.4,1.4-0.4c1.3,0,1.7,0.9,1.7,1.8v1.6c0,0.4,0,0.7,0.1,1
			L81.6,327.2L81.6,327.2z M81.5,324.9c-0.9,0-1.8,0.1-1.8,1c0,0.5,0.3,0.8,0.7,0.8c0.6,0,0.9-0.4,1.1-0.7c0-0.1,0-0.2,0-0.3V324.9z
			"/>
		<path class="st0" d="M87.2,326c0,0.5,0,0.8,0,1.2h-0.7l0-0.7h0c-0.2,0.4-0.7,0.8-1.4,0.8c-0.7,0-1.5-0.4-1.5-1.9v-2.5h0.8v2.4
			c0,0.8,0.3,1.4,1,1.4c0.5,0,0.9-0.4,1-0.7c0-0.1,0.1-0.3,0.1-0.4v-2.7h0.8C87.2,322.8,87.2,326,87.2,326z"/>
		<path class="st0" d="M88.5,320.8h0.8v6.4h-0.8V320.8z"/>
		<path class="st0" d="M92.5,324.4v0.6h-2.2v-0.6H92.5z"/>
		<path class="st0" d="M96.6,324.3h-2.4v2.2h2.6v0.7h-3.4v-6.1h3.3v0.7h-2.5v1.9h2.4C96.6,323.7,96.6,324.3,96.6,324.3z"/>
		<path class="st0" d="M101.4,326c0,0.5,0,0.8,0,1.2h-0.7l0-0.7h0c-0.2,0.4-0.7,0.8-1.4,0.8c-0.7,0-1.5-0.4-1.5-1.9v-2.5h0.8v2.4
			c0,0.8,0.3,1.4,1,1.4c0.5,0,0.9-0.4,1-0.7c0-0.1,0.1-0.3,0.1-0.4v-2.7h0.8C101.4,322.8,101.4,326,101.4,326z"/>
		<path class="st0" d="M106.5,322.8c0,0.3,0,0.7,0,1.2v2.5c0,1-0.2,1.6-0.6,2c-0.4,0.4-1,0.5-1.6,0.5c-0.5,0-1.1-0.1-1.4-0.4
			l0.2-0.6c0.3,0.2,0.7,0.3,1.3,0.3c0.8,0,1.4-0.4,1.4-1.5v-0.5h0c-0.2,0.4-0.7,0.7-1.4,0.7c-1.1,0-1.9-0.9-1.9-2.1
			c0-1.5,1-2.3,2-2.3c0.8,0,1.2,0.4,1.4,0.8h0l0-0.7H106.5z M105.7,324.5c0-0.1,0-0.3,0-0.4c-0.1-0.5-0.5-0.8-1.1-0.8
			c-0.8,0-1.3,0.6-1.3,1.6c0,0.9,0.4,1.6,1.3,1.6c0.5,0,0.9-0.3,1.1-0.8c0-0.1,0.1-0.3,0.1-0.4L105.7,324.5L105.7,324.5z"/>
		<path class="st0" d="M108.2,325.1c0,1.1,0.7,1.5,1.5,1.5c0.6,0,0.9-0.1,1.2-0.2l0.1,0.6c-0.3,0.1-0.8,0.3-1.4,0.3
			c-1.3,0-2.1-0.9-2.1-2.2s0.8-2.3,2-2.3c1.4,0,1.8,1.2,1.8,2c0,0.2,0,0.3,0,0.4L108.2,325.1L108.2,325.1z M110.5,324.6
			c0-0.5-0.2-1.3-1.1-1.3c-0.8,0-1.2,0.7-1.2,1.3H110.5z M109.2,320.9l0.8,1.3h-0.6l-1.1-1.3H109.2z"/>
		<path class="st0" d="M112.3,324c0-0.5,0-0.8,0-1.2h0.7l0,0.7h0c0.2-0.4,0.7-0.8,1.4-0.8c0.6,0,1.5,0.4,1.5,1.9v2.6h-0.8v-2.5
			c0-0.7-0.3-1.3-1-1.3c-0.5,0-0.9,0.4-1.1,0.8c0,0.1-0.1,0.2-0.1,0.4v2.6h-0.8L112.3,324L112.3,324z"/>
		<path class="st0" d="M117.7,325.1c0,1.1,0.7,1.5,1.5,1.5c0.6,0,0.9-0.1,1.2-0.2l0.1,0.6c-0.3,0.1-0.8,0.3-1.4,0.3
			c-1.3,0-2.1-0.9-2.1-2.2s0.8-2.3,2-2.3c1.4,0,1.8,1.2,1.8,2c0,0.2,0,0.3,0,0.4L117.7,325.1L117.7,325.1z M120,324.6
			c0-0.5-0.2-1.3-1.1-1.3c-0.8,0-1.2,0.7-1.2,1.3H120z"/>
		<path class="st0" d="M123.8,324.4v0.6h-2.2v-0.6H123.8z"/>
		<path class="st0" d="M125.8,321.1h0.8v4.1c0,1.6-0.8,2.1-1.8,2.1c-0.3,0-0.6-0.1-0.8-0.1l0.1-0.6c0.2,0.1,0.4,0.1,0.7,0.1
			c0.7,0,1.1-0.3,1.1-1.5L125.8,321.1L125.8,321.1z"/>
		<path class="st0" d="M131.8,324.9c0,1.6-1.1,2.3-2.2,2.3c-1.2,0-2.1-0.9-2.1-2.2c0-1.5,1-2.3,2.2-2.3
			C131,322.7,131.8,323.6,131.8,324.9z M128.4,325c0,1,0.5,1.7,1.3,1.7c0.8,0,1.3-0.7,1.3-1.7c0-0.7-0.4-1.7-1.3-1.7
			S128.4,324.2,128.4,325z"/>
		<path class="st0" d="M132.8,327.2c0-0.3,0-0.7,0-1.1v-5.3h0.8v2.7h0c0.3-0.5,0.8-0.8,1.5-0.8c1.1,0,1.8,0.9,1.8,2.2
			c0,1.6-1,2.3-1.9,2.3c-0.6,0-1.1-0.2-1.5-0.8h0l0,0.7L132.8,327.2L132.8,327.2z M133.6,325.4c0,0.1,0,0.2,0,0.3
			c0.2,0.5,0.6,0.9,1.2,0.9c0.8,0,1.3-0.7,1.3-1.7c0-0.9-0.4-1.6-1.3-1.6c-0.5,0-1,0.4-1.2,1c0,0.1,0,0.2,0,0.3L133.6,325.4
			L133.6,325.4z"/>
		<path class="st0" d="M138.8,321.6c0,0.3-0.2,0.5-0.5,0.5c-0.3,0-0.5-0.2-0.5-0.5c0-0.3,0.2-0.5,0.5-0.5
			C138.7,321.1,138.8,321.3,138.8,321.6z M138,327.2v-4.4h0.8v4.4H138z"/>
		<path class="st0" d="M140.1,324c0-0.5,0-0.8,0-1.2h0.7l0,0.7h0c0.2-0.4,0.7-0.8,1.4-0.8c0.6,0,1.5,0.4,1.5,1.9v2.6H143v-2.5
			c0-0.7-0.3-1.3-1-1.3c-0.5,0-0.9,0.4-1.1,0.8c0,0.1-0.1,0.2-0.1,0.4v2.6h-0.8L140.1,324L140.1,324z"/>
	</g>
</g>
<g>
	<path d="M565.3,293.3h-85.2c-1.4,0-2.5-1.1-2.5-2.5v-11.3c0-1.4,1.1-2.5,2.5-2.5h85.2c1.4,0,2.5,1.1,2.5,2.5v11.3
		C567.8,292.2,566.7,293.3,565.3,293.3z"/>
	<g>
		<path class="st0" d="M489,283.3h-1.8v-0.7h4.5v0.7h-1.9v5.4H489V283.3z"/>
		<path class="st0" d="M492.1,286.7c0,1.1,0.7,1.5,1.5,1.5c0.6,0,0.9-0.1,1.2-0.2l0.1,0.6c-0.3,0.1-0.8,0.3-1.4,0.3
			c-1.3,0-2.1-0.9-2.1-2.2s0.8-2.3,2-2.3c1.4,0,1.8,1.2,1.8,2c0,0.2,0,0.3,0,0.4L492.1,286.7L492.1,286.7z M494.4,286.1
			c0-0.5-0.2-1.3-1.1-1.3c-0.8,0-1.1,0.7-1.2,1.3H494.4z"/>
		<path class="st0" d="M496.2,285.7c0-0.5,0-1,0-1.4h0.7l0,0.9h0c0.2-0.6,0.7-1,1.2-1c0.1,0,0.2,0,0.2,0v0.7c-0.1,0-0.2,0-0.3,0
			c-0.6,0-1,0.4-1.1,1c0,0.1,0,0.2,0,0.4v2.3h-0.8L496.2,285.7L496.2,285.7z"/>
		<path class="st0" d="M499.1,285.7c0-0.5,0-1,0-1.4h0.7l0,0.9h0c0.2-0.6,0.7-1,1.2-1c0.1,0,0.2,0,0.2,0v0.7c-0.1,0-0.2,0-0.3,0
			c-0.6,0-1,0.4-1.1,1c0,0.1,0,0.2,0,0.4v2.3h-0.8L499.1,285.7L499.1,285.7z"/>
		<path class="st0" d="M504.4,288.7l-0.1-0.5h0c-0.2,0.3-0.7,0.6-1.3,0.6c-0.9,0-1.3-0.6-1.3-1.2c0-1.1,0.9-1.6,2.6-1.6v-0.1
			c0-0.4-0.1-1-1-1c-0.4,0-0.8,0.1-1.1,0.3l-0.2-0.5c0.4-0.2,0.9-0.4,1.4-0.4c1.3,0,1.7,0.9,1.7,1.8v1.6c0,0.4,0,0.7,0.1,1
			L504.4,288.7L504.4,288.7z M504.3,286.5c-0.9,0-1.8,0.1-1.8,1c0,0.5,0.3,0.8,0.7,0.8c0.6,0,0.9-0.4,1.1-0.7c0-0.1,0-0.2,0-0.3
			V286.5z"/>
		<path class="st0" d="M506.3,287.9c0.2,0.2,0.6,0.3,1,0.3c0.6,0,0.8-0.3,0.8-0.6c0-0.4-0.2-0.6-0.8-0.8c-0.8-0.3-1.1-0.7-1.1-1.2
			c0-0.7,0.6-1.3,1.5-1.3c0.4,0,0.8,0.1,1.1,0.3l-0.2,0.6c-0.2-0.1-0.5-0.3-0.9-0.3c-0.5,0-0.7,0.3-0.7,0.6c0,0.4,0.3,0.5,0.8,0.7
			c0.8,0.3,1.1,0.7,1.1,1.3c0,0.8-0.6,1.3-1.6,1.3c-0.5,0-0.9-0.1-1.2-0.3L506.3,287.9z"/>
		<path class="st0" d="M509.8,287.9c0.2,0.2,0.6,0.3,1,0.3c0.6,0,0.8-0.3,0.8-0.6c0-0.4-0.2-0.6-0.8-0.8c-0.8-0.3-1.1-0.7-1.1-1.2
			c0-0.7,0.6-1.3,1.5-1.3c0.4,0,0.8,0.1,1.1,0.3l-0.2,0.6c-0.2-0.1-0.5-0.3-0.9-0.3c-0.5,0-0.7,0.3-0.7,0.6c0,0.4,0.3,0.5,0.8,0.7
			c0.8,0.3,1.1,0.7,1.1,1.3c0,0.8-0.6,1.3-1.6,1.3c-0.5,0-0.9-0.1-1.2-0.3L509.8,287.9z"/>
		<path class="st0" d="M513.9,286.7c0,1.1,0.7,1.5,1.5,1.5c0.6,0,0.9-0.1,1.2-0.2l0.1,0.6c-0.3,0.1-0.8,0.3-1.4,0.3
			c-1.3,0-2.1-0.9-2.1-2.2s0.8-2.3,2-2.3c1.4,0,1.8,1.2,1.8,2c0,0.2,0,0.3,0,0.4L513.9,286.7L513.9,286.7z M516.2,286.1
			c0-0.5-0.2-1.3-1.1-1.3c-0.8,0-1.2,0.7-1.2,1.3H516.2z"/>
		<path class="st0" d="M519.8,287.9c0.2,0.2,0.6,0.3,1,0.3c0.6,0,0.8-0.3,0.8-0.6c0-0.4-0.2-0.6-0.8-0.8c-0.8-0.3-1.2-0.7-1.2-1.2
			c0-0.7,0.6-1.3,1.5-1.3c0.4,0,0.8,0.1,1.1,0.3l-0.2,0.6c-0.2-0.1-0.5-0.3-0.9-0.3c-0.5,0-0.7,0.3-0.7,0.6c0,0.4,0.3,0.5,0.8,0.7
			c0.8,0.3,1.1,0.7,1.1,1.3c0,0.8-0.6,1.3-1.6,1.3c-0.5,0-0.9-0.1-1.2-0.3L519.8,287.9z"/>
		<path class="st0" d="M527.1,287.5c0,0.5,0,0.8,0,1.2h-0.7l0-0.7h0c-0.2,0.4-0.7,0.8-1.4,0.8c-0.7,0-1.5-0.4-1.5-1.9v-2.5h0.8v2.4
			c0,0.8,0.3,1.4,1,1.4c0.5,0,0.9-0.4,1-0.7c0-0.1,0.1-0.3,0.1-0.4v-2.7h0.8L527.1,287.5L527.1,287.5z"/>
		<path class="st0" d="M528.4,285.7c0-0.5,0-1,0-1.4h0.7l0,0.9h0c0.2-0.6,0.7-1,1.2-1c0.1,0,0.2,0,0.2,0v0.7c-0.1,0-0.2,0-0.3,0
			c-0.6,0-1,0.4-1.1,1c0,0.1,0,0.2,0,0.4v2.3h-0.8L528.4,285.7L528.4,285.7z"/>
		<path class="st0" d="M533.3,282.3h0.8v6.4h-0.8V282.3z"/>
		<path class="st0" d="M535.8,286.7c0,1.1,0.7,1.5,1.5,1.5c0.6,0,0.9-0.1,1.2-0.2l0.1,0.6c-0.3,0.1-0.8,0.3-1.4,0.3
			c-1.3,0-2.1-0.9-2.1-2.2s0.8-2.3,2-2.3c1.4,0,1.8,1.2,1.8,2c0,0.2,0,0.3,0,0.4L535.8,286.7L535.8,286.7z M538.1,286.1
			c0-0.5-0.2-1.3-1.1-1.3c-0.8,0-1.2,0.7-1.2,1.3H538.1z"/>
		<path class="st0" d="M542.7,283.1v1.2h1.1v0.6h-1.1v2.3c0,0.5,0.2,0.8,0.6,0.8c0.2,0,0.4,0,0.5-0.1l0,0.6
			c-0.2,0.1-0.4,0.1-0.7,0.1c-0.4,0-0.7-0.1-0.9-0.3c-0.2-0.2-0.3-0.6-0.3-1.1V285h-0.7v-0.6h0.7v-1L542.7,283.1z"/>
		<path class="st0" d="M548.6,286.5c0,1.6-1.1,2.3-2.2,2.3c-1.2,0-2.1-0.9-2.1-2.2c0-1.5,1-2.3,2.2-2.3
			C547.8,284.3,548.6,285.2,548.6,286.5z M545.2,286.6c0,1,0.5,1.7,1.3,1.7c0.8,0,1.3-0.7,1.3-1.7c0-0.7-0.4-1.7-1.3-1.7
			C545.6,284.9,545.2,285.7,545.2,286.6z"/>
		<path class="st0" d="M550.5,283.1c0,0.3-0.2,0.5-0.5,0.5c-0.3,0-0.5-0.2-0.5-0.5c0-0.3,0.2-0.5,0.5-0.5
			C550.3,282.7,550.5,282.9,550.5,283.1z M549.6,288.7v-4.4h0.8v4.4H549.6z"/>
		<path class="st0" d="M552.7,283.1v1.2h1.1v0.6h-1.1v2.3c0,0.5,0.2,0.8,0.6,0.8c0.2,0,0.4,0,0.5-0.1l0,0.6
			c-0.2,0.1-0.4,0.1-0.7,0.1c-0.4,0-0.7-0.1-0.9-0.3c-0.2-0.2-0.3-0.6-0.3-1.1V285h-0.7v-0.6h0.7v-1L552.7,283.1z"/>
	</g>
</g>
<g>
	<path d="M471.7,550.9h-96.8c-1.4,0-2.5-1.1-2.5-2.5v-21.2c0-1.4,1.1-2.5,2.5-2.5h96.8c1.4,0,2.5,1.1,2.5,2.5v21.2
		C474.2,549.8,473.1,550.9,471.7,550.9z"/>
	<g>
		<path class="st0" d="M379.9,534.8c-0.3,0.1-0.9,0.3-1.6,0.3c-1.7,0-3-1.1-3-3.1c0-1.9,1.3-3.2,3.2-3.2c0.8,0,1.2,0.2,1.4,0.3
			l-0.2,0.6c-0.3-0.1-0.7-0.3-1.2-0.3c-1.4,0-2.4,0.9-2.4,2.5c0,1.5,0.9,2.4,2.3,2.4c0.5,0,1-0.1,1.3-0.3L379.9,534.8z"/>
		<path class="st0" d="M383.2,535l-0.1-0.5h0c-0.2,0.3-0.7,0.6-1.3,0.6c-0.9,0-1.3-0.6-1.3-1.2c0-1.1,0.9-1.6,2.6-1.6v-0.1
			c0-0.4-0.1-1-1-1c-0.4,0-0.8,0.1-1.1,0.3l-0.2-0.5c0.4-0.2,0.9-0.4,1.4-0.4c1.3,0,1.7,0.9,1.7,1.8v1.6c0,0.4,0,0.7,0.1,1
			L383.2,535L383.2,535z M383.1,532.8c-0.9,0-1.8,0.1-1.8,1c0,0.5,0.3,0.8,0.7,0.8c0.6,0,0.9-0.4,1.1-0.7c0-0.1,0-0.2,0-0.3V532.8z"
			/>
		<path class="st0" d="M385.2,532c0-0.5,0-1,0-1.4h0.7l0,0.9h0c0.2-0.6,0.7-1,1.2-1c0.1,0,0.2,0,0.2,0v0.7c-0.1,0-0.2,0-0.3,0
			c-0.6,0-1,0.4-1.1,1c0,0.1,0,0.2,0,0.4v2.3h-0.8L385.2,532L385.2,532z"/>
		<path class="st0" d="M388.1,532c0-0.5,0-1,0-1.4h0.7l0,0.9h0c0.2-0.6,0.7-1,1.2-1c0.1,0,0.2,0,0.2,0v0.7c-0.1,0-0.2,0-0.3,0
			c-0.6,0-1,0.4-1.1,1c0,0.1,0,0.2,0,0.4v2.3h-0.8L388.1,532L388.1,532z"/>
		<path class="st0" d="M391.4,533c0,1.1,0.7,1.5,1.5,1.5c0.6,0,0.9-0.1,1.2-0.2l0.1,0.6c-0.3,0.1-0.8,0.3-1.4,0.3
			c-1.3,0-2.1-0.9-2.1-2.2s0.8-2.3,2-2.3c1.4,0,1.8,1.2,1.8,2c0,0.2,0,0.3,0,0.4H391.4z M393.8,532.4c0-0.5-0.2-1.3-1.1-1.3
			c-0.8,0-1.1,0.7-1.2,1.3H393.8z"/>
		<path class="st0" d="M395.6,535v-3.7H395v-0.6h0.6v-0.2c0-0.6,0.1-1.2,0.5-1.5c0.3-0.3,0.7-0.4,1.1-0.4c0.3,0,0.5,0.1,0.7,0.1
			l-0.1,0.6c-0.1-0.1-0.3-0.1-0.5-0.1c-0.7,0-0.8,0.6-0.8,1.3v0.2h1.1v0.6h-1.1v3.7L395.6,535L395.6,535z"/>
		<path class="st0" d="M401.9,532.8c0,1.6-1.1,2.3-2.2,2.3c-1.2,0-2.1-0.9-2.1-2.2c0-1.5,1-2.3,2.2-2.3
			C401.1,530.6,401.9,531.5,401.9,532.8z M398.5,532.9c0,1,0.5,1.7,1.3,1.7c0.8,0,1.3-0.7,1.3-1.7c0-0.7-0.4-1.7-1.3-1.7
			S398.5,532,398.5,532.9z"/>
		<path class="st0" d="M406.6,533.8c0,0.4,0,0.8,0,1.2h-0.7l0-0.7h0c-0.2,0.4-0.7,0.8-1.4,0.8c-0.7,0-1.5-0.4-1.5-1.9v-2.5h0.8v2.4
			c0,0.8,0.3,1.4,1,1.4c0.5,0,0.9-0.4,1-0.7c0-0.1,0.1-0.3,0.1-0.4v-2.7h0.8L406.6,533.8L406.6,533.8z"/>
		<path class="st0" d="M407.9,532c0-0.5,0-1,0-1.4h0.7l0,0.9h0c0.2-0.6,0.7-1,1.2-1c0.1,0,0.2,0,0.2,0v0.7c-0.1,0-0.2,0-0.3,0
			c-0.6,0-1,0.4-1.1,1c0,0.1,0,0.2,0,0.4v2.3h-0.8L407.9,532L407.9,532z"/>
		<path class="st0" d="M416.5,528.7v5.3c0,0.4,0,0.8,0,1.1h-0.7l0-0.8h0c-0.2,0.5-0.8,0.9-1.5,0.9c-1.1,0-1.9-0.9-1.9-2.2
			c0-1.4,0.9-2.3,2-2.3c0.7,0,1.1,0.3,1.3,0.7h0v-2.6L416.5,528.7L416.5,528.7z M415.7,532.5c0-0.1,0-0.2,0-0.3
			c-0.1-0.5-0.5-0.9-1.1-0.9c-0.8,0-1.3,0.7-1.3,1.7c0,0.9,0.4,1.6,1.3,1.6c0.5,0,1-0.4,1.2-0.9c0-0.1,0-0.2,0-0.3V532.5z"/>
		<path class="st0" d="M418.3,533c0,1.1,0.7,1.5,1.5,1.5c0.6,0,0.9-0.1,1.2-0.2l0.1,0.6c-0.3,0.1-0.8,0.3-1.4,0.3
			c-1.3,0-2.1-0.9-2.1-2.2s0.8-2.3,2-2.3c1.4,0,1.8,1.2,1.8,2c0,0.2,0,0.3,0,0.4H418.3z M420.6,532.4c0-0.5-0.2-1.3-1.1-1.3
			c-0.8,0-1.1,0.7-1.2,1.3H420.6z"/>
		<path class="st0" d="M424.2,528.7h0.8v6.4h-0.8V528.7z"/>
		<path class="st0" d="M427.4,528.9c-0.2,0.8-0.6,1.7-0.8,2.1l-0.5,0.1c0.2-0.5,0.4-1.5,0.5-2.1L427.4,528.9z"/>
		<path class="st0" d="M428.8,529.5c0,0.3-0.2,0.5-0.5,0.5c-0.3,0-0.5-0.2-0.5-0.5c0-0.3,0.2-0.5,0.5-0.5
			C428.6,529,428.8,529.2,428.8,529.5z M427.9,535v-4.4h0.8v4.4H427.9z"/>
		<path class="st0" d="M430,531.9c0-0.4,0-0.8,0-1.2h0.7l0,0.7h0c0.2-0.4,0.7-0.8,1.4-0.8c0.6,0,1.5,0.4,1.5,1.9v2.6h-0.8v-2.5
			c0-0.7-0.3-1.3-1-1.3c-0.5,0-0.9,0.4-1.1,0.8c0,0.1-0.1,0.2-0.1,0.4v2.6H430V531.9z"/>
		<path class="st0" d="M435.1,535v-3.7h-0.6v-0.6h0.6v-0.2c0-0.6,0.1-1.2,0.5-1.5c0.3-0.3,0.7-0.4,1.1-0.4c0.3,0,0.5,0.1,0.7,0.1
			l-0.1,0.6c-0.1-0.1-0.3-0.1-0.5-0.1c-0.7,0-0.8,0.6-0.8,1.3v0.2h1.1v0.6h-1.1v3.7L435.1,535L435.1,535z"/>
		<path class="st0" d="M441.5,532.8c0,1.6-1.1,2.3-2.2,2.3c-1.2,0-2.1-0.9-2.1-2.2c0-1.5,1-2.3,2.2-2.3
			C440.6,530.6,441.5,531.5,441.5,532.8z M438,532.9c0,1,0.5,1.7,1.3,1.7c0.8,0,1.3-0.7,1.3-1.7c0-0.7-0.4-1.7-1.3-1.7
			S438,532,438,532.9z"/>
		<path class="st0" d="M442.5,532c0-0.5,0-1,0-1.4h0.7l0,0.9h0c0.2-0.6,0.7-1,1.2-1c0.1,0,0.2,0,0.2,0v0.7c-0.1,0-0.2,0-0.3,0
			c-0.6,0-1,0.4-1.1,1c0,0.1,0,0.2,0,0.4v2.3h-0.8L442.5,532L442.5,532z"/>
		<path class="st0" d="M445.4,531.9c0-0.4,0-0.8,0-1.2h0.7l0,0.7h0c0.2-0.4,0.6-0.8,1.4-0.8c0.6,0,1,0.4,1.2,0.9h0
			c0.1-0.2,0.3-0.4,0.5-0.6c0.3-0.2,0.5-0.3,1-0.3c0.6,0,1.4,0.4,1.4,1.9v2.6h-0.8v-2.5c0-0.8-0.3-1.3-0.9-1.3
			c-0.5,0-0.8,0.3-0.9,0.7c0,0.1-0.1,0.3-0.1,0.4v2.7h-0.8v-2.6c0-0.7-0.3-1.2-0.9-1.2c-0.5,0-0.9,0.4-1,0.8c0,0.1-0.1,0.3-0.1,0.4
			v2.6h-0.8L445.4,531.9L445.4,531.9z"/>
		<path class="st0" d="M455.3,535l-0.1-0.5h0c-0.2,0.3-0.7,0.6-1.3,0.6c-0.9,0-1.3-0.6-1.3-1.2c0-1.1,0.9-1.6,2.6-1.6v-0.1
			c0-0.4-0.1-1-1-1c-0.4,0-0.8,0.1-1.1,0.3l-0.2-0.5c0.4-0.2,0.9-0.4,1.4-0.4c1.3,0,1.7,0.9,1.7,1.8v1.6c0,0.4,0,0.7,0.1,1
			L455.3,535L455.3,535z M455.2,532.8c-0.9,0-1.8,0.1-1.8,1c0,0.5,0.3,0.8,0.7,0.8c0.6,0,0.9-0.4,1.1-0.7c0-0.1,0-0.2,0-0.3V532.8z"
			/>
		<path class="st0" d="M458.2,529.4v1.2h1.1v0.6h-1.1v2.3c0,0.5,0.2,0.8,0.6,0.8c0.2,0,0.4,0,0.5-0.1l0,0.6
			c-0.2,0.1-0.4,0.1-0.7,0.1c-0.4,0-0.7-0.1-0.9-0.3c-0.2-0.2-0.3-0.6-0.3-1.1v-2.4h-0.7v-0.6h0.7v-1L458.2,529.4z"/>
		<path class="st0" d="M461.1,529.5c0,0.3-0.2,0.5-0.5,0.5c-0.3,0-0.5-0.2-0.5-0.5c0-0.3,0.2-0.5,0.5-0.5
			C460.9,529,461.1,529.2,461.1,529.5z M460.2,535v-4.4h0.8v4.4H460.2z"/>
		<path class="st0" d="M466.2,532.8c0,1.6-1.1,2.3-2.2,2.3c-1.2,0-2.1-0.9-2.1-2.2c0-1.5,1-2.3,2.2-2.3
			C465.4,530.6,466.2,531.5,466.2,532.8z M462.8,532.9c0,1,0.5,1.7,1.3,1.7c0.8,0,1.3-0.7,1.3-1.7c0-0.7-0.4-1.7-1.3-1.7
			S462.8,532,462.8,532.9z"/>
		<path class="st0" d="M467.2,531.9c0-0.4,0-0.8,0-1.2h0.7l0,0.7h0c0.2-0.4,0.7-0.8,1.4-0.8c0.6,0,1.5,0.4,1.5,1.9v2.6h-0.8v-2.5
			c0-0.7-0.3-1.3-1-1.3c-0.5,0-0.9,0.4-1.1,0.8c0,0.1-0.1,0.2-0.1,0.4v2.6h-0.8V531.9z"/>
		<path class="st0" d="M399,539.6c-0.7,0.9-1.1,2-1.1,3.7c0,1.6,0.5,2.8,1.1,3.6h-0.6c-0.6-0.7-1.2-1.9-1.2-3.6
			c0-1.8,0.6-2.9,1.2-3.7H399z"/>
		<path class="st0" d="M399.9,539.8c0.3-0.1,0.9-0.1,1.4-0.1c0.8,0,1.3,0.1,1.7,0.4c0.3,0.2,0.5,0.6,0.5,1.1c0,0.6-0.4,1.1-1,1.3v0
			c0.6,0.1,1.3,0.6,1.3,1.5c0,0.5-0.2,0.9-0.5,1.2c-0.4,0.4-1.1,0.6-2.1,0.6c-0.5,0-1,0-1.2-0.1L399.9,539.8L399.9,539.8z
			 M400.6,542.3h0.7c0.8,0,1.3-0.4,1.3-1c0-0.7-0.5-1-1.3-1c-0.4,0-0.6,0-0.7,0.1L400.6,542.3L400.6,542.3z M400.6,545.2
			c0.2,0,0.4,0,0.7,0c0.8,0,1.6-0.3,1.6-1.2c0-0.8-0.7-1.2-1.6-1.2h-0.6V545.2z"/>
		<path class="st0" d="M405.6,540.3c0,0.3-0.2,0.5-0.5,0.5c-0.3,0-0.5-0.2-0.5-0.5c0-0.3,0.2-0.5,0.5-0.5
			C405.4,539.8,405.6,540,405.6,540.3z M404.7,545.8v-4.4h0.8v4.4H404.7z"/>
		<path class="st0" d="M406.8,545.8c0-0.3,0-0.7,0-1.1v-5.3h0.8v2.7h0c0.3-0.5,0.8-0.8,1.5-0.8c1.1,0,1.8,0.9,1.8,2.2
			c0,1.6-1,2.3-2,2.3c-0.6,0-1.1-0.2-1.5-0.8h0l0,0.7L406.8,545.8L406.8,545.8z M407.6,544.1c0,0.1,0,0.2,0,0.3
			c0.2,0.5,0.6,0.9,1.2,0.9c0.8,0,1.3-0.7,1.3-1.7c0-0.9-0.4-1.6-1.3-1.6c-0.5,0-1,0.4-1.2,1c0,0.1,0,0.2,0,0.3V544.1z"/>
		<path class="st0" d="M411.9,539.4h0.8v6.4h-0.8V539.4z"/>
		<path class="st0" d="M414.9,540.3c0,0.3-0.2,0.5-0.5,0.5c-0.3,0-0.5-0.2-0.5-0.5c0-0.3,0.2-0.5,0.5-0.5
			C414.7,539.8,414.9,540,414.9,540.3z M414.1,545.8v-4.4h0.8v4.4H414.1z"/>
		<path class="st0" d="M420.1,543.6c0,1.6-1.1,2.3-2.2,2.3c-1.2,0-2.1-0.9-2.1-2.2c0-1.5,1-2.3,2.2-2.3
			C419.2,541.4,420.1,542.3,420.1,543.6z M416.6,543.7c0,1,0.5,1.7,1.3,1.7c0.8,0,1.3-0.7,1.3-1.7c0-0.7-0.4-1.7-1.3-1.7
			S416.6,542.8,416.6,543.7z"/>
		<path class="st0" d="M422,540.2v1.2h1.1v0.6H422v2.3c0,0.5,0.2,0.8,0.6,0.8c0.2,0,0.4,0,0.5-0.1l0,0.6c-0.2,0.1-0.4,0.1-0.7,0.1
			c-0.4,0-0.7-0.1-0.9-0.3c-0.2-0.2-0.3-0.6-0.3-1.1v-2.4h-0.7v-0.6h0.7v-1L422,540.2z"/>
		<path class="st0" d="M424.1,539.4h0.8v2.7h0c0.1-0.2,0.3-0.4,0.6-0.6c0.2-0.1,0.5-0.2,0.8-0.2c0.6,0,1.5,0.4,1.5,1.9v2.6H427v-2.5
			c0-0.7-0.3-1.3-1-1.3c-0.5,0-0.9,0.4-1.1,0.8c0,0.1-0.1,0.2-0.1,0.4v2.6h-0.8L424.1,539.4L424.1,539.4z"/>
		<path class="st0" d="M429.5,543.8c0,1.1,0.7,1.5,1.5,1.5c0.6,0,0.9-0.1,1.2-0.2l0.1,0.6c-0.3,0.1-0.8,0.3-1.4,0.3
			c-1.3,0-2.1-0.9-2.1-2.2s0.8-2.3,2-2.3c1.4,0,1.8,1.2,1.8,2c0,0.2,0,0.3,0,0.4H429.5z M431.8,543.2c0-0.5-0.2-1.3-1.1-1.3
			c-0.8,0-1.1,0.7-1.2,1.3H431.8z M430.5,539.6l0.8,1.3h-0.6l-1.1-1.3H430.5z"/>
		<path class="st0" d="M436.5,545.2L436.5,545.2c-0.3,0.4-0.7,0.8-1.4,0.8c-1,0-1.8-0.9-1.8-2.2c0-1.6,1.1-2.3,2-2.3
			c0.7,0,1.1,0.3,1.3,0.8h0l0-0.7h0.7c0,0.4,0,0.7,0,1.2v4.9h-0.8L436.5,545.2L436.5,545.2z M436.5,543.2c0-0.1,0-0.2,0-0.3
			c-0.1-0.5-0.5-0.9-1.1-0.9c-0.8,0-1.3,0.7-1.3,1.7c0,0.9,0.4,1.6,1.3,1.6c0.5,0,1-0.3,1.1-0.9c0-0.1,0.1-0.3,0.1-0.4L436.5,543.2
			L436.5,543.2z"/>
		<path class="st0" d="M442.3,544.6c0,0.4,0,0.8,0,1.2h-0.7l0-0.7h0c-0.2,0.4-0.7,0.8-1.4,0.8c-0.7,0-1.5-0.4-1.5-1.9v-2.5h0.8v2.4
			c0,0.8,0.3,1.4,1,1.4c0.5,0,0.9-0.4,1-0.7c0-0.1,0.1-0.3,0.1-0.4v-2.7h0.8L442.3,544.6L442.3,544.6z"/>
		<path class="st0" d="M444,543.8c0,1.1,0.7,1.5,1.5,1.5c0.6,0,0.9-0.1,1.2-0.2l0.1,0.6c-0.3,0.1-0.8,0.3-1.4,0.3
			c-1.3,0-2.1-0.9-2.1-2.2s0.8-2.3,2-2.3c1.4,0,1.8,1.2,1.8,2c0,0.2,0,0.3,0,0.4H444z M446.3,543.2c0-0.5-0.2-1.3-1.1-1.3
			c-0.8,0-1.1,0.7-1.2,1.3H446.3z"/>
		<path class="st0" d="M447.6,546.9c0.6-0.9,1.1-2.1,1.1-3.7c0-1.6-0.5-2.8-1.1-3.6h0.6c0.6,0.7,1.2,1.9,1.2,3.7
			c0,1.8-0.6,2.9-1.2,3.7L447.6,546.9L447.6,546.9z"/>
	</g>
</g>
<g>
	<path d="M325.7,574h-58.3c-1.4,0-2.5-1.1-2.5-2.5v-11.3c0-1.4,1.1-2.5,2.5-2.5h58.3c1.4,0,2.5,1.1,2.5,2.5v11.3
		C328.2,572.9,327.1,574,325.7,574z"/>
	<g>
		<path class="st0" d="M278.8,562.5h0.8v5.4h2.6v0.7h-3.4L278.8,562.5L278.8,562.5z"/>
		<path class="st0" d="M285.4,568.5l-0.1-0.5h0c-0.2,0.3-0.7,0.6-1.3,0.6c-0.9,0-1.3-0.6-1.3-1.2c0-1.1,0.9-1.6,2.6-1.6v-0.1
			c0-0.4-0.1-1-1-1c-0.4,0-0.8,0.1-1.1,0.3l-0.2-0.5c0.4-0.2,0.9-0.4,1.4-0.4c1.3,0,1.7,0.9,1.7,1.8v1.6c0,0.4,0,0.7,0.1,1
			L285.4,568.5L285.4,568.5z M285.3,566.3c-0.9,0-1.8,0.1-1.8,1c0,0.5,0.3,0.8,0.7,0.8c0.6,0,0.9-0.4,1.1-0.7c0-0.1,0-0.2,0-0.3
			V566.3z"/>
		<path class="st0" d="M293.9,568.3c-0.4,0.1-1,0.3-1.9,0.3c-0.9,0-1.7-0.2-2.3-0.8c-0.5-0.5-0.8-1.3-0.8-2.3c0-1.8,1.2-3.1,3.3-3.1
			c0.7,0,1.2,0.2,1.5,0.3l-0.2,0.6c-0.3-0.1-0.7-0.3-1.3-0.3c-1.5,0-2.4,0.9-2.4,2.4c0,1.5,0.9,2.4,2.3,2.4c0.5,0,0.9-0.1,1-0.2V566
			h-1.2v-0.6h2L293.9,568.3L293.9,568.3z"/>
		<path class="st0" d="M297.5,568.5l-0.1-0.5h0c-0.2,0.3-0.7,0.6-1.3,0.6c-0.9,0-1.3-0.6-1.3-1.2c0-1.1,0.9-1.6,2.6-1.6v-0.1
			c0-0.4-0.1-1-1-1c-0.4,0-0.8,0.1-1.1,0.3l-0.2-0.5c0.4-0.2,0.9-0.4,1.4-0.4c1.3,0,1.7,0.9,1.7,1.8v1.6c0,0.4,0,0.7,0.1,1
			L297.5,568.5L297.5,568.5z M297.4,566.3c-0.9,0-1.8,0.1-1.8,1c0,0.5,0.3,0.8,0.7,0.8c0.6,0,0.9-0.4,1.1-0.7c0-0.1,0-0.2,0-0.3
			V566.3z"/>
		<path class="st0" d="M299.5,562.1h0.8v6.4h-0.8V562.1z"/>
		<path class="st0" d="M302,566.5c0,1.1,0.7,1.5,1.5,1.5c0.6,0,0.9-0.1,1.2-0.2l0.1,0.6c-0.3,0.1-0.8,0.3-1.4,0.3
			c-1.3,0-2.1-0.9-2.1-2.2c0-1.3,0.8-2.3,2-2.3c1.4,0,1.8,1.2,1.8,2c0,0.2,0,0.3,0,0.4H302z M304.3,565.9c0-0.5-0.2-1.3-1.1-1.3
			c-0.8,0-1.1,0.7-1.2,1.3H304.3z"/>
		<path class="st0" d="M306.1,565.5c0-0.5,0-1,0-1.4h0.7l0,0.9h0c0.2-0.6,0.7-1,1.2-1c0.1,0,0.2,0,0.2,0v0.7c-0.1,0-0.2,0-0.3,0
			c-0.6,0-1,0.4-1.1,1c0,0.1,0,0.2,0,0.4v2.3h-0.8L306.1,565.5L306.1,565.5z"/>
		<path class="st0" d="M309.9,563c0,0.3-0.2,0.5-0.5,0.5c-0.3,0-0.5-0.2-0.5-0.5c0-0.3,0.2-0.5,0.5-0.5
			C309.8,562.5,309.9,562.7,309.9,563z M309.1,568.5v-4.3h0.8v4.3H309.1z"/>
		<path class="st0" d="M311.6,566.5c0,1.1,0.7,1.5,1.5,1.5c0.6,0,0.9-0.1,1.2-0.2l0.1,0.6c-0.3,0.1-0.8,0.3-1.4,0.3
			c-1.3,0-2.1-0.9-2.1-2.2c0-1.3,0.8-2.3,2-2.3c1.4,0,1.8,1.2,1.8,2c0,0.2,0,0.3,0,0.4H311.6z M313.9,565.9c0-0.5-0.2-1.3-1.1-1.3
			c-0.8,0-1.1,0.7-1.2,1.3H313.9z"/>
	</g>
</g>
<g>
	<path d="M468.6,630.6H406c-1.4,0-2.5-1.1-2.5-2.5v-20.2c0-1.4,1.1-2.5,2.5-2.5h62.6c1.4,0,2.5,1.1,2.5,2.5v20.2
		C471.1,629.4,470,630.6,468.6,630.6z"/>
	<g>
		<path class="st0" d="M417.4,615c-0.3,0.1-0.9,0.3-1.6,0.3c-1.7,0-3-1.1-3-3.1c0-1.9,1.3-3.2,3.2-3.2c0.8,0,1.2,0.2,1.4,0.3
			l-0.2,0.6c-0.3-0.1-0.7-0.3-1.2-0.3c-1.4,0-2.4,0.9-2.4,2.5c0,1.5,0.9,2.4,2.3,2.4c0.5,0,1-0.1,1.3-0.3L417.4,615z"/>
		<path class="st0" d="M418.7,613.2c0,1.1,0.7,1.5,1.5,1.5c0.6,0,0.9-0.1,1.2-0.2l0.1,0.6c-0.3,0.1-0.8,0.3-1.4,0.3
			c-1.3,0-2.1-0.9-2.1-2.2s0.8-2.3,2-2.3c1.4,0,1.8,1.2,1.8,2c0,0.2,0,0.3,0,0.4H418.7z M421,612.6c0-0.5-0.2-1.3-1.1-1.3
			c-0.8,0-1.1,0.7-1.2,1.3H421z"/>
		<path class="st0" d="M422.8,612.1c0-0.4,0-0.8,0-1.2h0.7l0,0.7h0c0.2-0.4,0.7-0.8,1.4-0.8c0.6,0,1.5,0.4,1.5,1.9v2.6h-0.8v-2.5
			c0-0.7-0.3-1.3-1-1.3c-0.5,0-0.9,0.4-1.1,0.8c0,0.1-0.1,0.2-0.1,0.4v2.6h-0.8V612.1z"/>
		<path class="st0" d="M428.7,609.6v1.2h1.1v0.6h-1.1v2.3c0,0.5,0.2,0.8,0.6,0.8c0.2,0,0.4,0,0.5-0.1l0,0.6
			c-0.2,0.1-0.4,0.1-0.7,0.1c-0.4,0-0.7-0.1-0.9-0.3c-0.2-0.2-0.3-0.6-0.3-1.1v-2.4h-0.7v-0.6h0.7v-1L428.7,609.6z"/>
		<path class="st0" d="M430.7,612.2c0-0.5,0-1,0-1.4h0.7l0,0.9h0c0.2-0.6,0.7-1,1.2-1c0.1,0,0.2,0,0.2,0v0.7c-0.1,0-0.2,0-0.3,0
			c-0.6,0-1,0.4-1.1,1c0,0.1,0,0.2,0,0.4v2.3h-0.8L430.7,612.2L430.7,612.2z"/>
		<path class="st0" d="M434,613.2c0,1.1,0.7,1.5,1.5,1.5c0.6,0,0.9-0.1,1.2-0.2l0.1,0.6c-0.3,0.1-0.8,0.3-1.4,0.3
			c-1.3,0-2.1-0.9-2.1-2.2s0.8-2.3,2-2.3c1.4,0,1.8,1.2,1.8,2c0,0.2,0,0.3,0,0.4H434z M436.3,612.6c0-0.5-0.2-1.3-1.1-1.3
			c-0.8,0-1.1,0.7-1.2,1.3H436.3z"/>
		<path class="st0" d="M443.7,608.8v5.3c0,0.4,0,0.8,0,1.1H443l0-0.8h0c-0.2,0.5-0.8,0.9-1.5,0.9c-1.1,0-1.9-0.9-1.9-2.2
			c0-1.4,0.9-2.3,2-2.3c0.7,0,1.1,0.3,1.3,0.7h0v-2.6L443.7,608.8L443.7,608.8z M442.9,612.6c0-0.1,0-0.2,0-0.3
			c-0.1-0.5-0.5-0.9-1.1-0.9c-0.8,0-1.3,0.7-1.3,1.7c0,0.9,0.4,1.6,1.3,1.6c0.5,0,1-0.4,1.2-0.9c0-0.1,0-0.2,0-0.3V612.6z"/>
		<path class="st0" d="M446.1,609.1c-0.2,0.8-0.6,1.7-0.8,2.1l-0.5,0.1c0.2-0.5,0.4-1.5,0.5-2.1L446.1,609.1z"/>
		<path class="st0" d="M449.2,615.2l-0.1-0.5h0c-0.2,0.3-0.7,0.6-1.3,0.6c-0.9,0-1.3-0.6-1.3-1.2c0-1.1,0.9-1.6,2.6-1.6v-0.1
			c0-0.4-0.1-1-1-1c-0.4,0-0.8,0.1-1.1,0.3l-0.2-0.5c0.4-0.2,0.9-0.4,1.4-0.4c1.3,0,1.7,0.9,1.7,1.8v1.6c0,0.4,0,0.7,0.1,1
			L449.2,615.2L449.2,615.2z M449.1,613c-0.9,0-1.8,0.1-1.8,1c0,0.5,0.3,0.8,0.7,0.8c0.6,0,0.9-0.4,1.1-0.7c0-0.1,0-0.2,0-0.3V613z"
			/>
		<path class="st0" d="M452,609.7c0,0.3-0.2,0.5-0.5,0.5c-0.3,0-0.5-0.2-0.5-0.5c0-0.3,0.2-0.5,0.5-0.5
			C451.8,609.2,452,609.4,452,609.7z M451.1,615.2v-4.4h0.8v4.4H451.1z"/>
		<path class="st0" d="M457,608.8v5.3c0,0.4,0,0.8,0,1.1h-0.7l0-0.8h0c-0.2,0.5-0.8,0.9-1.5,0.9c-1.1,0-1.9-0.9-1.9-2.2
			c0-1.4,0.9-2.3,2-2.3c0.7,0,1.1,0.3,1.3,0.7h0v-2.6L457,608.8L457,608.8z M456.2,612.6c0-0.1,0-0.2,0-0.3
			c-0.1-0.5-0.5-0.9-1.1-0.9c-0.8,0-1.3,0.7-1.3,1.7c0,0.9,0.4,1.6,1.3,1.6c0.5,0,1-0.4,1.2-0.9c0-0.1,0-0.2,0-0.3V612.6z"/>
		<path class="st0" d="M458.7,613.2c0,1.1,0.7,1.5,1.5,1.5c0.6,0,0.9-0.1,1.2-0.2l0.1,0.6c-0.3,0.1-0.8,0.3-1.4,0.3
			c-1.3,0-2.1-0.9-2.1-2.2s0.8-2.3,2-2.3c1.4,0,1.8,1.2,1.8,2c0,0.2,0,0.3,0,0.4H458.7z M461.1,612.6c0-0.5-0.2-1.3-1.1-1.3
			c-0.8,0-1.1,0.7-1.2,1.3H461.1z"/>
		<path class="st0" d="M418.6,626l-0.1-0.5h0c-0.2,0.3-0.7,0.6-1.3,0.6c-0.9,0-1.3-0.6-1.3-1.2c0-1.1,0.9-1.6,2.6-1.6v-0.1
			c0-0.4-0.1-1-1-1c-0.4,0-0.8,0.1-1.1,0.3l-0.2-0.5c0.4-0.2,0.9-0.4,1.4-0.4c1.3,0,1.7,0.9,1.7,1.8v1.6c0,0.4,0,0.7,0.1,1
			L418.6,626L418.6,626z M417.3,619.8l0.8,1.3h-0.6l-1.1-1.3H417.3z M418.5,623.8c-0.9,0-1.8,0.1-1.8,1c0,0.5,0.3,0.8,0.7,0.8
			c0.6,0,0.9-0.4,1.1-0.7c0-0.1,0-0.2,0-0.3V623.8z"/>
		<path class="st0" d="M422.4,619.6h0.8v6.4h-0.8V619.6z"/>
		<path class="st0" d="M427,626l-0.1-0.5h0c-0.2,0.3-0.7,0.6-1.3,0.6c-0.9,0-1.3-0.6-1.3-1.2c0-1.1,0.9-1.6,2.6-1.6v-0.1
			c0-0.4-0.1-1-1-1c-0.4,0-0.8,0.1-1.1,0.3l-0.2-0.5c0.4-0.2,0.9-0.4,1.4-0.4c1.3,0,1.7,0.9,1.7,1.8v1.6c0,0.4,0,0.7,0.1,1L427,626
			L427,626z M426.8,623.8c-0.9,0-1.8,0.1-1.8,1c0,0.5,0.3,0.8,0.7,0.8c0.6,0,0.9-0.4,1.1-0.7c0-0.1,0-0.2,0-0.3V623.8z"/>
		<path class="st0" d="M430.8,623c0-0.5,0-1,0-1.4h0.7l0,0.9h0c0.2-0.6,0.7-1,1.2-1c0.1,0,0.2,0,0.2,0v0.7c-0.1,0-0.2,0-0.3,0
			c-0.6,0-1,0.4-1.1,1c0,0.1,0,0.2,0,0.4v2.3h-0.8L430.8,623L430.8,623z"/>
		<path class="st0" d="M434.1,624c0,1.1,0.7,1.5,1.5,1.5c0.6,0,0.9-0.1,1.2-0.2l0.1,0.6c-0.3,0.1-0.8,0.3-1.4,0.3
			c-1.3,0-2.1-0.9-2.1-2.2s0.8-2.3,2-2.3c1.4,0,1.8,1.2,1.8,2c0,0.2,0,0.3,0,0.4H434.1z M436.4,623.4c0-0.5-0.2-1.3-1.1-1.3
			c-0.8,0-1.1,0.7-1.2,1.3H436.4z M436.6,619.8l-1.1,1.3h-0.6l0.8-1.3H436.6z"/>
		<path class="st0" d="M441.8,624.8c0,0.4,0,0.8,0,1.2h-0.7l0-0.7h0c-0.2,0.4-0.7,0.8-1.4,0.8c-0.7,0-1.5-0.4-1.5-1.9v-2.5h0.8v2.4
			c0,0.8,0.3,1.4,1,1.4c0.5,0,0.9-0.4,1-0.7c0-0.1,0.1-0.3,0.1-0.4v-2.7h0.8L441.8,624.8L441.8,624.8z"/>
		<path class="st0" d="M443,625.2c0.2,0.2,0.6,0.3,1,0.3c0.6,0,0.8-0.3,0.8-0.6c0-0.4-0.2-0.6-0.8-0.8c-0.8-0.3-1.1-0.7-1.1-1.2
			c0-0.7,0.6-1.3,1.5-1.3c0.4,0,0.8,0.1,1.1,0.3l-0.2,0.6c-0.2-0.1-0.5-0.3-0.9-0.3c-0.5,0-0.7,0.3-0.7,0.6c0,0.4,0.3,0.5,0.8,0.7
			c0.8,0.3,1.1,0.7,1.1,1.3c0,0.8-0.6,1.3-1.6,1.3c-0.5,0-0.9-0.1-1.2-0.3L443,625.2z"/>
		<path class="st0" d="M446.6,625.2c0.2,0.2,0.6,0.3,1,0.3c0.6,0,0.8-0.3,0.8-0.6c0-0.4-0.2-0.6-0.8-0.8c-0.8-0.3-1.1-0.7-1.1-1.2
			c0-0.7,0.6-1.3,1.5-1.3c0.4,0,0.8,0.1,1.1,0.3l-0.2,0.6c-0.2-0.1-0.5-0.3-0.9-0.3c-0.5,0-0.7,0.3-0.7,0.6c0,0.4,0.3,0.5,0.8,0.7
			c0.8,0.3,1.1,0.7,1.1,1.3c0,0.8-0.6,1.3-1.6,1.3c-0.5,0-0.9-0.1-1.2-0.3L446.6,625.2z"/>
		<path class="st0" d="M451.1,620.4c0,0.3-0.2,0.5-0.5,0.5c-0.3,0-0.5-0.2-0.5-0.5c0-0.3,0.2-0.5,0.5-0.5
			C450.9,620,451.1,620.2,451.1,620.4z M450.2,626v-4.4h0.8v4.4H450.2z"/>
		<path class="st0" d="M453.3,620.4v1.2h1.1v0.6h-1.1v2.3c0,0.5,0.2,0.8,0.6,0.8c0.2,0,0.4,0,0.5-0.1l0,0.6
			c-0.2,0.1-0.4,0.1-0.7,0.1c-0.4,0-0.7-0.1-0.9-0.3c-0.2-0.2-0.3-0.6-0.3-1.1v-2.4h-0.7v-0.6h0.7v-1L453.3,620.4z"/>
		<path class="st0" d="M455.7,624c0,1.1,0.7,1.5,1.5,1.5c0.6,0,0.9-0.1,1.2-0.2l0.1,0.6c-0.3,0.1-0.8,0.3-1.4,0.3
			c-1.3,0-2.1-0.9-2.1-2.2s0.8-2.3,2-2.3c1.4,0,1.8,1.2,1.8,2c0,0.2,0,0.3,0,0.4H455.7z M458,623.4c0-0.5-0.2-1.3-1.1-1.3
			c-0.8,0-1.1,0.7-1.2,1.3H458z"/>
	</g>
</g>
<g>
	<path d="M503.1,341.6H448c-1.4,0-2.5-1.1-2.5-2.5V319c0-1.4,1.1-2.5,2.5-2.5h55.1c1.4,0,2.5,1.1,2.5,2.5v20.2
		C505.6,340.5,504.5,341.6,503.1,341.6z"/>
	<g>
		<path class="st0" d="M465.7,325.3c0.4,0.2,0.9,0.4,1.4,0.4c0.8,0,1.3-0.4,1.3-1c0-0.6-0.3-0.9-1.1-1.2c-1-0.4-1.6-0.9-1.6-1.7
			c0-0.9,0.8-1.6,2-1.6c0.6,0,1.1,0.1,1.3,0.3l-0.2,0.6c-0.2-0.1-0.6-0.3-1.1-0.3c-0.8,0-1.1,0.5-1.1,0.9c0,0.6,0.4,0.8,1.2,1.2
			c1,0.4,1.5,0.9,1.5,1.8c0,0.9-0.7,1.7-2.1,1.7c-0.6,0-1.2-0.2-1.5-0.4L465.7,325.3z"/>
		<path class="st0" d="M472.7,326.3l-0.1-0.5h0c-0.2,0.3-0.7,0.6-1.3,0.6c-0.9,0-1.3-0.6-1.3-1.2c0-1.1,0.9-1.6,2.6-1.6v-0.1
			c0-0.4-0.1-1-1-1c-0.4,0-0.8,0.1-1.1,0.3l-0.2-0.5c0.4-0.2,0.9-0.4,1.4-0.4c1.3,0,1.7,0.9,1.7,1.8v1.6c0,0.4,0,0.7,0.1,1
			L472.7,326.3L472.7,326.3z M472.5,324.1c-0.9,0-1.8,0.1-1.8,1c0,0.5,0.3,0.8,0.7,0.8c0.6,0,0.9-0.4,1.1-0.7c0-0.1,0-0.2,0-0.3
			V324.1z"/>
		<path class="st0" d="M474.6,319.9h0.8v6.4h-0.8V319.9z"/>
		<path class="st0" d="M480.6,324.1c0,1.6-1.1,2.3-2.2,2.3c-1.2,0-2.1-0.9-2.1-2.2c0-1.5,1-2.3,2.2-2.3
			C479.8,321.8,480.6,322.7,480.6,324.1z M477.2,324.1c0,1,0.5,1.7,1.3,1.7c0.8,0,1.3-0.7,1.3-1.7c0-0.7-0.4-1.7-1.3-1.7
			S477.2,323.3,477.2,324.1z"/>
		<path class="st0" d="M481.6,323.1c0-0.5,0-0.8,0-1.2h0.7l0,0.7h0c0.2-0.4,0.7-0.8,1.4-0.8c0.6,0,1.5,0.4,1.5,1.9v2.6h-0.8v-2.5
			c0-0.7-0.3-1.3-1-1.3c-0.5,0-0.9,0.4-1.1,0.8c0,0.1-0.1,0.2-0.1,0.4v2.6h-0.8V323.1z"/>
		<path class="st0" d="M455.2,330.7v5.3c0,0.4,0,0.8,0,1.1h-0.7l0-0.8h0c-0.2,0.5-0.8,0.9-1.5,0.9c-1.1,0-1.9-0.9-1.9-2.2
			c0-1.4,0.9-2.3,2-2.3c0.7,0,1.1,0.3,1.3,0.7h0v-2.6L455.2,330.7L455.2,330.7z M454.4,334.5c0-0.1,0-0.2,0-0.3
			c-0.1-0.5-0.5-0.9-1.1-0.9c-0.8,0-1.3,0.7-1.3,1.7c0,0.9,0.4,1.6,1.3,1.6c0.5,0,1-0.4,1.2-0.9c0-0.1,0-0.2,0-0.3L454.4,334.5
			L454.4,334.5z"/>
		<path class="st0" d="M460.1,335.9c0,0.5,0,0.8,0,1.2h-0.7l0-0.7h0c-0.2,0.4-0.7,0.8-1.4,0.8c-0.7,0-1.5-0.4-1.5-1.9v-2.5h0.8v2.4
			c0,0.8,0.3,1.4,1,1.4c0.5,0,0.9-0.4,1-0.7c0-0.1,0.1-0.3,0.1-0.4v-2.7h0.8L460.1,335.9L460.1,335.9z"/>
		<path class="st0" d="M463.3,334.1c0-0.6,0-1,0-1.4h0.7l0,0.7h0c0.3-0.5,0.8-0.8,1.5-0.8c1.1,0,1.8,0.9,1.8,2.2c0,1.6-1,2.3-2,2.3
			c-0.6,0-1.1-0.3-1.3-0.7h0v2.4h-0.8L463.3,334.1L463.3,334.1z M464.1,335.3c0,0.1,0,0.2,0,0.3c0.1,0.5,0.6,0.9,1.2,0.9
			c0.8,0,1.3-0.7,1.3-1.7c0-0.9-0.5-1.6-1.3-1.6c-0.5,0-1,0.4-1.2,1c0,0.1-0.1,0.2-0.1,0.3L464.1,335.3L464.1,335.3z"/>
		<path class="st0" d="M468.9,335c0,1.1,0.7,1.5,1.5,1.5c0.6,0,0.9-0.1,1.2-0.2l0.1,0.6c-0.3,0.1-0.8,0.3-1.4,0.3
			c-1.3,0-2.1-0.9-2.1-2.2s0.8-2.3,2-2.3c1.4,0,1.8,1.2,1.8,2c0,0.2,0,0.3,0,0.4L468.9,335L468.9,335z M471.2,334.5
			c0-0.5-0.2-1.3-1.1-1.3c-0.8,0-1.1,0.7-1.2,1.3H471.2z"/>
		<path class="st0" d="M473,334.1c0-0.5,0-1,0-1.4h0.7l0,0.9h0c0.2-0.6,0.7-1,1.2-1c0.1,0,0.2,0,0.2,0v0.7c-0.1,0-0.2,0-0.3,0
			c-0.6,0-1,0.4-1.1,1c0,0.1,0,0.2,0,0.4v2.3H473L473,334.1L473,334.1z"/>
		<path class="st0" d="M475.8,336.3c0.2,0.2,0.6,0.3,1,0.3c0.6,0,0.8-0.3,0.8-0.6c0-0.4-0.2-0.6-0.8-0.8c-0.8-0.3-1.1-0.7-1.1-1.2
			c0-0.7,0.6-1.3,1.5-1.3c0.4,0,0.8,0.1,1.1,0.3l-0.2,0.6c-0.2-0.1-0.5-0.3-0.9-0.3c-0.5,0-0.7,0.3-0.7,0.6c0,0.4,0.3,0.5,0.8,0.7
			c0.8,0.3,1.1,0.7,1.1,1.3c0,0.8-0.6,1.3-1.6,1.3c-0.5,0-0.9-0.1-1.2-0.3L475.8,336.3z"/>
		<path class="st0" d="M483.4,334.9c0,1.6-1.1,2.3-2.2,2.3c-1.2,0-2.1-0.9-2.1-2.2c0-1.5,1-2.3,2.2-2.3
			C482.6,332.6,483.4,333.5,483.4,334.9z M479.9,334.9c0,1,0.5,1.7,1.3,1.7c0.8,0,1.3-0.7,1.3-1.7c0-0.7-0.4-1.7-1.3-1.7
			S479.9,334.1,479.9,334.9z"/>
		<path class="st0" d="M484.4,333.9c0-0.5,0-0.8,0-1.2h0.7l0,0.7h0c0.2-0.4,0.7-0.8,1.4-0.8c0.6,0,1.5,0.4,1.5,1.9v2.6h-0.8v-2.5
			c0-0.7-0.3-1.3-1-1.3c-0.5,0-0.9,0.4-1.1,0.8c0,0.1-0.1,0.2-0.1,0.4v2.6h-0.8V333.9z"/>
		<path class="st0" d="M489.4,333.9c0-0.5,0-0.8,0-1.2h0.7l0,0.7h0c0.2-0.4,0.7-0.8,1.4-0.8c0.6,0,1.5,0.4,1.5,1.9v2.6h-0.8v-2.5
			c0-0.7-0.3-1.3-1-1.3c-0.5,0-0.9,0.4-1.1,0.8c0,0.1-0.1,0.2-0.1,0.4v2.6h-0.8V333.9z"/>
		<path class="st0" d="M494.8,335c0,1.1,0.7,1.5,1.5,1.5c0.6,0,0.9-0.1,1.2-0.2l0.1,0.6c-0.3,0.1-0.8,0.3-1.4,0.3
			c-1.3,0-2.1-0.9-2.1-2.2s0.8-2.3,2-2.3c1.4,0,1.8,1.2,1.8,2c0,0.2,0,0.3,0,0.4L494.8,335L494.8,335z M497.1,334.5
			c0-0.5-0.2-1.3-1.1-1.3c-0.8,0-1.1,0.7-1.2,1.3H497.1z"/>
		<path class="st0" d="M498.9,330.7h0.8v6.4h-0.8V330.7z"/>
	</g>
</g>
<g>
	<path d="M454.6,401.6h-47c-1.4,0-2.5-1.1-2.5-2.5v-20.2c0-1.4,1.1-2.5,2.5-2.5h47c1.4,0,2.5,1.1,2.5,2.5v20.2
		C457.1,400.5,456,401.6,454.6,401.6z"/>
	<g>
		<path class="st0" d="M418.4,386.1c-0.3,0.1-0.9,0.3-1.6,0.3c-1.7,0-3-1.1-3-3.1c0-1.9,1.3-3.2,3.2-3.2c0.8,0,1.2,0.2,1.4,0.3
			l-0.2,0.6c-0.3-0.1-0.7-0.3-1.2-0.3c-1.4,0-2.4,0.9-2.4,2.5c0,1.5,0.9,2.4,2.3,2.4c0.5,0,1-0.1,1.3-0.3L418.4,386.1z"/>
		<path class="st0" d="M419.4,379.9h0.8v6.4h-0.8V379.9z"/>
		<path class="st0" d="M423.9,386.3l-0.1-0.5h0c-0.2,0.3-0.7,0.6-1.3,0.6c-0.9,0-1.3-0.6-1.3-1.2c0-1.1,0.9-1.6,2.6-1.6v-0.1
			c0-0.4-0.1-1-1-1c-0.4,0-0.8,0.1-1.1,0.3l-0.2-0.5c0.4-0.2,0.9-0.4,1.4-0.4c1.3,0,1.7,0.9,1.7,1.8v1.6c0,0.4,0,0.7,0.1,1
			L423.9,386.3L423.9,386.3z M423.8,384c-0.9,0-1.8,0.1-1.8,1c0,0.5,0.3,0.8,0.7,0.8c0.6,0,0.9-0.4,1.1-0.7c0-0.1,0-0.2,0-0.3V384z"
			/>
		<path class="st0" d="M425.7,385.4c0.2,0.2,0.6,0.3,1,0.3c0.6,0,0.8-0.3,0.8-0.6c0-0.4-0.2-0.6-0.8-0.8c-0.8-0.3-1.1-0.7-1.1-1.2
			c0-0.7,0.6-1.3,1.5-1.3c0.4,0,0.8,0.1,1.1,0.3l-0.2,0.6c-0.2-0.1-0.5-0.3-0.9-0.3c-0.5,0-0.7,0.3-0.7,0.6c0,0.4,0.3,0.5,0.8,0.7
			c0.8,0.3,1.1,0.7,1.1,1.3c0,0.8-0.6,1.3-1.6,1.3c-0.5,0-0.9-0.1-1.2-0.3L425.7,385.4z"/>
		<path class="st0" d="M429.3,385.4c0.2,0.2,0.6,0.3,1,0.3c0.6,0,0.8-0.3,0.8-0.6c0-0.4-0.2-0.6-0.8-0.8c-0.8-0.3-1.1-0.7-1.1-1.2
			c0-0.7,0.6-1.3,1.5-1.3c0.4,0,0.8,0.1,1.1,0.3l-0.2,0.6c-0.2-0.1-0.5-0.3-0.9-0.3c-0.5,0-0.7,0.3-0.7,0.6c0,0.4,0.3,0.5,0.8,0.7
			c0.8,0.3,1.1,0.7,1.1,1.3c0,0.8-0.6,1.3-1.6,1.3c-0.5,0-0.9-0.1-1.2-0.3L429.3,385.4z"/>
		<path class="st0" d="M433.4,384.2c0,1.1,0.7,1.5,1.5,1.5c0.6,0,0.9-0.1,1.2-0.2l0.1,0.6c-0.3,0.1-0.8,0.3-1.4,0.3
			c-1.3,0-2.1-0.9-2.1-2.2s0.8-2.3,2-2.3c1.4,0,1.8,1.2,1.8,2c0,0.2,0,0.3,0,0.4L433.4,384.2L433.4,384.2z M435.7,383.7
			c0-0.5-0.2-1.3-1.1-1.3c-0.8,0-1.1,0.7-1.2,1.3H435.7z"/>
		<path class="st0" d="M443.1,379.9v5.3c0,0.4,0,0.8,0,1.1h-0.7l0-0.8h0c-0.2,0.5-0.8,0.9-1.5,0.9c-1.1,0-1.9-0.9-1.9-2.2
			c0-1.4,0.9-2.3,2-2.3c0.7,0,1.1,0.3,1.3,0.7h0v-2.6L443.1,379.9L443.1,379.9z M442.3,383.7c0-0.1,0-0.2,0-0.3
			c-0.1-0.5-0.5-0.9-1.1-0.9c-0.8,0-1.3,0.7-1.3,1.7c0,0.9,0.4,1.6,1.3,1.6c0.5,0,1-0.4,1.2-0.9c0-0.1,0-0.2,0-0.3V383.7z"/>
		<path class="st0" d="M448.1,385.1c0,0.5,0,0.8,0,1.2h-0.7l0-0.7h0c-0.2,0.4-0.7,0.8-1.4,0.8c-0.7,0-1.5-0.4-1.5-1.9v-2.5h0.8v2.4
			c0,0.8,0.3,1.4,1,1.4c0.5,0,0.9-0.4,1-0.7c0-0.1,0.1-0.3,0.1-0.4v-2.7h0.8L448.1,385.1L448.1,385.1z"/>
		<path class="st0" d="M413.3,397v-0.5l0.6-0.6c1.5-1.4,2.2-2.2,2.2-3.1c0-0.6-0.3-1.1-1.2-1.1c-0.5,0-1,0.3-1.2,0.5l-0.3-0.6
			c0.4-0.3,1-0.6,1.7-0.6c1.3,0,1.8,0.9,1.8,1.7c0,1.1-0.8,2-2,3.1l-0.5,0.4v0h2.6v0.7L413.3,397L413.3,397z"/>
		<path class="st0" d="M419.6,391.9L419.6,391.9l-1,0.5l-0.2-0.6l1.3-0.7h0.7v5.8h-0.8L419.6,391.9L419.6,391.9z"/>
		<path class="st0" d="M423.2,395c0,1.1,0.7,1.5,1.5,1.5c0.6,0,0.9-0.1,1.2-0.2l0.1,0.6c-0.3,0.1-0.8,0.3-1.4,0.3
			c-1.3,0-2.1-0.9-2.1-2.2s0.8-2.3,2-2.3c1.4,0,1.8,1.2,1.8,2c0,0.2,0,0.3,0,0.4L423.2,395L423.2,395z M425.5,394.5
			c0-0.5-0.2-1.3-1.1-1.3c-0.8,0-1.1,0.7-1.2,1.3H425.5z"/>
		<path class="st0" d="M429.1,396.2c0.2,0.2,0.6,0.3,1,0.3c0.6,0,0.8-0.3,0.8-0.6c0-0.4-0.2-0.6-0.8-0.8c-0.8-0.3-1.1-0.7-1.1-1.2
			c0-0.7,0.6-1.3,1.5-1.3c0.4,0,0.8,0.1,1.1,0.3l-0.2,0.6c-0.2-0.1-0.5-0.3-0.9-0.3c-0.5,0-0.7,0.3-0.7,0.6c0,0.4,0.3,0.5,0.8,0.7
			c0.8,0.3,1.1,0.7,1.1,1.3c0,0.8-0.6,1.3-1.6,1.3c-0.5,0-0.9-0.1-1.2-0.3L429.1,396.2z"/>
		<path class="st0" d="M433.6,391.5c0,0.3-0.2,0.5-0.5,0.5c-0.3,0-0.5-0.2-0.5-0.5c0-0.3,0.2-0.5,0.5-0.5
			C433.4,391,433.6,391.2,433.6,391.5z M432.7,397v-4.4h0.8v4.4H432.7z"/>
		<path class="st0" d="M435.3,395c0,1.1,0.7,1.5,1.5,1.5c0.6,0,0.9-0.1,1.2-0.2l0.1,0.6c-0.3,0.1-0.8,0.3-1.4,0.3
			c-1.3,0-2.1-0.9-2.1-2.2s0.8-2.3,2-2.3c1.4,0,1.8,1.2,1.8,2c0,0.2,0,0.3,0,0.4L435.3,395L435.3,395z M437.6,394.5
			c0-0.5-0.2-1.3-1.1-1.3c-0.8,0-1.1,0.7-1.2,1.3H437.6z M436.3,390.8l0.8,1.3h-0.6l-1.1-1.3H436.3z"/>
		<path class="st0" d="M442.4,396.9c-0.2,0.1-0.7,0.3-1.3,0.3c-1.3,0-2.2-0.9-2.2-2.2c0-1.3,0.9-2.3,2.3-2.3c0.5,0,0.9,0.1,1.1,0.2
			l-0.2,0.6c-0.2-0.1-0.5-0.2-0.9-0.2c-1,0-1.5,0.7-1.5,1.6c0,1,0.6,1.6,1.5,1.6c0.4,0,0.7-0.1,1-0.2L442.4,396.9z"/>
		<path class="st0" d="M443.4,390.7h0.8v6.4h-0.8V390.7z"/>
		<path class="st0" d="M445.9,395c0,1.1,0.7,1.5,1.5,1.5c0.6,0,0.9-0.1,1.2-0.2l0.1,0.6c-0.3,0.1-0.8,0.3-1.4,0.3
			c-1.3,0-2.1-0.9-2.1-2.2s0.8-2.3,2-2.3c1.4,0,1.8,1.2,1.8,2c0,0.2,0,0.3,0,0.4L445.9,395L445.9,395z M448.2,394.5
			c0-0.5-0.2-1.3-1.1-1.3c-0.8,0-1.1,0.7-1.2,1.3H448.2z"/>
	</g>
</g>
<g>
	<path d="M320.9,637.1h-41.5c-1.4,0-2.5-1.1-2.5-2.5v-4.8c0-1.4,1.1-2.5,2.5-2.5h41.5c1.4,0,2.5,1.1,2.5,2.5v4.8
		C323.4,636,322.3,637.1,320.9,637.1z"/>
	<g>
		<path class="st0" d="M292.2,630.3h-1.1v-0.4h2.7v0.4h-1.1v3.3h-0.5L292.2,630.3L292.2,630.3z"/>
		<path class="st0" d="M294,632.3c0,0.6,0.4,0.9,0.9,0.9c0.3,0,0.5-0.1,0.7-0.1l0.1,0.3c-0.2,0.1-0.5,0.2-0.9,0.2
			c-0.8,0-1.3-0.5-1.3-1.3s0.5-1.4,1.2-1.4c0.9,0,1.1,0.8,1.1,1.2c0,0.1,0,0.2,0,0.2L294,632.3L294,632.3z M295.4,632
			c0-0.3-0.1-0.8-0.7-0.8c-0.5,0-0.7,0.4-0.7,0.8H295.4z"/>
		<path class="st0" d="M296.5,631.8c0-0.3,0-0.6,0-0.8h0.4l0,0.5h0c0.1-0.4,0.4-0.6,0.7-0.6c0.1,0,0.1,0,0.1,0v0.4c0,0-0.1,0-0.2,0
			c-0.3,0-0.6,0.3-0.6,0.6c0,0.1,0,0.1,0,0.2v1.4h-0.5L296.5,631.8L296.5,631.8z"/>
		<path class="st0" d="M298.3,631.8c0-0.3,0-0.6,0-0.8h0.4l0,0.5h0c0.1-0.4,0.4-0.6,0.7-0.6c0.1,0,0.1,0,0.1,0v0.4c0,0-0.1,0-0.2,0
			c-0.3,0-0.6,0.3-0.6,0.6c0,0.1,0,0.1,0,0.2v1.4h-0.5L298.3,631.8L298.3,631.8z"/>
		<path class="st0" d="M301.5,633.6l0-0.3h0c-0.1,0.2-0.4,0.4-0.8,0.4c-0.5,0-0.8-0.4-0.8-0.8c0-0.6,0.6-1,1.6-1v-0.1
			c0-0.2-0.1-0.6-0.6-0.6c-0.2,0-0.5,0.1-0.7,0.2l-0.1-0.3c0.2-0.1,0.5-0.2,0.9-0.2c0.8,0,1,0.5,1,1.1v1c0,0.2,0,0.5,0,0.6H301.5z
			 M301.4,632.2c-0.5,0-1.1,0.1-1.1,0.6c0,0.3,0.2,0.5,0.4,0.5c0.3,0,0.6-0.2,0.6-0.4c0,0,0-0.1,0-0.2L301.4,632.2L301.4,632.2z"/>
		<path class="st0" d="M302.5,633.1c0.1,0.1,0.4,0.2,0.6,0.2c0.3,0,0.5-0.2,0.5-0.4c0-0.2-0.1-0.4-0.5-0.5c-0.5-0.2-0.7-0.4-0.7-0.7
			c0-0.4,0.3-0.8,0.9-0.8c0.3,0,0.5,0.1,0.6,0.2l-0.1,0.3c-0.1-0.1-0.3-0.2-0.5-0.2c-0.3,0-0.4,0.2-0.4,0.4c0,0.2,0.2,0.3,0.5,0.4
			c0.5,0.2,0.7,0.4,0.7,0.8c0,0.5-0.4,0.8-1,0.8c-0.3,0-0.6-0.1-0.7-0.2L302.5,633.1z"/>
		<path class="st0" d="M304.7,633.1c0.1,0.1,0.4,0.2,0.6,0.2c0.3,0,0.5-0.2,0.5-0.4c0-0.2-0.1-0.4-0.5-0.5c-0.5-0.2-0.7-0.4-0.7-0.7
			c0-0.4,0.3-0.8,0.9-0.8c0.3,0,0.5,0.1,0.6,0.2l-0.1,0.3c-0.1-0.1-0.3-0.2-0.5-0.2c-0.3,0-0.4,0.2-0.4,0.4c0,0.2,0.2,0.3,0.5,0.4
			c0.5,0.2,0.7,0.4,0.7,0.8c0,0.5-0.4,0.8-1,0.8c-0.3,0-0.6-0.1-0.7-0.2L304.7,633.1z"/>
		<path class="st0" d="M307.2,632.3c0,0.6,0.4,0.9,0.9,0.9c0.3,0,0.5-0.1,0.7-0.1l0.1,0.3c-0.2,0.1-0.5,0.2-0.9,0.2
			c-0.8,0-1.3-0.5-1.3-1.3s0.5-1.4,1.2-1.4c0.9,0,1.1,0.8,1.1,1.2c0,0.1,0,0.2,0,0.2L307.2,632.3L307.2,632.3z M308.6,632
			c0-0.3-0.1-0.8-0.7-0.8c-0.5,0-0.7,0.4-0.7,0.8H308.6z"/>
	</g>
</g>
</svg>
