<?xml version="1.0" encoding="utf-8"?>
<!-- Generator: Adobe Illustrator 19.0.1, SVG Export Plug-In . SVG Version: 6.00 Build 0)  -->
<svg version="1.1" id="numeros_locaux" xmlns="http://www.w3.org/2000/svg" xmlns:xlink="http://www.w3.org/1999/xlink" x="0px"
	 y="0px" viewBox="0 0 880.456 857.957" style="enable-background:new 0 0 880.456 857.957;" xml:space="preserve">
<style type="text/css">
	.st0{fill:#383938;}
</style>
<g>
	<g>
		<path class="st0" d="M247.914,451.59c0,0.251-0.06,0.448-0.18,0.59c-0.12,0.144-0.278,0.215-0.475,0.215
			c-0.199,0-0.359-0.071-0.48-0.215c-0.121-0.142-0.181-0.339-0.181-0.59v-0.584c0-0.25,0.06-0.446,0.18-0.59
			c0.12-0.145,0.279-0.217,0.478-0.217c0.197,0,0.356,0.072,0.477,0.217c0.12,0.144,0.181,0.34,0.181,0.59V451.59z M247.499,450.969
			c0-0.141-0.022-0.25-0.065-0.328c-0.044-0.078-0.103-0.117-0.178-0.117c-0.077,0-0.137,0.039-0.179,0.117
			c-0.043,0.078-0.064,0.188-0.064,0.328v0.654c0,0.145,0.021,0.255,0.064,0.332c0.043,0.078,0.104,0.117,0.182,0.117
			c0.075,0,0.134-0.039,0.176-0.117c0.043-0.077,0.064-0.188,0.064-0.332V450.969z"/>
		<path class="st0" d="M249.33,451.57h0.204v0.325h-0.204v0.469h-0.416v-0.469h-0.769l-0.021-0.254l0.788-1.41h0.417V451.57z
			 M248.493,451.57h0.422v-0.771l-0.009-0.002l-0.038,0.086L248.493,451.57z"/>
		<path class="st0" d="M250.703,452.364h-0.415v-1.773l-0.39,0.01v-0.318l0.804-0.082V452.364z"/>
		<path class="st0" d="M252.656,450.555c-0.213,0.263-0.357,0.509-0.433,0.738c-0.076,0.229-0.114,0.499-0.114,0.81v0.261h-0.416
			v-0.261c0-0.3,0.048-0.574,0.144-0.822c0.096-0.249,0.236-0.49,0.42-0.726h-0.967v-0.324h1.365V450.555z"/>
	</g>
</g>
<g>
	<g>
		<path class="st0" d="M209.177,426.421c0,0.251-0.06,0.448-0.18,0.59c-0.12,0.144-0.278,0.215-0.475,0.215
			c-0.199,0-0.359-0.071-0.48-0.215c-0.121-0.142-0.181-0.339-0.181-0.59v-0.584c0-0.25,0.06-0.446,0.18-0.59
			c0.12-0.145,0.279-0.217,0.478-0.217c0.197,0,0.356,0.072,0.477,0.217c0.12,0.144,0.181,0.34,0.181,0.59V426.421z M208.762,425.8
			c0-0.141-0.022-0.25-0.065-0.328c-0.044-0.078-0.103-0.117-0.178-0.117c-0.077,0-0.137,0.039-0.179,0.117
			c-0.043,0.078-0.064,0.188-0.064,0.328v0.654c0,0.145,0.021,0.255,0.064,0.332c0.043,0.078,0.104,0.118,0.182,0.118
			c0.075,0,0.134-0.04,0.176-0.118c0.043-0.077,0.064-0.188,0.064-0.332V425.8z"/>
		<path class="st0" d="M210.593,426.4h0.204v0.325h-0.204v0.469h-0.416v-0.469h-0.769l-0.021-0.254l0.788-1.41h0.417V426.4z
			 M209.755,426.4h0.422v-0.771l-0.009-0.002l-0.038,0.086L209.755,426.4z"/>
		<path class="st0" d="M211.966,427.195h-0.415v-1.774l-0.39,0.01v-0.318l0.804-0.082V427.195z"/>
		<path class="st0" d="M213.918,427.195h-1.307v-0.275l0.59-0.747c0.084-0.112,0.144-0.211,0.181-0.293
			c0.036-0.082,0.055-0.156,0.055-0.224c0-0.093-0.018-0.166-0.054-0.221c-0.036-0.054-0.09-0.081-0.165-0.081
			c-0.077,0-0.137,0.034-0.178,0.104c-0.042,0.068-0.062,0.157-0.062,0.264h-0.406l-0.004-0.008
			c-0.004-0.191,0.054-0.353,0.173-0.484c0.119-0.133,0.278-0.199,0.478-0.199c0.202,0,0.358,0.057,0.469,0.168
			c0.111,0.112,0.167,0.265,0.167,0.457c0,0.13-0.032,0.249-0.096,0.358s-0.171,0.256-0.321,0.438l-0.29,0.42h0.771V427.195z"/>
	</g>
</g>
<g>
	<g>
		<path class="st0" d="M224.93,397.296c0,0.251-0.06,0.448-0.18,0.59c-0.12,0.144-0.278,0.215-0.475,0.215
			c-0.199,0-0.359-0.071-0.48-0.215c-0.121-0.142-0.181-0.339-0.181-0.59v-0.584c0-0.25,0.06-0.446,0.18-0.59
			c0.12-0.145,0.279-0.217,0.478-0.217c0.197,0,0.356,0.072,0.477,0.217c0.12,0.144,0.181,0.34,0.181,0.59V397.296z
			 M224.515,396.675c0-0.141-0.022-0.25-0.065-0.328c-0.044-0.078-0.103-0.117-0.178-0.117c-0.077,0-0.137,0.039-0.179,0.117
			c-0.043,0.078-0.064,0.188-0.064,0.328v0.654c0,0.145,0.021,0.255,0.064,0.332c0.043,0.078,0.104,0.117,0.182,0.117
			c0.075,0,0.134-0.039,0.176-0.117c0.043-0.077,0.064-0.188,0.064-0.332V396.675z"/>
		<path class="st0" d="M226.346,397.275h0.204v0.325h-0.204v0.469h-0.416v-0.469h-0.769l-0.021-0.254l0.788-1.41h0.417V397.275z
			 M225.508,397.275h0.422v-0.771l-0.009-0.002l-0.038,0.086L225.508,397.275z"/>
		<path class="st0" d="M228.079,397.296c0,0.251-0.06,0.448-0.18,0.59c-0.12,0.144-0.278,0.215-0.475,0.215
			c-0.199,0-0.359-0.071-0.48-0.215c-0.121-0.142-0.181-0.339-0.181-0.59v-0.584c0-0.25,0.06-0.446,0.18-0.59
			c0.12-0.145,0.279-0.217,0.478-0.217c0.197,0,0.356,0.072,0.477,0.217c0.12,0.144,0.181,0.34,0.181,0.59V397.296z
			 M227.664,396.675c0-0.141-0.022-0.25-0.065-0.328c-0.044-0.078-0.103-0.117-0.178-0.117c-0.077,0-0.137,0.039-0.179,0.117
			c-0.043,0.078-0.064,0.188-0.064,0.328v0.654c0,0.145,0.021,0.255,0.064,0.332c0.043,0.078,0.104,0.117,0.182,0.117
			c0.075,0,0.134-0.039,0.176-0.117c0.043-0.077,0.064-0.188,0.064-0.332V396.675z"/>
		<path class="st0" d="M229.671,396.261c-0.213,0.263-0.357,0.509-0.433,0.738c-0.076,0.229-0.114,0.499-0.114,0.81v0.261h-0.416
			v-0.261c0-0.3,0.048-0.574,0.144-0.822c0.096-0.249,0.236-0.49,0.42-0.726h-0.967v-0.324h1.365V396.261z"/>
	</g>
</g>
<g>
	<g>
		<path class="st0" d="M207.304,409.848c0,0.134-0.032,0.239-0.096,0.314c-0.064,0.076-0.148,0.114-0.252,0.114
			c-0.106,0-0.191-0.038-0.256-0.114c-0.064-0.076-0.096-0.181-0.096-0.314v-0.312c0-0.132,0.032-0.237,0.096-0.314
			s0.149-0.115,0.254-0.115s0.19,0.039,0.254,0.115c0.064,0.077,0.096,0.182,0.096,0.314V409.848z M207.083,409.517
			c0-0.075-0.012-0.133-0.035-0.175c-0.023-0.042-0.055-0.063-0.095-0.063c-0.041,0-0.073,0.021-0.095,0.063
			c-0.023,0.042-0.034,0.1-0.034,0.175v0.349c0,0.076,0.011,0.135,0.034,0.177s0.055,0.062,0.097,0.062
			c0.04,0,0.071-0.021,0.094-0.062s0.034-0.101,0.034-0.177V409.517z"/>
		<path class="st0" d="M208.058,409.837h0.109v0.173h-0.109v0.25h-0.222v-0.25h-0.41l-0.011-0.135l0.42-0.751h0.222V409.837z
			 M207.612,409.837h0.225v-0.411l-0.004-0.001l-0.021,0.045L207.612,409.837z"/>
		<path class="st0" d="M208.79,410.26h-0.221v-0.945l-0.208,0.006v-0.169l0.429-0.044V410.26z"/>
		<path class="st0" d="M209.804,409.419c0,0.056-0.013,0.106-0.04,0.149s-0.063,0.078-0.109,0.102
			c0.057,0.025,0.102,0.062,0.135,0.109c0.033,0.048,0.049,0.102,0.049,0.164c0,0.105-0.033,0.188-0.1,0.246
			c-0.067,0.058-0.152,0.087-0.256,0.087c-0.108,0-0.197-0.029-0.267-0.088s-0.104-0.141-0.104-0.246
			c0-0.062,0.017-0.116,0.051-0.164c0.034-0.047,0.081-0.084,0.14-0.109c-0.049-0.024-0.087-0.059-0.115-0.102
			c-0.028-0.043-0.042-0.093-0.042-0.149c0-0.1,0.031-0.177,0.093-0.23c0.062-0.054,0.143-0.081,0.242-0.081
			c0.096,0,0.173,0.027,0.233,0.081S209.804,409.318,209.804,409.419z M209.619,409.933c0-0.051-0.013-0.094-0.04-0.126
			s-0.059-0.049-0.097-0.049c-0.043,0-0.079,0.016-0.107,0.049c-0.028,0.033-0.042,0.075-0.042,0.126
			c0,0.053,0.014,0.094,0.042,0.125c0.028,0.031,0.064,0.046,0.108,0.046c0.039,0,0.071-0.016,0.097-0.046
			C209.606,410.027,209.619,409.986,209.619,409.933z M209.583,409.429c0-0.046-0.009-0.082-0.028-0.109
			c-0.018-0.027-0.043-0.041-0.074-0.041c-0.035,0-0.063,0.013-0.083,0.039c-0.02,0.026-0.03,0.063-0.03,0.11
			s0.01,0.085,0.031,0.113c0.021,0.028,0.049,0.042,0.083,0.042c0.031,0,0.055-0.014,0.073-0.042
			C209.574,409.515,209.583,409.477,209.583,409.429z"/>
	</g>
</g>
<g>
	<g>
		<path class="st0" d="M200.463,403.287c0,0.251-0.06,0.448-0.18,0.59c-0.12,0.144-0.278,0.215-0.475,0.215
			c-0.199,0-0.359-0.071-0.48-0.215c-0.121-0.142-0.181-0.339-0.181-0.59v-0.584c0-0.25,0.06-0.446,0.18-0.59
			c0.12-0.145,0.279-0.217,0.478-0.217c0.197,0,0.356,0.072,0.477,0.217c0.12,0.144,0.181,0.34,0.181,0.59V403.287z
			 M200.048,402.666c0-0.141-0.022-0.25-0.065-0.328c-0.044-0.078-0.103-0.117-0.178-0.117c-0.077,0-0.137,0.039-0.179,0.117
			c-0.043,0.078-0.064,0.188-0.064,0.328v0.654c0,0.145,0.021,0.255,0.064,0.332c0.043,0.078,0.104,0.117,0.182,0.117
			c0.075,0,0.134-0.039,0.176-0.117c0.043-0.077,0.064-0.188,0.064-0.332V402.666z"/>
		<path class="st0" d="M201.879,403.266h0.204v0.325h-0.204v0.469h-0.416v-0.469h-0.769l-0.021-0.254l0.788-1.41h0.417V403.266z
			 M201.041,403.266h0.422v-0.771l-0.009-0.002l-0.038,0.086L201.041,403.266z"/>
		<path class="st0" d="M203.612,403.287c0,0.251-0.06,0.448-0.18,0.59c-0.12,0.144-0.278,0.215-0.475,0.215
			c-0.199,0-0.359-0.071-0.48-0.215c-0.121-0.142-0.181-0.339-0.181-0.59v-0.584c0-0.25,0.06-0.446,0.18-0.59
			c0.12-0.145,0.279-0.217,0.478-0.217c0.197,0,0.356,0.072,0.477,0.217c0.12,0.144,0.181,0.34,0.181,0.59V403.287z
			 M203.198,402.666c0-0.141-0.022-0.25-0.065-0.328c-0.044-0.078-0.103-0.117-0.178-0.117c-0.077,0-0.137,0.039-0.179,0.117
			c-0.043,0.078-0.064,0.188-0.064,0.328v0.654c0,0.145,0.021,0.255,0.064,0.332c0.043,0.078,0.104,0.117,0.182,0.117
			c0.075,0,0.134-0.039,0.176-0.117c0.043-0.077,0.064-0.188,0.064-0.332V402.666z"/>
		<path class="st0" d="M204.459,403.769c0.088,0,0.16-0.04,0.217-0.12c0.057-0.079,0.085-0.189,0.085-0.33v-0.146
			c-0.042,0.061-0.091,0.105-0.149,0.135c-0.057,0.031-0.118,0.046-0.182,0.046c-0.177,0-0.316-0.064-0.417-0.194
			c-0.102-0.129-0.152-0.303-0.152-0.521c0-0.211,0.061-0.388,0.183-0.529s0.278-0.213,0.469-0.213c0.194,0,0.354,0.073,0.478,0.218
			c0.124,0.146,0.186,0.347,0.186,0.603v0.578c0,0.242-0.068,0.437-0.204,0.58c-0.136,0.145-0.307,0.217-0.514,0.217
			c-0.066,0-0.135-0.009-0.207-0.024c-0.071-0.017-0.138-0.039-0.199-0.068l0.069-0.3c0.055,0.024,0.108,0.042,0.161,0.053
			C204.334,403.763,204.393,403.769,204.459,403.769z M204.506,403.049c0.056,0,0.105-0.014,0.149-0.041
			c0.043-0.027,0.079-0.063,0.106-0.11v-0.254c0-0.139-0.022-0.243-0.067-0.315s-0.104-0.108-0.179-0.108
			c-0.072,0-0.13,0.041-0.174,0.122c-0.044,0.082-0.066,0.181-0.066,0.296c0,0.123,0.02,0.222,0.059,0.298
			C204.373,403.011,204.431,403.049,204.506,403.049z"/>
	</g>
</g>
<g>
	<g>
		<path class="st0" d="M195.463,388.537c0,0.251-0.06,0.448-0.18,0.59c-0.12,0.144-0.278,0.215-0.475,0.215
			c-0.199,0-0.359-0.071-0.48-0.215c-0.121-0.142-0.181-0.339-0.181-0.59v-0.584c0-0.25,0.06-0.446,0.18-0.59
			c0.12-0.145,0.279-0.217,0.478-0.217c0.197,0,0.356,0.072,0.477,0.217c0.12,0.144,0.181,0.34,0.181,0.59V388.537z
			 M195.048,387.916c0-0.141-0.022-0.25-0.065-0.328c-0.044-0.078-0.103-0.117-0.178-0.117c-0.077,0-0.137,0.039-0.179,0.117
			c-0.043,0.078-0.064,0.188-0.064,0.328v0.654c0,0.145,0.021,0.255,0.064,0.332c0.043,0.078,0.104,0.117,0.182,0.117
			c0.075,0,0.134-0.039,0.176-0.117c0.043-0.077,0.064-0.188,0.064-0.332V387.916z"/>
		<path class="st0" d="M196.879,388.516h0.204v0.325h-0.204v0.469h-0.416v-0.469h-0.769l-0.021-0.254l0.788-1.41h0.417V388.516z
			 M196.041,388.516h0.422v-0.771l-0.009-0.002l-0.038,0.086L196.041,388.516z"/>
		<path class="st0" d="M198.252,389.31h-0.415v-1.773l-0.39,0.01v-0.318l0.804-0.082V389.31z"/>
		<path class="st0" d="M199.827,389.31h-0.415v-1.773l-0.39,0.01v-0.318l0.804-0.082V389.31z"/>
	</g>
</g>
<g>
	<g>
		<path class="st0" d="M301.859,512.84c0,0.251-0.06,0.448-0.18,0.59c-0.12,0.144-0.278,0.215-0.475,0.215
			c-0.199,0-0.359-0.071-0.48-0.215c-0.121-0.142-0.181-0.339-0.181-0.59v-0.584c0-0.25,0.06-0.446,0.18-0.59
			c0.12-0.145,0.279-0.217,0.478-0.217c0.197,0,0.356,0.072,0.477,0.217c0.12,0.144,0.181,0.34,0.181,0.59V512.84z M301.444,512.219
			c0-0.141-0.022-0.25-0.065-0.328c-0.044-0.078-0.103-0.117-0.178-0.117c-0.077,0-0.137,0.039-0.179,0.117
			c-0.043,0.078-0.064,0.188-0.064,0.328v0.654c0,0.145,0.021,0.255,0.064,0.332c0.043,0.078,0.104,0.117,0.182,0.117
			c0.075,0,0.134-0.039,0.176-0.117c0.043-0.077,0.064-0.188,0.064-0.332V512.219z"/>
		<path class="st0" d="M303.275,512.82h0.204v0.325h-0.204v0.469h-0.416v-0.469h-0.769l-0.021-0.254l0.788-1.41h0.417V512.82z
			 M302.437,512.82h0.422v-0.771l-0.009-0.002l-0.038,0.086L302.437,512.82z"/>
		<path class="st0" d="M304.339,512.366c0.084,0,0.147-0.027,0.189-0.081c0.042-0.055,0.063-0.129,0.063-0.226
			c0-0.08-0.022-0.148-0.066-0.203s-0.104-0.082-0.182-0.082c-0.063,0-0.117,0.024-0.16,0.072s-0.064,0.11-0.064,0.188h-0.404
			l-0.003-0.01c-0.005-0.167,0.054-0.305,0.177-0.412s0.274-0.162,0.454-0.162c0.202,0,0.363,0.053,0.484,0.157
			c0.12,0.104,0.181,0.253,0.181,0.446c0,0.1-0.026,0.189-0.079,0.271s-0.125,0.146-0.215,0.191
			c0.103,0.043,0.182,0.106,0.238,0.192s0.084,0.19,0.084,0.312c0,0.195-0.065,0.348-0.196,0.458c-0.13,0.111-0.297,0.167-0.5,0.167
			c-0.177,0-0.331-0.053-0.463-0.158c-0.132-0.104-0.195-0.254-0.19-0.449l0.003-0.008h0.403c0,0.083,0.023,0.152,0.07,0.208
			c0.047,0.057,0.106,0.085,0.177,0.085c0.084,0,0.152-0.029,0.204-0.087s0.078-0.131,0.078-0.222c0-0.114-0.024-0.199-0.072-0.254
			c-0.049-0.054-0.119-0.081-0.21-0.081h-0.215v-0.313H304.339z"/>
		<path class="st0" d="M306.583,512.84c0,0.251-0.06,0.448-0.18,0.59c-0.12,0.144-0.278,0.215-0.475,0.215
			c-0.199,0-0.359-0.071-0.48-0.215c-0.121-0.142-0.181-0.339-0.181-0.59v-0.584c0-0.25,0.06-0.446,0.18-0.59
			c0.12-0.145,0.279-0.217,0.478-0.217c0.197,0,0.356,0.072,0.477,0.217c0.12,0.144,0.181,0.34,0.181,0.59V512.84z M306.168,512.219
			c0-0.141-0.022-0.25-0.065-0.328c-0.044-0.078-0.103-0.117-0.178-0.117c-0.077,0-0.137,0.039-0.179,0.117
			c-0.043,0.078-0.064,0.188-0.064,0.328v0.654c0,0.145,0.021,0.255,0.064,0.332c0.043,0.078,0.104,0.117,0.182,0.117
			c0.075,0,0.134-0.039,0.176-0.117c0.043-0.077,0.064-0.188,0.064-0.332V512.219z"/>
	</g>
</g>
<g>
	<g>
		<path class="st0" d="M245.734,549.026c0,0.251-0.06,0.448-0.18,0.59c-0.12,0.144-0.278,0.215-0.475,0.215
			c-0.199,0-0.359-0.071-0.48-0.215c-0.121-0.142-0.181-0.339-0.181-0.59v-0.584c0-0.25,0.06-0.446,0.18-0.59
			c0.12-0.145,0.279-0.217,0.478-0.217c0.197,0,0.356,0.072,0.477,0.217c0.12,0.144,0.181,0.34,0.181,0.59V549.026z
			 M245.319,548.405c0-0.141-0.022-0.25-0.065-0.328c-0.044-0.078-0.103-0.117-0.178-0.117c-0.077,0-0.137,0.039-0.179,0.117
			c-0.043,0.078-0.064,0.188-0.064,0.328v0.654c0,0.145,0.021,0.255,0.064,0.332c0.043,0.078,0.104,0.117,0.182,0.117
			c0.075,0,0.134-0.039,0.176-0.117c0.043-0.077,0.064-0.188,0.064-0.332V548.405z"/>
		<path class="st0" d="M247.15,549.005h0.204v0.325h-0.204v0.469h-0.416v-0.469h-0.769l-0.021-0.254l0.788-1.41h0.417V549.005z
			 M246.312,549.005h0.422v-0.771l-0.009-0.002l-0.038,0.086L246.312,549.005z"/>
		<path class="st0" d="M248.883,549.026c0,0.251-0.06,0.448-0.18,0.59c-0.12,0.144-0.278,0.215-0.475,0.215
			c-0.199,0-0.359-0.071-0.48-0.215c-0.121-0.142-0.181-0.339-0.181-0.59v-0.584c0-0.25,0.06-0.446,0.18-0.59
			c0.12-0.145,0.279-0.217,0.478-0.217c0.197,0,0.356,0.072,0.477,0.217c0.12,0.144,0.181,0.34,0.181,0.59V549.026z
			 M248.469,548.405c0-0.141-0.022-0.25-0.065-0.328c-0.044-0.078-0.103-0.117-0.178-0.117c-0.077,0-0.137,0.039-0.179,0.117
			c-0.043,0.078-0.064,0.188-0.064,0.328v0.654c0,0.145,0.021,0.255,0.064,0.332c0.043,0.078,0.104,0.117,0.182,0.117
			c0.075,0,0.134-0.039,0.176-0.117c0.043-0.077,0.064-0.188,0.064-0.332V548.405z"/>
		<path class="st0" d="M250.098,549.799h-0.415v-1.773l-0.39,0.01v-0.318l0.804-0.082V549.799z"/>
	</g>
</g>
<g>
	<g>
		<path class="st0" d="M245.734,529.526c0,0.251-0.06,0.448-0.18,0.59c-0.12,0.144-0.278,0.215-0.475,0.215
			c-0.199,0-0.359-0.071-0.48-0.215c-0.121-0.142-0.181-0.339-0.181-0.59v-0.584c0-0.25,0.06-0.446,0.18-0.59
			c0.12-0.145,0.279-0.217,0.478-0.217c0.197,0,0.356,0.072,0.477,0.217c0.12,0.144,0.181,0.34,0.181,0.59V529.526z
			 M245.319,528.905c0-0.141-0.022-0.25-0.065-0.328c-0.044-0.078-0.103-0.117-0.178-0.117c-0.077,0-0.137,0.039-0.179,0.117
			c-0.043,0.078-0.064,0.188-0.064,0.328v0.654c0,0.145,0.021,0.255,0.064,0.332c0.043,0.078,0.104,0.117,0.182,0.117
			c0.075,0,0.134-0.039,0.176-0.117c0.043-0.077,0.064-0.188,0.064-0.332V528.905z"/>
		<path class="st0" d="M247.15,529.505h0.204v0.325h-0.204v0.469h-0.416v-0.469h-0.769l-0.021-0.254l0.788-1.41h0.417V529.505z
			 M246.312,529.505h0.422v-0.771l-0.009-0.002l-0.038,0.086L246.312,529.505z"/>
		<path class="st0" d="M248.883,529.526c0,0.251-0.06,0.448-0.18,0.59c-0.12,0.144-0.278,0.215-0.475,0.215
			c-0.199,0-0.359-0.071-0.48-0.215c-0.121-0.142-0.181-0.339-0.181-0.59v-0.584c0-0.25,0.06-0.446,0.18-0.59
			c0.12-0.145,0.279-0.217,0.478-0.217c0.197,0,0.356,0.072,0.477,0.217c0.12,0.144,0.181,0.34,0.181,0.59V529.526z
			 M248.469,528.905c0-0.141-0.022-0.25-0.065-0.328c-0.044-0.078-0.103-0.117-0.178-0.117c-0.077,0-0.137,0.039-0.179,0.117
			c-0.043,0.078-0.064,0.188-0.064,0.328v0.654c0,0.145,0.021,0.255,0.064,0.332c0.043,0.078,0.104,0.117,0.182,0.117
			c0.075,0,0.134-0.039,0.176-0.117c0.043-0.077,0.064-0.188,0.064-0.332V528.905z"/>
		<path class="st0" d="M250.475,530.299h-1.307v-0.275l0.59-0.746c0.084-0.112,0.144-0.211,0.181-0.293
			c0.036-0.082,0.055-0.156,0.055-0.224c0-0.093-0.018-0.166-0.054-0.221c-0.036-0.054-0.09-0.081-0.165-0.081
			c-0.077,0-0.137,0.034-0.178,0.104c-0.042,0.068-0.062,0.157-0.062,0.264h-0.406l-0.004-0.008
			c-0.004-0.191,0.054-0.353,0.173-0.484c0.119-0.133,0.278-0.199,0.478-0.199c0.202,0,0.358,0.057,0.469,0.168
			c0.111,0.112,0.167,0.265,0.167,0.457c0,0.13-0.032,0.249-0.096,0.358s-0.171,0.256-0.321,0.438l-0.29,0.42h0.771V530.299z"/>
	</g>
</g>
<g>
	<g>
		<path class="st0" d="M233.859,534.276c0,0.251-0.06,0.448-0.18,0.59c-0.12,0.144-0.278,0.215-0.475,0.215
			c-0.199,0-0.359-0.071-0.48-0.215c-0.121-0.142-0.181-0.339-0.181-0.59v-0.584c0-0.25,0.06-0.446,0.18-0.59
			c0.12-0.145,0.279-0.217,0.478-0.217c0.197,0,0.356,0.072,0.477,0.217c0.12,0.144,0.181,0.34,0.181,0.59V534.276z
			 M233.444,533.655c0-0.141-0.022-0.25-0.065-0.328c-0.044-0.078-0.103-0.117-0.178-0.117c-0.077,0-0.137,0.039-0.179,0.117
			c-0.043,0.078-0.064,0.188-0.064,0.328v0.654c0,0.145,0.021,0.255,0.064,0.332c0.043,0.078,0.104,0.117,0.182,0.117
			c0.075,0,0.134-0.039,0.176-0.117c0.043-0.077,0.064-0.188,0.064-0.332V533.655z"/>
		<path class="st0" d="M235.275,534.255h0.204v0.325h-0.204v0.469h-0.416v-0.469h-0.769l-0.021-0.254l0.788-1.41h0.417V534.255z
			 M234.437,534.255h0.422v-0.771l-0.009-0.002l-0.038,0.086L234.437,534.255z"/>
		<path class="st0" d="M237.008,534.276c0,0.251-0.06,0.448-0.18,0.59c-0.12,0.144-0.278,0.215-0.475,0.215
			c-0.199,0-0.359-0.071-0.48-0.215c-0.121-0.142-0.181-0.339-0.181-0.59v-0.584c0-0.25,0.06-0.446,0.18-0.59
			c0.12-0.145,0.279-0.217,0.478-0.217c0.197,0,0.356,0.072,0.477,0.217c0.12,0.144,0.181,0.34,0.181,0.59V534.276z
			 M236.594,533.655c0-0.141-0.022-0.25-0.065-0.328c-0.044-0.078-0.103-0.117-0.178-0.117c-0.077,0-0.137,0.039-0.179,0.117
			c-0.043,0.078-0.064,0.188-0.064,0.328v0.654c0,0.145,0.021,0.255,0.064,0.332c0.043,0.078,0.104,0.117,0.182,0.117
			c0.075,0,0.134-0.039,0.176-0.117c0.043-0.077,0.064-0.188,0.064-0.332V533.655z"/>
		<path class="st0" d="M238.038,532.885c0.075,0,0.144,0.008,0.206,0.023c0.062,0.015,0.125,0.038,0.189,0.068l-0.072,0.306
			c-0.057-0.022-0.109-0.039-0.156-0.051c-0.048-0.011-0.103-0.017-0.165-0.017c-0.109,0-0.198,0.048-0.265,0.143
			c-0.067,0.096-0.101,0.23-0.101,0.404v0.064c0.05-0.054,0.109-0.096,0.18-0.125c0.069-0.029,0.148-0.044,0.235-0.044
			c0.164,0,0.292,0.065,0.382,0.194c0.091,0.131,0.136,0.301,0.136,0.512s-0.061,0.383-0.182,0.517c-0.122,0.133-0.28,0.2-0.474,0.2
			c-0.204,0-0.37-0.076-0.498-0.228s-0.192-0.358-0.192-0.621v-0.462c0-0.27,0.073-0.483,0.218-0.645
			C237.625,532.966,237.811,532.885,238.038,532.885z M237.949,533.975c-0.064,0-0.12,0.012-0.166,0.035
			c-0.046,0.022-0.082,0.055-0.108,0.096v0.132c0,0.165,0.025,0.293,0.075,0.384s0.118,0.137,0.202,0.137
			c0.073,0,0.132-0.038,0.176-0.113s0.066-0.169,0.066-0.281c0-0.121-0.022-0.216-0.066-0.285
			C238.082,534.01,238.023,533.975,237.949,533.975z"/>
	</g>
</g>
<g>
	<g>
		<path class="st0" d="M226.984,517.151c0,0.251-0.06,0.448-0.18,0.59c-0.12,0.144-0.278,0.215-0.475,0.215
			c-0.199,0-0.359-0.071-0.48-0.215c-0.121-0.142-0.181-0.339-0.181-0.59v-0.584c0-0.25,0.06-0.446,0.18-0.59
			c0.12-0.145,0.279-0.217,0.478-0.217c0.197,0,0.356,0.072,0.477,0.217c0.12,0.144,0.181,0.34,0.181,0.59V517.151z M226.569,516.53
			c0-0.141-0.022-0.25-0.065-0.328c-0.044-0.078-0.103-0.117-0.178-0.117c-0.077,0-0.137,0.039-0.179,0.117
			c-0.043,0.078-0.064,0.188-0.064,0.328v0.654c0,0.145,0.021,0.255,0.064,0.332c0.043,0.078,0.104,0.117,0.182,0.117
			c0.075,0,0.134-0.039,0.176-0.117c0.043-0.077,0.064-0.188,0.064-0.332V516.53z"/>
		<path class="st0" d="M228.4,517.13h0.204v0.325H228.4v0.469h-0.416v-0.469h-0.769l-0.021-0.254l0.788-1.41h0.417V517.13z
			 M227.562,517.13h0.422v-0.771l-0.009-0.002l-0.038,0.086L227.562,517.13z"/>
		<path class="st0" d="M230.133,517.151c0,0.251-0.06,0.448-0.18,0.59c-0.12,0.144-0.278,0.215-0.475,0.215
			c-0.199,0-0.359-0.071-0.48-0.215c-0.121-0.142-0.181-0.339-0.181-0.59v-0.584c0-0.25,0.06-0.446,0.18-0.59
			c0.12-0.145,0.279-0.217,0.478-0.217c0.197,0,0.356,0.072,0.477,0.217c0.12,0.144,0.181,0.34,0.181,0.59V517.151z M229.719,516.53
			c0-0.141-0.022-0.25-0.065-0.328c-0.044-0.078-0.103-0.117-0.178-0.117c-0.077,0-0.137,0.039-0.179,0.117
			c-0.043,0.078-0.064,0.188-0.064,0.328v0.654c0,0.145,0.021,0.255,0.064,0.332c0.043,0.078,0.104,0.117,0.182,0.117
			c0.075,0,0.134-0.039,0.176-0.117c0.043-0.077,0.064-0.188,0.064-0.332V516.53z"/>
		<path class="st0" d="M231.038,516.676c0.084,0,0.147-0.027,0.189-0.081c0.042-0.055,0.063-0.129,0.063-0.226
			c0-0.08-0.022-0.148-0.066-0.203s-0.104-0.082-0.182-0.082c-0.063,0-0.117,0.024-0.16,0.072s-0.064,0.11-0.064,0.188h-0.404
			l-0.003-0.01c-0.005-0.167,0.054-0.305,0.177-0.412s0.274-0.162,0.454-0.162c0.202,0,0.363,0.053,0.484,0.157
			c0.12,0.104,0.181,0.253,0.181,0.446c0,0.1-0.026,0.189-0.079,0.271s-0.125,0.146-0.215,0.191
			c0.103,0.043,0.182,0.106,0.238,0.192s0.084,0.19,0.084,0.312c0,0.195-0.065,0.348-0.196,0.458c-0.13,0.111-0.297,0.167-0.5,0.167
			c-0.177,0-0.331-0.053-0.463-0.158c-0.132-0.104-0.195-0.254-0.19-0.449l0.003-0.008h0.403c0,0.083,0.023,0.152,0.07,0.208
			c0.047,0.057,0.106,0.085,0.177,0.085c0.084,0,0.152-0.029,0.204-0.087s0.078-0.131,0.078-0.222c0-0.114-0.024-0.199-0.072-0.254
			c-0.049-0.054-0.119-0.081-0.21-0.081h-0.215v-0.313H231.038z"/>
	</g>
</g>
<g>
	<g>
		<path class="st0" d="M213.234,492.893c0,0.251-0.06,0.448-0.18,0.59c-0.12,0.144-0.278,0.215-0.475,0.215
			c-0.199,0-0.359-0.071-0.48-0.215c-0.121-0.142-0.181-0.339-0.181-0.59v-0.584c0-0.25,0.06-0.446,0.18-0.59
			c0.12-0.145,0.279-0.217,0.478-0.217c0.197,0,0.356,0.072,0.477,0.217c0.12,0.144,0.181,0.34,0.181,0.59V492.893z
			 M212.819,492.272c0-0.141-0.022-0.25-0.065-0.328c-0.044-0.078-0.103-0.117-0.178-0.117c-0.077,0-0.137,0.039-0.179,0.117
			c-0.043,0.078-0.064,0.188-0.064,0.328v0.654c0,0.145,0.021,0.255,0.064,0.332c0.043,0.078,0.104,0.117,0.182,0.117
			c0.075,0,0.134-0.039,0.176-0.117c0.043-0.077,0.064-0.188,0.064-0.332V492.272z"/>
		<path class="st0" d="M214.65,492.873h0.204v0.325h-0.204v0.469h-0.416v-0.469h-0.769l-0.021-0.254l0.788-1.41h0.417V492.873z
			 M213.812,492.873h0.422v-0.771l-0.009-0.002l-0.038,0.086L213.812,492.873z"/>
		<path class="st0" d="M216.383,492.893c0,0.251-0.06,0.448-0.18,0.59c-0.12,0.144-0.278,0.215-0.475,0.215
			c-0.199,0-0.359-0.071-0.48-0.215c-0.121-0.142-0.181-0.339-0.181-0.59v-0.584c0-0.25,0.06-0.446,0.18-0.59
			c0.12-0.145,0.279-0.217,0.478-0.217c0.197,0,0.356,0.072,0.477,0.217c0.12,0.144,0.181,0.34,0.181,0.59V492.893z
			 M215.969,492.272c0-0.141-0.022-0.25-0.065-0.328c-0.044-0.078-0.103-0.117-0.178-0.117c-0.077,0-0.137,0.039-0.179,0.117
			c-0.043,0.078-0.064,0.188-0.064,0.328v0.654c0,0.145,0.021,0.255,0.064,0.332c0.043,0.078,0.104,0.117,0.182,0.117
			c0.075,0,0.134-0.039,0.176-0.117c0.043-0.077,0.064-0.188,0.064-0.332V492.272z"/>
		<path class="st0" d="M217.8,492.873h0.204v0.325H217.8v0.469h-0.416v-0.469h-0.769l-0.021-0.254l0.788-1.41h0.417V492.873z
			 M216.962,492.873h0.422v-0.771l-0.009-0.002l-0.038,0.086L216.962,492.873z"/>
	</g>
</g>
<g>
	<g>
		<path class="st0" d="M197.734,469.518c0,0.251-0.06,0.448-0.18,0.59c-0.12,0.144-0.278,0.215-0.475,0.215
			c-0.199,0-0.359-0.071-0.48-0.215c-0.121-0.142-0.181-0.339-0.181-0.59v-0.584c0-0.25,0.06-0.446,0.18-0.59
			c0.12-0.145,0.279-0.217,0.478-0.217c0.197,0,0.356,0.072,0.477,0.217c0.12,0.144,0.181,0.34,0.181,0.59V469.518z
			 M197.319,468.897c0-0.141-0.022-0.25-0.065-0.328c-0.044-0.078-0.103-0.117-0.178-0.117c-0.077,0-0.137,0.039-0.179,0.117
			c-0.043,0.078-0.064,0.188-0.064,0.328v0.654c0,0.145,0.021,0.255,0.064,0.332c0.043,0.078,0.104,0.117,0.182,0.117
			c0.075,0,0.134-0.039,0.176-0.117c0.043-0.077,0.064-0.188,0.064-0.332V468.897z"/>
		<path class="st0" d="M199.15,469.498h0.204v0.325h-0.204v0.469h-0.416v-0.469h-0.769l-0.021-0.254l0.788-1.41h0.417V469.498z
			 M198.312,469.498h0.422v-0.771l-0.009-0.002l-0.038,0.086L198.312,469.498z"/>
		<path class="st0" d="M200.901,470.292h-1.307v-0.275l0.59-0.746c0.084-0.112,0.144-0.211,0.181-0.293
			c0.036-0.082,0.055-0.156,0.055-0.224c0-0.093-0.018-0.166-0.054-0.221c-0.036-0.054-0.09-0.081-0.165-0.081
			c-0.077,0-0.137,0.034-0.178,0.104c-0.042,0.068-0.062,0.157-0.062,0.264h-0.406l-0.004-0.008
			c-0.004-0.191,0.054-0.353,0.173-0.484c0.119-0.133,0.278-0.199,0.478-0.199c0.202,0,0.358,0.057,0.469,0.168
			c0.111,0.112,0.167,0.265,0.167,0.457c0,0.13-0.032,0.249-0.096,0.358s-0.171,0.256-0.321,0.438l-0.29,0.42h0.771V470.292z"/>
		<path class="st0" d="M202.475,470.292h-1.307v-0.275l0.59-0.746c0.084-0.112,0.144-0.211,0.181-0.293
			c0.036-0.082,0.055-0.156,0.055-0.224c0-0.093-0.018-0.166-0.054-0.221c-0.036-0.054-0.09-0.081-0.165-0.081
			c-0.077,0-0.137,0.034-0.178,0.104c-0.042,0.068-0.062,0.157-0.062,0.264h-0.406l-0.004-0.008
			c-0.004-0.191,0.054-0.353,0.173-0.484c0.119-0.133,0.278-0.199,0.478-0.199c0.202,0,0.358,0.057,0.469,0.168
			c0.111,0.112,0.167,0.265,0.167,0.457c0,0.13-0.032,0.249-0.096,0.358s-0.171,0.256-0.321,0.438l-0.29,0.42h0.771V470.292z"/>
	</g>
</g>
<g>
	<g>
		<path class="st0" d="M187.922,454.518c0,0.251-0.06,0.448-0.18,0.59c-0.12,0.144-0.278,0.215-0.475,0.215
			c-0.199,0-0.359-0.071-0.48-0.215c-0.121-0.142-0.181-0.339-0.181-0.59v-0.584c0-0.25,0.06-0.446,0.18-0.59
			c0.12-0.145,0.279-0.217,0.478-0.217c0.197,0,0.356,0.072,0.477,0.217c0.12,0.144,0.181,0.34,0.181,0.59V454.518z
			 M187.507,453.897c0-0.141-0.022-0.25-0.065-0.328c-0.044-0.078-0.103-0.117-0.178-0.117c-0.077,0-0.137,0.039-0.179,0.117
			c-0.043,0.078-0.064,0.188-0.064,0.328v0.654c0,0.145,0.021,0.255,0.064,0.332c0.043,0.078,0.104,0.117,0.182,0.117
			c0.075,0,0.134-0.039,0.176-0.117c0.043-0.077,0.064-0.188,0.064-0.332V453.897z"/>
		<path class="st0" d="M189.338,454.498h0.204v0.325h-0.204v0.469h-0.416v-0.469h-0.769l-0.021-0.254l0.788-1.41h0.417V454.498z
			 M188.5,454.498h0.422v-0.771l-0.009-0.002l-0.038,0.086L188.5,454.498z"/>
		<path class="st0" d="M191.089,455.292h-1.307v-0.275l0.59-0.746c0.084-0.112,0.144-0.211,0.181-0.293
			c0.036-0.082,0.055-0.156,0.055-0.224c0-0.093-0.018-0.166-0.054-0.221c-0.036-0.054-0.09-0.081-0.165-0.081
			c-0.077,0-0.137,0.034-0.178,0.104c-0.042,0.068-0.062,0.157-0.062,0.264h-0.406l-0.004-0.008
			c-0.004-0.191,0.054-0.353,0.173-0.484c0.119-0.133,0.278-0.199,0.478-0.199c0.202,0,0.358,0.057,0.469,0.168
			c0.111,0.112,0.167,0.265,0.167,0.457c0,0.13-0.032,0.249-0.096,0.358s-0.171,0.256-0.321,0.438l-0.29,0.42h0.771V455.292z"/>
		<path class="st0" d="M192.646,454.518c0,0.251-0.06,0.448-0.18,0.59c-0.12,0.144-0.278,0.215-0.475,0.215
			c-0.199,0-0.359-0.071-0.48-0.215c-0.121-0.142-0.181-0.339-0.181-0.59v-0.584c0-0.25,0.06-0.446,0.18-0.59
			c0.12-0.145,0.279-0.217,0.478-0.217c0.197,0,0.356,0.072,0.477,0.217c0.12,0.144,0.181,0.34,0.181,0.59V454.518z
			 M192.231,453.897c0-0.141-0.022-0.25-0.065-0.328c-0.044-0.078-0.103-0.117-0.178-0.117c-0.077,0-0.137,0.039-0.179,0.117
			c-0.043,0.078-0.064,0.188-0.064,0.328v0.654c0,0.145,0.021,0.255,0.064,0.332c0.043,0.078,0.104,0.117,0.182,0.117
			c0.075,0,0.134-0.039,0.176-0.117c0.043-0.077,0.064-0.188,0.064-0.332V453.897z"/>
	</g>
</g>
<g>
	<g>
		<path class="st0" d="M180.922,442.643c0,0.251-0.06,0.448-0.18,0.59c-0.12,0.144-0.278,0.215-0.475,0.215
			c-0.199,0-0.359-0.071-0.48-0.215c-0.121-0.142-0.181-0.339-0.181-0.59v-0.584c0-0.25,0.06-0.446,0.18-0.59
			c0.12-0.145,0.279-0.217,0.478-0.217c0.197,0,0.356,0.072,0.477,0.217c0.12,0.144,0.181,0.34,0.181,0.59V442.643z
			 M180.507,442.022c0-0.141-0.022-0.25-0.065-0.328c-0.044-0.078-0.103-0.117-0.178-0.117c-0.077,0-0.137,0.039-0.179,0.117
			c-0.043,0.078-0.064,0.188-0.064,0.328v0.654c0,0.145,0.021,0.255,0.064,0.332c0.043,0.078,0.104,0.117,0.182,0.117
			c0.075,0,0.134-0.039,0.176-0.117c0.043-0.077,0.064-0.188,0.064-0.332V442.022z"/>
		<path class="st0" d="M182.338,442.623h0.204v0.325h-0.204v0.469h-0.416v-0.469h-0.769l-0.021-0.254l0.788-1.41h0.417V442.623z
			 M181.5,442.623h0.422v-0.771l-0.009-0.002l-0.038,0.086L181.5,442.623z"/>
		<path class="st0" d="M183.711,443.417h-0.415v-1.773l-0.39,0.01v-0.318l0.804-0.082V443.417z"/>
		<path class="st0" d="M184.918,443.126c0.088,0,0.16-0.04,0.217-0.12c0.057-0.079,0.085-0.189,0.085-0.33v-0.146
			c-0.042,0.061-0.091,0.105-0.149,0.135c-0.057,0.031-0.118,0.046-0.182,0.046c-0.177,0-0.316-0.064-0.417-0.194
			c-0.102-0.129-0.152-0.303-0.152-0.521c0-0.211,0.061-0.388,0.183-0.529s0.278-0.213,0.469-0.213c0.194,0,0.354,0.073,0.478,0.218
			c0.124,0.146,0.186,0.347,0.186,0.603v0.578c0,0.242-0.068,0.437-0.204,0.58c-0.136,0.145-0.307,0.217-0.514,0.217
			c-0.066,0-0.135-0.009-0.207-0.024c-0.071-0.017-0.138-0.039-0.199-0.068l0.069-0.3c0.055,0.024,0.108,0.042,0.161,0.053
			C184.793,443.12,184.852,443.126,184.918,443.126z M184.965,442.406c0.056,0,0.105-0.014,0.149-0.041
			c0.043-0.027,0.079-0.063,0.106-0.11v-0.254c0-0.139-0.022-0.243-0.067-0.315s-0.104-0.108-0.179-0.108
			c-0.072,0-0.13,0.041-0.174,0.122c-0.044,0.082-0.066,0.181-0.066,0.296c0,0.123,0.02,0.222,0.059,0.298
			C184.832,442.368,184.89,442.406,184.965,442.406z"/>
	</g>
</g>
<g>
	<g>
		<path class="st0" d="M170.297,428.128c0,0.251-0.06,0.448-0.18,0.59c-0.12,0.144-0.278,0.215-0.475,0.215
			c-0.199,0-0.359-0.071-0.48-0.215c-0.121-0.142-0.181-0.339-0.181-0.59v-0.584c0-0.25,0.06-0.446,0.18-0.59
			c0.12-0.145,0.279-0.217,0.478-0.217c0.197,0,0.356,0.072,0.477,0.217c0.12,0.144,0.181,0.34,0.181,0.59V428.128z
			 M169.882,427.506c0-0.141-0.022-0.25-0.065-0.328c-0.044-0.078-0.103-0.117-0.178-0.117c-0.077,0-0.137,0.039-0.179,0.117
			c-0.043,0.078-0.064,0.188-0.064,0.328v0.654c0,0.145,0.021,0.255,0.064,0.332c0.043,0.078,0.104,0.117,0.182,0.117
			c0.075,0,0.134-0.039,0.176-0.117c0.043-0.077,0.064-0.188,0.064-0.332V427.506z"/>
		<path class="st0" d="M171.713,428.107h0.204v0.325h-0.204v0.469h-0.416v-0.469h-0.769l-0.021-0.254l0.788-1.41h0.417V428.107z
			 M170.875,428.107h0.422v-0.771l-0.009-0.002l-0.038,0.086L170.875,428.107z"/>
		<path class="st0" d="M173.446,428.128c0,0.251-0.06,0.448-0.18,0.59c-0.12,0.144-0.278,0.215-0.475,0.215
			c-0.199,0-0.359-0.071-0.48-0.215c-0.121-0.142-0.181-0.339-0.181-0.59v-0.584c0-0.25,0.06-0.446,0.18-0.59
			c0.12-0.145,0.279-0.217,0.478-0.217c0.197,0,0.356,0.072,0.477,0.217c0.12,0.144,0.181,0.34,0.181,0.59V428.128z
			 M173.032,427.506c0-0.141-0.022-0.25-0.065-0.328c-0.044-0.078-0.103-0.117-0.178-0.117c-0.077,0-0.137,0.039-0.179,0.117
			c-0.043,0.078-0.064,0.188-0.064,0.328v0.654c0,0.145,0.021,0.255,0.064,0.332c0.043,0.078,0.104,0.117,0.182,0.117
			c0.075,0,0.134-0.039,0.176-0.117c0.043-0.077,0.064-0.188,0.064-0.332V427.506z"/>
		<path class="st0" d="M173.758,427.96l0.111-1.191h1.093v0.332h-0.753l-0.051,0.518c0.036-0.03,0.082-0.056,0.135-0.076
			c0.055-0.021,0.112-0.031,0.174-0.033c0.18-0.004,0.318,0.058,0.415,0.183s0.146,0.3,0.146,0.526c0,0.209-0.053,0.38-0.161,0.514
			c-0.106,0.134-0.272,0.201-0.496,0.201c-0.18,0-0.334-0.053-0.463-0.157s-0.191-0.247-0.186-0.428l0.003-0.007l0.401-0.021
			c0,0.093,0.022,0.164,0.067,0.215s0.104,0.076,0.177,0.076c0.085,0,0.146-0.033,0.184-0.1c0.037-0.066,0.056-0.163,0.056-0.291
			c0-0.126-0.021-0.227-0.063-0.301c-0.042-0.073-0.105-0.11-0.19-0.11c-0.067,0-0.119,0.016-0.155,0.047s-0.061,0.074-0.075,0.129
			L173.758,427.96z"/>
	</g>
</g>
<g>
	<g>
		<path class="st0" d="M178.797,395.3c0,0.251-0.06,0.448-0.18,0.59c-0.12,0.144-0.278,0.215-0.475,0.215
			c-0.199,0-0.359-0.071-0.48-0.215c-0.121-0.142-0.181-0.339-0.181-0.59v-0.584c0-0.25,0.06-0.446,0.18-0.59
			c0.12-0.145,0.279-0.217,0.478-0.217c0.197,0,0.356,0.072,0.477,0.217c0.12,0.144,0.181,0.34,0.181,0.59V395.3z M178.382,394.679
			c0-0.141-0.022-0.25-0.065-0.328c-0.044-0.078-0.103-0.117-0.178-0.117c-0.077,0-0.137,0.039-0.179,0.117
			c-0.043,0.078-0.064,0.188-0.064,0.328v0.654c0,0.145,0.021,0.255,0.064,0.332c0.043,0.078,0.104,0.117,0.182,0.117
			c0.075,0,0.134-0.039,0.176-0.117c0.043-0.077,0.064-0.188,0.064-0.332V394.679z"/>
		<path class="st0" d="M180.213,395.279h0.204v0.325h-0.204v0.469h-0.416v-0.469h-0.769l-0.021-0.254l0.788-1.41h0.417V395.279z
			 M179.375,395.279h0.422v-0.771l-0.009-0.002l-0.038,0.086L179.375,395.279z"/>
		<path class="st0" d="M181.946,395.3c0,0.251-0.06,0.448-0.18,0.59c-0.12,0.144-0.278,0.215-0.475,0.215
			c-0.199,0-0.359-0.071-0.48-0.215c-0.121-0.142-0.181-0.339-0.181-0.59v-0.584c0-0.25,0.06-0.446,0.18-0.59
			c0.12-0.145,0.279-0.217,0.478-0.217c0.197,0,0.356,0.072,0.477,0.217c0.12,0.144,0.181,0.34,0.181,0.59V395.3z M181.532,394.679
			c0-0.141-0.022-0.25-0.065-0.328c-0.044-0.078-0.103-0.117-0.178-0.117c-0.077,0-0.137,0.039-0.179,0.117
			c-0.043,0.078-0.064,0.188-0.064,0.328v0.654c0,0.145,0.021,0.255,0.064,0.332c0.043,0.078,0.104,0.117,0.182,0.117
			c0.075,0,0.134-0.039,0.176-0.117c0.043-0.077,0.064-0.188,0.064-0.332V394.679z"/>
		<path class="st0" d="M183.49,394.494c0,0.105-0.025,0.199-0.075,0.28c-0.05,0.082-0.118,0.146-0.205,0.191
			c0.106,0.048,0.19,0.116,0.253,0.206c0.062,0.089,0.093,0.191,0.093,0.307c0,0.198-0.063,0.353-0.188,0.462
			s-0.286,0.164-0.481,0.164c-0.203,0-0.37-0.056-0.501-0.165c-0.131-0.11-0.196-0.264-0.196-0.461c0-0.115,0.032-0.218,0.096-0.307
			c0.063-0.09,0.151-0.158,0.263-0.206c-0.092-0.046-0.164-0.109-0.215-0.191c-0.052-0.081-0.078-0.175-0.078-0.28
			c0-0.188,0.058-0.332,0.175-0.433c0.117-0.102,0.269-0.152,0.455-0.152c0.18,0,0.325,0.051,0.438,0.151
			C183.434,394.161,183.49,394.306,183.49,394.494z M183.141,395.46c0-0.098-0.025-0.176-0.074-0.238
			c-0.05-0.061-0.11-0.092-0.183-0.092c-0.081,0-0.148,0.031-0.201,0.092c-0.053,0.063-0.079,0.141-0.079,0.238
			c0,0.099,0.026,0.177,0.079,0.234c0.053,0.059,0.12,0.088,0.202,0.088c0.073,0,0.134-0.029,0.182-0.088
			C183.118,395.637,183.141,395.559,183.141,395.46z M183.076,394.513c0-0.085-0.018-0.153-0.052-0.204
			c-0.035-0.05-0.081-0.075-0.139-0.075c-0.066,0-0.119,0.024-0.157,0.073s-0.057,0.118-0.057,0.206c0,0.09,0.02,0.16,0.059,0.214
			c0.039,0.053,0.091,0.079,0.157,0.079c0.058,0,0.104-0.025,0.138-0.078S183.076,394.604,183.076,394.513z"/>
	</g>
</g>
<g>
	<g>
		<path class="st0" d="M149.547,395.299c0,0.251-0.06,0.448-0.18,0.59c-0.12,0.144-0.278,0.215-0.475,0.215
			c-0.199,0-0.359-0.071-0.48-0.215c-0.121-0.142-0.181-0.339-0.181-0.59v-0.584c0-0.25,0.06-0.446,0.18-0.59
			c0.12-0.145,0.279-0.217,0.478-0.217c0.197,0,0.356,0.072,0.477,0.217c0.12,0.144,0.181,0.34,0.181,0.59V395.299z
			 M149.132,394.678c0-0.141-0.022-0.25-0.065-0.328c-0.044-0.078-0.103-0.117-0.178-0.117c-0.077,0-0.137,0.039-0.179,0.117
			c-0.043,0.078-0.064,0.188-0.064,0.328v0.654c0,0.145,0.021,0.255,0.064,0.332c0.043,0.078,0.104,0.117,0.182,0.117
			c0.075,0,0.134-0.039,0.176-0.117c0.043-0.077,0.064-0.188,0.064-0.332V394.678z"/>
		<path class="st0" d="M150.452,394.825c0.084,0,0.147-0.027,0.189-0.081c0.042-0.055,0.063-0.129,0.063-0.226
			c0-0.08-0.022-0.148-0.066-0.203s-0.104-0.082-0.182-0.082c-0.063,0-0.117,0.024-0.16,0.072s-0.064,0.11-0.064,0.188h-0.404
			l-0.003-0.01c-0.005-0.167,0.054-0.305,0.177-0.412s0.274-0.162,0.454-0.162c0.202,0,0.363,0.053,0.484,0.157
			c0.12,0.104,0.181,0.253,0.181,0.446c0,0.1-0.026,0.189-0.079,0.271s-0.125,0.146-0.215,0.191
			c0.103,0.043,0.182,0.106,0.238,0.192s0.084,0.19,0.084,0.312c0,0.195-0.065,0.348-0.196,0.458c-0.13,0.111-0.297,0.167-0.5,0.167
			c-0.177,0-0.331-0.053-0.463-0.158c-0.132-0.104-0.195-0.254-0.19-0.449l0.003-0.008h0.403c0,0.083,0.023,0.152,0.07,0.208
			c0.047,0.057,0.106,0.085,0.177,0.085c0.084,0,0.152-0.029,0.204-0.087s0.078-0.131,0.078-0.222c0-0.114-0.024-0.199-0.072-0.254
			c-0.049-0.054-0.119-0.081-0.21-0.081h-0.215v-0.313H150.452z"/>
		<path class="st0" d="M152.538,395.279h0.204v0.325h-0.204v0.469h-0.416v-0.469h-0.769l-0.021-0.254l0.788-1.41h0.417V395.279z
			 M151.7,395.279h0.422v-0.771l-0.009-0.002l-0.038,0.086L151.7,395.279z"/>
		<path class="st0" d="M154.288,396.073h-1.307v-0.275l0.59-0.746c0.084-0.112,0.144-0.211,0.181-0.293
			c0.036-0.082,0.055-0.156,0.055-0.224c0-0.093-0.018-0.166-0.054-0.221c-0.036-0.054-0.09-0.081-0.165-0.081
			c-0.077,0-0.137,0.034-0.178,0.104c-0.042,0.068-0.062,0.157-0.062,0.264h-0.406l-0.004-0.008
			c-0.004-0.191,0.054-0.353,0.173-0.484c0.119-0.133,0.278-0.199,0.478-0.199c0.202,0,0.358,0.057,0.469,0.168
			c0.111,0.112,0.167,0.265,0.167,0.457c0,0.13-0.032,0.249-0.096,0.358s-0.171,0.256-0.321,0.438l-0.29,0.42h0.771V396.073z"/>
	</g>
</g>
<g>
	<g>
		<path class="st0" d="M274.609,503.764c0,0.251-0.06,0.448-0.18,0.59c-0.12,0.144-0.278,0.215-0.475,0.215
			c-0.199,0-0.359-0.071-0.48-0.215c-0.121-0.142-0.181-0.339-0.181-0.59v-0.584c0-0.25,0.06-0.446,0.18-0.59
			c0.12-0.145,0.279-0.217,0.478-0.217c0.197,0,0.356,0.072,0.477,0.217c0.12,0.144,0.181,0.34,0.181,0.59V503.764z
			 M274.194,503.143c0-0.141-0.022-0.25-0.065-0.328c-0.044-0.078-0.103-0.117-0.178-0.117c-0.077,0-0.137,0.039-0.179,0.117
			c-0.043,0.078-0.064,0.188-0.064,0.328v0.654c0,0.145,0.021,0.255,0.064,0.332c0.043,0.078,0.104,0.117,0.182,0.117
			c0.075,0,0.134-0.039,0.176-0.117c0.043-0.077,0.064-0.188,0.064-0.332V503.143z"/>
		<path class="st0" d="M276.025,503.744h0.204v0.325h-0.204v0.469h-0.416v-0.469h-0.769l-0.021-0.254l0.788-1.41h0.417V503.744z
			 M275.187,503.744h0.422v-0.771l-0.009-0.002l-0.038,0.086L275.187,503.744z"/>
		<path class="st0" d="M277.776,504.538h-1.307v-0.275l0.59-0.746c0.084-0.112,0.144-0.211,0.181-0.293
			c0.036-0.082,0.055-0.156,0.055-0.224c0-0.093-0.018-0.166-0.054-0.221c-0.036-0.054-0.09-0.081-0.165-0.081
			c-0.077,0-0.137,0.034-0.178,0.104c-0.042,0.068-0.062,0.157-0.062,0.264h-0.406l-0.004-0.008
			c-0.004-0.191,0.054-0.353,0.173-0.484c0.119-0.133,0.278-0.199,0.478-0.199c0.202,0,0.358,0.057,0.469,0.168
			c0.111,0.112,0.167,0.265,0.167,0.457c0,0.13-0.032,0.249-0.096,0.358s-0.171,0.256-0.321,0.438l-0.29,0.42h0.771V504.538z"/>
		<path class="st0" d="M278.07,503.596l0.111-1.191h1.093v0.332h-0.753l-0.051,0.518c0.036-0.03,0.082-0.056,0.135-0.076
			c0.055-0.021,0.112-0.031,0.174-0.033c0.18-0.004,0.318,0.058,0.415,0.183s0.146,0.3,0.146,0.526c0,0.209-0.053,0.38-0.161,0.514
			c-0.106,0.134-0.272,0.201-0.496,0.201c-0.18,0-0.334-0.053-0.463-0.157s-0.191-0.247-0.186-0.428l0.003-0.007l0.401-0.021
			c0,0.093,0.022,0.164,0.067,0.215s0.104,0.076,0.177,0.076c0.085,0,0.146-0.033,0.184-0.1c0.037-0.066,0.056-0.163,0.056-0.291
			c0-0.126-0.021-0.227-0.063-0.301c-0.042-0.073-0.105-0.11-0.19-0.11c-0.067,0-0.119,0.016-0.155,0.047s-0.061,0.074-0.075,0.129
			L278.07,503.596z"/>
	</g>
</g>
<g>
	<g>
		<path class="st0" d="M263.484,484.118c0,0.251-0.06,0.448-0.18,0.59c-0.12,0.144-0.278,0.215-0.475,0.215
			c-0.199,0-0.359-0.071-0.48-0.215c-0.121-0.142-0.181-0.339-0.181-0.59v-0.584c0-0.25,0.06-0.446,0.18-0.59
			c0.12-0.145,0.279-0.217,0.478-0.217c0.197,0,0.356,0.072,0.477,0.217c0.12,0.144,0.181,0.34,0.181,0.59V484.118z
			 M263.069,483.497c0-0.141-0.022-0.25-0.065-0.328c-0.044-0.078-0.103-0.117-0.178-0.117c-0.077,0-0.137,0.039-0.179,0.117
			c-0.043,0.078-0.064,0.188-0.064,0.328v0.654c0,0.145,0.021,0.255,0.064,0.332c0.043,0.078,0.104,0.117,0.182,0.117
			c0.075,0,0.134-0.039,0.176-0.117c0.043-0.077,0.064-0.188,0.064-0.332V483.497z"/>
		<path class="st0" d="M264.9,484.097h0.204v0.325H264.9v0.469h-0.416v-0.469h-0.769l-0.021-0.254l0.788-1.41h0.417V484.097z
			 M264.062,484.097h0.422v-0.771l-0.009-0.002l-0.038,0.086L264.062,484.097z"/>
		<path class="st0" d="M266.651,484.891h-1.307v-0.275l0.59-0.746c0.084-0.112,0.144-0.211,0.181-0.293
			c0.036-0.082,0.055-0.156,0.055-0.224c0-0.093-0.018-0.166-0.054-0.221c-0.036-0.054-0.09-0.081-0.165-0.081
			c-0.077,0-0.137,0.034-0.178,0.104c-0.042,0.068-0.062,0.157-0.062,0.264h-0.406l-0.004-0.008
			c-0.004-0.191,0.054-0.353,0.173-0.484c0.119-0.133,0.278-0.199,0.478-0.199c0.202,0,0.358,0.057,0.469,0.168
			c0.111,0.112,0.167,0.265,0.167,0.457c0,0.13-0.032,0.249-0.096,0.358s-0.171,0.256-0.321,0.438l-0.29,0.42h0.771V484.891z"/>
		<path class="st0" d="M268.05,484.097h0.204v0.325h-0.204v0.469h-0.416v-0.469h-0.769l-0.021-0.254l0.788-1.41h0.417V484.097z
			 M267.212,484.097h0.422v-0.771l-0.009-0.002l-0.038,0.086L267.212,484.097z"/>
	</g>
</g>
</svg>
