<?xml version="1.0" encoding="utf-8"?>
<!-- Generator: Adobe Illustrator 19.0.1, SVG Export Plug-In . SVG Version: 6.00 Build 0)  -->
<svg version="1.1" id="textes" xmlns="http://www.w3.org/2000/svg" xmlns:xlink="http://www.w3.org/1999/xlink" x="0px" y="0px"
	 viewBox="0 0 880.456 857.957" style="enable-background:new 0 0 880.456 857.957;" xml:space="preserve">
<style type="text/css">
	.st0{fill:#010101;}
	.st1{fill:#FFFFFF;}
</style>
<g>
	<path class="st0" d="M137.205,287.804H87.364c-1.388,0-2.513-1.125-2.513-2.513v-4.784c0-1.388,1.125-2.513,2.513-2.513h49.841
		c1.388,0,2.513,1.125,2.513,2.513v4.784C139.718,286.679,138.593,287.804,137.205,287.804z"/>
	<g>
		<path class="st1" d="M94.592,284.248l-1.192-3.651h0.509l0.569,1.798c0.157,0.493,0.292,0.937,0.39,1.365h0.011
			c0.103-0.423,0.254-0.883,0.417-1.36l0.618-1.804h0.504l-1.306,3.651H94.592z"/>
		<path class="st1" d="M96.881,283.024c0.011,0.645,0.423,0.91,0.899,0.91c0.341,0,0.547-0.06,0.726-0.136l0.081,0.341
			c-0.168,0.076-0.455,0.163-0.872,0.163c-0.807,0-1.289-0.531-1.289-1.322s0.466-1.414,1.229-1.414
			c0.856,0,1.083,0.753,1.083,1.235c0,0.098-0.011,0.173-0.017,0.222H96.881z M98.279,282.683c0.005-0.303-0.125-0.774-0.661-0.774
			c-0.482,0-0.693,0.444-0.731,0.774H98.279z"/>
		<path class="st1" d="M99.263,283.761c0.141,0.092,0.39,0.189,0.628,0.189c0.347,0,0.509-0.173,0.509-0.39
			c0-0.228-0.135-0.352-0.487-0.482c-0.471-0.168-0.693-0.428-0.693-0.742c0-0.422,0.341-0.769,0.905-0.769
			c0.265,0,0.498,0.076,0.645,0.162l-0.119,0.347c-0.103-0.065-0.292-0.151-0.537-0.151c-0.281,0-0.438,0.163-0.438,0.357
			c0,0.217,0.157,0.314,0.498,0.444c0.455,0.173,0.688,0.401,0.688,0.791c0,0.46-0.357,0.786-0.98,0.786
			c-0.287,0-0.552-0.07-0.736-0.179L99.263,283.761z"/>
		<path class="st1" d="M102.045,280.874v0.753h0.683v0.363h-0.683v1.414c0,0.325,0.092,0.509,0.357,0.509
			c0.125,0,0.217-0.016,0.276-0.032l0.021,0.357c-0.092,0.038-0.238,0.065-0.422,0.065c-0.222,0-0.401-0.07-0.515-0.201
			c-0.135-0.141-0.184-0.374-0.184-0.682v-1.43h-0.406v-0.363h0.406v-0.628L102.045,280.874z"/>
		<path class="st1" d="M103.793,280.89c0.005,0.163-0.114,0.292-0.303,0.292c-0.168,0-0.287-0.13-0.287-0.292
			c0-0.168,0.125-0.298,0.298-0.298C103.68,280.592,103.793,280.722,103.793,280.89z M103.263,284.248v-2.622h0.477v2.622H103.263z"
			/>
		<path class="st1" d="M105.981,284.248l-0.038-0.331h-0.016c-0.146,0.206-0.428,0.39-0.802,0.39c-0.531,0-0.802-0.374-0.802-0.753
			c0-0.634,0.563-0.98,1.577-0.975v-0.054c0-0.217-0.06-0.606-0.596-0.606c-0.244,0-0.498,0.076-0.683,0.195l-0.108-0.314
			c0.216-0.141,0.531-0.233,0.861-0.233c0.802,0,0.997,0.547,0.997,1.072v0.98c0,0.228,0.011,0.45,0.043,0.628H105.981z
			 M105.911,282.91c-0.52-0.011-1.11,0.081-1.11,0.59c0,0.309,0.206,0.455,0.449,0.455c0.341,0,0.558-0.217,0.634-0.439
			c0.017-0.049,0.027-0.103,0.027-0.151V282.91z"/>
		<path class="st1" d="M107.669,280.89c0.005,0.163-0.114,0.292-0.303,0.292c-0.168,0-0.287-0.13-0.287-0.292
			c0-0.168,0.125-0.298,0.298-0.298C107.555,280.592,107.669,280.722,107.669,280.89z M107.138,284.248v-2.622h0.477v2.622H107.138z
			"/>
		<path class="st1" d="M108.405,282.444c0-0.309-0.005-0.574-0.022-0.818h0.417l0.016,0.515h0.021
			c0.119-0.353,0.406-0.574,0.726-0.574c0.054,0,0.092,0.005,0.135,0.016v0.45c-0.049-0.011-0.097-0.017-0.163-0.017
			c-0.335,0-0.574,0.255-0.639,0.612c-0.011,0.065-0.021,0.141-0.021,0.222v1.397h-0.471V282.444z"/>
		<path class="st1" d="M110.386,283.024c0.011,0.645,0.423,0.91,0.899,0.91c0.341,0,0.547-0.06,0.726-0.136l0.081,0.341
			c-0.168,0.076-0.455,0.163-0.872,0.163c-0.807,0-1.289-0.531-1.289-1.322s0.466-1.414,1.229-1.414
			c0.856,0,1.083,0.753,1.083,1.235c0,0.098-0.011,0.173-0.017,0.222H110.386z M111.784,282.683
			c0.005-0.303-0.125-0.774-0.661-0.774c-0.482,0-0.693,0.444-0.731,0.774H111.784z"/>
		<path class="st1" d="M113.996,280.597h1.966v0.396h-1.495v1.213h1.381v0.39h-1.381v1.652h-0.471V280.597z"/>
		<path class="st1" d="M116.714,283.024c0.011,0.645,0.423,0.91,0.899,0.91c0.341,0,0.547-0.06,0.726-0.136l0.081,0.341
			c-0.168,0.076-0.455,0.163-0.872,0.163c-0.807,0-1.289-0.531-1.289-1.322s0.466-1.414,1.229-1.414
			c0.856,0,1.083,0.753,1.083,1.235c0,0.098-0.011,0.173-0.017,0.222H116.714z M118.112,282.683
			c0.005-0.303-0.125-0.774-0.661-0.774c-0.482,0-0.693,0.444-0.731,0.774H118.112z"/>
		<path class="st1" d="M119.161,282.336c0-0.271-0.005-0.493-0.022-0.709h0.417l0.021,0.422h0.016
			c0.146-0.249,0.39-0.482,0.824-0.482c0.357,0,0.628,0.216,0.742,0.525h0.011c0.081-0.146,0.184-0.26,0.292-0.341
			c0.157-0.119,0.33-0.184,0.58-0.184c0.347,0,0.861,0.228,0.861,1.137v1.544h-0.466v-1.484c0-0.503-0.185-0.807-0.569-0.807
			c-0.271,0-0.482,0.201-0.563,0.434c-0.021,0.065-0.038,0.151-0.038,0.238v1.62h-0.466v-1.571c0-0.417-0.184-0.721-0.547-0.721
			c-0.298,0-0.515,0.238-0.59,0.477c-0.027,0.07-0.038,0.151-0.038,0.233v1.582h-0.466V282.336z"/>
		<path class="st1" d="M123.675,282.336c0-0.271-0.005-0.493-0.022-0.709h0.417l0.021,0.422h0.016
			c0.146-0.249,0.39-0.482,0.824-0.482c0.357,0,0.628,0.216,0.742,0.525h0.011c0.081-0.146,0.184-0.26,0.292-0.341
			c0.157-0.119,0.33-0.184,0.58-0.184c0.347,0,0.861,0.228,0.861,1.137v1.544h-0.466v-1.484c0-0.503-0.185-0.807-0.569-0.807
			c-0.271,0-0.482,0.201-0.563,0.434c-0.021,0.065-0.038,0.151-0.038,0.238v1.62h-0.466v-1.571c0-0.417-0.184-0.721-0.547-0.721
			c-0.298,0-0.515,0.238-0.59,0.477c-0.027,0.07-0.038,0.151-0.038,0.233v1.582h-0.466V282.336z"/>
		<path class="st1" d="M128.454,283.024c0.011,0.645,0.423,0.91,0.899,0.91c0.341,0,0.547-0.06,0.726-0.136l0.081,0.341
			c-0.168,0.076-0.455,0.163-0.872,0.163c-0.807,0-1.289-0.531-1.289-1.322s0.466-1.414,1.229-1.414
			c0.856,0,1.083,0.753,1.083,1.235c0,0.098-0.011,0.173-0.017,0.222H128.454z M129.852,282.683
			c0.005-0.303-0.125-0.774-0.661-0.774c-0.482,0-0.693,0.444-0.731,0.774H129.852z"/>
		<path class="st1" d="M130.836,283.761c0.141,0.092,0.39,0.189,0.628,0.189c0.347,0,0.509-0.173,0.509-0.39
			c0-0.228-0.135-0.352-0.487-0.482c-0.471-0.168-0.693-0.428-0.693-0.742c0-0.422,0.341-0.769,0.905-0.769
			c0.265,0,0.498,0.076,0.645,0.162l-0.119,0.347c-0.103-0.065-0.292-0.151-0.537-0.151c-0.281,0-0.438,0.163-0.438,0.357
			c0,0.217,0.157,0.314,0.498,0.444c0.455,0.173,0.688,0.401,0.688,0.791c0,0.46-0.357,0.786-0.98,0.786
			c-0.287,0-0.552-0.07-0.736-0.179L130.836,283.761z"/>
	</g>
</g>
<g>
	<path class="st0" d="M174.316,360.579h-49.841c-1.388,0-2.513-1.125-2.513-2.513v-4.784c0-1.388,1.125-2.513,2.513-2.513h49.841
		c1.388,0,2.513,1.125,2.513,2.513v4.784C176.829,359.454,175.704,360.579,174.316,360.579z"/>
	<g>
		<path class="st1" d="M131.042,357.023l-1.192-3.651h0.509l0.569,1.798c0.157,0.493,0.292,0.937,0.39,1.365h0.011
			c0.103-0.423,0.254-0.883,0.417-1.36l0.618-1.804h0.504l-1.306,3.651H131.042z"/>
		<path class="st1" d="M133.331,355.799c0.011,0.645,0.423,0.91,0.899,0.91c0.341,0,0.547-0.06,0.726-0.136l0.081,0.341
			c-0.168,0.076-0.455,0.163-0.872,0.163c-0.807,0-1.289-0.531-1.289-1.322s0.466-1.414,1.229-1.414
			c0.856,0,1.083,0.753,1.083,1.235c0,0.098-0.011,0.173-0.017,0.222H133.331z M134.729,355.458
			c0.005-0.303-0.125-0.774-0.661-0.774c-0.482,0-0.693,0.444-0.731,0.774H134.729z"/>
		<path class="st1" d="M135.713,356.536c0.141,0.092,0.39,0.189,0.628,0.189c0.347,0,0.509-0.173,0.509-0.39
			c0-0.228-0.135-0.352-0.487-0.482c-0.471-0.168-0.693-0.428-0.693-0.742c0-0.422,0.341-0.769,0.905-0.769
			c0.265,0,0.498,0.076,0.645,0.162l-0.119,0.347c-0.103-0.065-0.292-0.151-0.537-0.151c-0.281,0-0.438,0.163-0.438,0.357
			c0,0.217,0.157,0.314,0.498,0.444c0.455,0.173,0.688,0.401,0.688,0.791c0,0.46-0.357,0.786-0.98,0.786
			c-0.287,0-0.552-0.07-0.736-0.179L135.713,356.536z"/>
		<path class="st1" d="M138.496,353.648v0.753h0.683v0.363h-0.683v1.414c0,0.325,0.092,0.509,0.357,0.509
			c0.125,0,0.217-0.016,0.276-0.032l0.021,0.357c-0.092,0.038-0.238,0.065-0.422,0.065c-0.222,0-0.401-0.07-0.515-0.201
			c-0.135-0.141-0.184-0.374-0.184-0.682v-1.43h-0.406v-0.363h0.406v-0.628L138.496,353.648z"/>
		<path class="st1" d="M140.244,353.665c0.005,0.163-0.114,0.292-0.303,0.292c-0.168,0-0.287-0.13-0.287-0.292
			c0-0.168,0.125-0.298,0.298-0.298C140.13,353.367,140.244,353.497,140.244,353.665z M139.713,357.023v-2.622h0.477v2.622H139.713z
			"/>
		<path class="st1" d="M142.432,357.023l-0.038-0.331h-0.016c-0.146,0.206-0.428,0.39-0.802,0.39c-0.531,0-0.802-0.374-0.802-0.753
			c0-0.634,0.563-0.98,1.577-0.975V355.3c0-0.217-0.06-0.606-0.596-0.606c-0.244,0-0.498,0.076-0.683,0.195l-0.108-0.314
			c0.216-0.141,0.531-0.233,0.861-0.233c0.802,0,0.997,0.547,0.997,1.072v0.98c0,0.228,0.011,0.45,0.043,0.628H142.432z
			 M142.361,355.685c-0.52-0.011-1.11,0.081-1.11,0.59c0,0.309,0.206,0.455,0.449,0.455c0.341,0,0.558-0.217,0.634-0.439
			c0.017-0.049,0.027-0.103,0.027-0.151V355.685z"/>
		<path class="st1" d="M144.12,353.665c0.005,0.163-0.114,0.292-0.303,0.292c-0.168,0-0.287-0.13-0.287-0.292
			c0-0.168,0.125-0.298,0.298-0.298C144.006,353.367,144.12,353.497,144.12,353.665z M143.589,357.023v-2.622h0.477v2.622H143.589z"
			/>
		<path class="st1" d="M144.855,355.219c0-0.309-0.005-0.574-0.022-0.818h0.417l0.016,0.515h0.021
			c0.119-0.353,0.406-0.574,0.726-0.574c0.054,0,0.092,0.005,0.135,0.016v0.45c-0.049-0.011-0.097-0.017-0.163-0.017
			c-0.335,0-0.574,0.255-0.639,0.612c-0.011,0.065-0.021,0.141-0.021,0.222v1.397h-0.471V355.219z"/>
		<path class="st1" d="M146.837,355.799c0.011,0.645,0.423,0.91,0.899,0.91c0.341,0,0.547-0.06,0.726-0.136l0.081,0.341
			c-0.168,0.076-0.455,0.163-0.872,0.163c-0.807,0-1.289-0.531-1.289-1.322s0.466-1.414,1.229-1.414
			c0.856,0,1.083,0.753,1.083,1.235c0,0.098-0.011,0.173-0.017,0.222H146.837z M148.235,355.458
			c0.005-0.303-0.125-0.774-0.661-0.774c-0.482,0-0.693,0.444-0.731,0.774H148.235z"/>
		<path class="st1" d="M150.918,353.372v1.527h1.766v-1.527h0.477v3.651h-0.477v-1.712h-1.766v1.712h-0.471v-3.651H150.918z"/>
		<path class="st1" d="M156.333,355.69c0,0.97-0.672,1.392-1.306,1.392c-0.709,0-1.256-0.52-1.256-1.349
			c0-0.878,0.574-1.392,1.3-1.392C155.824,354.342,156.333,354.889,156.333,355.69z M154.253,355.717
			c0,0.574,0.331,1.008,0.796,1.008c0.455,0,0.796-0.428,0.796-1.019c0-0.444-0.222-1.007-0.785-1.007
			S154.253,355.219,154.253,355.717z"/>
		<path class="st1" d="M156.932,355.111c0-0.271-0.005-0.493-0.022-0.709h0.417l0.021,0.422h0.016
			c0.146-0.249,0.39-0.482,0.824-0.482c0.357,0,0.628,0.216,0.742,0.525h0.011c0.081-0.146,0.184-0.26,0.292-0.341
			c0.157-0.119,0.33-0.184,0.58-0.184c0.347,0,0.861,0.228,0.861,1.137v1.544h-0.466v-1.484c0-0.503-0.185-0.807-0.569-0.807
			c-0.271,0-0.482,0.201-0.563,0.434c-0.021,0.065-0.038,0.151-0.038,0.238v1.62h-0.466v-1.571c0-0.417-0.184-0.721-0.547-0.721
			c-0.298,0-0.515,0.238-0.59,0.477c-0.027,0.07-0.038,0.151-0.038,0.233v1.582h-0.466V355.111z"/>
		<path class="st1" d="M161.446,355.111c0-0.271-0.005-0.493-0.022-0.709h0.417l0.021,0.422h0.016
			c0.146-0.249,0.39-0.482,0.824-0.482c0.357,0,0.628,0.216,0.742,0.525h0.011c0.081-0.146,0.184-0.26,0.292-0.341
			c0.157-0.119,0.33-0.184,0.58-0.184c0.347,0,0.861,0.228,0.861,1.137v1.544h-0.466v-1.484c0-0.503-0.185-0.807-0.569-0.807
			c-0.271,0-0.482,0.201-0.563,0.434c-0.021,0.065-0.038,0.151-0.038,0.238v1.62h-0.466v-1.571c0-0.417-0.184-0.721-0.547-0.721
			c-0.298,0-0.515,0.238-0.59,0.477c-0.027,0.07-0.038,0.151-0.038,0.233v1.582h-0.466V355.111z"/>
		<path class="st1" d="M166.225,355.799c0.011,0.645,0.423,0.91,0.899,0.91c0.341,0,0.547-0.06,0.726-0.136l0.081,0.341
			c-0.168,0.076-0.455,0.163-0.872,0.163c-0.807,0-1.289-0.531-1.289-1.322s0.466-1.414,1.229-1.414
			c0.856,0,1.083,0.753,1.083,1.235c0,0.098-0.011,0.173-0.017,0.222H166.225z M167.623,355.458
			c0.005-0.303-0.125-0.774-0.661-0.774c-0.482,0-0.693,0.444-0.731,0.774H167.623z"/>
		<path class="st1" d="M168.607,356.536c0.141,0.092,0.39,0.189,0.628,0.189c0.347,0,0.509-0.173,0.509-0.39
			c0-0.228-0.135-0.352-0.487-0.482c-0.471-0.168-0.693-0.428-0.693-0.742c0-0.422,0.341-0.769,0.905-0.769
			c0.265,0,0.498,0.076,0.645,0.162l-0.119,0.347c-0.103-0.065-0.292-0.151-0.537-0.151c-0.281,0-0.438,0.163-0.438,0.357
			c0,0.217,0.157,0.314,0.498,0.444c0.455,0.173,0.688,0.401,0.688,0.791c0,0.46-0.357,0.786-0.98,0.786
			c-0.287,0-0.552-0.07-0.736-0.179L168.607,356.536z"/>
	</g>
</g>
<g>
	<path class="st0" d="M227.47,260.553h-68.191c-1.388,0-2.513-1.125-2.513-2.513v-11.271c0-1.388,1.125-2.513,2.513-2.513h68.191
		c1.388,0,2.513,1.125,2.513,2.513v11.271C229.983,259.428,228.858,260.553,227.47,260.553z"/>
	<g>
		<path class="st1" d="M180.887,249.058c0.377-0.063,0.872-0.117,1.501-0.117c0.773,0,1.339,0.18,1.698,0.503
			c0.333,0.288,0.53,0.728,0.53,1.267c0,0.548-0.162,0.979-0.467,1.294c-0.413,0.44-1.087,0.665-1.851,0.665
			c-0.234,0-0.45-0.009-0.629-0.054v2.427h-0.782V249.058z M181.668,251.979c0.171,0.045,0.387,0.063,0.647,0.063
			c0.944,0,1.519-0.458,1.519-1.294c0-0.8-0.566-1.187-1.429-1.187c-0.342,0-0.603,0.027-0.737,0.063V251.979z"/>
		<path class="st1" d="M186.38,249.471c0.009,0.27-0.188,0.485-0.503,0.485c-0.279,0-0.477-0.216-0.477-0.485
			c0-0.278,0.207-0.494,0.495-0.494C186.192,248.977,186.38,249.193,186.38,249.471z M185.5,255.044v-4.35h0.791v4.35H185.5z"/>
		<path class="st1" d="M187.496,254.234c0.233,0.153,0.647,0.315,1.042,0.315c0.575,0,0.845-0.288,0.845-0.647
			c0-0.377-0.225-0.584-0.809-0.8c-0.782-0.278-1.15-0.71-1.15-1.231c0-0.701,0.566-1.276,1.5-1.276c0.44,0,0.827,0.126,1.07,0.27
			l-0.198,0.575c-0.171-0.108-0.485-0.251-0.89-0.251c-0.468,0-0.728,0.27-0.728,0.593c0,0.359,0.26,0.521,0.827,0.737
			c0.755,0.288,1.142,0.665,1.142,1.312c0,0.764-0.593,1.303-1.627,1.303c-0.476,0-0.917-0.117-1.222-0.296L187.496,254.234z"/>
		<path class="st1" d="M194.265,254.882c-0.207,0.108-0.665,0.251-1.25,0.251c-1.312,0-2.166-0.89-2.166-2.22
			c0-1.339,0.917-2.31,2.337-2.31c0.467,0,0.881,0.117,1.097,0.225l-0.18,0.611c-0.189-0.108-0.485-0.207-0.917-0.207
			c-0.998,0-1.537,0.737-1.537,1.645c0,1.007,0.647,1.627,1.51,1.627c0.449,0,0.746-0.117,0.971-0.216L194.265,254.882z"/>
		<path class="st1" d="M196.073,249.471c0.009,0.27-0.188,0.485-0.503,0.485c-0.279,0-0.477-0.216-0.477-0.485
			c0-0.278,0.207-0.494,0.495-0.494C195.885,248.977,196.073,249.193,196.073,249.471z M195.193,255.044v-4.35h0.791v4.35H195.193z"
			/>
		<path class="st1" d="M197.297,251.871c0-0.45-0.009-0.818-0.036-1.178h0.701l0.045,0.719h0.018
			c0.215-0.414,0.719-0.818,1.438-0.818c0.602,0,1.537,0.359,1.537,1.852v2.597h-0.791v-2.507c0-0.701-0.26-1.285-1.006-1.285
			c-0.521,0-0.926,0.368-1.061,0.809c-0.036,0.099-0.054,0.234-0.054,0.369v2.615h-0.791V251.871z"/>
		<path class="st1" d="M202.727,253.012c0.018,1.07,0.701,1.51,1.492,1.51c0.566,0,0.908-0.099,1.204-0.225l0.135,0.566
			c-0.279,0.126-0.755,0.27-1.447,0.27c-1.339,0-2.139-0.881-2.139-2.193s0.773-2.346,2.041-2.346c1.42,0,1.797,1.249,1.797,2.049
			c0,0.162-0.018,0.288-0.027,0.368H202.727z M205.046,252.446c0.009-0.503-0.207-1.286-1.096-1.286c-0.8,0-1.15,0.737-1.213,1.286
			H205.046z"/>
	</g>
</g>
</svg>
