<?xml version="1.0" encoding="utf-8"?>
<!-- Generator: Adobe Illustrator 19.0.1, SVG Export Plug-In . SVG Version: 6.00 Build 0)  -->
<svg version="1.1" id="icones" xmlns="http://www.w3.org/2000/svg" xmlns:xlink="http://www.w3.org/1999/xlink" x="0px" y="0px"
	 viewBox="0 0 880.456 857.957" style="enable-background:new 0 0 880.456 857.957;" xml:space="preserve">
<style type="text/css">
	.st0{fill:#1D1D1B;}
	.st1{fill:#FFFFFF;}
</style>
<g>
	<g>
		<path class="st0" d="M254.73,545.609h-7.594c-1.034,0-1.872-0.838-1.872-1.872v-7.594c0-1.034,0.838-1.872,1.872-1.872h7.594
			c1.034,0,1.872,0.838,1.872,1.872v7.594C256.602,544.771,255.764,545.609,254.73,545.609z"/>
		<g>
			<path class="st1" d="M249.464,544.531h-2.058c-0.517,0-0.936-0.419-0.936-0.936v-7.311c0-0.517,0.419-0.936,0.936-0.936h2.058
				c0.517,0,0.936,0.419,0.936,0.936v7.311C250.4,544.112,249.981,544.531,249.464,544.531z"/>
			<path class="st1" d="M254.46,544.531h-2.058c-0.517,0-0.936-0.419-0.936-0.936v-7.311c0-0.517,0.419-0.936,0.936-0.936h2.058
				c0.517,0,0.936,0.419,0.936,0.936v7.311C255.396,544.112,254.977,544.531,254.46,544.531z"/>
		</g>
	</g>
	<path class="st0" d="M249.919,539.277l-1.444-1.444c-0.061-0.061-0.159-0.061-0.22,0l-1.444,1.444
		c-0.098,0.098-0.029,0.265,0.11,0.265h0.849v2.19c0,0.199,0.161,0.36,0.36,0.36h0.471c0.199,0,0.36-0.161,0.36-0.36v-2.19h0.849
		C249.947,539.542,250.017,539.375,249.919,539.277z"/>
	<path class="st0" d="M251.877,540.602l1.444,1.444c0.061,0.061,0.159,0.061,0.22,0l1.444-1.444c0.098-0.098,0.029-0.265-0.11-0.265
		h-0.849v-2.19c0-0.199-0.161-0.36-0.36-0.36h-0.471c-0.199,0-0.36,0.161-0.36,0.36v2.19h-0.849
		C251.848,540.337,251.779,540.504,251.877,540.602z"/>
</g>
<g>
	<g>
		<path class="st0" d="M588.266,386.642h-7.594c-1.034,0-1.872-0.838-1.872-1.872v-7.594c0-1.034,0.838-1.872,1.872-1.872h7.594
			c1.034,0,1.872,0.838,1.872,1.872v7.594C590.138,385.804,589.3,386.642,588.266,386.642z"/>
		<g>
			<path class="st1" d="M583,385.564h-2.058c-0.517,0-0.936-0.419-0.936-0.936v-7.311c0-0.517,0.419-0.936,0.936-0.936H583
				c0.517,0,0.936,0.419,0.936,0.936v7.311C583.936,385.145,583.517,385.564,583,385.564z"/>
			<path class="st1" d="M587.996,385.564h-2.058c-0.517,0-0.936-0.419-0.936-0.936v-7.311c0-0.517,0.419-0.936,0.936-0.936h2.058
				c0.517,0,0.936,0.419,0.936,0.936v7.311C588.932,385.145,588.513,385.564,587.996,385.564z"/>
		</g>
	</g>
	<path class="st0" d="M583.454,380.311l-1.444-1.444c-0.061-0.061-0.159-0.061-0.22,0l-1.444,1.444
		c-0.098,0.098-0.029,0.265,0.11,0.265h0.849v2.19c0,0.199,0.161,0.36,0.36,0.36h0.471c0.199,0,0.36-0.161,0.36-0.36v-2.19h0.849
		C583.483,380.576,583.552,380.408,583.454,380.311z"/>
	<path class="st0" d="M585.413,381.636l1.444,1.444c0.061,0.061,0.159,0.061,0.22,0l1.444-1.444c0.098-0.098,0.029-0.265-0.11-0.265
		h-0.849v-2.19c0-0.199-0.161-0.36-0.36-0.36h-0.471c-0.199,0-0.36,0.161-0.36,0.36v2.19h-0.849
		C585.384,381.37,585.315,381.538,585.413,381.636z"/>
</g>
<g>
	<path class="st0" d="M285.356,530.843h-7.594c-1.034,0-1.872-0.838-1.872-1.872v-7.594c0-1.034,0.838-1.872,1.872-1.872h7.594
		c1.034,0,1.872,0.838,1.872,1.872v7.594C287.228,530.005,286.39,530.843,285.356,530.843z"/>
	<polygon class="st1" points="281.559,521.476 281.559,523.941 279.471,523.941 279.471,526.406 277.384,526.406 277.384,528.871 
		281.559,528.871 281.559,526.406 283.646,526.406 283.646,523.941 285.733,523.941 285.733,521.476 	"/>
</g>
<g>
	<path class="st0" d="M300.924,309.961h-7.594c-1.034,0-1.872-0.838-1.872-1.872v-7.594c0-1.034,0.838-1.872,1.872-1.872h7.594
		c1.034,0,1.872,0.838,1.872,1.872v7.594C302.796,309.123,301.957,309.961,300.924,309.961z"/>
	<polygon class="st1" points="297.126,300.594 297.126,303.059 295.039,303.059 295.039,305.524 292.952,305.524 292.952,307.989 
		297.126,307.989 297.126,305.524 299.213,305.524 299.213,303.059 301.301,303.059 301.301,300.594 	"/>
</g>
<g>
	<path class="st0" d="M128.87,322.695h-7.594c-1.034,0-1.872-0.838-1.872-1.872v-7.594c0-1.034,0.838-1.872,1.872-1.872h7.594
		c1.034,0,1.872,0.838,1.872,1.872v7.594C130.742,321.857,129.903,322.695,128.87,322.695z"/>
	<polygon class="st1" points="125.072,313.329 125.072,315.793 122.985,315.793 122.985,318.258 120.898,318.258 120.898,320.723 
		125.072,320.723 125.072,318.258 127.159,318.258 127.159,315.793 129.247,315.793 129.247,313.329 	"/>
</g>
<g>
	<path class="st0" d="M163.698,415.551h-7.594c-1.034,0-1.872-0.838-1.872-1.872v-7.594c0-1.034,0.838-1.872,1.872-1.872h7.594
		c1.034,0,1.872,0.838,1.872,1.872v7.594C165.57,414.713,164.732,415.551,163.698,415.551z"/>
	<polygon class="st1" points="159.901,406.184 159.901,408.649 157.813,408.649 157.813,411.114 155.726,411.114 155.726,413.579 
		159.901,413.579 159.901,411.114 161.988,411.114 161.988,408.649 164.075,408.649 164.075,406.184 	"/>
</g>
<g>
	<path class="st0" d="M536.595,604.244H529c-1.034,0-1.872-0.838-1.872-1.872v-7.594c0-1.034,0.838-1.872,1.872-1.872h7.594
		c1.034,0,1.872,0.838,1.872,1.872v7.594C538.467,603.406,537.629,604.244,536.595,604.244z"/>
	<polygon class="st1" points="532.798,594.878 532.798,597.343 530.71,597.343 530.71,599.808 528.623,599.808 528.623,602.272 
		532.798,602.272 532.798,599.808 534.885,599.808 534.885,597.343 536.972,597.343 536.972,594.878 	"/>
</g>
<g>
	<path class="st0" d="M626.201,405.908h-7.594c-1.034,0-1.872-0.838-1.872-1.872v-7.594c0-1.034,0.838-1.872,1.872-1.872h7.594
		c1.034,0,1.872,0.838,1.872,1.872v7.594C628.073,405.07,627.235,405.908,626.201,405.908z"/>
	<polygon class="st1" points="622.403,396.542 622.403,399.007 620.316,399.007 620.316,401.471 618.229,401.471 618.229,403.936 
		622.403,403.936 622.403,401.471 624.491,401.471 624.491,399.007 626.578,399.007 626.578,396.542 	"/>
</g>
<g>
	<path class="st0" d="M447.092,662.433h-7.594c-1.034,0-1.872-0.838-1.872-1.872v-7.594c0-1.034,0.838-1.872,1.872-1.872h7.594
		c1.034,0,1.872,0.838,1.872,1.872v7.594C448.964,661.594,448.125,662.433,447.092,662.433z"/>
	<polygon class="st1" points="443.294,653.066 443.294,655.531 441.207,655.531 441.207,657.996 439.12,657.996 439.12,660.461 
		443.294,660.461 443.294,657.996 445.381,657.996 445.381,655.531 447.469,655.531 447.469,653.066 	"/>
</g>
<g>
	<circle class="st0" cx="136.999" cy="336.803" r="4.535"/>
	<path class="st1" d="M135.55,338.818l2.913,0.716c0.122,0.03,0.246-0.045,0.276-0.167l0.716-2.913
		c0.049-0.198-0.166-0.355-0.34-0.25l-1.066,0.646l-1.666-2.752c-0.151-0.25-0.476-0.33-0.726-0.178l-0.592,0.359
		c-0.25,0.151-0.33,0.476-0.178,0.726l1.666,2.752l-1.066,0.646C135.312,338.506,135.353,338.769,135.55,338.818z"/>
</g>
<g>
	<circle class="st0" cx="135.204" cy="303.991" r="4.535"/>
	<path class="st1" d="M136.595,301.936l-2.933-0.633c-0.123-0.027-0.245,0.052-0.271,0.175l-0.633,2.933
		c-0.043,0.199,0.176,0.35,0.347,0.24l1.048-0.676l1.743,2.703c0.158,0.245,0.486,0.316,0.731,0.158l0.582-0.375
		c0.245-0.158,0.316-0.486,0.158-0.731l-1.743-2.703l1.048-0.676C136.841,302.241,136.794,301.979,136.595,301.936z"/>
</g>
<g>
	<path class="st0" d="M212.8,441.944h-7.594c-1.034,0-1.872-0.838-1.872-1.872v-7.594c0-1.034,0.838-1.872,1.872-1.872h7.594
		c1.034,0,1.872,0.838,1.872,1.872v7.594C214.672,441.106,213.834,441.944,212.8,441.944z"/>
	<g>
		<path class="st1" d="M208.525,433.699c0.388,0,0.7-0.318,0.7-0.7c0-0.389-0.312-0.7-0.7-0.7c-0.386,0-0.7,0.312-0.7,0.7
			C207.824,433.381,208.138,433.699,208.525,433.699"/>
		<path class="st1" d="M211.931,438.91c0.111,0.182,0.368,0.256,0.562,0.14c0.192-0.117,0.249-0.357,0.14-0.56l-1.194-2.061
			c-0.074-0.124-0.204-0.194-0.338-0.198h-1.751l-0.017-0.62h1.273c0.173-0.01,0.316-0.142,0.316-0.32
			c0-0.176-0.138-0.312-0.316-0.318h-1.309l-0.046-0.51c-0.026-0.367-0.342-0.657-0.713-0.636c-0.374,0.021-0.657,0.343-0.639,0.715
			l0.123,2.126c0.03,0.373,0.342,0.637,0.712,0.637h2.271L211.931,438.91z"/>
		<path class="st1" d="M208.975,439.71c-1.149,0-2.08-0.93-2.08-2.08c0-0.63,0.285-1.192,0.73-1.574l-0.038-0.65
			c-0.744,0.465-1.243,1.282-1.243,2.224c0,1.453,1.177,2.632,2.631,2.632c1.07,0,1.985-0.644,2.397-1.561l-0.37-0.64
			C210.803,438.999,209.974,439.71,208.975,439.71"/>
	</g>
</g>
<g>
	<path class="st0" d="M227.283,445.93h-7.594c-1.034,0-1.872-0.838-1.872-1.872v-7.594c0-1.034,0.838-1.872,1.872-1.872h7.594
		c1.034,0,1.872,0.838,1.872,1.872v7.594C229.155,445.092,228.317,445.93,227.283,445.93z"/>
	<g>
		<circle class="st1" cx="226.588" cy="436.355" r="0.778"/>
		<path class="st1" d="M225.751,437.287l0.837,0.001l0.837-0.001c0.75,0,0.995,0.193,0.995,1.01v2.39c0,0.464-0.626,0.464-0.626,0
			l-0.054-2.186h-0.161v5.985c0,0.621-0.852,0.603-0.852,0l-0.054-3.474h-0.169l-0.054,3.474c0,0.603-0.852,0.621-0.852,0v-5.985
			h-0.16l-0.054,2.186c0,0.464-0.626,0.464-0.626,0v-2.39C224.757,437.48,225.001,437.287,225.751,437.287z"/>
		<circle class="st1" cx="220.685" cy="436.355" r="0.778"/>
		<path class="st1" d="M218.574,440.181l0.668-2.199c0.13-0.389,0.518-0.695,1.084-0.695h0.718c0.567,0,0.955,0.306,1.085,0.695
			l0.668,2.199c0.139,0.473-0.408,0.64-0.551,0.199l-0.706-2.01h-0.081c0,0,0.926,3.6,0.966,3.734
			c0.019,0.067-0.009,0.116-0.08,0.116c-0.044,0-0.802,0-0.802,0l-0.001,2.364c0,0.481-0.72,0.481-0.72,0v-2.383h-0.276l0,2.383
			c0,0.481-0.72,0.481-0.72,0l-0.001-2.364c0,0-0.758,0-0.802,0c-0.071,0-0.1-0.048-0.08-0.116c0.039-0.135,0.966-3.734,0.966-3.734
			h-0.082l-0.705,2.01C218.981,440.821,218.435,440.653,218.574,440.181z"/>
		<path class="st1" d="M223.358,444.569c0,0.208,0.168,0.376,0.376,0.376s0.376-0.168,0.376-0.376v-8.616
			c0-0.208-0.168-0.376-0.376-0.376s-0.376,0.168-0.376,0.376V444.569z"/>
	</g>
</g>
</svg>
