<?xml version="1.0" encoding="utf-8"?>
<!-- Generator: Adobe Illustrator 20.1.0, SVG Export Plug-In . SVG Version: 6.00 Build 0)  -->
<svg version="1.1" id="icones" xmlns="http://www.w3.org/2000/svg" xmlns:xlink="http://www.w3.org/1999/xlink" x="0px" y="0px"
	 viewBox="0 0 922.5 993" style="enable-background:new 0 0 922.5 993;" xml:space="preserve">
<style type="text/css">
	.st0{fill:#1D1D1B;}
	.st1{fill:#FFFFFF;}
</style>
<g>
	<path class="st0" d="M616,404h-7.6c-1,0-1.9-0.8-1.9-1.9v-7.6c0-1,0.8-1.9,1.9-1.9h7.6c1,0,1.9,0.8,1.9,1.9v7.6
		C617.9,403.1,617.1,404,616,404z"/>
	<polygon class="st1" points="612.2,394.6 612.2,397.1 610.1,397.1 610.1,399.5 608.1,399.5 608.1,402 612.2,402 612.2,399.5
		614.3,399.5 614.3,397.1 616.4,397.1 616.4,394.6 	"/>
</g>
<g>
	<path class="st0" d="M364.6,296.5H357c-1,0-1.9-0.8-1.9-1.9V287c0-1,0.8-1.9,1.9-1.9h7.6c1,0,1.9,0.8,1.9,1.9v7.6
		C366.5,295.7,365.7,296.5,364.6,296.5z"/>
	<polygon class="st1" points="360.8,287.2 360.8,289.6 358.8,289.6 358.8,292.1 356.7,292.1 356.7,294.5 360.8,294.5 360.8,292.1
		362.9,292.1 362.9,289.6 365,289.6 365,287.2 	"/>
</g>
<g>
	<path class="st0" d="M165.8,398.3h-7.6c-1,0-1.9-0.8-1.9-1.9v-7.6c0-1,0.8-1.9,1.9-1.9h7.6c1,0,1.9,0.8,1.9,1.9v7.6
		C167.7,397.4,166.9,398.3,165.8,398.3z"/>
	<polygon class="st1" points="162,388.9 162,391.4 159.9,391.4 159.9,393.9 157.8,393.9 157.8,396.3 162,396.3 162,393.9
		164.1,393.9 164.1,391.4 166.2,391.4 166.2,388.9 	"/>
</g>
<g>
	<path class="st0" d="M119.4,310.5h-7.6c-1,0-1.9-0.8-1.9-1.9V301c0-1,0.8-1.9,1.9-1.9h7.6c1,0,1.9,0.8,1.9,1.9v7.6
		C121.3,309.7,120.4,310.5,119.4,310.5z"/>
	<polygon class="st1" points="115.6,301.2 115.6,303.6 113.5,303.6 113.5,306.1 111.4,306.1 111.4,308.5 115.6,308.5 115.6,306.1
		117.7,306.1 117.7,303.6 119.8,303.6 119.8,301.2 	"/>
</g>
<g>
	<path class="st0" d="M105.5,257.1h-7.6c-1,0-1.9-0.8-1.9-1.9v-7.6c0-1,0.8-1.9,1.9-1.9h7.6c1,0,1.9,0.8,1.9,1.9v7.6
		C107.4,256.3,106.5,257.1,105.5,257.1z"/>
	<polygon class="st1" points="101.7,247.7 101.7,250.2 99.6,250.2 99.6,252.7 97.5,252.7 97.5,255.1 101.7,255.1 101.7,252.7
		103.8,252.7 103.8,250.2 105.9,250.2 105.9,247.7 	"/>
</g>
<g>
	<path class="st0" d="M685.3,516.8h-7.6c-1,0-1.9-0.8-1.9-1.9v-7.6c0-1,0.8-1.9,1.9-1.9h7.6c1,0,1.9,0.8,1.9,1.9v7.6
		C687.1,515.9,686.3,516.8,685.3,516.8z"/>
	<polygon class="st1" points="681.5,507.4 681.5,509.9 679.4,509.9 679.4,512.3 677.3,512.3 677.3,514.8 681.5,514.8 681.5,512.3
		683.6,512.3 683.6,509.9 685.6,509.9 685.6,507.4 	"/>
</g>
<g>
	<path class="st0" d="M550.6,600.4H543c-1,0-1.9-0.8-1.9-1.9v-7.6c0-1,0.8-1.9,1.9-1.9h7.6c1,0,1.9,0.8,1.9,1.9v7.6
		C552.5,599.5,551.6,600.4,550.6,600.4z"/>
	<polygon class="st1" points="546.8,591 546.8,593.5 544.7,593.5 544.7,595.9 542.6,595.9 542.6,598.4 546.8,598.4 546.8,595.9
		548.9,595.9 548.9,593.5 551,593.5 551,591 	"/>
</g>
<g>
	<path class="st0" d="M711.6,710.8H704c-1,0-1.9-0.8-1.9-1.9v-7.6c0-1,0.8-1.9,1.9-1.9h7.6c1,0,1.9,0.8,1.9,1.9v7.6
		C713.5,710,712.6,710.8,711.6,710.8z"/>
	<polygon class="st1" points="707.8,701.5 707.8,703.9 705.7,703.9 705.7,706.4 703.6,706.4 703.6,708.9 707.8,708.9 707.8,706.4
		709.9,706.4 709.9,703.9 712,703.9 712,701.5 	"/>
</g>
<g>
	<path class="st0" d="M708.9,802.5h-7.6c-1,0-1.9-0.8-1.9-1.9V793c0-1,0.8-1.9,1.9-1.9h7.6c1,0,1.9,0.8,1.9,1.9v7.6
		C710.8,801.7,710,802.5,708.9,802.5z"/>
	<polygon class="st1" points="705.1,793.1 705.1,795.6 703.1,795.6 703.1,798.1 701,798.1 701,800.5 705.1,800.5 705.1,798.1
		707.2,798.1 707.2,795.6 709.3,795.6 709.3,793.1 	"/>
</g>
<g>
	<path class="st0" d="M801.6,934.2H794c-1,0-1.9-0.8-1.9-1.9v-7.6c0-1,0.8-1.9,1.9-1.9h7.6c1,0,1.9,0.8,1.9,1.9v7.6
		C803.4,933.4,802.6,934.2,801.6,934.2z"/>
	<polygon class="st1" points="797.8,924.9 797.8,927.3 795.7,927.3 795.7,929.8 793.6,929.8 793.6,932.3 797.8,932.3 797.8,929.8
		799.9,929.8 799.9,927.3 801.9,927.3 801.9,924.9 	"/>
</g>
<g>
	<path class="st0" d="M465.8,461.3h-7.6c-1,0-1.9-0.8-1.9-1.9v-7.6c0-1,0.8-1.9,1.9-1.9h7.6c1,0,1.9,0.8,1.9,1.9v7.6
		C467.7,460.5,466.9,461.3,465.8,461.3z"/>
	<polygon class="st1" points="462,452 462,454.4 460,454.4 460,456.9 457.9,456.9 457.9,459.4 462,459.4 462,456.9 464.1,456.9
		464.1,454.4 466.2,454.4 466.2,452 	"/>
</g>
<g>
	<path class="st0" d="M334.8,543.1h-7.6c-1,0-1.9-0.8-1.9-1.9v-7.6c0-1,0.8-1.9,1.9-1.9h7.6c1,0,1.9,0.8,1.9,1.9v7.6
		C336.7,542.3,335.9,543.1,334.8,543.1z"/>
	<polygon class="st1" points="331,533.8 331,536.2 329,536.2 329,538.7 326.9,538.7 326.9,541.2 331,541.2 331,538.7 333.1,538.7
		333.1,536.2 335.2,536.2 335.2,533.8 	"/>
</g>
<g>
	<path class="st0" d="M297.6,516.8H290c-1,0-1.9-0.8-1.9-1.9v-7.6c0-1,0.8-1.9,1.9-1.9h7.6c1,0,1.9,0.8,1.9,1.9v7.6
		C299.5,515.9,298.7,516.8,297.6,516.8z"/>
	<polygon class="st1" points="293.8,507.4 293.8,509.9 291.8,509.9 291.8,512.3 289.7,512.3 289.7,514.8 293.8,514.8 293.8,512.3
		295.9,512.3 295.9,509.9 298,509.9 298,507.4 	"/>
</g>
<g>
	<path class="st0" d="M464.5,655.3h-7.6c-1,0-1.9-0.8-1.9-1.9v-7.6c0-1,0.8-1.9,1.9-1.9h7.6c1,0,1.9,0.8,1.9,1.9v7.6
		C466.4,654.4,465.5,655.3,464.5,655.3z"/>
	<polygon class="st1" points="460.7,645.9 460.7,648.4 458.6,648.4 458.6,650.8 456.5,650.8 456.5,653.3 460.7,653.3 460.7,650.8
		462.8,650.8 462.8,648.4 464.9,648.4 464.9,645.9 	"/>
</g>
<g>
	<path class="st0" d="M420.6,764.2H413c-1,0-1.9-0.8-1.9-1.9v-7.6c0-1,0.8-1.9,1.9-1.9h7.6c1,0,1.9,0.8,1.9,1.9v7.6
		C422.4,763.4,421.6,764.2,420.6,764.2z"/>
	<polygon class="st1" points="416.8,754.9 416.8,757.3 414.7,757.3 414.7,759.8 412.6,759.8 412.6,762.2 416.8,762.2 416.8,759.8
		418.9,759.8 418.9,757.3 420.9,757.3 420.9,754.9 	"/>
</g>
<g>
	<path class="st0" d="M293,341.5h-7.6c-1,0-1.9-0.8-1.9-1.9V332c0-1,0.8-1.9,1.9-1.9h7.6c1,0,1.9,0.8,1.9,1.9v7.6
		C294.9,340.6,294,341.5,293,341.5z"/>
	<g>
		<circle class="st1" cx="289.2" cy="331.9" r="0.8"/>
		<path class="st1" d="M291.3,335.7l-0.7-2.2c-0.1-0.4-0.5-0.7-1.1-0.7h-0.7c-0.6,0-1,0.3-1.1,0.7l-0.7,2.2
			c-0.1,0.5,0.4,0.6,0.6,0.2l0.7-2h0.1c0,0-0.9,3.6-1,3.7c0,0.1,0,0.1,0.1,0.1h0.8v2.4c0,0.5,0.7,0.5,0.7,0v-2.4h0.3v2.4
			c0,0.5,0.7,0.5,0.7,0v-2.4h0.8c0.1,0,0.1,0,0.1-0.1s-1-3.7-1-3.7h0.1l0.7,2C290.9,336.3,291.5,336.2,291.3,335.7z"/>
	</g>
</g>
<g>
	<path class="st0" d="M309.1,332.7h-7.6c-1,0-1.9-0.8-1.9-1.9v-7.6c0-1,0.8-1.9,1.9-1.9h7.6c1,0,1.9,0.8,1.9,1.9v7.6
		C310.9,331.8,310.1,332.7,309.1,332.7z"/>
	<g>
		<circle class="st1" cx="305.3" cy="323.1" r="0.8"/>
		<path class="st1" d="M306.1,324h-0.8h-0.8c-0.8,0-1,0.2-1,1v2.4c0,0.5,0.6,0.5,0.6,0l0.1-2.2h0.2v6.1c0,0.6,0.9,0.6,0.9,0l0.1-3.5
			h0.2l0.1,3.5c0,0.6,0.9,0.6,0.9,0v-6.1h0.2l0.1,2.2c0,0.5,0.6,0.5,0.6,0V325C307.1,324.2,306.9,324,306.1,324z"/>
	</g>
</g>
<g>
	<path class="st0" d="M482.7,644.5h-7.6c-1,0-1.9-0.8-1.9-1.9V635c0-1,0.8-1.9,1.9-1.9h7.6c1,0,1.9,0.8,1.9,1.9v7.6
		C484.6,643.6,483.8,644.5,482.7,644.5z"/>
	<g>
		<circle class="st1" cx="478.9" cy="634.9" r="0.8"/>
		<path class="st1" d="M481,638.7l-0.7-2.2c-0.1-0.4-0.5-0.7-1.1-0.7h-0.7c-0.6,0-1,0.3-1.1,0.7l-0.7,2.2c-0.1,0.5,0.4,0.6,0.6,0.2
			l0.7-2h0.1c0,0-0.9,3.6-1,3.7c0,0.1,0,0.1,0.1,0.1h0.8v2.4c0,0.5,0.7,0.5,0.7,0v-2.4h0.3v2.4c0,0.5,0.7,0.5,0.7,0v-2.4h0.8
			c0.1,0,0.1,0,0.1-0.1s-1-3.7-1-3.7h0.1l0.7,2C480.6,639.4,481.2,639.2,481,638.7z"/>
	</g>
</g>
<g>
	<path class="st0" d="M498.1,633.6h-7.6c-1,0-1.9-0.8-1.9-1.9v-7.6c0-1,0.8-1.9,1.9-1.9h7.6c1,0,1.9,0.8,1.9,1.9v7.6
		C499.9,632.7,499.1,633.6,498.1,633.6z"/>
	<g>
		<circle class="st1" cx="494.3" cy="624" r="0.8"/>
		<path class="st1" d="M495.1,624.9h-0.8h-0.8c-0.8,0-1,0.2-1,1v2.4c0,0.5,0.6,0.5,0.6,0l0.1-2.2h0.2v6.1c0,0.6,0.9,0.6,0.9,0
			l0.1-3.5h0.2l0.1,3.5c0,0.6,0.9,0.6,0.9,0v-6.1h0.2l0.1,2.2c0,0.5,0.6,0.5,0.6,0v-2.4C496.1,625.1,495.9,624.9,495.1,624.9z"/>
	</g>
</g>
<g>
	<path class="st0" d="M774,892h-7.6c-1,0-1.9-0.8-1.9-1.9v-7.6c0-1,0.8-1.9,1.9-1.9h7.6c1,0,1.9,0.8,1.9,1.9v7.6
		C775.9,891.2,775,892,774,892z"/>
	<g>
		<circle class="st1" cx="770.2" cy="882.5" r="0.8"/>
		<path class="st1" d="M772.3,886.3l-0.7-2.2c-0.1-0.4-0.5-0.7-1.1-0.7h-0.7c-0.6,0-1,0.3-1.1,0.7l-0.7,2.2
			c-0.1,0.5,0.4,0.6,0.6,0.2l0.7-2h0.1c0,0-0.9,3.6-1,3.7c0,0.1,0,0.1,0.1,0.1h0.8v2.4c0,0.5,0.7,0.5,0.7,0v-2.4h0.3v2.4
			c0,0.5,0.7,0.5,0.7,0v-2.4h0.8c0.1,0,0.1,0,0.1-0.1s-1-3.7-1-3.7h0.1l0.7,2C771.9,886.9,772.4,886.8,772.3,886.3z"/>
	</g>
</g>
<g>
	<path class="st0" d="M760.1,870.6h-7.6c-1,0-1.9-0.8-1.9-1.9v-7.6c0-1,0.8-1.9,1.9-1.9h7.6c1,0,1.9,0.8,1.9,1.9v7.6
		C762,869.8,761.1,870.6,760.1,870.6z"/>
	<g>
		<circle class="st1" cx="756.3" cy="861" r="0.8"/>
		<path class="st1" d="M757.1,861.9h-0.8h-0.8c-0.8,0-1,0.2-1,1v2.4c0,0.5,0.6,0.5,0.6,0l0.1-2.2h0.2v6.1c0,0.6,0.9,0.6,0.9,0
			l0.1-3.5h0.2l0.1,3.5c0,0.6,0.9,0.6,0.9,0v-6.1h0.2l0.1,2.2c0,0.5,0.6,0.5,0.6,0V863C758.1,862.1,757.9,861.9,757.1,861.9z"/>
	</g>
</g>
<g>
	<path class="st0" d="M276.6,152.9H269c-1,0-1.9-0.8-1.9-1.9v-7.6c0-1,0.8-1.9,1.9-1.9h7.6c1,0,1.9,0.8,1.9,1.9v7.6
		C278.4,152.1,277.6,152.9,276.6,152.9z"/>
	<polygon class="st1" points="272.8,143.6 272.8,146 270.7,146 270.7,148.5 268.6,148.5 268.6,151 272.8,151 272.8,148.5
		274.8,148.5 274.8,146 276.9,146 276.9,143.6 	"/>
</g>
<g>
	<g>
		<path class="st0" d="M261.3,532.6h-7.6c-1,0-1.9-0.8-1.9-1.9v-7.6c0-1,0.8-1.9,1.9-1.9h7.6c1,0,1.9,0.8,1.9,1.9v7.6
			C263.2,531.8,262.4,532.6,261.3,532.6z"/>
		<g>
			<path class="st1" d="M256.1,531.6H254c-0.5,0-0.9-0.4-0.9-0.9v-7.3c0-0.5,0.4-0.9,0.9-0.9h2.1c0.5,0,0.9,0.4,0.9,0.9v7.3
				C257,531.1,256.6,531.6,256.1,531.6z"/>
			<path class="st1" d="M261.1,531.6H259c-0.5,0-0.9-0.4-0.9-0.9v-7.3c0-0.5,0.4-0.9,0.9-0.9h2.1c0.5,0,0.9,0.4,0.9,0.9v7.3
				C262,531.1,261.6,531.6,261.1,531.6z"/>
		</g>
	</g>
	<path class="st0" d="M256.5,526.3l-1.4-1.4c-0.1-0.1-0.2-0.1-0.2,0l-1.4,1.4c-0.1,0.1,0,0.3,0.1,0.3h0.8v2.2c0,0.2,0.2,0.4,0.4,0.4
		h0.5c0.2,0,0.4-0.2,0.4-0.4v-2.2h0.8C256.5,526.6,256.6,526.4,256.5,526.3z"/>
	<path class="st0" d="M258.5,527.6l1.4,1.4c0.1,0.1,0.2,0.1,0.2,0l1.4-1.4c0.1-0.1,0-0.3-0.1-0.3h-0.8v-2.2c0-0.2-0.2-0.4-0.4-0.4
		h-0.5c-0.2,0-0.4,0.2-0.4,0.4v2.2h-0.8C258.4,527.4,258.4,527.5,258.5,527.6z"/>
</g>
<g>
	<g>
		<path class="st0" d="M391.7,604.4h-7.6c-1,0-1.9-0.8-1.9-1.9V595c0-1,0.8-1.9,1.9-1.9h7.6c1,0,1.9,0.8,1.9,1.9v7.6
			C393.6,603.6,392.8,604.4,391.7,604.4z"/>
		<g>
			<path class="st1" d="M386.5,603.4h-2.1c-0.5,0-0.9-0.4-0.9-0.9v-7.3c0-0.5,0.4-0.9,0.9-0.9h2.1c0.5,0,0.9,0.4,0.9,0.9v7.3
				C387.4,602.9,387,603.4,386.5,603.4z"/>
			<path class="st1" d="M391.5,603.4h-2.1c-0.5,0-0.9-0.4-0.9-0.9v-7.3c0-0.5,0.4-0.9,0.9-0.9h2.1c0.5,0,0.9,0.4,0.9,0.9v7.3
				C392.4,602.9,392,603.4,391.5,603.4z"/>
		</g>
	</g>
	<path class="st0" d="M386.9,598.1l-1.4-1.4c-0.1-0.1-0.2-0.1-0.2,0l-1.4,1.4c-0.1,0.1,0,0.3,0.1,0.3h0.8v2.2c0,0.2,0.2,0.4,0.4,0.4
		h0.5c0.2,0,0.4-0.2,0.4-0.4v-2.2h0.8C386.9,598.4,387,598.2,386.9,598.1z"/>
	<path class="st0" d="M388.9,599.4l1.4,1.4c0.1,0.1,0.2,0.1,0.2,0l1.4-1.4c0.1-0.1,0-0.3-0.1-0.3H391V597c0-0.2-0.2-0.4-0.4-0.4
		h-0.5c-0.2,0-0.4,0.2-0.4,0.4v2.2H389C388.8,599.2,388.8,599.3,388.9,599.4z"/>
</g>
<g>
	<g>
		<path class="st0" d="M727.2,733.6h-7.6c-1,0-1.9-0.8-1.9-1.9v-7.6c0-1,0.8-1.9,1.9-1.9h7.6c1,0,1.9,0.8,1.9,1.9v7.6
			C729.1,732.7,728.2,733.6,727.2,733.6z"/>
		<g>
			<path class="st1" d="M721.9,732.5h-2.1c-0.5,0-0.9-0.4-0.9-0.9v-7.3c0-0.5,0.4-0.9,0.9-0.9h2.1c0.5,0,0.9,0.4,0.9,0.9v7.3
				C722.9,732.1,722.5,732.5,721.9,732.5z"/>
			<path class="st1" d="M726.9,732.5h-2.1c-0.5,0-0.9-0.4-0.9-0.9v-7.3c0-0.5,0.4-0.9,0.9-0.9h2.1c0.5,0,0.9,0.4,0.9,0.9v7.3
				C727.9,732.1,727.5,732.5,726.9,732.5z"/>
		</g>
	</g>
	<path class="st0" d="M722.4,727.3l-1.4-1.4c-0.1-0.1-0.2-0.1-0.2,0l-1.4,1.4c-0.1,0.1,0,0.3,0.1,0.3h0.8v2.2c0,0.2,0.2,0.4,0.4,0.4
		h0.5c0.2,0,0.4-0.2,0.4-0.4v-2.2h0.8C722.4,727.5,722.5,727.4,722.4,727.3z"/>
	<path class="st0" d="M724.4,728.6l1.4,1.4c0.1,0.1,0.2,0.1,0.2,0l1.4-1.4c0.1-0.1,0-0.3-0.1-0.3h-0.8v-2.2c0-0.2-0.2-0.4-0.4-0.4
		h-0.5c-0.2,0-0.4,0.2-0.4,0.4v2.2h-0.8C724.3,728.3,724.3,728.5,724.4,728.6z"/>
</g>
<g>
	<g>
		<path class="st0" d="M614.3,365.7h-7.6c-1,0-1.9-0.8-1.9-1.9v-7.6c0-1,0.8-1.9,1.9-1.9h7.6c1,0,1.9,0.8,1.9,1.9v7.6
			C616.1,364.9,615.3,365.7,614.3,365.7z"/>
		<g>
			<path class="st1" d="M609,364.6h-2.1c-0.5,0-0.9-0.4-0.9-0.9v-7.3c0-0.5,0.4-0.9,0.9-0.9h2.1c0.5,0,0.9,0.4,0.9,0.9v7.3
				C609.9,364.2,609.5,364.6,609,364.6z"/>
			<path class="st1" d="M614,364.6h-2.1c-0.5,0-0.9-0.4-0.9-0.9v-7.3c0-0.5,0.4-0.9,0.9-0.9h2.1c0.5,0,0.9,0.4,0.9,0.9v7.3
				C614.9,364.2,614.5,364.6,614,364.6z"/>
		</g>
	</g>
	<path class="st0" d="M609.5,359.4l-1.4-1.4c-0.1-0.1-0.2-0.1-0.2,0l-1.4,1.4c-0.1,0.1,0,0.3,0.1,0.3h0.8v2.2c0,0.2,0.2,0.4,0.4,0.4
		h0.5c0.2,0,0.4-0.2,0.4-0.4v-2.2h0.8C609.5,359.6,609.6,359.5,609.5,359.4z"/>
	<path class="st0" d="M611.4,360.7l1.4,1.4c0.1,0.1,0.2,0.1,0.2,0l1.4-1.4c0.1-0.1,0-0.3-0.1-0.3h-0.8v-2.2c0-0.2-0.2-0.4-0.4-0.4
		h-0.5c-0.2,0-0.4,0.2-0.4,0.4v2.2h-0.8C611.4,360.4,611.3,360.6,611.4,360.7z"/>
</g>
<g>
	<circle class="st0" cx="434.6" cy="516.1" r="4.5"/>
	<path class="st1" d="M432.6,514.7l-0.7,2.9c0,0.1,0,0.2,0.2,0.3l2.9,0.7c0.2,0,0.4-0.2,0.2-0.3l-0.7-1.1l2.7-1.7
		c0.2-0.2,0.3-0.5,0.2-0.7l-0.4-0.6c-0.2-0.2-0.5-0.3-0.7-0.2l-2.7,1.7l-0.7-1.1C432.9,514.5,432.6,514.5,432.6,514.7z"/>
</g>
<g>
	<circle class="st0" cx="368.8" cy="552.9" r="4.5"/>
	<path class="st1" d="M370.9,554.3l0.7-2.9c0-0.1,0-0.2-0.2-0.3l-2.9-0.7c-0.2,0-0.4,0.2-0.2,0.3l0.7,1.1l-2.7,1.7
		c-0.2,0.2-0.3,0.5-0.2,0.7l0.4,0.6c0.2,0.2,0.5,0.3,0.7,0.2l2.7-1.7l0.7,1.1C370.5,554.5,370.8,554.5,370.9,554.3z"/>
</g>
<g>
	<circle class="st0" cx="393.8" cy="251.3" r="4.5"/>
	<path class="st1" d="M395.2,249.3l-2.9-0.7c-0.1,0-0.2,0-0.3,0.2l-0.7,2.9c0,0.2,0.2,0.4,0.3,0.2l1.1-0.7l1.7,2.7
		c0.2,0.2,0.5,0.3,0.7,0.2l0.6-0.4c0.2-0.2,0.3-0.5,0.2-0.7l-1.7-2.7l1.1-0.7C395.4,249.6,395.4,249.4,395.2,249.3z"/>
</g>
<g>
	<path class="st0" d="M407.8,571.1h-7.6c-1,0-1.9-0.8-1.9-1.9v-7.6c0-1,0.8-1.9,1.9-1.9h7.6c1,0,1.9,0.8,1.9,1.9v7.6
		C409.7,570.3,408.9,571.1,407.8,571.1z"/>
	<polygon class="st1" points="404,561.8 404,564.2 402,564.2 402,566.7 399.9,566.7 399.9,569.2 404,569.2 404,566.7 406.1,566.7
		406.1,564.2 408.2,564.2 408.2,561.8 	"/>
</g>
</svg>
