<?xml version="1.0" encoding="utf-8"?>
<!-- Generator: Adobe Illustrator 21.0.0, SVG Export Plug-In . SVG Version: 6.00 Build 0)  -->
<svg version="1.1" xmlns="http://www.w3.org/2000/svg" xmlns:xlink="http://www.w3.org/1999/xlink" x="0px" y="0px"
	 viewBox="0 0 880.5 858" style="enable-background:new 0 0 880.5 858;" xml:space="preserve">
<style type="text/css">
	.st0{display:none;}
	.st1{display:inline;fill:#FFFFFF;stroke:#383838;stroke-width:0.5;stroke-miterlimit:10;}
	.st2{display:inline;fill:#EBEFF1;stroke:#383838;stroke-width:0.5;stroke-miterlimit:10;}
	.st3{display:inline;fill:#EC845A;stroke:#383838;stroke-width:0.5;stroke-miterlimit:10;}
	.st4{display:inline;fill:#A2CACA;stroke:#383838;stroke-width:0.5;stroke-miterlimit:10;}
	.st5{display:inline;fill:#61A0A0;stroke:#383838;stroke-width:0.5;stroke-miterlimit:10;}
	.st6{display:inline;fill:none;stroke:#EC1E24;stroke-miterlimit:10;}
	.st7{display:inline;fill:none;stroke:#EC1C24;stroke-miterlimit:10;}
	.st8{display:inline;}
	.st9{fill:#383838;}
	.st10{font-family:'Roboto-BoldCondensed';}
	.st11{font-size:3px;}
	.st12{display:inline;fill:#FFFFFF;}
	.st13{font-family:'MyriadPro-Regular';}
	.st14{font-size:5.4128px;}
	.st15{font-size:8.9918px;}
	.st16{fill:#1D1C1A;}
	.st17{fill:#FFFFFF;}
	.st18{display:inline;opacity:0.5;}
	.st19{fill:#60A1A0;}
	.st20{fill:#BED8DF;}
	.st21{fill:#58595B;}
	.st22{fill:#61A2A1;}
	.st23{fill:#3F89BC;}
	.st24{fill:none;}
	.st25{opacity:0.5;}
	.st26{fill:#F6F6F6;}
</style>
<g id="locaux_1_" class="st0">
	<path class="st1" d="M602.8,672.5C580.9,686.1,472.4,754,467,757.3c-32,19.6-94.7,16.6-122.8-28.4c-1.4-2.3-37.8-60.5-37.8-60.5
		l21.2-13.2l-66.9-107l-21.3,13.3L220.4,531l-73.9-118.3l-11.3-18l14.3-8.9l-18.7-29.9l-12.3,7.7l-52.6-84.2l20.9-13.1l4.6,7.4
		l197-123.1l5-21.3l8.2,13.1l106.9-66.8l151,241.7l46.2-28.9l132.9,212.6l15.7-9.8l47.8,76.5L753.7,598l-9-14.4l-59,36.8l9.2,14.7
		l-83.1,51.9L602.8,672.5z"/>

		<rect x="609.9" y="660.5" transform="matrix(0.5299 0.848 -0.848 0.5299 861.5808 -207.8394)" class="st2" width="16.7" height="25.5"/>
	<path class="st1" d="M664,654.5l14.8,23.7c0,0,27.4,42.3-16.7,72.7l-15.4,9.6l-30.1-24l26.1-16.7c0,0,13.9-8.9,5.6-22.5l-14.8-23.7
		L664,654.5z"/>

		<rect x="578.4" y="375.4" transform="matrix(0.5299 0.848 -0.848 0.5299 597.8993 -316.4411)" class="st2" width="11.9" height="11.3"/>
	<path class="st2" d="M603,672.9l-48.3-77.3l-99.4,62.1l2.8,4.5l-9.3,5.8l-25.3-5.8l-3.9-6.2l-8.3-1.9l-2.3,9.9l-13.8-3.2l-10.3,6.4
		L359.9,627l-36,22.5l3.6,5.8l-21.2,13.2c0,0,37.8,60.5,38,60.9c22.8,36.5,78.7,55.9,122.8,28.4L603,672.9z"/>
	<polygon class="st2" points="261,548.7 266.1,545.5 261.6,538.2 250.3,545.3 245.7,537.9 230.5,547.3 239.7,562 	"/>

		<rect x="247.4" y="535.5" transform="matrix(0.848 -0.5299 0.5299 0.848 -247.9299 214.9125)" class="st2" width="6.7" height="8.6"/>

		<rect x="243.2" y="522.9" transform="matrix(0.848 -0.5299 0.5299 0.848 -242.7864 211.6716)" class="st2" width="9" height="12.6"/>
	<polygon class="st2" points="248.2,521.5 245.4,516.9 221.1,532.1 230.5,547.3 247.2,536.9 240.5,526.2 	"/>

		<rect x="213.8" y="506.8" transform="matrix(0.848 -0.5299 0.5299 0.848 -238.9894 199.3579)" class="st2" width="28.7" height="19.2"/>

		<rect x="199.7" y="476.7" transform="matrix(0.848 -0.5299 0.5299 0.848 -229.1527 188.4332)" class="st2" width="28.7" height="34.2"/>

		<rect x="184.6" y="458.4" transform="matrix(0.848 -0.5299 0.5299 0.848 -218.6705 176.7915)" class="st2" width="28.7" height="22.7"/>

		<rect x="182.9" y="440.2" transform="matrix(0.5299 0.848 -0.848 0.5299 474.4905 52.9944)" class="st2" width="13.2" height="28.7"/>

		<rect x="174.9" y="428.4" transform="matrix(0.5299 0.848 -0.848 0.5299 461.0958 53.6964)" class="st2" width="14.5" height="28.7"/>
	<polygon class="st2" points="190.4,429 184.3,419.3 176.7,424 170,413.3 153.3,423.7 166.1,444.2 	"/>

		<rect x="142.4" y="381.7" transform="matrix(0.5299 0.848 -0.848 0.5299 406.3086 57.3768)" class="st2" width="18.1" height="27"/>

		<rect x="293.1" y="503.9" transform="matrix(0.5299 0.848 -0.848 0.5299 576.3348 -15.692)" class="st2" width="18.4" height="16.2"/>

		<rect x="265.4" y="478.4" transform="matrix(0.5299 0.848 -0.848 0.5299 556.4664 0.7227)" class="st2" width="24.3" height="47.8"/>

		<rect x="253.4" y="458.2" transform="matrix(0.5299 0.848 -0.848 0.5299 533.4695 1.9279)" class="st2" width="23.2" height="47.8"/>
	<polygon class="st2" points="238.6,485 217.3,451 225.8,445.7 221.7,439.2 253.8,419.1 279.1,459.7 	"/>

		<rect x="214.5" y="441.2" transform="matrix(0.848 -0.5299 0.5299 0.848 -202.489 183.9433)" class="st2" width="10" height="7.7"/>

		<rect x="210.9" y="436.3" transform="matrix(0.848 -0.5299 0.5299 0.848 -199.6816 181.6493)" class="st2" width="12" height="5.3"/>

		<rect x="215.5" y="410.4" transform="matrix(0.848 -0.5299 0.5299 0.848 -187.2399 187.5356)" class="st2" width="35.8" height="19.7"/>
	<polygon class="st2" points="243.4,402.4 229,379.4 207.6,392.7 217.4,408.4 219.8,406.9 224.4,414.3 	"/>
	<polygon class="st2" points="199.9,419.4 190.1,403.7 207.6,392.7 217.4,408.4 212.3,411.6 208.3,405.1 203.8,407.9 207.8,414.4
		"/>

		<rect x="204.2" y="407.1" transform="matrix(0.5299 0.848 -0.848 0.5299 445.2935 16.1776)" class="st2" width="7.7" height="5.3"/>
	<polygon class="st2" points="210.4,439.9 207.2,434.8 208.9,433.8 207.6,431.7 216.1,426.4 220.6,433.6 	"/>

		<rect x="205.3" y="423.6" transform="matrix(0.848 -0.5299 0.5299 0.848 -194.0769 176.2486)" class="st2" width="10" height="5.8"/>
	<polygon class="st2" points="729.2,486.2 697.6,506 735.7,566.9 644.8,623.7 664,654.5 695,635.2 686,620.9 745,584 754,598.4
		802.3,568.2 754.3,491.3 738.6,501.1 	"/>
	<polygon class="st2" points="663.3,380.6 652.4,387.4 633.6,357.4 617.9,367.2 611.6,357.1 592,369.3 559.6,317.5 605.8,288.6 	"/>

		<rect x="595.4" y="382.7" transform="matrix(0.5299 0.848 -0.848 0.5299 611.1396 -330.6474)" class="st2" width="16.9" height="6.5"/>

		<rect x="188.1" y="373.7" transform="matrix(0.5299 0.848 -0.848 0.5299 421.9319 15.0554)" class="st2" width="18.7" height="28.8"/>
	<polygon class="st3" points="229,379.4 327.9,317.6 318,301.7 309.5,307 297.4,287.7 291.2,291.6 303.3,310.9 204.7,372.6
		214.6,388.4 	"/>
	<polygon class="st4" points="161.6,386.1 184.4,371.9 152.9,321.4 142.7,327.8 141.2,334.3 132.6,339.7 	"/>

		<rect x="113.8" y="336.6" transform="matrix(0.5299 0.848 -0.848 0.5299 354.0831 58.9866)" class="st2" width="20.2" height="24.7"/>

		<rect x="113.8" y="336.6" transform="matrix(0.5299 0.848 -0.848 0.5299 354.0831 58.9866)" class="st2" width="20.2" height="24.7"/>

		<rect x="57.6" y="294.3" transform="matrix(0.5299 0.848 -0.848 0.5299 305.7896 61.5175)" class="st2" width="79.6" height="24.7"/>

		<rect x="94.3" y="268.5" transform="matrix(0.5299 0.848 -0.848 0.5299 297.8717 33.5322)" class="st4" width="48.9" height="33.8"/>

		<rect x="156.8" y="189.4" transform="matrix(0.5299 0.848 -0.848 0.5299 304.6246 -44.4977)" class="st5" width="71.2" height="126.2"/>
	<rect x="151.8" y="327" transform="matrix(0.5299 0.848 -0.848 0.5299 369.9232 4.5924)" class="st2" width="58" height="18"/>

		<rect x="205.3" y="248.5" transform="matrix(0.5299 0.848 -0.848 0.5299 366.722 -56.4906)" class="st3" width="58" height="108.2"/>
	<polygon class="st2" points="312.1,159.2 252.3,196.6 261.9,212 247.2,221.2 227.1,188.9 288.4,150.6 293.4,129.3 	"/>
	<path class="st1" d="M332.1,123.3l-15-24c0,0-26-43.2-72.6-16.8l-27.2,17l30.7,23.6l15.9-9.6c0,0,14.1-8.6,22.7,4.9l15,24
		L332.1,123.3z"/>

		<rect x="174.4" y="391.1" transform="matrix(0.5299 0.848 -0.848 0.5299 419.4605 32.743)" class="st2" width="11.7" height="7.3"/>
	<polyline class="st6" points="591.2,402.6 592.3,404.5 597.1,401.5 600.1,406.2 610.8,399.5 617.1,409.5 625.8,404 616,388.3
		605.5,394.8 596.6,380.5 602.1,377.1 595.8,366.9 576.4,379 587,396 	"/>
	<polyline class="st6" points="551.5,587 546.9,579.7 506.8,604.8 516.1,619.7 	"/>
	<polyline class="st6" points="300.3,524.1 273.5,540.9 272,538.4 	"/>
	<line class="st6" x1="167.6" y1="395.7" x2="178.2" y2="412.7"/>
	<polyline class="st6" points="455.4,657.7 446,642.7 427.1,654.6 	"/>
	<polyline class="st6" points="381.9,304.3 337.1,332.3 327.9,317.6 367.6,292.7 	"/>
	<line class="st6" x1="376.5" y1="307.6" x2="371.9" y2="300.3"/>
	<line class="st6" x1="366.4" y1="314" x2="361.8" y2="306.6"/>
	<polyline class="st6" points="135.2,322.4 136.7,316 130.9,306.7 117.3,315.1 129,333.8 131.2,332.4 132.2,328.3 130,324.7 	"/>
	<line class="st6" x1="132.2" y1="328.3" x2="136.6" y2="329.3"/>
	<line class="st6" x1="149.5" y1="323.5" x2="139.7" y2="307.8"/>
	<polyline class="st6" points="143.6,314.2 153,308.4 149,302 	"/>
	<line class="st6" x1="153" y1="308.4" x2="155.1" y2="311.8"/>
	<polyline class="st6" points="285.5,304.8 289,310.3 279.2,316.4 	"/>
	<line class="st6" x1="301.6" y1="142.4" x2="322.9" y2="176.5"/>
	<line class="st7" x1="625.7" y1="404.1" x2="652.1" y2="387.5"/>
</g>
<g id="numeros" class="st0">
	<g class="st8">
		<text transform="matrix(1 0 0 1 246.3884 452.4892)" class="st9 st10 st11">0417</text>
	</g>
	<g class="st8">
		<text transform="matrix(1 0 0 1 216.0134 445.9986)" class="st9 st10 st11">0415</text>
	</g>
	<g class="st8">
		<text transform="matrix(1 0 0 1 213.8995 439.9294)" class="st9 st10 st11">0414</text>
	</g>
	<g class="st8">
		<text transform="matrix(1 0 0 1 210.401 433.5701)" class="st9 st10 st11">0413</text>
	</g>
	<g class="st8">
		<text transform="matrix(1 0 0 1 207.651 427.3201)" class="st9 st10 st11">0412</text>
	</g>
	<g class="st8">
		<text transform="matrix(1 0 0 1 223.4039 398.1951)" class="st9 st10 st11">0407</text>
	</g>
	<g class="st8">
		<text transform="matrix(1 0 0 1 205.082 411.1951)" class="st9 st10 st11">0418</text>
	</g>
	<g class="st8">
		<text transform="matrix(1 0 0 1 198.9372 404.1859)" class="st9 st10 st11">0409</text>
	</g>
	<g class="st8">
		<text transform="matrix(1 0 0 1 193.9372 389.4359)" class="st9 st10 st11">0411</text>
	</g>
	<g class="st8">
		<text transform="matrix(1 0 0 1 300.333 513.7392)" class="st9 st10 st11">0430</text>
	</g>
	<g class="st8">
		<text transform="matrix(1 0 0 1 244.208 549.9254)" class="st9 st10 st11">0401</text>
	</g>
	<g class="st8">
		<text transform="matrix(1 0 0 1 244.2079 530.4254)" class="st9 st10 st11">0402</text>
	</g>
	<g class="st8">
		<text transform="matrix(1 0 0 1 232.3329 535.1754)" class="st9 st10 st11">0406</text>
	</g>
	<g class="st8">
		<text transform="matrix(1 0 0 1 225.4579 518.0504)" class="st9 st10 st11">0403</text>
	</g>
	<g class="st8">
		<text transform="matrix(1 0 0 1 211.7079 493.7921)" class="st9 st10 st11">0404</text>
	</g>
	<g class="st8">
		<text transform="matrix(1 0 0 1 196.2079 470.4171)" class="st9 st10 st11">0422</text>
	</g>
	<g class="st8">
		<text transform="matrix(1 0 0 1 186.396 455.4171)" class="st9 st10 st11">0420</text>
	</g>
	<g class="st8">
		<text transform="matrix(1 0 0 1 179.396 443.5421)" class="st9 st10 st11">0419</text>
	</g>
	<g class="st8">
		<text transform="matrix(1 0 0 1 168.771 429.0266)" class="st9 st10 st11">0405</text>
	</g>
	<g class="st8">
		<text transform="matrix(1 0 0 1 177.271 396.1989)" class="st9 st10 st11">0408</text>
	</g>
	<g class="st8">
		<text transform="matrix(1 0 0 1 148.021 396.1987)" class="st9 st10 st11">0342</text>
	</g>
	<g class="st8">
		<text transform="matrix(1 0 0 1 273.083 504.663)" class="st9 st10 st11">0425</text>
	</g>
	<g class="st8">
		<text transform="matrix(1 0 0 1 261.958 485.0164)" class="st9 st10 st11">0424</text>
	</g>
</g>
<g id="libellé" class="st0">
	<path class="st8" d="M137.1,287.9H87.3c-1.4,0-2.5-1.1-2.5-2.5v-4.8c0-1.4,1.1-2.5,2.5-2.5h49.8c1.4,0,2.5,1.1,2.5,2.5v4.8
		C139.6,286.8,138.5,287.9,137.1,287.9z"/>
	<text transform="matrix(1 0 0 1 93.0967 284.3737)" class="st12 st13 st14">Vestiaire Femmes</text>
	<path class="st8" d="M174.2,360.7h-49.8c-1.4,0-2.5-1.1-2.5-2.5v-4.8c0-1.4,1.1-2.5,2.5-2.5h49.8c1.4,0,2.5,1.1,2.5,2.5v4.8
		C176.7,359.6,175.6,360.7,174.2,360.7z"/>
	<text transform="matrix(1 0 0 1 129.6308 357.1487)" class="st12 st13 st14">Vestiaire Hommes</text>
	<path class="st8" d="M227.4,260.7h-68.2c-1.4,0-2.5-1.1-2.5-2.5v-11.3c0-1.4,1.1-2.5,2.5-2.5h68.2c1.4,0,2.5,1.1,2.5,2.5v11.3
		C229.9,259.6,228.8,260.7,227.4,260.7z"/>
	<text transform="matrix(1 0 0 1 180.1221 255.1693)" class="st12 st13 st15">Piscine</text>
</g>
<g id="icônes" class="st0">
	<g class="st8">
		<g>
			<path class="st16" d="M254.6,545.7h-7.6c-1,0-1.9-0.8-1.9-1.9v-7.6c0-1,0.8-1.9,1.9-1.9h7.6c1,0,1.9,0.8,1.9,1.9v7.6
				C256.5,544.9,255.7,545.7,254.6,545.7z"/>
			<g>
				<path class="st17" d="M249.4,544.7h-2.1c-0.5,0-0.9-0.4-0.9-0.9v-7.3c0-0.5,0.4-0.9,0.9-0.9h2.1c0.5,0,0.9,0.4,0.9,0.9v7.3
					C250.3,544.2,249.9,544.7,249.4,544.7z"/>
				<path class="st17" d="M254.4,544.7h-2.1c-0.5,0-0.9-0.4-0.9-0.9v-7.3c0-0.5,0.4-0.9,0.9-0.9h2.1c0.5,0,0.9,0.4,0.9,0.9v7.3
					C255.3,544.2,254.9,544.7,254.4,544.7z"/>
			</g>
		</g>
		<path class="st16" d="M249.8,539.4l-1.4-1.4c-0.1-0.1-0.2-0.1-0.2,0l-1.4,1.4c-0.1,0.1,0,0.3,0.1,0.3h0.8v2.2
			c0,0.2,0.2,0.4,0.4,0.4h0.5c0.2,0,0.4-0.2,0.4-0.4v-2.2h0.8C249.9,539.7,249.9,539.5,249.8,539.4z"/>
		<path class="st16" d="M251.8,540.7l1.4,1.4c0.1,0.1,0.2,0.1,0.2,0l1.4-1.4c0.1-0.1,0-0.3-0.1-0.3h-0.8v-2.2c0-0.2-0.2-0.4-0.4-0.4
			h-0.5c-0.2,0-0.4,0.2-0.4,0.4v2.2h-0.8C251.8,540.5,251.7,540.6,251.8,540.7z"/>
	</g>
	<g class="st8">
		<g>
			<path class="st16" d="M588.2,386.8h-7.6c-1,0-1.9-0.8-1.9-1.9v-7.6c0-1,0.8-1.9,1.9-1.9h7.6c1,0,1.9,0.8,1.9,1.9v7.6
				C590.1,385.9,589.2,386.8,588.2,386.8z"/>
			<g>
				<path class="st17" d="M582.9,385.7h-2.1c-0.5,0-0.9-0.4-0.9-0.9v-7.3c0-0.5,0.4-0.9,0.9-0.9h2.1c0.5,0,0.9,0.4,0.9,0.9v7.3
					C583.9,385.3,583.4,385.7,582.9,385.7z"/>
				<path class="st17" d="M587.9,385.7h-2.1c-0.5,0-0.9-0.4-0.9-0.9v-7.3c0-0.5,0.4-0.9,0.9-0.9h2.1c0.5,0,0.9,0.4,0.9,0.9v7.3
					C588.9,385.3,588.4,385.7,587.9,385.7z"/>
			</g>
		</g>
		<path class="st16" d="M583.4,380.4l-1.4-1.4c-0.1-0.1-0.2-0.1-0.2,0l-1.4,1.4c-0.1,0.1,0,0.3,0.1,0.3h0.8v2.2
			c0,0.2,0.2,0.4,0.4,0.4h0.5c0.2,0,0.4-0.2,0.4-0.4v-2.2h0.8C583.4,380.7,583.5,380.5,583.4,380.4z"/>
		<path class="st16" d="M585.3,381.8l1.4,1.4c0.1,0.1,0.2,0.1,0.2,0l1.4-1.4c0.1-0.1,0-0.3-0.1-0.3h-0.8v-2.2c0-0.2-0.2-0.4-0.4-0.4
			h-0.5c-0.2,0-0.4,0.2-0.4,0.4v2.2h-0.8C585.3,381.5,585.2,381.7,585.3,381.8z"/>
	</g>
	<g class="st8">
		<path class="st16" d="M285.3,531h-7.6c-1,0-1.9-0.8-1.9-1.9v-7.6c0-1,0.8-1.9,1.9-1.9h7.6c1,0,1.9,0.8,1.9,1.9v7.6
			C287.1,530.1,286.3,531,285.3,531z"/>
		<polygon class="st17" points="281.5,521.6 281.5,524.1 279.4,524.1 279.4,526.5 277.3,526.5 277.3,529 281.5,529 281.5,526.5
			283.6,526.5 283.6,524.1 285.7,524.1 285.7,521.6 		"/>
	</g>
	<g class="st8">
		<path class="st16" d="M300.8,310.1h-7.6c-1,0-1.9-0.8-1.9-1.9v-7.6c0-1,0.8-1.9,1.9-1.9h7.6c1,0,1.9,0.8,1.9,1.9v7.6
			C302.7,309.2,301.9,310.1,300.8,310.1z"/>
		<polygon class="st17" points="297,300.7 297,303.2 295,303.2 295,305.6 292.9,305.6 292.9,308.1 297,308.1 297,305.6 299.1,305.6
			299.1,303.2 301.2,303.2 301.2,300.7 		"/>
	</g>
	<g class="st8">
		<path class="st16" d="M128.8,322.8h-7.6c-1,0-1.9-0.8-1.9-1.9v-7.6c0-1,0.8-1.9,1.9-1.9h7.6c1,0,1.9,0.8,1.9,1.9v7.6
			C130.7,322,129.8,322.8,128.8,322.8z"/>
		<polygon class="st17" points="125,313.5 125,315.9 122.9,315.9 122.9,318.4 120.8,318.4 120.8,320.8 125,320.8 125,318.4
			127.1,318.4 127.1,315.9 129.2,315.9 129.2,313.5 		"/>
	</g>
	<g class="st8">
		<path class="st16" d="M163.6,415.7H156c-1,0-1.9-0.8-1.9-1.9v-7.6c0-1,0.8-1.9,1.9-1.9h7.6c1,0,1.9,0.8,1.9,1.9v7.6
			C165.5,414.8,164.7,415.7,163.6,415.7z"/>
		<polygon class="st17" points="159.8,406.3 159.8,408.8 157.7,408.8 157.7,411.2 155.6,411.2 155.6,413.7 159.8,413.7 159.8,411.2
			161.9,411.2 161.9,408.8 164,408.8 164,406.3 		"/>
	</g>
	<g class="st8">
		<path class="st16" d="M536.5,604.4h-7.6c-1,0-1.9-0.8-1.9-1.9v-7.6c0-1,0.8-1.9,1.9-1.9h7.6c1,0,1.9,0.8,1.9,1.9v7.6
			C538.4,603.5,537.5,604.4,536.5,604.4z"/>
		<polygon class="st17" points="532.7,595 532.7,597.5 530.6,597.5 530.6,599.9 528.5,599.9 528.5,602.4 532.7,602.4 532.7,599.9
			534.8,599.9 534.8,597.5 536.9,597.5 536.9,595 		"/>
	</g>
	<g class="st8">
		<path class="st16" d="M626.1,406h-7.6c-1,0-1.9-0.8-1.9-1.9v-7.6c0-1,0.8-1.9,1.9-1.9h7.6c1,0,1.9,0.8,1.9,1.9v7.6
			C628,405.2,627.2,406,626.1,406z"/>
		<polygon class="st17" points="622.3,396.7 622.3,399.1 620.2,399.1 620.2,401.6 618.1,401.6 618.1,404.1 622.3,404.1 622.3,401.6
			624.4,401.6 624.4,399.1 626.5,399.1 626.5,396.7 		"/>
	</g>
	<g class="st8">
		<path class="st16" d="M447,662.6h-7.6c-1,0-1.9-0.8-1.9-1.9v-7.6c0-1,0.8-1.9,1.9-1.9h7.6c1,0,1.9,0.8,1.9,1.9v7.6
			C448.9,661.7,448,662.6,447,662.6z"/>
		<polygon class="st17" points="443.2,653.2 443.2,655.7 441.1,655.7 441.1,658.1 439,658.1 439,660.6 443.2,660.6 443.2,658.1
			445.3,658.1 445.3,655.7 447.4,655.7 447.4,653.2 		"/>
	</g>
	<g class="st8">

			<ellipse transform="matrix(0.8504 -0.5261 0.5261 0.8504 -141.7071 128.4665)" class="st16" cx="155.1" cy="313.5" rx="4.5" ry="4.5"/>
		<path class="st17" d="M157.1,314.9l0.7-2.9c0-0.1,0-0.2-0.2-0.3l-2.9-0.7c-0.2,0-0.4,0.2-0.2,0.3l0.7,1.1l-2.7,1.7
			c-0.2,0.2-0.3,0.5-0.2,0.7l0.4,0.6c0.2,0.2,0.5,0.3,0.7,0.2l2.7-1.7l0.7,1.1C156.8,315.1,157.1,315.1,157.1,314.9z"/>
	</g>
	<g class="st8">

			<ellipse transform="matrix(0.8504 -0.5261 0.5261 0.8504 -132.5274 118.7787)" class="st16" cx="142.6" cy="292.5" rx="4.5" ry="4.5"/>
		<path class="st17" d="M144.7,293.9l0.7-2.9c0-0.1,0-0.2-0.2-0.3l-2.9-0.7c-0.2,0-0.4,0.2-0.2,0.3l0.7,1.1l-2.7,1.7
			c-0.2,0.2-0.3,0.5-0.2,0.7l0.4,0.6c0.2,0.2,0.5,0.3,0.7,0.2l2.7-1.7l0.7,1.1C144.4,294.1,144.6,294.1,144.7,293.9z"/>
	</g>
	<g class="st18">
		<path class="st19" d="M177.6,280.2c-0.9,0.7-2,0.8-3.2,0c-1.5-0.9-3.2-1.1-4.8-0.2c-1.5,0.9-2.9,0.9-4.3-0.3
			c1.3-1.2,2.7-2.5,4-3.8c-1.7-2.2-3.6-3.5-6.3-3.4c0-1.1,0-2,0-3.1c2.1-0.1,4.1,0.1,5.6,1.5C171.8,274,174.7,277.1,177.6,280.2z"/>
		<path class="st19" d="M184.4,284c0,0.8,0,1.5,0,2.5c-0.9-0.3-1.8-0.5-2.5-0.9c-1.1-0.6-2.1-0.7-3.2,0c-1.7,1-3.5,1-5.2,0
			c-1-0.6-2-0.6-3,0c-1.8,1.1-3.6,1.1-5.4,0c-1-0.6-1.9-0.5-2.9,0c-0.8,0.4-1.7,0.7-2.7,1.1c0-1.1,0-1.8,0-2.6
			c0.6-0.3,1.1-0.5,1.6-0.7c1.7-0.9,3.4-1,5,0c1.2,0.7,2.2,0.7,3.4,0c1.7-1,3.4-1,5.1,0c1.1,0.7,2.1,0.7,3.2,0c1.7-1,3.4-1,5.2,0
			C183.3,283.6,183.8,283.8,184.4,284z"/>
		<path class="st19" d="M184.4,289.7c0,0.7,0,1.5,0,2.5c-0.9-0.3-1.8-0.5-2.6-0.9c-1.1-0.6-2.1-0.6-3.1,0c-1.7,1-3.5,1.1-5.2,0
			c-1.1-0.7-2.1-0.6-3.1,0c-1.7,1-3.5,1-5.2,0c-1.1-0.6-2-0.6-3.1,0c-0.7,0.4-1.6,0.6-2.5,1c0-1,0-1.8,0-2.6c0.5-0.2,1-0.4,1.6-0.7
			c1.7-0.9,3.4-1,5.1,0c1.1,0.7,2.2,0.7,3.3,0c1.7-1,3.5-1,5.1,0c1.1,0.7,2.1,0.6,3.1,0c1.7-1,3.5-1,5.2,0
			C183.3,289.3,183.8,289.5,184.4,289.7z"/>
		<path class="st19" d="M180.6,272.5c0,1.7-1.3,3.1-3.1,3.2c-1.7,0-3.2-1.3-3.2-3c-0.1-1.8,1.4-3.2,3.1-3.2
			C179.2,269.4,180.6,270.8,180.6,272.5z"/>
	</g>
	<g class="st8">
		<path class="st20" d="M439.5,423.3c7.8,0,15.5-0.3,23.1,0.1c9.7,0.5,17.1,9.1,16.9,19c-0.2,9.6-8.1,17.7-17.8,18
			c-3.2,0.1-6.5,0-10.1,0c0,3.2,0,6.3,0,9.4c0,3,0,6,0,9.1c-4.2,0-8.1,0-12.2,0C439.5,460.3,439.5,441.9,439.5,423.3z M451.7,448
			c3.1,0,5.9,0,8.8,0c0.4,0,0.9,0,1.3,0c3.1-0.2,5.6-2.5,5.9-5.5c0.3-3.2-1.6-6.3-4.7-6.7c-3.7-0.4-7.4-0.1-11.2-0.1
			C451.7,439.9,451.7,443.8,451.7,448z"/>
		<path class="st17" d="M451.7,448c0-4.2,0-8.1,0-12.2c3.7,0,7.5-0.3,11.2,0.1c3.1,0.3,5,3.5,4.7,6.7c-0.3,3-2.7,5.2-5.9,5.5
			c-0.4,0-0.9,0-1.3,0C457.7,448,454.9,448,451.7,448z"/>
	</g>
</g>
<g id="UREGENCE" class="st0">
	<g class="st8">
		<g>
			<path class="st17" d="M765.9,567.2h-8.6c-0.5,0-1-0.4-1-1v-8.6c0-0.5,0.4-1,1-1h8.6c0.5,0,1,0.4,1,1v8.6
				C766.8,566.8,766.4,567.2,765.9,567.2z"/>
			<path class="st21" d="M765.9,567.5h-8.6c-0.7,0-1.2-0.5-1.2-1.2v-8.6c0-0.7,0.5-1.2,1.2-1.2h8.6c0.7,0,1.2,0.5,1.2,1.2v8.6
				C767.1,566.9,766.6,567.5,765.9,567.5z M757.3,557c-0.4,0-0.7,0.3-0.7,0.7v8.6c0,0.4,0.3,0.7,0.7,0.7h8.6c0.4,0,0.7-0.3,0.7-0.7
				v-8.6c0-0.4-0.3-0.7-0.7-0.7H757.3z"/>
		</g>
		<polygon class="st21" points="765.2,560.9 762.7,560.9 762.7,558.3 760.6,558.3 760.6,560.9 758,560.9 758,563 760.6,563
			760.6,565.6 762.7,565.6 762.7,563 765.2,563 		"/>
	</g>
	<g class="st8">
		<g>
			<path class="st17" d="M154.3,308.2h-8.6c-0.5,0-1-0.4-1-1v-8.6c0-0.5,0.4-1,1-1h8.6c0.5,0,1,0.4,1,1v8.6
				C155.3,307.8,154.9,308.2,154.3,308.2z"/>
			<path class="st21" d="M154.3,308.5h-8.6c-0.7,0-1.2-0.5-1.2-1.2v-8.6c0-0.7,0.5-1.2,1.2-1.2h8.6c0.7,0,1.2,0.5,1.2,1.2v8.6
				C155.5,307.9,155,308.5,154.3,308.5z M145.7,297.9c-0.4,0-0.7,0.3-0.7,0.7v8.6c0,0.4,0.3,0.7,0.7,0.7h8.6c0.4,0,0.7-0.3,0.7-0.7
				v-8.6c0-0.4-0.3-0.7-0.7-0.7H145.7z"/>
		</g>
		<polygon class="st21" points="153.7,301.9 151.1,301.9 151.1,299.3 149,299.3 149,301.9 146.4,301.9 146.4,304 149,304 149,306.6
			151.1,306.6 151.1,304 153.7,304 		"/>
	</g>
	<g class="st8">
		<g>
			<path class="st17" d="M209,299.9h-8.6c-0.5,0-1-0.4-1-1v-8.6c0-0.5,0.4-1,1-1h8.6c0.5,0,1,0.4,1,1v8.6
				C209.9,299.5,209.5,299.9,209,299.9z"/>
			<path class="st21" d="M209,300.2h-8.6c-0.7,0-1.2-0.5-1.2-1.2v-8.6c0-0.7,0.5-1.2,1.2-1.2h8.6c0.7,0,1.2,0.5,1.2,1.2v8.6
				C210.2,299.6,209.6,300.2,209,300.2z M200.4,289.7c-0.4,0-0.7,0.3-0.7,0.7v8.6c0,0.4,0.3,0.7,0.7,0.7h8.6c0.4,0,0.7-0.3,0.7-0.7
				v-8.6c0-0.4-0.3-0.7-0.7-0.7H200.4z"/>
		</g>
		<polygon class="st21" points="208.3,293.6 205.7,293.6 205.7,291 203.6,291 203.6,293.6 201.1,293.6 201.1,295.7 203.6,295.7
			203.6,298.3 205.7,298.3 205.7,295.7 208.3,295.7 		"/>
	</g>
	<g class="st8">
		<g>
			<path class="st17" d="M188.7,346.9h-8.6c-0.5,0-1-0.4-1-1v-8.6c0-0.5,0.4-1,1-1h8.6c0.5,0,1,0.4,1,1v8.6
				C189.6,346.5,189.2,346.9,188.7,346.9z"/>
			<path class="st21" d="M188.7,347.1h-8.6c-0.7,0-1.2-0.5-1.2-1.2v-8.6c0-0.7,0.5-1.2,1.2-1.2h8.6c0.7,0,1.2,0.5,1.2,1.2v8.6
				C189.9,346.6,189.3,347.1,188.7,347.1z M180.1,336.6c-0.4,0-0.7,0.3-0.7,0.7v8.6c0,0.4,0.3,0.7,0.7,0.7h8.6
				c0.4,0,0.7-0.3,0.7-0.7v-8.6c0-0.4-0.3-0.7-0.7-0.7H180.1z"/>
		</g>
		<polygon class="st21" points="188,340.6 185.4,340.6 185.4,338 183.3,338 183.3,340.6 180.8,340.6 180.8,342.7 183.3,342.7
			183.3,345.2 185.4,345.2 185.4,342.7 188,342.7 		"/>
	</g>
	<g class="st8">
		<g>
			<path class="st17" d="M242.1,515.4h-8.6c-0.5,0-1-0.4-1-1v-8.6c0-0.5,0.4-1,1-1h8.6c0.5,0,1,0.4,1,1v8.6
				C243.1,515,242.7,515.4,242.1,515.4z"/>
			<path class="st21" d="M242.1,515.7h-8.6c-0.7,0-1.2-0.5-1.2-1.2v-8.6c0-0.7,0.5-1.2,1.2-1.2h8.6c0.7,0,1.2,0.5,1.2,1.2v8.6
				C243.3,515.1,242.8,515.7,242.1,515.7z M233.5,505.1c-0.4,0-0.7,0.3-0.7,0.7v8.6c0,0.4,0.3,0.7,0.7,0.7h8.6
				c0.4,0,0.7-0.3,0.7-0.7v-8.6c0-0.4-0.3-0.7-0.7-0.7H233.5z"/>
		</g>
		<polygon class="st21" points="241.5,509.1 238.9,509.1 238.9,506.5 236.8,506.5 236.8,509.1 234.2,509.1 234.2,511.2 236.8,511.2
			236.8,513.8 238.9,513.8 238.9,511.2 241.5,511.2 		"/>
	</g>
	<g class="st8">
		<g>
			<path class="st17" d="M421.9,694h-8.6c-0.5,0-1-0.4-1-1v-8.6c0-0.5,0.4-1,1-1h8.6c0.5,0,1,0.4,1,1v8.6
				C422.8,693.5,422.4,694,421.9,694z"/>
			<path class="st21" d="M421.9,694.2h-8.6c-0.7,0-1.2-0.5-1.2-1.2v-8.6c0-0.7,0.5-1.2,1.2-1.2h8.6c0.7,0,1.2,0.5,1.2,1.2v8.6
				C423.1,693.7,422.6,694.2,421.9,694.2z M413.3,683.7c-0.4,0-0.7,0.3-0.7,0.7v8.6c0,0.4,0.3,0.7,0.7,0.7h8.6
				c0.4,0,0.7-0.3,0.7-0.7v-8.6c0-0.4-0.3-0.7-0.7-0.7H413.3z"/>
		</g>
		<polygon class="st21" points="421.2,687.6 418.7,687.6 418.7,685 416.6,685 416.6,687.6 414,687.6 414,689.7 416.6,689.7
			416.6,692.3 418.7,692.3 418.7,689.7 421.2,689.7 		"/>
	</g>
</g>
<g id="ACCESSIBILITÉ">
	<g>
		<g>
			<circle class="st22" cx="571" cy="389.4" r="6"/>
		</g>
		<g>
			<circle class="st23" cx="571" cy="389.4" r="6"/>
		</g>
		<g>
			<g>
				<path class="st24" d="M569.2,390.3l2.6-3.4l4.9,4.5c0.2-0.6,0.3-1.2,0.3-1.9c0-3.3-2.7-6-6-6s-6,2.7-6,6s2.7,6,6,6
					c0.9,0,1.8-0.2,2.6-0.6L569.2,390.3z"/>
			</g>
			<g class="st25">
				<path class="st23" d="M568.2,389.6l0.4,2.1l4.4,3.4c1.8-0.7,3.3-2.2,3.7-4l-6.6-4.6l-0.1,1.5l-0.5,0.5L568.2,389.6z"/>
			</g>
		</g>
		<g>
			<path class="st26" d="M569.7,386.9c0-0.1,0-0.2,0-0.3c0-0.1,0-0.2,0-0.3c0-0.1,0.1-0.2,0.1-0.2s0.1-0.1,0.2-0.1
				c0.1,0,0.2,0,0.3,0s0.2,0,0.3,0c0.1,0,0.2,0.1,0.2,0.1s0.1,0.1,0.1,0.2c0,0.1,0,0.2,0,0.3c0,0.2-0.1,0.3-0.2,0.5
				c-0.1,0.1-0.3,0.2-0.5,0.2c-0.1,0-0.2,0-0.3,0s-0.2-0.1-0.2-0.1C569.8,387,569.7,387,569.7,386.9L569.7,386.9z M572.3,390.6
				c-0.1,0-0.2,0-0.2,0s-0.1,0.1-0.1,0.2c0,0.1,0,0.1-0.1,0.2c-0.1,0.2-0.1,0.3-0.3,0.5c-0.1,0.1-0.2,0.3-0.4,0.4
				c-0.1,0.1-0.3,0.2-0.5,0.2c-0.2,0.1-0.4,0.1-0.5,0.1c-0.2,0-0.5,0-0.7-0.1c-0.2-0.1-0.4-0.2-0.6-0.4c-0.2-0.2-0.3-0.3-0.4-0.5
				c-0.1-0.2-0.1-0.4-0.1-0.7c0-0.2,0-0.3,0.1-0.5s0.1-0.3,0.2-0.5s0.2-0.3,0.4-0.4s0.3-0.2,0.5-0.3c0.1,0,0.1-0.1,0.2-0.1
				s0-0.1,0-0.2s-0.1-0.1-0.2-0.2c-0.1,0-0.1,0-0.2,0c-0.2,0.1-0.4,0.2-0.6,0.3c-0.2,0.1-0.3,0.3-0.5,0.5c-0.1,0.2-0.2,0.4-0.3,0.6
				c-0.1,0.2-0.1,0.4-0.1,0.7c0,0.3,0.1,0.6,0.2,0.9c0.1,0.3,0.3,0.5,0.5,0.7c0.2,0.2,0.5,0.4,0.7,0.5c0.3,0.1,0.6,0.2,0.9,0.2
				c0.3,0,0.5,0,0.7-0.1c0.2-0.1,0.4-0.2,0.6-0.3c0.2-0.1,0.4-0.3,0.5-0.5c0.1-0.2,0.3-0.4,0.3-0.6c0-0.1,0.1-0.2,0.1-0.3
				c0-0.1,0-0.2,0-0.2C572.4,390.6,572.4,390.6,572.3,390.6L572.3,390.6z M574.1,391.7l-1.1-1.9c0-0.1-0.1-0.1-0.2-0.2
				c-0.1,0-0.2-0.1-0.3-0.1h-1.2l-0.1-0.7h0.9c0.1,0,0.1,0,0.2,0c0,0,0.1-0.1,0.1-0.1c0-0.1,0-0.1,0-0.2c0-0.1-0.1-0.1-0.1-0.2
				c0,0-0.1,0-0.1,0h-1.1l0-0.3c0,0,0,0,0,0v0l0,0c0-0.1-0.1-0.2-0.2-0.3c-0.1-0.1-0.2-0.1-0.3-0.1c-0.2,0-0.3,0-0.4,0.2
				c-0.1,0.1-0.2,0.2-0.2,0.4c0,0,0,0,0,0.1h0l0.4,1.9c0,0.1,0.1,0.2,0.2,0.3c0.1,0.1,0.2,0.1,0.3,0.1c0,0,0.1,0,0.1,0h1.6l0.9,1.6
				c0,0.1,0.1,0.1,0.1,0.2c0.1,0,0.1,0.1,0.2,0.1c0.1,0,0.2,0,0.3-0.1c0.1-0.1,0.1-0.1,0.1-0.2C574.2,391.8,574.1,391.7,574.1,391.7
				L574.1,391.7z"/>
		</g>
	</g>
	<g>
		<g>
			<circle class="st22" cx="260.1" cy="532.5" r="6"/>
		</g>
		<g>
			<circle class="st23" cx="260.1" cy="532.5" r="6"/>
		</g>
		<g>
			<g>
				<path class="st24" d="M258.2,533.3l2.6-3.4l4.9,4.5c0.2-0.6,0.3-1.2,0.3-1.9c0-3.3-2.7-6-6-6c-3.3,0-6,2.7-6,6s2.7,6,6,6
					c0.9,0,1.8-0.2,2.6-0.6L258.2,533.3z"/>
			</g>
			<g class="st25">
				<path class="st23" d="M257.2,532.6l0.4,2.1l4.4,3.4c1.8-0.7,3.3-2.2,3.7-4l-6.6-4.6l-0.1,1.5l-0.5,0.5L257.2,532.6z"/>
			</g>
		</g>
		<g>
			<path class="st26" d="M258.7,530c0-0.1,0-0.2,0-0.3s0-0.2,0-0.3c0-0.1,0.1-0.2,0.1-0.2c0.1-0.1,0.1-0.1,0.2-0.1
				c0.1,0,0.2,0,0.3,0c0.1,0,0.2,0,0.3,0c0.1,0,0.2,0.1,0.2,0.1c0.1,0.1,0.1,0.1,0.1,0.2c0,0.1,0,0.2,0,0.3c0,0.2-0.1,0.3-0.2,0.5
				c-0.1,0.1-0.3,0.2-0.5,0.2c-0.1,0-0.2,0-0.3,0c-0.1,0-0.2-0.1-0.2-0.1C258.8,530.1,258.8,530,258.7,530L258.7,530z M261.3,533.6
				c-0.1,0-0.2,0-0.2,0c-0.1,0-0.1,0.1-0.1,0.2s0,0.1-0.1,0.2c-0.1,0.2-0.1,0.3-0.3,0.5c-0.1,0.1-0.2,0.3-0.4,0.4
				c-0.1,0.1-0.3,0.2-0.5,0.2c-0.2,0.1-0.4,0.1-0.5,0.1c-0.2,0-0.5,0-0.7-0.1c-0.2-0.1-0.4-0.2-0.6-0.4c-0.2-0.2-0.3-0.3-0.4-0.5
				c-0.1-0.2-0.1-0.4-0.1-0.7c0-0.2,0-0.3,0.1-0.5c0.1-0.2,0.1-0.3,0.2-0.5c0.1-0.1,0.2-0.3,0.4-0.4c0.1-0.1,0.3-0.2,0.5-0.3
				c0.1,0,0.1-0.1,0.2-0.1c0-0.1,0-0.1,0-0.2c0-0.1-0.1-0.1-0.2-0.2c-0.1,0-0.1,0-0.2,0c-0.2,0.1-0.4,0.2-0.6,0.3
				c-0.2,0.1-0.3,0.3-0.5,0.5c-0.1,0.2-0.2,0.4-0.3,0.6c-0.1,0.2-0.1,0.4-0.1,0.7c0,0.3,0.1,0.6,0.2,0.9c0.1,0.3,0.3,0.5,0.5,0.7
				c0.2,0.2,0.5,0.4,0.7,0.5c0.3,0.1,0.6,0.2,0.9,0.2c0.3,0,0.5,0,0.7-0.1c0.2-0.1,0.4-0.2,0.6-0.3c0.2-0.1,0.4-0.3,0.5-0.5
				c0.1-0.2,0.3-0.4,0.3-0.6c0-0.1,0.1-0.2,0.1-0.3c0-0.1,0-0.2,0-0.2C261.5,533.7,261.4,533.6,261.3,533.6L261.3,533.6z
				 M263.1,534.7l-1.1-1.9c0-0.1-0.1-0.1-0.2-0.2c-0.1,0-0.2-0.1-0.3-0.1h-1.2l-0.1-0.7h0.9c0.1,0,0.1,0,0.2,0c0,0,0.1-0.1,0.1-0.1
				c0-0.1,0-0.1,0-0.2c0-0.1-0.1-0.1-0.1-0.2c0,0-0.1,0-0.1,0h-1.1l0-0.3c0,0,0,0,0,0v0l0,0c0-0.1-0.1-0.2-0.2-0.3
				c-0.1-0.1-0.2-0.1-0.3-0.1c-0.2,0-0.3,0-0.4,0.2c-0.1,0.1-0.2,0.2-0.2,0.4c0,0,0,0,0,0.1h0l0.4,1.9c0,0.1,0.1,0.2,0.2,0.3
				c0.1,0.1,0.2,0.1,0.3,0.1c0,0,0.1,0,0.1,0h1.6l0.9,1.6c0,0.1,0.1,0.1,0.1,0.2c0.1,0,0.1,0.1,0.2,0.1c0.1,0,0.2,0,0.3-0.1
				c0.1-0.1,0.1-0.1,0.1-0.2C263.2,534.8,263.2,534.8,263.1,534.7L263.1,534.7z"/>
		</g>
	</g>
</g>
</svg>
