<?xml version="1.0" encoding="utf-8"?>
<!-- Generator: Adobe Illustrator 20.1.0, SVG Export Plug-In . SVG Version: 6.00 Build 0)  -->
<svg version="1.1" id="Layer_1" xmlns="http://www.w3.org/2000/svg" xmlns:xlink="http://www.w3.org/1999/xlink" x="0px" y="0px"
	 viewBox="0 0 777 823.5" style="enable-background:new 0 0 777 823.5;" xml:space="preserve">
<style type="text/css">
	.st0{fill:#FFFFFF;stroke:#383938;stroke-width:0.5;stroke-miterlimit:10;}
	.st1{fill:#ECF0F2;stroke:#383938;stroke-width:0.5;stroke-miterlimit:10;}
	.st2{fill:#BFD9E0;stroke:#383938;stroke-width:0.5;stroke-miterlimit:10;}
	.st3{fill:#A3CBCB;stroke:#383938;stroke-width:0.5;stroke-miterlimit:10;}
	.st4{fill:#62A2A1;stroke:#383938;stroke-width:0.5;stroke-miterlimit:10;}
	.st5{fill:#ED855A;stroke:#383938;stroke-width:0.5;stroke-miterlimit:10;}
	.st6{fill:none;stroke:#383938;stroke-width:0.5;stroke-miterlimit:10;}
</style>
<g id="locaux">
	<polygon class="st0" points="642.6,497.7 745.9,717 698.4,739.9 708.1,755.3 664.5,782.6 576.8,642.2 592.6,632.4 583.7,618.1
		591.4,613.3 556.7,537.4 	"/>
	<path class="st0" d="M35.9,195.8l17.8,28.4l91.9,147.3l39.7,63.5l21.3-13.3l29.5,47.2l-21.2,13.2c0,0,32.4,52.8,40.5,64.9
		c33.2,49.3,90.9,47.9,122.8,28.4c6-3.7,143.7-89.8,143.7-89.8l-38.6-61.7l-9.6,6l-7.2-11.4l3.7-2.3l-13.2-21.2l-30.7,19.2
		l-58.3-93.3l31.2-19.5l-80.6-129L222,232.6l40.2,64.3l-37.9,23.7l-89.1-142.6l-38,23.8l-9.9-15.8l-19.9,12.5l-10-16L35.9,195.8z"/>
	<polygon class="st1" points="707,735.7 692.3,704.4 731.4,686.2 745.9,717 	"/>
	<polygon class="st1" points="692.3,704.4 678.5,674.7 717.6,656.9 731.4,686.2 	"/>
	<polygon class="st1" points="678.5,674.7 664.9,645.1 703.5,627 717.6,656.9 	"/>
	<polygon class="st1" points="703.5,627 689.7,597.6 650.7,615.4 664.9,645.1 	"/>
	<polygon class="st1" points="650.7,615.4 636.9,586.1 675.6,567.8 689.7,597.6 	"/>
	<polygon class="st1" points="636.9,586.1 623.6,556.7 661.9,538.7 675.6,567.8 	"/>
	<polygon class="st1" points="623.6,556.7 620.4,550.3 626.4,547.5 622.7,539.9 625.6,538.6 620.7,529 634.8,523 645,526.2 654,522
		661.9,538.7 	"/>
	<polygon class="st1" points="620.7,529 612.3,511.7 642.6,497.7 654,522 645,526.2 634.8,523 	"/>
	<polygon class="st1" points="692.6,765 674,735.2 681.3,730.7 677,723.9 641.7,746 664.5,782.6 	"/>
	<polygon class="st1" points="666.5,722.3 648.5,693.4 620,711.3 641.7,746 677,723.9 673.3,718 	"/>
	<polygon class="st1" points="648.5,693.4 631,665.4 637.8,661.2 633.8,654.8 598.5,676.9 620,711.3 	"/>
	
		<rect x="633.9" y="659.7" transform="matrix(0.848 -0.5299 0.5299 0.848 -256.1552 441.89)" class="st1" width="17" height="15.8"/>
	<rect x="644" y="672.6" transform="matrix(0.848 -0.5299 0.5299 0.848 -263.1331 449.6398)" class="st2" width="17" height="22"/>
	
		<rect x="618.4" y="636.6" transform="matrix(0.848 -0.5299 0.5299 0.848 -245.3128 429.8466)" class="st1" width="17" height="12"/>
	
		<rect x="609.6" y="618.2" transform="matrix(0.848 -0.5299 0.5299 0.848 -239.234 423.0944)" class="st1" width="17" height="20.9"/>
	
		<rect x="657.5" y="690.8" transform="matrix(0.848 -0.5299 0.5299 0.848 -272.5693 460.1216)" class="st2" width="17" height="29.2"/>
	<polygon class="st1" points="633.8,654.8 629.6,648.1 622.8,652.3 605.4,624.4 576.8,642.2 598.5,676.9 	"/>
	<polygon class="st1" points="589.4,609.1 610.1,599.9 601,585.3 582.4,593.7 	"/>
	<polygon class="st1" points="601,585.3 592.1,571.1 575.6,578.7 582.4,593.7 	"/>
	<polygon class="st1" points="592.1,571.1 583.4,557.2 568.8,564 575.6,578.7 	"/>
	<polygon class="st1" points="583.4,557.2 574.9,543.6 562.2,549.3 568.8,564 	"/>
	<polygon class="st1" points="574.9,543.6 567.8,532.3 556.7,537.4 562.2,549.3 	"/>
	<polygon class="st1" points="620.4,550.3 616.3,552.3 610.7,541 620.9,536.2 626.4,547.5 	"/>
	<polygon class="st1" points="622.7,539.9 625.6,538.6 619.9,527.5 590.3,540.5 594.4,547.1 601.8,543.4 602.5,545 620.9,536.2 	"/>
	<polygon class="st1" points="483.3,423.9 456.5,440.6 488.8,492.3 485.6,494.3 491.8,504.3 521.8,485.6 	"/>
	<polygon class="st1" points="456.5,440.6 400,475.9 416.7,502.6 424.6,504.4 476.2,472.2 	"/>
	<polygon class="st1" points="476.2,472.2 488.8,492.3 485.6,494.3 491.8,504.3 438.5,537.6 423.5,513.6 424.9,504.5 	"/>
	<polygon class="st1" points="423.5,513.6 417.2,517.6 415.6,515.1 383.9,534.9 400.5,561.4 438.5,537.6 	"/>
	
		<rect x="378" y="548.8" transform="matrix(0.848 -0.5299 0.5299 0.848 -236.9679 290.1552)" class="st1" width="18.8" height="19"/>
	
		<rect x="375" y="537.4" transform="matrix(0.848 -0.5299 0.5299 0.848 -230.0398 284.7951)" class="st1" width="13.2" height="12.2"/>
	<polygon class="st1" points="372.8,541.8 362,548.5 368.5,558.9 374.5,555.2 379.3,552.2 	"/>
	<polygon class="st1" points="362,548.5 349,556.7 332.6,559.3 333.3,572.6 348.3,571.6 368.5,558.9 	"/>
	<path class="st1" d="M362.7,562.5l9.9,15.9c0,0,4.8-2.6,7.4-4.2l4.5-2.8l-10.1-16.1L362.7,562.5z"/>
	<path class="st1" d="M372.6,578.4c0,0-12.2,6-21.7,7.5l-2.6-14.4l14.4-9L372.6,578.4z"/>
	<path class="st1" d="M350.9,585.9c0,0-11.1,2-16.7,2l-1-15.3l15.1-1.1L350.9,585.9z"/>
	<path class="st1" d="M332.6,559.3l-9-2.1l-3.9,30.1c0,0,8.1,1.1,14.6,0.6L332.6,559.3z"/>
	<path class="st1" d="M304.5,584.1l9.8-28.9l-9.5-2.2l-14.9-9.5l-6.6-8.1l-22.7,18.8C260.6,554.1,277.1,576.2,304.5,584.1z"/>
	<path class="st1" d="M260.6,554.1l22.7-18.8l-5.7-8l-21.4-34.2l-25,15.6l23.9,38.3C255.2,547.1,259.3,553,260.6,554.1z"/>
	<polygon class="st1" points="256.3,493.2 260.2,490.7 243.6,464.1 214.8,482.1 231.4,508.7 	"/>
	
		<rect x="250.1" y="455.4" transform="matrix(0.848 -0.5299 0.5299 0.848 -209.8109 210.4486)" class="st1" width="23.9" height="31.4"/>
	
		<rect x="269.6" y="447.8" transform="matrix(0.848 -0.5299 0.5299 0.848 -202.0655 214.5482)" class="st1" width="6.9" height="23.6"/>
	
		<rect x="388.9" y="482.6" transform="matrix(0.848 -0.5299 0.5299 0.848 -203.8829 285.8496)" class="st1" width="15.1" height="31.7"/>
	<polygon class="st1" points="381.7,489 354.4,506.1 337.4,502.1 327.4,545.3 335.7,547.2 349.3,546.7 398.5,515.9 	"/>
	<polygon class="st1" points="375,493.2 350.2,487.5 346.4,504.2 354.4,506.1 	"/>
	<polygon class="st1" points="317,542.9 309.6,541.3 304.1,538.1 306.6,527.4 319.9,530.5 	"/>
	<polygon class="st1" points="319.9,530.5 322.5,519.2 309.4,515.8 306.6,527.4 	"/>
	<polygon class="st1" points="322.5,519.2 326.7,501.1 305.5,496.2 302,514 	"/>
	<polygon class="st1" points="301.7,514.1 288.8,522.2 297.8,533.8 304.1,538.1 309.4,515.8 	"/>
	<polygon class="st1" points="302.8,508.9 294.1,506.6 283.3,513.3 288.8,522.2 301.7,514.1 	"/>
	<polygon class="st1" points="318,499.1 322.3,480.6 309.7,477.7 305.5,496.2 	"/>
	<polygon class="st1" points="283.3,513.3 271.7,494.7 279.4,489.8 285.1,491.1 293.6,485.8 297,491.4 294.1,506.6 	"/>
	<polygon class="st1" points="295.6,498.7 304.5,500.9 302.8,508.9 294.1,506.6 	"/>
	
		<rect x="435.8" y="423.1" transform="matrix(0.848 -0.5299 0.5299 0.848 -157.8211 301.8331)" class="st1" width="23.2" height="5.9"/>
	
		<rect x="421.8" y="429.3" transform="matrix(0.848 -0.5299 0.5299 0.848 -164.9592 293.6989)" class="st3" width="15.7" height="10.4"/>
	
		<rect x="416.2" y="420.4" transform="matrix(0.848 -0.5299 0.5299 0.848 -161.1167 289.4315)" class="st3" width="15.7" height="10.4"/>
	
		<rect x="410.9" y="412.4" transform="matrix(0.848 -0.5299 0.5299 0.848 -157.4278 285.3348)" class="st3" width="15.7" height="9.6"/>
	<polygon class="st3" points="423,408.9 409.6,417.3 405.9,415.1 401.4,407.8 416.4,398.4 	"/>
	
		<rect x="396.9" y="392.2" transform="matrix(0.848 -0.5299 0.5299 0.848 -149.2928 275.5107)" class="st3" width="17.7" height="11.8"/>
	
		<rect x="393.5" y="374.5" transform="matrix(0.848 -0.5299 0.5299 0.848 -142.642 270.217)" class="st3" width="12.7" height="18.6"/>
	
		<rect x="401" y="438.9" transform="matrix(0.848 -0.5299 0.5299 0.848 -173.4264 283.571)" class="st3" width="13.5" height="10.7"/>
	
		<rect x="395.5" y="430.1" transform="matrix(0.848 -0.5299 0.5299 0.848 -169.5432 279.293)" class="st3" width="13.5" height="10.3"/>
	
		<rect x="390" y="421.2" transform="matrix(0.848 -0.5299 0.5299 0.848 -165.7009 275.0255)" class="st3" width="13.5" height="10.5"/>
	
		<rect x="380.8" y="438.2" transform="matrix(0.848 -0.5299 0.5299 0.848 -177.9052 274.9865)" class="st2" width="19.4" height="19"/>
	
		<rect x="365.4" y="448.2" transform="matrix(0.848 -0.5299 0.5299 0.848 -185.6374 268.024)" class="st2" width="18.3" height="19"/>
	
		<rect x="379.6" y="425.2" transform="matrix(0.848 -0.5299 0.5299 0.848 -170.3321 269.8285)" class="st3" width="11.5" height="13.4"/>
	
		<rect x="365.1" y="432.7" transform="matrix(0.848 -0.5299 0.5299 0.848 -176.1013 264.6331)" class="st3" width="16.7" height="13.4"/>
	
		<rect x="350.9" y="441.5" transform="matrix(0.848 -0.5299 0.5299 0.848 -182.9293 258.4846)" class="st3" width="16.7" height="13.4"/>
	
		<rect x="380.2" y="405.8" transform="matrix(0.848 -0.5299 0.5299 0.848 -158.9279 267.4624)" class="st3" width="13.5" height="10"/>
	
		<rect x="374.8" y="397.3" transform="matrix(0.848 -0.5299 0.5299 0.848 -155.2238 263.3488)" class="st3" width="13.5" height="10"/>
	<polygon class="st3" points="367.7,393 373.2,401.6 384.7,394.5 379.3,386 	"/>
	<polygon class="st1" points="356.2,400.2 361.7,408.8 373.2,401.6 367.7,393 	"/>
	
		<rect x="365.9" y="403.7" transform="matrix(0.848 -0.5299 0.5299 0.848 -162.6318 260.4024)" class="st2" width="13.6" height="20.1"/>
	
		<rect x="358" y="417.7" transform="matrix(0.848 -0.5299 0.5299 0.848 -169.3098 257.2792)" class="st3" width="12" height="12.3"/>
	
		<rect x="346.2" y="418.2" transform="matrix(0.848 -0.5299 0.5299 0.848 -173.0243 251.5696)" class="st2" width="12" height="18.7"/>
	
		<rect x="331.4" y="397" transform="matrix(0.848 -0.5299 0.5299 0.848 -162.2021 241.019)" class="st1" width="15.5" height="12.7"/>
	
		<rect x="337.9" y="407.8" transform="matrix(0.848 -0.5299 0.5299 0.848 -166.6979 246.012)" class="st1" width="15.5" height="11.7"/>
	
		<rect x="324.5" y="385.7" transform="matrix(0.848 -0.5299 0.5299 0.848 -157.4156 235.7034)" class="st1" width="15.5" height="13.2"/>
	
		<rect x="317.8" y="375.4" transform="matrix(0.848 -0.5299 0.5299 0.848 -152.7116 230.4801)" class="st1" width="15.5" height="12.2"/>
	
		<rect x="311.3" y="365" transform="matrix(0.848 -0.5299 0.5299 0.848 -148.1929 225.4616)" class="st1" width="15.5" height="12.2"/>
	
		<rect x="304.8" y="354.6" transform="matrix(0.848 -0.5299 0.5299 0.848 -143.6734 220.4431)" class="st1" width="15.5" height="12.2"/>
	
		<rect x="312.1" y="418.6" transform="matrix(0.848 -0.5299 0.5299 0.848 -176.7063 235.8352)" class="st3" width="21.5" height="14.9"/>
	<polygon class="st3" points="309.8,425.4 302.3,430.1 328.5,472.1 332.3,472.9 355.7,458.3 336,426.6 317.7,438.1 	"/>
	<polygon class="st1" points="328.5,472.1 302.8,466.6 300.8,463.3 316.8,453.3 	"/>
	
		<rect x="296.5" y="448.5" transform="matrix(0.848 -0.5299 0.5299 0.848 -194.9768 229.5287)" class="st1" width="12.4" height="12.5"/>
	<polygon class="st1" points="316.8,453.3 311.3,456.8 304.7,446.2 294.2,452.8 280.9,431.5 296.9,421.5 	"/>
	
		<rect x="276.9" y="417.5" transform="matrix(0.848 -0.5299 0.5299 0.848 -181.2904 214.3276)" class="st1" width="12.4" height="11.6"/>
	
		<rect x="270.3" y="406.1" transform="matrix(0.848 -0.5299 0.5299 0.848 -176.7032 209.2319)" class="st1" width="12.4" height="13.2"/>
	
		<rect x="258.4" y="385" transform="matrix(0.848 -0.5299 0.5299 0.848 -168.4816 200.0738)" class="st4" width="12.4" height="17.6"/>
	
		<rect x="279" y="371.6" transform="matrix(0.848 -0.5299 0.5299 0.848 -162.7777 212.3112)" class="st0" width="19.6" height="36.7"/>
	
		<rect x="295.8" y="361.6" transform="matrix(0.848 -0.5299 0.5299 0.848 -155.0491 219.2693)" class="st0" width="18.1" height="36.7"/>
	
		<rect x="222.9" y="423.2" transform="matrix(0.848 -0.5299 0.5299 0.848 -197.4432 195.8572)" class="st1" width="39.8" height="38"/>
	
		<rect x="202.9" y="391.6" transform="matrix(0.848 -0.5299 0.5299 0.848 -183.5427 180.4204)" class="st1" width="39.8" height="37.4"/>
	
		<rect x="182.9" y="359.3" transform="matrix(0.848 -0.5299 0.5299 0.848 -169.6367 164.9776)" class="st1" width="39.8" height="38"/>
	
		<rect x="163.7" y="359.7" transform="matrix(0.848 -0.5299 0.5299 0.848 -183.5126 153.6885)" class="st0" width="25" height="74.2"/>
	
		<rect x="257.6" y="280.8" transform="matrix(0.848 -0.5299 0.5299 0.848 -111.5908 184.806)" class="st4" width="17.8" height="12.3"/>
	
		<rect x="244" y="258.8" transform="matrix(0.848 -0.5299 0.5299 0.848 -102.1532 174.3252)" class="st4" width="17.8" height="12.9"/>
	
		<rect x="229.5" y="221.3" transform="matrix(0.848 -0.5299 0.5299 0.848 -89.9627 166.5548)" class="st4" width="31.8" height="37.7"/>
	
		<rect x="257.2" y="207.1" transform="matrix(0.848 -0.5299 0.5299 0.848 -78.9443 176.4766)" class="st4" width="22" height="37.7"/>
	
		<rect x="250.9" y="269.8" transform="matrix(0.848 -0.5299 0.5299 0.848 -106.9255 179.6253)" class="st4" width="17.8" height="13"/>
	<polygon class="st4" points="274.3,214.8 288.2,206.1 292,212.2 296.9,209.1 286.4,192.3 267.6,204.1 	"/>
	<polygon class="st4" points="292,212.2 296.9,209.1 306.3,224.3 287.6,236 274.3,214.8 288.2,206.1 	"/>
	<polygon class="st4" points="306.3,224.3 321.8,214.6 315.9,205.2 321.8,201.5 318.3,195.8 296.9,209.1 	"/>
	
		<rect x="317.4" y="199.1" transform="matrix(0.848 -0.5299 0.5299 0.848 -58.7526 204.5032)" class="st4" width="19.7" height="11.1"/>
	
		<rect x="313.8" y="173.6" transform="matrix(0.848 -0.5299 0.5299 0.848 -50.3617 198.0663)" class="st4" width="12.7" height="26.5"/>
	
		<rect x="301.4" y="180.8" transform="matrix(0.848 -0.5299 0.5299 0.848 -54.2976 192.0191)" class="st4" width="12.6" height="19.8"/>
	
		<rect x="290.6" y="187.5" transform="matrix(0.848 -0.5299 0.5299 0.848 -59.4905 187.3634)" class="st4" width="12.6" height="19.8"/>
	<polygon class="st4" points="290.2,410.8 296.9,421.5 291.4,424.9 278.2,403.9 267.7,410.4 264.1,404.6 274.6,398 265.2,383.1
		254.7,389.6 215.1,326.3 277.3,287.5 257,255.1 338.5,204.2 399.2,301.3 367.9,320.8 400.3,372.6 379.2,385.8 356.2,400.2
		365.8,415.5 355.6,421.8 352.3,416.4 355.3,414.5 315.9,351.4 302.7,359.6 302.7,359.6 287.4,369.2 287.4,369.2 270.7,379.6 	"/>
	
		<rect x="372.4" y="227.8" transform="matrix(0.848 -0.5299 0.5299 0.848 -77.8057 240.7772)" class="st4" width="17.1" height="56.6"/>
	<polygon class="st0" points="560.8,351.7 481.7,225.2 545.1,185.6 604.7,281 573,300.8 592.5,331.9 	"/>
	
		<rect x="555" y="331.7" transform="matrix(0.848 -0.5299 0.5299 0.848 -95.4618 348.9177)" class="st0" width="11.2" height="18.4"/>
	
		<rect x="485.8" y="220.9" transform="matrix(0.848 -0.5299 0.5299 0.848 -47.2457 295.3688)" class="st0" width="11.2" height="18.4"/>
	
		<rect x="517.2" y="193.7" transform="matrix(0.848 -0.5299 0.5299 0.848 -27.8311 315.3292)" class="st1" width="37.4" height="25.1"/>
	
		<rect x="202.9" y="307" transform="matrix(0.848 -0.5299 0.5299 0.848 -135.7378 160.315)" class="st1" width="17.5" height="19.7"/>
	
		<rect x="138.2" y="221.4" transform="matrix(0.848 -0.5299 0.5299 0.848 -119.9669 128.5851)" class="st5" width="52" height="104.2"/>
	<polygon class="st1" points="97.2,201.7 100.6,207.2 125.8,191.5 139,212.7 151.9,204.7 135.2,177.9 	"/>
	
		<rect x="141.2" y="207.7" transform="matrix(0.848 -0.5299 0.5299 0.848 -90.8577 111.4065)" class="st1" width="15.2" height="12.8"/>
	<polygon class="st1" points="125.8,191.5 100.6,207.2 94.5,211 114.6,243.1 145.8,223.6 	"/>
	<rect x="39" y="187.6" transform="matrix(0.848 -0.5299 0.5299 0.848 -96.5742 57.2945)" class="st0" width="25.3" height="18.8"/>
	
		<rect x="127.9" y="329.2" transform="matrix(0.848 -0.5299 0.5299 0.848 -157.8071 127.0936)" class="st2" width="29.6" height="19"/>
	
		<rect x="110.5" y="287.7" transform="matrix(0.848 -0.5299 0.5299 0.848 -145.7274 113.6758)" class="st1" width="29.6" height="46.5"/>
	<rect x="86.1" y="249" transform="matrix(0.848 -0.5299 0.5299 0.848 -128.714 94.7784)" class="st1" width="29.6" height="45.7"/>
	
		<rect x="138.3" y="345.2" transform="matrix(0.848 -0.5299 0.5299 0.848 -165.0766 135.1677)" class="st2" width="29.6" height="20.4"/>
	
		<rect x="83.9" y="237.5" transform="matrix(0.848 -0.5299 0.5299 0.848 -115.1459 85.5484)" class="st1" width="15.4" height="12.1"/>
	<polygon class="st1" points="94.9,234.3 89.2,225.2 64.1,240.9 76.2,260.3 88.3,252.8 81.9,242.5 	"/>
	
		<rect x="57.7" y="218.5" transform="matrix(0.848 -0.5299 0.5299 0.848 -108.9497 72.8262)" class="st1" width="29.6" height="15.7"/>
	<polygon class="st1" points="270.8,27.8 195.7,74.7 216.1,107.3 196.8,119.4 216.2,150.3 310.5,91.4 	"/>
	<polygon class="st1" points="196.8,119.4 228.4,99.6 233.3,107.5 227.2,111.3 236.2,125.7 242.3,121.9 247.8,130.6 216.2,150.3
		"/>
	
		<rect x="118.8" y="236.9" transform="matrix(0.848 -0.5299 0.5299 0.848 -111.7316 105.1228)" class="st1" width="17.2" height="20.9"/>
	<path class="st1" d="M291.4,375.6l-4,2.7c0,0-9.8,6.9-4.9,20.2l7.7,12.4l16.7-10.4L291.4,375.6z"/>
	<polygon class="st3" points="290.2,410.8 302.3,430.1 328.1,414 334.3,410.1 322.2,390.8 	"/>
</g>
<g id="murs">
	<line class="st6" x1="681.3" y1="730.7" x2="688.9" y2="726"/>
	<line class="st6" x1="610.1" y1="599.9" x2="612.5" y2="603.7"/>
	<line class="st6" x1="619.8" y1="615.4" x2="617.5" y2="611.7"/>
	<line class="st6" x1="590.3" y1="540.5" x2="588.7" y2="537.9"/>
	<line class="st6" x1="581.3" y1="526" x2="583.1" y2="529"/>
	<polyline class="st6" points="426.2,414.1 436,429.7 457.6,416.2 	"/>
	<polyline class="st6" points="403.8,450.6 406.6,455.1 394.9,462.3 	"/>
	<polyline class="st6" points="371.8,470.6 374.6,475.1 384.9,468.6 	"/>
	<polyline class="st6" points="374.6,475.1 364.5,481.4 346.7,477.3 345.5,475.4 	"/>
	<line class="st6" x1="523.2" y1="221" x2="508" y2="230.5"/>
	<line class="st6" x1="582.7" y1="316.3" x2="567.5" y2="325.8"/>
	<line class="st6" x1="94.5" y1="211" x2="89.8" y2="213.9"/>
	<line class="st6" x1="71" y1="196" x2="76.8" y2="205.3"/>
	<polyline class="st6" points="209.4,329.8 180.2,348.1 177.8,344.3 	"/>
	<line class="st6" x1="169.8" y1="331.4" x2="173" y2="336.6"/>
	<polyline class="st6" points="278.3,111.5 268.6,96 242.3,112.5 	"/>
	<line class="st6" x1="416.3" y1="445.1" x2="424.1" y2="440.6"/>
</g>
</svg>
