<?xml version="1.0" encoding="utf-8"?>
<!-- Generator: Adobe Illustrator 20.1.0, SVG Export Plug-In . SVG Version: 6.00 Build 0)  -->
<svg version="1.1" id="icones" xmlns="http://www.w3.org/2000/svg" xmlns:xlink="http://www.w3.org/1999/xlink" x="0px" y="0px"
	 viewBox="0 0 603 520.5" style="enable-background:new 0 0 603 520.5;" xml:space="preserve">
<style type="text/css">
	.st0{fill:#1D1D1B;}
	.st1{fill:#FFFFFF;}
	.st2{fill:#1D1C1A;}
</style>
<g>
	<path class="st0" d="M458.5,301.9h-7.6c-1,0-1.9-0.8-1.9-1.9v-7.6c0-1,0.8-1.9,1.9-1.9h7.6c1,0,1.9,0.8,1.9,1.9v7.6
		C460.4,301.1,459.5,301.9,458.5,301.9z"/>
	<polygon class="st1" points="454.7,292.5 454.7,295 452.6,295 452.6,297.5 450.5,297.5 450.5,299.9 454.7,299.9 454.7,297.5
		456.8,297.5 456.8,295 458.9,295 458.9,292.5 	"/>
</g>
<g>
	<path class="st0" d="M368.8,359.5h-7.6c-1,0-1.9-0.8-1.9-1.9V350c0-1,0.8-1.9,1.9-1.9h7.6c1,0,1.9,0.8,1.9,1.9v7.6
		C370.7,358.7,369.8,359.5,368.8,359.5z"/>
	<polygon class="st1" points="365,350.2 365,352.6 362.9,352.6 362.9,355.1 360.8,355.1 360.8,357.6 365,357.6 365,355.1
		367.1,355.1 367.1,352.6 369.2,352.6 369.2,350.2 	"/>
</g>
<g>
	<path class="st0" d="M324.5,462h-7.6c-1,0-1.9-0.8-1.9-1.9v-7.6c0-1,0.8-1.9,1.9-1.9h7.6c1,0,1.9,0.8,1.9,1.9v7.6
		C326.4,461.1,325.6,462,324.5,462z"/>
	<polygon class="st1" points="320.7,452.6 320.7,455.1 318.6,455.1 318.6,457.5 316.6,457.5 316.6,460 320.7,460 320.7,457.5
		322.8,457.5 322.8,455.1 324.9,455.1 324.9,452.6 	"/>
</g>
<g>
	<path class="st0" d="M201,221.1h-7.6c-1,0-1.9-0.8-1.9-1.9v-7.6c0-1,0.8-1.9,1.9-1.9h7.6c1,0,1.9,0.8,1.9,1.9v7.6
		C202.9,220.2,202.1,221.1,201,221.1z"/>
	<polygon class="st1" points="197.2,211.7 197.2,214.2 195.1,214.2 195.1,216.6 193.1,216.6 193.1,219.1 197.2,219.1 197.2,216.6
		199.3,216.6 199.3,214.2 201.4,214.2 201.4,211.7 	"/>
</g>
<g>
	<path class="st0" d="M95.2,91.7h-7.6c-1,0-1.9-0.8-1.9-1.9v-7.6c0-1,0.8-1.9,1.9-1.9h7.6c1,0,1.9,0.8,1.9,1.9v7.6
		C97,90.8,96.2,91.7,95.2,91.7z"/>
	<polygon class="st1" points="91.4,82.3 91.4,84.8 89.3,84.8 89.3,87.2 87.2,87.2 87.2,89.7 91.4,89.7 91.4,87.2 93.5,87.2
		93.5,84.8 95.5,84.8 95.5,82.3 	"/>
</g>
<g>
	<g>
		<path class="st0" d="M309.9,390.6h-7.6c-1,0-1.9-0.8-1.9-1.9v-7.6c0-1,0.8-1.9,1.9-1.9h7.6c1,0,1.9,0.8,1.9,1.9v7.6
			C311.8,389.8,311,390.6,309.9,390.6z"/>
		<g>
			<path class="st1" d="M304.7,389.6h-2.1c-0.5,0-0.9-0.4-0.9-0.9v-7.3c0-0.5,0.4-0.9,0.9-0.9h2.1c0.5,0,0.9,0.4,0.9,0.9v7.3
				C305.6,389.1,305.2,389.6,304.7,389.6z"/>
			<path class="st1" d="M309.6,389.6h-2.1c-0.5,0-0.9-0.4-0.9-0.9v-7.3c0-0.5,0.4-0.9,0.9-0.9h2.1c0.5,0,0.9,0.4,0.9,0.9v7.3
				C310.6,389.1,310.2,389.6,309.6,389.6z"/>
		</g>
	</g>
	<path class="st0" d="M305.1,384.3l-1.4-1.4c-0.1-0.1-0.2-0.1-0.2,0l-1.4,1.4c-0.1,0.1,0,0.3,0.1,0.3h0.8v2.2c0,0.2,0.2,0.4,0.4,0.4
		h0.5c0.2,0,0.4-0.2,0.4-0.4v-2.2h0.8C305.1,384.6,305.2,384.4,305.1,384.3z"/>
	<path class="st0" d="M307.1,385.6l1.4,1.4c0.1,0.1,0.2,0.1,0.2,0l1.4-1.4c0.1-0.1,0-0.3-0.1-0.3h-0.8v-2.2c0-0.2-0.2-0.4-0.4-0.4
		h-0.5c-0.2,0-0.4,0.2-0.4,0.4v2.2h-0.8C307,385.4,307,385.5,307.1,385.6z"/>
</g>
<g>
	<path class="st0" d="M384.5,348.3h-7.6c-1,0-1.9-0.8-1.9-1.9v-7.6c0-1,0.8-1.9,1.9-1.9h7.6c1,0,1.9,0.8,1.9,1.9v7.6
		C386.4,347.5,385.5,348.3,384.5,348.3z"/>
	<g>
		<circle class="st1" cx="380.7" cy="338.7" r="0.8"/>
		<path class="st1" d="M382.8,342.5l-0.7-2.2c-0.1-0.4-0.5-0.7-1.1-0.7h-0.7c-0.6,0-1,0.3-1.1,0.7l-0.7,2.2
			c-0.1,0.5,0.4,0.6,0.6,0.2l0.7-2h0.1c0,0-0.9,3.6-1,3.7c0,0.1,0,0.1,0.1,0.1h0.8v2.4c0,0.5,0.7,0.5,0.7,0v-2.4h0.3v2.4
			c0,0.5,0.7,0.5,0.7,0v-2.4h0.8c0.1,0,0.1,0,0.1-0.1s-1-3.7-1-3.7h0.1l0.7,2C382.4,343.2,382.9,343,382.8,342.5z"/>
	</g>
</g>
<g>
	<path class="st0" d="M400.6,338H393c-1,0-1.9-0.8-1.9-1.9v-7.6c0-1,0.8-1.9,1.9-1.9h7.6c1,0,1.9,0.8,1.9,1.9v7.6
		C402.5,337.1,401.7,338,400.6,338z"/>
	<g>
		<circle class="st1" cx="396.8" cy="328.3" r="0.8"/>
		<path class="st1" d="M397.7,329.3h-0.8h-0.8c-0.8,0-1,0.2-1,1v2.4c0,0.5,0.6,0.5,0.6,0l0.1-2.2h0.2v6.1c0,0.6,0.9,0.6,0.9,0
			l0.1-3.5h0.2l0.1,3.5c0,0.6,0.9,0.6,0.9,0v-6.1h0.2l0.1,2.2c0,0.5,0.6,0.5,0.6,0v-2.4C398.7,329.5,398.4,329.3,397.7,329.3z"/>
	</g>
</g>
<g>
	<g>
		<g>
			<path class="st2" d="M166.2,237.3h-7.6c-1,0-1.9-0.8-1.9-1.9v-7.6c0-1,0.8-1.9,1.9-1.9h7.6c1,0,1.9,0.8,1.9,1.9v7.6
				C168,236.5,167.2,237.3,166.2,237.3z"/>
			<g>
				<path class="st1" d="M160.9,236.2h-2.1c-0.5,0-0.9-0.4-0.9-0.9V228c0-0.5,0.4-0.9,0.9-0.9h2.1c0.5,0,0.9,0.4,0.9,0.9v7.3
					C161.8,235.8,161.4,236.2,160.9,236.2z"/>
				<path class="st1" d="M165.9,236.2h-2.1c-0.5,0-0.9-0.4-0.9-0.9V228c0-0.5,0.4-0.9,0.9-0.9h2.1c0.5,0,0.9,0.4,0.9,0.9v7.3
					C166.8,235.8,166.4,236.2,165.9,236.2z"/>
			</g>
		</g>
		<path class="st2" d="M161.4,231l-1.4-1.4c-0.1-0.1-0.2-0.1-0.2,0l-1.4,1.4c-0.1,0.1,0,0.3,0.1,0.3h0.8v2.2c0,0.2,0.2,0.4,0.4,0.4
			h0.5c0.2,0,0.4-0.2,0.4-0.4v-2.2h0.8C161.4,231.2,161.5,231.1,161.4,231z"/>
		<path class="st2" d="M163.3,232.3l1.4,1.4c0.1,0.1,0.2,0.1,0.2,0l1.4-1.4c0.1-0.1,0-0.3-0.1-0.3h-0.8v-2.2c0-0.2-0.2-0.4-0.4-0.4
			h-0.5c-0.2,0-0.4,0.2-0.4,0.4v2.2h-0.8C163.3,232,163.2,232.2,163.3,232.3z"/>
	</g>
	<g>
		<path class="st2" d="M147,232.2h-7.6c-1,0-1.9-0.8-1.9-1.9v-7.6c0-1,0.8-1.9,1.9-1.9h7.6c1,0,1.9,0.8,1.9,1.9v7.6
			C148.9,231.3,148.1,232.2,147,232.2z"/>
		<g>
			<circle class="st1" cx="143.2" cy="222.6" r="0.8"/>
			<path class="st1" d="M145.3,226.4l-0.7-2.2c-0.1-0.4-0.5-0.7-1.1-0.7h-0.7c-0.6,0-1,0.3-1.1,0.7l-0.7,2.2
				c-0.1,0.5,0.4,0.6,0.6,0.2l0.7-2h0.1c0,0-0.9,3.6-1,3.7c0,0.1,0,0.1,0.1,0.1h0.8v2.4c0,0.5,0.7,0.5,0.7,0v-2.4h0.3v2.4
				c0,0.5,0.7,0.5,0.7,0v-2.4h0.8c0.1,0,0.1,0,0.1-0.1s-1-3.7-1-3.7h0.1l0.7,2C144.9,227.1,145.5,226.9,145.3,226.4z"/>
		</g>
	</g>
	<g>
		<path class="st2" d="M158.1,249.5h-7.6c-1,0-1.9-0.8-1.9-1.9V240c0-1,0.8-1.9,1.9-1.9h7.6c1,0,1.9,0.8,1.9,1.9v7.6
			C159.9,248.7,159.1,249.5,158.1,249.5z"/>
		<g>
			<circle class="st1" cx="154.3" cy="239.9" r="0.8"/>
			<path class="st1" d="M155.1,240.9h-0.8h-0.8c-0.8,0-1,0.2-1,1v2.4c0,0.5,0.6,0.5,0.6,0l0.1-2.2h0.2v6.1c0,0.6,0.9,0.6,0.9,0
				l0.1-3.5h0.2l0.1,3.5c0,0.6,0.9,0.6,0.9,0v-6.1h0.2l0.1,2.2c0,0.5,0.6,0.5,0.6,0v-2.4C156.1,241.1,155.9,240.9,155.1,240.9z"/>
		</g>
	</g>
	<g>
		<path class="st2" d="M165.8,223.9h-7.6c-1,0-1.9-0.8-1.9-1.9v-7.6c0-1,0.8-1.9,1.9-1.9h7.6c1,0,1.9,0.8,1.9,1.9v7.6
			C167.7,223.1,166.9,223.9,165.8,223.9z"/>
		<g>
			<polygon class="st1" points="162.4,214.4 162.4,222.1 161.7,222.1 161.7,214.4 			"/>
			<path class="st1" d="M162.1,218.2"/>
			<path class="st1" d="M159.4,215.6c0.4,0,0.6-0.3,0.6-0.6c0-0.4-0.3-0.6-0.6-0.6c-0.4,0-0.6,0.3-0.6,0.6
				C158.8,215.3,159.1,215.6,159.4,215.6L159.4,215.6z"/>
			<path class="st1" d="M159.3,219.6v2.2c0,0.4-0.6,0.4-0.6,0v-2.2h-0.8l0.9-3h-0.1l-0.5,1.7c-0.1,0.4-0.6,0.2-0.5-0.2l0.6-1.8
				c0.1-0.2,0.3-0.6,0.8-0.6h0.4l0,0h0.5c0.5,0,0.7,0.4,0.8,0.6l0.6,1.8c0.1,0.4-0.4,0.6-0.5,0.2l-0.5-1.7H160l0.9,3h-0.8v2.2
				c0,0.4-0.6,0.4-0.6,0v-2.2H159.3L159.3,219.6z"/>
			<path class="st1" d="M164,215.8c-0.4,0-0.8,0.4-0.8,0.8v2c0,0.4,0.6,0.4,0.6,0v-1.8h0.1v5c0,0.5,0.7,0.5,0.7,0v-2.9h0.1v2.9
				c0,0.5,0.7,0.5,0.7,0v-5h0.1v1.8c0,0.4,0.5,0.4,0.5,0v-2c0-0.4-0.3-0.8-0.8-0.8H164L164,215.8z"/>
			<path class="st1" d="M164.6,215.6c0.4,0,0.6-0.3,0.6-0.6c0-0.4-0.3-0.6-0.6-0.6c-0.4,0-0.6,0.3-0.6,0.6S164.3,215.6,164.6,215.6
				L164.6,215.6z"/>
		</g>
	</g>
</g>
</svg>
