<?xml version="1.0" encoding="utf-8"?>
<!-- Generator: Adobe Illustrator 21.0.0, SVG Export Plug-In . SVG Version: 6.00 Build 0)  -->
<svg version="1.1" id="Calque_1" xmlns="http://www.w3.org/2000/svg" xmlns:xlink="http://www.w3.org/1999/xlink" x="0px" y="0px"
	 viewBox="0 0 423 403.5" style="enable-background:new 0 0 423 403.5;" xml:space="preserve">
<style type="text/css">
	.st0{fill:#FFFFFF;stroke:#383938;stroke-width:0.5;stroke-miterlimit:10;}
	.st1{fill:#ECF0F2;stroke:#383938;stroke-width:0.5;stroke-miterlimit:10;}
	.st2{fill:#C0D9E0;stroke:#383938;stroke-width:0.5;stroke-miterlimit:10;}
	.st3{fill:none;stroke:#414042;stroke-width:0.5;stroke-miterlimit:10;}
	.st4{fill:none;stroke:#414042;stroke-width:0.5;stroke-miterlimit:10;stroke-dasharray:2;}
	.st5{fill:#BED8DF;stroke:#414042;stroke-width:0.5;stroke-miterlimit:10;}
	.st6{fill:#FFFFFF;stroke:#414042;stroke-width:0.5;stroke-miterlimit:10;}
</style>
<g id="locaux">
	<polygon class="st0" points="76.7,96 164.5,236.4 216.9,203.7 285.7,313.9 280.2,317.4 305.8,358.3 343.3,334.9 247.4,181.4
		240.4,185.7 154.1,47.6 117.5,70.5 107.5,54.5 90.9,64.9 100.9,80.9 	"/>
	
		<rect x="176.7" y="157" transform="matrix(0.848 -0.5299 0.5299 0.848 -60.5703 133.2574)" class="st1" width="50.7" height="30.5"/>
	
		<rect x="187.5" y="141.1" transform="matrix(0.848 -0.5299 0.5299 0.848 -47.6518 128.8471)" class="st1" width="26.6" height="12.7"/>
	
		<rect x="167.3" y="154.6" transform="matrix(0.848 -0.5299 0.5299 0.848 -58.048 119.4875)" class="st1" width="24.1" height="12.7"/>
	<polygon class="st1" points="165.7,162 162.3,156.6 182.8,143.8 161.1,109 173.7,101.1 164.2,86 174.2,79.7 208.8,135.1 	"/>
	<rect x="149.6" y="112.3" transform="matrix(0.848 -0.5299 0.5299 0.848 -45.79 105.8709)" class="st1" width="24.1" height="41"/>
	<polygon class="st1" points="164.2,86 159.7,78.7 126.6,99.4 140.6,121.8 173.7,101.1 	"/>
	<polygon class="st1" points="126.6,99.4 117.7,85.1 124.2,81.1 117.5,70.5 144.1,53.8 159.7,78.7 	"/>
	
		<rect x="148.4" y="49.2" transform="matrix(0.848 -0.5299 0.5299 0.848 -7.8119 90.7232)" class="st1" width="11.7" height="19.5"/>
	
		<rect x="158.4" y="65.9" transform="matrix(0.848 -0.5299 0.5299 0.848 -14.7972 98.4818)" class="st1" width="11.7" height="18.4"/>
	
		<rect x="84.6" y="85.5" transform="matrix(0.848 -0.5299 0.5299 0.848 -40.3405 68.2528)" class="st1" width="28.5" height="37.9"/>
	
		<rect x="104.2" y="117.8" transform="matrix(0.848 -0.5299 0.5299 0.848 -53.9881 83.4114)" class="st1" width="28.5" height="36.1"/>
	
		<rect x="123.4" y="148.4" transform="matrix(0.848 -0.5299 0.5299 0.848 -67.3356 98.2375)" class="st1" width="28.5" height="36.2"/>
	
		<rect x="137.8" y="180.5" transform="matrix(0.848 -0.5299 0.5299 0.848 -77.3642 109.376)" class="st1" width="28.5" height="18.1"/>
	<rect x="168" y="208.9" transform="matrix(0.848 -0.5299 0.5299 0.848 -86.7987 124.3866)" class="st1" width="11" height="9.2"/>
	<polygon class="st2" points="185.9,223 180.6,214.6 171.3,220.4 166.4,212.5 154.3,220.1 164.5,236.4 	"/>
	
		<rect x="110.2" y="53.7" transform="matrix(0.848 -0.5299 0.5299 0.848 -19.5558 70.5536)" class="st1" width="6.1" height="31.4"/>
</g>
<g id="murs">
	<polyline class="st3" points="102.3,57.7 115.8,79.2 110.7,82.4 	"/>
	<path class="st3" d="M174.5,198.6"/>
	<path class="st3" d="M166.2,191.5"/>
	<line class="st3" x1="170.2" y1="210.2" x2="178.5" y2="205"/>
	<line class="st3" x1="188.6" y1="198.6" x2="191.1" y2="202.6"/>
	<line class="st3" x1="198.8" y1="215" x2="195.4" y2="209.4"/>
	<line class="st3" x1="216.9" y1="203.7" x2="227.3" y2="197.1"/>
	<line class="st3" x1="223.9" y1="191.6" x2="217.1" y2="180.8"/>
	
		<rect x="218.3" y="175.6" transform="matrix(0.848 -0.5299 0.5299 0.848 -60.9904 147.5761)" class="st3" width="17.1" height="9.1"/>
	
		<rect x="250.6" y="200.3" transform="matrix(0.848 -0.5299 0.5299 0.848 -75.5538 170.3944)" class="st3" width="17.5" height="33.2"/>
	<polygon class="st3" points="301.5,276.1 289,283.9 293.3,290.8 299.6,292.3 308.2,286.9 	"/>
	<line class="st4" x1="217.1" y1="180.8" x2="236.5" y2="179.5"/>
	<line class="st4" x1="222" y1="188.6" x2="231.7" y2="171.7"/>
</g>
<g>
	<polygon class="st5" points="144.7,204.8 154.3,220.1 178.5,205 168.9,189.7 	"/>

		<rect x="167.9" y="199.1" transform="matrix(0.5299 0.848 -0.848 0.5299 253.1828 -51.1785)" class="st5" width="9.8" height="7.3"/>
	
		<rect x="165.8" y="190.4" transform="matrix(0.5299 0.848 -0.848 0.5299 242.5709 -51.7197)" class="st6" width="4.4" height="5.1"/>
	
		<rect x="162.9" y="203.6" transform="matrix(0.5299 0.848 -0.848 0.5299 253.4584 -45.4497)" class="st6" width="9.7" height="4.5"/>
</g>
</svg>
