<?xml version="1.0" encoding="utf-8"?>
<!-- Generator: Adobe Illustrator 21.0.0, SVG Export Plug-In . SVG Version: 6.00 Build 0)  -->
<svg version="1.1" xmlns="http://www.w3.org/2000/svg" xmlns:xlink="http://www.w3.org/1999/xlink" x="0px" y="0px"
	 viewBox="0 0 777 823.5" style="enable-background:new 0 0 777 823.5;" xml:space="preserve">
<style type="text/css">
	.st0{display:none;}
	.st1{display:inline;}
	.st2{fill:#FFFFFF;stroke:#383938;stroke-width:0.5;stroke-miterlimit:10;}
	.st3{fill:#ECF0F2;stroke:#383938;stroke-width:0.5;stroke-miterlimit:10;}
	.st4{fill:#BFD9E0;stroke:#383938;stroke-width:0.5;stroke-miterlimit:10;}
	.st5{fill:#A3CBCB;stroke:#383938;stroke-width:0.5;stroke-miterlimit:10;}
	.st6{fill:#62A2A1;stroke:#383938;stroke-width:0.5;stroke-miterlimit:10;}
	.st7{fill:#ED855A;stroke:#383938;stroke-width:0.5;stroke-miterlimit:10;}
	.st8{fill:none;stroke:#383938;stroke-width:0.5;stroke-miterlimit:10;}
	.st9{display:inline;fill:#FFFFFF;stroke:#383838;stroke-width:0.5;stroke-miterlimit:10;}
	.st10{display:inline;fill:#EBEFF1;stroke:#383838;stroke-width:0.5;stroke-miterlimit:10;}
	.st11{display:inline;fill:#BED8DF;stroke:#383838;stroke-width:0.5;stroke-miterlimit:10;}
	.st12{display:inline;fill:#A2CACA;stroke:#383838;stroke-width:0.5;stroke-miterlimit:10;}
	.st13{display:inline;fill:#61A0A0;stroke:#383838;stroke-width:0.5;stroke-miterlimit:10;}
	.st14{display:inline;fill:#FFFFFF;stroke:#404041;stroke-width:0.5;stroke-miterlimit:10;}
	.st15{display:inline;fill:#EC845A;stroke:#383838;stroke-width:0.5;stroke-miterlimit:10;}
	.st16{display:inline;fill:#FFFFFF;}
	.st17{display:inline;fill:none;stroke:#383838;stroke-width:0.5;stroke-miterlimit:10;}
	.st18{display:inline;fill:none;stroke:#383838;stroke-width:0.5;stroke-miterlimit:10;stroke-dasharray:2;}
	.st19{display:inline;fill:#BED8DF;stroke:#404041;stroke-width:0.5;stroke-miterlimit:10;}
	.st20{fill:#1D1C1A;}
	.st21{fill:#FFFFFF;}
	.st22{display:inline;opacity:0.5;}
	.st23{fill:#60A1A0;}
	.st24{fill:#EC845A;}
	.st25{fill:#F1F1F2;}
	.st26{font-family:'MyriadPro-Regular';}
	.st27{font-size:8.9918px;}
	.st28{fill:#383838;}
	.st29{font-family:'Roboto-BoldCondensed';}
	.st30{font-size:3px;}
	.st31{fill:#61A2A1;}
	.st32{fill:#3F89BC;}
	.st33{fill:none;}
	.st34{opacity:0.5;}
	.st35{fill:#F6F6F6;}
	.st36{fill:#58595B;}
</style>
<g id="Layer_1" class="st0">
	<g id="locaux" class="st1">
		<polygon class="st2" points="642.6,497.7 745.9,717 698.4,739.9 708.1,755.3 664.5,782.6 576.8,642.2 592.6,632.4 583.7,618.1
			591.4,613.3 556.7,537.4 		"/>
		<path class="st2" d="M35.9,195.8l17.8,28.4l91.9,147.3l39.7,63.5l21.3-13.3l29.5,47.2l-21.2,13.2c0,0,32.4,52.8,40.5,64.9
			c33.2,49.3,90.9,47.9,122.8,28.4c6-3.7,143.7-89.8,143.7-89.8l-38.6-61.7l-9.6,6l-7.2-11.4l3.7-2.3L457,395l-30.7,19.2L368,320.9
			l31.2-19.5l-80.6-129L222,232.6l40.2,64.3l-37.9,23.7L135.2,178l-38,23.8L87.3,186l-19.9,12.5l-10-16L35.9,195.8z"/>
		<polygon class="st3" points="707,735.7 692.3,704.4 731.4,686.2 745.9,717 		"/>
		<polygon class="st3" points="692.3,704.4 678.5,674.7 717.6,656.9 731.4,686.2 		"/>
		<polygon class="st3" points="678.5,674.7 664.9,645.1 703.5,627 717.6,656.9 		"/>
		<polygon class="st3" points="703.5,627 689.7,597.6 650.7,615.4 664.9,645.1 		"/>
		<polygon class="st3" points="650.7,615.4 636.9,586.1 675.6,567.8 689.7,597.6 		"/>
		<polygon class="st3" points="636.9,586.1 623.6,556.7 661.9,538.7 675.6,567.8 		"/>
		<polygon class="st3" points="623.6,556.7 620.4,550.3 626.4,547.5 622.7,539.9 625.6,538.6 620.7,529 634.8,523 645,526.2
			654,522 661.9,538.7 		"/>
		<polygon class="st3" points="620.7,529 612.3,511.7 642.6,497.7 654,522 645,526.2 634.8,523 		"/>
		<polygon class="st3" points="692.6,765 674,735.2 681.3,730.7 677,723.9 641.7,746 664.5,782.6 		"/>
		<polygon class="st3" points="666.5,722.3 648.5,693.4 620,711.3 641.7,746 677,723.9 673.3,718 		"/>
		<polygon class="st3" points="648.5,693.4 631,665.4 637.8,661.2 633.8,654.8 598.5,676.9 620,711.3 		"/>

			<rect x="633.9" y="659.7" transform="matrix(0.848 -0.5299 0.5299 0.848 -256.1719 441.852)" class="st3" width="17" height="15.8"/>

			<rect x="643.9" y="672.6" transform="matrix(0.848 -0.5299 0.5299 0.848 -263.1031 449.612)" class="st4" width="17" height="22"/>

			<rect x="618.3" y="636.6" transform="matrix(0.848 -0.5299 0.5299 0.848 -245.2706 429.8086)" class="st3" width="17" height="12"/>

			<rect x="609.5" y="618.2" transform="matrix(0.848 -0.5299 0.5299 0.848 -239.2283 423.0431)" class="st3" width="17" height="20.9"/>

			<rect x="657.5" y="690.8" transform="matrix(0.848 -0.5299 0.5299 0.848 -272.6021 460.1146)" class="st4" width="17" height="29.2"/>
		<polygon class="st3" points="633.8,654.8 629.6,648.1 622.8,652.3 605.4,624.4 576.8,642.2 598.5,676.9 		"/>
		<polygon class="st3" points="589.4,609.1 610.1,599.9 601,585.3 582.4,593.7 		"/>
		<polygon class="st3" points="601,585.3 592.1,571.1 575.6,578.7 582.4,593.7 		"/>
		<polygon class="st3" points="592.1,571.1 583.4,557.2 568.8,564 575.6,578.7 		"/>
		<polygon class="st3" points="583.4,557.2 574.9,543.6 562.2,549.3 568.8,564 		"/>
		<polygon class="st3" points="574.9,543.6 567.8,532.3 556.7,537.4 562.2,549.3 		"/>
		<polygon class="st3" points="620.4,550.3 616.3,552.3 610.7,541 620.9,536.2 626.4,547.5 		"/>
		<polygon class="st3" points="622.7,539.9 625.6,538.6 619.9,527.5 590.3,540.5 594.4,547.1 601.8,543.4 602.5,545 620.9,536.2
			"/>
		<polygon class="st3" points="483.3,423.9 456.5,440.6 488.8,492.3 485.6,494.3 491.8,504.3 521.8,485.6 		"/>
		<polygon class="st3" points="456.5,440.6 400,475.9 416.7,502.6 424.6,504.4 476.2,472.2 		"/>
		<polygon class="st3" points="476.2,472.2 488.8,492.3 485.6,494.3 491.8,504.3 438.5,537.6 423.5,513.6 424.9,504.5 		"/>
		<polygon class="st3" points="423.5,513.6 417.2,517.6 415.6,515.1 383.9,534.9 400.5,561.4 438.5,537.6 		"/>

			<rect x="378" y="548.8" transform="matrix(0.848 -0.5299 0.5299 0.848 -236.9971 290.1277)" class="st3" width="18.8" height="19"/>

			<rect x="375" y="537.4" transform="matrix(0.848 -0.5299 0.5299 0.848 -230.0209 284.7822)" class="st3" width="13.2" height="12.2"/>
		<polygon class="st3" points="372.8,541.8 362,548.5 368.5,558.9 374.5,555.2 379.3,552.2 		"/>
		<polygon class="st3" points="362,548.5 349,556.7 332.6,559.3 333.3,572.6 348.3,571.6 368.5,558.9 		"/>
		<path class="st3" d="M362.7,562.5l9.9,15.9c0,0,4.8-2.6,7.4-4.2l4.5-2.8l-10.1-16.1L362.7,562.5z"/>
		<path class="st3" d="M372.6,578.4c0,0-12.2,6-21.7,7.5l-2.6-14.4l14.4-9L372.6,578.4z"/>
		<path class="st3" d="M350.9,585.9c0,0-11.1,2-16.7,2l-1-15.3l15.1-1.1L350.9,585.9z"/>
		<path class="st3" d="M332.6,559.3l-9-2.1l-3.9,30.1c0,0,8.1,1.1,14.6,0.6L332.6,559.3z"/>
		<path class="st3" d="M304.5,584.1l9.8-28.9l-9.5-2.2l-14.9-9.5l-6.6-8.1l-22.7,18.8C260.6,554.1,277.1,576.2,304.5,584.1z"/>
		<path class="st3" d="M260.6,554.1l22.7-18.8l-5.7-8l-21.4-34.2l-25,15.6l23.9,38.3C255.2,547.1,259.3,553,260.6,554.1z"/>
		<polygon class="st3" points="256.3,493.2 260.2,490.7 243.6,464.1 214.8,482.1 231.4,508.7 		"/>

			<rect x="250.1" y="455.4" transform="matrix(0.848 -0.5299 0.5299 0.848 -209.8193 210.4478)" class="st3" width="23.9" height="31.4"/>

			<rect x="269.6" y="447.8" transform="matrix(0.848 -0.5299 0.5299 0.848 -202.0667 214.5215)" class="st3" width="6.9" height="23.6"/>

			<rect x="388.9" y="482.6" transform="matrix(0.848 -0.5299 0.5299 0.848 -203.9045 285.8256)" class="st3" width="15.1" height="31.7"/>
		<polygon class="st3" points="381.7,489 354.4,506.1 337.4,502.1 327.4,545.3 335.7,547.2 349.3,546.7 398.5,515.9 		"/>
		<polygon class="st3" points="375,493.2 350.2,487.5 346.4,504.2 354.4,506.1 		"/>
		<polygon class="st3" points="317,542.9 309.6,541.3 304.1,538.1 306.6,527.4 319.9,530.5 		"/>
		<polygon class="st3" points="319.9,530.5 322.5,519.2 309.4,515.8 306.6,527.4 		"/>
		<polygon class="st3" points="322.5,519.2 326.7,501.1 305.5,496.2 302,514 		"/>
		<polygon class="st3" points="301.7,514.1 288.8,522.2 297.8,533.8 304.1,538.1 309.4,515.8 		"/>
		<polygon class="st3" points="302.8,508.9 294.1,506.6 283.3,513.3 288.8,522.2 301.7,514.1 		"/>
		<polygon class="st3" points="318,499.1 322.3,480.6 309.7,477.7 305.5,496.2 		"/>
		<polygon class="st3" points="283.3,513.3 271.7,494.7 279.4,489.8 285.1,491.1 293.6,485.8 297,491.4 294.1,506.6 		"/>
		<polygon class="st3" points="295.6,498.7 304.5,500.9 302.8,508.9 294.1,506.6 		"/>

			<rect x="435.7" y="423.1" transform="matrix(0.848 -0.5299 0.5299 0.848 -157.7974 301.7971)" class="st3" width="23.2" height="5.9"/>

			<rect x="421.8" y="429.3" transform="matrix(0.848 -0.5299 0.5299 0.848 -164.96 293.6929)" class="st5" width="15.7" height="10.4"/>

			<rect x="416.2" y="420.4" transform="matrix(0.848 -0.5299 0.5299 0.848 -161.126 289.369)" class="st5" width="15.7" height="10.4"/>

			<rect x="410.9" y="412.4" transform="matrix(0.848 -0.5299 0.5299 0.848 -157.4673 285.3052)" class="st5" width="15.7" height="9.6"/>
		<polygon class="st5" points="423,408.9 409.6,417.3 405.9,415.1 401.4,407.8 416.4,398.4 		"/>

			<rect x="396.9" y="392.2" transform="matrix(0.848 -0.5299 0.5299 0.848 -149.3056 275.5035)" class="st5" width="17.7" height="11.8"/>

			<rect x="393.5" y="374.5" transform="matrix(0.848 -0.5299 0.5299 0.848 -142.6321 270.1891)" class="st5" width="12.7" height="18.6"/>

			<rect x="401" y="438.9" transform="matrix(0.848 -0.5299 0.5299 0.848 -173.4476 283.5832)" class="st5" width="13.5" height="10.7"/>

			<rect x="395.5" y="430.1" transform="matrix(0.848 -0.5299 0.5299 0.848 -169.524 279.2752)" class="st5" width="13.5" height="10.3"/>

			<rect x="390" y="421.2" transform="matrix(0.848 -0.5299 0.5299 0.848 -165.6859 275.0291)" class="st5" width="13.5" height="10.5"/>

			<rect x="380.8" y="438.2" transform="matrix(0.848 -0.5299 0.5299 0.848 -177.9184 274.9559)" class="st4" width="19.4" height="19"/>

			<rect x="365.4" y="448.2" transform="matrix(0.848 -0.5299 0.5299 0.848 -185.6265 268.0138)" class="st4" width="18.3" height="19"/>

			<rect x="379.6" y="425.2" transform="matrix(0.848 -0.5299 0.5299 0.848 -170.3161 269.8129)" class="st5" width="11.5" height="13.4"/>

			<rect x="365.1" y="432.7" transform="matrix(0.848 -0.5299 0.5299 0.848 -176.081 264.6493)" class="st5" width="16.7" height="13.4"/>

			<rect x="350.9" y="441.5" transform="matrix(0.848 -0.5299 0.5299 0.848 -182.9236 258.464)" class="st5" width="16.7" height="13.4"/>

			<rect x="380.1" y="405.8" transform="matrix(0.848 -0.5299 0.5299 0.848 -158.8909 267.4429)" class="st5" width="13.5" height="10"/>

			<rect x="374.8" y="397.3" transform="matrix(0.848 -0.5299 0.5299 0.848 -155.2251 263.3067)" class="st5" width="13.5" height="10"/>
		<polygon class="st5" points="367.7,393 373.2,401.6 384.7,394.5 379.3,386 		"/>
		<polygon class="st3" points="356.2,400.2 361.7,408.8 373.2,401.6 367.7,393 		"/>

			<rect x="365.9" y="403.7" transform="matrix(0.848 -0.5299 0.5299 0.848 -162.6384 260.3596)" class="st4" width="13.6" height="20.1"/>

			<rect x="358" y="417.7" transform="matrix(0.848 -0.5299 0.5299 0.848 -169.2877 257.2748)" class="st5" width="12" height="12.3"/>

			<rect x="346.2" y="418.2" transform="matrix(0.848 -0.5299 0.5299 0.848 -173.0253 251.602)" class="st4" width="12" height="18.7"/>

			<rect x="331.4" y="397" transform="matrix(0.848 -0.5299 0.5299 0.848 -162.2096 241.0062)" class="st3" width="15.5" height="12.7"/>

			<rect x="337.9" y="407.8" transform="matrix(0.848 -0.5299 0.5299 0.848 -166.675 245.9996)" class="st3" width="15.5" height="11.7"/>

			<rect x="324.5" y="385.7" transform="matrix(0.848 -0.5299 0.5299 0.848 -157.4162 235.6631)" class="st3" width="15.5" height="13.2"/>

			<rect x="317.8" y="375.4" transform="matrix(0.848 -0.5299 0.5299 0.848 -152.6945 230.4664)" class="st3" width="15.5" height="12.2"/>

			<rect x="311.3" y="365" transform="matrix(0.848 -0.5299 0.5299 0.848 -148.1752 225.4402)" class="st3" width="15.5" height="12.2"/>

			<rect x="304.8" y="354.6" transform="matrix(0.848 -0.5299 0.5299 0.848 -143.6557 220.4146)" class="st3" width="15.5" height="12.2"/>

			<rect x="312.1" y="418.6" transform="matrix(0.848 -0.5299 0.5299 0.848 -176.7172 235.8195)" class="st5" width="21.5" height="14.9"/>
		<polygon class="st5" points="309.8,425.4 302.3,430.1 328.5,472.1 332.3,472.9 355.7,458.3 336,426.6 317.7,438.1 		"/>
		<polygon class="st3" points="328.5,472.1 302.8,466.6 300.8,463.3 316.8,453.3 		"/>

			<rect x="296.5" y="448.5" transform="matrix(0.848 -0.5299 0.5299 0.848 -194.9925 229.5041)" class="st3" width="12.4" height="12.5"/>
		<polygon class="st3" points="316.8,453.3 311.3,456.8 304.7,446.2 294.2,452.8 280.9,431.5 296.9,421.5 		"/>

			<rect x="276.9" y="417.5" transform="matrix(0.848 -0.5299 0.5299 0.848 -181.2862 214.3334)" class="st3" width="12.4" height="11.6"/>

			<rect x="270.3" y="406.1" transform="matrix(0.848 -0.5299 0.5299 0.848 -176.6828 209.213)" class="st3" width="12.4" height="13.2"/>

			<rect x="258.4" y="385" transform="matrix(0.848 -0.5299 0.5299 0.848 -168.484 200.0461)" class="st6" width="12.4" height="17.6"/>

			<rect x="279" y="371.6" transform="matrix(0.848 -0.5299 0.5299 0.848 -162.7681 212.2774)" class="st2" width="19.6" height="36.7"/>

			<rect x="295.7" y="361.6" transform="matrix(0.848 -0.5299 0.5299 0.848 -155.0172 219.2538)" class="st2" width="18.1" height="36.7"/>

			<rect x="222.9" y="423.2" transform="matrix(0.848 -0.5299 0.5299 0.848 -197.4338 195.8447)" class="st3" width="39.8" height="38"/>

			<rect x="202.9" y="391.6" transform="matrix(0.848 -0.5299 0.5299 0.848 -183.568 180.4197)" class="st3" width="39.8" height="37.4"/>

			<rect x="182.9" y="359.3" transform="matrix(0.848 -0.5299 0.5299 0.848 -169.6612 164.9557)" class="st3" width="39.8" height="38"/>

			<rect x="163.7" y="359.7" transform="matrix(0.848 -0.5299 0.5299 0.848 -183.5084 153.6543)" class="st2" width="25" height="74.2"/>

			<rect x="257.6" y="280.8" transform="matrix(0.848 -0.5299 0.5299 0.848 -111.5575 184.8019)" class="st6" width="17.8" height="12.3"/>

			<rect x="244" y="258.8" transform="matrix(0.848 -0.5299 0.5299 0.848 -102.1367 174.3042)" class="st6" width="17.8" height="12.9"/>

			<rect x="229.5" y="221.3" transform="matrix(0.848 -0.5299 0.5299 0.848 -89.9807 166.5345)" class="st6" width="31.8" height="37.7"/>

			<rect x="257.2" y="207.1" transform="matrix(0.848 -0.5299 0.5299 0.848 -78.986 176.4738)" class="st6" width="22" height="37.7"/>

			<rect x="250.9" y="269.8" transform="matrix(0.848 -0.5299 0.5299 0.848 -106.9197 179.6526)" class="st6" width="17.8" height="13"/>
		<polygon class="st6" points="274.3,214.8 288.2,206.1 292,212.2 296.9,209.1 286.4,192.3 267.6,204.1 		"/>
		<polygon class="st6" points="292,212.2 296.9,209.1 306.3,224.3 287.6,236 274.3,214.8 288.2,206.1 		"/>
		<polygon class="st6" points="306.3,224.3 321.8,214.6 315.9,205.2 321.8,201.5 318.3,195.8 296.9,209.1 		"/>

			<rect x="317.3" y="199.1" transform="matrix(0.848 -0.5299 0.5299 0.848 -58.7223 204.4877)" class="st6" width="19.7" height="11.1"/>

			<rect x="313.8" y="173.6" transform="matrix(0.848 -0.5299 0.5299 0.848 -50.3792 198.0452)" class="st6" width="12.7" height="26.5"/>

			<rect x="301.4" y="180.8" transform="matrix(0.848 -0.5299 0.5299 0.848 -54.2931 192.0255)" class="st6" width="12.6" height="19.8"/>

			<rect x="290.6" y="187.5" transform="matrix(0.848 -0.5299 0.5299 0.848 -59.5108 187.3273)" class="st6" width="12.6" height="19.8"/>
		<polygon class="st6" points="290.2,410.8 296.9,421.5 291.4,424.9 278.2,403.9 267.7,410.4 264.1,404.6 274.6,398 265.2,383.1
			254.7,389.6 215.1,326.3 277.3,287.5 257,255.1 338.5,204.2 399.2,301.3 367.9,320.8 400.3,372.6 379.2,385.8 356.2,400.2
			365.8,415.5 355.6,421.8 352.3,416.4 355.3,414.5 315.9,351.4 302.7,359.6 302.7,359.6 287.4,369.2 287.4,369.2 270.7,379.6 		"/>

			<rect x="372.4" y="227.8" transform="matrix(0.848 -0.5299 0.5299 0.848 -77.8186 240.7881)" class="st6" width="17.1" height="56.6"/>
		<polygon class="st2" points="560.8,351.7 481.7,225.2 545.1,185.6 604.7,281 573,300.8 592.5,331.9 		"/>

			<rect x="555" y="331.7" transform="matrix(0.848 -0.5299 0.5299 0.848 -95.4904 348.8691)" class="st2" width="11.2" height="18.4"/>

			<rect x="485.8" y="220.9" transform="matrix(0.848 -0.5299 0.5299 0.848 -47.2663 295.367)" class="st2" width="11.2" height="18.4"/>

			<rect x="517.2" y="193.7" transform="matrix(0.848 -0.5299 0.5299 0.848 -27.8663 315.332)" class="st3" width="37.4" height="25.1"/>

			<rect x="202.9" y="307" transform="matrix(0.848 -0.5299 0.5299 0.848 -135.7475 160.3015)" class="st3" width="17.5" height="19.7"/>

			<rect x="138.2" y="221.4" transform="matrix(0.848 -0.5299 0.5299 0.848 -119.9852 128.576)" class="st7" width="52" height="104.2"/>
		<polygon class="st3" points="97.2,201.7 100.6,207.2 125.8,191.5 139,212.7 151.9,204.7 135.2,177.9 		"/>

			<rect x="141.2" y="207.7" transform="matrix(0.848 -0.5299 0.5299 0.848 -90.8573 111.3767)" class="st3" width="15.2" height="12.8"/>
		<polygon class="st3" points="125.8,191.5 100.6,207.2 94.5,211 114.6,243.1 145.8,223.6 		"/>
		<rect x="39" y="187.6" transform="matrix(0.848 -0.5299 0.5299 0.848 -96.5424 57.285)" class="st2" width="25.3" height="18.8"/>

			<rect x="127.9" y="329.2" transform="matrix(0.848 -0.5299 0.5299 0.848 -157.8022 127.0767)" class="st4" width="29.6" height="19"/>

			<rect x="110.5" y="287.7" transform="matrix(0.848 -0.5299 0.5299 0.848 -145.7486 113.6528)" class="st3" width="29.6" height="46.5"/>

			<rect x="86.1" y="249" transform="matrix(0.848 -0.5299 0.5299 0.848 -128.7227 94.7789)" class="st3" width="29.6" height="45.7"/>

			<rect x="138.3" y="345.2" transform="matrix(0.848 -0.5299 0.5299 0.848 -165.0849 135.1289)" class="st4" width="29.6" height="20.4"/>

			<rect x="83.9" y="237.5" transform="matrix(0.848 -0.5299 0.5299 0.848 -115.141 85.5425)" class="st3" width="15.4" height="12.1"/>
		<polygon class="st3" points="94.9,234.3 89.2,225.2 64.1,240.9 76.2,260.3 88.3,252.8 81.9,242.5 		"/>

			<rect x="57.7" y="218.5" transform="matrix(0.848 -0.5299 0.5299 0.848 -108.9379 72.8014)" class="st3" width="29.6" height="15.7"/>
		<polygon class="st3" points="270.8,27.8 195.7,74.7 216.1,107.3 196.8,119.4 216.2,150.3 310.5,91.4 		"/>
		<polygon class="st3" points="196.8,119.4 228.4,99.6 233.3,107.5 227.2,111.3 236.2,125.7 242.3,121.9 247.8,130.6 216.2,150.3
			"/>

			<rect x="118.8" y="236.9" transform="matrix(0.848 -0.5299 0.5299 0.848 -111.7307 105.0881)" class="st3" width="17.2" height="20.9"/>
		<path class="st3" d="M291.4,375.6l-4,2.7c0,0-9.8,6.9-4.9,20.2l7.7,12.4l16.7-10.4L291.4,375.6z"/>
		<polygon class="st5" points="290.2,410.8 302.3,430.1 328.1,414 334.3,410.1 322.2,390.8 		"/>
	</g>
	<g id="murs" class="st1">
		<line class="st8" x1="681.3" y1="730.7" x2="688.9" y2="726"/>
		<line class="st8" x1="610.1" y1="599.9" x2="612.5" y2="603.7"/>
		<line class="st8" x1="619.8" y1="615.4" x2="617.5" y2="611.7"/>
		<line class="st8" x1="590.3" y1="540.5" x2="588.7" y2="537.9"/>
		<line class="st8" x1="581.3" y1="526" x2="583.1" y2="529"/>
		<polyline class="st8" points="426.2,414.1 436,429.7 457.6,416.2 		"/>
		<polyline class="st8" points="403.8,450.6 406.6,455.1 394.9,462.3 		"/>
		<polyline class="st8" points="371.8,470.6 374.6,475.1 384.9,468.6 		"/>
		<polyline class="st8" points="374.6,475.1 364.5,481.4 346.7,477.3 345.5,475.4 		"/>
		<line class="st8" x1="523.2" y1="221" x2="508" y2="230.5"/>
		<line class="st8" x1="582.7" y1="316.3" x2="567.5" y2="325.8"/>
		<line class="st8" x1="94.5" y1="211" x2="89.8" y2="213.9"/>
		<line class="st8" x1="71" y1="196" x2="76.8" y2="205.3"/>
		<polyline class="st8" points="209.4,329.8 180.2,348.1 177.8,344.3 		"/>
		<line class="st8" x1="169.8" y1="331.4" x2="173" y2="336.6"/>
		<polyline class="st8" points="278.3,111.5 268.6,96 242.3,112.5 		"/>
		<line class="st8" x1="416.3" y1="445.1" x2="424.1" y2="440.6"/>
	</g>
</g>
<g id="locaux_1_" class="st0">
	<polygon class="st9" points="642.6,497.7 745.9,717 698.4,739.9 708.1,755.4 664.5,782.6 576.8,642.2 592.6,632.4 583.7,618.1
		591.4,613.3 556.7,537.4 	"/>
	<path class="st9" d="M36.1,196l17.8,28.4l91.9,147.3l39.7,63.5l21.3-13.3l29.5,47.2L215,482.3c0,0,32.4,52.8,40.5,64.9
		c33.2,49.3,90.9,47.9,122.8,28.4c6-3.7,143.7-89.8,143.7-89.8L483.5,424l-9.6,6l-7.2-11.4l3.7-2.3l-13.2-21.2l-30.7,19.2L368.1,321
		l31.2-19.5l-80.6-129l-96.5,60.3l40.2,64.3l-37.9,23.7l-89.1-142.6l-38,23.8l-9.9-15.8l-19.9,12.5l-10-16L36.1,196z"/>
	<polygon class="st10" points="707,735.8 692.3,704.4 731.4,686.3 745.9,717 	"/>
	<polygon class="st10" points="692.3,704.4 678.5,674.7 717.6,657 731.4,686.3 	"/>
	<polygon class="st10" points="678.5,674.7 664.9,645.1 703.5,627.1 717.6,657 	"/>
	<polygon class="st10" points="703.5,627.1 689.7,597.6 650.7,615.5 664.9,645.1 	"/>
	<polygon class="st10" points="650.7,615.5 636.9,586.1 675.7,567.9 689.7,597.6 	"/>
	<polygon class="st10" points="636.9,586.1 623.6,556.7 661.9,538.7 675.7,567.9 	"/>
	<polygon class="st10" points="623.6,556.7 620.4,550.4 626.4,547.5 622.8,539.9 625.6,538.7 620.7,529.1 634.8,523 645,526.2
		654,522 661.9,538.7 	"/>
	<polygon class="st10" points="620.7,529.1 612.3,511.7 642.6,497.7 654,522 645,526.2 634.8,523 	"/>
	<polygon class="st10" points="692.7,765 674.1,735.3 681.3,730.8 677,724 641.7,746.1 664.5,782.6 	"/>
	<path class="st10" d="M677,724"/>
	<path class="st10" d="M673.3,718"/>
	<polygon class="st10" points="666.5,722.3 648.5,693.5 620,711.3 641.7,746.1 677,724 673.3,718 	"/>
	<polygon class="st10" points="648.5,693.5 631,665.5 637.8,661.2 633.8,654.9 598.5,676.9 620,711.3 	"/>

		<rect x="634.5" y="659.2" transform="matrix(0.5299 0.848 -0.848 0.5299 868.2195 -230.9573)" class="st10" width="15.8" height="17"/>

		<rect x="641.5" y="675.2" transform="matrix(0.5299 0.848 -0.848 0.5299 886.5364 -231.9172)" class="st11" width="22" height="17"/>

		<rect x="620.8" y="634.2" transform="matrix(0.5299 0.848 -0.848 0.5299 839.7555 -229.4655)" class="st10" width="12" height="17"/>

		<rect x="607.7" y="620.3" transform="matrix(0.5299 0.848 -0.848 0.5299 823.7974 -228.6292)" class="st10" width="20.9" height="17"/>

		<rect x="651.4" y="696.9" transform="matrix(0.5299 0.848 -0.848 0.5299 911.3085 -233.2155)" class="st11" width="29.2" height="17"/>
	<polygon class="st10" points="633.8,654.9 629.6,648.1 622.8,652.4 605.4,624.4 576.8,642.2 598.5,676.9 	"/>
	<polygon class="st10" points="589.5,609.1 610.1,599.9 601,585.4 582.4,593.7 	"/>
	<polygon class="st10" points="601,585.4 592.1,571.1 575.6,578.7 582.4,593.7 	"/>
	<polygon class="st10" points="592.1,571.1 583.5,557.2 568.9,564 575.6,578.7 	"/>
	<polygon class="st10" points="583.5,557.2 575,543.6 562.2,549.4 568.9,564 	"/>
	<polygon class="st10" points="575,543.6 567.9,532.3 556.7,537.4 562.2,549.4 	"/>
	<polygon class="st10" points="620.4,550.4 616.3,552.4 610.8,541.1 621,536.3 626.4,547.5 	"/>
	<polygon class="st10" points="622.8,539.9 625.6,538.7 619.9,527.5 590.3,540.6 594.4,547.1 601.8,543.5 602.6,545 621,536.3 	"/>
	<polygon class="st10" points="483.3,423.9 456.5,440.6 488.9,492.3 485.6,494.4 491.8,504.4 521.8,485.6 	"/>
	<polygon class="st10" points="456.5,440.6 400,475.9 416.7,502.6 424.6,504.5 476.3,472.2 	"/>
	<polygon class="st10" points="476.3,472.2 488.9,492.3 485.6,494.4 491.8,504.4 438.6,537.6 423.6,513.7 425,504.6 	"/>
	<polygon class="st10" points="423.6,513.7 417.2,517.6 415.6,515.1 384,534.9 400.5,561.4 438.6,537.6 	"/>

		<rect x="378.1" y="548.8" transform="matrix(0.848 -0.5299 0.5299 0.848 -236.9864 290.1855)" class="st10" width="18.8" height="19"/>

		<rect x="375" y="537.4" transform="matrix(0.848 -0.5299 0.5299 0.848 -230.0579 284.8249)" class="st10" width="13.2" height="12.2"/>
	<polygon class="st10" points="372.8,541.9 362.1,548.6 368.5,559 374.5,555.2 379.3,552.2 	"/>
	<polygon class="st10" points="362.1,548.6 349.1,556.7 332.6,559.3 333.3,572.7 348.3,571.6 368.5,559 	"/>
	<path class="st10" d="M362.7,562.6l9.9,15.9c0,0,4.8-2.6,7.4-4.2l4.5-2.8l-10.1-16.1L362.7,562.6z"/>
	<path class="st10" d="M372.7,578.4c0,0-12.2,6-21.7,7.5l-2.6-14.4l14.4-9L372.7,578.4z"/>
	<path class="st10" d="M350.9,586c0,0-11.1,2-16.7,2l-1-15.3l15.1-1.1L350.9,586z"/>
	<path class="st10" d="M332.6,559.3l-9-2.1l-3.9,30.1c0,0,8.1,1.1,14.6,0.6L332.6,559.3z"/>
	<path class="st10" d="M304.5,584.2l9.8-28.9l-9.5-2.2l-14.9-9.6l-6.6-8.1l-22.7,18.8C260.6,554.2,277.1,576.2,304.5,584.2z"/>
	<path class="st10" d="M260.6,554.2l22.7-18.8l-5.7-8l-21.4-34.2l-25,15.7l23.9,38.3C255.2,547.1,259.3,553,260.6,554.2z"/>
	<polygon class="st10" points="256.3,493.2 260.3,490.7 243.6,464.1 214.8,482.1 231.4,508.7 	"/>

		<rect x="246.4" y="459.1" transform="matrix(0.5299 0.848 -0.848 0.5299 522.7012 -0.8182)" class="st10" width="31.4" height="23.9"/>

		<rect x="261.3" y="456.2" transform="matrix(0.5299 0.848 -0.848 0.5299 518.1667 -15.5494)" class="st10" width="23.6" height="6.9"/>

		<rect x="389" y="482.6" transform="matrix(0.848 -0.5299 0.5299 0.848 -203.9002 285.8792)" class="st10" width="15.1" height="31.8"/>
	<polygon class="st10" points="381.7,489 354.4,506.1 337.4,502.2 327.4,545.3 335.8,547.2 349.3,546.7 398.6,515.9 	"/>
	<polygon class="st10" points="375,493.2 350.3,487.5 346.4,504.3 354.4,506.1 	"/>
	<polygon class="st10" points="317,542.9 309.6,541.4 304.1,538.1 306.6,527.4 320,530.5 	"/>
	<polygon class="st10" points="320,530.5 322.6,519.2 309.4,515.8 306.7,527.4 	"/>
	<polygon class="st10" points="322.6,519.2 326.7,501.1 305.6,496.2 302,514 	"/>
	<polygon class="st10" points="301.8,514.1 288.9,522.2 297.8,533.8 304.1,538.1 309.4,515.8 	"/>
	<polygon class="st10" points="302.9,508.9 294.1,506.6 283.3,513.4 288.9,522.2 301.8,514.1 	"/>
	<polygon class="st10" points="318,499.1 322.3,480.6 309.7,477.8 305.6,496.2 	"/>
	<polygon class="st10" points="283.3,513.4 271.7,494.7 279.5,489.8 285.1,491.1 293.6,485.9 297.1,491.4 294.1,506.6 	"/>
	<polygon class="st10" points="295.6,498.8 304.6,500.9 302.9,508.9 294.1,506.6 	"/>

		<rect x="435.8" y="423.2" transform="matrix(0.848 -0.5299 0.5299 0.848 -157.8331 301.8274)" class="st10" width="23.2" height="5.9"/>

		<rect x="421.8" y="429.3" transform="matrix(0.848 -0.5299 0.5299 0.848 -164.9748 293.7279)" class="st12" width="15.8" height="10.4"/>

		<rect x="416.3" y="420.5" transform="matrix(0.848 -0.5299 0.5299 0.848 -161.1323 289.4605)" class="st12" width="15.8" height="10.4"/>

		<rect x="411" y="412.4" transform="matrix(0.848 -0.5299 0.5299 0.848 -157.4436 285.3637)" class="st12" width="15.8" height="9.6"/>
	<polygon class="st12" points="423,409 409.7,417.3 405.9,415.1 401.4,407.9 416.4,398.5 	"/>

		<rect x="396.9" y="392.2" transform="matrix(0.848 -0.5299 0.5299 0.848 -149.323 275.5211)" class="st12" width="17.8" height="11.8"/>

		<rect x="393.5" y="374.6" transform="matrix(0.848 -0.5299 0.5299 0.848 -142.6718 270.2281)" class="st12" width="12.7" height="18.6"/>

		<rect x="401" y="438.9" transform="matrix(0.848 -0.5299 0.5299 0.848 -173.4426 283.5999)" class="st12" width="13.5" height="10.7"/>

		<rect x="395.5" y="430.2" transform="matrix(0.848 -0.5299 0.5299 0.848 -169.5732 279.3026)" class="st12" width="13.5" height="10.3"/>

		<rect x="390" y="421.2" transform="matrix(0.848 -0.5299 0.5299 0.848 -165.7308 275.0351)" class="st12" width="13.5" height="10.5"/>

		<rect x="380.9" y="438.2" transform="matrix(0.848 -0.5299 0.5299 0.848 -177.922 275.0153)" class="st11" width="19.4" height="19"/>

		<rect x="365.4" y="448.2" transform="matrix(0.848 -0.5299 0.5299 0.848 -185.6546 268.0528)" class="st11" width="18.3" height="19"/>

		<rect x="378.7" y="426.2" transform="matrix(0.5299 0.848 -0.848 0.5299 547.4463 -123.767)" class="st12" width="13.4" height="11.5"/>

		<rect x="366.7" y="431.1" transform="matrix(0.5299 0.848 -0.848 0.5299 548.1609 -110.1302)" class="st12" width="13.4" height="16.7"/>

		<rect x="352.6" y="439.9" transform="matrix(0.5299 0.848 -0.848 0.5299 549.0067 -93.9921)" class="st12" width="13.4" height="16.7"/>

		<rect x="381.9" y="404.1" transform="matrix(0.5299 0.848 -0.848 0.5299 530.3207 -135.0063)" class="st12" width="10" height="13.5"/>

		<rect x="376.6" y="395.6" transform="matrix(0.5299 0.848 -0.848 0.5299 520.5975 -134.4968)" class="st12" width="10" height="13.5"/>
	<polygon class="st12" points="367.7,393 373.2,401.7 384.7,394.5 379.4,386 	"/>
	<polygon class="st10" points="356.2,400.2 361.7,408.9 373.2,401.7 367.7,393 	"/>

		<rect x="366" y="403.7" transform="matrix(0.848 -0.5299 0.5299 0.848 -162.63 260.4176)" class="st11" width="13.6" height="20.1"/>

		<rect x="357.8" y="417.9" transform="matrix(0.5299 0.848 -0.848 0.5299 530.5688 -109.4308)" class="st12" width="12.3" height="12"/>

		<rect x="342.8" y="421.5" transform="matrix(0.5299 0.848 -0.848 0.5299 528.0881 -97.7101)" class="st11" width="18.7" height="12"/>

		<rect x="332.8" y="395.6" transform="matrix(0.5299 0.848 -0.848 0.5299 501.5074 -98.0465)" class="st10" width="12.7" height="15.5"/>

		<rect x="337.9" y="407.8" transform="matrix(0.848 -0.5299 0.5299 0.848 -166.6966 246.0279)" class="st10" width="15.5" height="11.7"/>

		<rect x="325.7" y="384.6" transform="matrix(0.5299 0.848 -0.848 0.5299 488.9434 -97.3881)" class="st10" width="13.3" height="15.5"/>

		<rect x="319.4" y="373.8" transform="matrix(0.5299 0.848 -0.848 0.5299 476.5977 -96.7411)" class="st10" width="12.3" height="15.5"/>

		<rect x="312.9" y="363.4" transform="matrix(0.5299 0.848 -0.848 0.5299 464.7361 -96.1194)" class="st10" width="12.3" height="15.5"/>

		<rect x="306.5" y="353" transform="matrix(0.5299 0.848 -0.848 0.5299 452.8746 -95.4978)" class="st10" width="12.3" height="15.5"/>

		<rect x="315.4" y="415.3" transform="matrix(0.5299 0.848 -0.848 0.5299 513.1005 -73.5611)" class="st12" width="14.9" height="21.5"/>
	<polygon class="st12" points="309.8,425.4 302.3,430.1 328.5,472.1 332.4,472.9 355.8,458.3 336,426.7 317.7,438.1 	"/>
	<polygon class="st10" points="328.5,472.1 302.8,466.6 300.8,463.4 316.8,453.4 	"/>

		<rect x="296.6" y="448.6" transform="matrix(0.848 -0.5299 0.5299 0.848 -195.0043 229.5367)" class="st10" width="12.4" height="12.5"/>
	<polygon class="st10" points="316.8,453.4 311.3,456.8 304.7,446.2 294.2,452.8 280.9,431.5 296.9,421.5 	"/>

		<rect x="276.9" y="417.5" transform="matrix(0.848 -0.5299 0.5299 0.848 -181.3176 214.336)" class="st10" width="12.4" height="11.6"/>

		<rect x="270.3" y="406.2" transform="matrix(0.848 -0.5299 0.5299 0.848 -176.7297 209.2406)" class="st10" width="12.4" height="13.3"/>

		<rect x="258.5" y="385.1" transform="matrix(0.848 -0.5299 0.5299 0.848 -168.4992 200.0997)" class="st13" width="12.4" height="17.6"/>

		<rect x="279" y="371.7" transform="matrix(0.848 -0.5299 0.5299 0.848 -162.8045 212.3208)" class="st9" width="19.6" height="36.8"/>

		<rect x="295.8" y="361.7" transform="matrix(0.848 -0.5299 0.5299 0.848 -155.0761 219.2795)" class="st9" width="18.1" height="36.8"/>

		<rect x="223.8" y="422.3" transform="matrix(0.5299 0.848 -0.848 0.5299 489.1736 1.9485)" class="st10" width="38" height="39.8"/>

		<rect x="204.2" y="390.4" transform="matrix(0.5299 0.848 -0.848 0.5299 452.6881 3.8606)" class="st10" width="37.4" height="39.8"/>

		<rect x="183.9" y="358.4" transform="matrix(0.5299 0.848 -0.848 0.5299 416.1884 5.7735)" class="st10" width="38" height="39.8"/>

		<rect x="139.1" y="384.4" transform="matrix(0.5299 0.848 -0.848 0.5299 419.4064 37.0702)" class="st9" width="74.3" height="25"/>

		<rect x="260.3" y="278.1" transform="matrix(0.5299 0.848 -0.848 0.5299 368.654 -91.0739)" class="st13" width="12.3" height="17.8"/>

		<rect x="246.5" y="256.4" transform="matrix(0.5299 0.848 -0.848 0.5299 343.8819 -89.7756)" class="st13" width="12.9" height="17.8"/>

		<rect x="226.6" y="224.3" transform="matrix(0.5299 0.848 -0.848 0.5299 319.0572 -95.2712)" class="st13" width="37.7" height="31.8"/>

		<rect x="249.4" y="214.9" transform="matrix(0.5299 0.848 -0.848 0.5299 317.6923 -121.3142)" class="st13" width="37.7" height="22"/>

		<rect x="253.3" y="267.4" transform="matrix(0.5299 0.848 -0.848 0.5299 356.4091 -90.4321)" class="st13" width="13" height="17.8"/>
	<polygon class="st13" points="274.3,214.9 288.2,206.2 292,212.2 296.9,209.2 286.4,192.4 267.6,204.1 	"/>
	<polygon class="st13" points="292,212.2 296.9,209.2 306.3,224.3 287.6,236.1 274.3,214.9 288.2,206.2 	"/>
	<polygon class="st13" points="306.3,224.3 321.8,214.7 315.9,205.2 321.9,201.5 318.3,195.8 296.9,209.2 	"/>

		<rect x="317.4" y="199.2" transform="matrix(0.848 -0.5299 0.5299 0.848 -58.7683 204.5061)" class="st13" width="19.7" height="11.1"/>

		<rect x="306.9" y="180.6" transform="matrix(0.5299 0.848 -0.848 0.5299 309.0225 -183.6884)" class="st13" width="26.5" height="12.7"/>

		<rect x="297.8" y="184.4" transform="matrix(0.5299 0.848 -0.848 0.5299 306.3963 -171.2723)" class="st13" width="19.8" height="12.6"/>

		<rect x="287.1" y="191.1" transform="matrix(0.5299 0.848 -0.848 0.5299 307.0369 -159.0476)" class="st13" width="19.8" height="12.6"/>
	<polygon class="st13" points="290.2,410.8 296.9,421.5 291.4,425 278.2,403.9 267.7,410.4 264.1,404.6 274.6,398.1 265.2,383.1
		254.7,389.7 215.2,326.3 277.3,287.5 257.1,255.1 338.5,204.2 399.2,301.3 367.9,320.9 400.3,372.7 379.3,385.8 356.2,400.2
		365.8,415.5 355.7,421.8 352.3,416.4 355.3,414.5 315.9,351.4 302.8,359.7 302.8,359.7 287.4,369.3 287.4,369.3 270.8,379.7 	"/>

		<rect x="352.7" y="247.5" transform="matrix(0.5299 0.848 -0.848 0.5299 396.2409 -202.7022)" class="st13" width="56.6" height="17.1"/>
	<polygon class="st9" points="560.8,351.8 481.7,225.3 545.1,185.7 604.8,281.1 573.1,300.9 592.5,332 	"/>

		<rect x="555.1" y="331.8" transform="matrix(0.848 -0.5299 0.5299 0.848 -95.4953 348.9312)" class="st9" width="11.3" height="18.4"/>

		<rect x="485.8" y="220.9" transform="matrix(0.848 -0.5299 0.5299 0.848 -47.265 295.3659)" class="st9" width="11.3" height="18.4"/>

		<rect x="517.3" y="193.7" transform="matrix(0.848 -0.5299 0.5299 0.848 -27.8315 315.3366)" class="st14" width="37.4" height="25.1"/>

		<rect x="202.9" y="307.1" transform="matrix(0.848 -0.5299 0.5299 0.848 -135.7616 160.3254)" class="st10" width="17.5" height="19.7"/>

		<rect x="112.2" y="247.5" transform="matrix(0.5299 0.848 -0.848 0.5299 309.1676 -10.7051)" class="st15" width="104.2" height="52"/>
	<polygon class="st10" points="97.2,201.7 100.6,207.3 125.8,191.5 139,212.7 151.9,204.7 135.2,178 	"/>

		<rect x="141.3" y="207.7" transform="matrix(0.848 -0.5299 0.5299 0.848 -90.865 111.4238)" class="st10" width="15.2" height="12.8"/>
	<polygon class="st10" points="125.8,191.5 100.6,207.3 94.5,211 114.6,243.1 145.8,223.6 	"/>

		<rect x="42.2" y="184.4" transform="matrix(0.5299 0.848 -0.848 0.5299 191.4058 48.8592)" class="st9" width="18.8" height="25.3"/>

		<rect x="102.1" y="296.2" transform="matrix(0.5299 0.848 -0.848 0.5299 322.6607 39.8767)" class="st10" width="46.5" height="29.6"/>
	<rect x="78" y="257" transform="matrix(0.5299 0.848 -0.848 0.5299 277.9984 42.2173)" class="st10" width="45.8" height="29.6"/>

		<rect x="85.6" y="235.9" transform="matrix(0.5299 0.848 -0.848 0.5299 249.6376 36.7952)" class="st10" width="12.1" height="15.4"/>
	<polygon class="st10" points="95,234.4 89.3,225.3 64.1,241 76.2,260.3 88.3,252.8 81.9,242.5 	"/>

		<rect x="57.7" y="218.6" transform="matrix(0.848 -0.5299 0.5299 0.848 -108.9688 72.8377)" class="st10" width="29.6" height="15.8"/>
	<polygon class="st10" points="270.8,27.8 195.7,74.7 216.2,107.3 196.9,119.4 216.2,150.4 310.5,91.4 	"/>
	<polygon class="st10" points="196.9,119.4 228.4,99.7 233.3,107.5 227.2,111.4 236.2,125.8 242.4,121.9 247.8,130.6 216.2,150.4
		"/>

		<rect x="117" y="238.8" transform="matrix(0.5299 0.848 -0.848 0.5299 269.7442 8.2312)" class="st10" width="20.9" height="17.3"/>
	<path class="st10" d="M291.4,375.6l-4,2.7c0,0-9.8,6.9-4.9,20.2l7.7,12.4l16.7-10.4L291.4,375.6z"/>
	<polygon class="st12" points="290.2,410.8 302.3,430.1 328.1,414 334.3,410.2 322.2,390.8 	"/>
	<polyline class="st16" points="278.2,111.4 268.6,96.2 232.1,118.7 236.3,125.5 242.4,121.6 247.8,130.1 	"/>
	<line class="st17" x1="681.3" y1="730.8" x2="688.9" y2="726"/>
	<line class="st17" x1="610.1" y1="599.9" x2="612.5" y2="603.7"/>
	<line class="st17" x1="619.8" y1="615.4" x2="617.5" y2="611.7"/>
	<line class="st17" x1="590.3" y1="540.6" x2="588.7" y2="537.9"/>
	<line class="st17" x1="581.3" y1="526.1" x2="583.1" y2="529.1"/>
	<polyline class="st17" points="426.2,414.1 436,429.8 457.6,416.2 	"/>
	<polyline class="st17" points="403.9,450.7 406.6,455.1 395,462.4 	"/>
	<polyline class="st17" points="371.8,470.7 374.6,475.1 384.9,468.6 	"/>
	<polyline class="st17" points="374.6,475.1 364.5,481.4 346.7,477.3 345.5,475.4 	"/>
	<path class="st17" d="M287.4,369.3"/>
	<path class="st17" d="M302.8,359.7"/>
	<line class="st17" x1="523.2" y1="221.1" x2="508" y2="230.6"/>
	<line class="st17" x1="582.7" y1="316.3" x2="567.6" y2="325.8"/>
	<line class="st17" x1="94.5" y1="211" x2="89.8" y2="214"/>
	<line class="st17" x1="71" y1="196.1" x2="76.8" y2="205.3"/>
	<polyline class="st17" points="209.5,329.9 180.2,348.1 177.8,344.3 	"/>
	<line class="st17" x1="169.8" y1="331.5" x2="173" y2="336.7"/>
	<polyline class="st17" points="278.3,111.5 268.6,96.1 242.4,112.5 	"/>
	<line class="st17" x1="416.3" y1="445.2" x2="424.2" y2="440.6"/>
	<line class="st18" x1="67.4" y1="198.4" x2="35.9" y2="195.8"/>
	<line class="st18" x1="57.4" y1="182.4" x2="45.9" y2="211.8"/>
	<line class="st18" x1="167.2" y1="358.7" x2="185.3" y2="435"/>
	<line class="st18" x1="491.3" y1="219.3" x2="491.5" y2="240.9"/>
	<line class="st18" x1="501" y1="234.9" x2="481.7" y2="225.3"/>
	<line class="st18" x1="560.6" y1="330.2" x2="560.8" y2="351.8"/>
	<line class="st18" x1="570.3" y1="345.8" x2="551" y2="336.2"/>
	<line class="st18" x1="146" y1="372" x2="206.5" y2="421.7"/>
	<line class="st18" x1="270.8" y1="379.7" x2="284.3" y2="381.5"/>
	<line class="st18" x1="287.4" y1="369.3" x2="284.3" y2="381.5"/>
	<polygon class="st11" points="167.2,358.7 161.5,349.5 152.2,355.3 146.9,346.8 134.9,354.3 146,372 	"/>

		<rect x="149.1" y="332.5" transform="matrix(0.5299 0.848 -0.848 0.5299 357.7275 27.4088)" class="st19" width="10.1" height="7.8"/>
	<polygon class="st11" points="125,338.6 134.9,354.4 160.1,338.6 150.2,322.8 	"/>
	<rect x="149.2" y="342.8" transform="matrix(0.5299 0.848 -0.848 0.5299 367.826 32.881)" class="st10" width="10" height="10.9"/>
	<rect x="143.8" y="337.3" transform="matrix(0.5299 0.848 -0.848 0.5299 358.017 33.419)" class="st14" width="10" height="4.7"/>

		<rect x="146.9" y="323.5" transform="matrix(0.5299 0.848 -0.848 0.5299 346.7361 26.849)" class="st14" width="4.5" height="5.4"/>
</g>
<g id="icônes" class="st0">
	<g class="st1">
		<g>
			<g>
				<path class="st20" d="M165.8,353.6h-7.6c-1,0-1.9-0.8-1.9-1.9v-7.6c0-1,0.8-1.9,1.9-1.9h7.6c1,0,1.9,0.8,1.9,1.9v7.6
					C167.7,352.8,166.9,353.6,165.8,353.6z"/>
				<g>
					<path class="st21" d="M160.6,352.5h-2.1c-0.5,0-0.9-0.4-0.9-0.9v-7.3c0-0.5,0.4-0.9,0.9-0.9h2.1c0.5,0,0.9,0.4,0.9,0.9v7.3
						C161.5,352.1,161.1,352.5,160.6,352.5z"/>
					<path class="st21" d="M165.6,352.5h-2.1c-0.5,0-0.9-0.4-0.9-0.9v-7.3c0-0.5,0.4-0.9,0.9-0.9h2.1c0.5,0,0.9,0.4,0.9,0.9v7.3
						C166.5,352.1,166.1,352.5,165.6,352.5z"/>
				</g>
			</g>
			<path class="st20" d="M161,347.3l-1.4-1.4c-0.1-0.1-0.2-0.1-0.2,0l-1.4,1.4c-0.1,0.1,0,0.3,0.1,0.3h0.8v2.2
				c0,0.2,0.2,0.4,0.4,0.4h0.5c0.2,0,0.4-0.2,0.4-0.4v-2.2h0.8C161,347.5,161.1,347.4,161,347.3z"/>
			<path class="st20" d="M163,348.6l1.4,1.4c0.1,0.1,0.2,0.1,0.2,0l1.4-1.4c0.1-0.1,0-0.3-0.1-0.3h-0.8v-2.2c0-0.2-0.2-0.4-0.4-0.4
				h-0.5c-0.2,0-0.4,0.2-0.4,0.4v2.2h-0.8C162.9,348.3,162.9,348.5,163,348.6z"/>
		</g>
		<g>
			<path class="st20" d="M141.7,349.5h-7.6c-1,0-1.9-0.8-1.9-1.9V340c0-1,0.8-1.9,1.9-1.9h7.6c1,0,1.9,0.8,1.9,1.9v7.6
				C143.6,348.6,142.7,349.5,141.7,349.5z"/>
			<g>
				<circle class="st21" cx="137.9" cy="339.9" r="0.8"/>
				<path class="st21" d="M140,343.7l-0.7-2.2c-0.1-0.4-0.5-0.7-1.1-0.7h-0.7c-0.6,0-1,0.3-1.1,0.7l-0.7,2.2
					c-0.1,0.5,0.4,0.6,0.6,0.2l0.7-2h0.1c0,0-0.9,3.6-1,3.7c0,0.1,0,0.1,0.1,0.1c0,0,0.8,0,0.8,0l0,2.4c0,0.5,0.7,0.5,0.7,0v-2.4
					h0.3l0,2.4c0,0.5,0.7,0.5,0.7,0l0-2.4c0,0,0.8,0,0.8,0c0.1,0,0.1,0,0.1-0.1c0-0.1-1-3.7-1-3.7h0.1l0.7,2
					C139.6,344.3,140.1,344.2,140,343.7z"/>
			</g>
		</g>
		<g>
			<path class="st20" d="M152.7,366.8h-7.6c-1,0-1.9-0.8-1.9-1.9v-7.6c0-1,0.8-1.9,1.9-1.9h7.6c1,0,1.9,0.8,1.9,1.9v7.6
				C154.6,366,153.8,366.8,152.7,366.8z"/>
			<g>
				<circle class="st21" cx="148.9" cy="357.2" r="0.8"/>
				<path class="st21" d="M149.8,358.1l-0.8,0l-0.8,0c-0.8,0-1,0.2-1,1v2.4c0,0.5,0.6,0.5,0.6,0l0.1-2.2h0.2v6.1
					c0,0.6,0.9,0.6,0.9,0l0.1-3.5h0.2l0.1,3.5c0,0.6,0.9,0.6,0.9,0v-6.1h0.2l0.1,2.2c0,0.5,0.6,0.5,0.6,0v-2.4
					C150.8,358.3,150.5,358.1,149.8,358.1z"/>
			</g>
		</g>
		<g>
			<path class="st20" d="M162.5,338.2h-7.6c-1,0-1.9-0.8-1.9-1.9v-7.6c0-1,0.8-1.9,1.9-1.9h7.6c1,0,1.9,0.8,1.9,1.9v7.6
				C164.3,337.4,163.5,338.2,162.5,338.2z"/>
			<g>
				<polygon class="st21" points="159.1,328.7 159.1,336.4 158.4,336.4 158.4,328.7 159.1,328.7 				"/>
				<path class="st21" d="M158.7,332.5"/>
				<path class="st21" d="M156.1,329.9c0.4,0,0.6-0.3,0.6-0.6c0-0.4-0.3-0.6-0.6-0.6c-0.4,0-0.6,0.3-0.6,0.6
					C155.4,329.6,155.7,329.9,156.1,329.9L156.1,329.9z"/>
				<path class="st21" d="M156,333.9v2.2c0,0.4-0.6,0.4-0.6,0v-2.2h-0.8l0.9-3h-0.1l-0.5,1.7c-0.1,0.4-0.6,0.2-0.5-0.2l0.6-1.8
					c0.1-0.2,0.3-0.6,0.8-0.6h0.4l0,0h0.5c0.5,0,0.7,0.4,0.8,0.6l0.6,1.8c0.1,0.4-0.4,0.6-0.5,0.2l-0.5-1.7h-0.1l0.9,3h-0.8v2.2
					c0,0.4-0.6,0.4-0.6,0v-2.2H156L156,333.9z"/>
				<path class="st21" d="M160.6,330c-0.4,0-0.8,0.4-0.8,0.8v2c0,0.4,0.6,0.4,0.6,0V331h0.1v5c0,0.5,0.7,0.5,0.7,0v-2.9h0.1v2.9
					c0,0.5,0.7,0.5,0.7,0v-5h0.1v1.8c0,0.4,0.5,0.4,0.5,0v-2c0-0.4-0.3-0.8-0.8-0.8L160.6,330L160.6,330z"/>
				<path class="st21" d="M161.3,329.9c0.4,0,0.6-0.3,0.6-0.6c0-0.4-0.3-0.6-0.6-0.6c-0.4,0-0.6,0.3-0.6,0.6
					C160.6,329.6,160.9,329.9,161.3,329.9L161.3,329.9z"/>
			</g>
		</g>
	</g>
	<g class="st1">
		<path class="st20" d="M88.9,205.1h-7.6c-1,0-1.9-0.8-1.9-1.9v-7.6c0-1,0.8-1.9,1.9-1.9h7.6c1,0,1.9,0.8,1.9,1.9v7.6
			C90.8,204.2,89.9,205.1,88.9,205.1z"/>
		<polygon class="st21" points="85.1,195.7 85.1,198.2 83,198.2 83,200.6 80.9,200.6 80.9,203.1 85.1,203.1 85.1,200.6 87.2,200.6
			87.2,198.2 89.3,198.2 89.3,195.7 		"/>
	</g>
	<g class="st1">
		<path class="st20" d="M580.6,336.9H573c-1,0-1.9-0.8-1.9-1.9v-7.6c0-1,0.8-1.9,1.9-1.9h7.6c1,0,1.9,0.8,1.9,1.9v7.6
			C582.5,336,581.7,336.9,580.6,336.9z"/>
		<polygon class="st21" points="576.8,327.5 576.8,330 574.7,330 574.7,332.4 572.7,332.4 572.7,334.9 576.8,334.9 576.8,332.4
			578.9,332.4 578.9,330 581,330 581,327.5 		"/>
	</g>
	<g class="st1">
		<path class="st20" d="M65.2,217.6h-7.6c-1,0-1.9-0.8-1.9-1.9v-7.6c0-1,0.8-1.9,1.9-1.9h7.6c1,0,1.9,0.8,1.9,1.9v7.6
			C67.1,216.7,66.3,217.6,65.2,217.6z"/>
		<polygon class="st21" points="61.4,208.2 61.4,210.7 59.4,210.7 59.4,213.1 57.3,213.1 57.3,215.6 61.4,215.6 61.4,213.1
			63.5,213.1 63.5,210.7 65.6,210.7 65.6,208.2 		"/>
	</g>
	<g class="st1">
		<path class="st20" d="M194.5,335.5H187c-1,0-1.9-0.8-1.9-1.9v-7.6c0-1,0.8-1.9,1.9-1.9h7.6c1,0,1.9,0.8,1.9,1.9v7.6
			C196.4,334.7,195.6,335.5,194.5,335.5z"/>
		<polygon class="st21" points="190.7,326.2 190.7,328.6 188.7,328.6 188.7,331.1 186.6,331.1 186.6,333.6 190.7,333.6 190.7,331.1
			192.8,331.1 192.8,328.6 194.9,328.6 194.9,326.2 		"/>
	</g>
	<g class="st1">
		<path class="st20" d="M362.1,475.3h-7.6c-1,0-1.9-0.8-1.9-1.9v-7.6c0-1,0.8-1.9,1.9-1.9h7.6c1,0,1.9,0.8,1.9,1.9v7.6
			C364,474.5,363.1,475.3,362.1,475.3z"/>
		<polygon class="st21" points="358.3,465.9 358.3,468.4 356.2,468.4 356.2,470.9 354.1,470.9 354.1,473.3 358.3,473.3 358.3,470.9
			360.4,470.9 360.4,468.4 362.5,468.4 362.5,465.9 		"/>
	</g>
	<g class="st1">
		<path class="st20" d="M318.1,571.6h-7.6c-1,0-1.9-0.8-1.9-1.9v-7.6c0-1,0.8-1.9,1.9-1.9h7.6c1,0,1.9,0.8,1.9,1.9v7.6
			C320,570.8,319.1,571.6,318.1,571.6z"/>
		<polygon class="st21" points="314.3,562.3 314.3,564.7 312.2,564.7 312.2,567.2 310.1,567.2 310.1,569.7 314.3,569.7 314.3,567.2
			316.4,567.2 316.4,564.7 318.5,564.7 318.5,562.3 		"/>
	</g>
	<g class="st1">
		<path class="st20" d="M450.2,418.5h-7.6c-1,0-1.9-0.8-1.9-1.9V409c0-1,0.8-1.9,1.9-1.9h7.6c1,0,1.9,0.8,1.9,1.9v7.6
			C452.1,417.6,451.2,418.5,450.2,418.5z"/>
		<polygon class="st21" points="446.4,409.1 446.4,411.6 444.3,411.6 444.3,414 442.2,414 442.2,416.5 446.4,416.5 446.4,414
			448.5,414 448.5,411.6 450.6,411.6 450.6,409.1 		"/>
	</g>
	<g class="st1">
		<path class="st20" d="M308.4,384h-7.6c-1,0-1.9-0.8-1.9-1.9v-7.6c0-1,0.8-1.9,1.9-1.9h7.6c1,0,1.9,0.8,1.9,1.9v7.6
			C310.2,383.1,309.4,384,308.4,384z"/>
		<polygon class="st21" points="304.6,374.6 304.6,377.1 302.5,377.1 302.5,379.5 300.4,379.5 300.4,382 304.6,382 304.6,379.5
			306.7,379.5 306.7,377.1 308.7,377.1 308.7,374.6 		"/>
	</g>
	<g class="st1">
		<path class="st20" d="M511.8,225h-7.6c-1,0-1.9-0.8-1.9-1.9v-7.6c0-1,0.8-1.9,1.9-1.9h7.6c1,0,1.9,0.8,1.9,1.9v7.6
			C513.7,224.1,512.9,225,511.8,225z"/>
		<polygon class="st21" points="508,215.6 508,218.1 506,218.1 506,220.5 503.9,220.5 503.9,223 508,223 508,220.5 510.1,220.5
			510.1,218.1 512.2,218.1 512.2,215.6 		"/>
	</g>
	<g class="st1">
		<path class="st20" d="M602.8,533.1h-7.6c-1,0-1.9-0.8-1.9-1.9v-7.6c0-1,0.8-1.9,1.9-1.9h7.6c1,0,1.9,0.8,1.9,1.9v7.6
			C604.7,532.3,603.9,533.1,602.8,533.1z"/>
		<polygon class="st21" points="599,523.7 599,526.2 596.9,526.2 596.9,528.7 594.9,528.7 594.9,531.1 599,531.1 599,528.7
			601.1,528.7 601.1,526.2 603.2,526.2 603.2,523.7 		"/>
	</g>
	<g class="st1">
		<path class="st20" d="M607,619.2h-7.6c-1,0-1.9-0.8-1.9-1.9v-7.6c0-1,0.8-1.9,1.9-1.9h7.6c1,0,1.9,0.8,1.9,1.9v7.6
			C608.9,618.4,608,619.2,607,619.2z"/>
		<polygon class="st21" points="603.2,609.8 603.2,612.3 601.1,612.3 601.1,614.8 599,614.8 599,617.2 603.2,617.2 603.2,614.8
			605.3,614.8 605.3,612.3 607.4,612.3 607.4,609.8 		"/>
	</g>
	<g class="st1">
		<path class="st20" d="M693,746.8h-7.6c-1,0-1.9-0.8-1.9-1.9v-7.6c0-1,0.8-1.9,1.9-1.9h7.6c1,0,1.9,0.8,1.9,1.9v7.6
			C694.8,746,694,746.8,693,746.8z"/>
		<polygon class="st21" points="689.2,737.4 689.2,739.9 687.1,739.9 687.1,742.4 685,742.4 685,744.8 689.2,744.8 689.2,742.4
			691.3,742.4 691.3,739.9 693.4,739.9 693.4,737.4 		"/>
	</g>
	<g class="st1">
		<g>
			<path class="st20" d="M620.3,553.2h-7.6c-1,0-1.9-0.8-1.9-1.9v-7.6c0-1,0.8-1.9,1.9-1.9h7.6c1,0,1.9,0.8,1.9,1.9v7.6
				C622.1,552.4,621.3,553.2,620.3,553.2z"/>
			<g>
				<path class="st21" d="M615,552.2h-2.1c-0.5,0-0.9-0.4-0.9-0.9v-7.3c0-0.5,0.4-0.9,0.9-0.9h2.1c0.5,0,0.9,0.4,0.9,0.9v7.3
					C615.9,551.7,615.5,552.2,615,552.2z"/>
				<path class="st21" d="M620,552.2h-2.1c-0.5,0-0.9-0.4-0.9-0.9v-7.3c0-0.5,0.4-0.9,0.9-0.9h2.1c0.5,0,0.9,0.4,0.9,0.9v7.3
					C620.9,551.7,620.5,552.2,620,552.2z"/>
			</g>
		</g>
		<path class="st20" d="M615.5,546.9l-1.4-1.4c-0.1-0.1-0.2-0.1-0.2,0l-1.4,1.4c-0.1,0.1,0,0.3,0.1,0.3h0.8v2.2
			c0,0.2,0.2,0.4,0.4,0.4h0.5c0.2,0,0.4-0.2,0.4-0.4v-2.2h0.8C615.5,547.2,615.6,547,615.5,546.9z"/>
		<path class="st20" d="M617.4,548.2l1.4,1.4c0.1,0.1,0.2,0.1,0.2,0l1.4-1.4c0.1-0.1,0-0.3-0.1-0.3h-0.8v-2.2c0-0.2-0.2-0.4-0.4-0.4
			h-0.5c-0.2,0-0.4,0.2-0.4,0.4v2.2h-0.8C617.4,548,617.3,548.1,617.4,548.2z"/>
	</g>
	<g class="st1">
		<g>
			<path class="st20" d="M303.8,505.3h-7.6c-1,0-1.9-0.8-1.9-1.9v-7.6c0-1,0.8-1.9,1.9-1.9h7.6c1,0,1.9,0.8,1.9,1.9v7.6
				C305.6,504.4,304.8,505.3,303.8,505.3z"/>
			<g>
				<path class="st21" d="M298.5,504.2h-2.1c-0.5,0-0.9-0.4-0.9-0.9V496c0-0.5,0.4-0.9,0.9-0.9h2.1c0.5,0,0.9,0.4,0.9,0.9v7.3
					C299.4,503.8,299,504.2,298.5,504.2z"/>
				<path class="st21" d="M303.5,504.2h-2.1c-0.5,0-0.9-0.4-0.9-0.9V496c0-0.5,0.4-0.9,0.9-0.9h2.1c0.5,0,0.9,0.4,0.9,0.9v7.3
					C304.4,503.8,304,504.2,303.5,504.2z"/>
			</g>
		</g>
		<path class="st20" d="M299,498.9l-1.4-1.4c-0.1-0.1-0.2-0.1-0.2,0l-1.4,1.4c-0.1,0.1,0,0.3,0.1,0.3h0.8v2.2c0,0.2,0.2,0.4,0.4,0.4
			h0.5c0.2,0,0.4-0.2,0.4-0.4v-2.2h0.8C299,499.2,299.1,499,299,498.9z"/>
		<path class="st20" d="M300.9,500.3l1.4,1.4c0.1,0.1,0.2,0.1,0.2,0l1.4-1.4c0.1-0.1,0-0.3-0.1-0.3h-0.8v-2.2c0-0.2-0.2-0.4-0.4-0.4
			h-0.5c-0.2,0-0.4,0.2-0.4,0.4v2.2H301C300.9,500,300.8,500.2,300.9,500.3z"/>
	</g>
	<g class="st1">
		<g>
			<path class="st20" d="M289.4,424.6h-7.6c-1,0-1.9-0.8-1.9-1.9v-7.6c0-1,0.8-1.9,1.9-1.9h7.6c1,0,1.9,0.8,1.9,1.9v7.6
				C291.3,423.8,290.5,424.6,289.4,424.6z"/>
			<g>
				<path class="st21" d="M284.2,423.6h-2.1c-0.5,0-0.9-0.4-0.9-0.9v-7.3c0-0.5,0.4-0.9,0.9-0.9h2.1c0.5,0,0.9,0.4,0.9,0.9v7.3
					C285.1,423.2,284.7,423.6,284.2,423.6z"/>
				<path class="st21" d="M289.2,423.6h-2.1c-0.5,0-0.9-0.4-0.9-0.9v-7.3c0-0.5,0.4-0.9,0.9-0.9h2.1c0.5,0,0.9,0.4,0.9,0.9v7.3
					C290.1,423.2,289.7,423.6,289.2,423.6z"/>
			</g>
		</g>
		<path class="st20" d="M284.6,418.3l-1.4-1.4c-0.1-0.1-0.2-0.1-0.2,0l-1.4,1.4c-0.1,0.1,0,0.3,0.1,0.3h0.8v2.2
			c0,0.2,0.2,0.4,0.4,0.4h0.5c0.2,0,0.4-0.2,0.4-0.4v-2.2h0.8C284.7,418.6,284.7,418.4,284.6,418.3z"/>
		<path class="st20" d="M286.6,419.6l1.4,1.4c0.1,0.1,0.2,0.1,0.2,0l1.4-1.4c0.1-0.1,0-0.3-0.1-0.3h-0.8v-2.2c0-0.2-0.2-0.4-0.4-0.4
			h-0.5c-0.2,0-0.4,0.2-0.4,0.4v2.2h-0.8C286.6,419.4,286.5,419.5,286.6,419.6z"/>
	</g>
	<g class="st1">

			<ellipse transform="matrix(0.848 -0.5299 0.5299 0.848 -147.2666 212.9847)" class="st20" cx="297.7" cy="363.3" rx="4.5" ry="4.5"/>
		<path class="st21" d="M299.2,361.2l-2.9-0.7c-0.1,0-0.2,0-0.3,0.2l-0.7,2.9c0,0.2,0.2,0.4,0.3,0.2l1.1-0.7l1.7,2.7
			c0.2,0.2,0.5,0.3,0.7,0.2l0.6-0.4c0.2-0.2,0.3-0.5,0.2-0.7l-1.7-2.7l1.1-0.7C299.4,361.6,299.4,361.3,299.2,361.2z"/>
	</g>
	<g class="st1">

			<ellipse transform="matrix(0.848 -0.5299 0.5299 0.848 -144.3891 261.8076)" class="st20" cx="384.3" cy="382.7" rx="4.5" ry="4.5"/>
		<path class="st21" d="M382.9,384.7l2.9,0.7c0.1,0,0.2,0,0.3-0.2l0.7-2.9c0-0.2-0.2-0.4-0.3-0.2l-1.1,0.7l-1.7-2.7
			c-0.2-0.2-0.5-0.3-0.7-0.2l-0.6,0.4c-0.2,0.2-0.3,0.5-0.2,0.7l1.7,2.7l-1.1,0.7C382.7,384.4,382.7,384.7,382.9,384.7z"/>
	</g>
	<g class="st1">
		<path class="st20" d="M378.8,463.4h-7.6c-1,0-1.9-0.8-1.9-1.9V454c0-1,0.8-1.9,1.9-1.9h7.6c1,0,1.9,0.8,1.9,1.9v7.6
			C380.7,462.6,379.8,463.4,378.8,463.4z"/>
		<g>
			<circle class="st21" cx="375" cy="453.8" r="0.8"/>
			<path class="st21" d="M377.1,457.7l-0.7-2.2c-0.1-0.4-0.5-0.7-1.1-0.7h-0.7c-0.6,0-1,0.3-1.1,0.7l-0.7,2.2
				c-0.1,0.5,0.4,0.6,0.6,0.2l0.7-2h0.1c0,0-0.9,3.6-1,3.7c0,0.1,0,0.1,0.1,0.1c0,0,0.8,0,0.8,0l0,2.4c0,0.5,0.7,0.5,0.7,0v-2.4h0.3
				l0,2.4c0,0.5,0.7,0.5,0.7,0l0-2.4c0,0,0.8,0,0.8,0c0.1,0,0.1,0,0.1-0.1c0-0.1-1-3.7-1-3.7h0.1l0.7,2
				C376.7,458.3,377.3,458.1,377.1,457.7z"/>
		</g>
	</g>
	<g class="st1">
		<path class="st20" d="M669.3,710.1h-7.6c-1,0-1.9-0.8-1.9-1.9v-7.6c0-1,0.8-1.9,1.9-1.9h7.6c1,0,1.9,0.8,1.9,1.9v7.6
			C671.2,709.2,670.3,710.1,669.3,710.1z"/>
		<g>
			<circle class="st21" cx="665.5" cy="700.5" r="0.8"/>
			<path class="st21" d="M667.6,704.3l-0.7-2.2c-0.1-0.4-0.5-0.7-1.1-0.7h-0.7c-0.6,0-1,0.3-1.1,0.7l-0.7,2.2
				c-0.1,0.5,0.4,0.6,0.6,0.2l0.7-2h0.1c0,0-0.9,3.6-1,3.7c0,0.1,0,0.1,0.1,0.1c0,0,0.8,0,0.8,0l0,2.4c0,0.5,0.7,0.5,0.7,0v-2.4h0.3
				l0,2.4c0,0.5,0.7,0.5,0.7,0l0-2.4c0,0,0.8,0,0.8,0c0.1,0,0.1,0,0.1-0.1c0-0.1-1-3.7-1-3.7h0.1l0.7,2
				C667.2,705,667.8,704.8,667.6,704.3z"/>
		</g>
	</g>
	<g class="st1">
		<path class="st20" d="M378,419.5h-7.6c-1,0-1.9-0.8-1.9-1.9V410c0-1,0.8-1.9,1.9-1.9h7.6c1,0,1.9,0.8,1.9,1.9v7.6
			C379.9,418.6,379.1,419.5,378,419.5z"/>
		<g>
			<circle class="st21" cx="374.2" cy="409.9" r="0.8"/>
			<path class="st21" d="M376.4,413.7l-0.7-2.2c-0.1-0.4-0.5-0.7-1.1-0.7h-0.7c-0.6,0-1,0.3-1.1,0.7l-0.7,2.2
				c-0.1,0.5,0.4,0.6,0.6,0.2l0.7-2h0.1c0,0-0.9,3.6-1,3.7c0,0.1,0,0.1,0.1,0.1c0,0,0.8,0,0.8,0l0,2.4c0,0.5,0.7,0.5,0.7,0v-2.4h0.3
				l0,2.4c0,0.5,0.7,0.5,0.7,0l0-2.4c0,0,0.8,0,0.8,0c0.1,0,0.1,0,0.1-0.1c0-0.1-1-3.7-1-3.7h0.1l0.7,2
				C375.9,414.3,376.5,414.2,376.4,413.7z"/>
		</g>
	</g>
	<g class="st1">
		<path class="st20" d="M394.2,453.4h-7.6c-1,0-1.9-0.8-1.9-1.9V444c0-1,0.8-1.9,1.9-1.9h7.6c1,0,1.9,0.8,1.9,1.9v7.6
			C396.1,452.6,395.3,453.4,394.2,453.4z"/>
		<g>
			<circle class="st21" cx="390.4" cy="443.8" r="0.8"/>
			<path class="st21" d="M391.3,444.8l-0.8,0l-0.8,0c-0.8,0-1,0.2-1,1v2.4c0,0.5,0.6,0.5,0.6,0l0.1-2.2h0.2v6.1c0,0.6,0.9,0.6,0.9,0
				l0.1-3.5h0.2l0.1,3.5c0,0.6,0.9,0.6,0.9,0V446h0.2l0.1,2.2c0,0.5,0.6,0.5,0.6,0v-2.4C392.3,445,392.1,444.8,391.3,444.8z"/>
		</g>
	</g>
	<g class="st1">
		<path class="st20" d="M656.3,689.4h-7.6c-1,0-1.9-0.8-1.9-1.9v-7.6c0-1,0.8-1.9,1.9-1.9h7.6c1,0,1.9,0.8,1.9,1.9v7.6
			C658.1,688.5,657.3,689.4,656.3,689.4z"/>
		<g>
			<circle class="st21" cx="652.5" cy="679.8" r="0.8"/>
			<path class="st21" d="M653.3,680.7l-0.8,0l-0.8,0c-0.8,0-1,0.2-1,1v2.4c0,0.5,0.6,0.5,0.6,0l0.1-2.2h0.2v6.1c0,0.6,0.9,0.6,0.9,0
				l0.1-3.5h0.2l0.1,3.5c0,0.6,0.9,0.6,0.9,0v-6.1h0.2l0.1,2.2c0,0.5,0.6,0.5,0.6,0v-2.4C654.3,680.9,654.1,680.7,653.3,680.7z"/>
		</g>
	</g>
	<g class="st1">
		<path class="st20" d="M356,433.1h-7.6c-1,0-1.9-0.8-1.9-1.9v-7.6c0-1,0.8-1.9,1.9-1.9h7.6c1,0,1.9,0.8,1.9,1.9v7.6
			C357.9,432.2,357,433.1,356,433.1z"/>
		<g>
			<circle class="st21" cx="352.2" cy="423.4" r="0.8"/>
			<path class="st21" d="M353,424.4l-0.8,0l-0.8,0c-0.8,0-1,0.2-1,1v2.4c0,0.5,0.6,0.5,0.6,0l0.1-2.2h0.2v6.1c0,0.6,0.9,0.6,0.9,0
				l0.1-3.5h0.2l0.1,3.5c0,0.6,0.9,0.6,0.9,0v-6.1h0.2l0.1,2.2c0,0.5,0.6,0.5,0.6,0v-2.4C354,424.6,353.8,424.4,353,424.4z"/>
		</g>
	</g>
	<g class="st1">
		<path class="st20" d="M259.9,120.7h-7.6c-1,0-1.9-0.8-1.9-1.9v-7.6c0-1,0.8-1.9,1.9-1.9h7.6c1,0,1.9,0.8,1.9,1.9v7.6
			C261.8,119.9,260.9,120.7,259.9,120.7z"/>
		<polygon class="st21" points="256.1,111.4 256.1,113.8 254,113.8 254,116.3 251.9,116.3 251.9,118.8 256.1,118.8 256.1,116.3
			258.2,116.3 258.2,113.8 260.3,113.8 260.3,111.4 		"/>
	</g>
	<g class="st22">
		<path class="st23" d="M339.3,259c-5.8,0.1-10.8,2.1-15,5.9c-4.3-3.8-9.3-5.8-15-5.9c0,6.2,0,12.2,0,18.4c5.7,0.1,10.7,2.1,15,5.9
			c4.3-3.9,9.3-5.8,15-6C339.3,271.2,339.3,265.2,339.3,259z M324.4,249c-2.8,0-5.1,2.2-5.1,5c0,2.7,2.2,5,4.9,5
			c2.8,0.1,5.1-2.2,5.1-4.9C329.4,251.3,327.1,249,324.4,249z"/>
		<path class="st23" d="M339.3,259c0,6.2,0,12.2,0,18.4c-5.7,0.2-10.7,2.1-15,6c-4.3-3.8-9.3-5.8-15-5.9c0-6.1,0-12.1,0-18.4
			c5.7,0,10.6,2.1,15,5.9C328.6,261.1,333.5,259.1,339.3,259z"/>
		<path class="st23" d="M324.4,249c2.8,0,5,2.3,5,5.1c0,2.8-2.4,5-5.1,4.9c-2.7-0.1-4.9-2.3-4.9-5
			C319.3,251.2,321.6,248.9,324.4,249z"/>
	</g>
	<g class="st22">
		<path class="st24" d="M177.3,309.1c0.1-0.1,0.2-0.2,0.2-0.2c2.5,0,4.9,0,7.4,0c1.6,0,2.6-0.8,2.6-2.4c0-4.5,0-9,0-13.5
			c0-1.4-0.9-2.3-2.3-2.3c-6.8,0-13.5,0-20.3,0c-1.4,0-2.3,0.9-2.3,2.3c0,4.5,0,9,0,13.5c0,1.5,0.9,2.3,2.4,2.4c0.7,0,1.4,0,2.1,0
			c1.9,0,3.7,0,5.6,0c0,0.9,0,1.5,0,2.2c-0.8,0-1.4,0.1-2.1,0.1c0,0.8,0,1.5,0,2.1c3,0,5.9,0,8.9,0c0-0.8,0-1.4,0-2.3
			c-0.8,0-1.4,0-2.2,0C177.3,310.4,177.3,309.7,177.3,309.1z"/>
		<path class="st24" d="M177.3,309.1c0,0.6,0,1.2,0,2c0.7,0,1.4,0,2.2,0c0,0.8,0,1.5,0,2.3c-2.9,0-5.9,0-8.9,0c0-0.7,0-1.3,0-2.1
			c0.6,0,1.3-0.1,2.1-0.1c0-0.7,0-1.3,0-2.2c-1.8,0-3.7,0-5.6,0c-0.7,0-1.4,0-2.1,0c-1.5-0.1-2.4-0.9-2.4-2.4c0-4.5,0-9,0-13.5
			c0-1.4,0.9-2.3,2.3-2.3c6.8,0,13.5,0,20.3,0c1.4,0,2.3,0.9,2.3,2.3c0,4.5,0,9,0,13.5c0,1.5-0.9,2.3-2.6,2.4c-2.5,0-4.9,0-7.4,0
			C177.5,309,177.4,309,177.3,309.1z M185.1,293.1c-6.9,0-13.6,0-20.3,0c0,4.5,0,9,0,13.5c6.8,0,13.5,0,20.3,0
			C185.1,302,185.1,297.6,185.1,293.1z"/>
		<path class="st25" d="M185.1,293.1c0,4.5,0,8.9,0,13.5c-6.7,0-13.5,0-20.3,0c0-4.5,0-8.9,0-13.5
			C171.6,293.1,178.3,293.1,185.1,293.1z"/>
	</g>
</g>
<g id="libellé" class="st0">
	<g class="st1">
		<path d="M445,376h-99.8c-1.4,0-2.5-1.1-2.5-2.5v-11.3c0-1.4,1.1-2.5,2.5-2.5H445c1.4,0,2.5,1.1,2.5,2.5v11.3
			C447.5,374.8,446.4,376,445,376z"/>
		<text transform="matrix(1 0 0 1 359.5049 370.4574)" class="st21 st26 st27">Service audiovisuel</text>
	</g>
	<g class="st1">
		<path d="M361,334.2h-96.8c-1.4,0-2.5-1.1-2.5-2.5v-21.2c0-1.4,1.1-2.5,2.5-2.5H361c1.4,0,2.5,1.1,2.5,2.5v21.2
			C363.5,333.1,362.4,334.2,361,334.2z"/>
		<text transform="matrix(1 0 0 1 263.9787 318.3273)"><tspan x="0" y="0" class="st21 st26 st27">Carrefour de l’information</tspan><tspan x="21.8" y="10.8" class="st21 st26 st27">(bibliothèque)</tspan></text>
	</g>
	<g class="st1">
		<path d="M214.9,284.4h-99.8c-1.4,0-2.5-1.1-2.5-2.5v-11.3c0-1.4,1.1-2.5,2.5-2.5h99.8c1.4,0,2.5,1.1,2.5,2.5v11.3
			C217.4,283.3,216.3,284.4,214.9,284.4z"/>
		<text transform="matrix(1 0 0 1 126.3599 278.9127)" class="st21 st26 st27">Service informatique</text>
	</g>
</g>
<g id="numéros" class="st0">
	<g class="st1">
		<text transform="matrix(1 0 0 1 665.5005 756.0562)" class="st28 st29 st30">3511</text>
	</g>
	<g class="st1">
		<text transform="matrix(1 0 0 1 716.1251 711.2228)" class="st28 st29 st30">3510</text>
	</g>
	<g class="st1">
		<text transform="matrix(1 0 0 1 703.5455 681.7228)" class="st28 st29 st30">3509</text>
	</g>
	<g class="st1">
		<text transform="matrix(1 0 0 1 639.4254 668.8854)" class="st28 st29 st30">3515</text>
	</g>
	<g class="st1">
		<text transform="matrix(1 0 0 1 623.5189 644.0562)" class="st28 st29 st30">3518</text>
	</g>
	<g class="st1">
		<text transform="matrix(1 0 0 1 615.0189 628.77)" class="st28 st29 st30">3519</text>
	</g>
	<g class="st1">
		<text transform="matrix(1 0 0 1 689.7122 652.3569)" class="st28 st29 st30">3508</text>
	</g>
	<g class="st1">
		<text transform="matrix(1 0 0 1 675.0455 621.3636)" class="st28 st29 st30">3507</text>
	</g>
	<g class="st1">
		<text transform="matrix(1 0 0 1 661.8937 591.6644)" class="st28 st29 st30">3506</text>
	</g>
	<g class="st1">
		<text transform="matrix(1 0 0 1 648.5222 565.1644)" class="st28 st29 st30">3505</text>
	</g>
	<g class="st1">
		<text transform="matrix(1 0 0 1 636.8906 537.9277)" class="st28 st29 st30">3504</text>
	</g>
	<g class="st1">
		<text transform="matrix(1 0 0 1 631.0356 513.3939)" class="st28 st29 st30">3526</text>
	</g>
	<g class="st1">
		<text transform="matrix(1 0 0 1 607.369 537.2612)" class="st28 st29 st30">3503</text>
	</g>
	<g class="st1">
		<text transform="matrix(1 0 0 1 561.1071 540.8255)" class="st28 st29 st30">3525</text>
	</g>
	<g class="st1">
		<text transform="matrix(1 0 0 1 489.1841 464.123)" class="st28 st29 st30">3035</text>
	</g>
	<g class="st1">
		<text transform="matrix(1 0 0 1 443.8508 426.5035)" class="st28 st29 st30">3045</text>
	</g>
	<g class="st1">
		<text transform="matrix(1 0 0 1 425.1842 436.673)" class="st28 st29 st30">3082</text>
	</g>
	<g class="st1">
		<text transform="matrix(1 0 0 1 420.25 427.4933)" class="st28 st29 st30">3081</text>
	</g>
	<g class="st1">
		<text transform="matrix(1 0 0 1 415.0511 418.66)" class="st28 st29 st30">3080</text>
	</g>
	<g class="st1">
		<text transform="matrix(1 0 0 1 408.7938 409.2983)" class="st28 st29 st30">3079</text>
	</g>
	<g class="st1">
		<text transform="matrix(1 0 0 1 401.3754 400.4218)" class="st28 st29 st30">3078</text>
	</g>
	<g class="st1">
		<text transform="matrix(1 0 0 1 395.3243 385.9923)" class="st28 st29 st30">3077</text>
	</g>
	<g class="st1">
		<text transform="matrix(1 0 0 1 372.844 394.5083)" class="st28 st29 st30">3090</text>
	</g>
	<g class="st1">
		<text transform="matrix(1 0 0 1 361.0556 401.421)" class="st28 st29 st30">3092</text>
	</g>
	<g class="st1">
		<text transform="matrix(1 0 0 1 359.2864 425.9141)" class="st28 st29 st30">3093</text>
	</g>
	<g class="st1">
		<text transform="matrix(1 0 0 1 370.2221 441.2206)" class="st28 st29 st30">3095</text>
	</g>
	<g class="st1">
		<text transform="matrix(1 0 0 1 355.3268 449.4677)" class="st28 st29 st30">3096</text>
	</g>
	<g class="st1">
		<text transform="matrix(1 0 0 1 333.4935 449.9677)" class="st28 st29 st30">3097</text>
	</g>
	<g class="st1">
		<text transform="matrix(1 0 0 1 319.4102 429.3106)" class="st28 st29 st30">3054</text>
	</g>
	<g class="st1">
		<text transform="matrix(1 0 0 1 308.6577 412.2273)" class="st28 st29 st30">3055</text>
	</g>
	<g class="st1">
		<text transform="matrix(1 0 0 1 291.408 439.389)" class="st28 st29 st30">3049</text>
	</g>
	<g class="st1">
		<text transform="matrix(1 0 0 1 288.8246 394.1365)"><tspan x="0" y="0" class="st28 st29 st30">2118</tspan><tspan x="0" y="3.6" class="st28 st29 st30">MEZZ </tspan></text>
	</g>
	<g class="st1">
		<text transform="matrix(1 0 0 1 261.158 395.9698)" class="st28 st29 st30">3046</text>
	</g>
	<g class="st1">
		<text transform="matrix(1 0 0 1 125.1103 247.4315)" class="st28 st29 st30">3415</text>
	</g>
	<g class="st1">
		<text transform="matrix(1 0 0 1 123.8725 311.9698)" class="st28 st29 st30">3406</text>
	</g>
	<g class="st1">
		<text transform="matrix(1 0 0 1 99.4975 271.8699)" class="st28 st29 st30">3407</text>
	</g>
	<g class="st1">
		<text transform="matrix(1 0 0 1 88.7475 244.6154)" class="st28 st29 st30">3408</text>
	</g>
	<g class="st1">
		<text transform="matrix(1 0 0 1 73.3725 244.6156)" class="st28 st29 st30">3409</text>
	</g>
	<g class="st1">
		<text transform="matrix(1 0 0 1 70.4975 227.1156)" class="st28 st29 st30">3410</text>
	</g>
	<g class="st1">
		<text transform="matrix(1 0 0 1 116.9975 217.9906)" class="st28 st29 st30">3411</text>
	</g>
	<g class="st1">
		<text transform="matrix(1 0 0 1 217.2892 127.3238)" class="st28 st29 st30">3303</text>
	</g>
	<g class="st1">
		<text transform="matrix(1 0 0 1 315.7345 185.6937)" class="st28 st29 st30">3075</text>
	</g>
	<g class="st1">
		<text transform="matrix(1 0 0 1 324.3239 205.4437)" class="st28 st29 st30">3303</text>
	</g>
	<g class="st1">
		<text transform="matrix(1 0 0 1 305.3239 213.6937)" class="st28 st29 st30">3069</text>
	</g>
	<g class="st1">
		<text transform="matrix(1 0 0 1 304.6989 192.7359)" class="st28 st29 st30">3074</text>
	</g>
	<g class="st1">
		<text transform="matrix(1 0 0 1 293.6989 198.9859)" class="st28 st29 st30">3073</text>
	</g>
	<g class="st1">
		<text transform="matrix(1 0 0 1 287.583 222.8609)" class="st28 st29 st30">3067</text>
	</g>
	<g class="st1">
		<text transform="matrix(1 0 0 1 279.708 204.7279)" class="st28 st29 st30">3068</text>
	</g>
	<g class="st1">
		<text transform="matrix(1 0 0 1 266.4779 227.5485)" class="st28 st29 st30">3066</text>
	</g>
	<g class="st1">
		<text transform="matrix(1 0 0 1 242.8529 241.0485)" class="st28 st29 st30">3065</text>
	</g>
	<g class="st1">
		<text transform="matrix(1 0 0 1 250.1029 267.4235)" class="st28 st29 st30">3064</text>
	</g>
	<g class="st1">
		<text transform="matrix(1 0 0 1 257.0392 278.6735)" class="st28 st29 st30">3063</text>
	</g>
	<g class="st1">
		<text transform="matrix(1 0 0 1 263.1642 289.1735)" class="st28 st29 st30">3062</text>
	</g>
	<g class="st1">
		<text transform="matrix(1 0 0 1 145.8273 214.8656)" class="st28 st29 st30">3414</text>
	</g>
	<g class="st1">
		<text transform="matrix(1 0 0 1 131.5773 192.736)" class="st28 st29 st30">3412</text>
	</g>
	<g class="st1">
		<text transform="matrix(1 0 0 1 208.1797 318.3448)" class="st28 st29 st30">3061</text>
	</g>
	<g class="st1">
		<text transform="matrix(1 0 0 1 298.8582 455.8056)" class="st28 st29 st30">3051</text>
	</g>
	<g class="st1">
		<text transform="matrix(1 0 0 1 335.3887 403.7093)" class="st28 st29 st30">3052</text>
	</g>
	<g class="st1">
		<text transform="matrix(1 0 0 1 342.8312 415.4899)" class="st28 st29 st30">3053</text>
	</g>
	<g class="st1">
		<text transform="matrix(1 0 0 1 329.2473 393.8273)" class="st28 st29 st30">3039</text>
	</g>
	<g class="st1">
		<text transform="matrix(1 0 0 1 321.0767 383.1109)" class="st28 st29 st30">3042</text>
	</g>
	<g class="st1">
		<text transform="matrix(1 0 0 1 315.7347 372.6556)" class="st28 st29 st30">3043</text>
	</g>
	<g class="st1">
		<text transform="matrix(1 0 0 1 308.6576 361.8371)" class="st28 st29 st30">3044</text>
	</g>
	<g class="st1">
		<text transform="matrix(1 0 0 1 378.6458 403.709)" class="st28 st29 st30">3089</text>
	</g>
	<g class="st1">
		<text transform="matrix(1 0 0 1 384.2934 411.6213)" class="st28 st29 st30">3088</text>
	</g>
	<g class="st1">
		<text transform="matrix(1 0 0 1 392.7787 427.311)" class="st28 st29 st30">3087</text>
	</g>
	<g class="st1">
		<text transform="matrix(1 0 0 1 382.7314 433.2884)" class="st28 st29 st30">3094</text>
	</g>
	<g class="st1">
		<text transform="matrix(1 0 0 1 399.2433 436.3377)" class="st28 st29 st30">3084</text>
	</g>
	<g class="st1">
		<text transform="matrix(1 0 0 1 405.227 446.2372)" class="st28 st29 st30">3083</text>
	</g>
	<g class="st1">
		<text transform="matrix(1 0 0 1 454.5175 501.9562)" class="st28 st29 st30">3033</text>
	</g>
	<g class="st1">
		<text transform="matrix(1 0 0 1 437.0175 475.0937)" class="st28 st29 st30">3034</text>
	</g>
	<g class="st1">
		<text transform="matrix(1 0 0 1 407.7934 537.3459)" class="st28 st29 st30">3030 </text>
	</g>
	<g class="st1">
		<text transform="matrix(1 0 0 1 383.2934 559.7614)" class="st28 st29 st30">3023</text>
	</g>
	<g class="st1">
		<text transform="matrix(1 0 0 1 378.3832 544.2614)" class="st28 st29 st30">3024</text>
	</g>
	<g class="st1">
		<text transform="matrix(1 0 0 1 366.3832 550.4107)" class="st28 st29 st30">3025</text>
	</g>
	<g class="st1">
		<text transform="matrix(1 0 0 1 370.6683 566.84)" class="st28 st29 st30">3022</text>
	</g>
	<g class="st1">
		<text transform="matrix(1 0 0 1 357.1683 523.1607)" class="st28 st29 st30">3031</text>
	</g>
	<g class="st1">
		<text transform="matrix(1 0 0 1 348.3287 563.494)" class="st28 st29 st30">3018</text>
	</g>
	<g class="st1">
		<text transform="matrix(1 0 0 1 360.4908 576.6606)" class="st28 st29 st30">3021</text>
	</g>
	<g class="st1">
		<text transform="matrix(1 0 0 1 338.8242 581.6606)" class="st28 st29 st30">3020</text>
	</g>
	<g class="st1">
		<text transform="matrix(1 0 0 1 324.3242 575.3273)" class="st28 st29 st30">3019 </text>
	</g>
	<g class="st1">
		<text transform="matrix(1 0 0 1 288.1575 560.6154)" class="st28 st29 st30">3014</text>
	</g>
	<g class="st1">
		<text transform="matrix(1 0 0 1 307.6575 536.2615)" class="st28 st29 st30">3017</text>
	</g>
	<g class="st1">
		<text transform="matrix(1 0 0 1 310.8242 524.5948)" class="st28 st29 st30">3016</text>
	</g>
	<g class="st1">
		<text transform="matrix(1 0 0 1 310.8242 510.7615)" class="st28 st29 st30">3015</text>
	</g>
	<g class="st1">
		<text transform="matrix(1 0 0 1 310.6576 489.7614)" class="st28 st29 st30">3004</text>
	</g>
	<g class="st1">
		<text transform="matrix(1 0 0 1 288.8636 514.4115)" class="st28 st29 st30">3012</text>
	</g>
	<g class="st1">
		<text transform="matrix(1 0 0 1 297.0549 525.4115)" class="st28 st29 st30">3013</text>
	</g>
	<g class="st1">
		<text transform="matrix(1 0 0 1 283.3434 501.9566)" class="st28 st29 st30">3009</text>
	</g>
	<g class="st1">
		<text transform="matrix(1 0 0 1 254.3435 522.1844)" class="st28 st29 st30">3011</text>
	</g>
	<g class="st1">
		<text transform="matrix(1 0 0 1 236.0101 486.42)" class="st28 st29 st30">3006</text>
	</g>
	<g class="st1">
		<text transform="matrix(1 0 0 1 260.2643 472.1971)" class="st28 st29 st30">3007</text>
	</g>
	<g class="st1">
		<text transform="matrix(1 0 0 1 269.7789 460.9614)" class="st28 st29 st30">3036</text>
	</g>
	<g class="st1">
		<text transform="matrix(1 0 0 1 237.5392 443.2876)" class="st28 st29 st30">3003</text>
	</g>
	<g class="st1">
		<text transform="matrix(1 0 0 1 218.5392 411.6209)" class="st28 st29 st30">3002</text>
	</g>
	<g class="st1">
		<text transform="matrix(1 0 0 1 198.3725 380.4499)" class="st28 st29 st30">3001</text>
	</g>
	<g class="st1">
		<text transform="matrix(1 0 0 1 357.1683 498.4814)" class="st28 st29 st30">3039</text>
	</g>
	<g class="st1">
		<text transform="matrix(1 0 0 1 393.7786 501.1793)" class="st28 st29 st30">3032</text>
	</g>
	<g class="st1">
		<text transform="matrix(1 0 0 1 568.8638 555.1588)" class="st28 st29 st30">3524</text>
	</g>
	<g class="st1">
		<text transform="matrix(1 0 0 1 577.5305 568.6588)" class="st28 st29 st30">3523</text>
	</g>
	<g class="st1">
		<text transform="matrix(1 0 0 1 586.6973 583.6588)" class="st28 st29 st30">3522</text>
	</g>
	<g class="st1">
		<text transform="matrix(1 0 0 1 594.5305 597.2253)" class="st28 st29 st30">3521</text>
	</g>
	<g class="st1">
		<text transform="matrix(1 0 0 1 643.3342 719.0461)" class="st28 st29 st30">3512</text>
	</g>
	<g class="st1">
		<text transform="matrix(1 0 0 1 622.0005 684.8795)" class="st28 st29 st30">3516</text>
	</g>
	<g class="st1">
		<text transform="matrix(1 0 0 1 599.5005 648.5463)" class="st28 st29 st30">3517</text>
	</g>
</g>
<g id="accessibilite" class="st0">
	<g class="st1">
		<g>
			<circle class="st31" cx="611.3" cy="559.8" r="6"/>
		</g>
		<g>
			<circle class="st32" cx="611.3" cy="559.8" r="6"/>
		</g>
		<g>
			<g>
				<path class="st33" d="M609.5,560.6l2.6-3.4l4.9,4.5c0.2-0.6,0.3-1.2,0.3-1.9c0-3.3-2.7-6-6-6c-3.3,0-6,2.7-6,6c0,3.3,2.7,6,6,6
					c0.9,0,1.8-0.2,2.6-0.6L609.5,560.6z"/>
			</g>
			<g class="st34">
				<path class="st32" d="M608.5,559.9l0.4,2.1l4.4,3.4c1.8-0.7,3.3-2.2,3.7-4l-6.6-4.6l-0.1,1.5l-0.5,0.5L608.5,559.9z"/>
			</g>
		</g>
		<g>
			<path class="st35" d="M610,557.2c0-0.1,0-0.2,0-0.3s0-0.2,0-0.3c0-0.1,0.1-0.2,0.1-0.2s0.1-0.1,0.2-0.1c0.1,0,0.2,0,0.3,0
				s0.2,0,0.3,0c0.1,0,0.2,0.1,0.2,0.1s0.1,0.1,0.1,0.2s0,0.2,0,0.3c0,0.2-0.1,0.3-0.2,0.5c-0.1,0.1-0.3,0.2-0.5,0.2
				c-0.1,0-0.2,0-0.3,0c-0.1,0-0.2-0.1-0.2-0.1C610.1,557.4,610,557.3,610,557.2L610,557.2z M612.6,560.9c-0.1,0-0.2,0-0.2,0
				c-0.1,0-0.1,0.1-0.1,0.2c0,0.1,0,0.1-0.1,0.2c-0.1,0.2-0.1,0.3-0.3,0.5c-0.1,0.1-0.2,0.3-0.4,0.4c-0.1,0.1-0.3,0.2-0.5,0.2
				c-0.2,0.1-0.4,0.1-0.5,0.1c-0.2,0-0.5,0-0.7-0.1c-0.2-0.1-0.4-0.2-0.6-0.4c-0.2-0.2-0.3-0.3-0.4-0.5c-0.1-0.2-0.1-0.4-0.1-0.7
				c0-0.2,0-0.3,0.1-0.5c0.1-0.2,0.1-0.3,0.2-0.5c0.1-0.1,0.2-0.3,0.4-0.4c0.1-0.1,0.3-0.2,0.5-0.3c0.1,0,0.1-0.1,0.2-0.1
				s0-0.1,0-0.2s-0.1-0.1-0.2-0.2c-0.1,0-0.1,0-0.2,0c-0.2,0.1-0.4,0.2-0.6,0.3c-0.2,0.1-0.3,0.3-0.5,0.5c-0.1,0.2-0.2,0.4-0.3,0.6
				c-0.1,0.2-0.1,0.4-0.1,0.7c0,0.3,0.1,0.6,0.2,0.9c0.1,0.3,0.3,0.5,0.5,0.7c0.2,0.2,0.5,0.4,0.7,0.5c0.3,0.1,0.6,0.2,0.9,0.2
				c0.3,0,0.5,0,0.7-0.1c0.2-0.1,0.4-0.2,0.6-0.3c0.2-0.1,0.4-0.3,0.5-0.5c0.1-0.2,0.3-0.4,0.3-0.6c0-0.1,0.1-0.2,0.1-0.3
				c0-0.1,0-0.2,0-0.2C612.7,560.9,612.7,560.9,612.6,560.9L612.6,560.9z M614.4,562l-1.1-1.9c0-0.1-0.1-0.1-0.2-0.2
				c-0.1,0-0.2-0.1-0.3-0.1h-1.2l-0.1-0.7h0.9c0.1,0,0.1,0,0.2,0c0,0,0.1-0.1,0.1-0.1c0-0.1,0-0.1,0-0.2c0-0.1-0.1-0.1-0.1-0.2
				c0,0-0.1,0-0.1,0h-1.1l0-0.3c0,0,0,0,0,0v0l0,0c0-0.1-0.1-0.2-0.2-0.3c-0.1-0.1-0.2-0.1-0.3-0.1c-0.2,0-0.3,0-0.4,0.2
				c-0.1,0.1-0.2,0.2-0.2,0.4c0,0,0,0,0,0.1h0l0.4,1.9c0,0.1,0.1,0.2,0.2,0.3c0.1,0.1,0.2,0.1,0.3,0.1c0,0,0.1,0,0.1,0h1.6l0.9,1.6
				c0,0.1,0.1,0.1,0.1,0.2c0.1,0,0.1,0.1,0.2,0.1c0.1,0,0.2,0,0.3-0.1c0.1-0.1,0.1-0.1,0.1-0.2C614.4,562.1,614.4,562,614.4,562
				L614.4,562z"/>
		</g>
	</g>
	<g class="st1">
		<g>
			<circle class="st31" cx="300.9" cy="485.8" r="6"/>
		</g>
		<g>
			<circle class="st32" cx="300.9" cy="485.8" r="6"/>
		</g>
		<g>
			<g>
				<path class="st33" d="M299,486.6l2.6-3.4l4.9,4.5c0.2-0.6,0.3-1.2,0.3-1.9c0-3.3-2.7-6-6-6c-3.3,0-6,2.7-6,6s2.7,6,6,6
					c0.9,0,1.8-0.2,2.6-0.6L299,486.6z"/>
			</g>
			<g class="st34">
				<path class="st32" d="M298,485.9l0.4,2.1l4.4,3.4c1.8-0.7,3.3-2.2,3.7-4l-6.6-4.6l-0.1,1.5l-0.5,0.5L298,485.9z"/>
			</g>
		</g>
		<g>
			<path class="st35" d="M299.5,483.3c0-0.1,0-0.2,0-0.3c0-0.1,0-0.2,0-0.3c0-0.1,0.1-0.2,0.1-0.2s0.1-0.1,0.2-0.1
				c0.1,0,0.2,0,0.3,0c0.1,0,0.2,0,0.3,0c0.1,0,0.2,0.1,0.2,0.1s0.1,0.1,0.1,0.2c0,0.1,0,0.2,0,0.3c0,0.2-0.1,0.3-0.2,0.5
				c-0.1,0.1-0.3,0.2-0.5,0.2c-0.1,0-0.2,0-0.3,0c-0.1,0-0.2-0.1-0.2-0.1C299.6,483.4,299.6,483.3,299.5,483.3L299.5,483.3z
				 M302.1,486.9c-0.1,0-0.2,0-0.2,0c-0.1,0-0.1,0.1-0.1,0.2c0,0.1,0,0.1-0.1,0.2c-0.1,0.2-0.1,0.3-0.3,0.5
				c-0.1,0.1-0.2,0.3-0.4,0.4c-0.1,0.1-0.3,0.2-0.5,0.2c-0.2,0.1-0.4,0.1-0.5,0.1c-0.2,0-0.5,0-0.7-0.1c-0.2-0.1-0.4-0.2-0.6-0.4
				c-0.2-0.2-0.3-0.3-0.4-0.5c-0.1-0.2-0.1-0.4-0.1-0.7c0-0.2,0-0.3,0.1-0.5s0.1-0.3,0.2-0.5s0.2-0.3,0.4-0.4
				c0.1-0.1,0.3-0.2,0.5-0.3c0.1,0,0.1-0.1,0.2-0.1c0-0.1,0-0.1,0-0.2s-0.1-0.1-0.2-0.2c-0.1,0-0.1,0-0.2,0
				c-0.2,0.1-0.4,0.2-0.6,0.3c-0.2,0.1-0.3,0.3-0.5,0.5c-0.1,0.2-0.2,0.4-0.3,0.6c-0.1,0.2-0.1,0.4-0.1,0.7c0,0.3,0.1,0.6,0.2,0.9
				c0.1,0.3,0.3,0.5,0.5,0.7c0.2,0.2,0.5,0.4,0.7,0.5s0.6,0.2,0.9,0.2c0.3,0,0.5,0,0.7-0.1c0.2-0.1,0.4-0.2,0.6-0.3
				c0.2-0.1,0.4-0.3,0.5-0.5c0.1-0.2,0.3-0.4,0.3-0.6c0-0.1,0.1-0.2,0.1-0.3c0-0.1,0-0.2,0-0.2C302.3,487,302.2,487,302.1,486.9
				L302.1,486.9z M303.9,488l-1.1-1.9c0-0.1-0.1-0.1-0.2-0.2c-0.1,0-0.2-0.1-0.3-0.1h-1.2l-0.1-0.7h0.9c0.1,0,0.1,0,0.2,0
				c0,0,0.1-0.1,0.1-0.1c0-0.1,0-0.1,0-0.2c0-0.1-0.1-0.1-0.1-0.2c0,0-0.1,0-0.1,0h-1.1l0-0.3c0,0,0,0,0,0v0l0,0
				c0-0.1-0.1-0.2-0.2-0.3c-0.1-0.1-0.2-0.1-0.3-0.1c-0.2,0-0.3,0-0.4,0.2s-0.2,0.2-0.2,0.4c0,0,0,0,0,0.1h0l0.4,1.9
				c0,0.1,0.1,0.2,0.2,0.3c0.1,0.1,0.2,0.1,0.3,0.1c0,0,0.1,0,0.1,0h1.6l0.9,1.6c0,0.1,0.1,0.1,0.1,0.2c0.1,0,0.1,0.1,0.2,0.1
				c0.1,0,0.2,0,0.3-0.1c0.1-0.1,0.1-0.1,0.1-0.2C304,488.1,304,488.1,303.9,488L303.9,488z"/>
		</g>
	</g>
	<g class="st1">
		<g>
			<circle class="st31" cx="173" cy="353.4" r="6"/>
		</g>
		<g>
			<circle class="st32" cx="173" cy="353.4" r="6"/>
		</g>
		<g>
			<g>
				<path class="st33" d="M171.2,354.3l2.6-3.4l4.9,4.5c0.2-0.6,0.3-1.2,0.3-1.9c0-3.3-2.7-6-6-6s-6,2.7-6,6c0,3.3,2.7,6,6,6
					c0.9,0,1.8-0.2,2.6-0.6L171.2,354.3z"/>
			</g>
			<g class="st34">
				<path class="st32" d="M170.2,353.6l0.4,2.1l4.4,3.4c1.8-0.7,3.3-2.2,3.7-4l-6.6-4.6l-0.1,1.5l-0.5,0.5L170.2,353.6z"/>
			</g>
		</g>
		<g>
			<path class="st35" d="M171.7,350.9c0-0.1,0-0.2,0-0.3s0-0.2,0-0.3c0-0.1,0.1-0.2,0.1-0.2s0.1-0.1,0.2-0.1s0.2,0,0.3,0
				c0.1,0,0.2,0,0.3,0c0.1,0,0.2,0.1,0.2,0.1s0.1,0.1,0.1,0.2c0,0.1,0,0.2,0,0.3c0,0.2-0.1,0.3-0.2,0.5c-0.1,0.1-0.3,0.2-0.5,0.2
				c-0.1,0-0.2,0-0.3,0c-0.1,0-0.2-0.1-0.2-0.1C171.7,351.1,171.7,351,171.7,350.9L171.7,350.9z M174.3,354.6c-0.1,0-0.2,0-0.2,0
				c-0.1,0-0.1,0.1-0.1,0.2c0,0.1,0,0.1-0.1,0.2c-0.1,0.2-0.1,0.3-0.3,0.5c-0.1,0.1-0.2,0.3-0.4,0.4c-0.1,0.1-0.3,0.2-0.5,0.2
				c-0.2,0.1-0.4,0.1-0.5,0.1c-0.2,0-0.5,0-0.7-0.1c-0.2-0.1-0.4-0.2-0.6-0.4c-0.2-0.2-0.3-0.3-0.4-0.5c-0.1-0.2-0.1-0.4-0.1-0.7
				c0-0.2,0-0.3,0.1-0.5s0.1-0.3,0.2-0.5c0.1-0.1,0.2-0.3,0.4-0.4s0.3-0.2,0.5-0.3c0.1,0,0.1-0.1,0.2-0.1c0-0.1,0-0.1,0-0.2
				c0-0.1-0.1-0.1-0.2-0.2c-0.1,0-0.1,0-0.2,0c-0.2,0.1-0.4,0.2-0.6,0.3c-0.2,0.1-0.3,0.3-0.5,0.5c-0.1,0.2-0.2,0.4-0.3,0.6
				c-0.1,0.2-0.1,0.4-0.1,0.7c0,0.3,0.1,0.6,0.2,0.9c0.1,0.3,0.3,0.5,0.5,0.7c0.2,0.2,0.5,0.4,0.7,0.5c0.3,0.1,0.6,0.2,0.9,0.2
				c0.3,0,0.5,0,0.7-0.1s0.4-0.2,0.6-0.3c0.2-0.1,0.4-0.3,0.5-0.5c0.1-0.2,0.3-0.4,0.3-0.6c0-0.1,0.1-0.2,0.1-0.3c0-0.1,0-0.2,0-0.2
				C174.4,354.6,174.3,354.6,174.3,354.6L174.3,354.6z M176.1,355.7l-1.1-1.9c0-0.1-0.1-0.1-0.2-0.2c-0.1,0-0.2-0.1-0.3-0.1h-1.2
				l-0.1-0.7h0.9c0.1,0,0.1,0,0.2,0c0,0,0.1-0.1,0.1-0.1c0-0.1,0-0.1,0-0.2c0-0.1-0.1-0.1-0.1-0.2c0,0-0.1,0-0.1,0H173l0-0.3
				c0,0,0,0,0,0v0l0,0c0-0.1-0.1-0.2-0.2-0.3c-0.1-0.1-0.2-0.1-0.3-0.1c-0.2,0-0.3,0-0.4,0.2s-0.2,0.2-0.2,0.4c0,0,0,0,0,0.1h0
				l0.4,1.9c0,0.1,0.1,0.2,0.2,0.3c0.1,0.1,0.2,0.1,0.3,0.1c0,0,0.1,0,0.1,0h1.6l0.9,1.6c0,0.1,0.1,0.1,0.1,0.2
				c0.1,0,0.1,0.1,0.2,0.1c0.1,0,0.2,0,0.3-0.1c0.1-0.1,0.1-0.1,0.1-0.2C176.1,355.8,176.1,355.7,176.1,355.7L176.1,355.7z"/>
		</g>
	</g>
	<g class="st1">
		<g>
			<circle class="st31" cx="271.7" cy="432.1" r="6"/>
		</g>
		<g>
			<circle class="st32" cx="271.7" cy="432.1" r="6"/>
		</g>
		<g>
			<g>
				<path class="st33" d="M269.8,433l2.6-3.4l4.9,4.5c0.2-0.6,0.3-1.2,0.3-1.9c0-3.3-2.7-6-6-6s-6,2.7-6,6c0,3.3,2.7,6,6,6
					c0.9,0,1.8-0.2,2.6-0.6L269.8,433z"/>
			</g>
			<g class="st34">
				<path class="st32" d="M268.8,432.2l0.4,2.1l4.4,3.4c1.8-0.7,3.3-2.2,3.7-4l-6.6-4.6l-0.1,1.5l-0.5,0.5L268.8,432.2z"/>
			</g>
		</g>
		<g>
			<path class="st35" d="M270.3,429.6c0-0.1,0-0.2,0-0.3s0-0.2,0-0.3c0-0.1,0.1-0.2,0.1-0.2c0.1-0.1,0.1-0.1,0.2-0.1
				c0.1,0,0.2,0,0.3,0s0.2,0,0.3,0c0.1,0,0.2,0.1,0.2,0.1c0.1,0.1,0.1,0.1,0.1,0.2c0,0.1,0,0.2,0,0.3c0,0.2-0.1,0.3-0.2,0.5
				c-0.1,0.1-0.3,0.2-0.5,0.2c-0.1,0-0.2,0-0.3,0c-0.1,0-0.2-0.1-0.2-0.1C270.4,429.7,270.4,429.7,270.3,429.6L270.3,429.6z
				 M272.9,433.3c-0.1,0-0.2,0-0.2,0c-0.1,0-0.1,0.1-0.1,0.2c0,0.1,0,0.1-0.1,0.2c-0.1,0.2-0.1,0.3-0.3,0.5
				c-0.1,0.1-0.2,0.3-0.4,0.4c-0.1,0.1-0.3,0.2-0.5,0.2c-0.2,0.1-0.4,0.1-0.5,0.1c-0.2,0-0.5,0-0.7-0.1c-0.2-0.1-0.4-0.2-0.6-0.4
				c-0.2-0.2-0.3-0.3-0.4-0.5s-0.1-0.4-0.1-0.7c0-0.2,0-0.3,0.1-0.5s0.1-0.3,0.2-0.5c0.1-0.1,0.2-0.3,0.4-0.4
				c0.1-0.1,0.3-0.2,0.5-0.3c0.1,0,0.1-0.1,0.2-0.1c0-0.1,0-0.1,0-0.2c0-0.1-0.1-0.1-0.2-0.2c-0.1,0-0.1,0-0.2,0
				c-0.2,0.1-0.4,0.2-0.6,0.3c-0.2,0.1-0.3,0.3-0.5,0.5c-0.1,0.2-0.2,0.4-0.3,0.6c-0.1,0.2-0.1,0.4-0.1,0.7c0,0.3,0.1,0.6,0.2,0.9
				c0.1,0.3,0.3,0.5,0.5,0.7s0.5,0.4,0.7,0.5s0.6,0.2,0.9,0.2c0.3,0,0.5,0,0.7-0.1c0.2-0.1,0.4-0.2,0.6-0.3c0.2-0.1,0.4-0.3,0.5-0.5
				c0.1-0.2,0.3-0.4,0.3-0.6c0-0.1,0.1-0.2,0.1-0.3c0-0.1,0-0.2,0-0.2C273.1,433.3,273,433.3,272.9,433.3L272.9,433.3z M274.8,434.4
				l-1.1-1.9c0-0.1-0.1-0.1-0.2-0.2c-0.1,0-0.2-0.1-0.3-0.1H272l-0.1-0.7h0.9c0.1,0,0.1,0,0.2,0c0,0,0.1-0.1,0.1-0.1
				c0-0.1,0-0.1,0-0.2c0-0.1-0.1-0.1-0.1-0.2c0,0-0.1,0-0.1,0h-1.1l0-0.3c0,0,0,0,0,0v0l0,0c0-0.1-0.1-0.2-0.2-0.3
				c-0.1-0.1-0.2-0.1-0.3-0.1c-0.2,0-0.3,0-0.4,0.2s-0.2,0.2-0.2,0.4c0,0,0,0,0,0.1h0l0.4,1.9c0,0.1,0.1,0.2,0.2,0.3
				c0.1,0.1,0.2,0.1,0.3,0.1c0,0,0.1,0,0.1,0h1.6l0.9,1.6c0,0.1,0.1,0.1,0.1,0.2c0.1,0,0.1,0.1,0.2,0.1c0.1,0,0.2,0,0.3-0.1
				c0.1-0.1,0.1-0.1,0.1-0.2C274.8,434.5,274.8,434.4,274.8,434.4L274.8,434.4z"/>
		</g>
	</g>
</g>
<g id="URGENCE">
	<g>
		<g>
			<path class="st21" d="M118.9,232.4h-8.6c-0.5,0-1-0.4-1-1v-8.6c0-0.5,0.4-1,1-1h8.6c0.5,0,1,0.4,1,1v8.6
				C119.8,231.9,119.4,232.4,118.9,232.4z"/>
			<path class="st36" d="M118.9,232.6h-8.6c-0.7,0-1.2-0.5-1.2-1.2v-8.6c0-0.7,0.5-1.2,1.2-1.2h8.6c0.7,0,1.2,0.5,1.2,1.2v8.6
				C120,232.1,119.5,232.6,118.9,232.6z M110.2,222.1c-0.4,0-0.7,0.3-0.7,0.7v8.6c0,0.4,0.3,0.7,0.7,0.7h8.6c0.4,0,0.7-0.3,0.7-0.7
				v-8.6c0-0.4-0.3-0.7-0.7-0.7H110.2z"/>
		</g>
		<polygon class="st36" points="118.2,226 115.6,226 115.6,223.5 113.5,223.5 113.5,226 110.9,226 110.9,228.1 113.5,228.1
			113.5,230.7 115.6,230.7 115.6,228.1 118.2,228.1 		"/>
	</g>
	<g>
		<g>
			<path class="st21" d="M156.2,290.5h-8.6c-0.5,0-1-0.4-1-1v-8.6c0-0.5,0.4-1,1-1h8.6c0.5,0,1,0.4,1,1v8.6
				C157.2,290.1,156.7,290.5,156.2,290.5z"/>
			<path class="st36" d="M156.2,290.7h-8.6c-0.7,0-1.2-0.5-1.2-1.2v-8.6c0-0.7,0.5-1.2,1.2-1.2h8.6c0.7,0,1.2,0.5,1.2,1.2v8.6
				C157.4,290.2,156.9,290.7,156.2,290.7z M147.6,280.2c-0.4,0-0.7,0.3-0.7,0.7v8.6c0,0.4,0.3,0.7,0.7,0.7h8.6
				c0.4,0,0.7-0.3,0.7-0.7v-8.6c0-0.4-0.3-0.7-0.7-0.7H147.6z"/>
		</g>
		<polygon class="st36" points="155.5,284.1 153,284.1 153,281.6 150.9,281.6 150.9,284.1 148.3,284.1 148.3,286.3 150.9,286.3
			150.9,288.8 153,288.8 153,286.3 155.5,286.3 		"/>
	</g>
	<g>
		<g>
			<path class="st21" d="M308.4,423.6h-8.6c-0.5,0-1-0.4-1-1v-8.6c0-0.5,0.4-1,1-1h8.6c0.5,0,1,0.4,1,1v8.6
				C309.4,423.2,308.9,423.6,308.4,423.6z"/>
			<path class="st36" d="M308.4,423.9h-8.6c-0.7,0-1.2-0.5-1.2-1.2v-8.6c0-0.7,0.5-1.2,1.2-1.2h8.6c0.7,0,1.2,0.5,1.2,1.2v8.6
				C309.6,423.4,309.1,423.9,308.4,423.9z M299.8,413.4c-0.4,0-0.7,0.3-0.7,0.7v8.6c0,0.4,0.3,0.7,0.7,0.7h8.6
				c0.4,0,0.7-0.3,0.7-0.7v-8.6c0-0.4-0.3-0.7-0.7-0.7H299.8z"/>
		</g>
		<polygon class="st36" points="307.7,417.3 305.2,417.3 305.2,414.7 303.1,414.7 303.1,417.3 300.5,417.3 300.5,419.4 303.1,419.4
			303.1,422 305.2,422 305.2,419.4 307.7,419.4 		"/>
	</g>
	<g>
		<g>
			<path class="st21" d="M407.4,514.2h-8.6c-0.5,0-1-0.4-1-1v-8.6c0-0.5,0.4-1,1-1h8.6c0.5,0,1,0.4,1,1v8.6
				C408.3,513.7,407.9,514.2,407.4,514.2z"/>
			<path class="st36" d="M407.4,514.4h-8.6c-0.7,0-1.2-0.5-1.2-1.2v-8.6c0-0.7,0.5-1.2,1.2-1.2h8.6c0.7,0,1.2,0.5,1.2,1.2v8.6
				C408.6,513.9,408,514.4,407.4,514.4z M398.7,503.9c-0.4,0-0.7,0.3-0.7,0.7v8.6c0,0.4,0.3,0.7,0.7,0.7h8.6c0.4,0,0.7-0.3,0.7-0.7
				v-8.6c0-0.4-0.3-0.7-0.7-0.7H398.7z"/>
		</g>
		<polygon class="st36" points="406.7,507.8 404.1,507.8 404.1,505.3 402,505.3 402,507.8 399.5,507.8 399.5,509.9 402,509.9
			402,512.5 404.1,512.5 404.1,509.9 406.7,509.9 		"/>
	</g>
	<g>
		<g>
			<path class="st21" d="M553.1,272.7h-8.6c-0.5,0-1-0.4-1-1v-8.6c0-0.5,0.4-1,1-1h8.6c0.5,0,1,0.4,1,1v8.6
				C554,272.3,553.6,272.7,553.1,272.7z"/>
			<path class="st36" d="M553.1,272.9h-8.6c-0.7,0-1.2-0.5-1.2-1.2v-8.6c0-0.7,0.5-1.2,1.2-1.2h8.6c0.7,0,1.2,0.5,1.2,1.2v8.6
				C554.3,272.4,553.7,272.9,553.1,272.9z M544.4,262.4c-0.4,0-0.7,0.3-0.7,0.7v8.6c0,0.4,0.3,0.7,0.7,0.7h8.6
				c0.4,0,0.7-0.3,0.7-0.7v-8.6c0-0.4-0.3-0.7-0.7-0.7H544.4z"/>
		</g>
		<polygon class="st36" points="552.4,266.3 549.8,266.3 549.8,263.8 547.7,263.8 547.7,266.3 545.2,266.3 545.2,268.5 547.7,268.5
			547.7,271 549.8,271 549.8,268.5 552.4,268.5 		"/>
	</g>
</g>
</svg>
