<svg xmlns="http://www.w3.org/2000/svg" viewBox="0 0 12 12"><defs><style>.cls-1{fill:#2072b8;}.cls-2{fill:#f6f6f6;}</style></defs><title>accessibilite</title><g id="Calque_2" data-name="Calque 2"><g id="Calque_1-2" data-name="Calque 1"><rect class="cls-1" width="12" height="12" rx="2.07" ry="2.07"/><path class="cls-2" d="M4.48,3.39a.69.69,0,0,1-.06-.28.67.67,0,0,1,.06-.27.72.72,0,0,1,.38-.38.69.69,0,0,1,.28-.06.67.67,0,0,1,.27.06.78.78,0,0,1,.23.15.65.65,0,0,1,.15.22.71.71,0,0,1,.05.27.7.7,0,0,1-.21.51.68.68,0,0,1-.5.21.69.69,0,0,1-.28-.06.72.72,0,0,1-.38-.38Zm2.77,3.9a.28.28,0,0,0-.23,0,.31.31,0,0,0-.13.19,1.11,1.11,0,0,1-.07.22,1.72,1.72,0,0,1-.28.49,2,2,0,0,1-.41.38A1.92,1.92,0,0,1,5,8.94a1.86,1.86,0,0,1-.73-.14,2,2,0,0,1-.6-.39,1.81,1.81,0,0,1-.4-.58,1.76,1.76,0,0,1-.06-1.26,1.84,1.84,0,0,1,.25-.49,1.88,1.88,0,0,1,.38-.4,2,2,0,0,1,.5-.28A.29.29,0,0,0,4.56,5a.29.29,0,0,0-.16-.16.34.34,0,0,0-.24,0,2.59,2.59,0,0,0-.66.37A2.5,2.5,0,0,0,3,5.75a2.35,2.35,0,0,0-.33.65,2.32,2.32,0,0,0-.11.72,2.26,2.26,0,0,0,.2.94,2.47,2.47,0,0,0,.54.77,2.55,2.55,0,0,0,.79.52,2.48,2.48,0,0,0,1,.19,2.54,2.54,0,0,0,.76-.11,2.61,2.61,0,0,0,.68-.32A2.42,2.42,0,0,0,7,8.59a2.31,2.31,0,0,0,.37-.66,2,2,0,0,0,.09-.29.27.27,0,0,0,0-.23.32.32,0,0,0-.2-.13ZM9.17,8.45,8,6.43a.48.48,0,0,0-.18-.21.51.51,0,0,0-.27-.08H6.26L6.1,5.4h1a.35.35,0,0,0,.18,0,.27.27,0,0,0,.13-.12.3.3,0,0,0-.12-.41.25.25,0,0,0-.14,0H6l-.07-.35a0,0,0,0,0,0,0,0,0,0,0,1,0,0v0a.57.57,0,0,0-.2-.29A.55.55,0,0,0,5.34,4a.57.57,0,0,0-.41.16.53.53,0,0,0-.17.39.2.2,0,0,0,0,.06h0l.42,2a.46.46,0,0,0,.17.29A.49.49,0,0,0,5.67,7H7.48l1,1.75a.38.38,0,0,0,.14.16A.38.38,0,0,0,8.84,9a.37.37,0,0,0,.26-.11.35.35,0,0,0,.11-.26.35.35,0,0,0,0-.16Zm0,0"/></g></g></svg>
