<?xml version="1.0" encoding="utf-8"?>
<!-- Generator: Adobe Illustrator 21.0.0, SVG Export Plug-In . SVG Version: 6.00 Build 0)  -->
<svg version="1.1" id="Calque_1" xmlns="http://www.w3.org/2000/svg" xmlns:xlink="http://www.w3.org/1999/xlink" x="0px" y="0px"
	 viewBox="0 0 100 100" style="enable-background:new 0 0 100 100;" xml:space="preserve">
<style type="text/css">
	.st0{fill:#1A8856;}
	.st1{fill:#009245;}
	.st2{fill:#FFFFFF;}
</style>
<g>
	<g>
		<path class="st0" d="M91.6,97.3H8.4c-3.2,0-5.8-2.6-5.8-5.8v-83c0-3.2,2.6-5.8,5.8-5.8h83.1c3.2,0,5.8,2.6,5.8,5.8v83
			C97.4,94.7,94.7,97.3,91.6,97.3z"/>
		<path class="st1" d="M91.7,97.7H8.3c-3.3,0-5.9-2.8-5.9-6.3V8.7c0-3.5,2.7-6.3,5.9-6.3h83.4c3.3,0,5.9,2.8,5.9,6.3v82.7
			C97.7,94.8,95,97.7,91.7,97.7z M8.3,3C5.3,3,3,5.5,3,8.7v82.7C3,94.5,5.3,97,8.3,97h83.4c2.9,0,5.3-2.5,5.3-5.6V8.7
			C97,5.5,94.7,3,91.7,3H8.3z"/>
	</g>
	<g>
		<path class="st0" d="M93.6,99.7H6.4c-3.3,0-6.1-2.7-6.1-6.1V6.5c0-3.3,2.7-6.1,6.1-6.1h87.2c3.3,0,6.1,2.7,6.1,6.1v87.1
			C99.7,96.9,96.9,99.7,93.6,99.7z"/>
		<path class="st1" d="M93.8,100H6.2C2.8,100,0,97,0,93.4V6.6C0,3,2.8,0,6.2,0h87.5c3.4,0,6.2,3,6.2,6.6v86.8
			C100,97,97.2,100,93.8,100z M6.2,0.7c-3.1,0-5.6,2.7-5.6,5.9v86.8c0,3.3,2.5,5.9,5.6,5.9h87.5c3.1,0,5.6-2.7,5.6-5.9V6.6
			c0-3.3-2.5-5.9-5.6-5.9H6.2z"/>
	</g>
	<g>
		<path class="st2" d="M71.7,38.8c0-3.2,0-6.3,0-9.5c-3,0-5.8,0-8.7,0c0-0.3-0.1-0.5-0.1-0.8c0-2.7,0-5.4,0-8.1
			c0-0.7,0.2-0.8,0.8-0.8c2.6,0,5.2,0,8,0c0-0.2,0-0.5,0-0.9c0-2.6-0.1-5.1-0.1-7.7c0-0.4,0-0.8,0.6-0.8c2.9,0,5.9,0,9,0
			c0,3.1,0,6.2,0,9.4c0.4,0,0.7,0,1,0c2.3,0,4.6,0,6.9,0c0.6,0,0.9,0.1,0.9,0.9c0,2.9,0,5.7,0,8.7c-2.9,0-5.7,0-8.7,0
			c0,1,0,1.8,0,2.7c0,2.1,0,4.1,0,6.2c0,0.4-0.1,0.7-0.6,0.7C77.7,38.8,74.8,38.8,71.7,38.8z"/>
	</g>
	<g>
		<path class="st2" d="M39.2,40c1.3-1.2,2.4-2.3,3.6-3.3c2.2-1.9,4.7-2.6,7.4-2.9c2.6-0.2,5.1-0.1,7.5,0.7c5.3,1.8,8.5,5.7,9.8,11.2
			c1.8,7.6,0.4,14.7-3.5,21.3c-2.7,4.5-6.1,8.4-9.8,12c-4.3,4.2-9,7.9-13.8,11.5c-1.5,1.1-1.5,1.1-2.8-0.1
			c-3.9-3.4-7.9-6.7-11.8-10.1c-4.3-3.9-8.3-8.1-11.3-13.3c-2.3-3.9-3.7-8.2-4-12.8c-0.2-3-0.3-6.1,0.9-8.9
			c2.5-6.1,6.8-10,12.9-11.4c4.1-1,8-0.1,11.4,2.6c1,0.8,1.9,1.9,2.8,2.8C38.8,39.5,39,39.8,39.2,40z M33.4,78.4
			c0,0,0.1,0.1,0.1,0.1c4.8-6.3,9.6-12.6,14.6-19.1c-3.3,0-6.3,0-9.5,0c2.1-5,4.1-9.8,6.1-14.7c0,0-0.1,0-0.1-0.1
			c-4.9,6.3-9.8,12.6-14.7,18.9c3.3,0,6.4,0,9.7,0C37.5,68.6,35.4,73.5,33.4,78.4z"/>
	</g>
	<g>
		<path class="st0" d="M32.6,80.7c2.3-5.6,4.7-11.2,7-16.8c-3.7,0-7.4,0-11.1,0c5.6-7.2,11.2-14.4,16.8-21.6c0,0,0.1,0,0.1,0.1
			c-2.3,5.5-4.6,11.1-6.9,16.7c3.6,0,7.1,0,10.8,0c-5.6,7.4-11.1,14.5-16.6,21.7C32.7,80.8,32.6,80.8,32.6,80.7z"/>
	</g>
</g>
</svg>
