<?xml version="1.0" encoding="utf-8"?>
<!-- Generator: Adobe Illustrator 21.0.0, SVG Export Plug-In . SVG Version: 6.00 Build 0)  -->
<svg version="1.1" id="Calque_1" xmlns="http://www.w3.org/2000/svg" xmlns:xlink="http://www.w3.org/1999/xlink" x="0px" y="0px"
	 viewBox="0 0 150 150" style="enable-background:new 0 0 150 150;" xml:space="preserve">
<style type="text/css">
	.st0{fill:#1D1C1A;}
	.st1{fill:#FFFFFF;}
</style>
<g>
	<ellipse transform="matrix(1 -6.779627e-03 6.779627e-03 1 -0.5067 0.5102)" class="st0" cx="75" cy="75" rx="71.3" ry="71.3"/>
	<path class="st1" d="M90.5,110.8l33.1-33.6c1.4-1.4,1.4-3.7,0-5.1L90.1,39c-2.3-2.2-6.1-0.6-6.1,2.6l0.1,19.6l-50.6,0.3
		c-4.6,0-8.3,3.8-8.3,8.4l0.1,10.9c0,4.6,3.8,8.3,8.4,8.3l50.6-0.3l0.1,19.6C84.4,111.5,88.3,113.1,90.5,110.8z"/>
</g>
</svg>
