<svg xmlns="http://www.w3.org/2000/svg" viewBox="0 0 12 12"><defs><style>.cls-1{fill:#d84742;}.cls-2{fill:#ecf0f2;}</style></defs><title>Fichier 1</title><g id="Calque_2" data-name="Calque 2"><g id="Calque_1-2" data-name="Calque 1"><rect class="cls-1" width="12" height="12" rx="1.09" ry="1.09"/><path class="cls-2" d="M6.48,3.07H5.93c-.13,0-.14,0-.14.13a.53.53,0,0,1-.32.52l-.29.14L4.8,4a.51.51,0,0,0-.3.5c0,.23,0,.46,0,.68q0,2.64,0,5.28a.31.31,0,0,0,.34.35H7.45a.34.34,0,0,0,.37-.37q0-3,0-5.94a.52.52,0,0,0-.27-.48C7.44,4,7.32,4,7.2,3.9s-.33-.16-.49-.25a.39.39,0,0,1-.21-.34C6.5,3.23,6.49,3.16,6.48,3.07ZM5.06,2.23H4.44a.55.55,0,0,0-.52.28,1.79,1.79,0,0,0-.19.43c-.37,1.33-.74,2.66-1.11,4A.1.1,0,0,0,2.68,7a1.38,1.38,0,0,0,1,.18c.05,0,.07,0,.07-.08,0-.22.06-.45.09-.67.09-.66.17-1.32.26-2s.14-1,.22-1.56a.38.38,0,0,1,.37-.37l.33,0h.73c.13,0,.2-.09.16-.2a.16.16,0,0,0-.18-.11ZM5.52,2h.35a.29.29,0,0,1,.29.22.34.34,0,0,1-.29.48v.1h1A2,2,0,0,1,7.66,3,.72.72,0,0,1,8,3.31a.2.2,0,0,0,.08.09c.06,0,.13.05.18,0a.19.19,0,0,0,.07-.16.45.45,0,0,0-.09-.21,2.5,2.5,0,0,0-1.1-.81s-.12,0-.13-.08.07-.1.12-.14l0,0,1.12-.59.14-.1-.14-.06a.84.84,0,0,0-.57.09c-.13.06-.24.14-.37.2a1.43,1.43,0,0,1-.74.19H5.52Z"/><path class="cls-2" d="M6.48,3.07c0,.09,0,.17,0,.24a.39.39,0,0,0,.21.34c.16.09.32.17.49.25s.24.1.35.17a.52.52,0,0,1,.27.48q0,3,0,5.94a.34.34,0,0,1-.37.37H4.84a.31.31,0,0,1-.34-.35q0-2.64,0-5.28c0-.23,0-.46,0-.68A.51.51,0,0,1,4.8,4l.38-.18.29-.14a.53.53,0,0,0,.32-.52c0-.13,0-.13.14-.13ZM6.83,7.7a.78.78,0,0,1-.49.63A.85.85,0,0,0,7.07,8a1,1,0,0,0,.11-.85l-.09.27h0s0-.08,0-.13A1.1,1.1,0,0,0,7,6.73a3.5,3.5,0,0,1-.12-.37l-.14.16a2.25,2.25,0,0,0-.14-.29,4.27,4.27,0,0,0-.33-.45.69.69,0,0,0-.21-.11c0,.17.06.3.07.44A.48.48,0,0,1,6,6.5c0-.27-.13-.37-.28-.35a.47.47,0,0,1-.21.54,1,1,0,0,0-.25.3.88.88,0,0,0,0,.82l-.15-.08A.94.94,0,0,0,6,8.33a1.13,1.13,0,0,1-.37-.53.74.74,0,0,1,0-.28.56.56,0,0,1,.26-.42,1.05,1.05,0,0,0,.44-.49.66.66,0,0,1,.12.66l.29-.21a.8.8,0,0,1-.08.67Z"/><path class="cls-2" d="M5.06,2.23h.67a.16.16,0,0,1,.18.11c0,.12,0,.2-.16.2H5l-.33,0a.38.38,0,0,0-.37.37q-.11.78-.22,1.56c-.09.66-.18,1.32-.26,2,0,.22-.06.45-.09.67,0,0,0,.07-.07.08a1.38,1.38,0,0,1-1-.18.1.1,0,0,1-.05-.13c.37-1.33.74-2.66,1.11-4a1.79,1.79,0,0,1,.19-.43.55.55,0,0,1,.52-.28h.62Z"/><path class="cls-2" d="M5.52,2V1.75H6.64a1.43,1.43,0,0,0,.74-.19c.12-.07.24-.14.37-.2a.84.84,0,0,1,.57-.09l.14.06-.14.1L7.19,2l0,0c-.05,0-.14.06-.12.14s.08.07.13.08a2.5,2.5,0,0,1,1.1.81.45.45,0,0,1,.09.21.19.19,0,0,1-.07.16s-.12,0-.18,0A.2.2,0,0,1,8,3.31.72.72,0,0,0,7.66,3a2,2,0,0,0-.82-.18h-1v-.1a.34.34,0,0,0,.29-.48A.29.29,0,0,0,5.87,2Z"/><path class="cls-1" d="M6.83,7.7l-.2,0a.8.8,0,0,0,.08-.67l-.29.21a.66.66,0,0,0-.12-.66,1.05,1.05,0,0,1-.44.49.56.56,0,0,0-.26.42.74.74,0,0,0,0,.28A1.13,1.13,0,0,0,6,8.33a.94.94,0,0,1-.95-.61l.15.08a.88.88,0,0,1,0-.82,1,1,0,0,1,.25-.3.47.47,0,0,0,.21-.54c.16,0,.24.08.28.35a.48.48,0,0,0,.14-.39c0-.14,0-.27-.07-.44a.69.69,0,0,1,.21.11,4.27,4.27,0,0,1,.33.45,2.25,2.25,0,0,1,.14.29l.14-.16A3.5,3.5,0,0,0,7,6.73a1.1,1.1,0,0,1,.07.54s0,.08,0,.13h0l.09-.27A1,1,0,0,1,7.07,8a.85.85,0,0,1-.72.35A.78.78,0,0,0,6.83,7.7Z"/></g></g></svg>
