<svg xmlns="http://www.w3.org/2000/svg" viewBox="0 0 12 12"><defs><style>.cls-1{fill:#fff;}.cls-2{fill:#d84742;}</style></defs><title>kit-urgence</title><g id="Calque_2" data-name="Calque 2"><g id="Calque_1-2" data-name="Calque 1"><rect class="cls-1" x="0.26" y="0.26" width="11.48" height="11.48" rx="1.04" ry="1.04"/><path class="cls-2" d="M10.69,12H1.3A1.31,1.31,0,0,1,0,10.69V1.3A1.31,1.31,0,0,1,1.3,0h9.39A1.31,1.31,0,0,1,12,1.3v9.39A1.31,1.31,0,0,1,10.69,12ZM1.3.52a.78.78,0,0,0-.78.78v9.39a.78.78,0,0,0,.78.78h9.39a.78.78,0,0,0,.78-.78V1.3a.78.78,0,0,0-.78-.78Z"/><polygon class="cls-2" points="9.98 4.82 7.18 4.82 7.18 2.02 4.88 2.02 4.88 4.82 2.07 4.82 2.07 7.12 4.88 7.12 4.88 9.93 7.18 9.93 7.18 7.12 9.98 7.12 9.98 4.82"/></g></g></svg>
