<?xml version="1.0" encoding="utf-8"?>
<!-- Generator: Adobe Illustrator 19.0.1, SVG Export Plug-In . SVG Version: 6.00 Build 0)  -->
<svg version="1.1" xmlns="http://www.w3.org/2000/svg" xmlns:xlink="http://www.w3.org/1999/xlink" x="0px" y="0px"
	 viewBox="0 0 278.46 259.418" style="enable-background:new 0 0 278.46 259.418;" xml:space="preserve">
<style type="text/css">
	.st0{display:none;}
	.st1{display:inline;fill:#E26D4D;stroke:#383938;stroke-width:0.5;stroke-miterlimit:10;}
	.st2{fill:#FFFFFF;}
</style>
<g id="Calque_2" class="st0">
	<rect y="0.701" class="st1" width="595.28" height="841.89"/>
</g>
<g id="Calque_1">
	<path class="st2" d="M1.464,122.265c0-28.198,14.853-44.31,42.044-44.31c27.19,0,42.044,16.113,42.044,44.31v91.642
		c0,28.199-14.854,44.312-42.044,44.312c-27.191,0-42.044-16.113-42.044-44.312V122.265z M29.158,215.67
		c0,12.587,5.538,17.371,14.351,17.371c8.811,0,14.351-4.784,14.351-17.371v-95.167c0-12.588-5.539-17.371-14.351-17.371
		c-8.813,0-14.351,4.783-14.351,17.371V215.67z"/>
	<g>
		<path class="st2" d="M2.522,25.947h10.973c6.938,0,10.343,3.848,10.343,10.91v22.325c0,7.063-3.405,10.91-10.343,10.91H2.522
			V25.947z M9.459,32.254v31.532h3.91c2.208,0,3.532-1.135,3.532-4.288V36.542c0-3.152-1.324-4.288-3.532-4.288H9.459z"/>
		<path class="st2" d="M28.252,25.947h6.937v44.146h-6.937V25.947z"/>
		<path class="st2" d="M49.567,25.443c6.748,0,10.217,4.036,10.217,11.099v1.388h-6.559v-1.829c0-3.153-1.261-4.352-3.468-4.352
			c-2.208,0-3.469,1.198-3.469,4.352c0,9.082,13.559,10.784,13.559,23.397c0,7.063-3.532,11.1-10.343,11.1
			s-10.342-4.036-10.342-11.1v-2.712h6.559v3.153c0,3.153,1.387,4.288,3.595,4.288c2.207,0,3.595-1.135,3.595-4.288
			c0-9.081-13.559-10.784-13.559-23.397C39.351,29.48,42.819,25.443,49.567,25.443z"/>
		<path class="st2" d="M87.342,69.967h-1.577l-10.91-41.938v42.064h-1.261V25.947h2.145l10.847,41.875l10.847-41.875h2.145v44.146
			h-1.388V28.028L87.342,69.967z"/>
		<path class="st2" d="M104.558,36.795c0-7.315,3.216-11.163,9.333-11.163c6.243,0,9.46,3.848,9.46,11.163v22.451
			c0,7.315-3.217,11.162-9.46,11.162c-6.117,0-9.333-3.847-9.333-11.162V36.795z M105.944,59.309c0,6.496,2.712,9.838,7.946,9.838
			c5.298,0,8.072-3.342,8.072-9.838V36.732c0-6.495-2.774-9.838-8.072-9.838c-5.234,0-7.946,3.343-7.946,9.838V59.309z"/>
		<path class="st2" d="M129.72,25.947v44.146h-1.388V25.947H129.72z"/>
	</g>
	<g>
		<path class="st2" d="M60.921,48.092h8.9v1h-8.9V48.092z"/>
	</g>
	<g>
		<g>
			<rect x="200.124" y="226.754" class="st2" width="27.044" height="27.045"/>
			<path class="st2" d="M218.966,28.619c25.57,0.972,30.363,23.691,30.363,36.448c0,44.393-48.651,54.906-48.906,133.954v16.785
				h26.216v-16.616c0.529-63.738,50.754-85.903,50.754-132.337c0-33.625-20.077-66.152-58.919-66.152
				c-40.146,0-59.937,35.064-59.937,63.64v15.805h0.028v135.775c0,12.588-5.538,17.12-14.351,17.12
				c-8.811,0-14.351-4.532-14.351-17.12v-99.445H102.17v97.683c0,28.198,14.099,44.31,41.29,44.31s41.29-16.113,41.29-44.31V79.969
				h-0.004l0.326-17.414C185.071,49.798,195.891,27.742,218.966,28.619z"/>
		</g>
	</g>
	<g>
		<g>
			<path class="st2" d="M120.251,81.188l9.66,25.314h-28.402L90.617,81.188H120.251z"/>
		</g>
	</g>
</g>
</svg>
