<svg xmlns="http://www.w3.org/2000/svg" viewBox="0 0 27 13.5"><defs><style>.cls-1{fill:#d84742;}.cls-2{fill:#ecf0f2;}</style></defs><title>sortie</title><g id="Calque_2" data-name="Calque 2"><g id="Calque_1-2" data-name="Calque 1"><rect class="cls-1" width="27" height="13.5" rx="2.07" ry="2.07"/><path class="cls-2" d="M4.38,8a.53.53,0,0,0-.18-.43,2.24,2.24,0,0,0-.64-.32,4.74,4.74,0,0,1-1.39-.67,1.24,1.24,0,0,1-.45-1,1.28,1.28,0,0,1,.53-1.06A2.13,2.13,0,0,1,3.6,4.06,2.14,2.14,0,0,1,5,4.48a1.38,1.38,0,0,1,.51,1.18v0H4.35a.68.68,0,0,0-.19-.54A.87.87,0,0,0,3.57,5a.73.73,0,0,0-.5.16.51.51,0,0,0-.18.4.44.44,0,0,0,.19.37,3.6,3.6,0,0,0,.7.35,3.67,3.67,0,0,1,1.32.66A1.34,1.34,0,0,1,5.54,8,1.28,1.28,0,0,1,5,9.05a2.22,2.22,0,0,1-1.37.39A2.42,2.42,0,0,1,2.22,9a1.47,1.47,0,0,1-.57-1.32v0H2.78A.84.84,0,0,0,3,8.33a1,1,0,0,0,.66.19.83.83,0,0,0,.54-.15A.49.49,0,0,0,4.38,8Z"/><path class="cls-2" d="M10.34,7.22a2.24,2.24,0,0,1-.59,1.59,2,2,0,0,1-1.53.63,2,2,0,0,1-1.55-.63,2.23,2.23,0,0,1-.59-1.59V6.28a2.24,2.24,0,0,1,.59-1.59,2,2,0,0,1,1.54-.63,2,2,0,0,1,1.53.63,2.23,2.23,0,0,1,.59,1.59ZM9.18,6.27a1.56,1.56,0,0,0-.25-.92.9.9,0,0,0-1.44,0,1.58,1.58,0,0,0-.25.92v.95a1.58,1.58,0,0,0,.25.93.83.83,0,0,0,.72.36.81.81,0,0,0,.71-.36,1.58,1.58,0,0,0,.25-.93Z"/><path class="cls-2" d="M12.21,7.36v2H11.05V4.13H12.8a2.1,2.1,0,0,1,1.38.42,1.41,1.41,0,0,1,.51,1.15,1.18,1.18,0,0,1-.2.7,1.46,1.46,0,0,1-.6.47,1.12,1.12,0,0,1,.66.45,1.46,1.46,0,0,1,.2.79v.33a2.18,2.18,0,0,0,.06.47.62.62,0,0,0,.2.37v.07H13.8A.6.6,0,0,1,13.62,9a3.64,3.64,0,0,1,0-.53V8.13a.8.8,0,0,0-.19-.57.73.73,0,0,0-.55-.2Zm0-.93h.59a.78.78,0,0,0,.54-.17.61.61,0,0,0,.19-.48.71.71,0,0,0-.19-.52.72.72,0,0,0-.54-.2h-.58Z"/><path class="cls-2" d="M18.86,5.07H17.53v4.3H16.37V5.07h-1.3V4.13h3.79Z"/><path class="cls-2" d="M20.56,9.37H19.4V4.13h1.16Z"/><path class="cls-2" d="M24.36,7.13H22.6V8.43h2.12v.93H21.43V4.13h3.28v.93H22.6V6.19h1.77Z"/></g></g></svg>
