<?xml version="1.0" encoding="utf-8"?>
<!-- Generator: Adobe Illustrator 21.0.0, SVG Export Plug-In . SVG Version: 6.00 Build 0)  -->
<svg version="1.1" id="Calque_1" xmlns="http://www.w3.org/2000/svg" xmlns:xlink="http://www.w3.org/1999/xlink" x="0px" y="0px"
	 viewBox="0 0 70 70" style="enable-background:new 0 0 70 70;" xml:space="preserve">
<style type="text/css">
	.st0{fill:#BFD9E0;}
	.st1{fill:#F6F6F6;}
</style>
<g>
	<path class="st0" d="M11.5,3.1c0,21.9,0,43.6,0,65.2c4.8,0,9.4,0,14.4,0c0-7.2,0-14.3,0-21.7c4.1,0,8,0.1,11.8,0
		c11.3-0.4,20.6-9.8,20.9-21.1C58.8,14,50,3.8,38.6,3.2C29.7,2.8,20.7,3.1,11.5,3.1z"/>
	<path class="st0" d="M11.5,3.1c9.2,0,18.2-0.4,27.1,0.1C50,3.8,58.8,14,58.5,25.5c-0.3,11.3-9.6,20.8-20.9,21.1
		c-3.8,0.1-7.6,0-11.8,0c0,7.3,0,14.4,0,21.7c-4.9,0-9.5,0-14.4,0C11.5,46.7,11.5,25.1,11.5,3.1z M25.9,32.1c4.2,0,8,0.1,11.8,0
		c3.7-0.1,6.5-2.9,6.9-6.4c0.4-3.7-1.9-7.4-5.5-7.8c-4.3-0.4-8.7-0.1-13.1-0.1C25.9,22.6,25.9,27.2,25.9,32.1z"/>
	<path class="st1" d="M25.9,32.1c0-4.9,0-9.5,0-14.3c4.4,0,8.8-0.3,13.1,0.1c3.6,0.4,5.9,4.1,5.5,7.8c-0.3,3.5-3.2,6.3-6.9,6.4
		C33.9,32.2,30.1,32.1,25.9,32.1z"/>
</g>
</svg>
